<svg width="208" height="341" viewBox="0 0 208 341" fill="none" xmlns="http://www.w3.org/2000/svg">
<path fill-rule="evenodd" clip-rule="evenodd" d="M64.981 0.0255817C90.8774 0.745159 110.196 21.4988 117.603 45.9653C124.427 68.5087 116.389 92.5284 97.231 106.562C77.3807 121.104 50.6369 123.725 30.2066 109.986C7.77914 94.9044 -5.7196 68.3095 2.35929 42.7631C10.7118 16.3513 36.9214 -0.754103 64.981 0.0255817Z" fill="#F5AA00"/>
<path fill-rule="evenodd" clip-rule="evenodd" d="M177.281 274.014C191.74 274.42 202.526 286.104 206.661 299.88C210.472 312.572 205.984 326.096 195.287 333.997C184.204 342.184 169.272 343.661 157.865 335.925C145.343 327.434 137.807 312.46 142.317 298.077C146.981 283.206 161.614 273.575 177.281 274.014Z" fill="#00D18A"/>
</svg>
