<svg width="110" height="513" viewBox="0 0 110 513" fill="none" xmlns="http://www.w3.org/2000/svg">
<path fill-rule="evenodd" clip-rule="evenodd" d="M0.0061264 0.00067985C13.3499 0.0746425 26.2182 6.72519 30.4678 19.0061C34.8394 31.6396 29.5579 45.4316 18.4248 53.2283C7.41029 60.9419 -7.36672 60.8992 -18.4274 53.2482C-29.8211 45.3668 -36.0022 31.537 -31.5451 18.6623C-27.2075 6.13242 -13.6088 -0.074786 0.0061264 0.00067985Z" fill="#00D18A"/>
<path fill-rule="evenodd" clip-rule="evenodd" d="M57.8583 405.023C80.5177 405.676 97.4217 424.512 103.902 446.716C109.873 467.176 102.84 488.975 86.0772 501.712C68.7081 514.909 45.3073 517.289 27.4308 504.82C7.80675 491.132 -4.00465 466.995 3.06438 443.81C10.3728 419.84 33.3062 404.316 57.8583 405.023Z" fill="#F5AA00"/>
<path fill-rule="evenodd" clip-rule="evenodd" d="M79.7576 353.548C75.7573 349.308 76.1366 342.782 79.029 337.533C81.694 332.696 86.9691 329.979 92.3521 330.692C97.9296 331.43 102.621 335.249 103.585 340.785C104.644 346.863 102.367 353.435 96.8313 356.4C91.1081 359.466 84.0922 358.142 79.7576 353.548Z" fill="#BC48E3"/>
<path fill-rule="evenodd" clip-rule="evenodd" d="M61.4828 122.001C74.2107 122.071 86.485 128.415 90.5385 140.129C94.7084 152.179 89.6706 165.335 79.0513 172.772C68.5452 180.129 54.4502 180.089 43.9 172.791C33.0322 165.273 27.1364 152.081 31.3877 139.801C35.5252 127.849 48.4962 121.929 61.4828 122.001Z" fill="#FD280E"/>
</svg>
