<svg xmlns="http://www.w3.org/2000/svg" viewBox="0 0 1443 246"><defs><style>.cls-1{fill:none;}.cls-2{fill:#00d18a;}.cls-3{fill:#ead2d7;}.cls-4{fill:#9f2e0d;}.cls-5{fill:#412e0d;}.cls-6{fill:#dbc0bc;}.cls-7{fill:#e5ebe2;}.cls-8{fill:#e5d6e2;}.cls-9{fill:#ff5a9a;}.cls-10{fill:#f4e410;}.cls-11{fill:#7236d1;}.cls-12{fill:#f48f9e;}.cls-13{fill:#e36c6c;}.cls-14{fill:#eaede2;}.cls-15{fill:#925ed1;}.cls-16{fill:#e3559e;}.cls-17{fill:#018eff;}.cls-18{fill:#28c5e6;}.cls-19{fill:#db7a4a;}.cls-20{fill:#e4990a;}.cls-21{fill:#d9d8d7;}.cls-22{fill:#c6694a;}.cls-23{fill:#f5aa00;}.cls-24{fill:#b9d9f8;}.cls-25{fill:#f4d3b0;}.cls-26{fill:#f473f8;}.cls-27{fill:#f4be90;}.cls-28{fill:#f49f31;}.cls-29{fill:#f4e0d9;}.cls-30{fill:#1e32b3;}.cls-31{fill:#e68377;}.cls-32{fill:#6cecb4;}.cls-33{fill:#8ad29d;}.cls-34{fill:#723612;}.cls-35{fill:#bc8377;}.cls-36{fill:#f2efec;}.cls-37{fill:#3b302b;}.cls-38{fill:#bc48e3;}.cls-39{fill:#fd280e;}</style></defs><g id="レイヤー_2" data-name="レイヤー 2"><g id="レイヤー_2-2" data-name="レイヤー 2"><path class="cls-1" d="M272.59,182.08Z"/><path class="cls-1" d="M1405.3,181.2c-13.81-18.36-16.3-43.1-3.25-62,9.8-14.2,24.73-24.52,41-27.24V0H0V59.28l1,0C21.63,59.18,42.15,69,48.66,88.5c6.62,19.82-2.95,41-20.18,53a43.43,43.43,0,0,1-22.87,7.7A43.35,43.35,0,0,1,0,152.3V246H1443V202.06A52.68,52.68,0,0,1,1405.3,181.2Zm7.16-151.75a10.33,10.33,0,0,1,13.26,14.89,10.13,10.13,0,0,1-18.59-4.06C1406.57,35.85,1408.46,31.35,1412.46,29.45ZM894,37.08c3.48-10.6,13.89-17,24.92-16.81,10.44.19,19.13,7.62,22.28,17.68a24.25,24.25,0,0,1-8.4,26.63c-8.56,6.49-20.22,7.91-29,1.7A26.06,26.06,0,0,1,894,37.08ZM63.52,179.23c-5.71,4-13.35,4.43-19,.36S37.69,168.38,39.84,162a15.6,15.6,0,0,1,14.32-10.77c7.23-.18,14.51,3.26,16.76,10S69.46,175.1,63.52,179.23Zm33.33-69c-12-8.28-18.5-22.81-13.81-36.34,4.57-13.17,18.89-19.69,33.22-19.61,14,.07,27.59,7.06,32.06,20,4.61,13.27-.95,27.77-12.67,36A34.1,34.1,0,0,1,96.85,110.22Zm80.28,100.27a31.84,31.84,0,0,1-36.54,0c-11.3-7.88-17.43-21.71-13-34.58,4.3-12.53,17.79-18.74,31.29-18.66,13.23.07,26,6.72,30.21,19C193.41,188.9,188.17,202.7,177.13,210.49Zm176-87.2a105,105,0,0,0-14.35,3.83c2,1.15,3.2,4.28,1,6.34-.13.12-.27.22-.4.33a1.59,1.59,0,0,1,.66,1,1.32,1.32,0,0,1-.26,1.07,3.36,3.36,0,0,1-.8,4.49l-.88.67a1.05,1.05,0,0,1,.05.19,4.16,4.16,0,0,1,.73,2.56,3.71,3.71,0,0,1-4,3.36c-.67,0-1.34,0-2-.09l-.12.07a2.05,2.05,0,0,1-1.56.05l-1.73-.48a1.49,1.49,0,0,1-.5-.26l-.72-.17a13.92,13.92,0,0,1-8.1,4.57c-1.46.23-2.95.43-4.47.61A44.66,44.66,0,0,1,303,168.91,54.18,54.18,0,0,1,276.1,180.5a2.41,2.41,0,0,1-.68,1.85,3.54,3.54,0,0,1-4.84-.26,4,4,0,0,1-2.52-.61l-.45-.27c-.88,0-1.77,0-2.65,0a42,42,0,0,0,6.28,4.94,3,3,0,0,1,1.49,2.8,2.2,2.2,0,0,1,1.06,2.59,2,2,0,0,1-1,1.13,2.1,2.1,0,0,1-1.56.06l-1.66-.46a3.16,3.16,0,0,1-1.67-.37,4,4,0,0,1-.16,1.06,2.75,2.75,0,0,1-.5.92,2.41,2.41,0,0,1-.32,1.35,2,2,0,0,1-1.28.83,2.17,2.17,0,0,1-1.5-.36l-1.77-1.08a1.73,1.73,0,0,1-.64-.73l-.16-.12a4.23,4.23,0,0,1-.25.58,2.16,2.16,0,0,1,.26,1.85A2,2,0,0,1,259,197.4l-2.33-1.05a2.19,2.19,0,0,1-1.29-1.64l-1.29-.83a3,3,0,0,1-.86-.9c.08.13.15.26.22.39a2.09,2.09,0,0,1,.1,1.59,2,2,0,0,1-1,1.13,1.94,1.94,0,0,1-1.55,0,2.2,2.2,0,0,1-1.12-1l-.25-.44a3.14,3.14,0,0,1-1.35-.74,21.83,21.83,0,0,1-7.43-16.83A70.23,70.23,0,0,1,198.38,138a71.75,71.75,0,0,1,1.82-60.32c9.61-19.23,26.4-35.08,47.4-38.14,20.17-2.93,38.85,8.94,53.46,23.48,13.35,13.3,20,31.08,20.39,50.06q.07,3.85,0,7.76l.47-.23a4.65,4.65,0,0,1,.9-.28,17.55,17.55,0,0,1,1.85-1.47,1.76,1.76,0,0,1,.09-.2,11.76,11.76,0,0,1,3.92-4.1c.66-.44,1.34-.82,2-1.22l.62-.39c.33-.24.66-.5,1-.77.07-.06.15-.1.23-.16a4.62,4.62,0,0,1,4.43-2,2.17,2.17,0,0,1,1.84,2.27,1.7,1.7,0,0,1-.19.7,4.68,4.68,0,0,1,.69,3.93,1.48,1.48,0,0,1,.14,1.23,113.54,113.54,0,0,1,12.24-3.08C356.72,114.09,358.19,122.31,353.12,123.29Zm29.69,66.37a14.07,14.07,0,0,1-16.93-2.85c-4-4.24-3.59-10.76-.72-16A13.1,13.1,0,0,1,378.37,164c5.53.73,10.18,4.55,11.14,10.09C390.56,180.13,388.3,186.7,382.81,189.66ZM435.61,105c-17.22,13.19-40.43,15.57-58.15,3.1-19.46-13.68-31.18-37.82-24.17-61,7.25-24,30-39.49,54.34-38.78,22.47.65,39.23,19.49,45.66,41.69A51.15,51.15,0,0,1,435.61,105Zm138.54,99.9c-24.32,18.82-57.46,23-82.35,4.94-26.16-18.93-38-53.41-27.9-84.7A69.15,69.15,0,0,1,498,85c1.16-5.69,4-10.77,9.36-13.67a18.44,18.44,0,0,1,2-.93,5.64,5.64,0,0,1,3.44-1.93l1-.12a18.63,18.63,0,0,1,6.48-1c3.11,0,7.18.9,9.6-1.59a3.49,3.49,0,0,1,2.58-1.13,4.16,4.16,0,0,1,2.08-.32c1.68.2,3.56,1.92,3.32,3.79-.05.34-.1.68-.17,1h0c-.22,1.07-.43,2.13-.64,3.19a3.4,3.4,0,0,1-1.8,2.31c-.08.11-.16.23-.24.33a7.17,7.17,0,0,1,.32,1.46c29.37.85,53.77,22.28,62.66,51.25C606.75,156.12,597.32,187,574.15,204.88ZM625.49,51.93A19.45,19.45,0,0,1,611.67,69.3c-8.61,2.56-18.44.86-23.26-6.37s-2.58-16.83,3.25-23.64c5.61-6.54,14.64-9.57,22.67-6.57C622.15,35.64,626.08,43.73,625.49,51.93ZM651.61,65.3C665,24.42,705.18-.35,747.77.44,778.46,1,805.23,17.81,821.61,43l.14-.11a16.32,16.32,0,0,1,4.86-2.35c1.78-.57,3.65-.81,5-2.25,2.52-2.75,6.34.4,5.51,3.36a.77.77,0,0,1,.46.37c5.64-1.23,11.58-2,16.36-4.07a3.71,3.71,0,0,1,5,2.65.9.9,0,0,1,.3.63.8.8,0,0,1-.25.57,3.74,3.74,0,0,1,.3,6.08c-.57.42-1.15.81-1.74,1.18,1.83,1.69,1.9,5.14-1.13,5.6l-1.67.25a.72.72,0,0,1-.65.32h-.91c.54,2-.48,4.37-3.07,4.24a24.93,24.93,0,0,0-17,5.32,4.12,4.12,0,0,1-.54.35c.41,1.18.81,2.37,1.18,3.56a93.51,93.51,0,0,1-32.39,102.76,111.08,111.08,0,0,1-28.75,15.74c.38,5.27.78,10.55,1.24,15.82.3,3.5.62,6.84,1,10.09l5.31,11.8c2.52,5.59,1.46,11.49-3.89,15a9.18,9.18,0,0,1-3.59,1.32,12.2,12.2,0,0,1-3.27,1.63,9.89,9.89,0,0,1-7.84-.88,11.63,11.63,0,0,1-1.47.6c-5.78,1.9-11.54-2.22-13.34-7.64C745.41,231,745.13,227,744.4,223c-.64-3.54-2.07-6.81-3.11-10.24a57.57,57.57,0,0,1-2.17-13c-.13-1.87-.19-3.74-.3-5.61,0-.29-.05-.57-.07-.86a89.63,89.63,0,0,1-10.75-.62c-1.77,14-3.52,28-4.69,42.12-.42,5-4.15,10.84-9.67,11h-.14a9.16,9.16,0,0,1-1-.05l-7.84-.93c-6.33-.76-10.25-4.51-10.85-10.94-1.62-17,1.07-34.1,3.81-50.89a82,82,0,0,1-8.08-5C654,152.81,638,106.93,651.61,65.3ZM856.06,192.51c-5.75,4-13.32,3.49-19-.58s-9.36-11.3-7.14-18.14,9.24-10.5,16.44-10.53,14.55,3.48,16.85,10.4S862.15,188.25,856.06,192.51Zm168.72,1.66c-22.4,22.34-55,32.81-82.59,19.28-22.37-11-35.93-33.22-38-57.76l-.2,0c-2.24.59-4.2,1.31-6.56.77-4.59-1.06-7.12-5-9-9a3.83,3.83,0,0,1-.35-1.3h0a1.16,1.16,0,0,1-.43-.39,1,1,0,0,1-.27-.52,1.12,1.12,0,0,1,0-.6,1.31,1.31,0,0,1,.18-.57l.12-.25a1.67,1.67,0,0,1,.54-.55l.36-.15a1.51,1.51,0,0,1,.7,0,4.3,4.3,0,0,1,.94-.71l-2.27-3.85a3.65,3.65,0,0,1-.52-1.73s0,0,0,0a1.41,1.41,0,0,1-.16-.7c0-.15,0-.3,0-.45a1.83,1.83,0,0,1,.25-.91c.09-.13.18-.25.28-.37a1.77,1.77,0,0,1,.8-.47l.44-.06a4,4,0,0,1,2.4-.67q-.09-.42-.18-.81a3.72,3.72,0,0,1-.1-1.13,1.84,1.84,0,0,1,1.43-2.9,2.33,2.33,0,0,1,.38,0,4.09,4.09,0,0,1,1.67-.53,7.08,7.08,0,0,0-.31-1.73,3.39,3.39,0,0,1-.07-2.08,2.42,2.42,0,0,1,.24-.93,3.07,3.07,0,0,1,2.06-1.62,2,2,0,0,1,1.38.18,3.53,3.53,0,0,1,3.37,2.51,13.44,13.44,0,0,1,.77,4,19.26,19.26,0,0,1-.25,2.23l.33.23.72.4a9.65,9.65,0,0,1,2.19,1.89l.47.53a76.73,76.73,0,0,1,61.09-60c32.18-5.91,65.59,7,79.64,36.15C1060,138,1047.64,171.37,1024.78,194.17Zm136.67-66.12c-13.07,9.08-28.8,11.91-44.53,9.26-17.15-2.89-35-8.89-43.27-24.06-8.67-15.86-6.18-35.3,2-51.42a59.57,59.57,0,0,1,89.41-20.23c14.38,11,24.86,27.46,24.11,45.47C1188.44,104.36,1175.73,118.11,1161.45,128.05ZM1225,207a30.41,30.41,0,0,1-34.86,0c-10.78-7.52-16.63-20.71-12.41-33,4.1-12,17-17.88,29.84-17.8,12.63.07,24.8,6.41,28.82,18.12C1240.48,186.44,1235.49,199.6,1225,207Zm118.46-45.75c-21.89,16.72-51.37,19.73-73.89,3.94-14.2-10-25.14-24.29-30.2-40.25a4.79,4.79,0,0,1-1.52-1.08,12.85,12.85,0,0,1-6.81,2.44,5.89,5.89,0,0,1-4.79-1.8,10,10,0,0,1-5.82-4.16,5.09,5.09,0,0,1,1-6.78,3.74,3.74,0,0,1,.86-.56,5.35,5.35,0,0,1-.21-4.25,4.53,4.53,0,0,1,3.07-2.75,5.37,5.37,0,0,1,1-3.8,4.67,4.67,0,0,1,1.44-1.28,1.79,1.79,0,0,1,.57-1.75l.1-.07a5.52,5.52,0,0,1,1.9-4.27c2.19-1.74,4.87-1.08,6.59.81a3.11,3.11,0,0,0,.37.35,58.48,58.48,0,0,1,1.85-8.08c7.93-26.18,30.52-44.4,56.43-48.34,6.07-3.62,15.06-3.14,21.67.3,24,5,41.66,26.67,48.93,51.72C1373.4,117.55,1364.54,145.16,1343.42,161.29Z"/><path class="cls-1" d="M253.13,192.78l-.15-.31v0Z"/><path class="cls-2" d="M535.35,76.39a5.34,5.34,0,0,1,0,.69,27.07,27.07,0,0,1,4.15,6,2.94,2.94,0,0,1,3.09,1.36l2.15,3.8a3,3,0,0,1-1,4,2.6,2.6,0,0,1-1.6.39,1.79,1.79,0,0,1,0,.23,24,24,0,0,1-.34,5.79.67.67,0,0,1,.06.12,1.48,1.48,0,0,1,.17.75V100a2,2,0,0,1-.57,1.36,1.53,1.53,0,0,1-.4.31,24.62,24.62,0,0,1-6.64,10.87,16.46,16.46,0,0,1-1.74,1.38,8.44,8.44,0,0,1-.56,2.52,18.25,18.25,0,0,1,7.46-1.89c.87,0,1.73-.1,2.6-.17,1.29-.23,2.58-.5,3.86-.83a16.34,16.34,0,0,1,8.07-.05A11.82,11.82,0,0,1,559,113c6,.59,12,1.23,17.33,4.38a29,29,0,0,1,4.33,3.16,2.08,2.08,0,0,1,1,0h0a8.52,8.52,0,0,1,9.94,5.17,3.59,3.59,0,0,1,3.23,2.67,30,30,0,0,1,.7,13.93,3.39,3.39,0,0,1-2.19,2.48,15.66,15.66,0,0,1-6.59,9,3.21,3.21,0,0,1-2,.52,2.05,2.05,0,0,1-1.54.64,2.12,2.12,0,0,1-.83-.16A48.2,48.2,0,0,1,573,163.1a13.13,13.13,0,0,1-5.09,2.09,40.78,40.78,0,0,1-13.83,2.57c-22.29,1-42.4-7.81-63.57-13.15-.23-.06-.44-.14-.67-.21a16.66,16.66,0,0,1-14-11.81c-1.81-5.64.32-12.13,4.52-16.28.84-8,8.35-14.11,16.17-14.28a52.41,52.41,0,0,1,5.31.16,22.72,22.72,0,0,1-2.66-6,49.33,49.33,0,0,1-1.6-18.34c.1-1,.25-1.91.44-2.85a69.15,69.15,0,0,0-34.13,40.15c-10.06,31.29,1.74,65.77,27.9,84.7,24.89,18,58,13.88,82.35-4.94,23.17-17.93,32.6-48.76,23.86-77.24C589.12,98.67,564.72,77.24,535.35,76.39Z"/><path class="cls-3" d="M511.22,120.07a17.93,17.93,0,0,1,2.64-1.1,7.79,7.79,0,0,1-1.76-1.37,12.65,12.65,0,0,1-8.21-3,13.09,13.09,0,0,1-2-2.42,52.41,52.41,0,0,0-5.31-.16c-7.82.17-15.33,6.31-16.17,14.28a14.6,14.6,0,0,1,6.84-3.89A89.35,89.35,0,0,1,511.22,120.07Z"/><path class="cls-4" d="M539.42,101.75a1.38,1.38,0,0,1-.61-.4c-.06-.06-.1-.12-.15-.18a5.5,5.5,0,0,1-3.79,1.48,3.41,3.41,0,0,1-.46-.05,24.54,24.54,0,0,1-3.25,5.93,7.89,7.89,0,0,1,1.57,5.38,16.46,16.46,0,0,0,1.74-1.38,24.62,24.62,0,0,0,6.64-10.87,2.25,2.25,0,0,1-1,.26A1.58,1.58,0,0,1,539.42,101.75Z"/><path class="cls-4" d="M536.46,96.69l-.23.32a3.43,3.43,0,0,1,.22-.3Z"/><path class="cls-4" d="M536.54,89.89q0,1-.06,2s0,0,0,0a3.73,3.73,0,0,1,1.29.44,5.55,5.55,0,0,1,2.63,5.19,1.29,1.29,0,0,1,.46.14,1.38,1.38,0,0,1,.61.4,1.31,1.31,0,0,1,.34.5,24,24,0,0,0,.34-5.79,1.79,1.79,0,0,0,0-.23,3,3,0,0,1-2.33-1.42l-2.16-3.8a3,3,0,0,1,1-4,2.34,2.34,0,0,1,.84-.33,27.07,27.07,0,0,0-4.15-6,7.49,7.49,0,0,1-.13,1.55A36.92,36.92,0,0,1,536.54,89.89Z"/><path class="cls-4" d="M531.16,108.53c-.16.22-.31.43-.48.64a23.26,23.26,0,0,1-16.28,8.39,19.54,19.54,0,0,1-2.3,0,7.79,7.79,0,0,0,1.76,1.37,16.73,16.73,0,0,1,9.3-.35l4.56,1.19c.14-.16.27-.32.41-.47l.23-.2a1.26,1.26,0,0,1,.85-1.07l.67-.22a15.56,15.56,0,0,1,2.29-1.42,8.44,8.44,0,0,0,.56-2.52A7.89,7.89,0,0,0,531.16,108.53Z"/><path class="cls-5" d="M499.19,106.16a22.72,22.72,0,0,0,2.66,6,13.09,13.09,0,0,0,2,2.42,12.65,12.65,0,0,0,8.21,3,19.54,19.54,0,0,0,2.3,0,23.26,23.26,0,0,0,16.28-8.39c.17-.21.32-.42.48-.64a24.54,24.54,0,0,0,3.25-5.93,6.21,6.21,0,0,1-5.23-4.26,7.18,7.18,0,0,1,1.64-6.77c1.35-1.68,4-1.3,5.41,0a2.6,2.6,0,0,1,.25.31q0-1,.06-2a36.92,36.92,0,0,0-1.27-11.26c0,.22-.08.44-.14.66-1,3.78-5.53,6.81-9.41,5.38a19.06,19.06,0,0,0-8.87-1.36,10.65,10.65,0,0,1-3.91-.13,9.54,9.54,0,0,0,.94,1.82c2.75,4.14-3.88,8-6.6,3.89a13.89,13.89,0,0,1,.82-16.62,8.12,8.12,0,0,1,1.25-1.9,18.44,18.44,0,0,0-2,.93c-5.33,2.9-8.2,8-9.36,13.67-.19.94-.34,1.89-.44,2.85A49.33,49.33,0,0,0,499.19,106.16Z"/><path class="cls-5" d="M528.88,79.06a3.85,3.85,0,0,1-4.7-2.69,3.9,3.9,0,0,1-.11-1.31c-1.07,0-2.16,0-3.25,0-2.73,0-5.53.14-7.26,2.58a5.73,5.73,0,0,0-.62,5.55,10.65,10.65,0,0,0,3.91.13,19.06,19.06,0,0,1,8.87,1.36c3.88,1.43,8.38-1.6,9.41-5.38.06-.22.1-.44.14-.66a7.49,7.49,0,0,0,.13-1.55,5.34,5.34,0,0,0,0-.69,7.17,7.17,0,0,0-.32-1.46A12.14,12.14,0,0,1,528.88,79.06Z"/><path class="cls-5" d="M510.1,70.33a13,13,0,0,1,3.68-2l-1,.12a5.64,5.64,0,0,0-3.44,1.93,8.12,8.12,0,0,0-1.25,1.9A13.63,13.63,0,0,1,510.1,70.33Z"/><path class="cls-5" d="M535.26,71.19c-3.15,3.24-7.07,3.8-11.19,3.87a3.9,3.9,0,0,0,.11,1.31,3.85,3.85,0,0,0,4.7,2.69A12.14,12.14,0,0,0,535,74.93c.08-.1.16-.22.24-.33a3.4,3.4,0,0,0,1.8-2.31c.21-1.06.42-2.12.64-3.19h0c.07-.33.12-.67.17-1,.24-1.87-1.64-3.59-3.32-3.79a4.16,4.16,0,0,0-2.08.32C535.35,64.64,537.92,68.47,535.26,71.19Z"/><path class="cls-5" d="M510.1,70.33a13.63,13.63,0,0,0-2,1.94,13.89,13.89,0,0,0-.82,16.62c2.72,4.11,9.35.25,6.6-3.89a9.54,9.54,0,0,1-.94-1.82,5.73,5.73,0,0,1,.62-5.55c1.73-2.44,4.53-2.62,7.26-2.58,1.09,0,2.18,0,3.25,0,4.12-.07,8-.63,11.19-3.87,2.66-2.72.09-6.55-2.82-6.58a3.49,3.49,0,0,0-2.58,1.13c-2.42,2.49-6.49,1.61-9.6,1.59a18.63,18.63,0,0,0-6.48,1A13,13,0,0,0,510.1,70.33Z"/><path class="cls-4" d="M538.66,101.17a1.29,1.29,0,0,1-.25-.44,1.53,1.53,0,0,1-.17-.75v-.54a2,2,0,0,1,.57-1.36,1.89,1.89,0,0,1,1.35-.57,1.27,1.27,0,0,1,.28,0,5.55,5.55,0,0,0-2.63-5.19,3.73,3.73,0,0,0-1.29-.44s0,0,0,0a2.6,2.6,0,0,0-.25-.31c-1.39-1.29-4.06-1.67-5.41,0a7.18,7.18,0,0,0-1.64,6.77,6.21,6.21,0,0,0,5.23,4.26,3.41,3.41,0,0,0,.46.05A5.5,5.5,0,0,0,538.66,101.17Zm-2.2-4.48v0a3.43,3.43,0,0,0-.22.3Z"/><path class="cls-4" d="M537.68,87.34l2.16,3.8a3,3,0,0,0,2.33,1.42,2.6,2.6,0,0,0,1.6-.39,3,3,0,0,0,1-4l-2.15-3.8a2.94,2.94,0,0,0-3.09-1.36,2.34,2.34,0,0,0-.84.33A3,3,0,0,0,537.68,87.34Z"/><path class="cls-3" d="M550.74,157.22a14.48,14.48,0,0,1-2-10.85l-.76.13a16.92,16.92,0,0,1-18.5,7.64l-15-3.9c-8.81-2.3-13.28-11.62-11.35-20.17a15.08,15.08,0,0,1,8.05-10,89.35,89.35,0,0,0-24,2.35,14.6,14.6,0,0,0-6.84,3.89c-4.2,4.15-6.33,10.64-4.52,16.28a16.66,16.66,0,0,0,14,11.81c.23.07.44.15.67.21,21.17,5.34,41.28,14.15,63.57,13.15a40.78,40.78,0,0,0,13.83-2.57C561.37,166.4,554.28,162.75,550.74,157.22Z"/><path class="cls-3" d="M583.47,127.91h0S583.45,127.9,583.47,127.91Z"/><path class="cls-3" d="M564.73,121.83c3.76-.41,7.5-.88,11.09.93,1.46.74.17,3-1.29,2.22-2.7-1.37-5.81-1.09-8.73-.76.09.26.2.51.28.77,2.67,8.31-3.11,18-11.35,20.17-2,.5-3.94.89-5.94,1.21a14.48,14.48,0,0,0,2,10.85c3.54,5.53,10.63,9.18,17.15,8A13.13,13.13,0,0,0,573,163.1a48.2,48.2,0,0,0,9.43-8.35,2.3,2.3,0,0,1-1.16-3,3.88,3.88,0,0,1,.8-3.93,2.22,2.22,0,0,1-1.92-3,3.62,3.62,0,0,1,.29-2.89l-.2-.07a2,2,0,0,1-1.58-1.13,3.88,3.88,0,0,1-.79-1.45,4,4,0,0,1,2.67-4.75,3.57,3.57,0,0,0,1.86-1.48,3.22,3.22,0,0,0,.57-1.35,1,1,0,0,1,.06-.19c0-.09,0-.19,0-.34s0-.69,0-.32a5.15,5.15,0,0,1,.31-2.69l0,0a3.85,3.85,0,0,1-5.23-1.39,3.93,3.93,0,0,1,1.12-5.07,2,2,0,0,1,.11-.26h0c.1-.13.19-.26.3-.39a2.07,2.07,0,0,1,1-.56h.06a29,29,0,0,0-4.33-3.16C571,114.18,565,113.54,559,113a11.82,11.82,0,0,0-4.84.54A16.72,16.72,0,0,1,564.73,121.83Z"/><path class="cls-3" d="M503.17,130.07c-1.93,8.55,2.54,17.87,11.35,20.17l15,3.9A16.92,16.92,0,0,0,548,146.5a74.61,74.61,0,0,1-8.4.82c-9.11.37-15.87-7.8-16.26-16.39a16.68,16.68,0,0,1,4.35-11.12l-4.56-1.19a16.73,16.73,0,0,0-9.3.35,17.93,17.93,0,0,0-2.64,1.1A15.08,15.08,0,0,0,503.17,130.07Z"/><path class="cls-3" d="M540,116.58a28.87,28.87,0,0,1,9.46,2.32c2.8,1.19,5.58,2.73,8.64,3.12a29.14,29.14,0,0,0,6.66-.19,16.72,16.72,0,0,0-10.57-8.34,16.34,16.34,0,0,0-8.07.05c-1.28.33-2.57.6-3.86.83-.87.07-1.73.13-2.6.17a18.25,18.25,0,0,0-7.46,1.89,15.56,15.56,0,0,0-2.29,1.42A27.62,27.62,0,0,1,540,116.58Z"/><path class="cls-3" d="M523.37,130.93c.39,8.59,7.15,16.76,16.26,16.39a74.61,74.61,0,0,0,8.4-.82l.76-.13c2-.32,4-.71,5.94-1.21,8.24-2.12,14-11.86,11.35-20.17-.08-.26-.19-.51-.28-.77l-.65.08a26.85,26.85,0,0,1-8.81,0c-3-.64-5.62-2.13-8.4-3.27a25.33,25.33,0,0,0-18-.48c-1,.35-1.65-.58-1.54-1.42l-.23.2c-.14.15-.27.31-.41.47A16.68,16.68,0,0,0,523.37,130.93Z"/><path class="cls-6" d="M529.9,120.56a25.33,25.33,0,0,1,18,.48c2.78,1.14,5.45,2.63,8.4,3.27a26.85,26.85,0,0,0,8.81,0l.65-.08c2.92-.33,6-.61,8.73.76,1.46.74,2.75-1.48,1.29-2.22-3.59-1.81-7.33-1.34-11.09-.93a29.14,29.14,0,0,1-6.66.19c-3.06-.39-5.84-1.93-8.64-3.12a28.87,28.87,0,0,0-9.46-2.32,27.62,27.62,0,0,0-10.09,1.27l-.67.22a1.26,1.26,0,0,0-.85,1.07C528.25,120,528.88,120.91,529.9,120.56Z"/><path class="cls-4" d="M584.36,128.15a.11.11,0,0,1,0,0h0v0Z"/><path class="cls-4" d="M583.48,127.9h0l.16,0h0l0,0Z"/><path class="cls-4" d="M584.27,128.14h0l.09,0,0-.06a.31.31,0,0,0-.12-.07h0s0,0,0,.05Z"/><path class="cls-4" d="M580.22,141.84l.2.07,0,0Z"/><path class="cls-4" d="M583.7,127.92c.21-.18.11-.11,0,0h0Z"/><path class="cls-4" d="M584.39,128.18s0,0,0,0S584.4,128.19,584.39,128.18Z"/><path class="cls-4" d="M584.39,128.16h0Z"/><path class="cls-4" d="M580.55,137.37a2.16,2.16,0,0,1,2.13,2.56,5.9,5.9,0,0,0,2.16-4.11,4,4,0,0,1,3-3.77c-.08-.37-.17-.73-.27-1.1a4,4,0,0,1-3.2-2.75h0c.14.46.08.24,0,0,0,0,0,0-.09,0h0v0a.05.05,0,0,1,0-.05h0l-.07,0h0l-.32-.07c-.1,0-.09,0,0,0h.2l-.32,0,0,0c.22,0-.13.14,0,0h0l-.26.2a5.15,5.15,0,0,0-.31,2.69c-.05-.37,0,.28,0,.32s0,.25,0,.34a1,1,0,0,0-.06.19,3.22,3.22,0,0,1-.57,1.35,3.57,3.57,0,0,1-1.86,1.48,4,4,0,0,0-2.67,4.75,3.88,3.88,0,0,0,.79,1.45A2.25,2.25,0,0,1,580.55,137.37Z"/><path class="cls-4" d="M582.16,143.35a2.14,2.14,0,0,1,2.13,2.52,3.09,3.09,0,0,0,.48-.58,6.92,6.92,0,0,0,1.27-2.88,3.71,3.71,0,0,1,2.14-2.47,20.54,20.54,0,0,0-.31-7.89,4,4,0,0,0-3,3.77,5.9,5.9,0,0,1-2.16,4.11,2.08,2.08,0,0,1-2.13,1.94h-.1l0,0a3.62,3.62,0,0,0-.29,2.89A2,2,0,0,1,582.16,143.35Z"/><path class="cls-4" d="M590.82,145a4,4,0,0,1-2.67-4.74l0-.28a3.71,3.71,0,0,0-2.14,2.47,6.92,6.92,0,0,1-1.27,2.88,3.09,3.09,0,0,1-.48.58,2.08,2.08,0,0,1-2.13,2h-.11a3.88,3.88,0,0,0-.8,3.93,2,2,0,0,1,2-1.36c2.2,0,2.7,2.62,1.54,3.86a3.21,3.21,0,0,0,2-.52,15.66,15.66,0,0,0,6.59-9A3.91,3.91,0,0,1,590.82,145Z"/><path class="cls-4" d="M582.73,121.31a1.52,1.52,0,0,1,.4.47,1.43,1.43,0,0,1,.23.72,1.44,1.44,0,0,1,0,.77,2.13,2.13,0,0,1-1,1.27,2.08,2.08,0,0,1-1.06.28,2.17,2.17,0,0,1-1.08-.3l0,0c-.13-.09-.28-.22-.4-.32l-.07-.06a2.53,2.53,0,0,1-.39-.52,4,4,0,0,1-.2-.48s0,0,0,0a2.18,2.18,0,0,1-.08-.57,2.1,2.1,0,0,1,.08-.56,2.18,2.18,0,0,1,.09-.23,3.93,3.93,0,0,0-1.12,5.07,3.85,3.85,0,0,0,5.23,1.39l0,0,.26-.2h0l-.16,0s0,0,0,0l.19,0c.14-.11.24-.18,0,0h0l.32,0h-.2l.32.07h0l.07,0h0a.31.31,0,0,1,.12.07l0,.06-.09,0s.08.07.09,0c.11.24.17.46,0,0h0a.11.11,0,0,0,0,0l0,0h0v0s0,0,0,0a4,4,0,0,0,3.2,2.75c-.05-.18-.1-.37-.16-.56-.9-3,1.74-4.93,4.15-4.72a8.52,8.52,0,0,0-9.94-5.17l.43.18A2,2,0,0,1,582.73,121.31Z"/><path class="cls-4" d="M584.39,128.18h0v0h0S584.4,128.18,584.39,128.18Z"/><path class="cls-4" d="M584.23,128.07a.05.05,0,0,0,0,.05S584.23,128.09,584.23,128.07Z"/><path class="cls-4" d="M583.69,127.92h0l0,0h0Z"/><path class="cls-4" d="M584.28,128.15h0Z"/><path class="cls-4" d="M583.81,128c-.09,0-.1,0,0,0Z"/><path class="cls-4" d="M583.67,128c-.13.14.22,0,0,0Z"/><path class="cls-4" d="M584.27,128.14v0Z"/><path class="cls-4" d="M587.44,130.39c.06.19.11.38.16.56.1.37.19.73.27,1.1a20.54,20.54,0,0,1,.31,7.89l0,.28a4,4,0,0,0,2.67,4.74,3.91,3.91,0,0,0,2.51-.21,3.39,3.39,0,0,0,2.19-2.48,30,30,0,0,0-.7-13.93,3.59,3.59,0,0,0-3.23-2.67C589.18,125.46,586.54,127.37,587.44,130.39Z"/><path class="cls-7" d="M580.55,141.87a2.08,2.08,0,0,0,2.13-1.94,2.16,2.16,0,0,0-2.13-2.56,2.25,2.25,0,0,0-1.91,3.34,2,2,0,0,0,1.58,1.13l.23,0Z"/><path class="cls-7" d="M584.29,145.87a2.14,2.14,0,0,0-2.13-2.52,2,2,0,0,0-2,1.45,2.22,2.22,0,0,0,1.92,3h.11A2.08,2.08,0,0,0,584.29,145.87Z"/><path class="cls-7" d="M583.24,150.41a2,2,0,0,0-2,1.36,2.3,2.3,0,0,0,1.16,3,2.12,2.12,0,0,0,.83.16,2.05,2.05,0,0,0,1.54-.64C585.94,153,585.44,150.41,583.24,150.41Z"/><path class="cls-7" d="M579.64,121.06c-.11.13-.2.26-.3.39h0a2,2,0,0,0-.11.26,2.18,2.18,0,0,0-.09.23,2.1,2.1,0,0,0-.08.56,2.18,2.18,0,0,0,.08.57s0,0,0,0a4,4,0,0,0,.2.48,2.53,2.53,0,0,0,.39.52l.07.06c.12.1.27.23.4.32l0,0a2.17,2.17,0,0,0,1.08.3,2.08,2.08,0,0,0,1.06-.28,2.13,2.13,0,0,0,1-1.27,1.44,1.44,0,0,0,0-.77,1.43,1.43,0,0,0-.23-.72,1.52,1.52,0,0,0-.4-.47,2,2,0,0,0-.65-.63l-.43-.18h0a2.08,2.08,0,0,0-1,0h-.06A2.07,2.07,0,0,0,579.64,121.06Z"/><path class="cls-8" d="M540.9,97.68a1.29,1.29,0,0,0-.46-.14,1.27,1.27,0,0,0-.28,0,1.89,1.89,0,0,0-1.35.57,2,2,0,0,0-.57,1.36V100a1.53,1.53,0,0,0,.17.75,1.29,1.29,0,0,0,.25.44c.05.06.09.12.15.18a1.38,1.38,0,0,0,.61.4,1.58,1.58,0,0,0,.74.17,2.25,2.25,0,0,0,1-.26,1.53,1.53,0,0,0,.4-.31,2,2,0,0,0,.57-1.36v-.54a1.48,1.48,0,0,0-.17-.75.67.67,0,0,0-.06-.12,1.31,1.31,0,0,0-.34-.5A1.38,1.38,0,0,0,540.9,97.68Z"/><path class="cls-9" d="M284.78,148.25c.44,11.35-1,24-11,27.68a3.37,3.37,0,0,1,.54,2.54,7,7,0,0,1,1.26,1,1.6,1.6,0,0,1,.48,1A54.18,54.18,0,0,0,303,168.91a44.66,44.66,0,0,0,12.68-17.52C305.49,152.59,294.28,152.45,284.78,148.25Z"/><path class="cls-9" d="M279.77,154.36c.08.3.15.53.2.54l-.16-.48Z"/><path class="cls-9" d="M294.36,119.84l-1.25-1.13C293.59,119.31,294.07,119.82,294.36,119.84Z"/><path class="cls-9" d="M264.24,180.53c.23.24.48.46.72.69.88,0,1.77,0,2.65,0q-3-1.82-6.12-3.51C262.52,178.88,263.67,180,264.24,180.53Z"/><path class="cls-9" d="M227,154c.23.69.39,1.17.48,1.47C227.39,154.75,227.24,154.14,227,154Z"/><path class="cls-9" d="M244.19,129.35c-.55-1.08-.38-.67,0,0Z"/><path class="cls-9" d="M249.14,135.26a2.83,2.83,0,0,0,.11-.31l0-1.22c-.23.25-.47.49-.71.74C248.73,134.72,248.94,135,249.14,135.26Z"/><path class="cls-9" d="M241.91,172.56a4.22,4.22,0,0,1-.87-1.76c-6.3-.72-12.9-6-13.38-12.56,0-.37,0-1.52-.15-2.53-.07-.15-.18-.44-.37-.9-.12-.27-.27-.52-.41-.79-.33-.42-.66-.83-1-1.22-.93-1.07-2-2.06-2.87-3.14-5.74-6.77-8.2-15.4-5.11-23.83,2.4-6.56,8.5-11.4,13.18-16.24l1.33-1.38a63,63,0,0,1,1-14.51c.17-.88.38-1.74.61-2.59a6.41,6.41,0,0,1-.24-2.26c.13-1.6.12-3.21.25-4.81a6.3,6.3,0,0,1,.42-1.81,6.65,6.65,0,0,1,0-1.54c1.25-10.69,7.35-22.23,18.14-24.86a31.9,31.9,0,0,1,10.77-.25,22.7,22.7,0,0,1,3.61.63,6.3,6.3,0,0,1,3.11,1.27c3.15,2.33,5.63,5.37,4.88,9.56a8.25,8.25,0,0,1-1.88,3.88,23,23,0,0,1,1,7.81,15.46,15.46,0,0,1-.7,6.41,11.65,11.65,0,0,1-.68,1.56,12.24,12.24,0,0,1-4.64,6,16.41,16.41,0,0,1,5.46,3.55,43.34,43.34,0,0,1,8.66,7.4c3.64,4,6.24,8.8,9.59,13,.23.29.84,1.2,1.45,2l.74.64c.51.41,1,.8,1.57,1.17.5.21,1,.43,1.51.61l.31.09c.44.08.88.17,1.33.23a41.82,41.82,0,0,0,8.87.48l2.47-.24c1.61-.16,3.2-.38,4.8-.63a14.42,14.42,0,0,1,5.84.28,7.92,7.92,0,0,1,.9-.5q.12-3.9,0-7.76c-.35-19-7-36.76-20.39-50.06-14.61-14.54-33.29-26.41-53.46-23.48-21,3.06-37.79,18.91-47.4,38.14A71.75,71.75,0,0,0,198.38,138a70.23,70.23,0,0,0,42.47,39.13,19.51,19.51,0,0,1,.28-2.83A3.49,3.49,0,0,1,241.91,172.56Z"/><path class="cls-9" d="M259.58,78.69c-.05-.12-.11-.2-.19-.08a.2.2,0,0,0,0,.07Z"/><path class="cls-10" d="M240.37,96a5.44,5.44,0,0,1-1,0,6.54,6.54,0,0,1-5.55-4.89c-.23.85-.44,1.71-.61,2.59a63,63,0,0,0-1,14.51l7.69-7.95C240,98.83,240.16,97.41,240.37,96Z"/><path class="cls-10" d="M250,92.79l.67-.12-.4-.33h0C250.14,92.49,250.05,92.64,250,92.79Z"/><path class="cls-10" d="M240.37,96c-.21,1.42-.35,2.84-.44,4.27L244.07,96l.34-.31a6.4,6.4,0,0,1-1.53-.4A6.63,6.63,0,0,1,240.37,96Z"/><path class="cls-11" d="M250,92.79a2.53,2.53,0,0,1-.13.22h0a5.45,5.45,0,0,1-5.42,2.66l-.34.31-4.14,4.28-7.69,7.95-1.33,1.38c-4.68,4.84-10.78,9.68-13.18,16.24-3.09,8.43-.63,17.06,5.11,23.83.92,1.08,1.94,2.07,2.87,3.14.36.39.69.8,1,1.22.14.27.29.52.41.79.19.46.3.75.37.9.11,1,.13,2.16.15,2.53.48,6.56,7.08,11.84,13.38,12.56-.46-1.92.32-4.14,2.74-4.54a3.58,3.58,0,0,1,1.61.07,3.33,3.33,0,0,1,2.18-.37c.94.14,2.32-1.09,3.25-1.47a8.37,8.37,0,0,1,1.55-.46,56.14,56.14,0,0,1-1.55-5.41,60.34,60.34,0,0,1-1.31-11.86,32.21,32.21,0,0,0-3.31-4.26,1.75,1.75,0,0,1,.16-2.4,1.54,1.54,0,0,1,1.07-.37,39.57,39.57,0,0,0,1.71-4.47c-.2-.27-.41-.54-.63-.79.24-.25.48-.49.71-.74l-.39-16.95c-.54-1.25-1.1-2.49-1.68-3.73a15.31,15.31,0,0,1,2.29-16.52,14.28,14.28,0,0,1,3.21-2.71,9,9,0,0,1-2-1.15ZM227,154c.24.15.39.76.48,1.47C227.39,155.16,227.23,154.68,227,154Zm17.19-24.64c-.38-.67-.55-1.08,0,0Z"/><path class="cls-11" d="M319,143.62c-3-2.15-3.78-5.79-3.1-9.3a5,5,0,0,1,.23-3.31,10.14,10.14,0,0,1,4.35-9.72,14.42,14.42,0,0,0-5.84-.28c-1.6.25-3.19.47-4.8.63l-2.47.24a41.82,41.82,0,0,1-8.87-.48c-.45-.06-.89-.15-1.33-.23l-.31-.09c-.51-.18-1-.4-1.51-.61-.54-.37-1.06-.76-1.57-1.17l-.74-.64c-.61-.77-1.22-1.68-1.45-2-3.35-4.23-5.95-9.06-9.59-13a43.34,43.34,0,0,0-8.66-7.4,16.41,16.41,0,0,0-5.46-3.55,13.78,13.78,0,0,1-5.24,2,15.19,15.19,0,0,1-6.94-.27h0a8.9,8.9,0,0,1-3-.65,14.28,14.28,0,0,0-3.21,2.71,15.31,15.31,0,0,0-2.29,16.52c.58,1.24,1.14,2.48,1.68,3.73l.39,16.95,0,1.22a40.67,40.67,0,0,0,1.58-16.48,1.67,1.67,0,0,1,1.32-2,1.71,1.71,0,0,1,1.93,1.4,44.1,44.1,0,0,1-3.68,23.36,2,2,0,0,1-.39.58,35.43,35.43,0,0,1,7.81,18.58,1.68,1.68,0,0,1-1.31,2,1.72,1.72,0,0,1-1.93-1.41,32.16,32.16,0,0,0-5.07-14.23,60.34,60.34,0,0,0,1.31,11.86,56.14,56.14,0,0,0,1.55,5.41,6.39,6.39,0,0,1,3.92.38,6.58,6.58,0,0,1,3.17,3.12q6.68,3.39,13.11,7.26a4.21,4.21,0,0,1,1.25,1.14c10-3.71,11.4-16.33,11-27.68,9.5,4.2,20.71,4.34,30.89,3.14,1.52-.18,3-.38,4.47-.61a13.92,13.92,0,0,0,8.1-4.57,29,29,0,0,1-3.11-1A7.85,7.85,0,0,1,319,143.62Zm-39.26,10.74,0,.06.16.48C279.92,154.89,279.85,154.66,279.77,154.36Zm10.29-7.19a1.65,1.65,0,0,1-2.13,1,21.66,21.66,0,0,1-12.59-11.82,1.73,1.73,0,0,1,.77-2.27,1.7,1.7,0,0,1,2.22.84,18.18,18.18,0,0,0,10.72,10A1.79,1.79,0,0,1,290.06,147.17Zm3.05-28.46,1.25,1.13C294.07,119.82,293.59,119.31,293.11,118.71Z"/><path class="cls-12" d="M332.09,120a4.78,4.78,0,0,1,.19.48l.33-.13c.31-.14.61-.29.91-.45l.43-.25.3-.19a13,13,0,0,0,1.54-1.23,8.09,8.09,0,0,0,1.23-1.35,1.35,1.35,0,0,1,1.87-.32,1.12,1.12,0,0,1,.36.39,4.68,4.68,0,0,0-.69-3.93,2,2,0,0,1-2,1.13l-.26,0h-.05c-.21.07-.11,0,0,0l-.16.07-.12.06-.08.07,0,0-.16.24a2,2,0,0,1-2.78.47,2.16,2.16,0,0,1-.53-2.88l.13-.18c-.08.06-.16.1-.23.16-.31.27-.64.53-1,.77l-.62.39c-.68.4-1.36.78-2,1.22a11.76,11.76,0,0,0-3.92,4.1,1.76,1.76,0,0,0-.09.2,17.51,17.51,0,0,1,1.65-1C328.41,116.62,331,117.91,332.09,120Z"/><path class="cls-12" d="M327.9,123.74a3.44,3.44,0,0,1,2.15-2.27l.05,0a1.53,1.53,0,0,1,.82-.54l.49-.13.08,0,.18-.06.61-.25a4.78,4.78,0,0,0-.19-.48c-1.07-2.06-3.68-3.35-5.81-2.19a19,19,0,0,0-3.5,2.5A4.57,4.57,0,0,1,327.9,123.74Z"/><path class="cls-12" d="M330.47,129.48l.27,0a2.64,2.64,0,0,1,.52-.17h.22a4.05,4.05,0,0,1-.76-.2C330.65,129.22,330.55,129.34,330.47,129.48Z"/><path class="cls-12" d="M316.16,131a5,5,0,0,0-.23,3.31c-.68,3.51.09,7.15,3.1,9.3a7.85,7.85,0,0,0,6.1,1.57,28.37,28.37,0,0,1-2.75-1.26,4,4,0,0,1-2.24-4.89c.62-1.76,2.92-3.13,4.71-2.18.55.29,1.1.54,1.65.78a3,3,0,0,1,1.62-.74l.14,0-.18,0a4.12,4.12,0,0,1-3.24-2.86,1.25,1.25,0,0,1-.27-.25,1.39,1.39,0,0,1,.13-1.92l.3-.25a3.85,3.85,0,0,1,2.23-2.16c.14-.18.28-.36.41-.55.28-.38.53-.78.77-1.18l.18-.34a4.53,4.53,0,0,1-.69-3.61,4.57,4.57,0,0,0-5.12-3.46,4.65,4.65,0,0,0-.9.28l-.47.23a7.92,7.92,0,0,0-.9.5A10.14,10.14,0,0,0,316.16,131Z"/><path class="cls-12" d="M351.63,115.07a113.54,113.54,0,0,0-12.24,3.08.85.85,0,0,1-.15.3,14.17,14.17,0,0,1-6.54,4.78,16.82,16.82,0,0,1-2,5.85,4.05,4.05,0,0,0,.76.2,1.93,1.93,0,0,1,.42,0,6.73,6.73,0,0,0,3-1.68,3.1,3.1,0,0,1,3.85-.49,105,105,0,0,1,14.35-3.83C358.19,122.31,356.72,114.09,351.63,115.07Z"/><path class="cls-12" d="M329.5,125.23a11.22,11.22,0,0,0,.55-2.28,1.4,1.4,0,0,1-.19-.46,1.15,1.15,0,0,1,.24-1l-.05,0a3.44,3.44,0,0,0-2.15,2.27,4.53,4.53,0,0,0,.69,3.61A13.11,13.11,0,0,0,329.5,125.23Z"/><path class="cls-12" d="M330.74,129.46l-.27,0a2.61,2.61,0,0,0-.17.28A1.55,1.55,0,0,1,330.74,129.46Z"/><path class="cls-12" d="M326.84,129.88l.14-.17c.08-.08.15-.17.22-.25l0,0a3.85,3.85,0,0,0-2.23,2.16A13.49,13.49,0,0,0,326.84,129.88Z"/><path class="cls-12" d="M334.92,127.61a6.73,6.73,0,0,1-3,1.68c2,.3,2.4,3.67.11,4.06a2.1,2.1,0,0,1-2.21-2.83,14.86,14.86,0,0,1-3.35,3.41,1.37,1.37,0,0,1-1.61.07,4.12,4.12,0,0,0,3.24,2.86l.18,0a13.59,13.59,0,0,0,2.33-.51h0l.56-.2a1.37,1.37,0,0,1,1.08-1.57l2.22-.35a3.28,3.28,0,0,1,2.75-.44l1.21-.2a1.36,1.36,0,0,1,.91.19c.13-.11.27-.21.4-.33,2.22-2.06,1.06-5.19-1-6.34A3.1,3.1,0,0,0,334.92,127.61Z"/><path class="cls-12" d="M338.94,136.34l-5.74.92a1.71,1.71,0,0,1,.25.64,1.84,1.84,0,0,1,0,.81,1.52,1.52,0,0,1-.28.71c.77.08,1.54.13,2.34.14A2.78,2.78,0,0,1,337,140a1.52,1.52,0,0,1,1,.79.87.87,0,0,1,.07.17l.88-.67a3.36,3.36,0,0,0,.8-4.49A1.28,1.28,0,0,1,338.94,136.34Z"/><path class="cls-12" d="M326.5,137.64a22.05,22.05,0,0,0,2.48.94,1.43,1.43,0,0,1,0-.22,1.56,1.56,0,0,1,.28-.72c.17-.2.35-.4.52-.61a1.82,1.82,0,0,1,.77-.66,13.59,13.59,0,0,1-2.33.51l-.14,0A3,3,0,0,0,326.5,137.64Z"/><path class="cls-12" d="M334.48,134.24l2.75-.44A3.28,3.28,0,0,0,334.48,134.24Z"/><path class="cls-12" d="M331.19,136.2v0s0,0,0,0l-.56.2.49-.16Z"/><path class="cls-12" d="M328.24,144a2,2,0,0,1,1-1.13,2.08,2.08,0,0,1,1.55-.06l1.2.34a1.49,1.49,0,0,1-.47-1.15,1.32,1.32,0,0,1,1.45-1.22,8,8,0,0,0,.85,0,5.09,5.09,0,0,0,2.38-.66A1.13,1.13,0,0,1,337,140a2.78,2.78,0,0,0-1.49-.46c-.8,0-1.57-.06-2.34-.14h0c-.17.21-.35.4-.52.61a2,2,0,0,1-.77.67l-.51.16a2,2,0,0,1-1.5-.36,1.67,1.67,0,0,1-.53-.59,1.56,1.56,0,0,1-.31-.75,1.68,1.68,0,0,1,0-.59,22.05,22.05,0,0,1-2.48-.94c-.55-.24-1.1-.49-1.65-.78-1.79-1-4.09.42-4.71,2.18a4,4,0,0,0,2.24,4.89,28.37,28.37,0,0,0,2.75,1.26,29,29,0,0,0,3.11,1l.72.17A2.3,2.3,0,0,1,328.24,144Z"/><path class="cls-12" d="M337.39,142.64a7.79,7.79,0,0,1-4.37.88,2.31,2.31,0,0,1,.74,2.42,2.06,2.06,0,0,1-.89,1.06c.67.05,1.34.09,2,.09a3.71,3.71,0,0,0,4-3.36,4.16,4.16,0,0,0-.73-2.56A1.43,1.43,0,0,1,337.39,142.64Z"/><path class="cls-12" d="M245.39,166.33a3.58,3.58,0,0,0-1.61-.07c-2.42.4-3.2,2.62-2.74,4.54a4.22,4.22,0,0,0,.87,1.76,3.06,3.06,0,0,1,.81-.68,3.89,3.89,0,0,1,1.29-.76A4,4,0,0,1,245.39,166.33Z"/><path class="cls-12" d="M247.57,166a3.33,3.33,0,0,0-2.18.37,4,4,0,0,0-1.38,4.79,3.89,3.89,0,0,0-1.29.76,3.66,3.66,0,0,1,2.35-.47c2.05-1.37,5.85.87,5.1,4.22a.13.13,0,0,0,0,.06l.08-.05c0-.5,0-1,.08-1.5a3.07,3.07,0,0,1,2-2.69c-.86-3,1.48-6.73,4.95-5,.74.36,1.47.74,2.21,1.11a6.58,6.58,0,0,0-3.17-3.12,6.39,6.39,0,0,0-3.92-.38,8.37,8.37,0,0,0-1.55.46C249.89,164.87,248.51,166.1,247.57,166Z"/><path class="cls-12" d="M269.43,179.06a2,2,0,0,1,2.17-1.83,1.92,1.92,0,0,1,1.23.62,5.08,5.08,0,0,1,1.53.62,3.37,3.37,0,0,0-.54-2.54,4.21,4.21,0,0,0-1.25-1.14q-6.42-3.89-13.11-7.26c-.74-.37-1.47-.75-2.21-1.11-3.47-1.7-5.81,2-4.95,5a3.51,3.51,0,0,1,1-.22c1.13-4.17,7.35-1.71,6.25,2.48-.29,1.09.74,2.62,1.93,4q3.09,1.7,6.12,3.51l.45.27a4,4,0,0,0,2.52.61A3.36,3.36,0,0,1,269.43,179.06Z"/><path class="cls-12" d="M261.49,177.7c-1.19-1.37-2.22-2.9-1.93-4,1.1-4.19-5.12-6.65-6.25-2.48a3.24,3.24,0,0,1,3.61,3.63,14.24,14.24,0,0,0,3.31,11v0a3.32,3.32,0,0,1,1.54-.22,3.4,3.4,0,0,1,2.24,1.22q.28.4.6.78l.22.24c.23.18.45.37.69.53l.33.21.05,0a3.62,3.62,0,0,1,2,3.24,3.16,3.16,0,0,0,1.67.37l-.07,0a2.16,2.16,0,0,1-1.22-2.67,1.95,1.95,0,0,1,2.56-1.18l1.74.48a.71.71,0,0,1,.16.07,3,3,0,0,0-1.49-2.8,42,42,0,0,1-6.28-4.94c-.24-.23-.49-.45-.72-.69C263.67,180,262.52,178.88,261.49,177.7Z"/><path class="cls-12" d="M250.32,174.14c0,.5-.06,1-.08,1.5l.09,0a3.35,3.35,0,0,1,4.43,1.67l3.54,10.2c0,.13.07.25.1.37a3.55,3.55,0,0,1,.91-1.42,2.77,2.77,0,0,1,.93-.54v0a14.24,14.24,0,0,1-3.31-11,3.24,3.24,0,0,0-3.61-3.63,3.51,3.51,0,0,0-1,.22A3.07,3.07,0,0,0,250.32,174.14Z"/><path class="cls-12" d="M248.81,180.11a3.49,3.49,0,0,1,1.35-4.42.13.13,0,0,1,0-.06c.75-3.35-3-5.59-5.1-4.22a2.92,2.92,0,0,1,2.65,3.56,14.57,14.57,0,0,0,3.79,12.93Z"/><path class="cls-12" d="M249.14,192.36a1.94,1.94,0,0,1,2.56-1.18,2.26,2.26,0,0,1,1.12,1.06l.15.26v0a5,5,0,0,1-.28-.82,2.72,2.72,0,0,1-.06-.75,2.42,2.42,0,0,1-.29-.58l-.84-2.42A14.57,14.57,0,0,1,247.72,175a2.92,2.92,0,0,0-2.65-3.56,3.66,3.66,0,0,0-2.35.47,3.06,3.06,0,0,0-.81.68,3.49,3.49,0,0,0-.78,1.69,19.51,19.51,0,0,0-.28,2.83,21.83,21.83,0,0,0,7.43,16.83,3.14,3.14,0,0,0,1.35.74c-.14-.23-.27-.46-.4-.69A2.11,2.11,0,0,1,249.14,192.36Z"/><path class="cls-12" d="M254.76,177.26a3.35,3.35,0,0,0-4.43-1.67l-.09,0-.08.05a3.49,3.49,0,0,0-1.35,4.42l2.7,7.79.84,2.42a2.42,2.42,0,0,0,.29.58,3.87,3.87,0,0,1,.58-1.81,3.32,3.32,0,0,1,2.14-1.38,3.5,3.5,0,0,1,2.5.6l.38.24a3.11,3.11,0,0,1,.16-.72c0-.12-.06-.24-.1-.37Z"/><path class="cls-12" d="M261.56,193.78l.16.12a2.49,2.49,0,0,1-.11-.29A1.54,1.54,0,0,0,261.56,193.78Z"/><path class="cls-12" d="M265.91,188.67l-.05,0-.33-.21c-.24-.16-.46-.35-.69-.53l-.22-.24q-.31-.37-.6-.78a3.4,3.4,0,0,0-2.24-1.22,3.32,3.32,0,0,0-1.54.22,2.77,2.77,0,0,0-.93.54,3.55,3.55,0,0,0-.91,1.42,3.11,3.11,0,0,0-.16.72l2,1.31a3.57,3.57,0,0,1,1.4,2.22,1.37,1.37,0,0,1,.16-.32,2,2,0,0,1,1.28-.82,2.11,2.11,0,0,1,1.5.35l1.77,1.08a1.86,1.86,0,0,1,.84,1.52,2.75,2.75,0,0,0,.5-.92,4,4,0,0,0,.16-1.06A3.62,3.62,0,0,0,265.91,188.67Z"/><path class="cls-12" d="M261.68,192.08a3.57,3.57,0,0,0-1.4-2.22l-2-1.31-.38-.24a3.5,3.5,0,0,0-2.5-.6,3.32,3.32,0,0,0-2.14,1.38,3.87,3.87,0,0,0-.58,1.81,2.72,2.72,0,0,0,.06.75,5,5,0,0,0,.28.82l.15.31a2,2,0,0,1,.11.2,3,3,0,0,0,.86.9l1.29.83a2.23,2.23,0,0,1,.07-1A2,2,0,0,1,258,192.5l2.33,1.05a2.19,2.19,0,0,1,1,.81,4.23,4.23,0,0,0,.25-.58,1.54,1.54,0,0,1,.05-.17A2.36,2.36,0,0,1,261.68,192.08Z"/><path class="cls-13" d="M338.89,116.53a1.35,1.35,0,0,0-1.87.32,8.09,8.09,0,0,1-1.23,1.35,13,13,0,0,1-1.54,1.23l-.3.19-.43.25c-.3.16-.6.31-.91.45l-.33.13-.61.25-.18.06-.08,0-.49.13a1.53,1.53,0,0,0-.82.54,1.15,1.15,0,0,0-.24,1,1.4,1.4,0,0,0,.19.46l.06-.42a1.33,1.33,0,0,1,1.44-1.22,1.41,1.41,0,0,1,1.22,1.51c0,.14,0,.27-.07.41a14.17,14.17,0,0,0,6.54-4.78.85.85,0,0,0,.15-.3,1.48,1.48,0,0,0-.14-1.23A1.12,1.12,0,0,0,338.89,116.53Z"/><path class="cls-13" d="M331.55,121.31a1.33,1.33,0,0,0-1.44,1.22l-.06.42a11.22,11.22,0,0,1-.55,2.28,13.11,13.11,0,0,1-.91,2.12l-.18.34c-.24.4-.49.8-.77,1.18-.13.19-.27.37-.41.55l0,0c-.07.08-.14.17-.22.25l-.14.17a13.49,13.49,0,0,1-1.84,1.7l-.3.25a1.39,1.39,0,0,0-.13,1.92,1.25,1.25,0,0,0,.27.25,1.37,1.37,0,0,0,1.61-.07,14.86,14.86,0,0,0,3.35-3.41,1.66,1.66,0,0,1,.5-.76,2.61,2.61,0,0,1,.17-.28c.08-.14.18-.26.25-.4a16.82,16.82,0,0,0,2-5.85c0-.14.05-.27.07-.41A1.41,1.41,0,0,0,331.55,121.31Z"/><path class="cls-13" d="M338.44,133.6l-1.21.2-2.75.44-2.22.35a1.37,1.37,0,0,0-1.08,1.57s0,0,0,0v0a2.07,2.07,0,0,1,1.42.36,1.65,1.65,0,0,1,.52.59,1.05,1.05,0,0,1,.07.11l5.74-.92a1.28,1.28,0,0,0,.81-.52,1.32,1.32,0,0,0,.26-1.07,1.59,1.59,0,0,0-.66-1A1.36,1.36,0,0,0,338.44,133.6Z"/><path class="cls-13" d="M337,140a1.13,1.13,0,0,0-.76.11,5.09,5.09,0,0,1-2.38.66,8,8,0,0,1-.85,0,1.32,1.32,0,0,0-1.45,1.22,1.49,1.49,0,0,0,.47,1.15l.54.14a1.38,1.38,0,0,1,.48.25,7.79,7.79,0,0,0,4.37-.88,1.43,1.43,0,0,0,.73-1.47,1.05,1.05,0,0,0-.05-.19.87.87,0,0,0-.07-.17A1.52,1.52,0,0,0,337,140Z"/><path class="cls-14" d="M333.76,145.94a2.31,2.31,0,0,0-.74-2.42,1.38,1.38,0,0,0-.48-.25l-.54-.14-1.2-.34a2.08,2.08,0,0,0-1.55.06,2,2,0,0,0-1,1.13,2.3,2.3,0,0,0,.72,2.4,1.49,1.49,0,0,0,.5.26l1.73.48a2.05,2.05,0,0,0,1.56-.05l.12-.07A2.06,2.06,0,0,0,333.76,145.94Z"/><path class="cls-14" d="M329.82,137c-.17.21-.35.41-.52.61a1.56,1.56,0,0,0-.28.72,1.43,1.43,0,0,0,0,.22,1.68,1.68,0,0,0,0,.59,1.56,1.56,0,0,0,.31.75,1.67,1.67,0,0,0,.53.59,2,2,0,0,0,1.5.36l.51-.16a2,2,0,0,0,.77-.67c.17-.21.35-.4.52-.61h0a1.52,1.52,0,0,0,.28-.71,1.84,1.84,0,0,0,0-.81,1.71,1.71,0,0,0-.25-.64,1.05,1.05,0,0,0-.07-.11,1.65,1.65,0,0,0-.52-.59,2.07,2.07,0,0,0-1.42-.36h-.08l-.49.16h0A1.82,1.82,0,0,0,329.82,137Z"/><path class="cls-14" d="M330.74,129.46a1.55,1.55,0,0,0-.44.3,1.66,1.66,0,0,0-.5.76,2.1,2.1,0,0,0,2.21,2.83c2.29-.39,1.89-3.76-.11-4.06a1.93,1.93,0,0,0-.42,0h-.22A2.64,2.64,0,0,0,330.74,129.46Z"/><path class="cls-14" d="M332.88,115a2,2,0,0,0,2.78-.47l.16-.24,0,0,.08-.07.12-.06.16-.07c-.06,0-.16.08,0,0h.05l.26,0a2,2,0,0,0,2-1.13,1.7,1.7,0,0,0,.19-.7,2.17,2.17,0,0,0-1.84-2.27,4.62,4.62,0,0,0-4.43,2l-.13.18A2.16,2.16,0,0,0,332.88,115Z"/><path class="cls-14" d="M274.36,178.47a5.08,5.08,0,0,0-1.53-.62,1.92,1.92,0,0,0-1.23-.62,2,2,0,0,0-2.17,1.83,3.36,3.36,0,0,0,1.15,3,3.54,3.54,0,0,0,4.84.26,2.41,2.41,0,0,0,.68-1.85,1.6,1.6,0,0,0-.48-1A7,7,0,0,0,274.36,178.47Zm-1.77,3.61Z"/><path class="cls-14" d="M270.83,188.41a1.95,1.95,0,0,0-2.56,1.18,2.16,2.16,0,0,0,1.22,2.67l.07,0,1.66.46a2.1,2.1,0,0,0,1.56-.06,2,2,0,0,0,1-1.13,2.2,2.2,0,0,0-1.06-2.59.71.71,0,0,0-.16-.07Z"/><path class="cls-14" d="M266.39,192.37l-1.77-1.08a2.11,2.11,0,0,0-1.5-.35,2,2,0,0,0-1.28.82,1.37,1.37,0,0,0-.16.32,2.36,2.36,0,0,0-.07,1.53,2.49,2.49,0,0,0,.11.29,1.73,1.73,0,0,0,.64.73l1.77,1.08a2.17,2.17,0,0,0,1.5.36,2,2,0,0,0,1.28-.83,2.41,2.41,0,0,0,.32-1.35A1.86,1.86,0,0,0,266.39,192.37Z"/><path class="cls-14" d="M260.35,193.55,258,192.5a2,2,0,0,0-2.56,1.19,2.23,2.23,0,0,0-.07,1,2.19,2.19,0,0,0,1.29,1.64L259,197.4a2,2,0,0,0,2.56-1.19,2.16,2.16,0,0,0-.26-1.85A2.19,2.19,0,0,0,260.35,193.55Z"/><path class="cls-14" d="M253,192.5l-.15-.26a2.26,2.26,0,0,0-1.12-1.06,1.94,1.94,0,0,0-2.56,1.18,2.11,2.11,0,0,0,.09,1.6c.13.23.26.46.4.69l.25.44a2.2,2.2,0,0,0,1.12,1,1.94,1.94,0,0,0,1.55,0,2,2,0,0,0,1-1.13,2.09,2.09,0,0,0-.1-1.59c-.07-.13-.14-.26-.22-.39a2,2,0,0,0-.11-.2Z"/><path class="cls-15" d="M248.29,142.26a1.77,1.77,0,0,1-1-2.2l.14-.33a1.54,1.54,0,0,0-1.07.37,1.75,1.75,0,0,0-.16,2.4A32.43,32.43,0,0,1,254.58,161a1.72,1.72,0,0,0,1.93,1.41,1.68,1.68,0,0,0,1.31-2A35.43,35.43,0,0,0,250,141.86,1.5,1.5,0,0,1,248.29,142.26Z"/><path class="cls-15" d="M289.05,145a18.18,18.18,0,0,1-10.72-10,1.7,1.7,0,0,0-2.22-.84,1.73,1.73,0,0,0-.77,2.27,21.66,21.66,0,0,0,12.59,11.82,1.65,1.65,0,0,0,2.13-1A1.79,1.79,0,0,0,289.05,145Z"/><path class="cls-15" d="M247.43,139.73l-.14.33a1.77,1.77,0,0,0,1,2.2,1.5,1.5,0,0,0,1.72-.4,2,2,0,0,0,.39-.58,44.1,44.1,0,0,0,3.68-23.36,1.71,1.71,0,0,0-1.93-1.4,1.67,1.67,0,0,0-1.32,2A40.67,40.67,0,0,1,249.25,135a2.83,2.83,0,0,1-.11.31A39.57,39.57,0,0,1,247.43,139.73Z"/><path class="cls-12" d="M272.55,86.7a11.65,11.65,0,0,0,.68-1.56,15.46,15.46,0,0,0,.7-6.41,23,23,0,0,0-1-7.81,14,14,0,0,1-3.58,3c-4.47,2.72-9.74,2.68-14.51.87a5.93,5.93,0,0,1-.85,0,6.39,6.39,0,0,1-1.07,3.39c-.59.92-.18,0-.38,1,.17-.86,0,1.19,0,1.14-.07,1.21,0,2.43-.08,3.64a18.2,18.2,0,0,1-2,8.07l-.18.32.4.33a8.89,8.89,0,0,0,5.06,1.8h0a15.19,15.19,0,0,0,6.94.27,13.78,13.78,0,0,0,5.24-2A12.24,12.24,0,0,0,272.55,86.7Zm-7.44-1.63a1.43,1.43,0,0,0,.21.12l.11,0,.23.06a.47.47,0,0,1,.12,0H266l.11,0,.21,0,.16,0,.17-.08.18-.1a2,2,0,0,0,.24-.16c-.11.08,0,0,.06-.06a2.08,2.08,0,0,0,.53-.65l.09-.2.06-.15a3.06,3.06,0,0,0,.13-.6,5,5,0,0,0,0-1,7.39,7.39,0,0,0-.72-2.23.79.79,0,0,1,.26-1,.77.77,0,0,1,1,.29,9.9,9.9,0,0,1,.88,2.57,4.44,4.44,0,0,1-1.21,4.17,3.2,3.2,0,0,1-3.79.47C263.55,85.85,264.28,84.54,265.11,85.07Zm-5.53-6.38h-.2a.2.2,0,0,1,0-.07C259.47,78.49,259.53,78.57,259.58,78.69Zm6.66,14a2,2,0,0,1-1.18.77,3.81,3.81,0,0,1-3.08-.56,1.93,1.93,0,0,1,.23-3.26,5.13,5.13,0,0,1,2.89-.45,2,2,0,0,1,1.69,2.09,1.69,1.69,0,0,1-.33.92A1.83,1.83,0,0,1,266.24,92.71Z"/><path class="cls-10" d="M238.27,78.56a14.21,14.21,0,0,1,1.61-4.92,4.72,4.72,0,0,1,1.94-1.92c.2-.38.42-.75.65-1.12a6.41,6.41,0,0,1,1.68-1.78,6.64,6.64,0,0,1-.29-2.56c.26-3.26,3.48-6.54,6.87-5.81a21.15,21.15,0,0,1,3.73,1.16,6.84,6.84,0,0,1,3.25.43A9.34,9.34,0,0,0,260,63c0-3.62,3.11-7.11,6.76-6.74a22.7,22.7,0,0,0-3.61-.63,31.9,31.9,0,0,0-10.77.25C241.63,58.46,235.53,70,234.28,80.69a6.65,6.65,0,0,0,0,1.54A6.18,6.18,0,0,1,238.27,78.56Z"/><path class="cls-10" d="M263.08,62.44a1.42,1.42,0,0,0-.13.12C263.11,62.49,263.21,62.43,263.08,62.44Z"/><path class="cls-10" d="M263.11,62.42c.4-.12.25-.19,0,0Z"/><path class="cls-10" d="M260,63a9.34,9.34,0,0,1-2.33-.91,6.84,6.84,0,0,0-3.25-.43,21.15,21.15,0,0,0-3.73-1.16c-3.39-.73-6.61,2.55-6.87,5.81a6.64,6.64,0,0,0,.29,2.56c4-2.81,9.91,1.11,9.82,6a5.93,5.93,0,0,0,.85,0c4.77,1.81,10,1.85,14.51-.87a14,14,0,0,0,3.58-3A8.25,8.25,0,0,0,274.79,67c.75-4.19-1.73-7.23-4.88-9.56a6.3,6.3,0,0,0-3.11-1.27C263.15,55.84,260.06,59.33,260,63Zm3.07-.53c.25-.19.4-.12,0,0Zm0,0c.13,0,0,.05-.13.12A1.42,1.42,0,0,1,263.08,62.44Z"/><path class="cls-10" d="M239.38,96a5.44,5.44,0,0,0,1,0,6.63,6.63,0,0,0,2.51-.72C239.55,94,237,89.94,239.08,86a2.46,2.46,0,0,1-.1-.82c-.2-1-.52-2-.66-3.07a13.19,13.19,0,0,1,0-3.54,6.18,6.18,0,0,0-4,3.67,6.3,6.3,0,0,0-.42,1.81c-.13,1.6-.12,3.21-.25,4.81a6.41,6.41,0,0,0,.24,2.26A6.54,6.54,0,0,0,239.38,96Z"/><path class="cls-10" d="M239.18,85.77a.45.45,0,0,1,0,.08l0,0Z"/><path class="cls-10" d="M244.15,68.82a6.41,6.41,0,0,0-1.68,1.78c-.23.37-.45.74-.65,1.12a4.72,4.72,0,0,0-1.94,1.92,14.21,14.21,0,0,0-1.61,4.92,13.19,13.19,0,0,0,0,3.54c.14,1,.46,2,.66,3.07a2.46,2.46,0,0,0,.1.82c-2.06,4,.47,8,3.8,9.28a6.4,6.4,0,0,0,1.53.4A5.45,5.45,0,0,0,249.83,93h0a2.53,2.53,0,0,0,.13-.22c.09-.15.18-.3.26-.45h0l.18-.32a18.2,18.2,0,0,0,2-8.07c0-1.21,0-2.43.08-3.64,0,0,.2-2,0-1.14.2-1-.21-.07.38-1A6.39,6.39,0,0,0,254,74.79C254.06,69.93,248.15,66,244.15,68.82Zm-5,17v.06l0,0A.45.45,0,0,0,239.18,85.77Z"/><path class="cls-13" d="M264.38,86.38a3.2,3.2,0,0,0,3.79-.47,4.44,4.44,0,0,0,1.21-4.17,9.9,9.9,0,0,0-.88-2.57.77.77,0,0,0-1-.29.79.79,0,0,0-.26,1,7.39,7.39,0,0,1,.72,2.23,5,5,0,0,1,0,1,3.06,3.06,0,0,1-.13.6l-.06.15-.09.2a2.08,2.08,0,0,1-.53.65s-.17.14-.06.06a2,2,0,0,1-.24.16l-.18.1-.17.08-.16,0-.21,0-.11,0h-.23a.47.47,0,0,0-.12,0l-.23-.06-.11,0a1.43,1.43,0,0,1-.21-.12C264.28,84.54,263.55,85.85,264.38,86.38Z"/><path class="cls-16" d="M266.79,91.3a2,2,0,0,0-1.69-2.09,5.13,5.13,0,0,0-2.89.45,1.93,1.93,0,0,0-.23,3.26,3.81,3.81,0,0,0,3.08.56,2,2,0,0,0,1.18-.77,1.83,1.83,0,0,0,.22-.49A1.69,1.69,0,0,0,266.79,91.3Z"/><path class="cls-17" d="M1300.46,62.18l.64-.36a2.28,2.28,0,0,0-.68.26Z"/><path class="cls-17" d="M1238.57,96.88a1.58,1.58,0,0,1,.74-.32h.42a1.68,1.68,0,0,1,.75.32l.18.19a8.2,8.2,0,0,1,2.73-2.38,13.86,13.86,0,0,1,1.3-3.69c1.46-2.48,3.76-3.91,6.14-5.3s5.22.31,6.08,2.49a4.84,4.84,0,0,1,.31,1.5,2.75,2.75,0,0,1,.62,4.52,2.23,2.23,0,0,1-.48.88,4.84,4.84,0,0,1-4.86,1.61,28.84,28.84,0,0,1-1,3.22,10.72,10.72,0,0,1-2.38,3.35,9.47,9.47,0,0,1-2.2,3.23l.14,0a11.43,11.43,0,0,1,7-3.54,10.05,10.05,0,0,1,4,.26h.44a129.7,129.7,0,0,1,30.89,4.69,31.59,31.59,0,0,1-.69-11.43c1.22-7.65,6.12-13.13,12.46-16.82A13.07,13.07,0,0,1,1288,72.52a17.92,17.92,0,0,1-2-8c-2.31-.74-4-2.31-3.51-5.43.36-2.41,2.31-4.25,4-5.77a21.28,21.28,0,0,1,3.29-2.37,21,21,0,0,1,2.39-3.17,4.81,4.81,0,0,1-.26-1,4.34,4.34,0,0,1,.83-5.26,14,14,0,0,1,2.5-1.88c-25.91,3.94-48.5,22.16-56.43,48.34A58.48,58.48,0,0,0,1237,96a6.15,6.15,0,0,0,1.48.94Z"/><path class="cls-17" d="M1316.94,39.91c5.62,2.93,9.51,8,8.45,14.47,3.26,4.53-2.51,14.34-6.36,17.36a3.61,3.61,0,0,1-.36.23,3.72,3.72,0,0,1-1,2,8.06,8.06,0,0,1-1.4,1.2c13.7,3.28,15.29,20.66,14.94,33.21,0,.4,0,.8,0,1.2.29,5.75,1.74,11.38,1.88,17.16a48.49,48.49,0,0,1-5.23,24.06c-1,7.4-8.45,12.44-15.38,11.75a71,71,0,0,1-11.29-2.18c-4.31-1.15-8.91-2.37-12.36-5.41a19.16,19.16,0,0,1-6.32-14.87c-1.77-.2-3.54-.41-5.3-.65-7.66-1-15-2.78-21.77-6.12-3.85-.66-7.78-1.5-10.52-4.24a9.49,9.49,0,0,1-2-3,5.14,5.14,0,0,1-1-.15,5.24,5.24,0,0,1-1.45-.65,4.6,4.6,0,0,1-1.07-.33c5.06,16,16,30.29,30.2,40.25,22.52,15.79,52,12.78,73.89-3.94,21.12-16.13,30-43.74,22.45-69.66C1358.6,66.58,1340.9,44.93,1316.94,39.91Z"/><path class="cls-18" d="M1319.8,135.34a15.54,15.54,0,0,1-13.61,6.7c-7.93-.37-15.85-1-23.74-1.92a19.16,19.16,0,0,0,6.32,14.87c3.45,3,8,4.26,12.36,5.41a71,71,0,0,0,11.29,2.18c6.93.69,14.37-4.35,15.38-11.75a48.49,48.49,0,0,0,5.23-24.06c-.14-5.78-1.59-11.41-1.88-17.16C1330.66,119,1327.55,130,1319.8,135.34Z"/><path class="cls-18" d="M1318.5,114.7a2.78,2.78,0,0,0,.34,1c-.11-.38-.19-.68-.26-.94Z"/><path class="cls-19" d="M1302.23,79.1a15,15,0,0,1,7.46-4.09,4.1,4.1,0,0,1-1-4.62,30.37,30.37,0,0,0,1.26-4.11h0a2.75,2.75,0,0,1-3.06-2.36,3.09,3.09,0,0,1,1.76-3.07,8.43,8.43,0,0,1,.7-.65c0-.1,0-.2,0-.31a4.32,4.32,0,0,1,2.68-3.38l.3-.07c-.63-2.58-4.38-4.36-6.52-5.23a18.23,18.23,0,0,0-9.62-1.07,4.36,4.36,0,0,1-1,0,3.92,3.92,0,0,1,1.5,1.79,4.25,4.25,0,0,1-2.15,5.28,3.75,3.75,0,0,1,2.47,3.11,4.17,4.17,0,0,1-3.4,4.57,20.13,20.13,0,0,1-7.65-.43,17.92,17.92,0,0,0,2,8,13.07,13.07,0,0,0,13.14,7.16l.37-.22C1301.73,79.32,1302,79.22,1302.23,79.1Zm-1.77-16.92,0-.1a2.28,2.28,0,0,1,.68-.26Zm-9.88,11.2a2.72,2.72,0,0,1-3.06-2.36,2.93,2.93,0,0,1,2.38-3.22,7.47,7.47,0,0,0,4-1.38,2.7,2.7,0,0,1,3.83.46,3,3,0,0,1-.56,4A13.09,13.09,0,0,1,1290.58,73.38Z"/><path class="cls-19" d="M1291.65,49.88a3.26,3.26,0,0,1,1.93-.31,3.81,3.81,0,0,1-1.38-1.83,21,21,0,0,0-2.39,3.17C1290.41,50.54,1291,50.2,1291.65,49.88Z"/><path class="cls-19" d="M1293.65,64.91a4.17,4.17,0,0,0,3.4-4.57,3.75,3.75,0,0,0-2.47-3.11,4.25,4.25,0,0,0,2.15-5.28,3.92,3.92,0,0,0-1.5-1.79,3.27,3.27,0,0,1-1.65-.59,3.26,3.26,0,0,0-1.93.31c-.62.32-1.24.66-1.84,1a21.28,21.28,0,0,0-3.29,2.37c-1.72,1.52-3.67,3.36-4,5.77-.47,3.12,1.2,4.69,3.51,5.43A20.13,20.13,0,0,0,1293.65,64.91Z"/><path class="cls-20" d="M1291.94,46.75a3.88,3.88,0,0,1,3.27-4.62,25.9,25.9,0,0,1,15.7,2.49c3.19,1.67,6.62,4.11,8.28,7.47a10.23,10.23,0,0,1,2.29.14,5.81,5.81,0,0,1,3.91,2.15c1.06-6.48-2.83-11.54-8.45-14.47-6.61-3.44-15.6-3.92-21.67-.3a14,14,0,0,0-2.5,1.88A4.34,4.34,0,0,0,1291.94,46.75Z"/><path class="cls-20" d="M1293.58,49.57a3.27,3.27,0,0,0,1.65.59,4.36,4.36,0,0,0,1,0,18.23,18.23,0,0,1,9.62,1.07c2.14.87,5.89,2.65,6.52,5.23a3.57,3.57,0,0,1,.71-.1c1.31-2.39,3.18-4.09,6.16-4.25-1.66-3.36-5.09-5.8-8.28-7.47a25.9,25.9,0,0,0-15.7-2.49,3.88,3.88,0,0,0-3.27,4.62,4.81,4.81,0,0,0,.26,1A3.81,3.81,0,0,0,1293.58,49.57Z"/><path class="cls-20" d="M1321.48,52.23a10.23,10.23,0,0,0-2.29-.14c-3,.16-4.85,1.86-6.16,4.25a2.9,2.9,0,0,1,1.32.29,2.56,2.56,0,0,1,2.28,2.29,4.51,4.51,0,0,1-.41,2.46,7.37,7.37,0,0,1-6.31,4.9,30.37,30.37,0,0,1-1.26,4.11,4.1,4.1,0,0,0,1,4.62,13.29,13.29,0,0,1,4.12-.24,22.28,22.28,0,0,1,2.45.43,8.06,8.06,0,0,0,1.4-1.2,3.72,3.72,0,0,0,1-2,3.61,3.61,0,0,0,.36-.23c3.85-3,9.62-12.83,6.36-17.36A5.81,5.81,0,0,0,1321.48,52.23Z"/><path class="cls-18" d="M1309.69,75a15,15,0,0,0-7.46,4.09c-.25.12-.5.22-.75.36l-.37.22c-6.34,3.69-11.24,9.17-12.46,16.82a31.59,31.59,0,0,0,.69,11.43q4.79,1.32,9.47,2.95a9.06,9.06,0,0,1,3.72,2.46q3.79.25,7.6.44c7.7.35,12.35,8.58,11.67,15.81a12.79,12.79,0,0,1-2,5.75c7.75-5.34,10.86-16.35,11.35-25.73,0-.4,0-.8,0-1.2.35-12.55-1.24-29.93-14.94-33.21a22.28,22.28,0,0,0-2.45-.43A13.29,13.29,0,0,0,1309.69,75Zm8.81,39.69.08.11c.07.26.15.56.26.94A2.78,2.78,0,0,1,1318.5,114.7Z"/><path class="cls-18" d="M1282.59,130.44h0C1283,130.54,1283,130.54,1282.59,130.44Z"/><path class="cls-18" d="M1306.19,142a15.54,15.54,0,0,0,13.61-6.7,12.79,12.79,0,0,0,2-5.75c.68-7.23-4-15.46-11.67-15.81q-3.81-.18-7.6-.44c3,3.28,3.74,8.62,2.16,12.91-2.32,6.26-9.44,8.42-15,6.46-1.6-.56-3.2-1.09-4.82-1.59l-2.25-.67c-1.91,4-6.46,6.89-10.64,6.07L1259.18,134c-1.22-.25-2.51-.44-3.8-.66,6.78,3.34,14.11,5.08,21.77,6.12,1.76.24,3.53.45,5.3.65C1290.34,141.05,1298.26,141.67,1306.19,142Z"/><path class="cls-18" d="M1256.3,112.05l-.08-.08C1255.5,111.89,1255.53,111.91,1256.3,112.05Z"/><path class="cls-18" d="M1265.39,111.78a10,10,0,0,1,0,2l9.47,1.87a10.35,10.35,0,0,1,8.6,11.65,9,9,0,0,1-.9,3.09c.37.1.38.1,0,0h0l2.25.67c1.62.5,3.22,1,4.82,1.59,5.6,2,12.72-.2,15-6.46,1.58-4.29.85-9.63-2.16-12.91a9.06,9.06,0,0,0-3.72-2.46q-4.69-1.63-9.47-2.95a129.7,129.7,0,0,0-30.89-4.69H1258A10,10,0,0,1,1265.39,111.78Z"/><path class="cls-18" d="M1271.94,136.52c4.18.82,8.73-2.11,10.64-6.07h0a9,9,0,0,0,.9-3.09,10.35,10.35,0,0,0-8.6-11.65l-9.47-1.87A10.08,10.08,0,0,0,1254,103a11.43,11.43,0,0,0-7,3.54l.18,0,.22.11a5.75,5.75,0,0,1,.71.2c2.93,1.08,3.67,4.51,2.8,7.31l-2.64,8.49a5.38,5.38,0,0,1-5.5,3.42,9.49,9.49,0,0,0,2,3c2.74,2.74,6.67,3.58,10.52,4.24,1.29.22,2.58.41,3.8.66ZM1256.22,112l.08.08C1255.53,111.91,1255.5,111.89,1256.22,112Z"/><path class="cls-19" d="M1241.85,126a5.14,5.14,0,0,0,1,.15,5.38,5.38,0,0,0,5.5-3.42l2.64-8.49c.87-2.8.13-6.23-2.8-7.31a5.75,5.75,0,0,0-.71-.2l-.22-.11-.18,0-.14,0a10.35,10.35,0,0,1-2.71,1.89,5.61,5.61,0,0,1-1,.36,5.7,5.7,0,0,1,0,.82,5.49,5.49,0,0,1-2.87,3.91,5.76,5.76,0,0,1,.58,7.66,17.65,17.65,0,0,1-3.09,2.77,4.79,4.79,0,0,0,1.52,1.08,4.6,4.6,0,0,0,1.07.33A5.24,5.24,0,0,0,1241.85,126Z"/><path class="cls-19" d="M1240.9,121.13a5.76,5.76,0,0,0-.58-7.66,3.63,3.63,0,0,1-2.28.37,5.9,5.9,0,0,1-.31,1.43,4.75,4.75,0,0,1-4.77,3,5.38,5.38,0,0,1,.31,2.39,5,5,0,0,1-5.33,4.23,9.35,9.35,0,0,1-1.73-.3,5.89,5.89,0,0,0,4.79,1.8,12.85,12.85,0,0,0,6.81-2.44A17.65,17.65,0,0,0,1240.9,121.13Z"/><path class="cls-19" d="M1233.27,120.61a5.38,5.38,0,0,0-.31-2.39,4.61,4.61,0,0,1-1.43-.29l-1.71-.68a1.89,1.89,0,0,1,.18.52,1.7,1.7,0,0,1-1.37,1.84,8,8,0,0,1-7.81-2.82,1.7,1.7,0,0,1,.32-2.27,1.55,1.55,0,0,1,2.2.27l.17.19,0,.07h0l.18.18a5.91,5.91,0,0,0,.63.49l.15.11.31.16a7.76,7.76,0,0,0,.74.31l.31.1.19,0a6,6,0,0,0,.84.11h.48l.46-.08-3.45-1.37a4.19,4.19,0,0,1-2.2-2.06,3.74,3.74,0,0,0-.86.56,5.09,5.09,0,0,0-1,6.78,10,10,0,0,0,5.82,4.16,9.35,9.35,0,0,0,1.73.3A5,5,0,0,0,1233.27,120.61Z"/><path class="cls-19" d="M1227.19,116.56h0Z"/><path class="cls-19" d="M1224.41,115.1l3.45,1.37.38,0a1.46,1.46,0,0,1,1.58.83l1.71.68a4.61,4.61,0,0,0,1.43.29,4.75,4.75,0,0,0,4.77-3,5.9,5.9,0,0,0,.31-1.43,1.08,1.08,0,0,1-.19,0,35.39,35.39,0,0,1-6.23-2.11,1.73,1.73,0,0,1-1.63.93,7.19,7.19,0,0,1-6-4.35,1.7,1.7,0,0,1,.86-2.12l.27-.1v0a4.53,4.53,0,0,0-3.07,2.75,5.35,5.35,0,0,0,.21,4.25A4.19,4.19,0,0,0,1224.41,115.1Z"/><path class="cls-19" d="M1227.52,108a.33.33,0,0,1,.06.06A.33.33,0,0,0,1227.52,108Z"/><path class="cls-19" d="M1226.85,107a2.13,2.13,0,0,1,.2.4.35.35,0,0,1,0,.08,7.31,7.31,0,0,0,.48.62l.1.1.29.27a5.58,5.58,0,0,0,.56.39,6.83,6.83,0,0,0,1.08.45,5.85,5.85,0,0,0,.84.11,1.58,1.58,0,0,1,1.32,1.8,1.29,1.29,0,0,1-.15.48,35.39,35.39,0,0,0,6.23,2.11,1.08,1.08,0,0,0,.19,0,3.63,3.63,0,0,0,2.28-.37,5.49,5.49,0,0,0,2.87-3.91,5.7,5.7,0,0,0,0-.82,3.9,3.9,0,0,1-4.22-1.57,14.55,14.55,0,0,1-4.09-1.16,12.63,12.63,0,0,1-7.21-4.53,1.47,1.47,0,0,1-.25-.52,4.67,4.67,0,0,0-1.44,1.28,5.37,5.37,0,0,0-1,3.8v0A1.57,1.57,0,0,1,1226.85,107Z"/><path class="cls-19" d="M1227.59,108.1s0,0,0,0S1227.66,108.18,1227.59,108.1Z"/><path class="cls-19" d="M1227.05,107.39c0-.08-.18-.3,0-.08Z"/><path class="cls-19" d="M1230.22,99.48c.21.25.42.5.64.74a.86.86,0,0,1,.14.13l.35.32a12.34,12.34,0,0,0,1.48,1.1l.2.11c.14.07.28.15.42.21a9.1,9.1,0,0,0,.85.37c.27.11.55.2.83.29a.35.35,0,0,1,.12,0l.07,0c.15,0,.3.07.45.09a1.6,1.6,0,0,1,1.33,1.8,1.63,1.63,0,0,1-1.78,1.41c-.14,0-.27-.06-.4-.09a14.55,14.55,0,0,0,4.09,1.16,5.12,5.12,0,0,1,.47-6.78,1.49,1.49,0,0,1,0-.21l-.54.44a1.58,1.58,0,0,1-.74.32h-.41a1.48,1.48,0,0,1-.75-.32l-.28-.28a1.1,1.1,0,0,1-.25-.55,1.12,1.12,0,0,1,0-.63,1.25,1.25,0,0,1,.22-.6,1.19,1.19,0,0,1,.39-.47l1.38-1.13A6.15,6.15,0,0,1,1237,96a3.11,3.11,0,0,1-.37-.35c-1.72-1.89-4.4-2.55-6.59-.81a5.52,5.52,0,0,0-1.9,4.27A1.54,1.54,0,0,1,1230.22,99.48Z"/><path class="cls-19" d="M1235.1,102.75s0,0,.05,0h-.05Z"/><path class="cls-19" d="M1235.17,102.76l.08,0-.1,0Z"/><path class="cls-19" d="M1253.33,91.45Z"/><path class="cls-19" d="M1251.5,99.91a28.84,28.84,0,0,0,1-3.22,4.83,4.83,0,0,1-1.57-.72c-1.73-1.2-1.11-4,.69-4.83,1.12-.5,2.23-1,3.35-1.53a2.53,2.53,0,0,1,2.25.07,4.84,4.84,0,0,0-.31-1.5c-.86-2.18-3.84-3.78-6.08-2.49s-4.68,2.82-6.14,5.3a13.86,13.86,0,0,0-1.3,3.69,8.2,8.2,0,0,0-2.73,2.38l.1.1a1.71,1.71,0,0,1,.29,1.18,1.28,1.28,0,0,1-.22.6,1.35,1.35,0,0,1-.39.47l-.94.77a1.49,1.49,0,0,0,0,.21,5.12,5.12,0,0,0-.47,6.78,3.9,3.9,0,0,0,4.22,1.57,5.61,5.61,0,0,0,1-.36,10.35,10.35,0,0,0,2.71-1.89,9.47,9.47,0,0,0,2.2-3.23A10.72,10.72,0,0,0,1251.5,99.91Z"/><path class="cls-21" d="M1255,89.61c-1.12.51-2.23,1-3.35,1.53-1.8.82-2.42,3.63-.69,4.83a4.76,4.76,0,0,0,6.43-.89,2.23,2.23,0,0,0,.48-.88,2.75,2.75,0,0,0-.62-4.52A2.53,2.53,0,0,0,1255,89.61Zm-1.64,1.84h0Z"/><path class="cls-21" d="M1297.15,70.85a3,3,0,0,0,.56-4,2.7,2.7,0,0,0-3.83-.46,7.47,7.47,0,0,1-4,1.38,2.93,2.93,0,0,0-2.38,3.22,2.72,2.72,0,0,0,3.06,2.36A13.09,13.09,0,0,0,1297.15,70.85Z"/><path class="cls-22" d="M1234.92,106c.13,0,.26.07.4.09a1.63,1.63,0,0,0,1.78-1.41,1.6,1.6,0,0,0-1.33-1.8c-.15,0-.3-.06-.45-.09l-.07,0-.08,0h0s0,0-.05,0h0c-.28-.09-.56-.18-.83-.29a9.1,9.1,0,0,1-.85-.37c-.14-.06-.28-.14-.42-.21l-.2-.11a12.34,12.34,0,0,1-1.48-1.1l-.35-.32a.86.86,0,0,0-.14-.13c-.22-.24-.43-.49-.64-.74a1.54,1.54,0,0,0-2.09-.34l-.1.07a1.79,1.79,0,0,0-.57,1.75,1.47,1.47,0,0,0,.25.52A12.63,12.63,0,0,0,1234.92,106Z"/><path class="cls-22" d="M1235.15,102.76l.1,0a.35.35,0,0,0-.12,0Z"/><path class="cls-22" d="M1230.45,109.42a5.85,5.85,0,0,1-.84-.11,6.83,6.83,0,0,1-1.08-.45,5.58,5.58,0,0,1-.56-.39l-.29-.27-.1-.1a7.31,7.31,0,0,1-.48-.62.35.35,0,0,0,0-.08,2.13,2.13,0,0,0-.2-.4,1.57,1.57,0,0,0-1.77-.94l-.27.1a1.7,1.7,0,0,0-.86,2.12,7.19,7.19,0,0,0,6,4.35,1.73,1.73,0,0,0,1.63-.93,1.29,1.29,0,0,0,.15-.48A1.58,1.58,0,0,0,1230.45,109.42Zm-2.84-1.29s0,0,0,0S1227.74,108.28,1227.61,108.13Zm0,0a.33.33,0,0,0-.06-.06A.33.33,0,0,1,1227.58,108.1Zm-.53-.71,0-.08C1226.87,107.09,1227,107.31,1227.05,107.39Z"/><path class="cls-22" d="M1228.24,116.42l-.38,0-.46.08h-.48a6,6,0,0,1-.84-.11l-.19,0-.31-.1a7.76,7.76,0,0,1-.74-.31l-.31-.16-.15-.11a5.91,5.91,0,0,1-.63-.49l-.18-.18h0l0-.07-.17-.19a1.55,1.55,0,0,0-2.2-.27,1.7,1.7,0,0,0-.32,2.27,8,8,0,0,0,7.81,2.82,1.7,1.7,0,0,0,1.37-1.84,1.89,1.89,0,0,0-.18-.52A1.46,1.46,0,0,0,1228.24,116.42Zm-1,.14h0Z"/><path class="cls-22" d="M1240.83,98.94a1.28,1.28,0,0,0,.22-.6,1.71,1.71,0,0,0-.29-1.18l-.1-.1-.18-.19a1.68,1.68,0,0,0-.75-.32h-.42a1.58,1.58,0,0,0-.74.32l-.1.09-1.38,1.13a1.19,1.19,0,0,0-.39.47,1.25,1.25,0,0,0-.22.6,1.12,1.12,0,0,0,0,.63,1.1,1.1,0,0,0,.25.55l.28.28a1.48,1.48,0,0,0,.75.32h.41a1.58,1.58,0,0,0,.74-.32l.54-.44.94-.77A1.35,1.35,0,0,0,1240.83,98.94Z"/><path class="cls-19" d="M1312,56.51a4.32,4.32,0,0,0-2.68,3.38c0,.11,0,.21,0,.31a8.43,8.43,0,0,0-.7.65,3.09,3.09,0,0,0-1.76,3.07,2.75,2.75,0,0,0,3.06,2.36h0a7.37,7.37,0,0,0,6.31-4.9,4.51,4.51,0,0,0,.41-2.46,2.56,2.56,0,0,0-2.28-2.29,2.9,2.9,0,0,0-1.32-.29,3.57,3.57,0,0,0-.71.1Z"/><path class="cls-23" d="M966.66,73.48a76.73,76.73,0,0,0-61.09,60,8.22,8.22,0,0,0,3.64,2.46,18.16,18.16,0,0,1,4.62,2.42c0-.19,0-.37,0-.56a19.13,19.13,0,0,0,.52-2.52c.06.79-.67-.76-.88-1.06l-2-2.7a3.56,3.56,0,0,1,.58-4.38,1.53,1.53,0,0,1,.11-.27,1.64,1.64,0,0,1,.48-.56,1.79,1.79,0,0,1,.47-.4,2.77,2.77,0,0,1,3.33.51,2.74,2.74,0,0,1,.36.48,4.57,4.57,0,0,1,.91,1c1.32,1.81,3.29,3.78,3.85,6a7.07,7.07,0,0,1-.4,3.75A7.29,7.29,0,0,0,921,140a7.74,7.74,0,0,1,5.43,4.35,15.75,15.75,0,0,1,4.66,1.28c5,2.26,8.82,6.26,12.12,10.59q1.89-2.41,3.85-4.77a195.45,195.45,0,0,1,13.66-14.68c.17-.17.36-.32.54-.48a8.29,8.29,0,0,1,3.12-2.38,22.93,22.93,0,0,1,5.34-1.67l-.06-.22c-5.68-.34-11.45-4.61-12.64-10-.24-1.08-.43-2.18-.59-3.28a5,5,0,0,1-3.48-4.41c-.36-3.32,1.68-6.84,3.95-9.33l.21-.83a8.1,8.1,0,0,1-2.09-3.54,7.86,7.86,0,0,1,.09-4.49,6.63,6.63,0,0,1,1.16-3.81c6.9-9.85,21.08-8.49,30.16-2.39a28.59,28.59,0,0,1,10.29,11.72,45.66,45.66,0,0,1,2.41,7.28c.24.9.55,1.8.79,2.7l.27.53c-.46-.41-.34-.28.37.41a8.34,8.34,0,0,1,1.47,2c.16.08.32.15.48.24a13.89,13.89,0,0,1,4.66,4.49c.7,1.07,1.19,2.28,1.9,3.35.07.06.31.33.47.51a5.36,5.36,0,0,1,.39.46c.1.06.25.15.45.29,3.62,2.48,5.23,7.12,2.9,11.13a8.42,8.42,0,0,1-9.21,3.78c-.05.1-.09.2-.15.3a7.63,7.63,0,0,1-1.47,1.79,23,23,0,0,1,2.18,3.49c2.25,4.47,3.31,9.35,4.53,14.16l.84,3.31.44.59c3.32,4.52,6.45,9.52,6.21,15.36-.44,10.69-9.54,14.36-18.81,13.95a19.28,19.28,0,0,1-9.4,1.46c-4.91-.35-9.83-.73-14.75-1.09-5.28-.4-11.63,0-16.23-2.86a12.72,12.72,0,0,1-4.36-4.41c-4.51,5.26-10.68,8.26-17.87,6.37-11.34-3-15.52-15.36-20.3-24.82a13.16,13.16,0,0,1-1.39-7.69,14.18,14.18,0,0,1-.21-3.25c-.19-.17-.37-.35-.55-.54a3.88,3.88,0,0,1-1,.11,25.93,25.93,0,0,0-7.55.71c2,24.54,15.58,46.8,38,57.76,27.6,13.53,60.19,3.06,82.59-19.28,22.86-22.8,35.2-56.14,21.52-84.54C1032.25,80.45,998.84,67.57,966.66,73.48Z"/><path class="cls-24" d="M1000.18,142.64a4.55,4.55,0,0,1-5.38,2,4,4,0,0,1-3.22,3.58,12.73,12.73,0,0,1-5,.21,20.33,20.33,0,0,1-5.74,12.32,76.47,76.47,0,0,1-10.78,9c-1.75,1.3-3.53,2.56-5.3,3.84-.82.58-1.62,1.18-2.43,1.78l-.49.37-.25.2c-1.61,1.45-3.26,2.79-4.75,4.35-.49.51-1,1-1.4,1.57.05,0-.73.94-1.11,1.44s-.8,1-1.21,1.51a12.72,12.72,0,0,0,4.36,4.41c4.6,2.89,10.95,2.46,16.23,2.86,4.92.36,9.84.74,14.75,1.09a19.28,19.28,0,0,0,9.4-1.46c9.27.41,18.37-3.26,18.81-13.95.24-5.84-2.89-10.84-6.21-15.36l-.44-.59-.84-3.31c-1.22-4.81-2.28-9.69-4.53-14.16a23,23,0,0,0-2.18-3.49,8.65,8.65,0,0,1-2.12,1.42C1000.28,142.39,1000.24,142.52,1000.18,142.64Z"/><path class="cls-25" d="M961.25,125.29h0S961.29,125.31,961.25,125.29Z"/><path class="cls-25" d="M957.12,104.09l-.21.83c.17-.19.34-.37.52-.54C957.32,104.29,957.22,104.19,957.12,104.09Z"/><path class="cls-25" d="M968.52,121.64c0-3.72,1.89-13.56-3.76-13.84a6,6,0,0,1-1-.14,3.42,3.42,0,0,1-.85,1.19,10.83,10.83,0,0,0-2.16,2.66,2.53,2.53,0,0,1-.13.22,3.65,3.65,0,0,1,1.17,4.77,4.63,4.63,0,0,1-5.25,2.21l-.13,0c.16,1.1.35,2.2.59,3.28,1.19,5.42,7,9.69,12.64,10A36.34,36.34,0,0,1,968.52,121.64Zm-4.79,4.77a3.46,3.46,0,0,1-4.46-.94,1.74,1.74,0,0,1-.44-2.87,3.27,3.27,0,0,1,3.45-.79,3.41,3.41,0,0,1,2.35,3A1.8,1.8,0,0,1,963.73,126.41Z"/><path class="cls-25" d="M962.24,123.26h0Z"/><path class="cls-25" d="M961.82,116.5a3.65,3.65,0,0,0-1.17-4.77,2.53,2.53,0,0,0,.13-.22,10.83,10.83,0,0,1,2.16-2.66,3.42,3.42,0,0,0,.85-1.19,4.26,4.26,0,0,1-2-1.15,8.27,8.27,0,0,1-4.35-2.13c-.18.17-.35.35-.52.54-2.27,2.49-4.31,6-3.95,9.33a5,5,0,0,0,3.48,4.41l.13,0A4.63,4.63,0,0,0,961.82,116.5Z"/><path class="cls-26" d="M996.45,132.57a23,23,0,0,1-2-2.84c-.16-.28-.58-.84-.84-1.25l-.14-.07a14.16,14.16,0,0,1-4.81-2.86,11.88,11.88,0,0,1-3.6-7.83,32.55,32.55,0,0,1-1.52-4.53c-.78-3-1.3-5.14-2.72-6.86a16.08,16.08,0,0,0-1.69-1.71,42.42,42.42,0,0,1,5.45,18,44.39,44.39,0,0,0,1.56,10,28.93,28.93,0,0,0,1,3.12,4.82,4.82,0,0,1,1.22-2.49,4.56,4.56,0,0,1,6.45,0,19.07,19.07,0,0,0,2,2h0l.45.31a13.57,13.57,0,0,0,1.21.75,4.65,4.65,0,0,1,1.79,5.91,8.65,8.65,0,0,0,2.12-1.42,7.63,7.63,0,0,0,1.47-1.79c.06-.1.1-.2.15-.3a6.24,6.24,0,0,1-1.83-.86A24.48,24.48,0,0,1,996.45,132.57Z"/><path class="cls-26" d="M961.78,106.51a4.76,4.76,0,0,1-1.3-2.51,8.13,8.13,0,0,1-1.31-.61,8.82,8.82,0,0,1-4-7.33,7.86,7.86,0,0,0-.09,4.49,8.1,8.1,0,0,0,2.09,3.54c.1.1.2.2.31.29A8.27,8.27,0,0,0,961.78,106.51Z"/><path class="cls-26" d="M999.65,113.47a3.44,3.44,0,0,0-1-.42l.81.32Z"/><path class="cls-26" d="M1000.3,114.05a10.9,10.9,0,0,1,.9,3.32A5.08,5.08,0,0,0,1000.3,114.05Z"/><path class="cls-26" d="M959.17,103.39a8.13,8.13,0,0,0,1.31.61c-.5-2.6.91-5.56,4.28-5.39a14,14,0,0,1,7.14,2.33,4.41,4.41,0,0,1,6.06,1.57c.42.7.83,1.4,1.22,2.11a16.08,16.08,0,0,1,1.69,1.71c1.42,1.72,1.94,3.9,2.72,6.86a32.55,32.55,0,0,0,1.52,4.53c0-.11,0-.22-.05-.34-.47-4.53,4.09-7.95,8.08-8.14a7.39,7.39,0,0,1,7,4.44c.64.26,1.29.51,1.91.82a8.34,8.34,0,0,0-1.47-2c-.71-.69-.83-.82-.37-.41l-.27-.53c-.24-.9-.55-1.8-.79-2.7a45.66,45.66,0,0,0-2.41-7.28,28.59,28.59,0,0,0-10.29-11.72c-9.08-6.1-23.26-7.46-30.16,2.39a6.63,6.63,0,0,0-1.16,3.81A8.82,8.82,0,0,0,959.17,103.39Z"/><path class="cls-26" d="M993.14,109.24c-4,.19-8.55,3.61-8.08,8.14,0,.12,0,.23.05.34a11.88,11.88,0,0,0,3.6,7.83,14.16,14.16,0,0,0,4.81,2.86l.14.07c.26.41.68,1,.84,1.25a23,23,0,0,0,2,2.84,24.48,24.48,0,0,0,5.8,5.32,6.24,6.24,0,0,0,1.83.86,8.42,8.42,0,0,0,9.21-3.78c2.33-4,.72-8.65-2.9-11.13-.2-.14-.35-.23-.45-.29a5.36,5.36,0,0,0-.39-.46c-.16-.18-.4-.45-.47-.51-.71-1.07-1.2-2.28-1.9-3.35a13.89,13.89,0,0,0-4.66-4.49c-.16-.09-.32-.16-.48-.24-.62-.31-1.27-.56-1.91-.82A7.39,7.39,0,0,0,993.14,109.24Zm6.51,4.23-.23-.1-.81-.32A3.44,3.44,0,0,1,999.65,113.47Zm1.55,3.9a10.9,10.9,0,0,0-.9-3.32A5.08,5.08,0,0,1,1001.2,117.37Z"/><path class="cls-26" d="M987.19,135.77a28.93,28.93,0,0,1-1-3.12,44.39,44.39,0,0,1-1.56-10,42.42,42.42,0,0,0-5.45-18c-.39-.71-.8-1.41-1.22-2.11a4.41,4.41,0,0,0-6.06-1.57,12.26,12.26,0,0,1,5,6.81c1.6,5.45.52,11.66.77,17.26a20.77,20.77,0,0,0,.63,4.29,6.15,6.15,0,0,1,.18.9s.13.07.43.57a33,33,0,0,0,2.23,3.39c1.52,1.93,4.24,5.19,7,5.3A4.82,4.82,0,0,1,987.19,135.77Z"/><path class="cls-26" d="M1000.18,142.64c.06-.12.1-.25.16-.38a4.65,4.65,0,0,0-1.79-5.91,13.57,13.57,0,0,1-1.21-.75l-.45-.31h0a19.07,19.07,0,0,1-2-2,4.56,4.56,0,0,0-6.45,0,4.7,4.7,0,0,0-.23,6.18,3.62,3.62,0,0,0,1-.09c3.65-.9,6,2.42,5.64,5.29A4.55,4.55,0,0,0,1000.18,142.64Z"/><path class="cls-24" d="M913.34,155.41a14.18,14.18,0,0,0,.21,3.25,11.11,11.11,0,0,1,.64-2.6A7.94,7.94,0,0,1,913.34,155.41Z"/><path class="cls-24" d="M934.33,170.33l.64-.89A5.31,5.31,0,0,0,934.33,170.33Z"/><path class="cls-24" d="M935.52,154.2l4.33,8.57.21.43c.65-.69,1.32-1.37,2-2,4.43-4.09,9.45-7.51,14.31-11,.84-.61,1.66-1.23,2.49-1.85a1.36,1.36,0,0,1,.22-.19,13.2,13.2,0,0,1,2.17-11.87c-.18.16-.37.31-.54.48a195.45,195.45,0,0,0-13.66,14.68q-2,2.35-3.85,4.77c-3.3-4.33-7.08-8.33-12.12-10.59a15.75,15.75,0,0,0-4.66-1.28,9.59,9.59,0,0,1,.95,4.19A11.39,11.39,0,0,1,935.52,154.2Z"/><path class="cls-24" d="M959.1,148.11a1.36,1.36,0,0,0-.22.19c-.83.62-1.65,1.24-2.49,1.85-4.86,3.53-9.88,6.95-14.31,11-.7.64-1.37,1.32-2,2l-.21-.43-4.33-8.57a11.39,11.39,0,0,0-8.13-5.71c0,4.45-2.79,8.91-8.46,8.91a8.44,8.44,0,0,1-4.74-1.34,11.11,11.11,0,0,0-.64,2.6,13.16,13.16,0,0,0,1.39,7.69c4.78,9.46,9,21.84,20.3,24.82,7.19,1.89,13.36-1.11,17.87-6.37.41-.49.82-1,1.21-1.51s1.16-1.49,1.11-1.44c.45-.53.91-1.06,1.4-1.57,1.49-1.56,3.14-2.9,4.75-4.35l.25-.2.49-.37c.81-.6,1.61-1.2,2.43-1.78,1.77-1.28,3.55-2.54,5.3-3.84a76.47,76.47,0,0,0,10.78-9,20.33,20.33,0,0,0,5.74-12.32c-6.54-1-12-6.93-15.25-12.56a18.11,18.11,0,0,1-1.59-3.7,22.93,22.93,0,0,0-5.34,1.67,8.29,8.29,0,0,0-3.12,2.38A13.2,13.2,0,0,0,959.1,148.11ZM935,169.44l-.64.89A5.31,5.31,0,0,1,935,169.44Z"/><path class="cls-25" d="M917.48,144.6a3.29,3.29,0,0,1-2.59-1.18,4,4,0,0,1-3.4,1.52,3.41,3.41,0,0,1-.07,1.35,3,3,0,0,1,.77,1.45c3.89.53,4.1,6.33.6,7.13.18.19.36.37.55.54a7.94,7.94,0,0,0,.85.65,8.44,8.44,0,0,0,4.74,1.34c5.67,0,8.49-4.46,8.46-8.91a9.59,9.59,0,0,0-.95-4.19A7.74,7.74,0,0,0,921,140c0,.33,0,.66.09,1C921.34,142.93,919.25,144.6,917.48,144.6Z"/><path class="cls-25" d="M914.84,129.13,915,129l-.23.1Z"/><path class="cls-25" d="M914.82,129.14c-.11,0-.15.07,0,0Z"/><path class="cls-25" d="M915.45,128.43a1.53,1.53,0,0,1-.11.27l.1-.2Z"/><path class="cls-25" d="M915.46,128.47c0-.12,0-.08,0,0Z"/><path class="cls-25" d="M914.89,143.42a3.29,3.29,0,0,0,2.59,1.18c1.77,0,3.86-1.67,3.62-3.64-.05-.35-.07-.68-.09-1a7.29,7.29,0,0,1,.23-2.36,7.07,7.07,0,0,0,.4-3.75c-.56-2.23-2.53-4.2-3.85-6a4.57,4.57,0,0,0-.91-1,2.73,2.73,0,0,1-.43,3.23,2.63,2.63,0,0,1-3.71.07,2.79,2.79,0,0,1-.61-3.06,3.56,3.56,0,0,0-.58,4.38l2,2.7c.21.3.94,1.85.88,1.06a19.13,19.13,0,0,1-.52,2.52c0,.19,0,.37,0,.56.23.18.46.34.7.54A3.08,3.08,0,0,1,914.89,143.42Z"/><path class="cls-25" d="M895.3,127.48a.9.9,0,0,1,1.11.63v0a3.21,3.21,0,0,1,1.84,2.3c.1.38.69,3.55,1.15,5.21a3.57,3.57,0,0,1,.89.29,9,9,0,0,1,1.9.91c2.7,1.72,4.66,4.19,7.53,5.72a3.18,3.18,0,0,1,1.76,2.36,4,4,0,0,0,3.4-1.52,3.08,3.08,0,0,0-.36-4.54c-.24-.2-.47-.36-.7-.54a18.16,18.16,0,0,0-4.62-2.42,8.22,8.22,0,0,1-3.64-2.46l-.47-.53a9.65,9.65,0,0,0-2.19-1.89l-.72-.4-.33-.23a19.26,19.26,0,0,0,.25-2.23,13.44,13.44,0,0,0-.77-4,3.53,3.53,0,0,0-3.37-2.51h0a1.86,1.86,0,0,1,.83,1.09,1.9,1.9,0,0,1-.18,1.4,1.85,1.85,0,0,1-1,.81,1.8,1.8,0,0,1-1.06.81,1.81,1.81,0,0,1-2.22-1.28,1.56,1.56,0,0,1-.06-.47,3.39,3.39,0,0,0,.07,2.08,7.08,7.08,0,0,1,.31,1.73h.12A.79.79,0,0,1,895.3,127.48Z"/><path class="cls-25" d="M899.8,136.67l-.18-.32C899.69,136.54,899.75,136.66,899.8,136.67Z"/><path class="cls-25" d="M893,133.61a.56.56,0,0,1,0,.08,3.61,3.61,0,0,1,1.19,1.23c1.18,2,3.22,4.39,3.94,6.61,1,.77,1,1.2.11,1.29l.73,0a17.19,17.19,0,0,1,2.49.72,8.73,8.73,0,0,1,1.83,1.48c.25.29.51.57.76.84s.35.36.42-.09c1.92-.11,3.16-.83,5.21-.41a3.3,3.3,0,0,1,1.74.91,3.41,3.41,0,0,0,.07-1.35,3.18,3.18,0,0,0-1.76-2.36c-2.87-1.53-4.83-4-7.53-5.72a9,9,0,0,0-1.9-.91,3.57,3.57,0,0,0-.89-.29c-.46-1.66-1-4.83-1.15-5.21a3.21,3.21,0,0,0-1.84-2.3c.63,4,1.55,9.45,6,10.95,1.1.37.62,2.13-.48,1.75a9.32,9.32,0,0,1-5.08-4.51,23.7,23.7,0,0,1-2.17-7.75,1.1,1.1,0,0,1,.12-.72h-.12a4.09,4.09,0,0,0-1.67.53c1.93.38,1.81,3.61-.38,3.61a1.61,1.61,0,0,1-1.43-.75,3.72,3.72,0,0,0,.1,1.13q.09.39.18.81c.13,0,.27,0,.4,0A.94.94,0,0,1,893,133.61Zm6.67,2.74.18.32S899.69,136.54,899.62,136.35Z"/><path class="cls-25" d="M894.72,143.83a15.87,15.87,0,0,0,2.49,4.37c1.44,1.5,2.6,1.16,4.38.66a32.54,32.54,0,0,1,10.2-1.17,2.57,2.57,0,0,1,.4.05,3,3,0,0,0-.77-1.45,3.3,3.3,0,0,0-1.74-.91c-2-.42-3.29.3-5.21.41q-.11.68-.42.09c-.25-.27-.51-.55-.76-.84a8.73,8.73,0,0,0-1.83-1.48,17.19,17.19,0,0,0-2.49-.72l-.73,0c.87-.09.84-.52-.11-1.29-.72-2.22-2.76-4.62-3.94-6.61a3.61,3.61,0,0,0-1.19-1.23c1.33,1.87,1.47,4.21,2.12,6.35.47,1.55,1.62,3.49,3.46,3.42,1.17-.05,1.16,1.78,0,1.82-2.36.09-4.05-1.88-4.89-3.9-.93-2.24-.83-4.86-2.3-6.86a.91.91,0,0,1,.32-1.24.75.75,0,0,1,.16-.05c-.13,0-.27,0-.4,0a4,4,0,0,0-2.4.67h0a1.27,1.27,0,0,1,.7.16,1.25,1.25,0,0,1,.58.38,1.32,1.32,0,0,1,.37.58,1.41,1.41,0,0,1,.16.7c0,.15,0,.3,0,.45a1.83,1.83,0,0,1-.25.91c-.09.13-.18.25-.28.37a1.77,1.77,0,0,1-.8.47l-.48.07a1.27,1.27,0,0,1-.7-.16,1.65,1.65,0,0,1-.94-.93,3.65,3.65,0,0,0,.52,1.73l2.27,3.85A3.06,3.06,0,0,1,894.72,143.83Z"/><path class="cls-25" d="M911.79,155a3.88,3.88,0,0,0,1-.11c3.5-.8,3.29-6.6-.6-7.13a2.57,2.57,0,0,0-.4-.05,32.54,32.54,0,0,0-10.2,1.17c-1.78.5-2.94.84-4.38-.66a15.87,15.87,0,0,1-2.49-4.37,3.06,3.06,0,0,0-4.51-1.39,4.3,4.3,0,0,0-.94.71l.1,0,.36.15a1.14,1.14,0,0,1,.33.28.9.9,0,0,1,1.76-.34c.59,1.42,1.18,2.83,1.76,4.25.43,1,.86,2.28,1.92,2.82a7.34,7.34,0,0,0,3.16.44,8,8,0,0,1,3.49.68c1.05.52.14,2.08-.91,1.58a8.63,8.63,0,0,0-3.54-.46,6.47,6.47,0,0,1-3.5-.9,7.09,7.09,0,0,1-2.24-3.39l-1.49-3.6s0,.1,0,.15a1.46,1.46,0,0,1-.18.57l-.12.25a1.67,1.67,0,0,1-.54.55l-.36.15a1.55,1.55,0,0,1-.8,0l-.34-.14a3.83,3.83,0,0,0,.35,1.3c1.89,4,4.42,7.93,9,9,2.36.54,4.32-.18,6.56-.77l.2,0A25.93,25.93,0,0,1,911.79,155Z"/><path class="cls-27" d="M895.3,127.48a.79.79,0,0,0-.51.39,1.1,1.1,0,0,0-.12.72,23.7,23.7,0,0,0,2.17,7.75,9.32,9.32,0,0,0,5.08,4.51c1.1.38,1.58-1.38.48-1.75-4.43-1.5-5.35-6.93-6-10.95v0A.9.9,0,0,0,895.3,127.48Z"/><path class="cls-27" d="M891.87,133.23a.75.75,0,0,0-.16.05.91.91,0,0,0-.32,1.24c1.47,2,1.37,4.62,2.3,6.86.84,2,2.53,4,4.89,3.9,1.16,0,1.17-1.87,0-1.82-1.84.07-3-1.87-3.46-3.42-.65-2.14-.79-4.48-2.12-6.35a.56.56,0,0,0,0-.08A.94.94,0,0,0,891.87,133.23Z"/><path class="cls-27" d="M890.43,144.23a1.15,1.15,0,0,1,0,.45l1.49,3.6a7.09,7.09,0,0,0,2.24,3.39,6.47,6.47,0,0,0,3.5.9,8.63,8.63,0,0,1,3.54.46c1,.5,2-1.06.91-1.58a8,8,0,0,0-3.49-.68,7.34,7.34,0,0,1-3.16-.44c-1.06-.54-1.49-1.78-1.92-2.82-.58-1.42-1.17-2.83-1.76-4.25a.9.9,0,0,0-1.76.34l.1.11A1.23,1.23,0,0,1,890.43,144.23Z"/><path class="cls-28" d="M964.63,124.84a3.41,3.41,0,0,0-2.35-3,3.27,3.27,0,0,0-3.45.79,1.74,1.74,0,0,0,.44,2.87,3.46,3.46,0,0,0,4.46.94A1.8,1.8,0,0,0,964.63,124.84Zm-2.45-1.58h0Zm-.94,2h0S961.28,125.32,961.24,125.3Z"/><path class="cls-29" d="M912.74,130.18a2.63,2.63,0,0,0,3.71-.07,2.65,2.65,0,0,0,.07-3.71,2.77,2.77,0,0,0-3.33-.51,1.79,1.79,0,0,0-.47.4,1.64,1.64,0,0,0-.48.56,1.53,1.53,0,0,0-.11.27A2.79,2.79,0,0,0,912.74,130.18Zm2.08-1c-.15.07-.11,0,0,0Zm0,0h-.05l.23-.1Zm.61-.7v.07l-.1.2A1.53,1.53,0,0,0,915.45,128.43Zm0,0c0-.08,0-.12,0,0Z"/><path class="cls-29" d="M894.35,124.53a1.81,1.81,0,0,0,2.22,1.28,1.8,1.8,0,0,0,1.06-.81,1.85,1.85,0,0,0,1-.81,1.9,1.9,0,0,0,.18-1.4,1.86,1.86,0,0,0-.83-1.09h0a2,2,0,0,0-1.38-.18,3.07,3.07,0,0,0-2.06,1.62,2.42,2.42,0,0,0-.24.93A1.56,1.56,0,0,0,894.35,124.53Z"/><path class="cls-29" d="M892.62,132c2.19,0,2.31-3.23.38-3.61a2.33,2.33,0,0,0-.38,0,1.84,1.84,0,0,0-1.43,2.9A1.61,1.61,0,0,0,892.62,132Z"/><path class="cls-29" d="M888.36,137.79a1.27,1.27,0,0,0,.7.16l.48-.07a1.77,1.77,0,0,0,.8-.47c.1-.12.19-.24.28-.37a1.83,1.83,0,0,0,.25-.91c0-.15,0-.3,0-.45a1.41,1.41,0,0,0-.16-.7,1.32,1.32,0,0,0-.37-.58,1.25,1.25,0,0,0-.58-.38,1.27,1.27,0,0,0-.7-.16h0l-.44.06a1.77,1.77,0,0,0-.8.47c-.1.12-.19.24-.28.37a1.83,1.83,0,0,0-.25.91c0,.15,0,.3,0,.45a1.41,1.41,0,0,0,.16.7s0,0,0,0a1.65,1.65,0,0,0,.94.93Z"/><path class="cls-29" d="M889.26,146.35l.36-.15a1.67,1.67,0,0,0,.54-.55l.12-.25a1.46,1.46,0,0,0,.18-.57c0-.05,0-.1,0-.15a1.15,1.15,0,0,0,0-.45,1.23,1.23,0,0,0-.27-.52l-.1-.11a1.14,1.14,0,0,0-.33-.28l-.36-.15-.1,0a1.51,1.51,0,0,0-.7,0l-.36.15a1.67,1.67,0,0,0-.54.55l-.12.25a1.31,1.31,0,0,0-.18.57,1.12,1.12,0,0,0,0,.6,1,1,0,0,0,.27.52,1.16,1.16,0,0,0,.43.39h0l.34.14A1.55,1.55,0,0,0,889.26,146.35Z"/><path class="cls-26" d="M971.32,135.89c3.23,5.63,8.71,11.55,15.25,12.56a12.73,12.73,0,0,0,5-.21,4,4,0,0,0,3.22-3.58c.32-2.87-2-6.19-5.64-5.29a3.62,3.62,0,0,1-1,.09c-2.79-.11-5.51-3.37-7-5.3a33,33,0,0,1-2.23-3.39c-.3-.5-.4-.58-.43-.57a6.15,6.15,0,0,0-.18-.9,20.77,20.77,0,0,1-.63-4.29c-.25-5.6.83-11.81-.77-17.26a12.26,12.26,0,0,0-5-6.81,14,14,0,0,0-7.14-2.33c-3.37-.17-4.78,2.79-4.28,5.39a4.76,4.76,0,0,0,1.3,2.51,4.26,4.26,0,0,0,2,1.15,6,6,0,0,0,1,.14c5.65.28,3.75,10.12,3.76,13.84A36.34,36.34,0,0,0,969.67,132l.06.22A18.11,18.11,0,0,0,971.32,135.89Z"/><path class="cls-30" d="M831,65.51l-.27.09a3.46,3.46,0,0,1-.67,1.14c-.08,1.72-1.46,3.4-3.57,2.73s-2.71,4.53-3.17,5.84a23.8,23.8,0,0,1-3.44,6.32,73.12,73.12,0,0,1-10.51,11c-6.82,6-14.86,10.81-24.08,11.55-3.26.26-7.81.27-10.38-2.2a49,49,0,0,1-18.26-5.4,1.15,1.15,0,0,1-1.23.28c.76,2.08,1.66,4.38,2.28,6.69a8.35,8.35,0,0,1,1,2.17,7.55,7.55,0,0,1,.25,2.12c.19.36.37.73.53,1.11a11,11,0,0,1-.86,10.27q-.12.47-.27.9a11.09,11.09,0,0,1,6,7,266.16,266.16,0,0,1,7.46,47.64q.45,6.18.89,12.36a111.08,111.08,0,0,0,28.75-15.74A93.51,93.51,0,0,0,833.71,68.65c-.37-1.19-.77-2.38-1.18-3.56A3.35,3.35,0,0,1,831,65.51Z"/><path class="cls-30" d="M689.5,178a82,82,0,0,0,8.08,5l0-.18c.68-4.11,1.36-8.21,2-12.33.15-1,.3-2,.44-2.94,0,0,.23-1.67.3-2.13.24-1.85.45-3.69.65-5.54.21-2,.39-4.07.52-6.11a3.52,3.52,0,0,1-3-.26c-3.26-1.81-3.4-7.89-3.13-11.62a3.44,3.44,0,0,1-1.49-4,6.72,6.72,0,0,0-.75-5.69c-1-1.58-2-2.79-1.5-4.81a5.54,5.54,0,0,1,2-2.92,7.8,7.8,0,0,1-4.18-7c0,.81-.29-.54-.58-1-.48-.78-1-1.54-1.49-2.3a43.5,43.5,0,0,0-3.53-4.37c-3.74-4.1-6.33-9.08-3.06-14.43a7.57,7.57,0,0,1,.49-.72c1-4.82,4.52-8.62,7.56-12.53,2.76-3.55,5.24-7.15,7.67-10.94s5.07-8,8.56-11a8.38,8.38,0,0,1,8.8-1.66c-.12-.33-.22-.67-.31-1a9.73,9.73,0,0,1-5-6.08,21,21,0,0,1-.84-7,13.71,13.71,0,0,1,.48-5.2c.09-.6.19-1.2.3-1.79-2.7.88-5.26-.82-6.32-3.48A17,17,0,0,1,701,27.61c-2.6-3.63-.83-8.58,3.36-10.75a9.51,9.51,0,0,1,7-.61A13.67,13.67,0,0,1,715,18c.58.38,1.22,1.06,1.88,1.52a44.24,44.24,0,0,1,6.1-1.67,26.76,26.76,0,0,1,8.61.26,25.09,25.09,0,0,1,7.12,2.52c2.86,1.56,3.6,3.3,4.37,6.15,0,.1.19.4.42.92.32.71.6,1.43.85,2.17a19.51,19.51,0,0,1,.68,4.37A30.06,30.06,0,0,1,744.6,40l0,.19a6.28,6.28,0,0,1-1,5.14,7.2,7.2,0,0,1-.35.85c-.13.29-.26.58-.41.85l0-.06a6.24,6.24,0,0,1-2.94,2.38,3.92,3.92,0,0,1-2.5.21,18.89,18.89,0,0,1-2.46,4,4.54,4.54,0,0,1,.09.51,13.7,13.7,0,0,1,6.82-2.43,36,36,0,0,1,13.91.78c5.73,1.71,9.62,5.52,13.18,9.78.95.85,1.9,1.7,2.89,2.51,3.54,2.91,6.48,5.7,8.53,9.49a1.41,1.41,0,0,1,.54.25c7.25-9.11,18.27-15.44,28.33-20.81a2.82,2.82,0,0,1,1.55-.35,3.87,3.87,0,0,1,4.3-1,3,3,0,0,1,1.5-2.47,15.14,15.14,0,0,1,5.12-7C805.23,17.81,778.46,1,747.77.44c-42.59-.79-82.74,24-96.16,64.86C638,106.93,654,152.81,689.5,178Z"/><path class="cls-30" d="M811.09,59.34l-.16.08h.21A.41.41,0,0,1,811.09,59.34Z"/><path class="cls-30" d="M738.55,190.84l0-.14c-1.32-8.35-3.9-16.36-5.95-24.48l-1.37,0q-1,9-2.13,18-.52,4.24-1.07,8.51a89.63,89.63,0,0,0,10.75.62q-.07-1.09-.18-2.19C738.56,191,738.55,190.92,738.55,190.84Z"/><path class="cls-31" d="M816.49,49.92a3.36,3.36,0,0,1,4.79,1.1,16.38,16.38,0,0,1,5.81-5.43,3.82,3.82,0,0,1,.32-.64c.87-1.33,2.51-1.56,3.93-1.94l5.3-1.42a.76.76,0,0,1,.45,0c.83-3-3-6.11-5.51-3.36-1.32,1.44-3.19,1.68-5,2.25a16.32,16.32,0,0,0-4.86,2.35l-.14.11A15.14,15.14,0,0,0,816.49,49.92Z"/><path class="cls-31" d="M837.09,43.21l-5.41,1.44c-1.11.3-2.64.4-3.08,1.66-.65,1.92-.06,4.47-2.36,5.37a.83.83,0,0,1-1-.58.86.86,0,0,1,.58-1c.65-.26.73-1.37.81-2.05a10,10,0,0,1,.48-2.42A16.38,16.38,0,0,0,821.28,51a4.56,4.56,0,0,1,.28.71A10.57,10.57,0,0,0,825,57c.12-.15.23-.31.36-.45,1-5.41,5.52-8.93,10.9-9.85,3.5-.6,7.06-.22,10.56-.71a19.12,19.12,0,0,0,8.49-3.51,69.38,69.38,0,0,0-7.67,1.66,1,1,0,0,1-.8.22h-.09a.74.74,0,0,1-.59-.06h-.54l-.65,0c-.15,0-.29,0-.52.09a7.3,7.3,0,0,0-2.36.89A.85.85,0,0,1,841,45a.86.86,0,0,1,.3-1.15,9.27,9.27,0,0,1,5.37-1.2,72.23,72.23,0,0,1,11.74-2.27.67.67,0,0,1,.54.21,3.71,3.71,0,0,0-5-2.65C849.13,40,843.19,40.75,837.55,42A.81.81,0,0,1,837.09,43.21Z"/><path class="cls-31" d="M858.39,42c-1,.11-2,.25-3,.4a19.12,19.12,0,0,1-8.49,3.51c-3.5.49-7.06.11-10.56.71-5.38.92-9.9,4.44-10.9,9.85,2.77-3.19,6.48-4.74,10.69-5.54,2.54-.48,5.1-.88,7.66-1.26a.76.76,0,0,1,.31-.27,30.57,30.57,0,0,1,14.35-3c1.08,0,1.08,1.72,0,1.68-.86,0-1.72,0-2.59,0a3.42,3.42,0,0,1,1.73.86c.59-.37,1.17-.76,1.74-1.18a3.74,3.74,0,0,0-.3-6.08A1,1,0,0,1,858.39,42Z"/><path class="cls-31" d="M844.89,50.88a.87.87,0,0,1-1.15-1.18c-2.56.38-5.12.78-7.66,1.26-4.21.8-7.92,2.35-10.69,5.54-.13.14-.24.3-.36.45a9.22,9.22,0,0,0,4.59,2,31.67,31.67,0,0,1,20.49-6.3,3.25,3.25,0,0,1,2,.8c.65,0,1.3,0,1.94,0a.87.87,0,0,1,.65,1.37l1.67-.25c3-.46,3-3.91,1.13-5.6a3.42,3.42,0,0,0-1.73-.86A28.81,28.81,0,0,0,844.89,50.88Z"/><path class="cls-31" d="M843,56.08c-1.05.21-1.49-1.41-.45-1.63a50.32,50.32,0,0,1,9.63-1,3.25,3.25,0,0,0-2-.8A31.67,31.67,0,0,0,829.62,59h0c1.78.22,3.36,1.36,3.34,3.36a3.71,3.71,0,0,1-2,3.15,3.35,3.35,0,0,0,1.56-.42,4.12,4.12,0,0,0,.54-.35,24.93,24.93,0,0,1,17-5.32c2.59.13,3.61-2.27,3.07-4.24A47.89,47.89,0,0,0,843,56.08Z"/><path class="cls-31" d="M816.59,53.94a12,12,0,0,0,10.77,6.38c3.08,0,4.19,3,3.34,5.28l.27-.09a3.71,3.71,0,0,0,2-3.15c0-2-1.56-3.14-3.34-3.36h0A9.22,9.22,0,0,1,825,57a10.57,10.57,0,0,1-3.47-5.22,4.56,4.56,0,0,0-.28-.71,3.36,3.36,0,0,0-4.79-1.1,3,3,0,0,0-1.5,2.47A3.55,3.55,0,0,1,816.59,53.94Z"/><path class="cls-32" d="M774.11,101.12A7.49,7.49,0,0,1,772.92,98a4.7,4.7,0,0,1-2-.42c-3.62,1.28-7.09-.51-9.88-3.23a215,215,0,0,1-17.15-19,7,7,0,0,1-1.65-4.64c-.83,1.06-1.71,2.31-2.69,3.45a5.23,5.23,0,0,1,1.39,2.09,4.6,4.6,0,0,1,4.63,3.91c.18.85.35,1.7.52,2.55l0,.06a4.51,4.51,0,0,1,.53.1c2.48.68,3.72,2.84,4,5.27l.12,1.11a43.35,43.35,0,0,0,5.88,5.61,1.27,1.27,0,0,1,0,1.79h0a49,49,0,0,0,18.26,5.4A6,6,0,0,1,774.11,101.12Z"/><path class="cls-32" d="M778.16,74.18a14.91,14.91,0,0,1,1.89,0,1.42,1.42,0,0,1,.22,0c-2-3.79-5-6.58-8.53-9.49-1-.81-1.94-1.66-2.89-2.51,2.59,3.09,5,6.41,7.82,9.34A5.81,5.81,0,0,1,778.16,74.18Z"/><path class="cls-32" d="M778.79,77.31l.41-.61c-.33,0-.66,0-1,0,0,.15-.07.3-.12.45Q778.45,77.22,778.79,77.31Z"/><path class="cls-32" d="M767.08,83.37a1.29,1.29,0,0,1-.48-.06l.36.37Z"/><path class="cls-32" d="M752.13,67c2.93,3.63,6,7.19,9.08,10.64,1.47,1.61,3,3.2,4.49,4.77a1.16,1.16,0,0,1,.16-.88,14.47,14.47,0,0,1,1.79-2.39c-4-4.43-7-10.12-11.84-13.59a13.55,13.55,0,0,0-8.11-2.29h-.13a7.45,7.45,0,0,1-.92,2.23A5.32,5.32,0,0,1,752.13,67Z"/><path class="cls-32" d="M752.13,67a5.32,5.32,0,0,0-5.48-1.51,7.86,7.86,0,0,1-1.69,2,6.28,6.28,0,0,1-1.33,1.68,12.48,12.48,0,0,0-1.41,1.57,7,7,0,0,0,1.65,4.64,215,215,0,0,0,17.15,19c2.79,2.72,6.26,4.51,9.88,3.23a4.7,4.7,0,0,0,2,.42,23.36,23.36,0,0,1,.59-8.18,35.08,35.08,0,0,1,5.28-12.51q-.35-.09-.69-.15c-1,3.45-5.2,6-8.63,3.68A12.1,12.1,0,0,0,768,82.78a1.15,1.15,0,0,1-.94.59l-.12.31-.36-.37a1.34,1.34,0,0,1-.9-.92c-1.51-1.57-3-3.16-4.49-4.77C758.08,74.17,755.06,70.61,752.13,67Z"/><path class="cls-32" d="M739.86,53.43c4.29-.28,7.92,3.88,7.92,8a7.69,7.69,0,0,1-.21,1.82h.13a13.55,13.55,0,0,1,8.11,2.29c4.84,3.47,7.87,9.16,11.84,13.59a15.28,15.28,0,0,1,10.51-4.94,5.81,5.81,0,0,0-1.49-2.56c-2.81-2.93-5.23-6.25-7.82-9.34-3.56-4.26-7.45-8.07-13.18-9.78a36,36,0,0,0-13.91-.78,13.7,13.7,0,0,0-6.82,2.43c0,.11,0,.22,0,.32A16.53,16.53,0,0,1,739.86,53.43Z"/><path class="cls-32" d="M778.1,77.16c0-.15.08-.3.12-.45a12.76,12.76,0,0,0-8.75,4.13C772.9,83.13,777.06,80.61,778.1,77.16Z"/><path class="cls-32" d="M812.08,58.81l-1,.53a.41.41,0,0,0,0,.09,17.26,17.26,0,0,1,10.08,3.67,6.65,6.65,0,0,1,1.43,1.37,6.3,6.3,0,0,1,5.36-.68,2.82,2.82,0,0,1,2,2.95,3.46,3.46,0,0,0,.67-1.14c.85-2.23-.26-5.3-3.34-5.28a12,12,0,0,1-10.77-6.38,3.55,3.55,0,0,0-1.6-1.55,3.87,3.87,0,0,0-4.3,1C813.25,53.52,814.87,57.32,812.08,58.81Z"/><path class="cls-32" d="M781.3,75.49a1.27,1.27,0,0,1-1.25,1.26c-.28,0-.57,0-.85,0l-.41.61a35.08,35.08,0,0,0-5.28,12.51,23.36,23.36,0,0,0-.59,8.18,7.49,7.49,0,0,0,1.19,3.12,6,6,0,0,0,.77.89c2.57,2.47,7.12,2.46,10.38,2.2,9.22-.74,17.26-5.53,24.08-11.55a73.12,73.12,0,0,0,10.51-11,23.8,23.8,0,0,0,3.44-6.32c.46-1.31,1.06-6.52,3.17-5.84s3.49-1,3.57-2.73a2.82,2.82,0,0,0-2-2.95,6.3,6.3,0,0,0-5.36.68,5.3,5.3,0,0,1,.5,6.1,5.81,5.81,0,0,1-3.91,2.66c.22,3.41-2.32,6.65-4.56,9.2a6.4,6.4,0,0,1-.65.73l-.25.3a50.34,50.34,0,0,1-9.36,8,72.82,72.82,0,0,1-8.55,5,37.28,37.28,0,0,1-13.17,5.79,5.39,5.39,0,0,1-5.25-1.52,5.9,5.9,0,0,1-1.38-.6c-5.33-3.14-2.63-9-.51-13.24a55.64,55.64,0,0,1,18.13-20.6A41.07,41.07,0,0,1,806.47,60a18.46,18.46,0,0,1,4.46-.58l.16-.08,1-.53c2.79-1.49,1.17-5.29-1.39-5.44a2.82,2.82,0,0,0-1.55.35c-10.06,5.37-21.08,11.7-28.33,20.81A1.17,1.17,0,0,1,781.3,75.49Z"/><path class="cls-32" d="M821.22,63.1a17.26,17.26,0,0,0-10.08-3.67h-.21a18.46,18.46,0,0,0-4.46.58,41.07,41.07,0,0,0-12.78,6.25,55.64,55.64,0,0,0-18.13,20.6c-2.12,4.23-4.82,10.1.51,13.24a5.9,5.9,0,0,0,1.38.6,5.39,5.39,0,0,0,5.25,1.52,37.28,37.28,0,0,0,13.17-5.79,72.82,72.82,0,0,0,8.55-5,50.34,50.34,0,0,0,9.36-8l.25-.3a6.4,6.4,0,0,0,.65-.73c2.24-2.55,4.78-5.79,4.56-9.2a5.81,5.81,0,0,0,3.91-2.66,5.3,5.3,0,0,0-.5-6.1A6.65,6.65,0,0,0,821.22,63.1Z"/><path class="cls-32" d="M707,92.22c-.1.56-.19,1.12-.28,1.68.63-2.62,1.27-5.23,1.9-7.85.53-2.15.89-4.67,1.48-7.06-1.93,2.92-3.75,6-5.77,8.86A8.21,8.21,0,0,1,706,90.7,1.34,1.34,0,0,1,707,92.22Z"/><path class="cls-32" d="M752.49,94.61a4.74,4.74,0,0,1,.11,1.21c0,1.2-.07,2.41-.1,3.62a5.06,5.06,0,0,1-.06.69,7.86,7.86,0,0,1,5.23,3.45c-.62-2.31-1.52-4.61-2.28-6.69a1.74,1.74,0,0,1-.54-.28C754,96,753.26,95.3,752.49,94.61Z"/><path class="cls-32" d="M750.62,88.1c-.26-2.43-1.5-4.59-4-5.27a4.51,4.51,0,0,0-.53-.1,42.39,42.39,0,0,0,4.63,6.48Z"/><path class="cls-32" d="M706.71,93.9l-.27,1.58a2.26,2.26,0,0,0,0,.26c0,.17.09,1.27.11,1.61l0,.26q.12.72.27,1.44c.16.72.33,1.43.53,2.14,0,.1,0,.21.07.32a9.15,9.15,0,0,1,2.41-.51c6.74-.52,13.5-.8,20.26-.78,6.08,0,12.75,1.18,18.73,0a9.33,9.33,0,0,1,3.57,0,5.06,5.06,0,0,0,.06-.69c0-1.21.07-2.42.1-3.62a4.74,4.74,0,0,0-.11-1.21,43.93,43.93,0,0,1-10.08-13.48c-.7-1.46,1.46-2.73,2.16-1.28.46,1,1,1.9,1.5,2.82-.17-.85-.34-1.7-.52-2.55a4.6,4.6,0,0,0-4.63-3.91,5.23,5.23,0,0,0-1.39-2.09A13.61,13.61,0,0,1,737.61,76c-2.91,2.25-6.32,3-9.93,3.35l-.36,0a8.24,8.24,0,0,1-3.19.76,23.66,23.66,0,0,1-8.12-1.3,24.93,24.93,0,0,1-4.8-1.48c-.38.54-.75,1.08-1.12,1.64-.59,2.39-1,4.91-1.48,7.06C708,88.67,707.34,91.28,706.71,93.9Z"/><path class="cls-32" d="M690.62,92.32a8.12,8.12,0,0,1,7.86-7.13,7.41,7.41,0,0,1,5.84,2.66c2-2.84,3.84-5.94,5.77-8.86.37-.56.74-1.1,1.12-1.64A21.51,21.51,0,0,1,708,75.61a8.2,8.2,0,0,1-3.85-6.93,7.93,7.93,0,0,1,1.84-8,8.18,8.18,0,0,1,7.94-2l0-.12a8.38,8.38,0,0,0-8.8,1.66c-3.49,3-6.08,7.12-8.56,11s-4.91,7.39-7.67,10.94c-3,3.91-6.59,7.71-7.56,12.53A7.53,7.53,0,0,1,690.62,92.32Z"/><path class="cls-32" d="M706.87,99.05q-.15-.72-.27-1.44l0-.26c0-.34-.11-1.44-.11-1.61a2.26,2.26,0,0,1,0-.26c-.41,2.4-.81,4.79-1.21,7.19a8.5,8.5,0,0,1,2.24-1.16c0-.11-.05-.22-.07-.32C707.2,100.48,707,99.77,706.87,99.05Z"/><path class="cls-32" d="M694.82,93.75q4.33,1.86,8.82,3.31l.93-5.51A1,1,0,0,1,706,90.7a8.21,8.21,0,0,0-1.67-2.85,7.41,7.41,0,0,0-5.84-2.66,8.12,8.12,0,0,0-7.86,7.13A9.22,9.22,0,0,1,693.24,94,1.31,1.31,0,0,1,694.82,93.75Z"/><path class="cls-32" d="M702.15,105.87c.36-2.09.71-4.19,1.07-6.29-2.76-.89-5.47-1.91-8.15-3a6.65,6.65,0,0,1,.61,2.67c.39.44.79.88,1.17,1.34,1.36,1.65,2.67,3.35,3.89,5.1.4.56.79,1.14,1.17,1.72Z"/><path class="cls-32" d="M700.9,118.65a3.82,3.82,0,0,1,2.85-.86c-2.62-2.85-2.4-6.77-1.84-10.4-.38-.58-.77-1.16-1.17-1.72-1.22-1.75-2.53-3.45-3.89-5.1-.38-.46-.78-.9-1.17-1.34a6.65,6.65,0,0,0-.61-2.67l-1.51-.64a1.28,1.28,0,0,1-.46-1.72,1.14,1.14,0,0,1,.14-.16,9.22,9.22,0,0,0-2.62-1.72,7.74,7.74,0,0,0-9.84,3.06c-3.27,5.35-.68,10.33,3.06,14.43a43.5,43.5,0,0,1,3.53,4.37c.51.76,1,1.52,1.49,2.3.29.47.54,1.82.58,1a7.8,7.8,0,0,0,4.18,7c.5-.42,1-.82,1.53-1.22Z"/><path class="cls-32" d="M752.44,100.13a9.33,9.33,0,0,0-3.57,0c-6,1.23-12.65.06-18.73,0-6.76,0-13.52.26-20.26.78a9.15,9.15,0,0,0-2.41.51,8.5,8.5,0,0,0-2.24,1.16l-.45,2.63c-.43,2.57-1.25,5.81-.47,8.47a8.33,8.33,0,0,1,4.59-4.62,7.47,7.47,0,0,1,9.08.51h.35c1.41,0,2.81-.13,4.21-.25,3.08-.26,6.16-.61,9.23-.94s6.15-.64,9.23-.81c1.23-.07,2.45-.11,3.68-.14a8.69,8.69,0,0,1,5-4.12c4.07-1.13,7.4,1.09,9.22,4.47a7.55,7.55,0,0,0-.25-2.12,8.35,8.35,0,0,0-1-2.17A7.86,7.86,0,0,0,752.44,100.13Z"/><path class="cls-33" d="M703.85,116.56a6.69,6.69,0,0,1,.46-2.79c-.78-2.66,0-5.9.47-8.47l.45-2.63c.4-2.4.8-4.79,1.21-7.19l.27-1.58c.09-.56.18-1.12.28-1.68a1.34,1.34,0,0,0-1-1.52,1,1,0,0,0-1.42.85l-.93,5.51.27.09a1.28,1.28,0,0,1,.87,1.55,1.26,1.26,0,0,1-1.54.88h0c-.36,2.1-.71,4.2-1.07,6.29l-.24,1.52c-.56,3.63-.78,7.55,1.84,10.4a.83.83,0,0,1,.22,0Q703.88,117.19,703.85,116.56Z"/><path class="cls-33" d="M756.62,94.82a43.35,43.35,0,0,1-5.88-5.61,42.39,42.39,0,0,1-4.63-6.48l0-.06c-.53-.92-1-1.85-1.5-2.82-.7-1.45-2.86-.18-2.16,1.28a43.93,43.93,0,0,0,10.08,13.48c.77.69,1.55,1.36,2.36,2a1.74,1.74,0,0,0,.54.28,1.15,1.15,0,0,0,1.23-.28h0A1.27,1.27,0,0,0,756.62,94.82Z"/><path class="cls-33" d="M703.22,99.58h0a1.26,1.26,0,0,0,1.54-.88,1.28,1.28,0,0,0-.87-1.55l-.27-.09q-4.49-1.45-8.82-3.31a1.31,1.31,0,0,0-1.58.29,1.14,1.14,0,0,0-.14.16,1.28,1.28,0,0,0,.46,1.72l1.51.64C697.75,97.67,700.46,98.69,703.22,99.58Z"/><path class="cls-31" d="M713.5,54.18a.27.27,0,0,0-.08-.07,2.51,2.51,0,0,1-.51-2.76,2.7,2.7,0,0,1,.47-.72,2.65,2.65,0,0,1,2.52-1,8.11,8.11,0,0,1,5.36-2.11,6.32,6.32,0,0,1,2,.28,10.36,10.36,0,0,1,1.91-.28,6.25,6.25,0,0,1,1,.07,8.23,8.23,0,0,1,1.13-.08,7.31,7.31,0,0,1,7.46,6.14,18.89,18.89,0,0,0,2.46-4A5.13,5.13,0,0,1,734,46.31c-4.92-.23-5.05-7.67-.42-8.32l-.08-.18c-.28-.75-.71-2.87-.82-3a29.92,29.92,0,0,0-3.49-.87,24.39,24.39,0,0,0-3.78-.61A27.33,27.33,0,0,0,709.51,37a5.52,5.52,0,0,1-1,.46c-.11.59-.21,1.19-.3,1.79a13.71,13.71,0,0,0-.48,5.2,21,21,0,0,0,.84,7,9.73,9.73,0,0,0,5,6.08,7.4,7.4,0,0,1-.21-2A10.83,10.83,0,0,1,713.5,54.18Zm-.89-13.77a.84.84,0,0,1,1.61.45,12.76,12.76,0,0,0-.49,2.58,5,5,0,0,0,.08,1.17,3.8,3.8,0,0,0,.16.55s0,.12.06.14l.12.21.09.13.13.15a3.28,3.28,0,0,0,.34.31l.12.08.17.11.22.1c.06,0,0,0,0,0l.11,0c.12,0,.25.07.38.09H716c-.18,0,.05,0,.08,0l.18,0,.11-.06.2-.13a.84.84,0,0,1,1.14.3.86.86,0,0,1-.3,1.15c-1.52,1.13-3.59.21-4.6-1.16C711.56,44.78,712.11,42.35,712.61,40.41Z"/><path class="cls-34" d="M709.51,37a27.33,27.33,0,0,1,15.86-3.61,24.39,24.39,0,0,1,3.78.61,29.92,29.92,0,0,1,3.49.87c.11.11.54,2.23.82,3l.08.18a4.48,4.48,0,0,1,.65-.06c5.37,0,5.37,8.41,0,8.41a1.81,1.81,0,0,1-.23,0,5.13,5.13,0,0,0,3.35,3.29,3.92,3.92,0,0,0,2.5-.21A6.24,6.24,0,0,0,742.75,47l0,.06c.15-.27.28-.56.41-.85a7.2,7.2,0,0,0,.35-.85,6.28,6.28,0,0,0,1-5.14l0-.19a30.06,30.06,0,0,0,.47-5.76,19.51,19.51,0,0,0-.68-4.37c-.25-.74-.53-1.46-.85-2.17-.23-.52-.37-.82-.42-.92-.77-2.85-1.51-4.59-4.37-6.15a25.09,25.09,0,0,0-7.12-2.52,26.76,26.76,0,0,0-8.61-.26,44.24,44.24,0,0,0-6.1,1.67c-.66-.46-1.3-1.14-1.88-1.52a13.67,13.67,0,0,0-3.71-1.79,9.51,9.51,0,0,0-7,.61c-4.19,2.17-6,7.12-3.36,10.75a17,17,0,0,0,1.17,6.33c1.06,2.66,3.62,4.36,6.32,3.48A5.52,5.52,0,0,0,709.51,37Z"/><path class="cls-31" d="M717.17,60.69c.4.5.84,1,1.29,1.43a13,13,0,0,0,4.28-.09c-5-3.76-3.78-13.54,3.52-14.45a6.25,6.25,0,0,0-1-.07,10.36,10.36,0,0,0-1.91.28,6.32,6.32,0,0,0-2-.28,8.11,8.11,0,0,0-5.36,2.11l.21,0h.34c.13,0,.62-.23.08,0h0A2.52,2.52,0,0,1,719,54l-.26.11a2.46,2.46,0,0,1-1.42,1.05,5,5,0,0,1-2.12,0,4.57,4.57,0,0,1-1.72-1,10.83,10.83,0,0,0-.16,1.32,7.4,7.4,0,0,0,.21,2c.09.35.19.69.31,1l0,.12A6.37,6.37,0,0,1,717.17,60.69Z"/><path class="cls-31" d="M727.39,47.5a8.23,8.23,0,0,0-1.13.08c-7.3.91-8.48,10.69-3.52,14.45a6.58,6.58,0,0,0,2.6-1.14c3.35-2.56,6-5,9.64-6.42,0-.1,0-.21,0-.32a4.54,4.54,0,0,0-.09-.51A7.31,7.31,0,0,0,727.39,47.5Z"/><path class="cls-31" d="M734.19,37.93a4.48,4.48,0,0,0-.65.06c-4.63.65-4.5,8.09.42,8.32a1.81,1.81,0,0,0,.23,0C739.56,46.34,739.56,37.93,734.19,37.93Z"/><path class="cls-32" d="M716,78.83a23.66,23.66,0,0,0,8.12,1.3,8.24,8.24,0,0,0,3.19-.76A40.17,40.17,0,0,1,716,78.83Z"/><path class="cls-32" d="M704.73,65.63c1.34-3.37,5.72-6,9.34-4.63a19.44,19.44,0,0,0,4.39,1.12c-.45-.46-.89-.93-1.29-1.43a6.37,6.37,0,0,0-3.27-2,8.18,8.18,0,0,0-7.94,2,7.93,7.93,0,0,0-1.84,8A8.37,8.37,0,0,1,704.73,65.63Z"/><path class="cls-32" d="M716,78.83a40.17,40.17,0,0,0,11.31.54l.36,0c3.61-.31,7-1.1,9.93-3.35a13.61,13.61,0,0,0,1.92-1.88c1-1.14,1.86-2.39,2.69-3.45a12.48,12.48,0,0,1,1.41-1.57A6.28,6.28,0,0,0,745,67.42a7.86,7.86,0,0,0,1.69-2,7.45,7.45,0,0,0,.92-2.23,7.69,7.69,0,0,0,.21-1.82c0-4.11-3.63-8.27-7.92-8a16.53,16.53,0,0,0-4.88,1c-3.6,1.37-6.29,3.86-9.64,6.42a6.58,6.58,0,0,1-2.6,1.14,13,13,0,0,1-4.28.09A19.44,19.44,0,0,1,714.07,61c-3.62-1.42-8,1.26-9.34,4.63a8.37,8.37,0,0,0-.61,3.05A8.2,8.2,0,0,0,708,75.61a21.51,21.51,0,0,0,3.24,1.74A24.93,24.93,0,0,0,716,78.83Z"/><path class="cls-31" d="M698.51,121.89c2.21-3.3,7-1.33,7.11,1.73a6.44,6.44,0,0,1,.61-.24,12,12,0,0,1-2.26-5.56.83.83,0,0,0-.22,0,3.82,3.82,0,0,0-2.85.86l-5.75,4.61c-.5.4-1,.8-1.53,1.22a5.54,5.54,0,0,0-2,2.92c-.47,2,.53,3.23,1.5,4.81a6.72,6.72,0,0,1,.75,5.69,3.44,3.44,0,0,0,1.49,4c0-.4.06-.78.1-1.12C696.13,134,694.46,127.94,698.51,121.89Z"/><path class="cls-35" d="M717.45,47.71a.86.86,0,0,0,.3-1.15.84.84,0,0,0-1.14-.3l-.2.13-.11.06-.18,0s-.26,0-.08,0h-.34c-.13,0-.26-.06-.38-.09l-.11,0c.06,0,.07,0,0,0l-.22-.1-.17-.11-.12-.08a3.28,3.28,0,0,1-.34-.31l-.13-.15-.09-.13L714,45.3s0-.13-.06-.14a3.8,3.8,0,0,1-.16-.55,5,5,0,0,1-.08-1.17,12.76,12.76,0,0,1,.49-2.58.84.84,0,0,0-1.61-.45c-.5,1.94-1.05,4.37.24,6.14C713.86,47.92,715.93,48.84,717.45,47.71Z"/><path class="cls-32" d="M749.65,103.4a8.69,8.69,0,0,0-5,4.12c-1.23,0-2.45.07-3.68.14-3.08.17-6.16.48-9.23.81s-6.15.68-9.23.94c-1.4.12-2.8.21-4.21.25H718a7.47,7.47,0,0,0-9.08-.51,7.57,7.57,0,0,1,9.3,2.89c.39-.05.79-.08,1.18-.14,1.42-.15,2.84-.26,4.27-.3,2.9-.07,5.79.11,8.68.22,4.86.2,10.14.68,14.57-1.51,3.86-1.9,8.55-1.09,10.85,2.87a8.48,8.48,0,0,1,.79,6.07A11,11,0,0,0,759.4,109c-.16-.38-.34-.75-.53-1.11C757.05,104.49,753.72,102.27,749.65,103.4Z"/><path class="cls-32" d="M757.75,113.18c-2.3-4-7-4.77-10.85-2.87-4.43,2.19-9.71,1.71-14.57,1.51-2.89-.11-5.78-.29-8.68-.22-1.43,0-2.85.15-4.27.3-.39.06-.79.09-1.18.14a7.57,7.57,0,0,0-9.3-2.89,8.33,8.33,0,0,0-4.59,4.62,6.69,6.69,0,0,0-.46,2.79q0,.63.12,1.26a12,12,0,0,0,2.26,5.56,11,11,0,0,1,5.23-.45,93.68,93.68,0,0,0,37-2.32,12.09,12.09,0,0,1,2.42-1.1,9.88,9.88,0,0,1,7.39.64q.15-.44.27-.9A8.48,8.48,0,0,0,757.75,113.18Z"/><path class="cls-36" d="M713.38,50.63a2.7,2.7,0,0,0-.47.72,2.51,2.51,0,0,0,.51,2.76.27.27,0,0,1,.08.07,4.57,4.57,0,0,0,1.72,1,5,5,0,0,0,2.12,0,2.46,2.46,0,0,0,1.42-1.05L719,54a2.52,2.52,0,0,0-2.48-4.38h0c.54-.24.05-.05-.08,0h-.34l-.21,0A2.65,2.65,0,0,0,713.38,50.63Z"/><path class="cls-37" d="M711.46,122.93a11,11,0,0,0-5.23.45,6.44,6.44,0,0,0-.61.24,3.44,3.44,0,0,1-.63,2.09,11,11,0,0,0-1.43,3.06,12.29,12.29,0,0,1,8.8-4.52,9.87,9.87,0,0,1,8.89,5c.31-.16.6-.32.93-.46,5.6-2.44,11.34-1.56,14.84,3.92a7.87,7.87,0,0,1,.47.86,11.85,11.85,0,0,1,4.77-1.23c.31,0,.61,0,.92,0a11,11,0,0,1,5.28-11.72A93.68,93.68,0,0,1,711.46,122.93Z"/><path class="cls-37" d="M772.61,241.15a9.18,9.18,0,0,0,3.59-1.32c5.35-3.48,6.41-9.38,3.89-15l-5.31-11.8c.59,5.57,1.27,10.88,2.13,16.27C777.68,234.16,776.28,238.55,772.61,241.15Z"/><path class="cls-37" d="M737.49,133.54a10.22,10.22,0,0,1,.9,3.28,11.66,11.66,0,0,1,2-.28,9.18,9.18,0,0,1,4,.71c-.35-1.44-.7-2.87-1.07-4.3-.06-.21-.09-.42-.13-.62-.31,0-.61,0-.92,0A11.85,11.85,0,0,0,737.49,133.54Z"/><path class="cls-37" d="M764.22,127.15a11.09,11.09,0,0,0-6-7,9.88,9.88,0,0,0-7.39-.64,12.09,12.09,0,0,0-2.42,1.1,11,11,0,0,0-5.28,11.72c0,.2.07.41.13.62.37,1.43.72,2.86,1.07,4.3a11.62,11.62,0,0,1,6.89,10.23c.05,1.68.14,3.37.34,5,0,0,.21,1.14.29,1.56.13.74.28,1.48.43,2.21.7,3.33,1.58,6.61,2.5,9.88,1.84,6.55,3.78,13.08,4.77,19.83,1.21,8.24.62,14.9,2.95,22.09a66.78,66.78,0,0,1,3,10.31,65.12,65.12,0,0,0,2.09,10.65c1.75,5.26-1.51,10.6-6.11,12.85a9.89,9.89,0,0,0,7.84.88,12.2,12.2,0,0,0,3.27-1.63c3.67-2.6,5.07-7,4.3-11.82-.86-5.39-1.54-10.7-2.13-16.27-.35-3.25-.67-6.59-1-10.09-.46-5.27-.86-10.55-1.24-15.82q-.45-6.18-.89-12.36A266.16,266.16,0,0,0,764.22,127.15Z"/><path class="cls-37" d="M731.2,166.25a24,24,0,0,1-14.24-4.4c-4.93-3.6-6.87-9.3-3.89-14.95,2.55-4.88,10.22-7.3,14.84-3.93.4.3,1.86,1,2.15,1.17a11.3,11.3,0,0,1,8.33-7.32,10.22,10.22,0,0,0-.9-3.28,7.87,7.87,0,0,0-.47-.86c-3.5-5.48-9.24-6.36-14.84-3.92-.33.14-.62.3-.93.46a9.87,9.87,0,0,0-8.89-5,12.29,12.29,0,0,0-8.8,4.52c-1,3.35-.33,6.82-.53,10.56a29.2,29.2,0,0,0-.24,5.44c.1.76.24,1.5.4,2.24,0,.25.22.69.28,1,1.46,2,.21,4.9-2,5.75-.13,2-.31,4.07-.52,6.11-.2,1.85-.41,3.69-.65,5.54-.07.46-.31,2.17-.3,2.13-.14,1-.29,2-.44,2.94-.63,4.12-1.31,8.22-2,12.33l0,.18c-2.74,16.79-5.43,33.84-3.81,50.89.6,6.43,4.52,10.18,10.85,10.94l7.84.93a9.16,9.16,0,0,0,1,.05h.14c5.52-.15,9.25-6,9.67-11,1.17-14.08,2.92-28.11,4.69-42.12q.54-4.26,1.07-8.51Q730.2,175.24,731.2,166.25Z"/><path class="cls-37" d="M730,144.24v0a5.14,5.14,0,0,1-.74-.19Z"/><path class="cls-37" d="M767.61,229.05a65.12,65.12,0,0,1-2.09-10.65,66.78,66.78,0,0,0-3-10.31c-2.33-7.19-1.74-13.85-2.95-22.09-1-6.75-2.93-13.28-4.77-19.83-.92-3.27-1.8-6.55-2.5-9.88-.15-.73-.3-1.47-.43-2.21-.08-.42-.27-1.53-.29-1.56-.2-1.67-.29-3.36-.34-5a11.62,11.62,0,0,0-6.89-10.23,9.18,9.18,0,0,0-4-.71,11.66,11.66,0,0,0-2,.28,11.3,11.3,0,0,0-8.33,7.32c.07.05.08.08,0,.07v0l.61.16h1.06c.12,0,.38-.11.79-.2l.19-.06a14.61,14.61,0,0,0,1.29-.81c5.06-3.37,11.8-.84,14.84,3.92,3.3,5.15.84,11.82-3.89,15a25,25,0,0,1-12.35,4c2,8.12,4.63,16.13,5.95,24.48l0,.14c0,.08,0,.18,0,.31q.1,1.09.18,2.19c0,.29,0,.57.07.86.11,1.87.17,3.74.3,5.61a57.57,57.57,0,0,0,2.17,13c1,3.43,2.47,6.7,3.11,10.24.73,4,1,8,2.29,11.83,1.8,5.42,7.56,9.54,13.34,7.64a11.63,11.63,0,0,0,1.47-.6C766.1,239.65,769.36,234.31,767.61,229.05Z"/><path class="cls-37" d="M713.07,146.9c-3,5.65-1,11.35,3.89,14.95a24,24,0,0,0,14.24,4.4l1.37,0a25,25,0,0,0,12.35-4c4.73-3.15,7.19-9.82,3.89-15-3-4.76-9.78-7.29-14.84-3.92a14.61,14.61,0,0,1-1.29.81l-.19.06c-.41.09-.67.16-.79.2h-1.06l-.61-.16-.73-.22a5.14,5.14,0,0,0,.74.19c.1,0,.09,0,0-.07-.29-.21-1.75-.87-2.15-1.17C723.29,139.6,715.62,142,713.07,146.9Z"/><path class="cls-31" d="M703.47,148c-.06-.34-.23-.78-.28-1-.16-.74-.3-1.48-.4-2.24a29.2,29.2,0,0,1,.24-5.44c.2-3.74-.44-7.21.53-10.56a11,11,0,0,1,1.43-3.06,3.44,3.44,0,0,0,.63-2.09c-.12-3.06-4.9-5-7.11-1.73-4,6-2.38,12.14-3.08,18.9,0,.34-.07.72-.1,1.12-.27,3.73-.13,9.81,3.13,11.62a3.52,3.52,0,0,0,3,.26C703.68,152.94,704.93,150,703.47,148Z"/><path class="cls-33" d="M778.16,74.18a15.28,15.28,0,0,0-10.51,4.94,14.47,14.47,0,0,0-1.79,2.39,1.16,1.16,0,0,0-.16.88,1.34,1.34,0,0,0,.9.92,1.29,1.29,0,0,0,.48.06,1.15,1.15,0,0,0,.94-.59,12.1,12.1,0,0,1,1.45-1.94,12.76,12.76,0,0,1,8.75-4.13c.32,0,.65,0,1,0s.57,0,.85,0a1.27,1.27,0,0,0,1.25-1.26,1.17,1.17,0,0,0-.49-1,2,2,0,0,0-.76-.3A14.91,14.91,0,0,0,778.16,74.18Z"/><path class="cls-35" d="M846.65,42.62l.66.07c.46.06.67.64.59,1a.72.72,0,0,1-.23.36,69.38,69.38,0,0,1,7.67-1.66c1-.15,2-.29,3-.4a1,1,0,0,0,.59-.27.8.8,0,0,0,.25-.57.9.9,0,0,0-.3-.63.67.67,0,0,0-.54-.21A72.23,72.23,0,0,0,846.65,42.62Z"/><path class="cls-35" d="M846.3,44.27h-.11a.74.74,0,0,0,.59.06h.06l-.21,0Z"/><path class="cls-35" d="M844.89,50.88a28.81,28.81,0,0,1,10.92-2.72c.87,0,1.73-.06,2.59,0,1.08,0,1.08-1.65,0-1.68a30.57,30.57,0,0,0-14.35,3,.76.76,0,0,0-.31.27A.87.87,0,0,0,844.89,50.88Z"/><path class="cls-35" d="M854.09,53.5c-.64,0-1.29,0-1.94,0a50.32,50.32,0,0,0-9.63,1c-1,.22-.6,1.84.45,1.63a47.89,47.89,0,0,1,10.21-.9h.91a.72.72,0,0,0,.65-.32A.87.87,0,0,0,854.09,53.5Z"/><path class="cls-35" d="M847.9,43.73c.08-.4-.13-1-.59-1l-.66-.07a9.27,9.27,0,0,0-5.37,1.2A.86.86,0,0,0,841,45a.85.85,0,0,0,1.14.31,7.3,7.3,0,0,1,2.36-.89c.23,0,.37-.07.52-.09l.65,0h.65l.33,0,.21,0h0a1,1,0,0,0,.8-.22A.72.72,0,0,0,847.9,43.73Z"/><path class="cls-35" d="M836.64,41.59,831.34,43c-1.42.38-3.06.61-3.93,1.94a3.82,3.82,0,0,0-.32.64,10,10,0,0,0-.48,2.42c-.08.68-.16,1.79-.81,2.05a.86.86,0,0,0-.58,1,.83.83,0,0,0,1,.58c2.3-.9,1.71-3.45,2.36-5.37.44-1.26,2-1.36,3.08-1.66l5.41-1.44a.81.81,0,0,0,.46-1.23.77.77,0,0,0-.46-.37A.76.76,0,0,0,836.64,41.59Z"/><path class="cls-2" d="M158.87,157.27c-13.5-.08-27,6.13-31.29,18.66-4.42,12.87,1.71,26.7,13,34.58a31.84,31.84,0,0,0,36.54,0c11-7.79,16.28-21.59,12-34.22C184.86,164,172.1,157.34,158.87,157.27Z"/><path class="cls-38" d="M26.84,95.5c6.63,19.82-2.95,41-20.17,53l-1.06.7a43.43,43.43,0,0,0,22.87-7.7c17.23-12,26.8-33.19,20.18-53C42.15,69,21.63,59.18,1,59.26l-1,0V69.74C12.35,74.16,22.59,82.78,26.84,95.5Z"/><path class="cls-38" d="M6.67,148.51c17.22-12,26.8-33.19,20.17-53C22.59,82.78,12.35,74.16,0,69.74V152.3a43.35,43.35,0,0,0,5.61-3.09Z"/><path class="cls-9" d="M846.34,163.26c-7.2,0-14.22,3.69-16.44,10.53s1.3,14,7.14,18.14,13.27,4.59,19,.58c6.09-4.26,9.47-11.8,7.13-18.85S853.64,163.24,846.34,163.26Z"/><path class="cls-23" d="M407.63,8.29c-24.35-.71-47.09,14.81-54.34,38.78-7,23.19,4.71,47.33,24.17,61,17.72,12.47,40.93,10.09,58.15-3.1a51.15,51.15,0,0,0,17.68-55C446.86,27.78,430.1,8.94,407.63,8.29Z"/><path class="cls-23" d="M1402.05,119.21c-13,18.89-10.56,43.63,3.25,62a52.68,52.68,0,0,0,37.7,20.86V92C1426.78,94.69,1411.85,105,1402.05,119.21Z"/><path class="cls-38" d="M378.37,164a13.1,13.1,0,0,0-13.21,6.84c-2.87,5.25-3.25,11.77.72,16a14.07,14.07,0,0,0,16.93,2.85c5.49-3,7.75-9.53,6.7-15.61C388.55,168.51,383.9,164.69,378.37,164Z"/><path class="cls-30" d="M903.77,66.28c8.76,6.21,20.42,4.79,29-1.7A24.25,24.25,0,0,0,941.15,38C938,27.89,929.31,20.46,918.87,20.27c-11-.2-21.44,6.21-24.92,16.81A26.06,26.06,0,0,0,903.77,66.28Z"/><path class="cls-38" d="M1414.87,48.77a10,10,0,0,0,10.85-4.43,10.33,10.33,0,0,0-13.26-14.89c-4,1.9-5.89,6.4-5.33,10.83A9.91,9.91,0,0,0,1414.87,48.77Z"/><path class="cls-2" d="M1165.06,41.6a59.57,59.57,0,0,0-89.41,20.23c-8.18,16.12-10.67,35.56-2,51.42,8.29,15.17,26.12,21.17,43.27,24.06,15.73,2.65,31.46-.18,44.53-9.26,14.28-9.94,27-23.69,27.72-41C1189.92,69.06,1179.44,52.6,1165.06,41.6Z"/><path class="cls-17" d="M54.16,151.27A15.6,15.6,0,0,0,39.84,162c-2.15,6.34-.77,13.57,4.71,17.55s13.26,3.6,19-.36c5.94-4.13,9.67-11.18,7.4-18S61.39,151.09,54.16,151.27Z"/><path class="cls-17" d="M614.33,32.72c-8-3-17.06,0-22.67,6.57-5.83,6.81-8.1,16.35-3.25,23.64s14.65,8.93,23.26,6.37a19.45,19.45,0,0,0,13.82-17.37C626.08,43.73,622.15,35.64,614.33,32.72Z"/><path class="cls-39" d="M1207.53,156.27c-12.88-.08-25.74,5.84-29.84,17.8-4.22,12.28,1.63,25.47,12.41,33a30.41,30.41,0,0,0,34.86,0c10.53-7.44,15.52-20.6,11.39-32.65C1232.33,162.68,1220.16,156.34,1207.53,156.27Z"/><path class="cls-30" d="M148.32,74.24c-4.47-12.91-18-19.9-32.06-20C101.93,54.19,87.61,60.71,83,73.88c-4.69,13.53,1.82,28.06,13.81,36.34a34.1,34.1,0,0,0,38.8,0C147.37,102,152.93,87.51,148.32,74.24Z"/></g></g></svg>