<?xml version="1.0" encoding="utf-8"?>
<!-- Generator: Adobe Illustrator 24.3.0, SVG Export Plug-In . SVG Version: 6.00 Build 0)  -->
<svg version="1.1" id="レイヤー_1" xmlns="http://www.w3.org/2000/svg" xmlns:xlink="http://www.w3.org/1999/xlink" x="0px"
	 y="0px" viewBox="0 0 312.6 302.6" style="enable-background:new 0 0 312.6 302.6;" xml:space="preserve">
<style type="text/css">
	.st0{fill-rule:evenodd;clip-rule:evenodd;fill:#018EFF;}
	.st1{fill-rule:evenodd;clip-rule:evenodd;fill:#BC48E3;}
</style>
<path class="st0" d="M83.4,172.4c24.9,0.5,45.6,18,53.2,41.8c7.3,23.2-0.6,48.4-20,63c-20.4,15.4-48.3,18.7-69.2,4
	c-22-15.4-31.9-43.6-23.4-69.1C32.3,187.1,57.1,171.9,83.4,172.4z"/>
<path class="st1" d="M130,85.8c0.7-15.5,7.3-30.1,16.7-42.3c8.9-11.6,21.5-19.2,35-24.8c13.1-5.4,26.9-7.6,41-6.5
	c14.7,1.2,29.5,4.5,41.4,13.3c12.6,9.2,25,21.4,27.3,36.9c2.2,15.2-10,28-15.9,42.1c-5.1,12.3-7.4,25.9-16.5,35.6
	c-9.7,10.3-22.4,17.2-36.1,20.5c-14.5,3.4-29.9,3.6-43.9-1.6c-14.6-5.5-27.3-15.4-36-28.4C134.1,117.4,129.3,101.6,130,85.8z"/>
</svg>
