<svg width="138" height="769" viewBox="0 0 138 769" fill="none" xmlns="http://www.w3.org/2000/svg">
<path fill-rule="evenodd" clip-rule="evenodd" d="M17.253 222C24.6122 221.971 31.9269 225.473 34.2472 232.396C36.6092 239.443 33.1945 246.989 27.054 251.242C21.2585 255.256 13.6276 254.739 7.87795 250.661C1.98669 246.482 -1.55945 239.361 0.675015 232.53C2.91309 225.688 9.99716 222.029 17.253 222Z" fill="#FF5A9A"/>
<path fill-rule="evenodd" clip-rule="evenodd" d="M113.397 0.00469419C123.919 0.19695 132.681 7.62502 135.858 17.684C138.96 27.5041 135.612 38.1358 127.392 44.315C118.761 50.8038 107.002 52.2275 98.1682 46.0184C88.8849 39.4934 84.6962 27.6031 88.2669 16.8144C91.7734 6.21998 102.266 -0.198698 113.397 0.00469419Z" fill="#1E32B3"/>
<path fill-rule="evenodd" clip-rule="evenodd" d="M122.962 717.802C122.233 735.093 109.416 748.845 95.0084 758.783C81.8374 767.868 65.9735 770.7 50.113 768.05C32.8164 765.16 14.839 759.158 6.47624 743.99C-2.27111 728.126 0.245672 708.69 8.49515 692.569C16.559 676.812 31.2138 665.401 48.7022 661.475C66.1914 657.549 84.4447 661.556 98.6493 672.331C113.156 683.334 123.72 699.801 122.962 717.802Z" fill="#00D18A"/>
<path fill-rule="evenodd" clip-rule="evenodd" d="M118.975 377.792C110.283 380.35 100.378 378.648 95.5169 371.417C90.6195 364.133 92.9093 354.586 98.7968 347.779C104.45 341.244 113.554 338.206 121.65 341.205C129.543 344.129 133.503 352.219 132.904 360.415C132.319 368.412 126.972 375.438 118.975 377.792Z" fill="#018EFF"/>
</svg>
