<svg xmlns="http://www.w3.org/2000/svg" viewBox="0 0 1473 366"><defs><style>.cls-1{fill:none;}.cls-2{fill:#018eff;}.cls-3{fill:#f5aa00;}.cls-4{fill:#00d18a;}.cls-5{fill:#bc48e3;}</style></defs><g id="レイヤー_2" data-name="レイヤー 2"><g id="レイヤー_2-2" data-name="レイヤー 2"><path class="cls-1" d="M1447.56,137c-12.41,2.92-25.5,3.08-37.45-1.41a64.44,64.44,0,0,1-41.8-62.42c.57-13.21,6.2-25.68,14.25-36.13,7.61-9.89,18.37-16.43,29.88-21.16a75.11,75.11,0,0,1,35-5.53c8.8.72,17.59,2.33,25.58,5.79V0H0V125.19a66.34,66.34,0,0,1,27.24-5c25.9.72,45.22,21.47,52.62,45.94a54.93,54.93,0,0,1-20.37,60.59C42,239.51,19.16,243.06,0,234.33V366H1473V124.59A62.46,62.46,0,0,1,1447.56,137Zm-1290,162.09c-11.09,8.19-26,9.66-37.43,1.93-12.52-8.49-20.05-23.47-15.54-37.85,4.66-14.87,19.29-24.5,35-24.06,14.46.4,25.24,12.09,29.38,25.86A31.1,31.1,0,0,1,157.55,299.13Zm1199.3-62.48c-17.43,13.11-41.19,16-59,3.44-18.75-13.18-27.21-37.2-20-59,7.08-21.4,28.28-34.37,50.76-34,21.26.39,39,15.4,45.37,35.71A48.7,48.7,0,0,1,1356.85,236.65Z"/><path class="cls-2" d="M1328.58,147.14c-22.48-.41-43.68,12.56-50.76,34-7.21,21.79,1.25,45.81,20,59,17.84,12.54,41.6,9.67,59-3.44a48.7,48.7,0,0,0,17.1-53.8C1367.54,162.54,1349.84,147.53,1328.58,147.14Z"/><path class="cls-3" d="M59.49,226.69A54.93,54.93,0,0,0,79.86,166.1c-7.4-24.47-26.72-45.22-52.62-45.94a66.34,66.34,0,0,0-27.24,5V234.33C19.16,243.06,42,239.51,59.49,226.69Z"/><path class="cls-4" d="M139.54,239.15c-15.67-.44-30.3,9.19-35,24.06-4.51,14.38,3,29.36,15.54,37.85,11.41,7.73,26.34,6.26,37.43-1.93A31.1,31.1,0,0,0,168.92,265C164.78,251.24,154,239.55,139.54,239.15Z"/><path class="cls-5" d="M1412.44,15.92c-11.51,4.73-22.27,11.27-29.88,21.16-8,10.45-13.68,22.92-14.25,36.13a64.44,64.44,0,0,0,41.8,62.42c12,4.49,25,4.33,37.45,1.41A62.46,62.46,0,0,0,1473,124.59V16.18c-8-3.46-16.78-5.07-25.58-5.79A75.11,75.11,0,0,0,1412.44,15.92Z"/></g></g></svg>