<svg width="1600" height="566" viewBox="0 0 1600 566" fill="none" xmlns="http://www.w3.org/2000/svg">
<path fill-rule="evenodd" clip-rule="evenodd" d="M141.256 69.0021C182.192 69.229 221.669 89.6315 234.706 127.307C248.118 166.064 231.915 208.375 197.761 232.294C163.971 255.957 118.638 255.826 84.7058 232.355C49.7524 208.176 30.79 165.749 44.4632 126.252C57.7703 87.813 99.4882 68.7706 141.256 69.0021Z" fill="#1E32B3"/>
<path fill-rule="evenodd" clip-rule="evenodd" d="M1555.92 352.74C1554.32 390.653 1526.27 420.808 1494.74 442.598C1465.91 462.518 1431.2 468.727 1396.49 462.917C1358.63 456.58 1319.29 443.419 1300.98 410.163C1281.84 375.377 1287.35 332.76 1305.4 297.413C1323.05 262.862 1355.12 237.843 1393.4 229.235C1431.67 220.626 1471.62 229.413 1502.71 253.037C1534.46 277.164 1557.58 313.269 1555.92 352.74Z" fill="#F5AA00"/>
</svg>
