<svg width="24" height="24" viewBox="0 0 24 24" fill="none" xmlns="http://www.w3.org/2000/svg">
<path d="M13.1995 3.59998C12.8813 3.59998 12.576 3.7264 12.351 3.95145C12.1259 4.17649 11.9995 4.48172 11.9995 4.79998C11.9995 5.11824 12.1259 5.42346 12.351 5.6485C12.576 5.87355 12.8813 5.99998 13.1995 5.99998H16.3027L8.75111 13.5516C8.6365 13.6623 8.54508 13.7947 8.48219 13.9411C8.4193 14.0875 8.3862 14.245 8.38481 14.4043C8.38343 14.5636 8.41379 14.7216 8.47413 14.8691C8.53446 15.0166 8.62357 15.1506 8.73624 15.2632C8.84891 15.3759 8.98289 15.465 9.13037 15.5254C9.27784 15.5857 9.43586 15.6161 9.59519 15.6147C9.75453 15.6133 9.91199 15.5802 10.0584 15.5173C10.2048 15.4544 10.3372 15.363 10.4479 15.2484L17.9995 7.69678V10.8C17.9995 11.1182 18.1259 11.4235 18.351 11.6485C18.576 11.8735 18.8813 12 19.1995 12C19.5178 12 19.823 11.8735 20.048 11.6485C20.2731 11.4235 20.3995 11.1182 20.3995 10.8V4.79998C20.3995 4.48172 20.2731 4.17649 20.048 3.95145C19.823 3.7264 19.5178 3.59998 19.1995 3.59998H13.1995Z" fill="white"/>
<path d="M5.99961 6C5.36309 6 4.75264 6.25286 4.30255 6.70294C3.85247 7.15303 3.59961 7.76348 3.59961 8.4V18C3.59961 18.6365 3.85247 19.247 4.30255 19.6971C4.75264 20.1471 5.36309 20.4 5.99961 20.4H15.5996C16.2361 20.4 16.8466 20.1471 17.2967 19.6971C17.7467 19.247 17.9996 18.6365 17.9996 18V14.4C17.9996 14.0817 17.8732 13.7765 17.6481 13.5515C17.4231 13.3264 17.1179 13.2 16.7996 13.2C16.4813 13.2 16.1761 13.3264 15.9511 13.5515C15.726 13.7765 15.5996 14.0817 15.5996 14.4V18H5.99961V8.4H9.59961C9.91787 8.4 10.2231 8.27357 10.4481 8.04853C10.6732 7.82348 10.7996 7.51826 10.7996 7.2C10.7996 6.88174 10.6732 6.57652 10.4481 6.35147C10.2231 6.12643 9.91787 6 9.59961 6H5.99961Z" fill="white"/>
</svg>
