<svg width="40" height="39" viewBox="0 0 40 39" fill="none" xmlns="http://www.w3.org/2000/svg">
<path fill-rule="evenodd" clip-rule="evenodd" d="M0.711922 14.8535C3.1614 6.64616 10.0542 0.219658 18.6278 0.0229073C27.8101 -0.187813 36.5509 5.20794 39.2708 13.9686C41.8941 22.4179 37.1395 31.069 29.8084 36.0344C23.2051 40.5068 14.6289 39.719 8.18129 35.0255C1.76773 30.3567 -1.555 22.4491 0.711922 14.8535ZM22.2416 25.8904L13.3556 20.3576C12.727 19.9662 12.727 19.0512 13.3556 18.6598L22.2416 13.127C22.9077 12.7122 23.7702 13.1912 23.7702 13.9759L23.7702 25.0415C23.7702 25.8262 22.9077 26.3051 22.2416 25.8904Z" fill="white"/>
</svg>
