<svg width="18" height="24" viewBox="0 0 18 24" fill="none" xmlns="http://www.w3.org/2000/svg">
<g clip-path="url(#clip0)">
<path d="M17.3391 4.58984L13.4063 0.657031C12.9844 0.235156 12.4125 -0.00390625 11.8172 -0.00390625H2.25C1.00781 0.00078125 0 1.00859 0 2.25078V21.7508C0 22.993 1.00781 24.0008 2.25 24.0008H15.75C16.9922 24.0008 18 22.993 18 21.7508V6.18359C18 5.58828 17.7609 5.01172 17.3391 4.58984ZM15.5672 6.00078H12V2.43359L15.5672 6.00078ZM2.25 21.7508V2.25078H9.75V7.12578C9.75 7.74922 10.2516 8.25078 10.875 8.25078H15.75V21.7508H2.25ZM13.9781 15.0148C13.4063 14.4523 11.775 14.607 10.9594 14.7102C10.1531 14.218 9.61407 13.5383 9.23438 12.5398C9.41719 11.7852 9.70782 10.6367 9.4875 9.91484C9.29063 8.68672 7.71563 8.80859 7.49063 9.63828C7.28438 10.393 7.47188 11.443 7.81875 12.7836C7.35 13.9039 6.65157 15.4086 6.15938 16.2711C5.22188 16.7539 3.95625 17.4992 3.76875 18.4367C3.61406 19.1773 4.9875 21.0242 7.33594 16.9742C8.38594 16.6273 9.52969 16.2008 10.5422 16.032C11.4281 16.5102 12.4641 16.8289 13.1578 16.8289C14.3531 16.8289 14.4703 15.507 13.9781 15.0148ZM4.69219 18.6617C4.93125 18.0195 5.84063 17.2789 6.11719 17.0211C5.22656 18.4414 4.69219 18.6945 4.69219 18.6617ZM8.51719 9.72734C8.86407 9.72734 8.83125 11.232 8.60157 11.6398C8.39532 10.9883 8.4 9.72734 8.51719 9.72734ZM7.37344 16.1305C7.82813 15.3383 8.21719 14.3961 8.53125 13.5664C8.92032 14.2742 9.41719 14.8414 9.94219 15.2305C8.96719 15.432 8.11875 15.8445 7.37344 16.1305ZM13.5422 15.8961C13.5422 15.8961 13.3078 16.1773 11.7938 15.5305C13.4391 15.4086 13.7109 15.7836 13.5422 15.8961Z" fill="white"/>
</g>
<defs>
<clipPath id="clip0">
<rect width="18" height="24" fill="white"/>
</clipPath>
</defs>
</svg>
