<svg width="233" height="233" viewBox="0 0 233 233" fill="none" xmlns="http://www.w3.org/2000/svg">
<mask id="mask0" mask-type="alpha" maskUnits="userSpaceOnUse" x="0" y="0" width="233" height="233">
<rect width="233" height="233" fill="#C4C4C4"/>
</mask>
<g mask="url(#mask0)">
<path opacity="0.8" fill-rule="evenodd" clip-rule="evenodd" d="M119.4 34.0161C146.959 34.4597 176.536 47.776 186.529 73.3645C198.232 103.329 191.164 138.792 165.283 158.003C138.514 177.874 101.714 175.92 74.7095 156.368C47.721 136.827 33.277 102.115 45.2448 71.0904C55.8539 43.5882 89.8276 33.5401 119.4 34.0161Z" fill="white"/>
</g>
<path d="M91.9258 107H87.2969V93.6523H83.1133V89.8672H96.0977V93.6523H91.9258V107Z" fill="#2373FF"/>
<path d="M104.688 107.234C102.477 107.234 100.758 106.648 99.5312 105.477C98.3125 104.297 97.7031 102.621 97.7031 100.449C97.7031 98.207 98.2695 96.4883 99.4023 95.293C100.535 94.0898 102.152 93.4883 104.254 93.4883C106.254 93.4883 107.797 94.0117 108.883 95.0586C109.977 96.0977 110.523 97.5977 110.523 99.5586V101.598H102.332C102.363 102.34 102.633 102.922 103.141 103.344C103.656 103.766 104.355 103.977 105.238 103.977C106.043 103.977 106.781 103.902 107.453 103.754C108.133 103.598 108.867 103.336 109.656 102.969V106.262C108.938 106.629 108.195 106.883 107.43 107.023C106.664 107.164 105.75 107.234 104.688 107.234ZM104.418 96.6055C103.879 96.6055 103.426 96.7773 103.059 97.1211C102.699 97.457 102.488 97.9883 102.426 98.7148H106.363C106.348 98.0742 106.164 97.5625 105.812 97.1797C105.469 96.7969 105.004 96.6055 104.418 96.6055Z" fill="#2373FF"/>
<path d="M121.773 107L120.895 105.242H120.801C120.184 106.008 119.555 106.531 118.914 106.812C118.273 107.094 117.445 107.234 116.43 107.234C115.18 107.234 114.195 106.859 113.477 106.109C112.758 105.359 112.398 104.305 112.398 102.945C112.398 101.531 112.891 100.48 113.875 99.793C114.859 99.0977 116.285 98.707 118.152 98.6211L120.367 98.5508V98.3633C120.367 97.2695 119.828 96.7227 118.75 96.7227C117.781 96.7227 116.551 97.0508 115.059 97.707L113.734 94.6836C115.281 93.8867 117.234 93.4883 119.594 93.4883C121.297 93.4883 122.613 93.9102 123.543 94.7539C124.48 95.5977 124.949 96.7773 124.949 98.293V107H121.773ZM118.375 104C118.93 104 119.402 103.824 119.793 103.473C120.191 103.121 120.391 102.664 120.391 102.102V101.07L119.336 101.117C117.828 101.172 117.074 101.727 117.074 102.781C117.074 103.594 117.508 104 118.375 104Z" fill="#2373FF"/>
<path d="M144.367 107V99.7812C144.367 98.8828 144.242 98.2109 143.992 97.7656C143.75 97.3125 143.363 97.0859 142.832 97.0859C142.129 97.0859 141.613 97.3867 141.285 97.9883C140.957 98.5898 140.793 99.5312 140.793 100.812V107H136.199V99.7812C136.199 98.8828 136.082 98.2109 135.848 97.7656C135.613 97.3125 135.234 97.0859 134.711 97.0859C133.992 97.0859 133.469 97.4062 133.141 98.0469C132.812 98.6875 132.648 99.7344 132.648 101.188V107H128.066V93.7227H131.523L132.098 95.3633H132.367C132.719 94.7539 133.227 94.2891 133.891 93.9688C134.562 93.6484 135.324 93.4883 136.176 93.4883C138.09 93.4883 139.434 94.0703 140.207 95.2344H140.57C140.945 94.6875 141.465 94.2617 142.129 93.957C142.801 93.6445 143.539 93.4883 144.344 93.4883C145.914 93.4883 147.074 93.8906 147.824 94.6953C148.574 95.5 148.949 96.7227 148.949 98.3633V107H144.367Z" fill="#2373FF"/>
</svg>
