<svg width="233" height="233" viewBox="0 0 233 233" fill="none" xmlns="http://www.w3.org/2000/svg">
<path fill-rule="evenodd" clip-rule="evenodd" d="M112.648 22.0126C154.784 21.4585 197.896 39.1814 211.785 78.8999C226.51 121.008 208.989 167.563 172.59 193.423C137.263 218.521 89.8064 216.085 54.9745 190.306C21.1716 165.288 7.61339 121.152 21.2344 81.4054C34.2453 43.4389 72.4573 22.541 112.648 22.0126Z" fill="#FF5A9A"/>
<g clip-path="url(#clip0_4066_2224)">
<path d="M95.5468 116.953C95.9707 115.776 96.0645 114.505 95.818 113.278C95.5715 112.052 94.9942 110.916 94.1485 109.994C92.6724 108.091 89.5526 106.944 87.5651 108.766L87.2087 109.14C86.7548 109.322 86.3499 109.607 86.0266 109.974C85.3403 110.349 84.7283 110.846 84.2207 111.441C82.8098 113.343 82.6724 115.986 83.0547 118.252C83.4484 119.731 84.3212 121.038 85.5366 121.969C86.1677 122.743 87.0298 123.295 87.997 123.544C90.637 124.785 93.7188 123.856 95.1966 120.244C95.5803 119.192 95.7005 118.062 95.5468 116.953Z" fill="#EFABBF"/>
<path d="M130.903 98.185C126.809 94.4786 122.221 90.6333 116.466 90.2703C112.442 89.6022 108.747 91.4247 105.828 94.0682C101.609 97.6668 97.4052 102.015 96.0269 107.576C95.7131 108.63 95.4551 109.701 95.254 110.783C93.7354 114.078 93.2537 117.756 93.8725 121.331C95.2748 126.631 95.7344 133.307 101.284 136.046C105.696 138.664 110.729 139.862 115.685 140.965C123.02 142.704 131.255 139.859 135.268 133.332C137.349 129.64 138.33 125.381 139.027 121.263C139.901 112.868 137.472 103.785 130.903 98.185ZM115.133 115.69C115.127 115.708 115.124 115.727 115.127 115.747C114.974 115.644 114.833 115.526 114.704 115.395C114.888 115.166 115.087 114.95 115.3 114.748C115.203 115.063 115.146 115.389 115.13 115.718L115.133 115.69Z" fill="#EFABBF"/>
<path d="M140.428 97.8174C140.433 97.786 140.437 97.7543 140.438 97.7225C140.007 96.2668 139.374 94.8788 138.556 93.5993C138.498 93.3735 138.397 93.1608 138.258 92.9729C138.082 92.6518 137.827 92.3806 137.517 92.1843C136.655 91.1543 135.632 90.2711 134.487 89.5694C133.368 88.3795 132.057 87.387 130.607 86.634C128.535 85.7316 126.311 85.225 124.052 85.1404C120.504 84.1912 116.782 84.0908 113.188 84.8474C112.185 84.9011 111.187 85.0126 110.198 85.1815C109.243 85.4221 108.311 85.7432 107.41 86.1413C105.709 86.8208 104.135 87.7816 102.753 88.9835C100.393 90.0774 98.3367 91.7322 96.7634 93.8037C95.7653 94.8005 94.929 95.7186 94.2887 96.4178C92.6936 98.287 91.5018 100.466 90.7879 102.817C90.3056 104.042 90.2735 105.398 90.6971 106.644C90.8533 107.014 91.0621 107.359 91.317 107.669C91.4007 108.333 91.6323 108.97 91.9949 109.533C92.3575 110.095 92.8418 110.569 93.412 110.92C93.9822 111.271 94.6237 111.489 95.2895 111.558C95.9552 111.628 96.6281 111.547 97.2585 111.323C100.024 110.658 102.063 108.63 104.021 106.719C104.395 106.365 104.75 106 105.096 105.634C105.072 105.862 105.048 106.08 105.073 106.303C105.026 109.176 106.442 112.99 109.765 113.133C110.088 113.151 110.412 113.13 110.731 113.073C112.995 113.16 115.369 111.485 116.874 109.42C117.156 108.937 117.393 108.429 117.582 107.903C119.436 112.119 122.295 115.263 125.836 114.795C129.069 114.065 130.76 110.888 130.966 107.783C130.989 107.565 131.012 107.347 131.035 107.129C131.658 108.49 132.3 109.843 132.984 111.173C134.056 112.908 134.908 115.444 137.197 115.745C139.036 115.855 140.449 114.298 141.342 112.849C142.235 111.399 142.233 109.884 142.462 108.364C142.785 104.727 142.08 101.073 140.428 97.8174Z" fill="#026306"/>
<path d="M142.275 112.372C141.982 112.512 141.699 112.67 141.428 112.848C140.191 113.292 139.098 114.065 138.266 115.083C137.434 116.102 136.896 117.327 136.708 118.628C136.637 119.026 136.594 119.429 136.58 119.833C136.13 121.521 136.229 123.308 136.862 124.937C138.122 127.517 140.828 127.498 142.971 126.287C143.878 126.166 144.751 125.863 145.538 125.399C146.326 124.934 147.012 124.316 147.556 123.581C150.436 119.6 148.462 110.384 142.275 112.372Z" fill="#EFABBF"/>
<path d="M111.993 122.175C113.569 120.53 115.734 119.11 116.596 116.958C117.317 114.512 113.843 112.905 112.385 114.985C110.73 116.977 108.853 118.772 106.789 120.336C105.854 121.195 104.82 120.817 103.707 122.981C102.923 125.392 104.892 127.711 106.985 128.682C108.793 129.58 110.831 129.91 112.831 129.63C113.25 129.501 113.625 129.258 113.915 128.928C114.205 128.599 114.399 128.196 114.475 127.764C114.551 127.332 114.506 126.887 114.345 126.479C114.184 126.07 113.913 125.714 113.563 125.45C113.221 125.197 112.817 125.038 112.394 124.99L112.034 124.951C111.874 124.959 111.714 124.958 111.554 124.948C110.968 124.888 110.386 124.79 109.811 124.657C109.603 124.593 109.4 124.514 109.203 124.42C110.199 123.757 111.133 123.006 111.993 122.175Z" fill="#DA99AC"/>
<path d="M121.051 133.623C121.093 130.884 118.718 130.497 116.672 131.238C115.761 131.308 114.881 131.606 114.114 132.104C113.347 132.602 112.718 133.285 112.283 134.09C112.059 134.95 112.142 135.862 112.519 136.667C112.896 137.473 113.542 138.121 114.346 138.501C115.169 138.552 115.995 138.454 116.784 138.214C117.491 138.197 118.169 137.929 118.696 137.458C118.812 137.365 118.918 137.261 119.015 137.166C119.098 137.119 119.177 137.067 119.252 137.009C119.675 136.727 120.029 136.354 120.286 135.916C120.544 135.478 120.699 134.988 120.739 134.481C120.876 134.208 120.98 133.92 121.051 133.623Z" fill="white"/>
<path d="M151.85 152.362C151.337 151.996 150.703 151.845 150.08 151.94C149.458 152.035 148.897 152.369 148.516 152.87C148.147 153.581 147.65 154.217 147.05 154.747C145.398 156.298 143.883 158.007 142.155 159.463C140.806 160.519 139.34 161.399 137.95 162.383C135.84 164.191 134.739 164.621 131.354 165.872C127.853 167.06 124.23 167.852 120.552 168.233C117.865 168.523 110.154 167.52 107.509 166.692C102.531 165.606 99.2438 163.961 94.7864 161.233C91.0243 159 90.0527 157.765 87.3687 154.055C85.3989 151.415 83.6532 148.614 82.1498 145.683C81.8696 145.141 81.3924 144.727 80.8163 144.526C80.2403 144.326 79.6092 144.354 79.053 144.604C78.4968 144.854 78.0576 145.308 77.826 145.873C77.5944 146.437 77.5879 147.069 77.8078 147.638C80.7949 153.097 84.071 158.634 88.7259 162.842C92.9221 166.223 101.441 170.448 104.53 170.796C109.26 172.156 114.14 172.921 119.059 173.071C123.22 172.891 127.338 172.162 131.308 170.903C133.683 170.214 135.981 169.282 138.165 168.122C140.36 166.687 142.405 165.044 144.6 163.618C146.57 162.139 148.165 160.228 149.934 158.565C151.555 157.03 154.271 154.307 151.85 152.362Z" fill="#0DD9C4"/>
<path d="M157.544 148.882C157.479 148.49 157.321 148.119 157.084 147.801C156.847 147.482 156.536 147.225 156.179 147.051C155.822 146.877 155.429 146.791 155.032 146.8C154.635 146.809 154.245 146.913 153.897 147.103C152.566 147.527 151.565 148.552 150.37 149.24C148.654 150.383 146.779 151.266 144.806 151.861C141.619 152.971 138.414 154.059 135.196 155.097C133.7 155.725 131.815 155.773 130.578 156.85C128.73 158.629 130.958 161.754 133.261 160.665C138.732 158.917 144.242 157.249 149.58 155.132C150.469 154.699 151.337 154.222 152.178 153.701C152.007 154.584 151.827 155.467 151.61 156.336C151.037 159.533 149.974 162.623 148.458 165.496C147.469 167.127 145.894 168.407 145.222 170.216C145.037 170.705 145.018 171.241 145.167 171.742C145.316 172.243 145.625 172.681 146.047 172.99C146.468 173.3 146.979 173.462 147.502 173.453C148.024 173.445 148.53 173.265 148.941 172.942C149.33 172.625 149.613 172.197 149.752 171.715C150.878 170.156 152.244 168.757 153.038 166.981C154.634 163.744 155.757 160.294 156.372 156.737C157.087 154.177 157.481 151.539 157.544 148.882Z" fill="#0DD9C4"/>
<path d="M150.534 155.54C148.376 155.09 147.654 156.912 147.056 158.748C146.878 158.257 146.599 157.809 146.237 157.433C144.804 156.11 142.563 156.62 140.765 156.39C138.257 156.251 135.743 156.252 133.236 156.395C130.771 157.024 131.143 160.824 133.701 161.038C136.806 161.062 139.913 161.066 143.016 161.291C143.453 162.666 143.676 164.1 143.676 165.543C143.839 167.795 142.196 171.064 144.573 172.525C146.97 173.797 148.479 171.157 149.112 169.172C149.312 168.646 149.488 168.157 149.654 167.685C150.267 166.261 150.785 164.797 151.204 163.304C151.623 160.989 153.945 156.565 150.534 155.54Z" fill="#0DD9C4"/>
<path d="M150.005 170.332C149.945 170.003 149.817 169.69 149.63 169.413C149.442 169.136 149.199 168.901 148.916 168.723C148.633 168.544 148.315 168.427 147.985 168.378C147.654 168.329 147.316 168.35 146.993 168.438C147.123 167.224 147.252 166.01 147.381 164.796C147.387 163.205 148.248 161.34 147.193 159.981C146.893 159.621 146.494 159.358 146.046 159.222C145.597 159.087 145.119 159.085 144.67 159.218C144.221 159.351 143.82 159.611 143.517 159.969C143.214 160.326 143.022 160.763 142.965 161.228C142.586 164.785 142.31 168.371 141.753 171.899C141.389 173.606 141.417 173.254 141.262 173.986C141.186 174.473 141.256 174.971 141.465 175.417C141.848 176.109 142.479 176.63 143.231 176.874C143.984 177.118 144.8 177.067 145.516 176.731C146.852 175.997 147.941 174.885 148.648 173.535C149.218 172.502 150.265 171.587 150.005 170.332Z" fill="#0DD9C4"/>
<path d="M144.758 163.222C141.578 164.802 138.479 166.611 135.177 167.9C132.173 168.556 129.136 169.053 126.079 169.387L125.761 169.401C123.406 169.448 121.908 169.557 120.771 169.609C118.739 169.536 116.712 169.359 114.698 169.078C112.377 168.351 109.651 167.927 108.699 167.681C107.427 167.373 106.267 166.464 104.943 166.467C102.416 166.418 101.767 170.176 104.14 171.043C106.026 171.874 108.01 172.462 110.044 172.793C110.809 172.999 112.298 173.33 112.59 173.381C115.95 174.246 119.432 174.532 122.888 174.227C125.531 174.259 128.171 174.042 130.774 173.58C133.086 173.03 135.501 172.96 137.725 172.075C140.943 170.403 144.445 169.04 147.449 167.038C149.241 165.253 147.022 162.13 144.758 163.222Z" fill="#0DD9C4"/>
<path d="M173.099 79.9531C172.713 78.7782 171.885 77.7993 170.79 77.2232C169.051 76.079 167.283 75.0276 165.621 73.7956C163.958 72.5636 162.108 71.7433 160.485 70.4964C158.507 69.356 156.407 68.4409 154.225 67.7679C152.741 67.2935 151.327 66.3374 149.734 66.4364C149.427 66.4782 149.134 66.5857 148.873 66.7516C148.612 66.9175 148.389 67.1379 148.222 67.3977C147.846 67.4414 147.485 67.572 147.168 67.7789C146.852 67.9859 146.587 68.2636 146.396 68.5902C146.205 68.9168 146.093 69.2834 146.068 69.6609C146.043 70.0385 146.106 70.4167 146.252 70.7657C147.83 73.8145 149.096 77.0149 150.031 80.3181C150.489 82.5058 150.501 84.9145 151.734 86.8489C151.829 88.0246 152.381 89.1162 153.271 89.89L153.454 90.4273C153.454 90.4273 153.454 90.4273 153.441 90.5411C153.445 90.9205 153.536 91.2939 153.707 91.6326C153.878 91.9713 154.124 92.2663 154.427 92.495C154.729 92.7236 155.08 92.8797 155.453 92.9513C155.825 93.0229 156.209 93.0081 156.575 92.9081C158.298 92.4967 158.46 90.5189 158.136 89.0553C158.056 88.1836 157.947 87.3183 157.799 86.4585C157.813 86.3257 157.904 86.1915 157.965 86.0733C158.472 84.6406 158.832 83.1538 159.384 81.7451C159.508 81.6842 159.636 81.6306 159.766 81.5843C160.087 81.5039 160.413 81.4488 160.743 81.4197L160.913 81.4379C161.719 81.4373 162.525 81.5231 163.323 81.5984C163.827 81.6434 164.328 81.716 164.825 81.8157L164.607 81.7925L164.825 81.8157C166.858 82.2719 169.347 82.9397 171.345 82.6439C171.921 82.4965 172.421 82.1382 172.746 81.64C173.071 81.1417 173.197 80.5398 173.099 79.9531ZM155.165 73.1721C154.606 73.1126 154.046 73.053 153.486 72.9935C153.439 72.8062 153.392 72.619 153.335 72.4307L155.165 73.1721Z" fill="#FFA617"/>
<path d="M173.515 102.269C173.708 99.9203 172.253 92.5911 169.827 88.7073C168.377 86.4717 167.542 85.3949 166.828 84.1775C165.667 82.0303 164.13 80.1091 162.29 78.5056C161.154 77.2817 159.289 77.0544 158.283 78.3093L156.128 75.9315C155.727 75.4438 155.151 75.1314 154.523 75.0606C154.057 75.0189 153.588 75.1145 153.175 75.3355C152.762 75.5564 152.423 75.8932 152.199 76.3044C151.975 76.7156 151.876 77.1833 151.914 77.65C151.952 78.1168 152.126 78.5622 152.413 78.9316C155.597 82.637 160.149 86.8142 161.204 89.7943C162.515 94.4226 165.141 100.563 165.26 107.826C165.527 109.111 164.422 117.329 163.837 118.59C162.055 123.887 160.601 126.283 158.2 128.838L158.045 129.033C157.835 129.163 157.647 129.324 157.486 129.51C157.072 129.958 156.844 130.545 156.847 131.155C156.85 131.764 157.085 132.349 157.503 132.792C157.921 133.235 158.492 133.503 159.1 133.541C159.708 133.579 160.308 133.385 160.779 132.997L161.076 132.722C161.323 132.493 161.554 132.249 161.768 131.99L162.389 131.384C165.129 128.616 167.908 125.574 169.281 121.874C170.373 118.816 170.66 117.11 171.222 115.261C172.623 111.067 173.396 106.689 173.515 102.269Z" fill="#FFA617"/>
<path d="M154.568 71.4875C154.22 71.236 153.815 71.0773 153.389 71.0264C152.968 70.9756 152.54 71.0377 152.151 71.2065C151.761 71.3752 151.423 71.6445 151.172 71.9867C150.921 72.329 150.766 72.7318 150.721 73.154C150.677 73.5762 150.746 74.0025 150.921 74.3893C151.322 75.0955 151.952 75.6433 152.707 75.9417C153.462 76.2402 154.297 76.2714 155.072 76.03C155.524 75.8123 155.897 75.4597 156.14 75.0209C156.383 74.5821 156.484 74.0787 156.428 73.5801C156.373 73.0816 156.164 72.6126 155.831 72.2377C155.498 71.8629 155.056 71.6008 154.568 71.4875Z" fill="#FFA617"/>
<path d="M118.848 60.8573C118.067 59.815 116.748 59.9528 115.602 59.8117C114.099 59.6404 112.586 59.5595 111.072 59.5694C103.884 59.6101 95.5346 59.8342 90.0865 65.1532C85.517 64.83 80.4621 65.4622 78.0533 66.376C69.37 69.2886 64.8353 76.4792 63.5793 85.2177C63.1373 87.5685 62.9134 89.9426 62.6695 92.3241C62.5494 93.4527 62.192 94.7383 63.0107 95.6982C63.3112 96.0573 63.7102 96.3208 64.1584 96.4563C64.6067 96.5917 65.0848 96.5933 65.5339 96.4607C65.9831 96.3282 66.3837 96.0673 66.6866 95.7102C66.9895 95.3531 67.1815 94.9153 67.239 94.4505C68.1756 86.5509 68.3204 80.773 72.283 75.8043C74.676 73.0827 77.8557 71.1721 81.3821 70.3367C83.4112 70.0035 85.463 69.8275 87.5192 69.81C86.591 73.8452 88.0429 78.4981 92.1832 80.0609C97.7152 82.1555 101.518 72.7385 99.1433 68.7355C98.4876 67.7316 97.5331 66.959 96.4146 66.5268C101.107 64.3406 108.86 63.8612 115.8 64.6284C118.347 65.2928 120.395 63.1799 118.848 60.8573ZM93.7074 75.5617L93.5936 75.5496C93.3876 75.4125 93.1667 75.2356 93.0166 75.1141C92.8323 74.9288 92.6577 74.7341 92.4935 74.5309L92.4437 74.4584C92.3806 74.3323 92.3272 74.2016 92.2839 74.0674C92.0255 73.247 91.9379 72.3825 92.0267 71.527C92.0638 71.1134 92.1587 70.707 92.3086 70.3197L93.484 70.5407C93.6642 70.5599 93.8933 70.661 94.0684 70.7276L94.6288 70.9599C94.7307 71.0225 94.8291 71.0906 94.9236 71.1639L95.0263 71.2803L95.0741 71.3717C95.0475 72.8736 94.5714 74.333 93.7074 75.5617Z" fill="#DC3FF5"/>
<path d="M76.6827 68.0814C75.8634 68.1351 75.0587 68.325 74.3018 68.6433C73.7786 68.6359 73.2709 68.8208 72.8749 69.1628C72.6516 69.3693 72.4356 69.5957 72.2017 69.8106C70.8193 70.858 69.5118 72.0009 68.2889 73.2308C66.7849 74.7384 65.477 76.4296 64.3962 78.2645C63.6348 79.2002 62.8809 80.1558 62.1744 81.1165C59.9405 84.0823 59.2458 87.8162 58.8423 91.4277C58.7563 93.7684 57.4522 97.3703 60.1136 98.6799C63.2746 99.6205 63.8403 96.0167 64.2405 93.5176C64.6673 92.6765 64.9093 91.7539 64.9505 90.8116C65.4062 89.594 66.0689 88.0532 66.5974 86.8721C66.2131 88.6659 66.0406 90.4986 66.0835 92.3325C66.105 93.5721 66.0794 95.0753 67.1932 95.8748C67.4883 96.0875 67.8278 96.2304 68.1861 96.2928C68.5445 96.3552 68.9124 96.3355 69.262 96.2351C69.6116 96.1347 69.9338 95.9563 70.2044 95.7132C70.475 95.4702 70.687 95.1689 70.8243 94.8321C71.2419 92.8911 70.6494 93.2309 70.8331 91.9556C70.8764 88.1236 71.5905 86.5498 72.1986 83.9002C73.7482 77.8114 74.8567 76.318 78.3048 72.8483L78.3098 72.8009C78.6677 72.6647 78.9861 72.4417 79.2363 72.1519C79.4864 71.862 79.6606 71.5145 79.743 71.1406C80.3079 69.1673 78.4339 67.7594 76.6827 68.0814Z" fill="#DC3FF5"/>
<path d="M77.6602 70.612C77.7 68.0745 73.9516 67.4262 73.0757 69.798C70.058 75.8936 66.6119 81.8669 64.8626 88.4811C64.1564 91.2119 63.7022 94.0017 63.5057 96.8156C63.4806 97.772 63.1166 98.7596 63.4116 99.683C64.0413 102.148 67.8398 101.785 68.0554 99.218C68.427 95.0949 68.9133 91.1566 69.7037 88.7757C71.1449 84.4443 72.962 80.2472 75.1342 76.2324C75.9252 74.6572 76.7248 73.0926 77.5538 71.5215C77.6682 71.2328 77.7049 70.9192 77.6602 70.612Z" fill="#DC3FF5"/>
<path d="M85.0328 91.6442C85.6248 90.9486 86.0417 90.1214 86.2487 89.2318C86.3038 88.7542 86.214 88.271 85.9907 87.8453C85.7674 87.4195 85.4211 87.0708 84.9968 86.8446C84.6065 86.6408 84.173 86.5335 83.7326 86.5317C83.2922 86.5299 82.8579 86.6336 82.4658 86.8342C82.1146 86.9788 81.7756 87.1512 81.4518 87.3497C79.5201 88.3657 77.6926 89.5687 75.9956 90.9414C73.2585 93.048 69.2159 95.9748 67.8347 96.787C67.2831 97.0697 66.667 97.2026 66.048 97.1723C65.22 96.3806 64.2534 95.7478 63.1966 95.3055C61.3724 94.4208 59.5644 93.3843 57.7403 92.4996C56.6391 91.9606 55.5659 91.3662 54.5248 90.7187C54.0811 90.2015 53.6773 89.6694 53.1632 89.183C52.6636 88.4343 51.8879 87.9137 51.0057 87.7353C50.5573 87.6974 50.1072 87.7861 49.7067 87.9914C49.3063 88.1967 48.9715 88.5103 48.7405 88.8965C48.5095 89.2827 48.3916 89.726 48.4001 90.1759C48.4087 90.6259 48.5434 91.0644 48.7889 91.4415C48.7155 91.7318 48.703 92.0342 48.7519 92.3296C48.9157 93.5843 50.1263 94.1064 50.9891 94.8313C51.5873 95.4074 52.2429 95.9207 52.9458 96.3631C54.6249 98.4933 56.152 100.739 57.5155 103.084C58.9723 105.618 59.4422 108.593 60.981 111.078C63.5397 115.244 66.3745 113.752 68.0553 111.207C69.3567 109.523 70.693 107.872 71.8877 106.11C74.1055 103.296 76.451 100.543 78.8114 97.8304C80.1019 96.5194 81.5893 95.4308 83.0299 94.2413C83.3064 94.1527 83.5627 94.0105 83.7842 93.8228C84.2325 93.4385 84.5356 92.9122 84.6432 92.3316L85.0328 91.6442Z" fill="#DC3FF5"/>
<path d="M67.6189 101.426C67.2416 101.385 66.8639 101.497 66.5687 101.735C66.2735 101.974 66.0851 102.319 66.0449 102.697C66.0048 103.074 66.1162 103.452 66.3546 103.747C66.593 104.042 66.9389 104.231 67.3162 104.271C67.6935 104.311 68.0713 104.2 68.3664 103.961C68.6616 103.723 68.85 103.377 68.8902 103C68.9303 102.622 68.8189 102.244 68.5805 101.949C68.3421 101.654 67.9962 101.466 67.6189 101.426Z" fill="#DC3FF5"/>
<path d="M83.2316 67.56C80.912 68.6272 78.4211 69.3213 76.1194 70.4C74.1086 71.5313 72.4201 73.1575 71.2141 75.1245C68.9886 78.5516 67.5339 80.3247 66.118 83.8955C64.8214 87.0666 64.9278 90.4829 64.9888 93.8752C65.0086 95.8532 65.0482 97.8236 64.9826 99.7925C64.8701 100.356 64.9796 100.942 65.2882 101.427C65.4682 101.642 65.7073 101.801 65.976 101.882C66.2448 101.964 66.5315 101.965 66.8009 101.885C67.0702 101.806 67.3105 101.65 67.4921 101.435C67.6737 101.221 67.7888 100.959 67.8231 100.68C68.0921 95.9895 67.3253 91.208 68.2791 86.5713C68.9039 84.4397 69.8339 82.4096 71.0402 80.5444C71.8001 79.5318 72.3816 78.3948 73.1595 77.3937C73.5883 76.6078 74.0913 75.8648 74.6617 75.1749C75.5078 74.3384 76.4327 73.5856 77.4235 72.927C77.4306 72.8606 79.174 72.2501 80.2274 71.8155C81.7703 71.1068 83.5868 70.8014 84.9608 69.787C86.1228 68.6926 84.5949 66.7363 83.2316 67.56Z" fill="#DC3FF5"/>
</g>
<defs>
<clipPath id="clip0_4066_2224">
<rect width="125.802" height="113.603" fill="white" transform="translate(52.3456 53.0608) rotate(6.07444)"/>
</clipPath>
</defs>
</svg>
