<svg width="233" height="233" viewBox="0 0 233 233" fill="none" xmlns="http://www.w3.org/2000/svg">
<mask id="mask0_4066_2889" style="mask-type:alpha" maskUnits="userSpaceOnUse" x="0" y="0" width="233" height="233">
<rect width="233" height="233" fill="#C4C4C4"/>
</mask>
<g mask="url(#mask0_4066_2889)">
<path fill-rule="evenodd" clip-rule="evenodd" d="M112.642 12.4466C131.047 10.5925 149.819 14.5351 165.805 23.8327C182.203 33.3702 195.024 48.047 203.232 65.1354C211.539 82.4318 214.558 101.719 212.368 120.778C210.136 140.204 204.975 160.627 190.72 174.03C176.878 187.044 155.655 185.394 137.536 191.135C118.909 197.038 101.915 211.891 82.7156 208.255C63.1734 204.554 48.9073 187.854 36.8352 172.065C25.2844 156.958 18.4745 139.182 15.5425 120.401C12.5838 101.448 10.3357 80.7754 19.9959 64.1972C29.4201 48.0237 49.5993 43.0256 65.9514 33.8916C81.2115 25.3675 95.246 14.199 112.642 12.4466Z" fill="#018EFF"/>
<g clip-path="url(#clip0_4066_2889)">
<path d="M79.2325 86.9003C80.9688 89.6531 81.6024 92.8548 80.927 96.0446C80.5355 97.9056 83.2849 98.6934 83.8079 96.8354C84.8898 93.0035 83.9305 89.0378 81.3275 86.0412C81.1063 86.8706 80.8881 87.697 80.667 88.5265C82.2868 88.1816 83.2999 90.4439 83.5121 91.6984C83.7631 93.1699 83.3776 94.5909 82.2569 95.5987C82.9622 96.3003 83.6645 96.9989 84.3698 97.7005C86.0792 95.7652 86.0702 93.2235 84.4714 91.2347C83.27 89.7393 81.1691 91.856 82.3585 93.3364C82.8905 93.9994 82.8038 94.9804 82.2569 95.5987C80.9898 97.0346 82.9353 98.9907 84.3698 97.7005C88.3983 94.0737 86.3332 84.2813 79.872 85.6607C78.6946 85.9104 78.5272 87.3552 79.2116 88.1459C81.1123 90.3369 81.704 93.2799 80.924 96.0476C81.8833 96.3122 82.8456 96.5738 83.8049 96.8384C84.6417 92.8756 83.9783 88.8416 81.8086 85.402C80.7925 83.7819 78.2074 85.2712 79.2325 86.9003Z" fill="#2B5741"/>
<path d="M118.616 122.794C120.187 122.071 121.861 121.563 123.562 121.245C123.621 121.233 124.276 121.182 124.3 121.123C123.526 120.564 123.29 120.499 123.597 120.93C123.678 121.064 123.759 121.2 123.833 121.34C124.189 121.973 124.515 122.621 124.784 123.296C125.779 125.796 126.356 128.87 125.116 131.391C123.926 133.814 121.29 135.19 118.893 136.183C117.274 136.855 115.525 137.435 113.78 137.658C112.513 137.821 110.511 137.946 109.417 137.2C109.74 137.521 110.059 137.839 110.382 138.16C109.423 136.793 109.109 134.325 108.876 132.666C108.589 130.642 108.601 128.579 108.768 126.542C108.323 127.312 107.881 128.082 107.435 128.852C108.422 128.436 109.883 128.82 110.929 128.757C112.322 128.674 113.655 128.347 114.892 127.693C116.09 127.06 117.112 126.147 117.916 125.068C118.194 124.696 118.457 123.977 118.801 123.686C118.535 123.909 119.464 123.617 119.676 123.579C119.856 123.546 121.09 123.483 121.066 123.519C120.836 123.415 120.734 123.219 120.761 122.93C120.776 122.77 120.707 122.883 120.555 123.266C120.292 123.4 120.023 123.819 119.757 124.001C119.372 124.271 118.926 124.476 118.49 124.649C115.92 125.671 112.985 125.966 110.245 126.046C111.141 126.938 112.038 127.83 112.934 128.721C112.922 128.169 112.698 128.567 113.23 128.079C111.963 126.819 110.693 125.555 109.426 124.295C107.887 126.097 106.766 128.044 106.037 130.3C105.367 132.366 107.447 133.974 109.345 133.591C114.467 132.553 118.236 128.748 121.592 125.023C120.095 124.155 118.595 123.287 117.097 122.419C116.894 123.718 116.105 124.601 115.259 125.564C114.201 126.771 113.105 127.943 111.966 129.075C109.793 131.239 107.483 133.282 105.036 135.134C102.328 137.185 104.575 141.326 107.749 139.754C111.879 137.708 115.708 135.226 119.339 132.396C118.072 131.135 116.801 129.872 115.534 128.611C114.082 129.934 112.887 131.519 112.044 133.291C111.527 134.379 111.569 135.642 112.465 136.534C113.263 137.328 114.754 137.622 115.726 136.953C118.487 135.045 121.245 133.136 124.007 131.228C122.919 129.827 121.834 128.427 120.746 127.024C119.088 129.12 117.534 131.275 116.12 133.543C114.707 135.812 117.522 138.594 119.799 137.203C124.022 134.625 127.079 130.788 128.741 126.156C126.98 125.918 125.217 125.68 123.457 125.445C123.46 127.88 121.577 129.804 119.644 131.073C117.017 132.797 114.073 133.963 111.542 135.841C112.63 137.242 113.714 138.642 114.802 140.045C115.176 139.709 115.549 139.37 115.923 139.034C118.49 136.712 114.677 132.937 112.118 135.25C111.745 135.586 111.371 135.925 110.998 136.26C108.78 138.264 111.784 142.301 114.258 140.464C117.333 138.178 121.009 136.879 124.013 134.486C126.807 132.259 128.842 129.09 128.836 125.448C128.83 122.315 124.548 121.967 123.553 124.738C122.372 128.026 120.065 130.767 117.082 132.586C118.308 133.805 119.536 135.027 120.761 136.246C121.93 134.37 123.176 132.544 124.548 130.811C125.376 129.762 125.659 128.424 124.757 127.298C123.98 126.325 122.405 125.835 121.287 126.608C118.526 128.516 115.767 130.425 113.006 132.333C114.231 133.552 115.46 134.774 116.685 135.993C117.354 134.587 118.179 133.448 119.333 132.396C120.406 131.421 120.328 129.601 119.333 128.611C118.203 127.488 116.676 127.717 115.528 128.611C112.274 131.147 108.727 133.3 105.027 135.131C105.932 136.671 106.838 138.211 107.74 139.751C110.702 137.509 113.526 135.116 116.138 132.476C118.463 130.125 121.739 127.256 122.273 123.84C122.459 122.648 122.148 121.465 121.036 120.82C120.047 120.243 118.568 120.362 117.776 121.239C115.026 124.292 112.115 127.577 107.905 128.43C109.007 129.527 110.11 130.624 111.213 131.721C111.646 130.386 112.304 129.15 113.221 128.079C115.445 125.475 111.993 121.932 109.417 124.295C108.162 125.445 107.507 127.027 107.543 128.721C107.573 130.137 108.75 131.439 110.233 131.397C114.154 131.284 118.624 130.802 122.1 128.834C125.313 127.018 127.862 122.491 124.536 119.503C122.925 118.055 120.806 117.975 118.771 118.32C116.631 118.682 115.107 119.449 113.95 121.313C113.236 122.467 112.328 123.257 110.914 123.409C109.928 123.513 108.921 123.356 107.929 123.415C106.742 123.489 105.786 123.775 104.704 124.233C103.813 124.61 103.443 125.677 103.371 126.542C103.162 129.048 103.284 131.516 103.655 134.001C103.987 136.213 104.447 138.972 105.717 140.859C107.08 142.881 110.421 143.145 112.641 143.08C115.098 143.009 117.525 142.411 119.808 141.537C123.833 139.994 128.047 137.759 129.939 133.677C131.902 129.441 131.23 124.72 129.41 120.564C128.376 118.204 127.058 115.647 124.085 115.793C121.26 115.933 118.418 117.006 115.881 118.174C114.563 118.78 114.231 120.671 114.916 121.834C115.729 123.18 117.292 123.403 118.616 122.794Z" fill="#2768CE"/>
<path d="M127.694 97.3527C127.626 97.3289 127.557 97.3051 127.488 97.2784C127.62 97.3319 127.751 97.3884 127.88 97.4419C127.721 97.3705 127.581 97.2873 127.443 97.1832C127.554 97.2694 127.665 97.3527 127.775 97.4389C127.641 97.3319 127.524 97.213 127.416 97.0792C127.503 97.1892 127.587 97.2992 127.674 97.4092C127.587 97.2903 127.512 97.1684 127.449 97.0376C127.279 96.6868 126.834 96.3865 126.466 96.2854C126.072 96.1784 125.549 96.226 125.199 96.449C124.849 96.6749 124.539 97.0078 124.443 97.427C124.341 97.8759 124.407 98.2713 124.607 98.6875C125.038 99.5763 125.889 100.207 126.816 100.501C127.635 100.762 128.648 100.195 128.839 99.3593C129.045 98.4704 128.57 97.6321 127.694 97.3527Z" fill="#F0A0A0"/>
<path d="M170.23 120.609C169.815 123.13 170.087 125.496 170.673 127.97C170.941 129.114 171.255 130.247 171.5 131.397C171.614 131.923 171.721 132.45 171.784 132.982C171.82 133.312 171.841 133.642 171.85 133.972C171.775 134.629 171.862 134.635 172.107 133.995C172.46 133.79 172.809 133.588 173.162 133.383C172.307 133.701 171.055 133.532 170.132 133.561C168.987 133.594 167.845 133.63 166.701 133.662C165.556 133.695 164.415 133.731 163.27 133.764C162.326 133.79 161.02 134.061 160.114 133.876C160.589 134.242 161.067 134.605 161.543 134.97C161.504 134.902 161.465 134.837 161.426 134.768C161.534 135.17 161.644 135.568 161.752 135.969C161.575 133.897 161.74 131.751 161.743 129.67C161.746 128.537 161.746 127.405 161.749 126.272C161.752 125.508 161.644 123.897 161.773 123.54C161.566 123.891 161.363 124.239 161.157 124.589C161.238 124.524 161.318 124.459 161.402 124.39C161.049 124.595 160.7 124.798 160.347 125.003C163.632 123.885 167.331 123.751 170.765 123.962C170.362 122.485 169.961 121.007 169.558 119.53C166.808 121.53 163.721 122.913 160.616 124.265C158.121 125.351 159.902 129.385 162.457 128.612C162.971 128.457 163.144 128.466 163.676 128.525C163.112 127.173 162.55 125.82 161.985 124.465C160.252 126.56 158.946 128.751 157.9 131.254C156.961 133.505 160.356 135.202 161.895 133.567C163.458 131.906 165.024 130.244 166.587 128.585C165.254 127.815 163.924 127.042 162.592 126.272C162.29 127.295 161.988 128.314 161.686 129.337C161.115 131.269 163.437 133.163 165.198 132.021C167.295 130.666 168.99 128.954 170.287 126.822C170.9 125.817 170.604 124.447 169.671 123.754C168.637 122.987 167.502 123.192 166.533 123.941C164.014 125.886 161.698 128.047 159.588 130.422C157.873 132.354 160.078 135.681 162.484 134.156C164.34 132.982 166.193 131.81 168.049 130.636C166.877 129.741 165.709 128.847 164.537 127.952C164.164 129.179 163.608 130.321 162.789 131.323C161.402 133.017 162.633 136.079 165.114 135.297C167.517 134.542 169.627 133.243 171.282 131.344C170.03 130.383 168.778 129.423 167.529 128.463C167.379 128.719 167.23 128.974 167.08 129.23C168.536 129.839 169.994 130.452 171.45 131.061C171.545 130.595 171.575 130.538 171.853 130.152C170.475 130.152 169.101 130.152 167.723 130.152C168.332 131.005 168.847 131.882 169.199 132.872C169.755 131.897 170.314 130.922 170.87 129.946C170.108 130.14 169.417 130.184 168.631 130.14C165.987 129.991 165.311 134.391 167.995 134.81C168.664 134.914 169.381 134.962 170.033 135.149C169.68 134.944 169.331 134.742 168.978 134.536C169.011 134.575 169.041 134.611 169.074 134.649C169.074 133.529 169.074 132.408 169.074 131.287C169.044 131.317 169.014 131.35 168.984 131.379C170.111 131.379 171.237 131.379 172.364 131.379C172.337 131.359 172.313 131.338 172.286 131.317C171.282 130.511 169.887 130.339 168.906 131.317C168.07 132.149 167.896 133.871 168.906 134.679C168.933 134.7 168.957 134.721 168.984 134.742C169.973 135.532 171.396 135.752 172.364 134.742C172.394 134.712 172.424 134.679 172.454 134.649C173.404 133.662 173.302 132.289 172.454 131.287C171.686 130.38 170.35 130.392 169.265 130.223C169.053 131.781 168.841 133.338 168.628 134.893C169.818 134.959 170.986 134.825 172.137 134.531C173.323 134.23 174.235 132.803 173.807 131.605C173.314 130.229 172.699 128.942 171.85 127.75C170.765 126.225 168.808 126.23 167.72 127.75C167.281 128.365 166.985 129.058 166.832 129.795C166.309 132.354 169.776 134.055 171.201 131.626C171.351 131.37 171.5 131.115 171.65 130.859C172.983 128.588 169.716 125.889 167.896 127.978C166.77 129.269 165.481 130.19 163.838 130.708C164.612 132.033 165.389 133.356 166.163 134.682C167.523 133.023 168.515 131.269 169.139 129.212C169.734 127.262 167.382 125.416 165.628 126.528C163.772 127.702 161.919 128.873 160.063 130.048C161.029 131.293 161.994 132.539 162.959 133.781C165.072 131.403 167.385 129.245 169.904 127.301C168.652 126.34 167.4 125.38 166.151 124.42C165.284 125.844 164.181 127.003 162.777 127.913C163.948 128.808 165.117 129.703 166.288 130.598C166.59 129.575 166.892 128.555 167.194 127.533C167.86 125.285 164.836 123.481 163.198 125.22C161.635 126.882 160.069 128.543 158.506 130.202C159.839 130.972 161.169 131.745 162.502 132.515C163.204 130.832 164.196 129.227 165.359 127.824C166.743 126.153 165.786 123.995 163.667 123.763C162.822 123.671 161.988 123.775 161.175 124.019C161.788 125.466 162.403 126.917 163.016 128.365C166.121 127.012 169.208 125.627 171.958 123.629C173.861 122.244 173.231 119.351 170.75 119.197C167.869 119.018 165 119.194 162.158 119.69C160.81 119.925 159.074 120.089 158.007 121.019C157.078 121.834 156.973 122.827 156.958 123.983C156.925 126.792 156.946 129.602 156.94 132.411C156.934 135.101 156.435 138.514 160.111 138.603C162.956 138.672 165.843 138.434 168.688 138.348C171.052 138.276 174.782 138.921 176.141 136.484C177.295 134.418 176.387 131.275 175.873 129.135C175.311 126.789 174.426 124.301 174.827 121.858C175.036 120.591 174.495 119.298 173.156 118.932C172.029 118.635 170.439 119.334 170.23 120.609Z" fill="#172623"/>
<path d="M106.446 70.5797C102.265 69.1646 98.5713 72.6963 98.3023 76.7215C98.1738 78.6627 98.7536 80.9428 100.107 82.3936C101.506 83.8948 103.762 84.2516 105.699 83.7848C109.542 82.8633 112.046 78.847 110.896 75.0478C109.823 71.4953 105.358 68.3887 101.799 70.7283C98.7326 72.7409 98.7207 78.1425 100.466 80.9845C101.467 82.6136 103.416 83.7135 105.361 83.2557C107.462 82.7622 108.451 80.5683 108.523 78.5914C108.589 76.7482 107.734 74.8546 105.941 74.1441C104.252 73.4752 102.086 74.0519 101.461 75.8861C100.953 77.3844 101.703 79.2394 103.242 79.7835C105.035 80.4196 107.109 78.8589 107.743 77.2387C108.643 74.9319 106.443 73.3295 104.309 73.4306C102.364 73.5228 100.227 75.024 100.107 77.0901C99.9609 79.6378 103.111 80.1491 104.82 78.963C106.799 77.5925 106.781 74.8278 105.101 73.2463C104.563 72.7379 103.759 72.6279 103.108 72.9906C100.119 74.6613 100.908 78.0711 102.143 80.601C103.066 82.4946 105.902 80.8388 104.982 78.9511C104.578 78.1276 103.631 76.451 104.766 75.8148C104.103 75.7286 103.44 75.6453 102.773 75.5591C103.344 76.0972 102.803 75.9783 102.824 76.3647C102.923 78.1781 103.452 77.0871 103.888 76.8553C104.172 76.7007 104.572 76.8315 104.796 76.7185C104.59 76.2815 104.363 76.2458 104.106 76.6174C104.599 76.8731 104.757 76.9652 104.578 76.8939C104.865 77.3101 105.221 77.6995 105.23 78.3833C105.242 79.2038 104.985 80.384 103.945 79.944C102.441 79.3078 102.465 76.341 102.758 75.0121C103.165 73.1541 104.805 72.7528 106.312 73.8973C109.163 76.0585 107.725 80.8031 104.013 80.7169C100.03 80.6248 101.076 72.2177 105.561 73.7338C107.579 74.4116 108.439 71.2545 106.446 70.5797Z" fill="#BDBEBA"/>
<path d="M100.006 79.1651C96.8114 79.4861 93.3746 80.0034 91.3753 82.8008C89.4926 85.4347 90.2487 88.6305 92.5558 90.7292C94.4864 92.4832 97.9142 94.0558 100.12 91.8232C101.228 90.6995 101.411 88.9753 101.545 87.4859C101.704 85.735 101.432 83.8591 100.224 82.5006C98.2609 80.2947 94.851 80.5147 93.4195 83.1724C91.9282 85.9371 93.4165 88.8445 95.7505 90.5687C97.9949 92.2275 101.865 93.3126 103.24 90.0128C104.441 87.1262 102.158 84.1296 99.6565 82.8484C98.0935 82.0487 96.2078 81.8941 94.7135 82.9257C93.4703 83.7848 92.768 85.3752 93.3806 86.817C94.0889 88.4878 96.0763 88.6602 97.5287 87.8486C99.0498 86.9984 100.084 85.4139 100.353 83.7194C100.595 82.2033 98.8616 80.8744 97.6064 82.129C96.5455 83.1902 95.8312 84.4567 95.5622 85.9371C95.4367 86.6179 95.634 87.4443 96.3183 87.7832C99.0289 89.1269 100.995 86.3355 100.09 83.8443C99.785 83.003 98.9841 82.4649 98.0666 82.7027C96.0284 83.2289 94.5461 85.3098 95.0871 87.4235C95.6399 89.5847 97.8783 90.6222 99.9524 90.1971C102.023 89.775 101.148 86.6238 99.0797 87.043C98.1204 87.2392 98.0666 86.0768 98.9423 85.8509C98.2668 85.4704 97.5944 85.0899 96.919 84.7093C96.9788 85.298 97.3314 85.3782 97.977 84.9561C98.228 85.5714 98.482 86.1868 98.7331 86.8022C98.9064 85.8509 99.2411 85.1315 99.9314 84.4388C99.017 83.9097 98.0995 83.3775 97.185 82.8484C97.1133 83.2973 97.0386 83.6926 96.8084 84.094C96.6381 84.3912 96.1719 84.641 96.0583 84.8966C95.7595 85.0096 95.7983 85.1612 96.1719 85.3574C96.3064 85.732 96.4797 85.7944 96.6859 85.5417C97.0206 85.5833 97.3434 85.4555 97.7319 85.5774C98.5537 85.839 99.3816 86.496 99.8597 87.2124C100.102 87.5751 100.613 88.6007 100.063 88.9337C99.6147 89.2042 98.5268 88.4878 98.1772 88.2648C97.457 87.8129 96.7337 87.2392 96.3452 86.4663C95.9059 85.5952 96.3064 83.4548 97.6124 84.4923C98.3147 85.0482 98.3356 86.1303 98.3057 86.933C98.2878 87.4562 98.2728 89.1061 97.8186 89.4836C96.8144 90.3249 94.7882 88.4372 94.2353 87.7386C93.1714 86.3979 93.5091 84.8877 94.839 83.868C96.2735 82.7681 98.2788 82.6076 100.012 82.4322C102.092 82.2241 102.113 78.951 100.006 79.1651Z" fill="#BDBEBA"/>
<path d="M101.655 78.8023C97.7135 76.6441 92.6898 78.0978 90.8937 82.3013C89.0289 86.6654 91.7215 90.7113 95.3376 93.0955C97.1068 94.2608 98.7535 91.4307 96.9962 90.2714C94.9043 88.892 92.896 86.6178 93.7686 83.9512C94.6293 81.3232 97.6149 80.3184 99.9997 81.6235C101.853 82.6402 103.511 79.816 101.655 78.8023Z" fill="#BDBEBA"/>
<path d="M98.6551 83.6153C97.7406 87.153 102.053 89.986 105.239 88.7672C109.094 87.2927 106.847 81.5701 103.111 81.9981C99.9491 82.3579 98.948 87.2065 102.113 88.3778C103.52 88.898 105.245 88.3599 106.07 87.0905C106.996 85.6636 106.581 83.5291 104.844 82.9554C102.976 82.34 101.198 83.8205 101.351 85.726C101.53 87.9883 104.115 88.8712 105.917 87.7713C107.716 86.6714 106.067 83.8413 104.259 84.9472C104.118 85.0334 104.593 85.3931 104.611 85.4674C103.993 84.959 103.574 84.8907 103.35 85.2623C103.344 85.2801 103.332 85.289 103.314 85.295C103.311 85.2385 103.29 85.5447 103.449 85.4971C103.455 85.4971 103.404 85.295 103.496 85.2742C103.721 85.2236 103.341 85.072 103.607 85.2563C103.828 85.4079 103.852 85.5268 103.987 85.729C104.118 85.9311 104.011 85.7349 104.008 85.7349C103.843 85.7379 103.685 85.7528 103.517 85.732C102.944 85.6636 101.623 85.2831 101.832 84.4834C102.352 82.4441 99.1811 81.576 98.6551 83.6153Z" fill="#BDBEBA"/>
<path d="M106.844 77.0752C106.237 80.488 107.325 84.0464 110.039 86.3117C111.309 87.373 113.012 88.2559 114.713 87.807C116.449 87.3462 117.758 85.5685 118.529 84.0554C119.939 81.2788 120.161 76.995 117.062 75.1994C113.939 73.389 109.994 75.7642 108.595 78.6508C107.223 81.4869 107.908 86.1571 111.646 86.6803C115.173 87.1738 117.695 83.3419 116.84 80.158C115.875 76.5728 111.987 74.9586 108.553 75.6543C107.071 75.9545 105.403 76.6085 104.886 78.1633C104.256 80.0599 105.607 81.9298 106.835 83.2378C108.159 84.644 110.03 86.0233 111.933 86.5109C113.95 87.0281 115.818 85.5447 116.285 83.6124C116.73 81.7604 115.555 79.7359 113.574 79.5635C111.67 79.397 110.209 81.3085 110.804 83.0833C111.049 83.8175 111.628 84.2248 112.387 84.2843C113.998 84.4121 115.062 82.8008 114.778 81.3174C114.432 79.4892 112.477 79.0551 110.887 79.2573C108.816 79.5189 108.792 82.7919 110.887 82.5273C111.105 82.4887 111.327 82.4649 111.551 82.4619C112.193 82.4976 112.471 82.016 112.387 81.0172C112.916 81.4185 113.445 81.8168 113.971 82.2182C114.506 83.8116 112.686 83.2943 112.298 83.1724C111.862 83.0357 111.425 82.7354 111.037 82.4887C110.215 81.9685 109.462 81.3204 108.84 80.5712C108.706 80.4107 107.997 79.6616 108.069 79.3732C108.15 79.0551 108.634 78.9986 108.951 78.9184C109.895 78.6746 110.965 78.6479 111.876 79.0432C113.287 79.6527 114.39 81.4601 113.293 82.8514C112.624 83.7016 111.7 83.5738 111.321 82.5719C111.019 81.7782 111.18 80.8596 111.53 80.1164C112.11 78.8827 114.112 77.1109 115.543 78.1514C117.011 79.2186 116.072 81.8198 115.355 83.003C114.943 83.6838 114.345 84.6975 113.475 84.5815C112.647 84.4715 111.793 83.5648 111.306 82.9465C110.203 81.5493 109.701 79.7032 110.012 77.9492C110.379 75.8861 107.211 75.0032 106.844 77.0752Z" fill="#BDBEBA"/>
<path d="M111.344 78.1246C111.876 76.8879 113.341 76.5044 114.204 77.6668C114.73 78.3773 114.978 79.3613 115.28 80.1788C115.43 80.5801 115.576 80.9814 115.725 81.3798C115.815 81.6206 115.905 81.8614 115.991 82.1022C116.135 82.7265 116.215 82.7443 116.236 82.1587C116.565 81.909 116.891 81.6563 117.22 81.4066C117.145 81.4184 117.067 81.4303 116.993 81.4392C114.907 81.7484 115.794 84.8996 117.865 84.5934C120.13 84.2575 119.312 81.6384 118.807 80.2709C118.17 78.5497 117.671 76.5728 116.407 75.1845C114.192 72.7528 109.823 73.4276 108.508 76.4747C107.677 78.3862 110.51 80.0539 111.344 78.1246Z" fill="#BDBEBA"/>
<path d="M98.7476 89.7778C97.3011 89.9146 96.1027 90.6875 95.4931 92.0223C94.8744 93.3749 94.979 95.01 96.037 96.1248C97.9885 98.1819 101.918 97.2187 102.531 94.4154C102.872 92.8636 102.175 91.1661 100.717 90.4527C99.1929 89.7035 97.2115 90.2238 96.3956 91.7429C95.6066 93.2114 96.1834 95.1526 97.6807 95.9048C99.0345 96.5855 101.222 96.4845 102.307 95.3459C103.75 93.8327 102.758 91.5437 101.162 90.6191C99.5814 89.7035 97.6896 90.0127 96.3269 91.1334C95.8308 91.5407 95.7471 92.3761 95.9862 92.9201C96.2701 93.5652 96.805 93.8446 97.4894 93.9249C98.7446 94.0706 100.03 93.8952 101.198 93.4165C102.017 93.0776 102.603 92.3315 102.346 91.404C102.134 90.634 101.15 89.9235 100.323 90.2624C99.3752 90.6518 98.5055 90.7737 97.4894 90.6548C97.8779 91.5853 98.2634 92.5158 98.6519 93.4463C98.8283 93.3006 99.2227 93.3155 99.414 93.3928C99.4319 93.4017 99.8175 93.6603 99.7547 93.6752C99.6501 93.696 99.9878 93.0122 99.9968 93.0212C99.9549 92.9736 100.173 93.2322 99.8772 93.0241C99.8892 93.033 99.0912 93.0152 99.1092 92.9617C99.1181 92.932 99.3094 93.152 99.3303 93.2055C99.3333 93.2144 99.2377 93.3779 99.2377 93.3719C99.2407 93.4165 99.3363 93.4076 99.3273 93.5325C99.2885 94.0587 98.7715 94.0052 98.4427 93.8981C98.368 93.8743 98.3561 93.7227 98.4039 93.5563C98.4188 93.4998 98.5593 93.2293 98.5802 93.2025C98.6788 93.0955 98.9209 93.0301 98.7446 93.0479C99.6292 92.9647 100.388 92.3553 100.388 91.4129C100.391 90.5924 99.6352 89.6946 98.7476 89.7778Z" fill="#BDBEBA"/>
<path d="M99.9105 90.4022C98.9541 94.9565 102.185 98.1731 105.514 100.727C107.029 101.889 108.816 102.704 110.669 101.758C112.334 100.908 113.431 99.0709 113.933 97.3288C115.116 93.2382 112.151 89.9147 107.985 89.992C104.148 90.0633 101.611 93.592 103.703 97.0612C105.592 100.192 110.887 101.241 112.376 97.1861C113.631 93.7704 111.07 89.5787 107.546 88.8742C103.598 88.0864 99.5668 92.6407 99.7431 96.3983C99.9224 100.308 104.345 102.713 107.767 100.914C109.689 99.9032 110.842 97.8788 110.992 95.7532C111.129 93.7882 110.412 90.9076 108.156 90.423C106.15 89.992 104.28 92.0878 105.394 93.9517C106.557 95.8959 109.357 94.8495 109.432 92.7626C108.356 92.9083 107.28 93.051 106.204 93.1966C106.222 93.2977 106.237 93.3988 106.255 93.5028C106.309 93.0837 106.366 92.6615 106.419 92.2424C106.216 92.6645 105.72 92.9142 105.442 93.3007C105.125 93.7406 104.946 94.1955 104.892 94.7365C104.797 95.7175 105.152 96.6778 105.893 97.3288C107.642 98.8657 109.97 97.7123 110.732 95.8127C111.515 93.8596 108.338 93.0093 107.561 94.9446C107.716 94.5552 108.027 95.0725 108.305 95.0279C108.535 94.9922 108.87 94.5047 108.99 94.3382C109.465 93.6901 109.498 93.0985 109.369 92.3256C109.058 90.4438 106.204 90.9938 106.142 92.7596C106.975 93.045 107.459 93.5593 107.594 94.3055C107.687 94.6236 107.728 94.9476 107.719 95.2776C107.719 95.7711 107.645 96.2794 107.433 96.7313C107.029 97.5934 106.121 98.3514 105.119 98.3039C102.693 98.185 102.8 95.5392 103.837 94.0677C104.426 93.2323 105.376 92.0878 106.494 92.0253C107.483 91.9689 108.416 92.8429 108.891 93.6128C109.731 94.9773 109.507 97.7153 107.292 96.1991C106.742 95.8216 106.097 95.0249 106.198 94.2966C106.324 93.3899 107.442 93.2382 108.189 93.2501C110.55 93.2947 111.44 94.9773 110.535 97.0702C110.263 97.6974 109.704 98.8657 108.888 98.9252C108.066 98.9817 106.748 97.5785 106.153 97.0761C104.45 95.6403 102.567 93.6871 103.075 91.2643C103.512 89.219 100.344 88.3391 99.9105 90.4022Z" fill="#BDBEBA"/>
<path d="M104.139 93.7824C102.893 95.4353 103.216 97.8284 104.608 99.2762C105.245 99.9391 106.285 99.8559 106.933 99.2762C107.205 99.0324 107.477 98.7886 107.752 98.5449C108.413 97.9562 108.356 96.8325 107.752 96.232C107.095 95.578 106.09 95.6404 105.427 96.232C105.155 96.4758 104.883 96.7196 104.608 96.9633C105.382 96.9633 106.159 96.9633 106.933 96.9633C106.506 96.5174 106.554 96.0001 106.978 95.4323C107.51 94.7248 107.092 93.6041 106.389 93.1938C105.547 92.7063 104.671 93.0719 104.139 93.7824Z" fill="#BDBEBA"/>
<path d="M103.192 86.1334C102.761 88.2886 103.404 90.4974 105.182 91.8827C107.053 93.3394 109.832 93.2829 110.968 90.979C112.005 88.8772 111.063 86.062 108.915 85.0929C106.942 84.204 104.288 85.1583 103.972 87.4592C103.637 89.888 106.383 91.1574 108.398 90.2923C110.209 89.5164 111.308 87.3611 110.636 85.4704C109.88 83.3568 107.148 82.343 105.254 83.6213C103.452 84.8372 103.183 87.4681 104.874 88.8862C107.014 90.6788 109.844 89.1091 110.161 86.5614C110.469 84.097 108.861 81.6771 106.213 82.0517C105.645 82.132 105.23 82.6998 105.065 83.1933C104.59 84.6113 105.433 86.0739 106.891 86.4009C108.951 86.8647 109.832 83.7105 107.764 83.2468C107.919 83.5173 108.078 83.7908 108.233 84.0613C107.851 84.4418 107.468 84.8224 107.086 85.2029C106.667 85.0661 106.581 85.1345 106.832 85.411C106.921 85.6488 106.951 85.8955 106.921 86.1512C107.298 87.046 106.712 86.1066 107.035 86.386C107.086 86.4306 107.444 86.2701 107.561 86.5763C107.737 87.0371 107.05 87.1173 107.002 87.3314C106.823 88.134 107.991 88.0716 108.096 88.8891C108.165 89.4332 108.09 89.6739 107.513 89.5223C106.56 89.2696 106.204 87.81 106.365 87.0044C106.775 84.9472 103.607 84.0673 103.192 86.1334Z" fill="#BDBEBA"/>
<path d="M116.081 84.0227C113.173 83.4817 110.038 84.5311 108.721 87.3344C107.54 89.8464 108.263 93.0511 110.741 94.4899C113.43 96.0507 116.524 94.9715 118.054 92.3971C119.5 89.9624 119.904 85.9967 116.715 84.7273C113.971 83.6363 110.143 84.6946 108.942 87.486C107.812 90.111 109.163 93.1225 111.927 93.9786C114.503 94.7783 117.871 93.2176 117.856 90.2299C117.845 87.1769 113.562 85.5508 112.092 88.5444C110.487 91.8115 115.191 93.9994 116.957 90.9464C117.725 89.6175 117.25 87.9974 116.156 87.0163C114.653 85.6667 112.57 85.9164 110.821 86.5764C108.807 87.3374 109.617 90.0129 111.694 89.7305C112.489 89.6235 113.284 89.5135 114.079 89.4065C116.165 89.1211 115.277 85.9699 113.206 86.2523C112.411 86.3594 111.616 86.4694 110.821 86.5764C111.111 87.6287 111.404 88.6781 111.694 89.7305C112.307 89.4986 113.173 89.0676 113.834 89.3649C114.503 89.6681 114.808 90.3429 114.139 90.771C113.362 91.2704 112.148 90.7294 111.867 89.9029C111.488 88.7971 112.399 87.9617 113.38 87.7447C114.653 87.4652 116.132 87.5039 115.857 89.13C115.696 90.0872 115.062 91.5023 114.07 91.865C113.176 92.192 112.086 91.7044 111.664 90.884C110.484 88.5979 113.173 86.7934 115.212 87.1709C117.277 87.5604 118.161 84.4092 116.081 84.0227Z" fill="#BDBEBA"/>
<path d="M117.821 83.3985C119.443 84.65 117.047 86.4664 116.069 87.1858C116.733 88.042 117.396 88.8981 118.063 89.7543C118.634 89.2132 119.479 89.0468 120.083 88.5235C120.812 87.8933 121.248 87.0431 121.248 86.071C121.254 83.9306 119.545 82.6582 117.776 81.8437C117.354 82.8396 116.93 83.8355 116.509 84.8313C117.342 85.0008 116.305 85.5537 115.938 85.9402C115.152 86.7696 114.865 87.6228 115.047 88.7554C115.379 90.8275 118.547 89.9475 118.218 87.8874C118.06 88.3898 118.075 88.5117 118.266 88.253C118.418 88.1044 118.577 87.9587 118.735 87.816C118.968 87.596 119.186 87.379 119.384 87.1263C119.871 86.505 120.14 85.8005 120.116 84.9978C120.065 83.4312 118.944 81.9953 117.384 81.6802C115.678 81.3353 114.324 83.8414 116.117 84.6678C116.586 84.8849 118.152 85.4913 117.91 86.071C117.818 86.288 117.091 86.4872 116.888 86.6002C116.464 86.835 116.09 87.1115 115.738 87.4474C114.423 88.696 116.201 91.1426 117.731 90.0159C119.267 88.8833 120.833 87.6733 121.422 85.7767C121.93 84.1476 121.538 82.1707 120.146 81.0945C118.493 79.8103 116.15 82.1083 117.821 83.3985Z" fill="#BDBEBA"/>
<path d="M112.062 95.3936C111.655 97.0525 113.003 98.2148 114.563 98.3248C115.854 98.414 117.381 97.9235 118.418 97.1684C120.734 95.4709 120.716 91.7401 117.806 90.6877C117.046 90.4142 116.15 90.9345 115.866 91.6331C115.546 92.4268 115.851 93.1938 116.538 93.6754C116.598 93.717 116.655 93.7556 116.715 93.7973C116.517 93.6011 116.32 93.4048 116.126 93.2116C115.857 92.8311 116.449 92.4833 115.812 92.8638C114.001 93.9459 115.651 96.773 117.471 95.688C118.329 95.1766 119.079 94.5375 119.321 93.5356C119.587 92.4357 119.091 91.4785 118.197 90.8542C117.776 91.8501 117.351 92.846 116.93 93.8418C116.694 93.7556 116.852 93.8121 116.828 93.8924C116.742 94.1897 116.888 94.1778 116.583 94.4661C116.278 94.7515 115.815 94.8734 115.424 94.9656C115.283 94.9983 114.984 94.9864 114.871 95.0666C114.605 95.2539 115.035 94.4186 115.191 95.5661C115.191 95.8544 115.191 96.1458 115.191 96.4341C115.206 96.3776 115.217 96.3212 115.232 96.2647C115.731 94.2194 112.564 93.3454 112.062 95.3936Z" fill="#BDBEBA"/>
<path d="M166.052 93.7407C164.564 95.1141 162.947 95.896 161.067 96.5946C159.633 97.1297 158.47 98.7053 159.785 100.073C160.314 100.623 161.103 100.822 161.794 101.107C162.663 101.464 163.551 101.904 164.519 101.681C166.16 101.306 167.433 99.0234 168.434 97.8342C167.573 97.1743 166.713 96.5143 165.852 95.8514C165.32 96.663 164.788 97.4745 164.259 98.2831C163.195 99.9063 165.499 101.449 166.841 100.266C167.302 99.8587 167.762 99.4544 168.222 99.0471C169.642 97.7956 167.822 95.5719 166.229 96.4786C163.291 98.1553 159.744 101.333 159.463 104.936C159.331 106.646 160.141 107.966 161.555 108.872C161.525 108.851 162.215 109.404 162.018 109.062C162.149 109.288 161.973 109.99 162.096 110.332C162.409 111.203 163.118 111.533 163.96 111.753C165.777 112.223 168.237 112.862 170.117 112.674C172.116 112.475 172.633 110.686 172.582 108.958C172.454 104.41 170.977 100.04 169.513 95.7771C168.512 96.1962 167.511 96.6184 166.51 97.0375C167.316 98.5328 167.143 100.132 166.208 101.521C167.068 101.411 167.929 101.301 168.79 101.191C168.545 101.042 168.38 100.831 168.291 100.56C167.902 99.823 166.746 99.4841 166.04 99.9747C163.916 101.455 162.699 103.581 162.55 106.161C162.478 107.383 164.005 108.224 165.024 107.573C166.507 106.625 167.08 105.174 166.761 103.465C166.581 102.499 165.159 101.883 164.346 102.487C162.681 103.723 161.07 106.087 163.124 107.847C165.239 109.66 167.385 107.297 167.774 105.269C166.716 105.269 165.661 105.269 164.603 105.269C164.875 106.788 165.508 109.621 167.325 110.011C169.145 110.4 170.41 108.123 170.299 106.586C170.174 104.856 168.285 103.625 166.698 104.541C165.114 105.454 164.818 107.665 165.29 109.247C165.634 110.403 167.161 110.87 168.037 109.969C169.331 108.637 169.728 107.083 169.462 105.278C168.404 105.566 167.349 105.858 166.291 106.146C166.531 106.934 166.931 107.427 167.612 107.891C168.285 108.349 169.522 108.076 169.863 107.306C170.317 106.265 170.768 105.225 171.225 104.187C171.408 103.78 171.572 103.355 171.799 102.968C171.892 102.811 172.502 102.157 172.265 102.142C172.023 102.127 172.245 102.386 172.041 102.632C171.793 102.936 171.459 103.123 171.109 103.286C170.927 103.381 170.735 103.459 170.538 103.515C171.267 104.502 171.802 104.684 172.143 104.059C172.367 103.905 172.914 103.197 172.875 103.182C172.546 102.933 172.221 102.68 171.892 102.43C171.952 102.51 171.24 103.545 171.022 103.792C171.883 103.902 172.744 104.012 173.604 104.122C173.183 103.313 173.404 102.279 174.172 101.749C173.368 101.422 172.561 101.098 171.757 100.771C171.967 101.526 171.781 102.255 171.094 102.71C169.343 103.872 170.986 106.705 172.753 105.534C174.662 104.267 175.544 102.13 174.928 99.9033C174.662 98.9461 173.398 98.3188 172.514 98.9253C170.227 100.495 169.483 103.301 170.768 105.772C171.234 106.669 172.672 106.872 173.35 106.102C174.36 104.957 175.454 103.313 175.143 101.708C174.791 99.8974 172.782 99.4366 171.336 100.331C169.902 101.22 168.512 102.986 168.64 104.737C168.775 106.61 170.451 107.065 171.997 106.446C173.476 105.855 174.94 104.859 175.347 103.227C175.699 101.809 175.203 100.162 173.918 99.3712C170.048 96.99 168.061 103.277 167.024 105.65C167.774 105.454 168.524 105.257 169.274 105.064C169.337 105.132 169.399 105.204 169.462 105.272C168.832 103.206 165.99 104.11 166.291 106.14C166.381 106.744 166.121 107.231 165.712 107.65C166.626 107.891 167.544 108.132 168.458 108.373C168.356 108.037 168.494 107.689 168.44 107.413C168.661 107.059 168.428 106.94 167.744 107.056C167.257 106.681 166.988 106.669 166.931 107.02C167.352 106.967 167.777 106.91 168.198 106.857C168.108 106.821 168.019 106.785 167.929 106.75C168.258 106.999 168.584 107.252 168.912 107.502C168.246 106.604 167.968 105.48 167.771 104.398C167.487 102.829 164.899 102.846 164.6 104.398C164.355 104.853 164.507 105.138 165.057 105.26C165.395 105.739 165.709 105.754 165.999 105.308C165.195 104.981 164.388 104.657 163.584 104.33C163.626 104.523 163.548 104.66 163.357 104.746C164.182 105.216 165.006 105.688 165.831 106.158C165.909 104.802 166.569 103.578 167.693 102.796C166.943 102.6 166.193 102.403 165.443 102.21C165.706 102.71 166.028 103.129 166.456 103.5C167.284 104.226 168.425 104.083 169.038 103.17C170.625 100.81 170.676 97.8669 169.34 95.3847C168.473 93.7734 165.727 94.8733 166.336 96.6451C167.403 99.7517 168.488 102.888 169.014 106.14C169.136 106.892 169.217 107.65 169.262 108.411C169.28 108.685 169.289 108.958 169.292 109.232C169.208 109.505 169.283 109.583 169.522 109.464C169.809 109.434 169.824 109.413 169.567 109.407C169.402 109.395 169.238 109.375 169.074 109.348C168.264 109.247 167.457 109.107 166.656 108.961C166.07 108.854 164.985 108.842 164.498 108.486C164.749 108.813 165.003 109.137 165.254 109.464C165.087 108.59 165.251 107.817 164.45 106.999C163.781 106.319 162.577 106.063 162.759 104.954C163.15 102.561 165.927 100.418 167.875 99.3058C167.212 98.4496 166.548 97.5934 165.882 96.7373C165.422 97.1446 164.962 97.5489 164.501 97.9561C165.362 98.6161 166.223 99.276 167.083 99.939C167.615 99.1274 168.147 98.3158 168.676 97.5072C169.68 95.9762 167.305 94.0915 166.094 95.5244C165.362 96.3924 164.642 97.2664 163.901 98.1285C163.769 98.2891 163.635 98.4437 163.494 98.5953C163.703 98.3931 163.665 98.2802 163.381 98.2564C163.025 98.1256 162.254 97.9591 162.015 97.6707C162.155 98.1999 162.296 98.732 162.436 99.2612C162.376 99.6833 161.489 99.7963 162.379 99.6149C162.678 99.5525 162.989 99.4039 163.273 99.2909C163.919 99.0352 164.555 98.7469 165.165 98.411C166.327 97.7688 167.388 96.9573 168.359 96.0595C169.928 94.6177 167.6 92.3108 166.052 93.7407Z" fill="#F0BEBA"/>
<path d="M166.76 94.469C167.72 93.708 168.709 94.3739 168.966 95.3638C169.967 94.9447 170.968 94.5225 171.969 94.1034C171.482 93.3007 170.849 92.6526 170 92.2275C169.561 92.0075 168.936 91.7578 168.434 91.7905C167.594 91.5705 167.364 92.1324 167.747 93.4761C167.92 93.4137 168.099 93.378 168.281 93.3691C169.178 93.5326 169.877 93.4464 170.711 93.9636C171.518 94.466 172.077 95.1706 172.355 96.0743C172.884 95.3846 173.413 94.6949 173.939 94.0053C174.545 94.0707 174.127 93.9577 173.855 93.7347C173.604 93.5296 173.332 93.3691 173.024 93.265C172.403 93.051 171.65 93.1223 171.079 93.4612C169.734 94.2579 169.68 95.893 170.161 97.1951C171.076 96.6659 171.993 96.1338 172.908 95.6046C170.989 93.708 168.625 92.6734 165.947 92.4208C164.118 92.2483 163.685 95.3103 165.511 95.6314C166.733 95.8484 167.827 96.324 168.649 97.2813C169.315 98.0602 169.734 99.0263 170.84 99.2849C171.88 99.5317 173.045 98.4377 173.831 99.2493C174.844 100.296 174.019 102.234 173.649 103.39C173.072 105.18 175.711 106.22 176.652 104.651C178.311 101.883 178.344 98.5774 176.811 95.7503C175.95 96.4103 175.089 97.0702 174.229 97.7331C174.593 98.0512 174.955 98.3693 175.319 98.6874C176.61 99.82 178.329 98.6993 178.066 97.097C177.872 95.9168 176.978 95.5541 176.401 94.6414C175.845 93.7645 175.747 92.7924 174.973 91.9897C173.26 90.2179 170.78 89.8671 168.422 89.9533C166.312 90.0306 166.303 93.3007 168.422 93.2234C169.946 93.1669 172.053 93.1461 172.911 94.6771C173.224 95.239 173.314 95.893 173.676 96.44C173.987 96.9097 174.808 97.4329 174.895 97.962C175.81 97.4329 176.727 96.9008 177.641 96.3716C177.277 96.0535 176.915 95.7354 176.551 95.4173C175.167 94.2044 173.057 95.7176 173.969 97.4002C174.949 99.2076 174.862 101.247 173.81 102.998C174.811 103.417 175.813 103.839 176.814 104.258C177.815 101.146 178.033 96.5351 173.888 95.6849C173.215 95.5481 172.268 95.5452 171.667 95.9405C171.763 96.0565 171.859 96.1695 171.957 96.2824C171.817 96.0624 171.667 95.8484 171.512 95.6403C171.297 95.349 171.067 95.0665 170.816 94.8049C169.635 93.5742 168.057 92.7686 166.381 92.4743C166.234 93.5445 166.091 94.6147 165.944 95.6849C167.741 95.8543 169.312 96.657 170.583 97.9115C171.682 98.9996 173.918 97.9085 173.329 96.3211C173.213 95.6017 172.752 95.6254 171.948 96.3954C172.137 96.5619 172.334 96.7164 172.537 96.8651C172.988 97.1475 173.416 97.2159 173.936 97.2724C174.997 97.3883 175.81 96.1338 175.52 95.2033C174.521 91.9689 171.264 89.7125 167.836 90.1377C166.267 90.3339 164.516 91.3714 165.161 93.2175C165.421 93.9607 166.022 94.5255 166.757 94.799C167.648 95.129 168.559 94.8198 169.124 95.7503C170.087 97.3348 172.597 96.3003 172.128 94.4898C171.198 90.9017 167.2 89.9474 164.426 92.1502C162.786 93.4702 165.126 95.7711 166.76 94.469Z" fill="#D62E31"/>
<path d="M147.266 105.058C146.454 106.298 145.641 107.54 144.831 108.78C144.006 110.038 142.978 111.301 142.314 112.648C141.128 115.053 143.836 116.28 145.551 117.333C150.007 120.071 154.923 122.143 160.004 123.403C164.289 124.467 169.749 124.854 172.57 120.734C173.772 118.98 174.172 116.628 173.568 114.586C172.878 112.243 171.154 111.093 168.939 110.341C162.391 108.114 155.802 106 149.236 103.827C148.324 103.527 147.532 104.184 147.213 104.969C146.313 107.187 145.853 109.491 145.76 111.878C145.692 113.664 147.924 113.878 148.823 112.704C149.29 112.095 149.756 111.482 150.222 110.873C150.506 110.501 150.808 109.859 151.316 109.734C151.785 109.618 153.094 110.299 153.569 110.451C154.134 110.629 154.696 110.807 155.261 110.989C157.986 111.854 160.709 112.719 163.434 113.584C164.092 113.792 164.749 114.003 165.407 114.211C165.885 114.363 166.889 114.91 167.379 114.839C167.66 115.029 167.759 114.955 167.675 114.619C167.648 114.761 167.532 114.83 167.331 114.821C166.829 114.764 166.241 114.88 165.718 114.848C163.091 114.678 160.53 114.092 158.043 113.248C156.038 112.567 155.174 115.724 157.17 116.402C159.122 117.065 161.109 117.553 163.15 117.841C164.836 118.079 166.755 118.427 168.413 117.904C169.854 117.452 170.971 116.167 170.965 114.619C170.956 112.808 169.483 112.086 167.974 111.595C163.85 110.258 159.708 108.97 155.575 107.656C154.026 107.166 151.728 105.914 150.067 106.497C149.158 106.815 148.644 107.582 148.085 108.31C147.383 109.226 146.687 110.142 145.987 111.057C147.009 111.334 148.029 111.607 149.051 111.884C149.131 109.779 149.595 107.793 150.386 105.843C149.711 106.223 149.039 106.604 148.363 106.984C153.994 108.845 159.624 110.706 165.251 112.567C167.535 113.322 170.667 113.688 170.559 116.708C170.472 119.173 168.428 120.63 166.118 120.847C163.754 121.07 161.372 120.427 159.122 119.779C156.597 119.051 154.131 118.127 151.764 116.991C150.596 116.429 149.445 115.826 148.324 115.175C147.727 114.827 147.135 114.47 146.552 114.098C146.259 113.914 145.969 113.724 145.683 113.534C145.273 113.082 145.127 113.138 145.243 113.7C145.151 114.327 145.255 114.315 145.56 113.658C145.775 113.328 145.993 112.995 146.209 112.665C146.642 112.003 147.075 111.343 147.509 110.68C148.375 109.357 149.242 108.034 150.109 106.708C151.262 104.942 148.417 103.301 147.266 105.058Z" fill="#282E31"/>
<path d="M151.391 113.195C153.985 114.223 156.656 115.029 159.397 115.561C161.1 115.891 165.12 115.677 165.455 117.903C165.822 117.009 166.187 116.114 166.554 115.219C166.262 115.403 165.299 115.05 164.938 114.972C164.14 114.8 163.348 114.61 162.559 114.407C160.888 113.982 159.233 113.507 157.571 113.052C154.305 112.157 151.029 111.402 147.652 111.06C145.175 110.807 144.562 114.354 146.445 115.493C150.479 117.93 154.702 120.46 159.409 121.325C163.204 122.024 170.075 122.241 171.955 117.939C171.055 118.305 170.156 118.668 169.256 119.033C169.949 119.173 170.407 119.378 170.986 119.788C172.038 120.534 173.646 119.973 174.259 118.935C174.961 117.743 174.456 116.429 173.401 115.68C172.535 115.067 171.572 114.657 170.529 114.446C169.591 114.256 168.261 114.55 167.831 115.54C167.284 116.792 165.171 116.884 163.978 116.943C162.152 117.032 160.383 116.759 158.632 116.248C155.12 115.222 151.97 113.263 148.865 111.387C148.462 112.865 148.061 114.342 147.658 115.82C151.319 116.191 154.872 117.247 158.405 118.222C160.153 118.703 161.904 119.176 163.677 119.562C165.485 119.955 167.314 120.374 168.978 119.33C169.97 118.709 170.242 117.734 170.078 116.646C169.54 113.079 165.918 111.809 162.807 111.343C159.322 110.819 155.945 109.913 152.673 108.616C151.471 108.141 150.046 109.137 149.732 110.278C149.35 111.622 150.186 112.716 151.391 113.195Z" fill="#282E31"/>
<path d="M162.107 107.255C162.119 107.255 162.131 107.258 162.143 107.258C161.931 107.228 161.719 107.202 161.507 107.172C161.53 107.175 161.554 107.181 161.575 107.19C161.384 107.109 161.196 107.029 161.005 106.949C161.04 106.964 161.067 106.979 161.1 107.002C160.939 106.878 160.777 106.756 160.616 106.631C160.646 106.655 160.67 106.678 160.694 106.708C160.568 106.548 160.446 106.387 160.32 106.227C160.341 106.256 160.359 106.286 160.377 106.319C160.296 106.128 160.216 105.941 160.135 105.751C160.15 105.787 160.159 105.816 160.165 105.855C160.135 105.644 160.108 105.433 160.078 105.222C160.081 105.26 160.081 105.29 160.075 105.329C160.105 105.118 160.132 104.907 160.162 104.696C160.159 104.719 160.15 104.74 160.141 104.764C160.222 104.574 160.302 104.386 160.383 104.196C160.368 104.229 160.35 104.256 160.329 104.282C160.455 104.122 160.577 103.961 160.703 103.801C160.688 103.819 160.673 103.833 160.655 103.848C160.816 103.723 160.978 103.602 161.139 103.477C161.1 103.506 161.064 103.527 161.019 103.548C161.211 103.468 161.399 103.388 161.59 103.307C161.557 103.319 161.525 103.328 161.489 103.334C161.701 103.304 161.913 103.278 162.125 103.248C162.089 103.251 162.059 103.251 162.024 103.248C162.236 103.278 162.448 103.304 162.66 103.334C162.624 103.328 162.594 103.319 162.562 103.307C162.753 103.388 162.941 103.468 163.132 103.548C163.123 103.542 163.111 103.536 163.102 103.533C162.827 103.361 162.532 103.266 162.215 103.251C161.898 103.179 161.578 103.194 161.262 103.292C160.951 103.367 160.679 103.506 160.449 103.718C160.189 103.884 159.982 104.107 159.833 104.383C159.54 104.936 159.394 105.605 159.591 106.215C159.779 106.788 160.138 107.347 160.691 107.636C161.366 107.989 162.122 108.12 162.866 107.894C163.291 107.763 163.76 107.517 164.065 107.19C164.388 106.848 164.633 106.467 164.761 106.013C164.97 105.278 164.851 104.49 164.459 103.839C164.241 103.474 163.862 103.081 163.482 102.876C163.461 102.864 163.44 102.852 163.416 102.844C163.225 102.763 163.037 102.683 162.845 102.603C162.606 102.534 162.352 102.519 162.104 102.496C161.776 102.484 161.468 102.552 161.184 102.701C160.888 102.796 160.631 102.959 160.416 103.191C160.183 103.405 160.018 103.661 159.923 103.955C159.773 104.238 159.704 104.544 159.716 104.871C159.743 105.486 159.947 106.123 160.416 106.554C160.577 106.678 160.739 106.8 160.9 106.925C161.273 107.145 161.677 107.255 162.107 107.255Z" fill="#D979C9"/>
<path d="M146.63 104.321C144.454 103.56 142.362 102.62 140.36 101.476C139.451 100.956 138.567 100.4 137.703 99.811C137.072 99.377 135.294 98.4465 135.193 97.6171C134.939 95.5539 131.648 95.5302 131.905 97.6171C132.261 100.501 135.076 102.067 137.353 103.494C139.986 105.147 142.816 106.452 145.751 107.475C147.756 108.173 148.617 105.013 146.63 104.321Z" fill="#F0BEBA"/>
<path d="M131.631 97.534C130.54 99.2969 127.922 102.038 129.356 104.187C130.02 105.18 131.251 105.674 132.24 106.265C133.376 106.946 134.488 107.671 135.566 108.438C136.678 109.226 137.748 110.064 138.785 110.947C139.589 111.634 140.477 112.805 141.564 113.031C143.794 113.492 145.853 110.076 146.848 108.53C147.604 107.356 146.343 105.679 144.992 106.128C143.692 106.559 142.464 107.002 141.227 106.218C140.291 105.626 139.496 104.776 138.639 104.083C136.765 102.573 134.801 101.188 132.748 99.9271C130.901 98.7915 129.449 101.518 131.09 102.751C134.517 105.329 138.217 107.472 142.162 109.17C144.084 109.996 145.76 107.181 143.821 106.345C139.879 104.648 136.179 102.502 132.748 99.9271C132.195 100.869 131.642 101.809 131.09 102.751C133.663 104.333 135.994 106.146 138.307 108.076C140.692 110.064 142.951 110.252 145.868 109.282C145.249 108.483 144.631 107.68 144.012 106.88C143.528 107.633 143.002 108.343 142.389 108.997C142.213 109.187 142.034 109.369 141.845 109.547C141.382 109.892 141.663 110.055 142.694 110.044C142.724 109.984 141.777 109.217 141.711 109.158C140.348 107.96 138.917 106.83 137.443 105.772C136.009 104.74 134.517 103.795 132.987 102.909C132.775 102.793 132.566 102.674 132.36 102.549C132.145 102.371 132.118 102.433 132.276 102.736C132.282 102.433 132.808 101.874 132.96 101.628C133.463 100.813 133.965 99.9985 134.47 99.1869C135.581 97.3884 132.739 95.7444 131.631 97.534Z" fill="#F0BEBA"/>
<path d="M131.675 102.133C131.72 100.007 132.344 96.9988 130.931 95.1884C129.425 93.2591 126.932 93.4107 124.763 93.7377C125.052 94.79 125.345 95.8394 125.635 96.8918C127.593 96.5767 131.003 96.0951 131.427 98.7884C132.428 98.3693 133.429 97.9471 134.43 97.528C132.628 94.4363 128.615 93.7733 125.315 94.3055C123.489 94.6028 122.106 95.7919 121.678 97.6112C121.233 99.5049 122.139 101.306 123.403 102.665C124.066 101.809 124.73 100.953 125.396 100.096C124.99 99.8557 124.951 99.4514 125.253 99.1333C125.647 98.7201 126.858 98.943 127.336 99.0084C129.404 99.2908 130.3 96.1427 128.208 95.8543C126.066 95.56 123.481 95.4946 122.243 97.6409C121.179 99.493 121.947 101.859 123.735 102.918C125.372 103.887 126.977 101.693 125.728 100.349C125.202 99.7843 124.482 98.7647 125.026 97.9709C125.471 97.3229 126.642 97.418 127.36 97.421C128.938 97.4299 130.737 97.7034 131.591 99.1719C132.587 100.878 134.87 99.6535 134.595 97.9115C133.851 93.1966 128.4 93.1461 124.76 93.7317C122.668 94.0677 123.567 97.195 125.632 96.8859C126.807 96.7105 128.292 96.4429 128.471 97.8758C128.642 99.2344 128.415 100.762 128.385 102.133C128.346 104.241 131.633 104.238 131.675 102.133Z" fill="#F0BEBA"/>
<path d="M130.48 92.1623C126.971 91.6837 122.315 91.7996 121.293 96.0269C120.797 98.0722 123.968 98.9432 124.464 96.895C124.993 94.7129 127.928 95.0845 129.607 95.3134C131.675 95.5959 132.572 92.4477 130.48 92.1623Z" fill="#F0BEBA"/>
<path d="M132.177 92.6438C130.402 91.3774 128.902 89.8048 127.697 87.9914C127.369 88.7911 127.043 89.5937 126.714 90.3934C129.132 89.7602 130.599 92.8222 131.278 94.6148C132.081 93.9994 132.888 93.384 133.692 92.7687C131.263 91.5795 129.978 88.9278 127.485 87.706C124.975 86.4753 122.195 86.1423 119.446 85.845C118.137 85.7023 117.488 87.3195 118.026 88.3065C118.902 89.9148 120.453 90.0634 122.049 90.545C124.003 91.1366 125.599 92.9946 127.103 94.2937C128.692 95.6671 131.029 93.3632 129.428 91.9809C127.993 90.7442 126.598 89.3529 124.999 88.3243C124.302 87.8754 123.54 87.5544 122.739 87.3433C122.186 87.1976 121.161 87.1976 120.866 86.6566C120.393 87.4771 119.918 88.2976 119.446 89.1181C121.873 89.3797 124.503 89.6561 126.621 90.9671C128.675 92.2395 129.813 94.5107 132.034 95.5958C133.19 96.1606 134.995 95.1974 134.448 93.7497C133.089 90.1526 130.297 86.0799 125.841 87.2452C124.858 87.5038 124.272 88.7643 124.858 89.6472C126.388 91.9482 128.265 93.8656 130.518 95.4739C132.24 96.6957 133.884 93.8597 132.177 92.6438Z" fill="#F0BEBA"/>
<path d="M125.758 90.4529C122.055 90.5094 119.7 94.5583 121.801 97.7065C122.966 99.4515 125.815 97.8165 124.64 96.0566C123.953 95.028 124.425 93.7438 125.758 93.723C127.871 93.6903 127.877 90.4202 125.758 90.4529Z" fill="#F0BEBA"/>
<path d="M100.445 120.653C94.6206 121.364 91.1001 126.905 92.173 132.556C92.693 135.294 94.6445 136.831 97.1101 137.839C99.6473 138.877 102.606 139.545 105.158 138.163C109.48 135.823 110.947 128.225 108.368 124.244C106.939 122.036 104.285 120.606 101.629 121.188C98.954 121.774 97.125 124.259 96.5811 126.813C96.0103 129.494 95.7174 133.686 99.2648 134.292C102.806 134.899 104.288 131.415 104.253 128.51C104.226 126.343 101.709 125.514 100.17 126.828C98.8404 127.966 97.7078 129.37 97.6988 131.201C97.6898 132.94 98.8165 134.572 100.523 135.021C104.447 136.049 106.859 131.011 106.171 127.791C105.807 126.088 104.303 124.69 102.513 124.67C100.538 124.646 99.3754 126.206 98.8255 127.919C98.3055 129.539 97.9767 131.691 99.3096 133.02C100.858 134.56 103.359 133.618 103.924 131.691C104.788 128.748 100.173 127.491 99.3126 130.428C99.2887 130.508 99.2648 130.591 99.2409 130.672C99.6085 130.199 99.9731 129.723 100.341 129.251C100.251 129.289 100.164 129.325 100.075 129.364C100.687 129.283 101.303 129.203 101.916 129.123C101.823 129.096 101.727 129.072 101.635 129.045C102.11 129.411 102.588 129.774 103.063 130.139C103.126 130.568 103.162 130.63 103.171 130.327C103.183 130.101 103.225 129.878 103.296 129.661C103.377 129.337 103.434 129.034 103.691 128.828C103.338 129.034 102.988 129.236 102.636 129.441C101.895 128.617 101.512 128.466 101.485 128.986C101.467 129.176 101.425 129.364 101.366 129.545C101.351 129.604 101.001 130.49 101.019 130.55C101.506 130.767 101.99 130.987 102.477 131.204C102.427 131.358 102.465 131.317 102.591 131.079C102.911 130.939 103.284 130.422 103.55 130.193C102.191 129.631 100.831 129.072 99.468 128.51C99.468 128.591 99.3574 129.747 99.3993 129.809C99.3365 129.72 100.377 129.581 100.541 129.78C100.747 130.131 100.95 130.478 101.157 130.829C100.589 129.417 101.587 124.233 103.9 126.293C105.639 127.842 104.841 132.241 103.24 133.716C102.277 134.602 100.807 134.126 99.716 133.763C98.694 133.421 97.3073 133.047 96.9248 131.935C96.082 129.494 97.6599 125.752 100.445 125.413C101.727 125.255 102.836 124.432 102.836 123.035C102.836 121.866 101.736 120.496 100.445 120.653Z" fill="#F4F119"/>
<path d="M95.9924 122.88C93.3266 124.313 91.3034 126.887 90.5951 129.833C89.8241 133.041 90.9089 135.764 91.8802 138.775C92.2896 140.045 92.6333 141.279 92.0326 142.539C91.3661 143.936 90.4188 145.099 90.1498 146.665C89.8958 148.146 90.3112 149.48 90.9208 150.818C91.1241 151.264 91.659 151.957 91.65 152.453C91.6441 152.849 91.4976 152.884 91.1779 153.315C88.9723 156.264 91.1091 159.097 94.1604 160.07C97.2565 161.056 100.917 161.791 104.046 160.572C106.915 159.457 109.172 156.972 109.163 153.785C109.16 152.171 108.517 150.72 108.212 149.162C107.929 147.715 108.419 146.442 108.897 145.087C109.456 143.505 109.988 141.87 109.832 140.17C109.799 139.819 109.746 139.45 109.674 139.105C109.683 139.144 109.315 137.788 109.273 138.169C109.291 137.988 109.91 137.435 110.05 137.253C110.367 136.843 110.654 136.43 110.893 135.969C112.423 133.005 112.274 129.313 110.421 126.528C109.426 125.029 107.274 124.958 106.291 126.528C103.036 131.733 99.7818 136.941 96.5273 142.147C97.4268 141.781 98.3264 141.418 99.2259 141.053C99.2947 141.076 99.3634 141.097 99.4351 141.121C99.6413 141.472 99.8446 141.82 100.051 142.17C100.036 142.158 100.021 142.147 100.006 142.135C99.9462 138.998 95.577 139.168 95.2243 142.135C94.8418 145.375 94.4563 148.618 94.0737 151.859C95.6666 151.859 97.2625 151.859 98.8554 151.859C98.2995 147.414 98.1351 142.952 98.3682 138.478C96.7754 138.478 95.1795 138.478 93.5866 138.478C93.9183 141.814 93.999 145.152 93.8317 148.499C93.7151 150.839 97.1967 151.764 98.2875 149.7C99.9611 146.537 101.243 143.193 102.068 139.715C100.532 139.715 98.9928 139.715 97.4567 139.715C97.9857 142.673 98.1829 145.654 98.1172 148.657C98.0694 150.833 100.708 151.639 102.2 150.34C104.142 148.645 105.481 146.386 106.049 143.877C104.483 143.666 102.917 143.455 101.354 143.244C101.381 144.816 101.408 146.389 101.434 147.964C101.479 150.613 105.427 151.237 106.129 148.598C106.972 145.432 107.319 142.164 107.107 138.897C106.906 135.809 102.618 135.868 102.325 138.897C101.871 143.582 101.354 149.498 97.2505 152.614C98.422 153.509 99.5905 154.403 100.762 155.298C101.372 153.806 101.115 152.364 100.49 150.937C100.108 150.063 98.682 149.498 97.7915 149.843C94.9434 150.946 94.1963 154.567 96.5154 156.663C97.7646 157.792 99.6234 157.962 101.192 157.537C102.974 157.055 104.244 155.747 105.798 154.849C104.599 154.166 103.398 153.479 102.2 152.795C102.122 153.636 102.041 154.478 101.963 155.319C101.844 156.6 103.147 157.697 104.354 157.697C105.747 157.697 106.626 156.603 106.745 155.319C106.823 154.478 106.903 153.636 106.981 152.795C107.154 150.946 104.838 149.903 103.383 150.741C102.358 151.332 101.473 152.248 100.403 152.753C100.371 152.768 99.4142 153.122 99.4351 153.003C99.6473 153.072 99.7908 153.193 99.8655 153.369C100.155 153.737 99.8864 154.088 99.0556 154.427C98.156 154.062 97.2565 153.699 96.357 153.333C96.4197 153.479 96.1597 154.005 96.1478 154.032C95.3947 155.878 98.0485 157.941 99.6593 156.716C105.37 152.382 106.452 145.595 107.104 138.894C105.511 138.894 103.915 138.894 102.322 138.894C102.507 141.766 102.259 144.549 101.515 147.331C103.081 147.542 104.647 147.753 106.21 147.964C106.183 146.392 106.156 144.819 106.129 143.244C106.085 140.636 102.041 139.92 101.434 142.61C101.031 144.388 100.194 145.77 98.8165 146.974C100.176 147.536 101.536 148.095 102.899 148.657C102.974 145.226 102.672 141.826 102.068 138.448C101.65 136.109 97.9767 136.254 97.4567 138.448C96.7245 141.543 95.6457 144.486 94.1574 147.298C95.6427 147.7 97.128 148.098 98.6133 148.499C98.7807 145.152 98.7 141.814 98.3682 138.478C98.0694 135.47 93.748 135.372 93.5866 138.478C93.3565 142.949 93.5179 147.414 94.0737 151.859C94.4533 154.9 98.4938 154.927 98.8554 151.859C99.2379 148.618 99.6234 145.375 100.006 142.135C98.4131 142.135 96.8172 142.135 95.2243 142.135C95.2572 143.823 96.2793 145.238 97.9588 145.64C99.0167 145.892 100.084 145.464 100.657 144.546C103.912 139.34 107.166 134.132 110.421 128.927C109.043 128.927 107.669 128.927 106.291 128.927C107.361 130.535 107.528 132.651 106.348 134.275C105.526 135.41 104.623 136.243 104.572 137.756C104.531 138.957 105.215 140.057 105.057 141.255C104.731 143.71 103.263 145.803 103.314 148.363C103.341 149.632 103.712 150.857 104.049 152.067C104.312 153.015 104.635 154.059 104.034 154.944C102.693 156.927 99.6593 156.526 97.6958 156.077C97.0025 155.92 96.2882 155.759 95.6128 155.533C95.4933 155.494 95.2781 155.387 95.1526 155.387C94.5758 155.399 94.7432 154.611 94.7999 155.735C94.8537 156.799 94.8179 156.202 95.1197 155.952C95.3319 155.777 95.4933 155.503 95.6487 155.268C96.0043 154.73 96.2554 154.154 96.3809 153.523C96.614 152.361 96.3271 151.243 95.8728 150.176C95.5501 149.424 94.7701 148.392 94.8268 147.53C94.8866 146.638 95.7682 145.699 96.1627 144.935C96.8112 143.686 97.2027 142.349 97.1609 140.931C97.0742 138.05 95.293 135.592 95.0809 132.773C94.8956 130.336 96.2912 128.124 98.4071 126.985C101.115 125.529 98.7029 121.42 95.9924 122.88Z" fill="#F4F119"/>
<path d="M111.578 126.644C110.448 124.417 108.47 122.85 106.141 122.003C104.964 121.575 103.47 122.482 103.201 123.665C102.893 125.009 103.61 126.132 104.871 126.59C105.571 126.843 104.692 126.483 105.072 126.67C105.251 126.76 105.427 126.852 105.598 126.956C105.642 126.982 106.129 127.301 105.947 127.173C105.792 127.063 106.261 127.443 106.261 127.44C106.378 127.547 106.491 127.66 106.602 127.773C106.596 127.767 106.996 128.231 106.88 128.076C106.745 127.901 107.077 128.374 107.104 128.418C107.229 128.621 107.343 128.832 107.45 129.043C108.03 130.19 109.656 130.514 110.723 129.896C111.894 129.215 112.163 127.794 111.578 126.644Z" fill="#F4F119"/>
<path d="M94.6475 126.097C99.0377 125.829 103.305 126.299 107.552 127.422C108.879 127.773 110.824 127.963 111.249 126.207C111.607 124.72 110.095 123.388 109.076 122.547C106.727 120.609 103.652 119.574 100.601 119.678C98.6731 119.744 92.7229 120.76 93.9333 123.861C94.2321 124.622 94.9195 125.113 95.7712 124.899C98.5296 124.209 101.318 124.123 104.106 124.679C105.983 125.053 106.787 122.187 104.901 121.813C101.581 121.153 98.2607 121.212 94.9763 122.033C95.5889 122.378 96.2016 122.725 96.8142 123.07C97.0174 123.59 96.1807 123.757 96.9547 123.567C97.1997 123.507 97.4538 123.326 97.6899 123.234C98.2427 123.02 98.8285 122.865 99.4142 122.767C100.517 122.58 101.686 122.595 102.785 122.806C103.837 123.008 104.856 123.359 105.789 123.882C106.527 124.295 108.215 125.267 108.368 126.207C108.419 125.826 108.469 125.443 108.517 125.062C109.061 124.747 109.004 124.58 108.347 124.557C107.988 124.456 107.627 124.36 107.265 124.268C106.721 124.132 106.177 124.007 105.627 123.894C104.492 123.662 103.344 123.483 102.194 123.341C99.6862 123.032 97.1698 122.972 94.6505 123.124C92.7379 123.243 92.7229 126.215 94.6475 126.097Z" fill="#F4BECE"/>
<path d="M103.003 120.796C103 120.638 102.988 120.695 102.967 120.966C102.934 121.037 102.902 121.108 102.869 121.18C102.991 120.948 102.621 121.417 102.818 121.239C102.624 121.42 102.34 121.518 102.065 121.429C101.99 121.397 101.915 121.367 101.841 121.334C101.969 121.414 101.924 121.379 101.709 121.23C101.661 121.168 101.617 121.102 101.569 121.04C101.596 121.078 101.62 121.12 101.64 121.165C101.608 121.09 101.575 121.019 101.542 120.945C101.566 121.058 101.566 121.037 101.539 120.888C101.506 120.76 101.512 120.636 101.557 120.508C101.548 120.555 101.533 120.6 101.512 120.644C101.377 120.98 101.488 121.492 101.661 121.789C101.844 122.098 102.199 122.392 102.555 122.473C102.937 122.559 103.368 122.541 103.706 122.324C104.052 122.101 104.24 121.816 104.393 121.435C104.614 120.876 104.509 120.145 104.208 119.634C103.894 119.099 103.398 118.7 102.791 118.549C101.404 118.201 99.9669 119.384 100.018 120.799C100.048 121.575 100.684 122.321 101.512 122.285C102.292 122.247 103.033 121.628 103.003 120.796Z" fill="#F4BECE"/>
<path d="M117.534 103.646C117.456 107.338 117.647 111.015 118.107 114.678C118.341 116.551 121.332 116.575 121.096 114.678C120.639 111.015 120.447 107.335 120.522 103.646C120.561 101.731 117.572 101.734 117.534 103.646Z" fill="#F4BECE"/>
<path d="M114.644 110.513C114.103 112.535 114.686 114.696 116.219 116.141C117.614 117.455 119.733 115.356 118.332 114.039C117.558 113.31 117.25 112.335 117.525 111.304C118.021 109.452 115.14 108.664 114.644 110.513Z" fill="#F4BECE"/>
<path d="M116.207 113.094C116.287 113.453 116.21 112.773 116.222 113.141C116.225 113.254 116.225 113.364 116.222 113.477C116.216 113.777 116.314 113.218 116.213 113.525C116.177 113.632 116.153 113.742 116.117 113.849C115.863 114.586 116.407 115.508 117.16 115.677C117.991 115.864 118.726 115.427 118.998 114.639C119.261 113.881 119.258 113.079 119.088 112.303C118.92 111.542 117.988 111.028 117.25 111.265C116.446 111.524 116.027 112.279 116.207 113.094Z" fill="#F4BECE"/>
<path d="M115.51 115.314C115.702 116.492 116.745 117.22 117.856 117.437C118.451 117.553 119.016 117.532 119.608 117.419C120.104 117.324 120.967 116.914 121.443 117.175C123.128 118.103 124.637 115.534 122.952 114.61C121.918 114.039 120.884 114.072 119.754 114.327C119.369 114.417 119.004 114.497 118.615 114.547C118.505 114.562 118.409 114.497 118.302 114.494C118.257 114.494 118.469 115.002 118.391 114.521C118.263 113.721 117.271 113.293 116.553 113.483C115.702 113.709 115.382 114.527 115.51 115.314Z" fill="#F4BECE"/>
<path d="M122.829 112.151C122.829 112.023 122.838 111.889 122.832 111.762C122.808 111.334 122.913 111.64 122.796 111.672C122.273 111.821 122.954 112.166 121.986 111.539C121.176 111.013 121.574 111.045 121.427 111.345C121.293 111.619 121.266 112.011 121.194 112.309C121.096 112.71 121 113.111 120.901 113.516C120.45 115.374 123.331 116.167 123.782 114.306C124.168 112.722 125.214 110.249 123.349 109.193C122.473 108.697 121.308 108.967 120.62 109.66C119.963 110.323 119.831 111.265 119.84 112.154C119.855 114.063 122.844 114.066 122.829 112.151Z" fill="#F4BECE"/>
<path d="M126.021 114.437C126.129 114.226 126.239 114.015 126.347 113.807C125.486 113.807 124.625 113.807 123.768 113.807C123.801 113.875 123.822 114.14 123.75 114.229C124.584 114.711 125.414 115.192 126.248 115.674C126.424 114.467 126.604 113.263 126.78 112.056C126.897 111.262 126.583 110.46 125.737 110.228C125.035 110.035 124.016 110.466 123.899 111.265C123.723 112.472 123.544 113.676 123.367 114.883C123.269 115.549 123.433 116.2 124.055 116.563C124.581 116.869 125.459 116.839 125.866 116.331C126.834 115.115 127.028 113.715 126.35 112.306C125.872 111.316 124.258 111.354 123.771 112.306C123.663 112.517 123.553 112.728 123.445 112.936C122.563 114.636 125.142 116.144 126.021 114.437Z" fill="#F4BECE"/>
<path d="M125.659 114.197C125.543 115.124 123.28 114.729 122.536 114.726C121.254 114.72 119.972 114.717 118.69 114.711C116.765 114.705 116.765 117.678 118.69 117.684C121.006 117.693 123.492 117.96 125.794 117.69C127.775 117.455 128.424 115.974 128.648 114.197C128.887 112.303 125.898 112.321 125.659 114.197Z" fill="#F4BECE"/>
<path d="M72.4608 87.935C65.3721 85.5716 62.0458 96.7969 67.0337 100.697C69.2751 102.448 72.7746 102.546 75.4733 102.044C79.1581 101.36 79.8514 97.4509 79.7976 94.2492C79.7379 90.7026 77.6011 88.5682 74.1673 88.0509C71.0383 87.5812 67.9661 88.3601 66.938 91.6658C66.1252 94.2789 66.2477 99.1186 68.8925 100.709C71.4447 102.246 75.0698 101.378 76.9735 99.2078C78.7158 97.222 78.8921 93.5179 75.9873 92.4804C73.3544 91.541 69.9624 93.9995 71.2774 96.8741C72.5804 99.7191 76.6268 98.964 76.8121 95.8515C76.9914 92.8401 73.6114 91.205 70.9576 91.2912C68.0916 91.3864 67.4879 95.3105 68.7999 97.3052C70.599 100.049 74.9831 97.7511 76.3698 95.7712C77.1169 94.707 77.5353 93.1998 76.8599 91.9839C76.068 90.554 74.3018 90.5183 73.0047 91.2377C71.7974 91.9066 70.7066 93.1017 70.7454 94.5554C70.7843 95.9288 71.8751 97.0495 73.1811 97.3676C76.8659 98.2624 78.2974 93.4317 76.1636 91.0802C74.1404 88.8506 69.296 88.4166 68.3785 91.9601C67.4102 95.6939 72.0663 97.0674 74.2509 94.4216C75.2312 93.2325 75.3238 91.3507 73.9132 90.441C72.7746 89.7067 71.1997 89.9832 70.5512 91.2021C69.6516 92.8906 72.2307 94.3948 73.1303 92.7033C73.1332 92.6974 71.2266 92.7806 71.2654 92.852C71.0323 92.4209 72.0693 92.2812 72.2188 92.2782C73.0077 92.2633 74.4303 92.9709 74.2808 93.9281C74.2211 94.3205 73.5845 94.701 73.8893 94.2432C74.0238 94.0411 74.4063 93.9935 74.5109 93.8003C74.4601 93.7349 74.4093 93.6665 74.3615 93.6011C74.2151 93.3008 74.1404 93.3395 74.1374 93.72C73.3185 94.4156 72.9181 95.4561 71.6001 95.4918C71.1399 95.5037 71.1728 95.5453 71.1907 94.9983C71.1967 94.8526 71.122 94.6059 71.1787 94.4692C71.3043 94.157 71.1877 94.3205 71.2983 94.2789C71.5553 94.1778 72.3742 94.4959 72.6342 94.5851C72.8523 94.6594 73.3574 94.817 73.5397 95.0221C73.6234 95.1143 73.7698 95.471 73.8385 95.5156C74.1224 95.7148 73.4142 95.6999 74.0149 95.7029C73.9103 95.7029 74.2091 95.3818 74.1942 95.3907C74.6126 95.1737 75.0997 95.1767 75.285 95.688C75.5928 96.5442 74.5259 97.5519 73.9013 97.9325C73.0914 98.4259 71.9827 98.6667 71.0502 98.4051C69.7592 98.0425 69.6875 96.5204 69.5978 95.3699C69.5141 94.3175 69.4813 92.9709 69.9983 92.0017C70.5751 90.9196 71.7406 90.7978 72.8583 90.8691C73.7967 90.9286 75.1684 91.0742 75.9126 91.7223C76.851 92.5398 76.8599 93.9846 76.7852 95.1143C76.7254 96.0388 76.6776 97.9889 75.9126 98.7054C75.2043 99.3683 73.8355 99.2613 72.936 99.2702C70.327 99.2999 67.9691 98.6667 67.6852 95.7177C67.461 93.4079 68.6654 89.793 71.6719 90.7948C73.4949 91.4102 74.2778 88.5384 72.4608 87.935Z" fill="#B45741"/>
<path d="M77.6816 86.1629C74.0834 83.6361 69.1404 84.7003 65.8411 87.2242C64.0689 88.5798 63.3516 90.2743 63.5399 92.492C63.7312 94.7097 64.1316 96.8442 65.5422 98.6338C68.2976 102.127 73.3602 103.146 77.5381 102.026C81.985 100.834 84.089 97.0612 82.8816 92.6585C82.266 90.417 81.214 87.9674 79.2446 86.591C77.2273 85.1849 74.5466 85.2444 72.4875 86.5197C71.6179 87.0607 71.4176 88.6006 72.4875 89.0852C74.5675 90.0335 80.4131 91.6537 79.4299 94.8524C80.4071 94.9832 81.3873 95.117 82.3646 95.2478C82.4064 94.0973 82.0119 93.1758 81.2319 92.3374C80.7239 91.7904 79.6152 91.731 79.1191 92.3374C78.4855 93.1104 78.0522 93.8595 77.8011 94.8316C77.32 96.6866 80.2009 97.4744 80.6821 95.6224C80.7986 95.1735 80.9331 94.8048 81.2319 94.4392C80.5266 94.4392 79.8243 94.4392 79.1191 94.4392C79.3701 94.6592 79.4538 94.9297 79.3761 95.2478C79.3163 96.9601 81.8267 97.2158 82.3108 95.6432C83.9216 90.4051 77.6368 88.1755 73.9937 86.5197C73.9937 87.3758 73.9937 88.232 73.9937 89.0852C77.837 86.701 80.4101 92.3761 80.2906 95.4737C80.1381 99.4335 74.6901 99.9121 71.7643 99.1867C70.0429 98.7587 68.4231 97.7806 67.4907 96.2437C66.6868 94.9208 65.9277 91.9212 66.7316 90.4854C67.4788 89.1506 69.6186 88.2974 71.0112 87.9347C72.8402 87.4591 74.6094 87.6315 76.1694 88.7285C77.7473 89.8343 79.2416 87.2569 77.6816 86.1629Z" fill="#B45741"/>
<path d="M82.0183 97.4805C81.8599 97.2486 81.6985 97.0167 81.5401 96.7819C81.1785 96.2527 80.5091 95.887 79.8516 96.0981C78.3006 96.5975 77.5833 98.3426 78.3484 99.7784C78.716 100.465 79.7351 100.736 80.3925 100.311C81.0948 99.8587 81.322 99.0114 80.9275 98.2772C80.8319 98.0988 80.9813 98.399 80.9903 98.4288C80.9036 98.1672 81.0351 98.732 81.0082 98.5715C80.9992 98.518 81.0291 98.3128 80.9962 98.5863C80.9574 98.9074 81.0231 98.5893 81.0231 98.5685C81.0231 98.5923 80.8767 98.9074 80.9693 98.7231C81.056 98.5536 80.8976 98.8152 80.8677 98.8479C81.0291 98.6725 80.6137 98.9906 80.7631 98.9163C80.9096 98.845 80.3776 99.0471 80.6406 98.9609C80.0788 98.732 79.5169 98.5061 78.9521 98.2772C79.1105 98.509 79.2719 98.7409 79.4302 98.9758C79.8696 99.6179 80.7631 99.9657 81.4744 99.5079C82.1229 99.1036 82.4905 98.1672 82.0183 97.4805Z" fill="#B45741"/>
<path d="M79.4717 96.7253C79.4329 97.7331 78.614 98.5238 78.0163 99.27C77.2961 100.171 76.7043 101.036 76.3517 102.142C76.3158 102.267 76.2859 102.391 76.265 102.519C76.2172 102.784 76.2112 102.787 76.2531 102.531C76.525 102.498 75.5179 102.234 75.4253 102.222C74.5675 102.1 73.7098 101.981 72.8521 101.859C72.0901 101.752 71.328 101.645 70.5659 101.538C70.0907 101.47 69.6126 101.404 69.1374 101.336C68.6652 101.271 68.202 100.956 68.4231 101.568C68.3723 101.948 68.3215 102.332 68.2737 102.712C68.3096 102.638 68.3454 102.567 68.3813 102.492C69.2271 100.78 66.648 99.273 65.8022 100.991C64.5889 103.453 67.431 104.071 69.2032 104.321C70.536 104.508 71.8719 104.695 73.2048 104.883C74.3733 105.046 75.7151 105.43 76.8926 105.37C79.128 105.257 78.9637 102.924 80.0186 101.511C81.1692 99.9716 82.3855 98.7498 82.4662 96.7193C82.5349 94.8108 79.5464 94.8138 79.4717 96.7253Z" fill="#B45741"/>
<path d="M65.8831 97.5281C65.1001 98.9937 64.8909 100.516 65.1419 102.145C65.2644 102.939 66.2656 103.379 66.9799 103.182C67.8316 102.95 68.1484 102.151 68.0228 101.354C67.9003 100.557 68.0886 99.7309 68.4622 99.0294C69.3647 97.3408 66.7856 95.8366 65.8831 97.5281Z" fill="#B45741"/>
<path d="M79.8393 84.329C75.5119 83.4223 71.6417 85.7173 68.4201 88.3779C65.4376 90.8424 62.9123 94.047 62.8137 98.0484C63.3127 97.552 63.8088 97.0585 64.3079 96.562C63.6176 96.4907 62.6762 96.2231 61.9918 96.3242C61.8304 96.3093 61.6661 96.2915 61.5047 96.2766C61.8932 96.6661 61.9679 96.5442 61.7348 95.9169C61.8812 94.7516 61.6242 93.5744 61.8424 92.3763C62.2249 90.2716 63.1783 88.2769 64.7084 86.7548C66.119 85.3516 67.942 84.3557 69.9204 84.0377C71.1994 83.8325 72.5413 83.9604 73.7995 84.219C74.3374 84.329 74.8664 84.4687 75.3953 84.6144C75.9422 84.769 77.042 84.9087 77.4544 85.3189C77.308 84.9681 77.1615 84.6174 77.0181 84.2666C77.0241 84.3736 77.0271 84.4806 77.033 84.5876C77.5321 84.0912 78.0282 83.5977 78.5273 83.1012C72.7595 83.3331 65.3688 84.656 63.8925 91.3002C63.5219 92.9709 65.6677 93.8449 66.624 92.4447C68.1033 90.2805 69.747 88.2679 71.564 86.3772C72.3859 85.5211 71.9526 84.2755 70.9036 83.892C65.4914 81.921 63.0109 89.9951 62.3714 93.7587C62.1054 95.3283 64.2093 96.4699 65.1029 94.9032C66.1787 93.0185 67.0125 91.0297 67.5953 88.9428C68.0197 87.4266 66.1847 86.5764 65.0969 87.498C63.0468 89.2311 61.69 91.6302 61.3045 94.2819C61.0325 96.1429 63.8746 96.9723 64.1854 95.0727C64.5261 93.0036 65.1626 91.0713 66.1698 89.2252C66.9498 87.7953 64.9923 86.1156 63.8238 87.4237C62.2907 89.1419 61.173 91.0445 60.4169 93.2176C61.3941 93.3484 62.3744 93.4822 63.3516 93.613C63.2829 92.1772 63.5399 90.9078 64.2272 89.6384C64.9953 88.2263 62.975 86.4575 61.8812 87.8369C60.653 89.3827 59.9925 90.988 59.8162 92.956C59.7056 94.1689 61.1431 94.6892 62.0635 94.2403C62.7449 93.9073 63.2619 93.396 63.5757 92.7033C64.3587 90.9732 61.7826 89.46 60.9966 91.2021C60.9608 91.4667 60.8143 91.6242 60.5573 91.6718C61.3075 92.0999 62.0576 92.5279 62.8047 92.956C62.9033 91.8502 63.3008 90.8156 63.9971 89.9416C63.2141 89.3411 62.4311 88.7406 61.6511 88.1401C60.7217 89.8495 60.2734 91.6688 60.3661 93.613C60.4497 95.3105 62.7479 95.6018 63.3008 94.0084C63.8806 92.3377 64.7592 90.8483 65.9397 89.5254C65.1567 88.9249 64.3737 88.3244 63.5937 87.7239C62.467 89.787 61.69 91.9631 61.3104 94.2819C62.2698 94.5465 63.2321 94.8081 64.1914 95.0727C64.5141 92.855 65.4974 91.0534 67.2158 89.5997C66.382 89.1182 65.5511 88.6366 64.7174 88.155C64.1973 90.007 63.4771 91.7342 62.5238 93.4049C63.4353 93.7854 64.3438 94.1689 65.2553 94.5494C65.587 92.5993 67.0066 85.6281 70.1146 86.7637C69.8935 85.9343 69.6753 85.1079 69.4542 84.2785C67.4638 86.3505 65.6647 88.5771 64.0449 90.9494C64.9564 91.3299 65.8649 91.7134 66.7764 92.0939C67.936 86.8826 74.1282 86.2554 78.5303 86.08C79.3073 86.0473 80.0634 85.423 80.0245 84.5936C79.9379 82.7385 78.2494 82.364 76.7192 81.9062C74.8664 81.3532 72.9089 80.9222 70.9604 80.9757C67.7477 81.0678 64.6546 82.5156 62.4371 84.8165C60.0732 87.2691 58.824 90.5719 58.6805 93.943C58.6238 95.2897 58.5251 97.436 59.5263 98.4973C60.5812 99.618 62.9272 99.3951 64.3049 99.5348C65.1238 99.618 65.7813 98.7857 65.7992 98.0484C65.8769 95.0191 67.9778 92.6558 70.1774 90.774C72.5532 88.7495 75.754 86.5051 79.0443 87.1948C80.9211 87.5872 81.722 84.7244 79.8393 84.329Z" fill="#2B5741"/>
<path d="M62.2938 97.4596C64.2155 97.4596 64.2214 94.4868 62.2938 94.4868C60.3722 94.4868 60.3692 97.4596 62.2938 97.4596Z" fill="#2B5741"/>
<path d="M59.4665 92.3969C58.1576 93.913 59.1318 96.0415 57.6286 97.3287C56.8337 98.0095 57.1923 99.6535 58.2891 99.814C59.7624 100.028 61.2357 100.242 62.7091 100.456C63.7461 100.608 64.9684 100.97 65.8381 100.168C66.627 99.4394 66.5583 98.0987 66.7346 97.1296C66.9737 95.8156 67.2845 94.5135 67.7208 93.253C68.1333 92.0639 68.6802 90.9194 69.3944 89.8819C70.0997 88.8593 71.1009 88.1398 71.845 87.1618C73.139 85.4614 72.4517 82.4618 69.9264 82.6253C68.0167 82.7502 68.0018 85.723 69.9264 85.5981C69.3914 85.6338 69.4362 85.5476 69.0089 85.8478C68.7728 86.0143 68.5546 86.267 68.3544 86.4751C67.945 86.8972 67.5684 87.3521 67.2158 87.8218C66.4328 88.8622 65.8291 89.9978 65.327 91.1959C64.8489 92.3404 64.4753 93.5176 64.1884 94.7246C64.042 95.337 63.9194 95.9553 63.8089 96.5736C63.7222 97.0642 63.767 97.956 63.4891 98.3662C63.7879 98.1373 64.0838 97.9114 64.3827 97.6825C63.7909 97.8757 62.47 97.4387 61.8454 97.3495C60.9249 97.2158 60.0045 97.082 59.084 96.9482C59.3052 97.7776 59.5233 98.6041 59.7445 99.4335C60.4557 98.827 61.0206 98.0452 61.2955 97.1444C61.4121 96.7669 61.4778 96.3477 61.5077 95.9523C61.5346 95.6253 61.3553 94.7632 61.5794 94.5016C62.8256 93.0568 60.7217 90.9432 59.4665 92.3969Z" fill="#2B5741"/>
<path d="M77.8878 93.1639C77.9715 93.4047 78.0492 93.6485 78.112 93.8953C78.1419 94.0201 78.1688 94.145 78.1897 94.2698C78.1987 94.3263 78.2076 94.4214 78.1987 94.3114C78.2046 94.3798 78.2136 94.4482 78.2166 94.5166C78.2255 94.6414 78.2255 94.7663 78.2196 94.8911C78.2166 94.9476 78.2136 95.0041 78.2076 95.0606C78.1897 95.2717 78.2435 94.9238 78.1957 95.1319C78.1688 95.2538 78.1389 95.3727 78.097 95.4916C78.0432 95.6462 78.0492 95.5214 78.0941 95.5065C78.0821 95.5095 78.0283 95.6343 78.0193 95.6462C77.9984 95.6849 77.9745 95.7235 77.9476 95.7592C77.8908 95.8424 77.9207 95.8335 77.9536 95.7592C77.9147 95.8424 77.8012 95.9316 77.7324 95.9911C77.7145 96.0059 77.6009 96.11 77.6846 96.0357C77.7683 95.9613 77.6518 96.0594 77.6308 96.0713C77.577 96.107 77.4216 96.2319 77.3559 96.2259C77.4097 96.2319 77.4874 96.1813 77.3649 96.217C77.323 96.2289 77.2842 96.2438 77.2423 96.2556C77.2334 96.2586 77.0959 96.2943 77.0929 96.2883C77.0929 96.2883 77.2842 96.2794 77.1168 96.2794C77.075 96.2794 77.0331 96.2765 76.9913 96.2794C76.8329 96.2883 77.1318 96.3181 76.9913 96.2824C76.9435 96.2705 76.8927 96.2556 76.8449 96.2438C76.7014 96.2111 76.9763 96.3092 76.8329 96.2408C76.4803 96.0713 76.0081 96.1338 75.8108 96.5083C75.6345 96.8413 75.7032 97.3437 76.0798 97.525C77.2423 98.0839 78.5304 97.5458 79.2297 96.5291C79.9858 95.4292 79.7467 93.9428 79.3313 92.7656C79.2028 92.3999 78.8143 92.1175 78.4108 92.2454C78.0462 92.3672 77.7504 92.7715 77.8878 93.1639Z" fill="#883F41"/>
<path d="M73.71 100.156C74.1105 100.736 74.5707 101.348 75.2133 101.678C75.548 101.85 75.9484 101.981 76.331 101.946C76.7523 101.907 77.102 101.743 77.4218 101.47C77.9687 101.003 78.2257 100.189 77.8999 99.5286C77.5054 98.726 76.4894 98.6665 75.7123 98.7943C75.3208 98.8597 74.9503 99.0441 74.7052 99.3592C74.4093 99.7397 74.3555 100.239 74.5677 100.673C74.8726 101.297 75.6526 101.517 76.2921 101.559C76.6717 101.586 77.1169 101.544 77.4427 101.339C77.8999 101.054 78.0912 100.498 77.9298 99.9894C77.7894 99.5465 77.4905 99.2135 77.1229 98.94C76.8121 98.7081 76.4535 98.5119 76.0739 98.4168C75.5719 98.2949 75.0339 98.3395 74.5857 98.61C74.1284 98.8835 73.8236 99.3324 73.7788 99.8646C73.6921 100.869 74.9503 101.749 75.8349 101.155C76.1576 100.938 76.331 100.492 76.1038 100.138C75.8976 99.817 75.4284 99.6386 75.0818 99.8705C75.0698 99.8794 75.0399 99.8943 75.025 99.9062C75.1027 99.8289 75.1923 99.8467 75.1146 99.8675C74.9921 99.9002 75.2969 99.8646 75.2073 99.8586C75.1864 99.8556 75.1654 99.8556 75.1445 99.8586C75.0579 99.8616 75.3298 99.9032 75.2521 99.8705C75.2342 99.8616 75.2103 99.8556 75.1923 99.8527C75.1087 99.8319 75.3716 99.9508 75.267 99.8824C75.2402 99.8646 75.1535 99.8051 75.2611 99.8854C75.3776 99.9775 75.2491 99.8646 75.2252 99.8437C75.1595 99.7873 75.3328 100.013 75.27 99.9032C75.2581 99.8854 75.2461 99.8646 75.2372 99.8467C75.1774 99.7486 75.3059 100.037 75.2551 99.8705C75.2312 99.7992 75.2999 99.8229 75.267 99.9716C75.267 99.9537 75.267 99.9389 75.267 99.921C75.27 99.8616 75.2641 99.8973 75.2491 100.028C75.2581 100.01 75.2611 99.9745 75.267 99.9567C75.282 99.8913 75.3238 99.9002 75.2312 100.031C75.2551 99.9954 75.291 99.9448 75.3029 99.9032C75.2581 100.019 75.2043 100.019 75.2551 99.9686C75.273 99.9508 75.288 99.9329 75.3089 99.9151C75.3268 99.9002 75.3507 99.8824 75.3657 99.8646C75.2431 100.007 75.273 99.9329 75.3388 99.8943C75.3597 99.8824 75.3836 99.8705 75.4045 99.8586C75.5091 99.7962 75.3388 99.8973 75.3328 99.8854C75.3328 99.8824 75.4912 99.8378 75.4972 99.8348C75.6645 99.7992 75.3179 99.8437 75.4882 99.8378C75.5181 99.8378 75.548 99.8378 75.5779 99.8378C75.7512 99.8437 75.4912 99.814 75.5629 99.8289C75.6227 99.8408 75.6825 99.8527 75.7422 99.8705C75.7721 99.8794 75.802 99.8883 75.8319 99.8973C75.8379 99.9002 75.8468 99.9032 75.8528 99.9062C75.9275 99.9359 75.9126 99.927 75.805 99.8824C75.8199 99.9091 75.9425 99.9478 75.9723 99.9656C76.0411 100.004 76.1098 100.043 76.1756 100.088C76.2294 100.123 76.2802 100.159 76.331 100.195C76.3937 100.239 76.3579 100.257 76.2831 100.159C76.2951 100.177 76.325 100.195 76.3399 100.209C76.3788 100.245 76.4116 100.284 76.4475 100.322C76.5342 100.412 76.3967 100.263 76.4057 100.263C76.4146 100.263 76.4654 100.352 76.4714 100.361C76.4834 100.382 76.4953 100.406 76.5073 100.426C76.57 100.533 76.4684 100.346 76.4774 100.349C76.4864 100.355 76.4923 100.403 76.4983 100.417C76.5402 100.525 76.4714 100.322 76.4894 100.319C76.5013 100.316 76.4744 100.507 76.5013 100.316C76.5192 100.186 76.5073 100.26 76.4983 100.296C76.4804 100.361 76.5611 100.165 76.582 100.141C76.6298 100.085 76.6358 100.076 76.5969 100.117C76.6268 100.096 76.6567 100.073 76.6866 100.052C76.57 100.138 76.8151 100.022 76.7254 100.04C76.6956 100.046 76.6687 100.055 76.6388 100.061C76.4565 100.099 76.7733 100.055 76.6358 100.064C76.5372 100.07 76.4385 100.076 76.3399 100.07C76.325 100.07 76.1935 100.073 76.1875 100.058C76.1845 100.055 76.3997 100.09 76.2831 100.07C76.2592 100.067 76.2383 100.061 76.2144 100.058C76.1158 100.04 76.0172 100.013 75.9245 99.9805C75.7661 99.924 76.053 100.046 75.9574 99.9954C75.9215 99.9775 75.8857 99.9597 75.8528 99.9389C75.7123 99.8497 75.9783 100.064 75.8797 99.9627C75.8677 99.9508 75.8558 99.9359 75.8408 99.924C75.7482 99.8408 75.9126 100.001 75.9006 100.004C75.8677 100.013 75.8349 99.7575 75.9156 100.058C75.8797 99.93 75.9185 100.269 75.9215 100.132C75.9245 99.9924 75.8767 100.337 75.9126 100.192C75.9365 100.105 75.9574 100.171 75.8767 100.263C75.8946 100.242 75.9574 100.144 75.8737 100.254C75.7602 100.4 76.0052 100.156 75.8588 100.272C75.7333 100.37 75.9006 100.239 75.9305 100.245C75.9395 100.245 75.7333 100.31 75.8528 100.281C75.8767 100.275 75.9006 100.266 75.9215 100.26C75.9723 100.245 76.059 100.248 76.1038 100.221C76.0979 100.224 75.9006 100.242 76.0172 100.233C76.0411 100.23 76.065 100.227 76.0919 100.227C76.1427 100.224 76.1935 100.221 76.2413 100.221C76.2981 100.221 76.3549 100.218 76.4146 100.221C76.4445 100.221 76.4714 100.224 76.5013 100.224C76.5312 100.227 76.5581 100.227 76.588 100.233C76.5491 100.227 76.5133 100.224 76.4744 100.218C76.4983 100.203 76.6119 100.251 76.6388 100.26C76.7613 100.293 76.576 100.233 76.576 100.233C76.5969 100.233 76.7195 100.331 76.6029 100.239C76.4953 100.153 76.6119 100.254 76.6328 100.275C76.6926 100.331 76.5342 100.117 76.5671 100.192C76.582 100.221 76.6328 100.322 76.573 100.186C76.5133 100.043 76.5611 100.18 76.573 100.212C76.5999 100.293 76.5611 100.01 76.5581 100.093C76.5581 100.117 76.5611 100.138 76.5611 100.162C76.5611 100.177 76.5551 100.206 76.5581 100.218C76.5581 100.218 76.5969 100.007 76.573 100.105C76.5611 100.153 76.5491 100.198 76.5342 100.245C76.4983 100.352 76.6268 100.058 76.5491 100.203C76.5312 100.239 76.5073 100.275 76.4864 100.307C76.3907 100.447 76.585 100.198 76.5073 100.281C76.4714 100.319 76.4356 100.358 76.3967 100.394C76.2652 100.513 76.5461 100.299 76.3967 100.394C76.3848 100.403 76.2592 100.465 76.2592 100.471C76.2592 100.465 76.4505 100.403 76.3519 100.432C76.328 100.438 76.3041 100.45 76.2772 100.456C76.2562 100.462 76.2353 100.465 76.2174 100.471C76.1427 100.492 76.4415 100.459 76.2921 100.459C76.2413 100.459 76.1905 100.453 76.1427 100.453C76.316 100.447 76.2861 100.477 76.2234 100.462C76.1845 100.453 76.1457 100.447 76.1068 100.435C76.0829 100.429 76.056 100.42 76.0321 100.412C75.9574 100.388 75.9096 100.331 76.065 100.429C76.0112 100.397 75.9454 100.373 75.8916 100.34C75.8408 100.31 75.79 100.278 75.7422 100.242C75.6854 100.2 75.6645 100.144 75.7811 100.275C75.7602 100.251 75.7273 100.23 75.7034 100.209C75.6048 100.123 75.5121 100.031 75.4254 99.9359C75.3776 99.8854 75.3328 99.8319 75.288 99.7783C75.27 99.7575 75.2521 99.7338 75.2342 99.7129C75.1356 99.594 75.3388 99.8556 75.2491 99.7308C75.1684 99.6208 75.0877 99.5078 75.01 99.3949C74.7889 99.0738 74.3436 98.9014 73.988 99.1273C73.6562 99.3443 73.4739 99.814 73.71 100.156Z" fill="#ED9941"/>
<path d="M60.8892 107.3C61.723 103.872 68.8864 107.258 70.7602 108.01C74.6154 109.553 78.2465 111.646 81.6116 114.066C82.2242 112.618 82.8398 111.167 83.4525 109.719C80.3355 108.661 77.2184 107.603 74.1014 106.544C71.0711 105.516 67.948 104.098 64.7503 103.708C59.3172 103.048 54.3712 107.582 54.5027 113.022C54.5655 115.579 58.7584 116.405 59.1977 113.655C59.5892 111.197 59.9836 108.735 60.3751 106.277C60.7368 104.021 58.2324 102.21 56.3795 103.964C54.6103 105.638 53.2266 107.873 52.8351 110.296C52.2733 113.789 55.8505 114.211 58.3967 114.696C61.2777 115.243 64.1706 115.713 67.0754 116.111C68.4501 116.298 69.8248 116.477 71.2025 116.637C72.4757 116.786 73.7488 116.952 74.8396 116.111C77.1856 114.3 75.7331 111.247 73.8623 109.755C72.0304 108.292 69.6754 107.689 67.3593 108.096C65.097 108.495 62.7331 110.531 63.3338 113.037C63.9135 115.472 66.8005 116.373 68.8566 115.103C71.5582 113.435 70.8051 109.577 68.4292 108.019C66.2416 106.586 62.6673 106.423 60.6919 108.254C59.2843 109.562 60.142 111.649 61.7469 112.228C64.1496 113.099 66.669 111.565 67.3683 109.226C67.8494 107.615 66.5524 106.372 65.0641 106.214C63.014 106 60.7547 106.274 59.5085 108.111C58.3878 109.764 58.585 111.58 59.8043 113.082C60.2855 113.673 61.4211 113.97 62.1294 113.694C66.5136 111.982 64.3977 106.167 61.7917 103.729C58.4087 100.563 52.9277 102.433 51.9953 106.94C50.9972 111.765 54.9719 115.347 58.9317 117.208C63.3517 119.283 68.0586 120.784 72.9 121.483C75.3387 121.834 78.898 122.681 81.1214 121.31C83.1536 120.059 84.2654 116.958 84.9557 114.815C85.1918 114.083 84.9677 112.998 84.3401 112.502C82.0509 110.68 79.4807 109.538 76.6895 111.078C74.2777 112.41 73.1989 114.937 73.5963 117.579C73.9042 119.622 77.069 119.848 77.9656 118.147C78.375 117.368 78.7844 116.592 79.1968 115.814C77.7115 115.412 76.2262 115.014 74.741 114.613C74.8605 116.396 74.5377 119.122 75.8796 120.517C77.2334 121.926 79.2955 121.596 80.6463 120.392C82.4842 118.757 83.3718 114.752 86.3005 114.586C85.8971 114.479 85.4966 114.369 85.0932 114.262C84.5044 113.923 85.1828 113.652 84.5911 114.211C84.1159 114.663 83.6587 115.121 83.1656 115.552C82.2332 116.364 81.2529 117.122 80.2099 117.791C79.7049 118.115 79.2656 118.448 78.6469 118.456C77.9925 118.465 77.1736 118.073 76.546 117.895C75.252 117.529 73.9609 117.163 72.6669 116.798C67.8285 115.43 62.9333 114.143 58.8779 111.042C57.5659 110.037 55.8117 111.182 55.3664 112.463C53.6181 117.475 62.8437 116.708 65.4227 116.839C68.4979 116.994 68.489 112.237 65.4227 112.083C64.2303 112.023 63.0409 111.964 61.8485 111.904C61.2986 111.878 60.7487 111.848 60.1988 111.821C59.9239 111.806 59.6489 111.794 59.374 111.78C59.0512 111.747 59.0452 111.788 59.3531 111.904C59.5593 112.255 59.7625 112.603 59.9687 112.954C59.9418 112.874 59.9149 112.796 59.888 112.716C59.888 113.138 59.888 113.56 59.888 113.979C59.9179 113.896 59.9478 113.81 59.9777 113.727C58.8062 114.199 57.6377 114.675 56.4662 115.148C60.3692 118.132 65.1329 119.607 69.8069 120.933C72.3173 121.646 74.8934 122.603 77.4635 123.058C80.207 123.543 82.281 122.238 84.3849 120.647C86.2139 119.265 88.5091 117.689 89.3279 115.46C90.084 113.397 89.2801 110.558 86.9341 109.913C84.869 109.348 82.4364 110.81 81.0019 112.127C80.2219 112.844 79.5674 113.706 78.9548 114.562C78.6171 115.035 78.3033 115.525 77.9984 116.022C77.849 116.263 77.7026 116.506 77.5591 116.75C77.4007 116.931 77.3798 116.946 77.4994 116.801C77.9237 116.801 78.3481 116.801 78.7695 116.801C78.6679 116.783 78.5663 116.765 78.4646 116.747C78.8173 116.952 79.167 117.154 79.5196 117.359C79.5047 117.33 79.4897 117.297 79.4748 117.267C79.5824 117.669 79.6929 118.067 79.8005 118.468C79.6481 117.19 79.6063 115.891 79.5226 114.61C79.3761 112.407 76.2412 111.182 75.0667 113.409C74.6573 114.187 74.2478 114.963 73.8354 115.742C75.2908 115.933 76.7492 116.12 78.2046 116.31C78.1389 115.873 78.7515 115.332 79.1012 115.18C79.8214 114.865 80.4012 115.418 80.9601 115.861C80.7539 115.091 80.5506 114.318 80.3444 113.548C80.0844 114.36 79.7826 115.124 79.3791 115.879C79.1968 116.218 78.9099 116.575 78.7695 116.922C78.6798 117.056 78.5932 117.193 78.5035 117.327C78.9428 117.223 78.9817 117.184 78.626 117.211C77.852 116.931 76.5311 117.134 75.6883 117.059C74.8216 116.982 73.9609 116.872 73.1032 116.729C69.3975 116.108 65.7336 115.029 62.2908 113.525C60.3871 112.695 55.5487 110.599 56.7471 107.701C57.1685 106.681 57.9903 106.622 58.6836 107.365C59.0811 107.79 59.368 108.385 59.5951 108.917C59.6878 109.131 59.7535 109.642 59.897 109.8C60.0703 109.993 59.6519 109.981 60.0942 109.603C60.4469 109.398 60.7965 109.196 61.1492 108.991C61.0535 109.03 60.9549 109.065 60.8593 109.104C61.6333 109.309 62.4103 109.511 63.1843 109.716C63.1156 109.633 63.0469 109.55 62.9811 109.464C63.1873 109.815 63.3906 110.162 63.5968 110.513C63.4473 110.043 63.3965 110.136 63.4414 110.79C63.2501 110.914 63.2411 110.95 63.4115 110.897C63.6804 111.039 64.7145 110.926 65.0641 110.962C64.2961 109.957 63.528 108.955 62.76 107.951C62.8855 107.528 63.7552 107.897 63.02 107.632C63.3726 108.958 63.7223 110.281 64.0749 111.607C63.9225 111.747 65.0103 111.723 65.2793 111.794C65.369 111.818 65.7844 112.026 65.8471 112.011C66.2147 111.937 66.5375 110.513 67.1292 110.944C67.4161 111.23 67.7 111.512 67.9869 111.797C67.5506 112.764 67.5655 113.096 68.0257 112.793C68.214 112.722 68.4083 112.689 68.6055 112.695C69.012 112.657 69.4094 112.728 69.792 112.856C70.4913 113.088 71.2653 113.483 71.3729 114.229C71.3729 113.807 71.3729 113.385 71.3729 112.966C71.349 113.082 71.3281 113.201 71.3042 113.316C71.5104 112.966 71.7136 112.618 71.9198 112.267C71.9019 112.285 71.8839 112.3 71.869 112.318C72.2724 112.211 72.6729 112.101 73.0763 111.994C71.7166 112.118 70.2223 111.759 68.8745 111.583C67.5356 111.408 66.1998 111.212 64.8669 111.001C63.5161 110.787 62.1653 110.558 60.8204 110.314C60.0524 110.174 59.2843 110.029 58.5163 109.877C58.1337 109.803 57.7482 109.725 57.3657 109.648C56.78 109.425 56.6335 109.425 56.9204 109.648C57.1266 109.999 57.3298 110.347 57.536 110.697C57.5062 110.561 57.4763 110.424 57.4464 110.287C57.4464 110.709 57.4464 111.131 57.4464 111.551C57.6944 109.862 58.5312 108.48 59.7625 107.317C58.4296 106.547 57.0997 105.774 55.7668 105.005C55.3753 107.463 54.9809 109.925 54.5894 112.383C56.1553 112.594 57.7213 112.805 59.2843 113.016C59.2425 111.337 60.0733 109.856 61.5108 108.967C63.286 107.87 65.2524 108.563 67.0814 109.175C72.123 110.861 77.1467 112.594 82.1794 114.303C83.2941 114.681 84.5821 113.962 85.0005 112.927C85.4727 111.762 85.0155 110.671 84.0233 109.957C79.6093 106.779 74.738 104.279 69.5798 102.516C67.0067 101.636 64.1765 100.721 61.4331 101.3C58.9855 101.815 56.8756 103.584 56.2779 106.039C55.5576 109.009 60.1659 110.278 60.8892 107.3Z" fill="#EC46CC"/>
<path d="M81.4621 110.867C83.3388 111.155 85.0752 111.985 86.2018 113.557C86.949 114.601 88.2878 115.1 89.4743 114.41C90.5113 113.807 91.0851 112.208 90.332 111.155C88.509 108.611 85.8821 106.762 82.7352 106.28C81.4591 106.084 80.165 106.601 79.7945 107.942C79.4807 109.068 80.18 110.671 81.4621 110.867Z" fill="#EC46CC"/>
<path d="M84.2595 106.961C85.9719 107.621 87.5349 108.569 88.9216 109.767C89.6508 110.394 90.7446 110.329 91.2675 109.467C93.0846 106.485 94.8478 103.456 95.7115 100.046C96.1807 98.191 93.2997 97.4003 92.8305 99.2553C92.0266 102.421 90.374 105.195 88.6884 107.966C89.4714 107.864 90.2544 107.766 91.0344 107.665C89.2324 106.111 87.2779 104.951 85.0544 104.095C83.2613 103.402 82.4843 106.277 84.2595 106.961Z" fill="#B45741"/>
<path d="M86.1422 105.778C87.0149 104.226 87.8875 102.674 88.7631 101.122C88.9484 100.795 89.1307 100.468 89.316 100.141C89.4535 99.8973 89.591 99.6506 89.7284 99.4068C89.6089 99.5733 89.4864 99.7368 89.3668 99.9003C89.4146 100.138 91.7875 100.638 92.0924 100.733C91.7935 100.004 91.4976 99.276 91.1988 98.5507C89.7135 100.682 88.5719 102.968 87.6992 105.412C87.0477 107.24 89.8809 107.942 90.5802 106.203C91.0045 105.147 91.1629 104.086 91.0822 102.953C91.0075 101.904 89.845 101.003 88.8349 101.669C87.5887 102.493 86.8027 103.506 86.2618 104.886C85.6103 106.545 88.0937 107.332 88.9933 106.03C89.8569 104.782 90.2753 103.447 90.4367 101.949C90.5861 100.557 88.7602 100.138 87.8845 100.896C87.1434 101.541 86.5277 102.246 85.93 103.022C86.8415 103.402 87.75 103.786 88.6615 104.166C88.8199 103.358 89.0441 102.612 89.4117 101.874C90.2634 100.165 87.6873 98.6577 86.8326 100.373C86.3484 101.342 85.9898 102.311 85.7806 103.376C85.4429 105.103 87.493 105.843 88.5121 104.52C88.9514 103.952 89.4595 103.465 90.0004 102.995C89.1487 102.644 88.2999 102.293 87.4482 101.943C87.3436 102.909 86.9611 103.729 86.4112 104.523C87.3227 104.904 88.2312 105.287 89.1427 105.668C89.3877 105.043 89.7882 104.591 90.3441 104.226C89.594 103.798 88.8438 103.37 88.0967 102.941C88.1625 103.836 88.0369 104.571 87.7022 105.4C88.6615 105.665 89.6238 105.926 90.5832 106.191C91.3661 103.991 92.445 101.957 93.7809 100.04C94.3517 99.2225 93.748 98.1196 92.8873 97.858C91.1032 97.314 88.6018 95.8722 87.23 97.7748C85.8045 99.7517 84.7585 102.145 83.5631 104.267C82.6217 105.95 85.2038 107.448 86.1422 105.778Z" fill="#B45741"/>
<path d="M90.09 96.0149C89.0769 94.4572 89.0739 92.4446 90.3261 90.9998C91.5753 89.558 89.4714 87.4444 88.2132 88.8981C86.1153 91.3209 85.7387 94.7901 87.5109 97.5162C88.5509 99.1156 91.139 97.6262 90.09 96.0149Z" fill="#B45741"/>
<path d="M90.4965 102.475C90.8253 102.133 91.154 101.791 91.4857 101.449C92.0267 100.887 92.0894 99.8973 91.4857 99.3473C90.9 98.8122 89.9496 98.7468 89.3728 99.3473C89.0441 99.6892 88.7154 100.031 88.3837 100.373C87.8427 100.935 87.78 101.925 88.3837 102.475C88.9694 103.01 89.9168 103.072 90.4965 102.475Z" fill="#B45741"/>
<path d="M92.2297 96.3597C91.9428 93.9963 93.0187 91.8678 95.1644 90.7798C96.8768 89.9087 95.3676 87.3432 93.6552 88.2142C90.6757 89.7244 88.8377 93.045 89.2412 96.3627C89.4713 98.2325 92.4598 98.2563 92.2297 96.3597Z" fill="#B45741"/>
<path d="M92.5555 98.4556C93.9242 97.8908 94.6803 96.8979 95.1017 95.4918C95.293 94.8526 95.3199 94.0113 95.7622 93.4762C96.2015 92.9441 97.0173 92.7509 97.6419 92.5636C99.4769 92.0077 98.6939 89.1389 96.847 89.6978C95.4514 90.1199 94.0318 90.6937 93.192 91.9512C92.7796 92.5665 92.5794 93.283 92.3971 93.9905C92.3015 94.3591 92.1879 95.4145 91.7605 95.5899C91.0104 95.899 90.4934 96.5739 90.7175 97.4181C90.9058 98.1197 91.8113 98.7618 92.5555 98.4556Z" fill="#B45741"/>
<path d="M94.6743 99.1126C96.6318 97.8313 98.4607 96.3717 100.131 94.7337C101.503 93.387 99.3902 91.2852 98.0184 92.6319C96.5272 94.0975 94.9193 95.4025 93.1651 96.5471C91.5662 97.5935 93.0605 100.168 94.6743 99.1126Z" fill="#B45741"/>
<path d="M96.4316 99.0322C96.7752 97.9352 97.1578 96.8531 97.618 95.7978C97.9378 95.0605 97.8362 94.2044 97.083 93.7644C96.4525 93.3987 95.3617 93.5563 95.0389 94.2965C94.4771 95.5897 93.972 96.8947 93.5536 98.2414C92.9768 100.073 95.8607 100.857 96.4316 99.0322Z" fill="#B45741"/>
<path d="M99.2468 88.8238C97.7824 89.0052 96.4197 89.4481 95.2213 90.3251C94.5728 90.8007 94.247 91.6123 94.6863 92.3585C95.0599 92.9946 96.079 93.3722 96.7305 92.8906C97.4746 92.3466 98.3174 91.9096 99.2468 91.7936C100.048 91.6955 100.741 91.1812 100.741 90.3072C100.741 89.5819 100.054 88.7227 99.2468 88.8238Z" fill="#B45741"/>
<path d="M96.4735 87.1023C95.0211 87.0964 93.739 87.6166 92.6213 88.5174C91.9937 89.0228 92.0923 90.093 92.6213 90.6192C93.2399 91.2345 94.1066 91.1275 94.7342 90.6192C95.2153 90.2297 95.8429 90.0722 96.4735 90.0751C98.3981 90.0811 98.4011 87.1083 96.4735 87.1023Z" fill="#B45741"/>
<path d="M98.2427 92.4118C95.0719 92.6882 92.451 94.6949 91.4408 97.7122C90.8312 99.5316 93.7151 100.31 94.3218 98.503C94.8836 96.8234 96.4586 95.5391 98.2427 95.3846C100.146 95.221 100.161 92.2453 98.2427 92.4118Z" fill="#B45741"/>
<path d="M96.9846 100.87C97.7736 99.8112 98.9122 99.0026 100.155 98.5656C101.957 97.9324 101.18 95.0577 99.3605 95.6998C97.3223 96.4163 95.6876 97.644 94.4025 99.3683C93.9213 100.013 94.2949 101.027 94.9374 101.402C95.7025 101.845 96.5034 101.518 96.9846 100.87Z" fill="#B45741"/>
<path d="M99.7551 95.0934C100.093 95.0934 100.428 95.0934 100.765 95.0934C101.548 95.0934 102.295 94.4097 102.26 93.607C102.224 92.8014 101.602 92.1206 100.765 92.1206C100.428 92.1206 100.093 92.1206 99.7551 92.1206C98.9721 92.1206 98.225 92.8043 98.2609 93.607C98.2997 94.4126 98.9183 95.0934 99.7551 95.0934Z" fill="#B45741"/>
<path d="M97.1102 89.6976C97.7079 89.5757 98.3086 89.4568 98.9063 89.3349C99.6743 89.1803 100.185 88.235 99.9493 87.5066C99.6863 86.698 98.9332 86.3027 98.1113 86.4691C97.5136 86.591 96.9129 86.7099 96.3152 86.8318C95.5472 86.9864 95.0361 87.9317 95.2722 88.6601C95.5352 89.4687 96.2883 89.8611 97.1102 89.6976Z" fill="#B45741"/>
</g>
</g>
<defs>
<clipPath id="clip0_4066_2889">
<rect width="126.25" height="91.2885" fill="white" transform="translate(51.8459 69.9167)"/>
</clipPath>
</defs>
</svg>
