<svg width="233" height="233" viewBox="0 0 233 233" fill="none" xmlns="http://www.w3.org/2000/svg">
<path fill-rule="evenodd" clip-rule="evenodd" d="M178.778 36.2026C210.234 62.356 216.016 106.946 200.974 145.159C185.996 183.208 151.313 211.358 110.56 209.501C68.5045 207.586 32.874 177.823 22.4798 137.028C12.2198 96.7604 30.4565 55.0671 65.4585 32.4879C100.651 9.78589 146.7 9.53163 178.778 36.2026Z" fill="#FF5A9A"/>
<g clip-path="url(#clip0)">
<path d="M177.621 75.1971C177.571 75.0065 177.537 74.8216 177.498 74.6366C177.459 74.4516 177.448 74.2274 177.425 74.0761C177.079 72.5738 175.583 72.1198 174.226 72.5346C173.843 72.6248 173.47 72.7486 173.109 72.9046C172.232 73.2577 171.283 73.3474 170.384 73.6164C169.81 73.7768 169.25 73.983 168.709 74.233H168.659C166.374 74.7169 164.126 75.3593 161.93 76.1556C160.054 76.8563 158.021 77.3608 156.29 78.3249C154.431 79.6702 155.944 82.6802 158.139 82.0468H158.195C158.485 84.0928 160.774 86.3461 162.662 86.0939C163.094 86.1359 163.53 86.0874 163.942 85.9513C164.354 85.8153 164.734 85.5947 165.057 85.3035L165.23 85.2531C166.534 84.7736 167.785 84.1573 168.96 83.4145C169.915 82.7083 173.064 82.0973 175.443 80.8361C178.14 79.5469 178.386 77.9045 177.621 75.1971Z" fill="#FDE8B3"/>
<path d="M177.068 71.845C175.851 71.1276 174.332 71.3742 173.054 71.7834C171.775 72.1926 168.313 73.6836 169.966 75.3596C171.295 76.3293 173.126 75.7688 174.589 75.4437C175.203 75.2363 176.114 75.0737 176.465 74.4907C177.018 74.2406 177.467 73.8071 177.738 73.2632C177.801 72.9856 177.769 72.6951 177.647 72.4381C177.526 72.181 177.322 71.9722 177.068 71.845Z" fill="white"/>
<path d="M162.751 84.9055C160.814 82.0524 156.659 78.4089 153.058 78.4538C151.489 78.5379 150.059 79.2329 148.591 79.7262C147.763 80.0059 146.982 80.4084 146.273 80.9201C145.233 81.4655 144.323 82.2304 143.604 83.1622C142.454 84.8775 142.7 87.0411 142.594 89.0254C142.543 89.1151 142.499 89.2048 142.454 89.3001C141.605 89.5467 140.712 89.6756 139.863 89.9054C139.392 89.7052 138.865 89.6834 138.379 89.8443C137.893 90.0051 137.482 90.3376 137.222 90.7799C137.05 91.1069 136.956 91.4696 136.948 91.8393C136.854 92.0304 136.798 92.2378 136.781 92.4503C136.625 93.3471 137.183 94.1319 137.563 94.9615C138.015 96.1161 138.501 97.2652 139.059 98.3751C139.266 98.9796 139.631 99.5176 140.114 99.9334C140.468 100.226 140.91 100.389 141.368 100.395C141.826 100.401 142.272 100.25 142.633 99.967C143.427 100.036 144.226 99.8829 144.939 99.5242L145.776 99.2159C146.653 99.0774 147.509 98.8347 148.328 98.4928L148.094 98.5881L148.479 98.4367C148.635 98.5208 148.786 98.6049 148.948 98.6778C150.897 99.5802 152.516 99.7708 154.029 99.1206C156.414 99.3896 159.055 98.3863 160.92 96.9906C165.761 93.5601 166.158 89.6644 162.751 84.9055Z" fill="#FFF3D4"/>
<path d="M157.758 89.6534C157.518 89.3844 156.535 88.0279 155.921 87.2207C155.806 87.0559 155.633 86.9405 155.437 86.8976C155.242 86.8547 155.037 86.8873 154.864 86.989C154.691 87.0906 154.562 87.2539 154.504 87.4464C154.445 87.6389 154.461 87.8465 154.547 88.0279C154.855 88.4147 155.34 89.0929 155.798 89.7095C154.547 89.7375 153.498 89.8552 152.403 89.9617C150.957 89.8945 149.516 90.2588 149.539 91.9908C149.394 94.1937 149.84 96.9684 151.934 98.1567C152.448 98.3865 153.213 98.7845 153.609 98.1959C153.688 98.0923 153.74 97.9711 153.762 97.8427C153.783 97.7142 153.773 97.5825 153.732 97.4589C153.692 97.3352 153.621 97.2234 153.528 97.133C153.435 97.0427 153.321 96.9766 153.196 96.9404C153.101 96.9404 152.883 96.8394 152.783 96.8058C152.456 96.6599 152.171 96.4322 151.956 96.1444C151.085 94.9056 150.957 92.8933 151.141 91.733L151.219 91.6938C151.304 91.6573 151.392 91.6292 151.482 91.6097C151.878 91.6769 154.324 91.3743 154.871 91.3462C155.67 91.3462 156.468 91.3462 157.267 91.3462C157.409 91.3603 157.553 91.3452 157.689 91.3018C157.825 91.2585 157.951 91.1878 158.06 91.094C158.758 90.2812 157.82 89.7319 157.758 89.6534Z" fill="#FFE394"/>
<path d="M99.9495 85.567C99.8043 84.3058 99.4916 83.067 99.2962 81.8114C99.1708 80.3042 98.8806 78.8154 98.4307 77.372C97.7059 75.4551 96.628 73.6924 95.2535 72.1758C94.4111 71.2587 93.4128 70.4994 92.3052 69.9337C91.7852 69.7335 91.2404 69.6053 90.6859 69.5526C90.4273 69.2723 90.0952 69.0711 89.7277 68.9719C89.3603 68.8727 88.9724 68.8797 88.6087 68.992C83.5832 70.4662 76.9943 72.0133 75.0902 77.5682C74.1242 81.4078 74.5318 85.5165 75.308 89.3394C75.777 91.9066 77.3572 93.9805 78.5187 96.2451C79.1217 97.8482 79.7248 99.5354 81.1152 100.628C82.7401 102.047 84.9569 102.467 87.062 102.344C91.7859 102.091 95.8845 98.7002 98.3246 94.8101C100.1 92.0691 100.117 88.6891 99.9495 85.567Z" fill="#FFF3D4"/>
<path d="M101.188 73.5268C99.083 72.3384 96.9723 71.1501 94.8449 69.9898C92.3991 68.6389 90.3331 72.1815 92.7007 73.6725C94.4987 74.6927 96.3358 75.6456 98.1282 76.6714C96.8947 77.1202 95.7367 77.7553 94.6941 78.5547C94.1691 78.7172 93.7276 79.0782 93.4629 79.5614C93.1982 80.0447 93.1311 80.6124 93.2758 81.1444C93.4157 81.6299 93.721 82.0507 94.1384 82.3335C94.5557 82.6162 95.0587 82.7429 95.5596 82.6915C95.9162 82.6947 96.2687 82.615 96.5894 82.4584C96.9101 82.3018 97.1903 82.0727 97.4078 81.789C97.6312 81.6601 97.8601 81.5312 98.0835 81.3854C98.4583 81.1623 98.8462 80.962 99.245 80.7857C100.3 80.3484 101.395 80.0009 102.444 79.5469C102.91 79.4447 103.341 79.2247 103.698 78.9078C104.055 78.5909 104.325 78.1876 104.483 77.7364C105.097 75.5671 102.768 74.4068 101.188 73.5268Z" fill="#FFF3D4"/>
<path d="M91.8355 66.8565C91.8055 66.4319 91.6432 66.0275 91.3716 65.7006C91.1001 65.3737 90.7329 65.1407 90.3222 65.0348L89.4512 64.7545C88.1092 64.0157 86.6229 63.5796 85.0958 63.4765L84.6937 63.37C83.3145 63.0729 81.8516 62.8095 80.4723 63.2243C77.7139 64.166 76.6418 66.7725 77.9261 68.7904C78.2835 70.741 80.0033 72.6524 82.8008 73.4596C84.8209 74.1323 86.964 74.3486 89.0771 74.093C89.5788 73.9784 90.0409 73.7314 90.4159 73.3777C90.7908 73.024 91.065 72.5762 91.2101 72.0807C91.9039 71.4192 92.3459 70.5354 92.4601 69.5817C92.5743 68.628 92.3534 67.6642 91.8355 66.8565Z" fill="#7A302F"/>
<path d="M85.1516 74.4013C84.6714 71.139 81.8906 67.4955 78.4509 67.1872C77.8115 67.1443 77.1715 67.2641 76.5904 67.5355C76.0093 67.8069 75.5058 68.2212 75.1266 68.7399C74.7475 69.2586 74.5048 69.8649 74.4212 70.5028C74.3376 71.1407 74.4157 71.7895 74.6483 72.389C74.7991 72.7615 74.9862 73.1183 75.2067 73.454C75.1976 73.928 75.2845 74.399 75.4621 74.8384C75.6396 75.2777 75.9042 75.6763 76.2397 76.01C77.2532 77.0171 78.5486 77.6897 79.953 77.9382C80.2914 78.0862 80.656 78.1644 81.0251 78.1681C81.2406 78.1609 81.4544 78.127 81.6617 78.0672C83.5937 77.9607 85.2353 76.8956 85.1516 74.4013Z" fill="#7A302F"/>
<path d="M75.654 69.5582C73.8169 68.112 71.1869 69.0985 70.098 70.9875C69.5598 71.9106 69.2276 72.94 69.1244 74.0046C69.0213 75.0691 69.1496 76.1435 69.5006 77.1534C70.6899 79.9841 73.024 81.5816 74.8946 81.4358C75.2854 81.425 75.6681 81.3212 76.0113 81.1332C77.5636 80.2531 78.0271 78.3305 78.1556 76.6825C78.3733 74.1265 77.8317 71.1221 75.654 69.5582Z" fill="#7A302F"/>
<path d="M78.8529 66.509C78.636 66.0612 78.2768 65.6986 77.832 65.4783C77.3871 65.2581 76.8819 65.1928 76.3959 65.2927C75.5646 65.2354 74.7373 65.4519 74.0396 65.9092H73.9726C73.5502 66.0275 73.1747 66.2743 72.8977 66.6156C72.6207 66.9569 72.4559 67.3759 72.4258 67.8151C72.0819 68.3759 71.8686 69.0074 71.8019 69.6626C71.7352 70.3178 71.8168 70.9796 72.0405 71.5986C72.5989 73.0504 74.2294 73.8128 75.7036 73.7679C76.2977 73.733 76.8725 73.543 77.371 73.2166C77.8695 72.8902 78.2745 72.4387 78.5458 71.9069C80.3047 70.6794 80.2265 68.0393 78.8529 66.509Z" fill="#7A302F"/>
<path d="M130.045 91.29C129.487 90.9312 128.811 91.0209 128.175 90.9481C127.006 90.7651 125.819 90.7218 124.64 90.8191C118.316 91.3043 112.073 92.5521 106.046 94.5355C100.698 96.487 95.4621 98.7325 90.3606 101.262C88.6855 102.08 87.0885 103.067 85.4524 103.964C84.6651 104.401 83.7382 104.816 83.5148 105.78C83.4086 106.187 83.4244 106.617 83.5602 107.015C83.696 107.413 83.9458 107.763 84.2783 108.019C84.6108 108.276 85.0113 108.429 85.4297 108.458C85.8481 108.487 86.2658 108.392 86.6306 108.184C91.2742 105.473 96.0947 103.08 101.059 101.021C103.745 99.754 112.383 96.7103 117.431 96.0601C121.407 95.4323 122.557 95.1745 126.209 95.0624C127.622 95.0063 129.325 95.8359 130.475 94.6756C130.708 94.4431 130.885 94.16 130.992 93.848C131.098 93.5361 131.132 93.2037 131.091 92.8765C131.049 92.5493 130.933 92.2361 130.752 91.961C130.571 91.6859 130.329 91.4563 130.045 91.29Z" fill="#FFE100"/>
<path d="M137.327 96.8953C135.624 93.6442 131.882 91.2899 128.175 91.9402C125.785 92.5455 122.328 92.1083 118.531 92.5904C112.618 93.4032 106.844 95.0343 101.177 96.8729C98.0386 97.9154 95.0903 99.4401 92.0806 100.797L91.7456 100.954C90.9828 101.299 90.2929 101.788 89.7131 102.394C89.4562 102.686 89.2049 102.983 88.9593 103.285C88.4912 103.093 87.9697 103.077 87.4907 103.239C87.0116 103.402 86.6071 103.733 86.3516 104.171C85.7318 105.163 85.0115 106.105 84.481 107.153C83.5429 109.188 83.1241 111.402 82.6048 113.571C82.186 115.382 81.9236 117.371 82.6942 119.12C83.7348 121.287 85.5635 122.97 87.8034 123.823C92.1197 125.505 96.8883 125.118 101.333 124.227C106.526 123.162 111.434 121.021 116.197 118.745C120.937 116.491 125.473 113.83 129.755 110.791C132.122 108.924 134.92 107.428 136.578 104.804C137.852 102.439 138.482 99.3952 137.327 96.8953ZM128.811 106.194C124.3 109.556 119.476 112.471 114.405 114.9C109.687 117.142 105.884 118.93 99.8869 120.191C96.4807 121.06 90.8969 120.813 88.9983 119.748C88.1819 119.342 87.4678 118.756 86.91 118.033C86.7899 117.87 86.6835 117.698 86.5917 117.517C86.5315 117.346 86.4848 117.169 86.4521 116.99C86.4186 115.359 86.4018 116.183 86.7927 114.266C87.0607 113.145 87.3009 112.024 87.608 110.953C87.9526 110.888 88.2757 110.739 88.5485 110.518C88.8214 110.296 89.0354 110.011 89.1714 109.687C90.3117 108.44 91.3817 107.13 92.3766 105.763C92.595 105.496 92.836 105.248 93.0969 105.023C93.6944 104.653 94.867 104.193 96.3858 103.47C99.4362 101.939 102.631 100.716 105.923 99.8212C110.256 98.4816 116.795 96.9681 119.442 96.7215C121.82 96.43 124.227 96.7215 126.594 96.4356C129.548 96.1273 128.761 95.7798 130.944 96.3852C131.906 96.862 132.732 97.5755 133.345 98.4592C133.563 98.7614 133.684 99.1232 133.692 99.4961C133.574 102.719 132.457 103.549 128.811 106.194Z" fill="#FFE100"/>
<path d="M140.672 99.1543C140.536 97.7831 140.214 96.4368 139.718 95.1521C139.159 93.3584 138.517 91.5479 137.199 90.169C136.826 89.7258 136.297 89.445 135.722 89.3854C135.148 89.3258 134.572 89.4922 134.117 89.8495C133.933 89.9845 133.773 90.1493 133.642 90.3371L133.52 90.382C132.168 90.864 130.61 91.1331 129.198 91.5479H128.969C127.154 91.447 125.233 92.1084 125.35 94.0591L124.893 94.1207C123.731 94.3001 122.553 94.4066 121.403 94.6813C113.423 96.3068 105.477 98.5377 98.0844 102.019H98.023C97.0767 101.791 96.0998 101.719 95.1306 101.806C94.5985 101.636 94.053 101.512 93.5001 101.436C90.5239 101.01 87.7599 102.602 85.9395 104.905C84.8246 105.739 83.9609 106.866 83.4435 108.162C82.7932 108.986 82.2716 109.905 81.8968 110.886C81.0592 113.577 81.707 116.777 83.9461 118.594C84.5053 119.09 85.1482 119.483 85.8446 119.754C88.0782 121.85 90.9315 122.069 93.6006 121.11C93.7195 121.407 93.9055 121.672 94.1439 121.884C94.3823 122.096 94.6666 122.249 94.9742 122.332C95.9681 122.613 96.828 122.03 97.6544 121.548L97.7494 121.492C98.6819 121.693 100.044 121.228 101.502 120.505C101.679 120.867 101.953 121.173 102.293 121.388C102.633 121.602 103.026 121.718 103.428 121.721C105.014 121.576 108.381 119.58 111.061 117.971C113.228 116.744 115.406 115.533 117.578 114.311C120.712 112.529 123.861 110.783 127.026 109.076C128.522 108.19 130.22 107.501 131.671 106.508C131.932 106.628 132.217 106.686 132.503 106.677C133.547 106.621 134.424 105.909 135.357 105.477C136.747 104.743 138.149 104.065 139.539 103.28C139.646 103.238 139.748 103.188 139.846 103.128C141.259 102.254 141.231 100.533 140.672 99.1543ZM133.279 95.6229C133.105 95.4246 132.919 95.2374 132.721 95.0624C133.056 94.9895 133.397 94.9111 133.732 94.827C133.958 95.1784 134.164 95.5435 134.346 95.92C134.022 95.7302 133.655 95.6279 133.279 95.6229ZM135.357 100.713C135.332 100.274 135.267 99.8386 135.161 99.4121V99.3112C135.195 99.2384 135.239 99.1655 135.267 99.0926C135.342 98.9301 135.401 98.7613 135.446 98.5882C135.502 98.7451 135.558 98.9077 135.608 99.0702C135.781 99.4682 135.937 99.8942 136.122 100.303C135.87 100.449 135.614 100.584 135.357 100.701V100.713Z" fill="#FFE100"/>
<path d="M113.908 95.0961C113.098 94.2609 111.92 94.4795 110.876 94.5692C108.662 94.8308 106.463 95.205 104.287 95.6902C98.5189 96.5871 93.1807 99.1936 88.4679 102.613C87.4517 102.248 86.3684 102.764 85.57 103.454C84.6759 104.087 83.9665 104.948 83.5151 105.948C82.9956 106.381 82.5729 106.92 82.2747 107.528C81.9764 108.137 81.8093 108.802 81.7841 109.479C81.7227 109.855 81.6836 110.236 81.6557 110.6C81.4638 111.036 81.4283 111.526 81.5552 111.985L81.6054 112.114V112.674C81.5942 112.844 81.5942 113.015 81.6054 113.184C81.4211 114.547 82.2364 115.903 83.7161 115.903C84.1891 115.896 84.6465 115.732 85.0172 115.437C85.3878 115.142 85.6509 114.733 85.7654 114.272C85.8156 114.182 85.8659 114.093 85.905 114.003L86.0278 113.896C86.9491 112.775 87.3959 111.38 88.1441 110.152C88.351 109.731 88.6099 109.337 88.9147 108.98C89.4731 108.493 90.0314 108.005 90.5898 107.529L90.7071 107.45C91.2442 107.382 91.7473 107.149 92.1477 106.783C92.3981 106.532 92.5808 106.222 92.6785 105.88C92.7762 105.539 92.7857 105.179 92.7061 104.833C95.0479 103.272 97.5674 101.998 100.211 101.038C103.41 100.018 106.755 99.5075 110.05 98.9021C110.608 98.846 111.116 98.7788 111.652 98.7564C112.179 98.7895 112.707 98.7151 113.204 98.5378C113.523 98.4045 113.804 98.1951 114.024 97.9277C114.243 97.6604 114.394 97.3432 114.464 97.0038C114.533 96.6645 114.519 96.3132 114.422 95.9807C114.325 95.6482 114.149 95.3445 113.908 95.0961Z" fill="#FFE100"/>
<path d="M137.936 154.322C137.244 152.876 136.691 151.351 135.703 150.067C134.836 148.698 133.709 147.514 132.385 146.583C131.062 145.652 129.569 144.992 127.991 144.641C125.707 144.081 123.312 144.361 121.034 144.826C119.811 145.101 118.521 145.174 117.371 145.701C114.808 146.856 113.462 149.625 111.943 151.811C111.351 152.713 110.86 153.677 110.313 154.613C109.961 155.207 109.531 155.858 109.754 156.581C109.754 156.659 109.799 156.732 109.827 156.805L109.269 156.883C108.963 156.932 108.671 157.042 108.41 157.208C108.149 157.374 107.924 157.591 107.75 157.848C107.018 159.255 108.102 160.235 109.425 160.583H109.492C109.567 160.825 109.695 161.046 109.867 161.232C110.039 161.417 110.251 161.56 110.486 161.652C110.721 161.744 110.973 161.781 111.225 161.761C111.476 161.741 111.72 161.664 111.938 161.536L112.01 161.485C112.117 161.457 112.221 161.421 112.323 161.379C112.525 161.302 112.713 161.195 112.881 161.059C115.444 160.645 117.963 160.017 120.492 159.423C124.328 159.333 128.404 159.316 131.531 159.283C131.861 159.19 132.157 159.006 132.387 158.753C132.617 158.499 132.772 158.185 132.832 157.848C134.446 157.848 135.982 157.954 136.97 158.055C137.437 158.056 137.886 157.872 138.217 157.542C138.549 157.212 138.737 156.764 138.74 156.295C138.679 155.589 138.21 154.983 137.936 154.322Z" fill="#169FFA"/>
<path d="M98.8095 90.3763C98.8764 89.8781 98.772 89.3719 98.5135 88.9414C98.1303 88.387 97.6197 87.9335 97.0248 87.6193C96.4299 87.3051 95.7684 87.1395 95.0962 87.1365C94.6888 87.0362 94.2602 87.0697 93.8732 87.2322C93.4862 87.3946 93.1614 87.6774 92.9464 88.0389C92.8136 88.2751 92.7175 88.5303 92.6616 88.7957C92.5901 88.9374 92.5321 89.0857 92.4885 89.2385C91.7682 90.2811 92.4104 91.7665 93.9348 92.2541C94.186 92.3326 94.4485 92.3943 94.7109 92.4503C95.0451 92.6208 95.4057 92.7326 95.7774 92.781C97.1957 92.9996 98.8876 93.0389 98.9044 91.1555C98.9222 90.8921 98.8899 90.6277 98.8095 90.3763Z" fill="#FFB8E5"/>
<path d="M127.305 119.199C125.278 116.817 122.207 115.724 119.376 114.625C117.234 113.89 114.892 114.025 112.848 115C109.956 116.598 107.661 119.148 105.784 121.839C105.005 122.85 104.402 123.988 104.003 125.202C103.05 126.772 102.476 128.544 102.328 130.376C101.669 135.746 104.109 140.129 109.353 141.766C112.05 142.59 114.936 142.063 117.578 141.172C120.758 140.191 123.55 138.23 125.557 135.566C129.108 131.116 131.582 123.924 127.305 119.199Z" fill="#F7C672"/>
<path d="M116.37 146.133C115.46 144.998 114.405 143.988 113.232 143.128C112.451 142.428 111.457 142.102 110.563 141.592C108.965 140.92 107.212 140.703 105.499 140.965C104.889 140.946 104.28 141.016 103.69 141.172C103.277 141.173 102.871 141.273 102.506 141.463C102.069 141.628 101.676 141.891 101.355 142.231C100.434 142.842 99.602 143.578 98.8818 144.417C98.2004 145.13 97.5573 145.878 96.9554 146.66C96.2241 146.906 95.5722 147.346 95.0681 147.932C93.3594 148.532 92.2761 150.735 93.1305 152.416C93.6442 153.829 95.1797 154.462 96.3356 155.297C96.4752 155.415 96.6148 155.533 96.76 155.645C97.2625 156.015 97.7427 156.424 98.2174 156.839C99.3088 158.01 100.323 159.252 101.255 160.555C101.998 161.57 102.55 162.797 103.634 163.47C104.336 163.879 105.16 164.025 105.959 163.883C106.758 163.74 107.482 163.318 108 162.691L108.095 162.601C108.531 162.27 109.62 161.43 109.977 161.138C110.742 160.533 111.464 159.876 112.138 159.171C112.586 159.061 113.001 158.846 113.35 158.543C114.092 158.089 114.388 157.27 114.679 156.486C115.791 154.733 116.522 152.763 116.823 150.707C117.091 149.165 117.236 147.523 116.37 146.133Z" fill="#72CDF7"/>
<path d="M118.437 140.628C116.616 139.285 114.375 138.643 112.122 138.818C111.692 138.857 110.581 139.019 110.028 139.109C105.427 139.434 101.557 142.22 98.5142 145.55C95.4822 148.79 100.022 153.335 103.249 150.309C105.935 147.708 105.483 147.803 108.219 146.351C108.682 146.189 109.157 146.054 109.637 145.936L110.023 145.864C112.256 145.6 111.608 145.488 113.194 145.522C113.278 145.522 113.367 145.522 113.451 145.572L113.792 145.673C114.098 145.823 114.395 145.994 114.679 146.183C114.763 146.262 114.847 146.329 114.925 146.407L115.182 146.688C115.499 147.113 115.775 147.567 116.008 148.044L116.042 148.111C115.897 148.369 115.74 148.616 115.579 148.857C113.602 151.166 113.177 150.953 109.732 152.954C109.073 153.313 108.426 153.7 107.767 154.075H107.292C102.741 154.227 102.948 160.908 107.499 160.802C109.643 160.88 111.458 159.754 113.244 158.705C115.031 157.657 117.03 156.743 118.638 155.342C120.409 153.75 122.128 151.788 122.676 149.412C123.329 146.105 120.95 142.512 118.437 140.628Z" fill="#72CDF7"/>
<path d="M125.132 113.863L124.931 113.717C123.982 112.305 122.74 111.116 121.29 110.231C118.286 108.583 114.338 107.747 111.178 109.395C107.269 111.71 106.085 116.94 108.106 120.92C109.374 123.723 112.015 125.634 114.662 126.996C115.571 127.515 116.627 127.713 117.66 127.557C118.34 127.68 119.026 127.764 119.715 127.809C123.624 128.313 127.778 126.755 129.074 122.764C130.297 119.065 128.175 115.836 125.132 113.863Z" fill="#F5371D"/>
<path d="M125.813 143.504C125.776 142.784 125.795 142.063 125.869 141.346C126.332 138.802 127.081 136.32 128.103 133.947C128.309 133.453 128.521 132.96 128.739 132.472C129.432 131.026 130.146 129.591 130.839 128.145C131.138 127.627 131.333 127.055 131.41 126.461C131.488 125.868 131.447 125.265 131.291 124.687C130.314 120.925 125.043 120.23 123.127 123.616C120.218 129.586 117.114 135.768 116.868 142.534C116.695 146.8 119.146 151.951 123.758 152.517C125.143 152.674 126.696 153.05 127.985 152.371C131.386 151.155 131.615 146.133 128.544 144.401C127.74 143.955 126.831 143.737 125.914 143.767C125.852 143.678 125.836 143.593 125.813 143.504Z" fill="#F5371D"/>
<path d="M134.575 143.778C133.871 143.094 132.974 142.642 132.007 142.484C131.884 142.36 131.761 142.237 131.644 142.102C131.526 141.968 131.471 141.8 131.392 141.643C131.319 141.441 131.26 141.235 131.214 141.026C131.214 140.892 131.214 140.763 131.214 140.634C131.314 137.428 131.666 136.839 132.945 131.923C134.061 128.123 133.643 129.165 134.826 126.912C137.618 121.693 130.287 117.383 127.11 122.388C125.647 124.9 124.809 127.702 124.072 130.499C123 134.546 121.805 138.795 122.531 143.005C123.419 147.338 127.316 151.805 132.023 151.351C135.619 151.076 137.144 146.245 134.575 143.778Z" fill="#F5371D"/>
<path d="M137.584 122.506C137.239 121.23 136.806 119.979 136.289 118.762C135.87 117.859 135.284 117.047 134.854 116.155C134.173 114.922 133.737 113.583 133.05 112.349C131.875 110.414 130.082 108.935 127.963 108.151C125.675 107.074 123.189 106.482 120.662 106.412C118.136 106.343 115.622 106.797 113.278 107.747C111.558 108.543 109.408 108.902 108.431 110.718C106.415 114.121 109.671 118.375 113.456 117.304C117.75 115.561 118.387 115.264 121.011 115.343C121.67 115.477 122.329 115.656 122.982 115.83C123.306 115.942 123.636 116.043 123.96 116.15C124.401 116.363 124.847 116.565 125.266 116.811C125.931 117.932 126.338 119.221 126.941 120.382C127.338 121.206 127.835 121.974 128.265 122.775L128.416 123.28C128.527 123.65 128.684 124.003 128.801 124.367C128.801 124.367 128.801 124.418 128.801 124.44C128.477 125.001 128.125 125.561 127.757 126.082L127.528 126.335C124.317 129.574 127.472 134.995 131.872 133.829C134.106 133.19 135.256 130.903 136.451 129.081C137.628 127.107 138.032 124.763 137.584 122.506Z" fill="#F5371D"/>
<path d="M140.18 136.749C139.452 136.38 138.651 136.175 137.835 136.149C137.835 135.948 137.835 135.751 137.874 135.555C137.964 134.995 138.058 134.485 138.17 133.952C138.388 132.271 139.287 130.651 139.008 128.969C138.449 124.165 131.609 123.728 130.314 128.375C129.599 131.379 128.722 134.473 128.951 137.59C129.033 138.697 129.287 139.785 129.705 140.813C128.711 141.25 127.734 141.721 126.785 142.248C125.695 142.327 124.669 142.789 123.887 143.554C121.095 146.278 123.144 151.267 127.047 151.211C129.515 151.211 131.576 149.804 133.748 148.756L133.848 148.711C135.306 148.184 136.713 147.523 138.165 146.973C140.03 146.519 141.911 145.101 142.017 143.05C142.066 142.8 142.086 142.547 142.079 142.293C142.478 141.294 142.505 140.184 142.157 139.166C141.808 138.149 141.107 137.291 140.18 136.749Z" fill="#F5371D"/>
<path d="M102.903 152.926C102.638 152.364 102.283 151.849 101.854 151.402C99.8602 149.339 96.5099 149.311 94.2875 151.015C93.5504 151.407 92.791 151.743 92.054 152.136C90.3993 149.935 88.4336 147.988 86.2188 146.357C85.5238 145.677 84.777 145.053 83.9853 144.49L83.8792 144.423C82.8671 143.229 81.6347 142.243 80.2497 141.519C80.0542 141.424 79.8476 141.334 79.641 141.256C79.4958 141.2 79.3619 141.144 79.2167 141.099C78.2696 140.817 77.2637 140.799 76.3074 141.048C75.351 141.297 74.4804 141.803 73.7892 142.511C72.7995 143.527 72.2266 144.878 72.1842 146.298C72.1418 147.718 72.633 149.101 73.5602 150.174C73.6607 150.37 73.7501 150.566 73.8506 150.735C74.4833 151.882 75.202 152.981 76.0004 154.019C76.6202 155.062 77.2121 156.116 77.8375 157.153C78.5857 158.307 78.9542 159.675 79.7862 160.768C80.7299 162.242 81.506 163.823 82.5781 165.213C83.0735 165.935 83.6144 166.624 84.1975 167.276C84.3147 167.427 84.4432 167.573 84.5716 167.713C84.705 167.898 84.8525 168.072 85.0127 168.234C85.7949 169.015 86.7742 169.568 87.8455 169.833C88.9167 170.097 90.0396 170.064 91.0935 169.737C93.0535 169.12 94.6058 167.747 96.0743 166.373C96.4708 166.093 96.8672 165.813 97.2525 165.516C98.0789 164.955 98.9277 164.355 99.6871 163.728C99.9719 163.548 100.245 163.386 100.558 163.218L101.234 162.954C102.252 162.666 103.167 162.093 103.874 161.303C104.58 160.512 105.048 159.537 105.224 158.489C105.4 157.442 105.275 156.367 104.865 155.388C104.455 154.409 103.777 153.567 102.909 152.96L102.903 152.926Z" fill="#F7C672"/>
<path d="M82.4651 139.939C81.1362 135.841 76.5853 132.882 72.3193 133.941C68.9354 134.855 66.1212 138.605 67.8522 142.063C67.8929 142.179 67.9395 142.293 67.9918 142.405C67.0928 144.883 67.3329 147.663 69.2872 149.759C72.7325 153.246 78.6179 152.113 81.1306 148.078C82.4651 145.673 83.353 142.618 82.4651 139.939Z" fill="#F7C672"/>
<path d="M76.8212 134.524C76.5248 133.731 76.0856 133 75.5257 132.366C75.4294 131.753 75.1328 131.189 74.6826 130.763L73.5044 129.793C72.946 129.115 72.3876 128.465 71.7622 127.826C71.0101 126.849 70.0142 126.089 68.8754 125.623C68.2475 125.162 67.4693 124.957 66.697 125.048C65.9246 125.139 65.2151 125.52 64.7107 126.114C64.2063 126.709 63.9444 127.472 63.9774 128.252C64.0104 129.032 64.3358 129.771 64.8885 130.32C65.1121 130.549 65.3726 130.739 65.6591 130.881L65.888 131.026C66.0559 131.443 66.3223 131.812 66.6642 132.103C67.0662 132.484 67.4571 132.876 67.82 133.291C68.4934 134.07 69.2211 134.801 69.9978 135.477C70.2155 135.824 70.4835 136.245 70.8465 136.789C72.8399 140.146 77.7872 138.442 76.8212 134.524Z" fill="#F7C672"/>
<path d="M69.4506 142.147C65.3911 142.271 65.4023 148.179 69.4506 148.313C73.51 148.19 73.4989 142.282 69.4506 142.147Z" fill="#F7C672"/>
<path d="M76.6528 147.321C76.2977 146.954 75.8535 146.686 75.364 146.543C74.8745 146.401 74.3565 146.389 73.8609 146.508C73.8581 146.484 73.8581 146.459 73.8609 146.435C74.0451 145.589 74.4863 144.754 74.2797 143.896C73.9335 140.606 69.1593 140.309 68.3049 143.487C67.2607 146.794 67.0765 152.018 70.9796 153.414C72.2504 153.724 73.5912 153.533 74.7264 152.881C75.5572 152.567 76.295 152.047 76.8706 151.368C77.3368 150.785 77.5724 150.049 77.5322 149.303C77.492 148.556 77.1789 147.85 76.6528 147.321Z" fill="#F7C672"/>
<path d="M73.7613 137.366C73.2788 137.225 72.7694 137.203 72.2766 137.302C71.7838 137.4 71.3221 137.617 70.9307 137.934C70.5392 138.25 70.2297 138.657 70.0284 139.119C69.8271 139.581 69.74 140.085 69.7744 140.589C69.6494 140.682 69.5317 140.785 69.4226 140.897C67.1276 143.515 64.7657 148.122 67.3901 151.228C70.3216 154.484 75.978 153.083 77.9994 149.479C80.769 145.819 78.1558 138.487 73.7613 137.366Z" fill="#F7C672"/>
<path d="M69.1153 138.442C68.079 139.234 67.2604 140.278 66.7365 141.475C66.368 142.377 65.8376 143.358 66.0609 144.356C66.1893 146.486 68.8528 147.719 70.6285 146.598C71.5722 146.037 71.9463 145.112 72.2478 144.132L72.3818 143.879C72.4544 143.756 72.5382 143.638 72.622 143.515C73.1803 143.01 73.8783 142.568 74.0961 141.8C75.4697 138.762 71.4493 136.082 69.1153 138.442Z" fill="#F7C672"/>
<path d="M70.6729 138.459C66.6191 138.582 66.6302 144.49 70.6729 144.625C74.7324 144.502 74.7212 138.594 70.6729 138.459Z" fill="#F7C672"/>
<path d="M70.1478 126.547C69.9356 126.402 69.7178 126.273 69.4945 126.15L69.0143 125.813C68.8154 125.569 68.5606 125.377 68.2716 125.253C68.0864 125.16 67.884 125.107 67.6773 125.097C67.4705 125.088 67.2641 125.121 67.0711 125.197C66.7846 125.188 66.5012 125.259 66.2528 125.403C66.0043 125.546 65.8004 125.756 65.664 126.009C64.737 127.568 66.5574 129.227 68.0594 129.317H68.2269L68.3945 129.406C68.6936 129.613 69.0474 129.727 69.4107 129.731C69.7854 129.728 70.148 129.598 70.4407 129.364C70.7335 129.129 70.9394 128.803 71.0255 128.437C71.1117 128.071 71.0732 127.686 70.9161 127.345C70.759 127.003 70.4924 126.725 70.159 126.553L70.1478 126.547Z" fill="#E3F8FF"/>
<path d="M108.269 132.551C108.059 131.925 107.619 131.403 107.04 131.091C106.46 130.779 105.784 130.699 105.148 130.869C104.524 131.112 103.986 131.538 103.605 132.09C103.224 132.643 103.017 133.297 103.009 133.969C103.009 134.104 103.009 134.244 103.009 134.378C102.95 134.654 102.956 134.94 103.028 135.213C103.1 135.486 103.235 135.738 103.423 135.948C104.059 137.349 105.349 138.364 106.991 137.573C107.356 137.438 107.675 137.2 107.91 136.888C108.144 136.576 108.285 136.203 108.314 135.813C108.453 135.693 108.573 135.553 108.671 135.398C108.948 134.952 109.059 134.422 108.985 133.901C108.912 133.381 108.658 132.903 108.269 132.551Z" fill="#FF9E7A"/>
</g>
<defs>
<clipPath id="clip0">
<rect width="114" height="107" fill="white" transform="translate(64 63)"/>
</clipPath>
</defs>
</svg>
