<svg width="233" height="233" viewBox="0 0 233 233" fill="none" xmlns="http://www.w3.org/2000/svg">
<mask id="mask0" mask-type="alpha" maskUnits="userSpaceOnUse" x="0" y="0" width="233" height="233">
<rect width="233" height="233" fill="#C4C4C4"/>
</mask>
<g mask="url(#mask0)">
<path fill-rule="evenodd" clip-rule="evenodd" d="M123.706 25.1268C141.247 26.4888 154.036 40.9791 168.192 51.3837C181.404 61.0948 195.051 70.035 203.708 83.93C213.181 99.1346 221.728 116.275 219.699 134.053C217.65 152.007 204.209 165.872 192.759 179.89C180.961 194.333 169.919 210.977 152.145 216.752C134.199 222.583 115.222 215.772 96.9587 211.016C78.1631 206.122 57.8142 202.733 44.4354 188.707C30.833 174.445 24.8559 154.229 24.0518 134.577C23.2913 115.991 31.0081 98.5436 40.0809 82.2824C48.5963 67.0202 60.0704 53.9915 74.5266 44.1111C89.322 33.9988 105.815 23.7377 123.706 25.1268Z" fill="#F5AA00"/>
<g clip-path="url(#clip0)">
<path d="M85.6026 157.097C84.0866 162.618 83.1392 169.018 84.27 174.709C85.462 180.712 92.2164 180.712 97.2104 180.724C102.718 180.737 102.724 172.187 97.2104 172.175C96.2263 172.175 95.2422 172.163 94.258 172.083C93.6529 172.034 92.4365 171.619 91.8802 171.772C90.7127 171.43 90.9633 171.882 92.626 173.121C92.6076 172.908 92.5893 172.694 92.571 172.48C92.8521 171.888 92.4548 170.367 92.4487 169.714C92.412 166.172 92.9194 162.783 93.8546 159.375C95.3155 154.056 87.0635 151.791 85.6026 157.097Z" fill="#2DC7BC"/>
<path d="M85.6449 128.273C85.4616 130.331 85.3515 132.377 85.81 134.411C86.3296 136.719 87.766 137.922 88.8296 139.895C89.771 141.647 89.447 143.76 89.2881 145.659C89.068 148.334 88.7991 151.009 88.5545 153.684C88.2 157.598 94.3126 157.574 94.6672 153.684C95.0645 149.348 96.1586 144.462 95.3151 140.139C94.9545 138.295 94.1293 136.835 93.0168 135.333C91.3419 133.067 91.5069 130.991 91.7514 128.273C92.1121 124.359 85.9995 124.383 85.6449 128.273Z" fill="#FF97B0"/>
<path d="M109.968 121.721C108.012 123.871 106.031 126.002 104.106 128.176C103.122 129.287 102.119 130.46 102.119 132.041C102.119 133.544 103.03 134.899 104.375 135.516C106.838 136.646 109.369 134.96 111.251 133.483C113.238 131.925 114.852 129.953 115.995 127.7C117.767 124.2 112.498 121.104 110.72 124.616C110.102 125.831 109.399 126.906 108.433 127.864C107.987 128.31 107.523 128.713 107.009 129.074C106.716 129.275 106.416 129.458 106.111 129.635C105.408 129.953 105.499 129.996 106.374 129.776C106.826 130.038 107.272 130.301 107.724 130.564C107.633 130.472 107.541 130.38 107.449 130.289C107.712 130.741 107.975 131.186 108.238 131.638C108.201 131.504 108.171 131.364 108.134 131.229C108.134 131.773 108.134 132.31 108.134 132.854C107.834 133.153 107.938 133.037 108.44 132.499C108.739 132.17 109.039 131.84 109.344 131.504C109.87 130.924 110.396 130.344 110.921 129.764C112.046 128.524 113.177 127.278 114.302 126.038C116.93 123.132 112.615 118.802 109.968 121.721Z" fill="#FF97B0"/>
<path d="M109.661 127.052C108.408 130.417 107.21 134.735 107.785 138.362C108.353 141.934 112.241 143.339 115.389 144.017C118.567 144.707 123.072 145.104 125.86 143.076C128.617 141.073 129.515 136.438 130.163 133.336C130.945 129.605 131.532 125.556 131.587 121.745C131.636 118.222 130.132 115.266 126.502 114.399C123.299 113.636 118.048 113.037 114.9 114.191C110.78 115.7 111.587 119.498 110.053 122.716C108.744 125.458 111.416 128.353 114.234 126.893C115.97 125.996 117.21 124.762 118.213 123.095C116.312 122.582 114.417 122.069 112.516 121.556C112.687 124.347 112.638 127.113 112.223 129.886C111.819 132.585 115.077 135.394 117.333 132.854C119.258 130.686 120.615 128.347 121.538 125.599C119.576 125.055 117.608 124.518 115.646 123.974C114.704 127.632 114.111 131.339 113.818 135.107C113.537 138.698 118.775 139.028 119.82 135.919C121.508 130.918 122.541 125.825 123.06 120.573C122.039 121.593 121.025 122.607 120.004 123.626C120.933 123.639 121.856 123.651 122.785 123.669C121.801 122.924 120.823 122.173 119.839 121.428C120.096 122.436 118.133 125.44 117.761 126.509C117.051 128.53 116.703 130.57 116.434 132.689C116.19 134.6 118.592 136.243 120.303 135.632C125.86 133.66 127.095 128.426 127.339 123.089C127.522 119.089 121.654 119.272 121.226 123.089C120.902 125.984 120.542 128.872 120.12 131.748C120.041 132.28 120.01 134.887 119.729 135.125C118.879 135.84 116.85 134.179 116.416 133.605C115.377 132.206 113.861 131.712 112.235 132.512C108.977 134.118 109.062 138.875 112.186 140.548C115.652 142.405 118.745 137.134 115.273 135.278C115.291 136.115 115.303 136.951 115.322 137.788C113.928 137.421 112.534 137.055 111.141 136.695C113.812 140.286 119.429 143.144 123.531 139.919C125.682 138.228 125.738 135.327 126.098 132.829C126.563 129.593 126.972 126.35 127.339 123.101C125.304 123.101 123.262 123.101 121.226 123.101C121.129 125.263 121.196 128.866 118.677 129.758C119.967 130.741 121.257 131.718 122.547 132.701C122.865 130.197 123.671 127.919 124.747 125.66C125.689 123.687 126.3 122.026 125.731 119.822C125.395 118.509 124.112 117.599 122.785 117.581C121.856 117.568 120.933 117.556 120.004 117.538C118.231 117.513 117.106 118.967 116.948 120.591C116.483 125.287 115.432 129.843 113.922 134.313C115.921 134.582 117.926 134.857 119.924 135.125C120.181 131.895 120.725 128.756 121.538 125.617C122.522 121.782 116.886 120.286 115.646 123.993C115.065 125.721 114.221 127.193 113.017 128.548C114.723 129.538 116.422 130.527 118.127 131.516C118.622 128.194 118.842 124.921 118.641 121.562C118.463 118.6 114.57 117.33 112.944 120.023C112.443 120.854 112.009 121.19 111.153 121.636C112.546 123.028 113.94 124.42 115.334 125.813C115.743 124.958 116.104 124.152 116.324 123.229C116.471 122.625 116.434 120.97 116.838 120.445C117.84 119.132 122.137 120.023 123.543 120.158C126.104 120.396 125.469 122.173 125.279 124.237C125.065 126.564 124.827 128.884 124.381 131.186C124.02 133.037 123.702 135.425 122.742 137.061C121.997 138.331 121.819 138.319 120.291 138.411C119.221 138.478 118.066 138.368 117.021 138.148C116.342 138.008 114.344 137.617 113.879 137.11C113.861 137.183 113.842 137.257 113.824 137.324C113.83 136.609 113.867 135.889 113.934 135.174C114.154 132.939 114.784 130.79 115.566 128.689C116.929 124.988 111.024 123.4 109.661 127.052Z" fill="#FF97B0"/>
<path d="M106.349 135.779C107.07 136.035 107.785 136.292 108.507 136.548C108.837 136.664 109.167 136.786 109.503 136.902C109.668 136.963 109.833 137.018 109.998 137.079C110.591 137.311 110.45 137.214 109.57 136.798C109.307 136.347 109.045 135.901 108.782 135.449C108.769 134.985 108.745 134.924 108.727 135.272C108.708 135.431 108.684 135.589 108.666 135.748C108.617 136.121 108.568 136.487 108.519 136.86C108.305 138.447 110.078 139.98 111.575 139.913C113.415 139.834 114.405 138.563 114.631 136.86C114.723 136.194 114.87 135.51 114.858 134.832C114.833 133.525 114.051 132.316 112.914 131.699C111.416 130.881 109.582 130.454 107.981 129.88C106.471 129.342 104.57 130.49 104.222 132.011C103.824 133.733 104.735 135.198 106.349 135.779Z" fill="#FF97B0"/>
<path d="M106.288 137.025C108.263 137.44 108.764 137.91 108.672 139.828C108.611 141.134 108.562 142.27 109.204 143.473C110.536 145.946 113.519 146.704 116.038 147.382C121.557 148.872 128.465 148.878 131.882 143.449C135.201 138.173 134.48 130.142 134.394 124.194C134.315 118.466 131.711 113.3 125.262 113.3C123.098 113.3 122.01 115.242 122.315 117.165C122.468 118.149 122.627 119.138 122.78 120.121C123.391 123.993 129.284 122.35 128.673 118.497C128.52 117.513 128.361 116.524 128.208 115.541C127.224 116.83 126.246 118.118 125.262 119.407C129.846 119.407 128.355 127.529 128.263 130.503C128.153 134.264 128.575 140.786 123.978 141.995C121.881 142.545 119.705 142.032 117.664 141.489C117.132 141.348 115.023 141.018 114.742 140.536C114.546 140.2 114.968 138.417 114.919 137.904C114.583 134.24 111.27 131.84 107.902 131.132C104.075 130.325 102.431 136.212 106.288 137.025Z" fill="#FF97B0"/>
<path d="M128.324 137.879C128.367 141.159 128.581 144.408 128.978 147.662C129.724 146.679 130.476 145.702 131.221 144.719C127.101 145.336 122.951 145.556 118.788 145.488C119.51 147.229 120.231 148.963 120.952 150.704C122.046 149.446 123.208 148.359 124.595 147.424C127.841 145.244 124.785 139.95 121.508 142.154C119.699 143.369 118.067 144.743 116.631 146.386C114.919 148.353 116.032 151.552 118.794 151.601C123.52 151.675 128.183 151.314 132.853 150.612C134.033 150.435 135.244 148.872 135.097 147.669C134.699 144.414 134.486 141.159 134.443 137.886C134.388 133.953 128.275 133.941 128.324 137.879Z" fill="#FF97B0"/>
<path d="M108.885 113.343C111.856 119.706 120.438 121.422 125.652 116.707C128.25 114.356 129.491 110.869 127.461 107.737C125.352 104.482 120.481 104.103 116.966 104.213C117.424 107.614 117.889 111.01 118.347 114.411C119.246 114.417 118.891 114.161 117.29 113.642C117.051 112.768 116.819 111.895 116.581 111.022C116.434 109.416 116.128 111.627 115.994 112.213C115.792 113.098 115.749 114.088 115.994 114.973C116.587 117.129 118.518 118.521 120.474 119.327C124.105 120.829 128.348 120.512 131.086 117.471C133.549 114.741 133.879 110.307 131.379 107.498C128.843 104.647 124.478 104.243 120.872 104.524C114.295 105.037 114.105 115.089 120.872 114.906C121.605 114.888 122.889 114.686 123.622 114.912C124.111 115.059 124.332 115.205 124.319 115.168C125.976 121.635 136.001 118.894 134.338 112.408C132.73 106.143 126.667 104.372 120.872 104.53C120.872 107.993 120.872 111.449 120.872 114.912C121.703 114.845 122.516 114.851 123.341 114.857C124.056 114.857 124.417 115.315 124.032 114.845C123.586 114.081 123.14 113.318 122.693 112.555C125.261 110.588 125.921 109.709 124.68 109.929C125.126 111.614 125.572 113.294 126.019 114.979C126.336 113.605 127.033 112.891 127.009 111.358C126.978 109.544 126.19 107.755 124.931 106.454C122.357 103.81 118.983 103.865 115.59 104.402C109.777 105.312 111.189 114.784 116.972 114.601C117.981 114.57 119.399 114.393 120.358 114.845C119.735 114.222 119.117 113.605 118.494 112.982C118.628 113.196 118.763 113.41 118.897 113.623C118.72 112.292 118.549 110.955 118.372 109.624C118.665 108.744 118.494 109.184 118.463 109.111C118.732 109.703 117.455 107.248 117.858 108.109C116.672 105.569 113.011 104.927 110.749 106.246C108.139 107.761 107.693 110.79 108.885 113.343Z" fill="#202C79"/>
<path d="M114.099 103.755C110.64 104.738 108.036 107.956 108.121 111.614C108.201 115.089 110.878 118.631 114.417 119.205C115.841 119.437 117.131 119.437 118.421 118.68C119.497 118.051 120.524 116.817 120.811 115.578C121.379 113.08 120.053 109.654 117.18 109.19C116.978 109.172 116.789 109.129 116.599 109.062C117.101 109.172 117.529 109.41 117.883 109.776C117.51 109.379 117.602 109.495 118.146 110.124C118.415 110.582 118.543 111.077 118.519 111.614C118.531 111.052 118.507 111.217 118.439 112.109C118.073 112.872 118.024 113.019 118.299 112.543C118.066 112.988 117.73 113.336 117.284 113.581C116.477 113.862 116.337 113.923 116.862 113.764C119.472 113.025 121.361 110.063 120.493 107.376C119.625 104.72 116.899 102.961 114.099 103.755Z" fill="#202C79"/>
<path d="M117.169 120.182C118.324 120.39 119.173 121.251 120.237 121.764C121.985 122.613 123.88 123.077 125.83 123.138C129.553 123.254 132.725 121.806 135.537 119.492C132.817 119.144 130.097 118.79 127.377 118.442C129.388 123.016 127.688 132.866 135.543 131.59C142.683 130.429 141.821 120.732 140.696 115.651C137.53 116.982 134.363 118.32 131.197 119.651C132.511 122.381 132.346 125.519 130.946 128.17C129.088 131.687 131.399 135.864 135.433 135.98C141.998 136.17 144.186 130.167 144.419 124.701C144.645 119.297 143.147 114.314 138.447 111.23C132.835 107.553 127.627 116.542 133.202 120.194C134.834 121.263 134.333 126.063 133.342 127.358C133.966 126.735 134.583 126.118 135.207 125.495C135.28 125.532 135.36 125.568 135.433 125.599C136.931 128.2 138.422 130.808 139.92 133.409C143.159 127.284 143.165 120.622 140.17 114.411C137.511 108.897 129.455 112.909 130.671 118.411C130.879 119.339 131.099 120.255 131.166 121.208C131.203 121.733 131.001 122.985 131.173 122.82C132.395 122.313 133.624 121.806 134.846 121.3C134.657 121.3 134.467 121.294 134.278 121.294C135.775 122.148 137.267 123.01 138.764 123.864C138.703 123.761 138.642 123.651 138.581 123.547C138.819 124.42 139.052 125.293 139.29 126.167C138.911 121.501 138.239 117.513 136.344 113.202C134.877 109.862 130.463 110.271 128.183 112.152C125.647 114.24 122.407 110.613 119.925 110.167C117.169 109.672 114.326 110.918 113.531 113.794C112.847 116.31 114.393 119.681 117.169 120.182Z" fill="#202C79"/>
<path d="M130.237 130.997C130.237 131.211 130.225 131.418 130.201 131.632C130.262 131.174 130.323 130.71 130.384 130.252C130.323 130.625 130.231 130.973 130.09 131.321C130.268 130.905 130.439 130.496 130.616 130.081C130.506 130.325 130.384 130.557 130.237 130.777C129.528 131.883 129.369 133.537 129.712 134.777C130.042 135.98 130.977 137.287 132.102 137.879C133.306 138.514 134.767 138.832 136.105 138.405C137.426 137.977 138.453 137.195 139.211 136.017C140.158 134.551 140.629 132.725 140.629 130.997C140.629 129.666 140.048 128.267 139.107 127.327C138.208 126.429 136.729 125.751 135.433 125.806C134.088 125.867 132.694 126.307 131.759 127.327C130.824 128.347 130.237 129.593 130.237 130.997Z" fill="#202C79"/>
<path d="M129.271 127.565C129.241 127.901 129.253 127.828 129.308 127.345C129.283 127.474 129.253 127.608 129.222 127.736C129.204 127.816 129.063 128.31 129.045 128.304C129.216 127.913 129.259 127.822 129.155 128.029C129.112 128.121 129.069 128.206 129.021 128.298C128.929 128.469 128.397 129.208 128.947 128.506C128.519 129.055 128.201 129.544 128.104 130.258C128.018 130.912 128.098 131.638 128.464 132.206C129.222 133.379 130.549 133.928 131.918 133.611C133.868 133.159 135.335 131.62 135.922 129.745C136.399 128.219 135.359 126.344 133.788 125.99C132.126 125.611 130.543 126.49 130.029 128.121C129.846 128.707 130.378 127.529 130.047 128.041C130.176 127.846 130.42 127.529 130.121 127.901C129.937 128.127 130.726 127.541 130.231 127.791C130.365 127.736 130.5 127.681 130.634 127.632C130.524 127.675 130.408 127.706 130.292 127.724C131.282 129.428 132.272 131.125 133.263 132.829C133.953 131.95 134.449 131.162 134.858 130.118C135.176 129.299 135.304 128.445 135.378 127.571C135.518 125.977 133.868 124.451 132.321 124.518C130.549 124.591 129.424 125.855 129.271 127.565Z" fill="#FF97B0"/>
<path d="M130.603 128.628C130.652 128.738 130.671 128.89 130.732 128.994C130.891 129.269 130.64 128.328 130.683 128.64C130.769 129.238 130.744 128.371 130.744 128.365C130.787 128.426 130.5 129.025 130.756 128.445C130.97 127.968 130.805 128.335 130.738 128.426C130.536 128.713 131.264 127.913 130.891 128.237C130.567 128.518 131.111 128.06 131.154 128.054C131.086 128.06 130.817 128.237 130.744 128.267C130.09 128.542 129.515 129.446 129.338 130.093C129.136 130.826 129.228 131.797 129.644 132.444C130.066 133.098 130.689 133.672 131.471 133.849C132.327 134.044 133.024 133.88 133.825 133.544C136.135 132.567 137.456 129.324 136.496 127.009C136.178 126.24 135.842 125.623 135.09 125.184C134.436 124.799 133.47 124.64 132.737 124.878C131.319 125.33 129.949 127.046 130.603 128.628Z" fill="#FF97B0"/>
<path d="M93.757 123.816C97.1862 124.219 100.609 124.438 104.057 124.469C103.073 123.18 102.095 121.892 101.111 120.603C100.988 121.263 100.866 121.916 100.744 122.576C101.728 121.831 102.706 121.08 103.69 120.335C101.361 120.359 99.0383 120.377 96.7094 120.402C95.548 120.414 94.3805 120.426 93.2191 120.439C92.4428 120.445 91.6665 120.451 90.8902 120.463C89.7899 120.109 89.4293 120.579 89.8144 121.874C89.2276 123.199 89.5821 123.7 90.8719 123.376C91.4587 123.406 92.0394 123.437 92.6262 123.461C93.7937 123.522 94.9612 123.577 96.1287 123.638C98.6594 123.767 101.19 123.895 103.721 124.017C102.7 122.997 101.685 121.984 100.664 120.964C100.548 121.452 100.536 121.935 100.646 122.429C100.732 123.296 100.75 123.406 100.695 122.753C101.306 122.283 101.911 121.819 102.523 121.348C100.493 122.093 97.1068 121.483 94.9307 121.428C92.345 121.361 89.1909 121.648 86.6847 120.964C87.296 121.434 87.9011 121.898 88.5124 122.368C88.4452 122.234 88.384 122.1 88.3168 121.965C88.4207 122.747 88.5246 123.535 88.6224 124.316C89.0014 122.948 89.4965 122.1 89.0625 120.628C87.9439 116.872 82.0453 118.472 83.17 122.252C82.8643 121.232 83.0172 121.519 82.8032 122.442C82.6687 123.077 82.5893 123.669 82.7482 124.316C83.0355 125.525 83.9341 126.441 85.0771 126.851C87.9378 127.87 91.9355 127.461 94.949 127.535C97.7425 127.602 101.502 128.231 104.167 127.235C107.223 126.099 106.465 123.474 106.801 120.964C107.028 119.272 105.218 117.984 103.745 117.91C99.4601 117.697 95.1813 117.44 90.8963 117.269C87.8889 117.147 84.3925 117.898 84.4597 121.66C84.5209 124.988 87.5527 126.417 90.4684 126.564C94.8512 126.783 99.3195 126.49 103.714 126.448C104.961 126.435 106.416 125.513 106.661 124.206C106.783 123.547 106.905 122.893 107.028 122.234C107.388 120.298 106.196 118.387 104.081 118.368C100.634 118.338 97.2046 118.118 93.7815 117.715C89.8633 117.245 89.8939 123.358 93.757 123.816Z" fill="#8B8987"/>
<path d="M81.7149 117.385C80.4679 119.425 79.7222 121.727 80.8591 123.999C81.9289 126.124 84.5328 127.217 86.7395 126.179C90.7616 124.292 90.566 117.165 86.1771 115.81C81.3115 114.301 78.2918 119.431 78.2735 123.639C78.2491 128.994 84.5023 130.38 88.0598 127.235C92.0758 123.687 90.1381 116.946 84.9913 115.81C81.1587 114.961 79.5205 120.848 83.3653 121.697C84.0683 121.849 84.3067 122.173 84.0438 122.655C83.9705 122.79 83.7565 122.79 83.7688 122.918C83.7749 122.967 84.2944 123.602 84.3495 123.596C84.4167 123.584 84.3922 123.309 84.4106 123.284C84.435 123.242 84.9729 121.507 84.9668 121.489C84.9546 121.465 84.7896 121.636 84.5267 121.66C84.4839 121.654 84.4473 121.642 84.4045 121.636C83.5609 120.567 83.2736 120.408 83.5426 121.171C83.6648 120.915 83.3286 121.385 83.4998 121.355C83.6159 121.33 84.2333 120.622 84.4717 120.561C85.5353 120.359 86.1405 120.616 86.2933 121.33C86.3238 121.611 86.3666 121.654 86.4277 121.452C86.5928 121.397 86.9045 120.616 86.9962 120.469C89.0439 117.098 83.7626 114.027 81.7149 117.385Z" fill="#8B8987"/>
<path d="M93.3837 122.564C87.7784 122.118 85.7368 129.629 89.5633 133.116C91.2993 134.698 93.8666 134.771 95.7309 133.373C98.2982 131.443 98.1576 128.267 97.3691 125.477C96.385 126.765 95.4069 128.054 94.4228 129.342C96.8556 129.391 99.2885 129.446 101.721 129.495C102.73 129.513 104.386 129.788 105.371 129.568C106.789 129.977 107.033 129.55 106.104 128.286C106.147 127.064 105.707 126.674 104.784 127.125C103.757 126.826 101.862 127.541 100.811 127.663C99.6124 127.803 98.4082 127.919 97.2041 128.017C94.7957 128.219 92.3873 128.328 89.9667 128.396C86.0424 128.499 86.0241 134.606 89.9667 134.502C94.3984 134.386 98.8056 134.05 103.201 133.47C106.257 133.067 109.998 132.878 111.281 129.538C112.431 126.545 110.365 124.066 107.461 123.565C103.311 122.851 98.6222 123.321 94.4106 123.229C92.424 123.187 90.9325 125.214 91.4643 127.095C91.4582 128.249 92.0939 128.774 93.3714 128.67C97.308 128.982 97.2896 122.875 93.3837 122.564Z" fill="#8B8987"/>
<path d="M89.1718 124.67C87.6253 125.99 86.5251 127.956 86.6412 130.032C86.7574 132.151 88.1021 134.203 90.1804 134.863C92.1487 135.492 94.2942 134.808 95.6757 133.293C97.3322 131.473 97.4422 129.055 96.996 126.759C96.6842 125.141 94.7404 124.212 93.2367 124.628C91.5374 125.092 90.7917 126.759 91.1034 128.383C91.1768 128.78 91.1584 128.646 91.1401 129.147C91.134 129.367 91.134 129.379 91.1279 129.196C91.2196 129.073 91.2135 129.092 91.1218 129.238C91.0117 129.422 91.024 129.403 91.1584 129.189C91.2624 129.086 91.3907 129.025 91.5374 129.006C91.7819 128.957 92.0937 129.037 92.3015 129.159C92.5949 129.33 92.6194 129.464 92.7599 129.745C92.5154 129.269 92.6683 129.751 92.6866 129.989C92.7905 129.635 92.8027 129.58 92.711 129.831C92.7661 129.739 92.8211 129.647 92.8761 129.556C92.6499 129.806 93.3895 129.073 93.4874 128.988C94.7466 127.919 94.5876 125.77 93.4874 124.67C92.2465 123.425 90.431 123.596 89.1718 124.67Z" fill="#8B8987"/>
<path d="M88.3468 127.064C87.8334 128.426 87.8517 129.898 88.1451 131.302C88.4019 132.554 89.82 133.599 91.0914 133.544C91.6354 133.519 92.155 133.379 92.6318 133.128C93.3653 132.744 93.7504 132.035 94.0377 131.302C94.2455 130.783 94.4472 130.264 94.6551 129.745C94.9301 129.055 94.704 128.005 94.3494 127.394C93.9766 126.759 93.2492 126.154 92.5218 125.99C91.7393 125.812 90.8591 125.849 90.1684 126.295C89.4593 126.753 89.0742 127.339 88.7625 128.121C88.5547 128.64 88.353 129.159 88.1451 129.678C90.1073 129.678 92.0755 129.678 94.0377 129.678C94.0132 129.562 93.9888 129.446 93.9705 129.33C94.0071 129.599 94.0438 129.873 94.0805 130.142C94.0316 129.727 94.0316 129.324 94.0805 128.902C94.0438 129.171 94.0071 129.446 93.9705 129.715C94.0255 129.36 94.1172 129.025 94.2394 128.689C94.5023 127.986 94.2944 126.96 93.9338 126.338C93.5609 125.703 92.8335 125.098 92.1061 124.933C90.3701 124.536 88.952 125.464 88.3468 127.064Z" fill="#8BDDEB"/>
<path d="M82.3022 118.509C80.9452 120.048 80.3584 122.057 80.9269 124.066C81.2569 125.238 82.2716 126.093 83.4697 126.252C84.0259 126.325 84.5333 126.264 85.0529 126.045C85.713 125.764 86.0737 125.367 86.5138 124.793C87.5713 123.419 87.7608 121.519 87.3818 119.877C87.0211 118.319 85.1446 117.251 83.6225 117.745C81.9904 118.271 81.1041 119.834 81.4892 121.501C81.5137 121.605 81.5381 121.709 81.5503 121.813C81.5137 121.544 81.477 121.269 81.4403 121C81.4709 121.269 81.4709 121.526 81.4403 121.8C81.477 121.532 81.5137 121.257 81.5503 120.988C81.532 121.092 81.5137 121.196 81.4892 121.3C81.4586 121.422 81.2814 121.88 81.4892 121.385C81.6848 120.921 81.5259 121.275 81.4648 121.379C81.3975 121.495 81.3181 121.599 81.2325 121.709C83.0968 121.953 84.9551 122.197 86.8194 122.435C86.7766 122.283 86.7461 122.142 86.7216 121.984C86.7583 122.252 86.795 122.527 86.8316 122.796C86.8133 122.588 86.8133 122.387 86.8316 122.179C86.795 122.448 86.7583 122.722 86.7216 122.991C86.7338 122.887 86.7522 122.79 86.7705 122.686C86.8011 122.558 86.9722 122.118 86.7644 122.613C86.5566 123.095 86.74 122.729 86.7827 122.631C86.8867 122.35 86.2754 123.217 86.6299 122.82C87.6874 121.623 87.8952 119.663 86.6299 118.503C85.4624 117.446 83.433 117.232 82.3022 118.509Z" fill="#8BDDEB"/>
<path d="M95.609 125.684C97.9807 127.956 96.6787 132.286 94.8939 134.508C92.9439 136.939 96.3792 140.414 98.3536 137.965C101.795 133.678 103.543 126.503 99.0688 122.228C96.7888 120.054 93.329 123.504 95.609 125.684Z" fill="#FFB4B0"/>
<path d="M100.75 124.597C102.003 127.406 101.331 130.447 99.5273 132.829C97.6324 135.339 101.875 137.776 103.751 135.296C106.667 131.437 106.905 126.466 104.974 122.136C103.696 119.266 99.4784 121.745 100.75 124.597Z" fill="#FFB4B0"/>
<path d="M105.218 123.73C105.823 126.649 105.004 129.379 103.225 131.718C101.324 134.221 105.566 136.658 107.449 134.185C110.023 130.796 110.787 126.557 109.937 122.429C109.301 119.358 104.588 120.658 105.218 123.73Z" fill="#FFB4B0"/>
<path d="M114.155 142.111C114.075 142.178 113.568 142.472 113.922 142.301C114.032 142.246 114.485 142.026 113.99 142.246C113.531 142.447 113.886 142.301 114.002 142.27C114.13 142.24 114.265 142.215 114.399 142.197C114.13 142.233 113.855 142.27 113.586 142.307C113.8 142.288 114.008 142.288 114.228 142.307C113.959 142.27 113.684 142.233 113.415 142.197C113.574 142.221 113.727 142.252 113.886 142.295C113.177 141.586 112.461 140.872 111.752 140.163C111.807 140.285 111.838 140.395 111.862 140.53C111.826 140.261 111.789 139.986 111.752 139.717C111.765 139.852 111.759 139.962 111.74 140.096C111.777 139.827 111.814 139.553 111.85 139.284C111.82 139.424 111.673 139.797 111.887 139.284C112.009 139.021 112.034 138.96 111.954 139.088C111.826 139.29 111.924 139.174 112.241 138.728C111.966 139.009 112.547 138.514 112.571 138.496C112.174 138.765 113.299 138.264 112.834 138.374C113.103 138.337 113.378 138.301 113.647 138.264C113.562 138.276 113.476 138.282 113.391 138.282C111.795 138.295 110.261 139.675 110.334 141.336C110.408 142.978 111.679 144.401 113.391 144.389C116.257 144.365 118.495 141.513 117.712 138.716C117.187 136.835 115.396 136.06 113.586 136.194C112.131 136.298 110.939 136.853 109.833 137.788C108.604 138.82 108.69 141.055 109.833 142.105C111.135 143.308 112.847 143.211 114.155 142.111Z" fill="white"/>
<path d="M106.856 128.615C105.633 131.687 102.809 133.709 99.6307 134.338C96.5438 134.948 97.8519 139.663 100.933 139.046C105.896 138.057 109.729 134.539 111.575 129.91C112.736 126.991 108.011 125.727 106.856 128.615Z" fill="#FFB4B0"/>
<path d="M107.211 134.612C107.137 134.734 107.064 134.844 106.99 134.967C107.217 134.582 107.009 134.936 106.911 135.034C106.813 135.131 106.703 135.223 106.612 135.321C106.391 135.553 107.033 135.083 106.526 135.376C106.404 135.443 106.288 135.516 106.165 135.583C105.945 135.705 105.97 135.638 106.178 135.583C105.835 135.675 105.517 135.773 105.169 135.815C103.898 135.986 103.091 137.684 103.464 138.82C103.916 140.218 105.108 140.713 106.471 140.524C108.543 140.243 110.389 138.85 111.44 137.073C112.088 135.974 111.728 134.344 110.56 133.733C109.374 133.116 107.901 133.44 107.211 134.612Z" fill="#FFB4B0"/>
<path d="M94.7898 136.53C94.2824 139.272 93.769 144.194 96.9231 145.58C98.3045 146.185 100.346 146.227 101.85 146.264C103.531 146.307 105.193 145.922 106.483 144.792C108.653 142.887 109.13 139.339 106.563 137.531C103.647 135.473 100.475 137.372 98.4023 139.626C97.0637 141.079 97.7666 143.027 99.4843 143.711C99.9427 143.894 100.401 144.078 100.866 144.261C100.866 142.691 100.866 141.122 100.866 139.553C100.97 139.559 101.08 139.571 101.184 139.577C98.5246 137.873 96.0734 142.099 98.7141 143.797C99.7838 144.481 100.951 144.627 102.168 144.261C104.643 143.522 104.319 140.408 102.168 139.553C101.709 139.369 101.251 139.186 100.786 139.003C101.147 140.365 101.508 141.727 101.868 143.088C102.113 142.82 103.788 141.446 103.781 141.525C103.879 140.517 102.632 141.372 102.162 141.385C101.446 141.409 100.731 141.275 100.016 141.195C99.8082 141.171 99.6065 141.146 99.3987 141.122C98.494 140.914 98.549 141.128 99.5576 141.751C99.4109 141.818 99.4659 138.05 99.5087 137.837C100.077 134.753 95.3705 133.434 94.7898 136.53Z" fill="#FFB4B0"/>
<path d="M89.9853 118.997C90.5599 118.997 91.1345 118.997 91.7091 118.997C92.9866 118.997 94.2153 117.874 94.1541 116.555C94.093 115.229 93.0783 114.112 91.7091 114.112C91.1345 114.112 90.5599 114.112 89.9853 114.112C88.7078 114.112 87.4791 115.236 87.5403 116.555C87.5953 117.88 88.61 118.997 89.9853 118.997Z" fill="#FFB4B0"/>
<path d="M95.0834 117.654C95.3157 117.88 95.5541 118.1 95.7864 118.326C96.2448 118.765 96.8744 119.04 97.5162 119.04C97.8524 119.052 98.1642 118.985 98.4576 118.832C98.7632 118.735 99.0199 118.564 99.2461 118.326C99.674 117.862 99.9919 117.251 99.9613 116.597C99.9307 115.956 99.7229 115.321 99.2461 114.869C99.0138 114.643 98.7754 114.423 98.5432 114.197C98.0847 113.758 97.4551 113.483 96.8133 113.483C96.4771 113.471 96.1654 113.538 95.8719 113.691C95.5663 113.788 95.3035 113.959 95.0834 114.197C94.6555 114.662 94.3377 115.272 94.3682 115.926C94.3988 116.561 94.6127 117.202 95.0834 117.654Z" fill="#FFB4B0"/>
<path d="M101.342 119.345C101.458 119.345 101.575 119.345 101.685 119.345C102.021 119.358 102.333 119.29 102.626 119.138C102.932 119.04 103.194 118.869 103.415 118.631C103.653 118.411 103.824 118.149 103.922 117.843C104.075 117.55 104.148 117.239 104.13 116.903C104.099 116.689 104.069 116.469 104.044 116.255C103.928 115.84 103.72 115.48 103.415 115.175C103.249 115.046 103.084 114.918 102.919 114.79C102.54 114.57 102.125 114.46 101.685 114.454C101.569 114.454 101.452 114.454 101.342 114.454C101.006 114.442 100.694 114.509 100.401 114.662C100.095 114.759 99.8325 114.93 99.6125 115.168C99.3741 115.388 99.2029 115.651 99.1051 115.956C98.9523 116.249 98.879 116.561 98.8973 116.897C98.9279 117.11 98.9584 117.33 98.9829 117.544C99.099 117.959 99.3068 118.319 99.6125 118.625C99.7775 118.753 99.9426 118.881 100.108 119.01C100.487 119.229 100.902 119.339 101.342 119.345Z" fill="#FFB4B0"/>
<path d="M94.6673 144.432C93.9521 148.133 93.5365 151.882 93.6343 155.656C93.6954 157.922 93.3714 161.354 95.9632 162.361C97.4302 162.929 99.2579 162.691 100.804 162.74C102.32 162.789 104.026 163.088 105.523 162.752C108.415 162.111 108.849 159.247 109.13 156.725C109.6 152.499 110.909 142.496 104.246 142.374C97.6564 142.258 96.9045 151.943 96.6539 156.603C96.5194 159.131 99.9853 159.784 101.208 157.836C102.418 155.919 102.962 153.903 102.883 151.638C101.251 151.638 99.6246 151.638 97.9926 151.638C98.1087 153.58 98.2187 155.522 98.3349 157.47C98.4755 159.888 101.55 160.792 102.889 158.703C104.839 155.662 105.694 152.236 105.322 148.633C105.059 146.142 101.024 145.036 100.517 147.986C100.12 150.307 100.108 152.377 100.419 154.703C100.707 156.823 103.971 157.012 104.888 155.29C105.756 153.659 106.349 152.041 106.648 150.209C105.047 149.995 103.445 149.775 101.844 149.562C101.776 150.716 101.715 151.864 101.648 153.018C101.471 156.157 106.361 156.151 106.538 153.018C106.605 151.864 106.666 150.716 106.734 149.562C106.886 146.856 102.375 146.172 101.929 148.914C101.703 150.325 101.336 151.559 100.664 152.829C102.155 153.024 103.641 153.22 105.132 153.415C104.943 152.01 104.992 150.685 105.23 149.293C103.628 149.079 102.027 148.859 100.425 148.646C100.719 151.461 100.199 153.861 98.665 156.248C100.181 156.658 101.703 157.073 103.219 157.482C103.103 155.54 102.993 153.598 102.877 151.65C102.693 148.536 97.8826 148.487 97.9865 151.65C98.0354 153.091 97.742 154.16 96.9779 155.381C98.4938 155.79 100.016 156.206 101.532 156.615C101.654 154.337 101.88 151.937 102.626 149.757C102.815 149.201 103.286 146.875 104.276 147.522C104.778 147.852 104.484 150.533 104.484 151.046C104.484 152.035 104.826 157.305 104.172 157.873C103.592 158.374 98.2738 157.916 97.253 157.659C97.742 158.032 98.2249 158.41 98.7139 158.783C97.9437 157.555 98.4877 154.117 98.5366 152.713C98.6283 150.362 98.9278 148.053 99.374 145.745C99.9731 142.655 95.2663 141.342 94.6673 144.432Z" fill="#FFB4B0"/>
<path d="M131.221 152.798C126.178 155.436 119.631 155.113 114.099 155.216C107.559 155.339 101.03 155.039 94.5265 154.398C92.8761 154.233 90.6328 155.833 90.4005 157.537C89.6181 163.21 91.8553 168.09 96.4765 171.491C101.501 175.186 107.876 175.418 113.873 175.094C119.723 174.776 126.172 175.155 131.526 172.395C136.691 169.732 139.515 164.395 138.519 158.703C138.226 157.042 136.111 155.375 134.393 155.565C122.962 156.835 111.514 157.928 100.046 158.832C95.095 159.223 94.4104 165.451 98.9093 167.228C104.704 169.518 110.713 170.929 116.917 171.546C121.893 172.041 127.376 172.193 130.365 167.473C132.272 164.468 129.686 161.384 126.673 161.042C123.977 160.737 121.288 160.59 118.58 160.664C115.86 160.737 113.011 161.158 110.315 160.633C105.511 159.699 100.792 156.365 96.4887 154.154C93.8419 152.792 89.7587 154.41 90.0521 157.842C90.425 162.258 93.359 166.41 95.8958 169.94C98.3836 173.408 101.342 176.639 105.144 178.697C109.661 181.14 114.448 181.195 119.46 181.164C123.873 181.14 129.161 181.799 133.311 179.943C137.828 177.927 138.715 173.506 138.91 169.006C139.136 163.882 138.702 158.734 137.767 153.696C137.388 151.65 137.009 149.427 135.237 148.084C133.213 146.557 130.86 146.85 128.494 147.143C125.426 147.522 122.168 147.992 119.466 149.623C117.412 150.862 116.239 152.633 115.511 154.868C115.419 155.155 115.352 155.461 115.273 155.754C115.053 156.566 115.688 155.198 115.303 155.656C115.273 155.693 115.908 154.893 115.591 155.253C115.658 155.18 116.019 155.259 115.633 155.149C115.566 155.131 116.41 155.039 115.786 155.052C115.462 155.058 114.961 155.259 114.649 155.32C109.252 156.395 111.538 164.639 116.923 163.564C120.927 162.764 122.693 160.456 123.855 156.792C123.849 156.804 123.892 156.932 123.757 156.981C123.024 157.262 124.79 156.536 124.209 156.725C124.79 156.529 125.359 156.34 125.958 156.187C126.972 155.931 130.542 156.01 131.135 155.4C129.265 153.171 128.647 152.988 129.289 154.838C129.362 155.21 129.436 155.583 129.509 155.955C129.754 157.262 129.943 158.569 130.084 159.894C130.34 162.349 130.444 164.822 130.402 167.29C130.383 168.493 130.78 171.399 129.772 172.193C128.623 173.097 125.64 172.554 124.332 172.566C121.697 172.59 119.063 172.627 116.428 172.615C111.978 172.59 108.622 171.467 105.48 168.242C104.081 166.801 102.919 165.183 101.837 163.491C100.933 162.08 98.7381 159.485 98.5975 157.83C96.452 159.058 94.3065 160.291 92.1609 161.519C97.1977 164.108 102.455 167.613 108.035 168.859C114.087 170.209 120.511 168.871 126.667 169.573C125.438 167.43 124.203 165.287 122.975 163.143C122.333 164.157 114.875 162.746 113.598 162.526C109.337 161.781 105.205 160.56 101.189 158.972C100.81 161.769 100.431 164.572 100.052 167.369C111.52 166.465 122.969 165.372 134.399 164.102C133.024 163.058 131.648 162.007 130.273 160.963C130.756 163.711 126.923 165.28 124.888 165.732C121.349 166.52 117.492 166.343 113.879 166.538C110.462 166.722 106.685 167.009 103.439 165.677C101.312 164.81 98.2919 162.465 98.6587 159.803C97.2833 160.847 95.908 161.897 94.5326 162.942C101.831 163.662 109.154 163.943 116.483 163.705C122.993 163.491 129.662 163.253 135.548 160.181C140.426 157.629 136.105 150.252 131.221 152.798Z" fill="#2DD6BC"/>
<path d="M88.7563 159.277C90.0461 168.151 91.782 178.184 100.884 182.245C108.035 185.439 119.185 186.294 124.986 180.071C128.739 176.047 122.7 169.989 118.934 174.025C115.585 177.616 107.424 176.254 103.598 174.068C98.2247 171.002 97.803 162.435 97.0083 157C96.6721 154.697 93.7809 153.476 91.7454 154.013C89.282 154.667 88.4262 157.006 88.7563 159.277Z" fill="#2DD6BC"/>
<path d="M121.624 155.778C121.557 156.896 121.349 155.974 121.704 156.059C121.954 156.12 122.541 155.876 122.829 155.845C123.495 155.778 124.308 156.016 124.943 155.852C125.964 155.583 125.09 156.908 124.228 155.137C125.237 157.213 128.202 157.769 130.084 156.67C132.205 155.43 132.633 152.908 131.618 150.82C129.766 146.997 124.62 146.936 120.995 147.498C116.618 148.182 113.336 151.265 113.073 155.772C112.743 161.274 121.3 161.256 121.624 155.778Z" fill="#2DD6BC"/>
<path d="M123.458 183.515C129.515 182.288 134.179 177.787 136.233 172.071C137.016 169.897 135.353 167.393 133.244 166.813C130.872 166.16 128.764 167.619 127.981 169.799C126.905 172.792 124.216 174.66 121.178 175.271C118.91 175.729 117.608 178.416 118.189 180.529C118.843 182.886 121.19 183.979 123.458 183.515Z" fill="#2DD6BC"/>
<path d="M125.359 84.5919C125.322 83.163 125.407 81.8011 125.762 80.4149C125.89 79.9081 126.379 79.0836 126.343 78.5707C126.942 77.8134 126.544 77.5203 125.138 77.6913C124.191 76.9524 123.69 76.8913 123.641 77.5142C123.433 77.7341 123.506 78.9493 123.451 79.2668C123.335 79.8714 123.182 80.4699 122.987 81.05C122.522 82.4546 121.789 83.6942 120.939 84.8912C118.659 88.1033 123.959 91.1567 126.214 87.9751C128.592 84.6225 132.437 75.8776 127.559 72.9586C124.998 71.4258 122.266 73.1296 121.043 75.499C119.631 78.2409 119.166 81.5447 119.24 84.5919C119.344 88.5125 125.456 88.5308 125.359 84.5919Z" fill="#FF6A55"/>
<path d="M122.578 88.5858C126.508 88.5858 126.52 82.479 122.578 82.479C118.641 82.479 118.635 88.5858 122.578 88.5858Z" fill="#FF6A55"/>
<path d="M118.244 96.036C118.69 96.8116 119.46 97.4284 120.328 97.6665C120.646 97.752 121.006 97.807 121.337 97.8192C121.373 97.8192 121.41 97.8192 121.453 97.8192C121.709 97.807 122.107 97.7581 122.357 97.6971C123.011 97.5261 123.574 97.1841 124.063 96.7261C124.295 96.5063 124.478 96.2376 124.637 95.9689C124.986 95.3948 125.035 94.9124 125.096 94.2529C125.114 93.8315 125.022 93.4407 124.833 93.0743C124.711 92.6956 124.497 92.3659 124.203 92.0911C123.672 91.5598 122.804 91.1628 122.039 91.1995C121.251 91.2361 120.432 91.4926 119.876 92.0911C119.717 92.2987 119.558 92.5002 119.399 92.7079C119.124 93.1842 118.983 93.6971 118.983 94.2468C118.983 94.2651 118.983 94.2773 118.977 94.2956C119.014 94.0269 119.05 93.7521 119.087 93.4834C119.081 93.5262 119.069 93.5689 119.05 93.6117C119.154 93.3674 119.258 93.1231 119.356 92.885C119.338 92.9277 119.313 92.9582 119.289 92.9949C119.448 92.7872 119.607 92.5857 119.766 92.3781C119.735 92.4086 119.704 92.4392 119.668 92.4697C119.876 92.3109 120.077 92.1521 120.285 91.9934C120.236 92.03 120.187 92.0544 120.126 92.0789C120.371 91.975 120.615 91.8712 120.854 91.7735C120.793 91.798 120.737 91.8102 120.676 91.8224C120.945 91.7857 121.22 91.7491 121.489 91.7125C121.41 91.7247 121.343 91.7247 121.263 91.7125C121.532 91.7491 121.807 91.7857 122.076 91.8224C122.033 91.8163 121.991 91.8041 121.948 91.7857C122.192 91.8896 122.437 91.9934 122.675 92.0911C122.632 92.0728 122.596 92.0544 122.559 92.03C122.767 92.1888 122.969 92.3476 123.176 92.5063C123.14 92.4758 123.109 92.4514 123.085 92.4147C123.244 92.6224 123.403 92.8239 123.562 93.0315C123.543 93.0071 123.525 92.9827 123.513 92.9521C123.134 92.2926 122.418 91.7491 121.685 91.5476C121.282 91.4193 120.872 91.401 120.469 91.4926C120.059 91.5109 119.68 91.6331 119.332 91.8529C118.678 92.2743 118.103 92.8972 117.926 93.6788C117.748 94.4849 117.828 95.3032 118.244 96.036Z" fill="#FF6A55"/>
</g>
</g>
<defs>
<clipPath id="clip0">
<rect width="66.1691" height="112.334" fill="white" transform="translate(78.2734 72.3723)"/>
</clipPath>
</defs>
</svg>
