<svg width="233" height="233" viewBox="0 0 233 233" fill="none" xmlns="http://www.w3.org/2000/svg">
<mask id="mask0_4066_2629" style="mask-type:alpha" maskUnits="userSpaceOnUse" x="0" y="0" width="233" height="233">
<rect width="233" height="233" fill="#C4C4C4"/>
</mask>
<g mask="url(#mask0_4066_2629)">
<path fill-rule="evenodd" clip-rule="evenodd" d="M105.77 24.0942C125.311 25.5149 136.652 46.2791 153.432 56.3837C170.894 66.8991 196.137 66.947 206.278 84.618C216.442 102.331 207.809 124.519 204.047 144.588C200.435 163.858 198.551 184.889 184.853 198.929C171.384 212.733 150.469 214.206 131.71 218.728C113.866 223.03 96.0169 228.586 78.084 224.668C59.426 220.591 40.8962 211.794 29.5916 196.415C18.5912 181.45 20.8431 161.428 18.0993 143.065C15.3385 124.587 6.86823 105.84 13.4451 88.3511C20.1517 70.5177 37.7848 60.0034 53.4315 49.1135C69.6287 37.8405 86.0817 22.6628 105.77 24.0942Z" fill="#018EFF"/>
<g clip-path="url(#clip0_4066_2629)">
<path d="M92.9179 107.341C91.3498 108.743 90.002 110.297 88.7625 111.988C87.691 113.449 89.162 115.267 90.6965 115.345C91.6261 115.394 92.552 115.442 93.4817 115.49C92.735 114.747 91.9883 114.003 91.2416 113.26C91.0437 115.371 90.2895 118.092 92.4288 119.475C93.2465 120.003 94.3479 120.159 95.285 120.364C96.4387 120.62 97.7193 120.992 98.9065 121.022C101.52 121.093 102.14 118.684 102.524 116.579C103.017 113.91 103.133 111.226 102.868 108.527C102.748 107.315 101.938 106.312 100.628 106.297C98.4436 106.271 94.6092 105.449 93.0187 107.341C91.544 109.096 92.0965 112.713 92.231 114.817C92.3168 116.148 93.6086 117.498 95.0684 116.97C97.1966 116.2 98.4025 114.635 98.5556 112.379C98.7535 109.457 94.4337 109.613 94.0753 112.379C93.9969 112.981 93.9185 113.583 93.8438 114.189C93.5862 116.182 96.42 117.033 97.667 115.765C98.1337 115.293 98.6004 114.821 99.0633 114.349C97.891 113.449 96.7187 112.546 95.5463 111.646C94.669 113.628 94.8818 115.334 96.2632 117.014C98.0926 119.237 101.244 116.063 99.433 113.858C99.4292 113.869 99.4218 113.884 99.418 113.895C100.378 111.721 97.8201 109.248 95.901 111.193C95.4343 111.665 94.9676 112.137 94.5047 112.609C95.7778 113.133 97.0547 113.661 98.3278 114.185C98.4062 113.583 98.4846 112.981 98.5593 112.375C97.0659 112.375 95.5725 112.375 94.0791 112.375C94.0865 112.531 94.0231 112.628 93.8812 112.665C94.8258 113.382 95.7704 114.1 96.7187 114.817C96.6627 113.933 96.6216 113.048 96.6253 112.159C96.6291 111.717 96.6403 111.271 96.6589 110.828C96.8904 110.092 96.7336 109.959 96.1848 110.434C95.4455 110.721 95.5127 110.814 96.3827 110.709C96.8531 110.713 97.3272 110.721 97.7977 110.724C98.7423 110.735 99.6868 110.747 100.631 110.758C99.8847 110.014 99.138 109.271 98.3913 108.527C98.5369 109.999 98.5929 111.468 98.4996 112.947C98.4884 113.152 97.8387 117.423 97.7603 117.386C98.8655 116.806 99.0671 116.494 98.3652 116.449C98.0515 116.39 97.7342 116.33 97.4206 116.263C96.8792 116.152 96.1064 115.81 95.5426 115.847C94.725 115.513 94.6914 115.68 95.4343 116.353C95.453 116.148 95.4717 115.94 95.4941 115.736C95.7666 115.089 95.6621 113.966 95.7293 113.26C95.845 112.014 94.6055 111.085 93.4892 111.029C92.5595 110.981 91.6336 110.933 90.7039 110.884C91.3498 112.003 91.992 113.122 92.6379 114.241C93.6497 112.862 94.8183 111.635 96.0952 110.498C98.2345 108.572 95.061 105.427 92.9179 107.341Z" fill="#FF8755"/>
<path d="M49.6201 115.962C54.735 115.695 59.8537 116.003 64.8753 117.026C65.8125 117.215 67.3171 117.914 68.2467 117.814C69.0009 118.241 69.195 118.007 68.8366 117.115C69.0606 116.338 68.8478 116.048 68.1982 116.245C67.7166 116.044 66.8802 116.141 66.3687 116.089C64.0726 115.858 61.8064 115.468 59.7678 114.338C57.2477 112.936 54.9852 116.788 57.5053 118.189C60.5967 119.907 64.1174 120.431 67.6083 120.665C69.2398 120.773 70.8938 120.539 71.9952 119.223C73.0219 117.992 73.1414 116.126 72.0885 114.877C71.0133 113.598 68.9524 113.368 67.4216 113.022C65.5212 112.591 63.6022 112.256 61.672 111.996C57.6696 111.457 53.656 111.297 49.6238 111.505C46.749 111.65 46.734 116.115 49.6201 115.962Z" fill="#FF8755"/>
<path d="M56.9081 113.884C55.6648 115.323 54.5074 117.04 54.765 119.033C55.0488 121.212 56.8371 122.301 58.7935 122.851C61.5713 123.635 62.7585 119.33 59.9845 118.55C59.6784 118.464 59.3274 118.409 59.0623 118.223C58.9316 118.13 59.2117 118.379 59.193 118.472C59.3087 117.97 59.7232 117.457 60.0778 117.044C60.8656 116.13 60.9776 114.788 60.0778 113.888C59.2677 113.081 57.6996 112.966 56.9081 113.884Z" fill="#FF8755"/>
<path d="M58.5171 121.528C60.0778 122.483 61.9968 124.197 63.9606 123.669C65.7751 123.182 67.3358 121.141 68.6724 119.925C70.808 117.985 67.6307 114.84 65.5026 116.769C64.7895 117.42 63.2363 119.245 62.5942 119.409C62.9899 119.409 63.3894 119.409 63.7852 119.409C62.792 119.204 61.6272 118.2 60.7722 117.676C58.3155 116.171 56.0605 120.026 58.5171 121.528Z" fill="#FF967A"/>
<path d="M59.3161 120.595C60.746 121.293 62.4299 122.531 64.0652 121.959C65.51 121.453 66.66 119.728 67.6867 118.658C69.6767 116.58 66.5144 113.423 64.5169 115.502C64.0614 115.977 63.6059 116.453 63.1504 116.929C62.848 117.245 62.3813 117.862 62.0714 117.996C62.4485 117.896 62.8256 117.792 63.2027 117.691C63.128 117.68 63.0496 117.673 62.975 117.661C63.352 117.762 63.7291 117.866 64.1062 117.966C63.2475 117.598 62.4149 117.152 61.5749 116.743C60.4884 116.212 59.1518 116.45 58.5096 117.542C57.9347 118.524 58.2259 120.059 59.3161 120.595Z" fill="#FF967A"/>
<path d="M67.3321 117.851C68.3588 117.989 69.5386 117.996 70.5168 118.338C70.1882 118.148 69.8559 117.955 69.5274 117.765C69.2847 116.888 69.169 116.68 69.1802 117.137C69.1764 117.308 69.1727 117.483 69.1652 117.654C69.1578 117.94 69.1503 118.23 69.1428 118.516C69.1279 119.148 69.1092 119.78 69.0943 120.412C70.0389 119.695 70.9835 118.977 71.9318 118.26C71.2112 118.055 70.4906 117.851 69.7738 117.646C66.996 116.858 65.8088 121.163 68.5828 121.948C69.3034 122.152 70.024 122.357 70.7408 122.561C72.1745 122.966 73.5409 121.84 73.5783 120.409C73.6007 119.606 73.6194 118.799 73.6418 117.996C73.6642 117.078 73.7575 116.137 73.2833 115.308C72.3499 113.672 70.1658 113.765 68.5268 113.546C67.3283 113.386 66.1224 113.832 65.7714 115.104C65.4802 116.148 66.1224 117.691 67.3321 117.851Z" fill="#FF967A"/>
<path d="M57.8487 120.468C58.0466 120.494 58.2333 120.561 58.4312 120.594C58.6813 120.639 58.0429 120.39 58.2631 120.516C58.3565 120.572 58.4573 120.624 58.5544 120.676C58.812 120.814 58.4872 120.635 58.4237 120.557C58.476 120.62 58.5618 120.672 58.6216 120.732C58.685 120.791 58.9277 121.096 58.7112 120.803C58.4834 120.494 58.7336 120.858 58.7597 120.903C59.372 121.896 60.7945 122.364 61.825 121.702C62.8255 121.059 63.2848 119.713 62.6277 118.65C61.8548 117.397 60.5331 116.364 59.0397 116.167C58.4125 116.081 57.8823 116.059 57.3148 116.39C56.8519 116.661 56.4076 117.193 56.2844 117.724C56.1537 118.297 56.1836 118.936 56.5084 119.442C56.7996 119.892 57.2887 120.394 57.8487 120.468Z" fill="#FF967A"/>
<path d="M58.1398 119.97C59.581 119.97 59.5847 117.74 58.1398 117.74C56.6987 117.74 56.6949 119.97 58.1398 119.97Z" fill="white"/>
<path d="M48.0706 113.003C48.9256 113.234 49.7657 112.996 50.4265 112.431C50.8708 112.048 50.8484 111.241 50.4265 110.855C49.9524 110.42 49.3177 110.446 48.8435 110.855C49.1235 110.613 48.8024 110.922 48.7576 110.888C48.7987 110.869 48.8435 110.851 48.8846 110.832C48.836 110.847 48.7875 110.862 48.739 110.873C48.4963 110.948 48.9891 110.847 48.739 110.866C48.6157 110.858 48.6381 110.866 48.8136 110.888C48.7651 110.881 48.7166 110.869 48.668 110.855C48.1042 110.702 47.4247 111.044 47.2903 111.635C47.1522 112.219 47.4658 112.84 48.0706 113.003Z" fill="white"/>
<path d="M94.8107 108.587C96.1286 107.241 98.3016 107.561 99.6232 108.769C100.979 110.007 101.516 111.921 101.826 113.665C102.136 115.42 102.192 117.208 102.494 118.962C102.681 120.037 102.89 122.137 104.044 122.691C104.604 122.959 105.231 122.836 105.575 122.29C105.604 122.245 105.634 122.197 105.66 122.152C106.011 121.594 105.724 120.985 105.257 120.628C105.224 120.602 105.19 120.576 105.156 120.554C104.014 119.676 102.898 121.613 104.025 122.479C104.059 122.505 104.092 122.531 104.126 122.554C103.991 122.044 103.857 121.535 103.723 121.029C103.693 121.074 103.663 121.122 103.637 121.167C104.148 121.033 104.66 120.899 105.168 120.765C104.753 120.568 104.518 117.501 104.466 117.055C104.331 115.91 104.242 114.758 104.07 113.62C103.771 111.68 103.222 109.709 102.013 108.118C99.9555 105.408 95.7852 104.393 93.2239 107.011C92.2196 108.04 93.8026 109.617 94.8107 108.587Z" fill="#28B3C2"/>
<path d="M93.7879 108.988C95.4194 109.144 97.2377 109.323 98.6751 110.182C100.661 111.367 100.822 113.661 100.635 115.75C100.359 118.851 98.3391 122.186 100.523 124.981C100.826 125.371 101.486 125.375 101.882 125.156C103.719 124.134 104.735 122.364 104.679 120.267C104.652 119.39 103.756 118.922 102.995 119.304C101.651 119.977 100.982 121.137 100.923 122.613C100.863 124.048 103.103 124.044 103.163 122.613C103.17 121.899 103.491 121.438 104.126 121.23C103.566 120.91 103.002 120.587 102.442 120.267C102.48 121.591 101.916 122.583 100.755 123.23C101.206 123.29 101.658 123.345 102.114 123.405C100.9 121.851 102.539 118.524 102.767 116.803C103.021 114.884 103.114 112.758 102.289 110.951C100.796 107.683 97.0062 107.063 93.7916 106.754C92.3542 106.624 92.3617 108.854 93.7879 108.988Z" fill="#28B3C2"/>
<path d="M93.6947 107.23C93.4968 105.959 93.2578 104.371 94.6392 103.691C95.6249 103.204 97.0511 103.457 98.0592 103.765C100.258 104.438 102.035 106.118 102.838 108.256C103.462 107.895 104.085 107.531 104.709 107.17C102.446 105.267 99.5451 103.431 96.5359 103.074C94.811 102.869 91.6225 104.115 92.9069 106.401C93.7544 107.91 96.954 108.078 97.7568 106.393C98.9552 103.877 94.7587 103.412 93.2541 103.635C92.2759 103.78 92.205 105.241 92.9853 105.672C94.5832 106.557 95.9236 104.479 94.587 103.3C93.0973 101.984 90.3569 102.52 89.976 104.572C89.5579 106.814 91.7756 108.066 93.7283 108.052C95.2254 108.04 96.5994 107.505 98.104 107.91C99.7953 108.368 101.039 109.539 101.8 111.078C102.342 112.171 103.783 111.501 103.887 110.516C103.503 110.315 103.394 110.39 103.562 110.739C103.626 111.04 103.682 111.345 103.727 111.654C103.801 112.167 103.85 112.687 103.88 113.204C103.951 114.39 103.913 115.583 103.768 116.762C103.48 119.089 102.756 121.308 101.681 123.39C102.375 123.576 103.073 123.766 103.768 123.951C103.701 122.591 103.63 121.23 103.562 119.87C103.518 118.951 102.663 118.576 101.879 118.907C101.173 119.204 100.561 119.554 99.9446 120.007C100.505 120.327 101.068 120.65 101.628 120.97C101.658 120.687 101.688 120.409 101.718 120.126C101.83 119.067 100.464 118.788 99.8065 119.338C98.8208 120.16 97.9322 121.044 97.0997 122.022C96.6591 122.539 96.6404 123.42 97.3274 123.773C99.3062 124.792 102.771 126.212 104.992 125.208C106.094 124.71 106.452 123.442 106.859 122.394C107.464 120.829 107.916 119.212 108.233 117.568C109.017 113.539 109.887 104.579 103.17 105.557C102.588 105.643 102.218 106.412 102.386 106.929C102.887 108.453 103.495 109.918 104.22 111.349C104.552 112.007 105.489 112.048 105.978 111.576C106.516 111.059 106.624 110.754 106.654 110.018C106.706 108.758 104.765 108.509 104.455 109.721C103.951 111.684 104.264 113.985 104.429 116.018C104.522 117.178 106.4 117.643 106.628 116.316C106.687 115.977 106.743 115.639 106.803 115.301C107.042 113.91 105.041 113.301 104.641 114.706C104.354 115.725 104.257 116.632 104.361 117.684C104.447 118.554 105.575 119.271 106.273 118.472C106.475 118.241 106.68 118.007 106.882 117.777C107.822 116.699 106.247 115.115 105.299 116.2C105.097 116.431 104.892 116.665 104.69 116.896C105.328 117.159 105.963 117.42 106.602 117.684C106.516 116.836 106.568 116.119 106.799 115.301C106.079 115.104 105.358 114.907 104.638 114.706C104.578 115.044 104.522 115.383 104.462 115.721C105.194 115.821 105.929 115.918 106.661 116.018C106.542 114.557 106.467 113.096 106.467 111.628C106.467 110.628 106.784 109.405 106.127 108.565C105.261 107.457 103.435 107.394 102.517 108.483C100.165 111.275 105.601 114.245 106.605 110.315C105.873 110.215 105.138 110.118 104.406 110.018C104.399 110.011 104.395 110.003 104.388 110C104.974 110.074 105.56 110.148 106.146 110.226C105.508 108.966 104.977 107.68 104.537 106.338C104.276 106.795 104.014 107.252 103.753 107.709C108.151 107.07 106.329 115.888 105.855 117.962C105.575 119.182 105.026 122.71 103.745 123.208C102.364 123.747 99.6347 122.461 98.4475 121.847C98.5221 122.431 98.5968 123.015 98.6752 123.598C99.5041 122.621 100.396 121.74 101.382 120.914C100.744 120.65 100.109 120.39 99.4705 120.126C99.4406 120.409 99.4107 120.687 99.3808 120.97C99.295 121.773 100.411 122.416 101.065 121.933C101.681 121.479 102.293 121.13 102.999 120.832C102.439 120.513 101.875 120.189 101.315 119.87C101.382 121.23 101.453 122.591 101.52 123.951C101.572 124.989 103.07 125.554 103.607 124.513C105.653 120.55 106.542 116.107 105.963 111.672C105.795 110.39 105.649 108.26 104.022 107.929C102.401 107.598 101.778 109.241 101.64 110.513C102.334 110.327 103.032 110.137 103.727 109.951C102.797 108.074 101.203 106.617 99.2016 105.921C98.2645 105.594 97.2602 105.449 96.2671 105.505C95.7369 105.535 95.2179 105.65 94.6952 105.717C94.124 105.84 93.5528 105.854 92.9816 105.762C92.8695 104.962 92.9629 104.776 93.2578 105.208C93.1608 104.847 93.0674 104.483 92.9704 104.122C93.0376 104.033 93.1048 103.947 93.172 103.858C93.5491 103.858 93.9261 103.858 94.3032 103.858C94.236 103.821 94.1688 103.784 94.1054 103.747C94.0157 104.427 93.9261 105.107 93.8365 105.784C93.9859 105.762 95.819 105.996 95.763 106.063C95.8228 105.501 95.6398 105.252 95.2179 105.312C94.8595 105.289 94.8185 105.286 95.0985 105.301C95.9087 105.1 96.8458 105.371 97.6111 105.62C99.6385 106.282 101.487 107.375 103.114 108.743C103.88 109.386 105.418 108.799 104.985 107.657C103.674 104.182 100.564 101.587 96.786 101.256C95.1209 101.111 93.2802 101.39 92.1788 102.758C91.0252 104.189 91.2604 106.133 91.5217 107.817C91.7569 109.237 93.9149 108.639 93.6947 107.23Z" fill="#28B3C2"/>
<path d="M99.243 110.624C100.557 114.49 98.9592 118.784 95.3788 120.807C94.6433 121.223 94.6619 122.312 95.3788 122.732C98.2461 124.42 101.565 124.795 104.728 123.743C106.087 123.29 105.504 121.137 104.13 121.591C101.509 122.461 98.8883 122.208 96.5063 120.807C96.5063 121.45 96.5063 122.089 96.5063 122.732C100.916 120.241 103.029 114.825 101.401 110.033C100.945 108.676 98.78 109.26 99.243 110.624Z" fill="#28B3C2"/>
<path d="M73.3879 115.089C73.5298 117.821 73.4738 120.539 73.2236 123.264C73.093 124.691 75.3331 124.684 75.4638 123.264C75.7139 120.539 75.7699 117.821 75.628 115.089C75.5571 113.661 73.3132 113.65 73.3879 115.089Z" fill="#EEEB4B"/>
<path d="M75.1762 116.379C80.7803 116.922 86.3022 118.111 91.6225 119.951C94.0605 120.795 96.6964 121.691 98.6453 123.442C100.43 125.044 102.446 128.877 99.5301 130.353C97.3311 131.465 94.0904 131.729 91.6748 131.914C88.9567 132.126 86.1939 132.048 83.502 131.61C79.1599 130.9 74.5938 129.111 72.6636 124.888C72.0662 123.583 70.136 124.717 70.7296 126.015C73.0444 131.071 78.6895 133.193 83.8791 133.903C87.131 134.349 90.4128 134.361 93.6685 133.937C96.2521 133.598 100.467 133.305 102.259 131.13C103.835 129.219 103.294 126.256 102.177 124.271C100.803 121.829 98.3653 120.279 95.8526 119.186C89.3488 116.357 82.2252 114.836 75.1837 114.152C73.7426 114.007 73.7538 116.241 75.1762 116.379Z" fill="#EEEB4B"/>
<path d="M73.5561 118.505C74.0004 120.71 73.5598 122.814 72.3613 124.706C73.0446 124.795 73.7278 124.884 74.4073 124.974C74.5119 124.65 74.6127 124.331 74.7172 124.007C75.6618 122.936 74.1348 121.383 73.1342 122.431C72.8467 122.732 72.5592 123.029 72.2755 123.331C72.8616 123.78 73.4478 124.23 74.034 124.684C74.4857 124.063 74.7657 123.438 74.9524 122.699C75.2511 121.502 73.5262 120.699 72.9064 121.84C72.4957 122.598 72.0813 123.353 71.6706 124.111C72.3165 124.487 72.9587 124.862 73.6046 125.238C74.7023 122.754 75.4602 120.219 75.8373 117.531C76.0351 116.126 73.8772 115.52 73.6755 116.936C73.3283 119.416 72.6824 121.814 71.6669 124.111C71.0994 125.394 72.899 126.528 73.6009 125.238C74.0116 124.479 74.426 123.725 74.8367 122.966C74.1534 122.68 73.4702 122.394 72.7907 122.107C72.6488 122.673 72.4435 123.089 72.1 123.561C71.3458 124.595 72.996 125.818 73.8585 124.914C74.146 124.613 74.4335 124.316 74.7172 124.015C74.1908 123.49 73.6606 122.963 73.1342 122.438C72.2941 123.39 72.0514 124.338 72.2456 125.576C72.4061 126.583 73.8249 126.58 74.2916 125.844C75.8149 123.438 76.2704 120.702 75.7141 117.922C75.434 116.505 73.2761 117.104 73.5561 118.505Z" fill="#EEEB4B"/>
<path d="M78.335 121.539C82.0387 121.728 85.7648 121.907 89.3714 122.84C91.1 123.286 92.8324 123.87 94.3632 124.803C94.7738 125.052 95.6736 125.546 95.64 126.126C95.6102 126.632 94.5946 126.985 94.1242 127.171C92.6457 127.755 91.0179 127.907 89.4461 128.011C87.6092 128.134 86.4107 128.316 85.1077 126.933C83.8234 125.572 82.6249 124.119 81.3928 122.714C80.5304 121.728 78.5255 120.189 78.3574 118.795C78.1894 117.39 77.2747 116.208 75.744 116.193C74.4372 116.178 72.9923 117.397 73.1305 118.795C73.2686 120.186 73.3097 121.595 73.0969 122.981C72.8841 124.357 72.171 125.751 72.3875 127.163C72.8878 130.431 76.8827 130.394 79.4663 130.55C82.7182 130.743 84.0959 128.383 84.137 125.439C84.1706 123.026 83.8196 119.044 80.7058 118.81C77.7526 118.587 76.5803 122.037 77.6667 124.32C78.8577 126.807 81.8744 127.9 84.3647 126.598C86.6347 125.413 87.9601 121.94 85.6267 120.115C83.0356 118.085 80.493 120.836 79.4738 123.123C78.1521 126.082 79.5223 129.446 82.8825 130.022C86.1344 130.58 88.3559 128.256 90.0434 125.825C91.1187 124.279 89.7112 121.721 87.7884 121.911C84.4357 122.238 81.867 123.702 79.8247 126.36C78.63 127.914 80.2429 130.398 82.0798 130.275C86.127 130.007 89.9501 128.877 93.4335 126.795C95.5878 125.509 94.7701 121.84 92.1156 121.948C88.7927 122.078 85.6192 122.379 82.6137 123.896C80.3624 125.03 81.3555 128.966 83.9316 128.743C86.7057 128.506 89.4834 128.331 92.2649 128.245C93.594 128.204 94.9269 128.178 96.2561 128.175C96.551 128.175 97.8727 128.346 98.1602 128.19C98.1975 126.833 97.8802 126.32 97.2118 126.643C96.9654 126.743 96.7078 126.81 96.4427 126.847C91.1262 128.022 85.3056 128.019 79.8919 127.836C76.528 127.725 76.5317 132.929 79.8919 133.041C84.0175 133.178 88.1431 133.056 92.2462 132.625C95.5131 132.279 100.673 132.357 102.103 128.699C102.7 127.171 102.491 125.331 101.252 124.16C99.9859 122.963 98.2498 122.974 96.6182 122.974C92.3806 122.981 88.1505 123.182 83.9316 123.543C84.3722 125.16 84.8127 126.777 85.2496 128.39C87.3777 127.32 89.7784 127.245 92.1156 127.156C91.675 125.539 91.2344 123.922 90.7976 122.308C88.1132 123.911 85.2085 124.87 82.0798 125.078C82.8302 126.383 83.5844 127.688 84.3349 128.993C85.145 127.937 86.4704 127.249 87.7846 127.123C87.0342 125.818 86.28 124.513 85.5296 123.208C85.2384 123.628 84.9546 124.067 84.585 124.42C84.4842 124.517 83.8458 124.914 83.8495 124.911C83.618 124.896 83.6404 124.992 83.9204 125.197C84.0586 125.539 84.1594 125.561 84.2191 125.256C84.3124 125.093 84.4095 124.929 84.5029 124.766C84.9696 124.234 84.9397 124.152 84.4095 124.52C83.7375 124.431 83.0654 124.346 82.3971 124.256C81.5123 122.293 81.46 121.569 82.2403 122.078C83.114 122.517 82.6025 123.163 80.7096 124.026C80.0935 123.773 79.4775 123.517 78.8615 123.264C78.5292 122.535 78.4844 122.565 78.7271 123.346C78.8055 123.639 78.8503 123.937 78.8689 124.234C78.9212 124.725 78.7233 125.55 78.8951 125.981C78.8055 126.624 79.1676 126.427 79.9778 125.39C79.5783 125.364 79.1788 125.327 78.7831 125.275C78.4172 125.238 76.9051 124.866 76.7334 125.048C77.2187 126.71 77.5473 127.111 77.7115 126.249C77.8049 125.937 77.887 125.624 77.958 125.305C78.1073 124.654 78.2044 123.996 78.2902 123.338C78.4881 121.818 78.5105 120.334 78.3574 118.806C76.6139 118.806 74.8741 118.806 73.1305 118.806C73.459 121.569 75.0122 123.346 76.7931 125.375C78.5964 127.431 80.3026 129.81 82.4046 131.572C84.6597 133.461 87.2694 133.409 90.0621 133.186C92.7055 132.978 95.4683 132.576 97.7793 131.182C100.117 129.769 101.505 127.279 100.647 124.546C99.8216 121.929 97.462 120.416 95.0763 119.353C89.8157 117.011 84.0212 116.639 78.3388 116.349C74.9749 116.163 74.9823 121.368 78.335 121.539Z" fill="#EEEB4B"/>
</g>
<path d="M110.666 157.661C110.384 157.906 110.109 158.16 109.897 158.449C109.684 158.738 109.489 159.022 109.362 159.336C109.327 159.422 109.297 159.508 109.261 159.594C109.223 159.735 109.221 159.863 109.265 159.985C109.271 160.072 109.306 160.148 109.364 160.208C109.42 160.318 109.51 160.4 109.627 160.462C109.788 160.538 109.965 160.586 110.162 160.59C110.324 160.592 110.477 160.567 110.634 160.502C110.793 160.461 110.931 160.39 111.061 160.287C111.683 159.787 112.305 159.288 112.927 158.793C113.17 158.595 113.362 158.36 113.427 158.09C113.487 157.841 113.43 157.541 113.256 157.374C113.077 157.204 112.823 157.081 112.519 157.091C112.215 157.102 111.875 157.189 111.621 157.394C110.999 157.894 110.377 158.393 109.755 158.888C110.321 159.205 110.887 159.523 111.46 159.843C111.546 159.632 111.657 159.425 111.798 159.227C111.744 159.303 111.684 159.385 111.63 159.461C111.771 159.262 111.937 159.077 112.128 158.906C112.055 158.972 111.977 159.044 111.904 159.109C111.926 159.09 111.949 159.07 111.977 159.044C112.107 158.95 112.213 158.843 112.288 158.718C112.387 158.602 112.45 158.475 112.477 158.341C112.537 158.092 112.479 157.792 112.306 157.625C112.127 157.455 111.873 157.332 111.569 157.342C111.266 157.367 110.902 157.455 110.666 157.661Z" fill="#EF7EBF"/>
<path d="M126.845 128.617C126.856 128.765 126.803 128.841 126.529 129.078C126.211 129.351 125.82 129.59 125.457 129.814C124.497 130.413 123.559 131.144 123.084 132.044C122 134.097 124.242 135.459 126.613 134.429C127.722 133.949 128.476 133.112 128.798 132.185C129.096 131.332 129.026 130.174 128.582 129.48C128.595 129.5 128.528 129.309 128.534 129.313C128.462 129.438 128.383 129.56 128.311 129.685C128.361 129.651 128.411 129.617 128.467 129.583C128.588 129.561 128.796 129.453 128.937 129.395C129.386 129.216 129.825 129.076 130.29 128.963C131.202 128.735 132.105 128.618 133.004 128.608C135.083 128.585 137.051 129.116 138.368 130.224C138.849 130.627 139.682 130.681 140.365 130.205C140.976 129.782 141.247 128.962 140.767 128.559C138.215 126.429 134.034 125.69 129.914 126.776C128.906 127.043 127.752 127.391 126.871 127.959C125.617 128.767 125.55 129.804 125.897 130.764C126.046 131.184 126.276 131.983 125.875 132.329C125.776 132.414 125.443 132.559 125.431 132.484C125.431 132.48 125.59 132.505 125.609 132.514C125.853 132.658 125.495 132.712 125.747 132.494C126.121 132.176 126.367 131.881 126.813 131.599C127.259 131.316 127.712 131.04 128.12 130.716C129.101 129.934 129.797 129.018 129.721 128.004C129.605 126.555 126.73 127.173 126.845 128.617Z" fill="#EFABBF"/>
<path d="M127.445 131.49C126.488 134.101 125.469 138.88 127.985 140.507C129.237 141.315 131.142 140.972 132.79 140.79C134.556 140.601 136.588 140.527 138.34 139.868C141.581 138.643 142.765 135.11 142.536 132.702C142.262 129.83 139.905 127.752 136.624 127.306C133.771 126.918 129.905 127.661 128.928 130.663C128.117 133.143 128.43 136.65 131.567 137.085C134.571 137.507 136.906 134.697 136.5 132.407C136.155 130.48 133.534 129.316 131.41 131.301C129.19 133.371 129.307 137.309 132.094 137.961C135.726 138.81 138.253 134.736 138.028 132.229C137.902 130.773 135.644 130.528 134.435 131.845C132.631 133.8 131.73 136.775 134.515 137.642C136.849 138.373 139.775 136.16 139.34 134.058C139.14 133.083 137.975 132.324 136.622 133.034C135.878 133.424 135.409 133.716 134.94 134.351C136.125 134.637 137.31 134.918 138.495 135.203C138.751 134.427 139 133.647 139.256 132.871C138.275 133.437 137.287 134 136.305 134.566C136.251 134.559 136.99 135.206 137.313 135.307C138.016 135.528 138.863 135.422 139.633 135.08C141.029 134.458 144.074 130.285 141.188 130.183C138.618 130.087 137.765 133.583 140.323 133.677C143.527 133.794 148.206 130.267 145.039 128.126C143.929 127.378 142.099 127.514 140.688 128.344C139.965 128.768 139.385 129.355 138.952 129.986C138.811 130.19 138.021 132.206 138.055 132.188C138.589 132.125 139.122 132.062 139.654 131.994C139.292 131.94 138.798 131.281 138.182 131.188C136.89 130.99 135.619 131.691 135.231 132.883C134.975 133.659 134.725 134.439 134.47 135.216C133.919 136.899 136.829 137.674 138.024 136.068C137.999 136.054 137.975 136.045 137.956 136.03C137.048 135.69 136.145 135.345 135.237 135.006C135.998 134.524 136.764 134.041 137.525 133.565C136.327 133.438 135.13 133.307 133.932 133.18C134.077 134.817 133.894 133.57 134.338 133.268C133.813 133.447 133.288 133.625 132.763 133.799C132.383 133.832 132.979 131.02 133.184 130.881C134.04 130.309 135.652 130.804 136.334 131.078C137.755 131.657 139.94 134.936 137.631 136.592C136.653 137.294 132.229 137.837 131.453 137.512C129.619 136.74 130.968 132.916 131.494 131.477C132.298 129.238 128.256 129.273 127.445 131.49Z" fill="#EFABBF"/>
<path d="M111.354 161.295C111.799 161.953 110.9 163.17 109.852 163.568C108.739 163.991 108.183 165.291 108.526 166.08C108.92 166.994 110.096 167.129 111.215 166.699C115.058 165.235 116.557 161.124 114.89 158.666C114.371 157.903 112.828 158.059 111.951 158.708C110.905 159.489 110.835 160.533 111.354 161.295Z" fill="#EFABBF"/>
<path d="M114.443 163.443C114.852 162.754 115.255 162.067 115.665 161.378C114.732 161.801 113.804 162.223 112.871 162.647C112.902 162.655 114.445 163.73 114.067 163.748C113.961 164.907 113.856 166.065 113.75 167.224C115.847 166.844 117.252 165.588 118.846 164.299C120.06 163.321 119.851 163.181 120.44 164.372C121.028 165.559 121.451 166.803 121.788 168.093C122.219 167.28 122.656 166.471 123.086 165.658C122.108 166.127 120.449 167.099 119.401 167.163C119.908 167.447 120.421 167.735 120.928 168.019C120.487 166.947 120.712 165.265 120.636 164.079C120.494 161.868 116.475 162.821 116.491 165.036C116.495 165.956 116.505 166.875 116.509 167.796C117.774 167.211 119.045 166.626 120.309 166.042C119.83 165.375 119.266 164.886 118.581 164.375C117.756 163.758 115.774 164.409 115.348 165.473C115.148 165.97 114.948 166.467 114.755 166.967C115.83 166.6 116.906 166.238 117.987 165.869C117.22 165.566 116.72 165.216 116.258 164.619C115.649 163.833 113.724 164.005 112.977 165.025C112.669 165.447 112.362 165.865 112.054 166.288C113.146 166.155 114.237 166.017 115.335 165.882C114.321 164.888 113.105 164.614 111.37 164.935C108.697 165.428 108.941 168.839 111.608 168.347C111.7 168.376 111.787 168.405 111.878 168.429C112.582 169.113 114.352 169.126 115.159 168.023C115.467 167.6 115.774 167.183 116.082 166.76C114.99 166.893 113.899 167.031 112.801 167.166C113.416 167.96 114.197 168.552 115.23 168.958C116.183 169.337 117.961 169.115 118.463 167.86C118.663 167.363 118.863 166.866 119.056 166.366C117.981 166.733 116.905 167.095 115.824 167.463C116.249 167.781 116.594 168.152 116.853 168.588C117.891 170.023 120.666 168.401 120.653 166.834C120.649 165.914 120.639 164.995 120.635 164.074C119.256 164.393 117.87 164.713 116.491 165.031C116.594 166.592 116.415 168.436 116.995 169.843C117.204 170.35 117.833 170.739 118.522 170.699C120.481 170.584 122.576 169.565 124.41 168.686C125.563 168.133 125.945 167.138 125.709 166.252C125.167 164.178 124.311 159.313 120.835 159.689C119.528 159.833 118.31 160.495 117.233 161.269C116.048 162.127 115.008 163.521 113.505 163.798C111.176 164.222 110.879 167.386 113.188 167.274C115.49 167.164 117.707 165.652 118.23 163.57C118.808 161.252 116.863 159.838 114.755 159.201C113.759 158.9 112.484 159.591 111.962 160.469C111.552 161.158 111.149 161.846 110.74 162.535C109.449 164.739 113.157 165.627 114.443 163.443Z" fill="#EFABBF"/>
<path d="M104.954 159.155C100.638 160.017 98.2677 164.525 100.313 167.18C102.588 170.124 107.573 169.529 111.492 167.474C113.955 166.182 112.647 163.133 110.161 164.435C108.425 165.347 106.227 166.201 104.63 165.386C103.475 164.795 103.239 162.961 105.192 162.569C107.864 162.042 107.626 158.622 104.954 159.155Z" fill="#EFABBF"/>
<path d="M100.027 161.948C97.9112 165.064 99.1046 168.605 102.033 170.065C105.674 171.884 110.985 170.185 114.544 167.378C117.284 165.218 114.374 162.08 111.612 164.255C109.988 165.535 107.46 166.884 105.563 166.151C104.236 165.634 103.922 164.314 104.755 163.083C106.589 160.373 101.852 159.265 100.027 161.948Z" fill="#EFABBF"/>
<path d="M99.5661 174.91C101.869 178.084 107.207 176.791 111.309 175.318C114.574 174.145 112.88 170.468 109.632 171.632C107.701 172.324 105.02 173.354 103.914 171.827C103.259 170.924 101.386 171.113 100.295 171.872C99.0085 172.767 98.9246 174.024 99.5661 174.91Z" fill="#EFABBF"/>
<path d="M104.128 175.948C108.441 175.932 112.553 174.746 116.473 172.598C117.728 171.908 117.879 170.415 117.184 169.705C116.344 168.843 114.848 169.054 113.605 169.737C110.978 171.178 108.042 171.85 105.2 171.861C101.944 171.87 100.873 175.956 104.128 175.948Z" fill="#EFABBF"/>
<path d="M103.681 174.775C106.45 175.192 109.15 174.702 111.982 173.511C115.023 172.235 117.667 170.265 120.939 169.578C120.408 168.432 119.884 167.289 119.353 166.143C116.257 168.37 112.962 170.051 109.269 171.33C106.035 172.449 107.717 175.989 110.934 174.878C115.024 173.461 118.798 171.495 122.219 169.029C124.277 167.547 123.24 165.048 120.632 165.594C118.168 166.111 116.007 167.089 113.778 168.243C111.437 169.456 108.634 171.177 106.023 170.785C102.954 170.328 100.599 174.312 103.681 174.775Z" fill="#EFABBF"/>
<path d="M110.72 160.825C109.838 162.792 108.663 164.583 107.08 166.302C104.704 168.89 108.744 171.167 111.114 168.581C112.974 166.554 114.49 164.319 115.531 162.002C116.086 160.765 115.725 159.498 114.354 159.159C113.139 158.866 111.281 159.582 110.72 160.825Z" fill="#EFABBF"/>
<path d="M104.54 181.328C110.99 180.834 119.117 178.144 120.341 171.763C120.874 168.992 115.761 168.992 115.228 171.772C114.498 175.565 109.287 176.725 105.632 177.003C102.316 177.258 101.201 181.583 104.54 181.328Z" fill="#EFABBF"/>
<path d="M106.806 176.583C106.799 176.579 106.794 176.581 106.787 176.577C106.973 176.649 107.166 176.724 107.352 176.796C107.339 176.789 107.327 176.782 107.314 176.775C107.461 176.89 107.614 177.01 107.761 177.125C107.754 177.117 107.748 177.113 107.742 177.105C107.843 177.261 107.944 177.417 108.045 177.568C108.032 177.551 108.025 177.538 108.024 177.518C108.067 177.708 108.117 177.896 108.16 178.085C108.159 178.066 108.157 178.046 108.156 178.027C108.14 178.23 108.118 178.434 108.102 178.638C108.106 178.612 108.11 178.586 108.121 178.563C108.044 178.761 107.967 178.958 107.89 179.15C107.901 179.128 107.911 179.11 107.922 179.093C107.796 179.272 107.664 179.457 107.538 179.636C107.549 179.623 107.56 179.61 107.571 179.598C107.401 179.752 107.225 179.912 107.054 180.066C107.066 180.054 107.083 180.045 107.095 180.037C106.886 180.16 106.677 180.283 106.474 180.405C106.492 180.396 106.503 180.388 106.521 180.384C106.285 180.463 106.05 180.548 105.814 180.627C105.832 180.623 105.849 180.619 105.867 180.615C105.628 180.645 105.388 180.671 105.149 180.701C105.161 180.698 105.173 180.7 105.185 180.703C104.966 180.678 104.747 180.654 104.534 180.628C104.552 180.629 104.565 180.631 104.583 180.637C104.397 180.565 104.205 180.49 104.018 180.418C104.037 180.424 104.056 180.435 104.069 180.447C103.922 180.331 103.769 180.212 103.622 180.096C103.635 180.108 103.641 180.116 103.648 180.13C103.547 179.974 103.445 179.818 103.344 179.666C103.358 179.688 103.365 179.706 103.373 179.735C103.33 179.545 103.281 179.357 103.237 179.168C103.239 179.187 103.24 179.207 103.241 179.226C103.257 179.023 103.279 178.819 103.295 178.615C103.291 178.636 103.286 178.657 103.281 178.674C103.358 178.476 103.435 178.279 103.512 178.087C103.507 178.103 103.496 178.115 103.491 178.126C103.617 177.948 103.749 177.763 103.875 177.584C103.864 177.596 103.853 177.609 103.842 177.621C104.012 177.467 104.188 177.307 104.358 177.153C104.347 177.161 104.341 177.167 104.33 177.175C104.03 177.383 103.788 177.634 103.621 177.917C103.398 178.183 103.255 178.47 103.192 178.779C103.1 179.1 103.108 179.397 103.206 179.669C103.244 179.959 103.37 180.209 103.578 180.415C103.725 180.531 103.878 180.65 104.025 180.766C104.376 180.964 104.782 181.06 105.246 181.062C105.486 181.032 105.726 181.007 105.965 180.976C106.446 180.865 106.89 180.658 107.293 180.365C107.512 180.215 107.698 180.028 107.872 179.843C108.035 179.67 108.178 179.473 108.279 179.27C108.284 179.264 108.284 179.259 108.289 179.248C108.366 179.05 108.443 178.853 108.52 178.661C108.583 178.432 108.597 178.204 108.588 177.987C108.587 177.972 108.586 177.962 108.585 177.947C108.566 177.847 108.541 177.748 108.516 177.649C108.497 177.549 108.472 177.45 108.441 177.352C108.295 176.997 107.98 176.626 107.611 176.437C107.517 176.389 107.393 176.348 107.3 176.314C107.145 176.255 107.1 176.221 106.978 176.194C106.763 176.144 106.537 176.106 106.296 176.117C106.17 176.126 106.045 176.14 105.919 176.159C105.793 176.173 105.668 176.187 105.542 176.206C105.411 176.237 105.253 176.303 105.153 176.336C104.994 176.393 104.893 176.416 104.77 176.47C104.33 176.661 103.878 177.015 103.569 177.35C103.401 177.539 103.252 177.738 103.14 177.948C103.129 177.966 103.124 177.977 103.119 177.993C103.042 178.19 102.966 178.387 102.888 178.58C102.883 178.591 102.878 178.602 102.879 178.612C102.822 178.835 102.796 179.07 102.816 179.28C102.817 179.294 102.818 179.309 102.819 179.324C102.863 179.513 102.912 179.701 102.956 179.891C102.956 179.896 102.957 179.906 102.963 179.909C103.054 180.093 103.163 180.272 103.307 180.423C103.62 180.76 103.899 180.865 104.374 181.019C104.694 181.11 105.027 181.123 105.385 181.05C105.745 181.032 106.101 180.94 106.445 180.766C106.791 180.616 107.085 180.413 107.326 180.158C107.607 179.934 107.824 179.674 107.973 179.381C108.049 179.183 108.126 178.986 108.203 178.794C108.301 178.372 108.273 177.98 108.122 177.621C108.02 177.464 107.919 177.308 107.818 177.157C107.556 176.873 107.223 176.686 106.806 176.583Z" fill="#EFABBF"/>
<path d="M107.67 184.568C112.479 184.315 117.885 182.845 120.733 178.741C121.278 177.957 121.719 177.111 121.929 176.27C122.228 175.1 121.716 175.366 122.882 174.841C125.116 173.837 126.833 173.577 128.025 171.461C129.557 168.748 124.885 167.641 123.358 170.353C123.165 170.699 120.314 171.348 119.735 171.662C118.474 172.336 117.496 173.335 117.089 174.485C116.541 176.032 116.965 176.997 115.245 178.346C113.425 179.779 110.881 180.109 108.765 180.221C105.448 180.388 104.336 184.743 107.67 184.568Z" fill="#EFABBF"/>
<path d="M105.898 163.116C111.181 139.956 118.607 116.79 128.209 93.8751C129.514 90.7653 124.35 89.484 123.04 92.6164C113.259 115.958 105.606 139.529 100.223 163.119C99.5049 166.294 105.173 166.287 105.898 163.116Z" fill="#1B2D38"/>
<path d="M120.442 94.2613C120.983 94.2319 121.53 94.2061 122.071 94.1767C121.66 93.5264 121.249 92.8761 120.844 92.2245C120.354 92.9879 119.864 93.7564 119.373 94.5199C118.877 95.2898 119.322 96.2518 120.163 96.4164C121.11 96.6072 122.065 96.1263 122.588 95.3045C123.079 94.5411 123.569 93.7726 124.059 93.0091C124.649 92.0907 123.927 91.0003 122.832 91.0569C122.291 91.0863 121.744 91.1122 121.203 91.1416C120.273 91.1905 119.224 91.83 119.059 92.7056C118.901 93.5135 119.445 94.3156 120.442 94.2613Z" fill="#1B2D38"/>
<path d="M125.806 99.1497C128.9 98.3242 130.877 100.809 133.534 101.262C135.77 101.642 138.052 100.909 140.354 100.128C141.913 99.5972 143.47 99.0282 144.995 99.2514C146.177 99.4268 147.051 100.11 148.138 100.447C150.47 101.166 153.001 100.844 155.6 99.904C154.84 99.4839 154.079 99.0637 153.319 98.6436C152.647 100.799 151.975 102.954 151.304 105.109C150.923 106.341 150.535 107.57 150.154 108.802C149.951 109.454 149.802 111.115 149.289 111.573C148.245 112.503 143.932 113.32 142.836 112.851C141.402 112.236 140.677 111.394 138.924 111.131C137.369 110.896 135.688 111.05 134.031 111.555C133.287 111.781 132.588 112.132 131.852 112.385C129.933 113.041 129.166 112.868 127.899 112.09C125.483 110.605 122.186 110.672 119.021 112.092C119.781 112.512 120.542 112.932 121.302 113.352C121.766 108.365 123.337 103.425 126.066 98.561C127.099 96.7192 123.969 95.9733 122.937 97.8104C120.076 102.912 118.352 108.131 117.865 113.364C117.763 114.442 118.748 115.254 120.146 114.625C124.893 112.496 126.272 116.917 130.795 115.715C133.365 115.033 135.508 113.532 138.069 114.127C139.838 114.536 140.544 116.109 142.52 116.168C144.448 116.222 147.103 115.313 149.04 114.745C150.611 114.284 151.742 113.657 152.442 112.314C153.459 110.35 153.818 108.045 154.446 106.035C155.215 103.574 155.983 101.108 156.746 98.6481C157.127 97.4159 155.668 96.9515 154.464 97.3877C150.869 98.6875 149.273 96.8772 146.407 96.3316C144.373 95.9447 142.187 96.6031 140.076 97.3119C138.742 97.7583 137.277 98.3738 135.91 98.4423C134.301 98.5225 133.157 97.7316 131.957 97.1413C130.074 96.2145 128.098 95.6506 125.597 96.3175C123.365 96.9046 123.556 99.7502 125.806 99.1497Z" fill="#E32C4F"/>
<path d="M124.547 102.116C128.276 103.537 132.487 104.236 136.95 104.069C139.037 103.991 141.17 103.736 143.285 103.312C145.341 102.896 149.515 101.333 150.684 103.086C151.171 102.191 151.658 101.296 152.145 100.401C150.857 100.882 148.159 99.536 147.034 99.3057C145.392 98.9668 143.644 98.7284 141.843 98.8323C140.144 98.9327 138.435 99.3224 136.781 99.9872C134.886 100.745 133.123 102.028 131.167 102.617C129.189 103.212 128.717 102.753 127.785 101.741C127.129 101.022 126.031 100.666 124.779 100.977C121.896 101.684 120.386 104.85 120.113 106.904C119.909 108.44 121.919 109.692 123.695 108.262C125.04 107.178 126.029 106.098 126.917 104.758C125.448 104.768 123.973 104.775 122.503 104.785C122.428 105.884 122.358 106.978 122.283 108.077C122.196 109.429 124.056 109.738 125.365 109.232C126.305 108.867 126.788 108.499 127.419 107.792C129.279 105.706 126.636 104.146 124.378 105.469C122.916 106.325 121.742 107.313 120.679 108.516C119.632 109.7 120.106 111.6 121.937 111.436C127.779 110.906 133.771 110.241 139.254 107.185C141.157 106.124 141.498 103.432 138.993 103.551C134.828 103.742 130.643 104.235 126.421 105.028C123.391 105.596 123.715 109.283 126.691 108.799C129.175 108.393 131.66 107.991 134.144 107.584C135.292 107.398 136.434 107.212 137.583 107.025C138.157 106.929 138.731 106.838 139.305 106.742C140.587 106.77 140.825 106.611 140.012 106.272C140.053 105.769 140.1 105.27 140.141 104.767C139.46 106.09 134.199 106.628 132.877 106.945C130.488 107.522 128.231 108.366 126.349 109.973C125.037 111.097 124.9 112.824 126.583 113.23C130.226 114.11 134.209 112.795 138.017 111.339C141.663 109.947 144.896 107.681 145.636 104.353C146.012 102.659 143.784 101.753 142.053 102.995C139.015 105.184 135.774 109.981 139.821 111.545C141.242 112.092 143.112 111.724 144.47 110.584C146.578 108.821 145.903 107.004 147.044 105.07C146.396 105.533 145.748 105.995 145.099 106.457C144.766 106.36 144.433 106.262 144.094 106.162C143.77 106.431 143.451 106.704 143.139 106.98C142.71 107.364 142.285 107.719 141.925 108.149C141.302 108.889 140.906 109.72 140.834 110.541C140.681 112.295 142.124 113.738 144.065 114.019C149.612 114.833 151.166 108.659 152.094 105.475C152.646 103.588 149.478 102.721 148.06 104.521C146.04 107.093 145.469 109.463 146.134 112.044C146.726 114.344 151.15 112.312 150.559 110.026C150.255 108.845 150.634 107.605 151.547 106.446C150.202 106.126 148.858 105.811 147.513 105.492C147.142 106.763 146.939 108.232 146.252 109.478C145.822 110.256 145.568 109.944 145.996 109.464C146.353 109.063 146.903 108.723 147.297 108.338C148.837 106.836 149.761 104.933 148.619 103.466C147.685 102.268 145.319 102.01 143.657 103.209C142.705 103.898 142.263 105.094 142.037 105.997C141.996 106.17 141.677 107.415 141.8 107.488C142.445 107.874 144.174 106.043 144.631 105.715C143.437 105.261 142.243 104.811 141.048 104.357C140.283 107.811 131.757 110.177 128.687 109.437C128.765 110.521 128.843 111.61 128.921 112.694C132.428 109.695 143.479 110.4 144.491 105.253C144.939 102.982 142.349 102.493 140.158 102.776C135.613 103.369 130.996 104.27 126.426 105.012C126.516 106.271 126.606 107.525 126.696 108.783C130.504 108.069 134.253 107.627 138.016 107.45C137.929 106.238 137.842 105.027 137.755 103.815C133.008 106.461 127.994 107.045 122.924 107.507C123.343 108.48 123.763 109.454 124.183 110.428C125.005 109.5 125.859 108.838 126.979 108.183C125.964 107.411 124.953 106.633 123.938 105.86C123.914 105.861 123.897 105.865 123.873 105.865C124.902 106.251 125.931 106.633 126.955 107.02C127.03 105.92 127.1 104.827 127.175 103.728C127.315 101.627 123.836 102.133 122.761 103.754C122.359 104.429 121.809 105.018 121.116 105.529C122.311 105.983 123.505 106.432 124.699 106.886C124.716 106.375 124.845 105.862 125.087 105.352C125.915 104.505 125.878 104.322 124.988 104.8C124.501 104.618 124.019 104.429 123.532 104.247C125.011 105.456 125.513 106.669 128.035 106.791C130.634 106.919 133.103 105.879 135.529 104.667C139.151 102.859 141.85 102.399 145.369 103.197C148.195 103.834 150.387 104.988 153.654 103.758C154.779 103.337 155.633 101.852 155.115 101.073C152.683 97.4149 147.858 98.5644 143.02 99.5394C137.119 100.73 131.52 100.176 126.676 98.3317C124.189 97.3831 122.097 101.179 124.547 102.116Z" fill="#E32C4F"/>
<path d="M129.499 123.188C129.42 123.119 129.347 123.043 129.279 122.955C129.411 123.167 129.424 123.174 129.33 122.974C129.259 122.758 129.26 122.779 129.34 123.034C129.326 122.929 129.325 122.815 129.33 122.706C129.306 122.985 129.313 123.009 129.358 122.761C129.435 122.521 129.424 122.539 129.336 122.802C129.47 122.575 129.452 122.584 129.283 122.83C129.362 122.729 129.449 122.632 129.541 122.538C130.444 121.599 130.333 120.158 129.344 119.66C128.278 119.119 126.851 119.467 125.89 120.466C124.166 122.263 123.95 124.818 125.416 126.211C126.179 126.937 127.699 127.047 128.804 126.165C129.84 125.355 130.315 123.968 129.499 123.188Z" fill="#8D434F"/>
<path d="M128.965 121.077C126.931 122.763 126.544 125.512 128.656 126.563C129.493 126.979 130.674 126.882 131.601 126.197C132.423 125.588 133.002 124.393 132.555 123.673C132.369 123.38 132.19 123.085 132.051 122.766C132.029 122.715 131.929 122.408 131.946 122.48C131.969 122.551 131.974 122.525 131.953 122.397C131.943 122.257 131.942 122.242 131.956 122.361C131.882 122.439 131.81 122.639 131.743 122.736C131.893 122.513 131.89 122.646 131.713 122.743C131.636 122.782 131.565 122.824 131.488 122.862C131.714 122.758 131.726 122.75 131.529 122.832C131.401 122.831 130.432 122.818 130.834 122.964C131.932 123.354 133.533 122.487 134.082 121.473C134.723 120.294 134.13 119.322 133.025 118.933C131.381 118.349 129.126 119.41 128.018 120.85C126.663 122.612 127.079 124.389 127.968 125.822C129.267 124.857 130.567 123.897 131.867 122.931C131.632 122.818 131.813 122.863 131.888 122.972C131.935 123.038 132.082 123.482 132.055 123.264C132.03 123.077 132.036 123.437 132.005 123.516C131.937 123.694 131.806 123.832 131.638 123.973C132.675 123.115 133.072 121.846 132.318 121.028C131.624 120.289 130.002 120.219 128.965 121.077Z" fill="#8D434F"/>
<path d="M136.383 124.707C136.549 123.993 136.709 123.28 136.875 122.565C137.126 121.473 136.316 120.422 135.016 120.479C133.735 120.532 132.406 121.41 132.136 122.579C131.97 123.293 131.81 124.006 131.644 124.721C131.393 125.813 132.203 126.863 133.503 126.807C134.79 126.752 136.113 125.876 136.383 124.707Z" fill="#8D434F"/>
<path d="M130.441 123.408C131.408 122.797 132.584 122.552 133.606 122.74C136.318 123.233 138.418 119.602 135.699 119.106C133.099 118.63 130.339 119.228 127.879 120.783C126.8 121.464 126.575 122.764 127.235 123.44C127.964 124.188 129.357 124.094 130.441 123.408Z" fill="#8D434F"/>
<path d="M136.402 121.67C135.328 122.537 134.495 123.66 134.328 124.829C134.21 125.675 134.477 126.376 135.325 126.707C136.166 127.034 137.114 126.799 137.985 126.245C137.462 126.577 138.075 126.234 138.198 126.17C138.375 126.099 138.316 126.118 138.02 126.227C138.145 126.188 138.264 126.16 138.39 126.136C137.562 125.479 136.741 124.821 135.913 124.169C135.794 124.553 135.669 124.939 135.55 125.323C135.212 126.396 136.168 127.42 137.384 127.369C138.677 127.315 139.734 126.803 140.676 125.876C141.585 124.982 141.431 123.556 140.483 123.078C139.415 122.542 138.076 122.909 137.105 123.862C137.485 123.488 137.889 123.278 138.385 123.259C138.996 123.941 139.607 124.622 140.218 125.304C140.337 124.92 140.462 124.534 140.581 124.15C141.009 122.795 139.579 121.851 138.105 122.184C137.084 122.416 136.215 122.833 135.326 123.396C136.548 123.871 137.769 124.341 138.99 124.816C138.998 124.754 139.093 124.466 139.078 124.419C139.107 124.492 138.934 124.884 139.077 124.489C139.142 124.384 139.125 124.403 139.026 124.546C138.909 124.704 138.909 124.704 139.038 124.544C139.411 124.246 138.629 124.86 139.037 124.534C140.042 123.723 140.496 122.392 139.71 121.63C138.987 120.914 137.476 120.803 136.402 121.67Z" fill="#8D434F"/>
<path d="M126.222 118.28C124.026 119.176 122.375 121.455 122.712 123.317C123.087 125.389 125.224 126.416 127.75 125.95C129.062 125.705 130.105 124.412 130.033 123.369C129.955 122.226 128.791 121.673 127.474 121.919C127.79 121.861 127.41 121.97 127.369 121.908C127.355 121.885 127.592 121.938 127.58 121.94C127.325 121.99 127.509 121.721 127.477 121.877C127.473 121.909 127.486 122.275 127.515 121.986C127.54 121.724 127.486 122.013 127.483 122.055C127.485 122.167 127.636 121.866 127.549 121.942C127.363 122.098 127.634 121.928 127.772 121.875C129.04 121.359 129.692 119.922 129.291 119.002C128.851 117.969 127.49 117.764 126.222 118.28Z" fill="#8D434F"/>
<path d="M127.8 123.319C130.232 122.99 132.663 122.919 134.977 123.138C136.037 123.241 137.078 123.416 138.086 123.639C138.684 123.769 139.267 123.922 139.844 124.091C141.13 124.68 141.167 124.429 139.954 123.337C137.132 122.988 134.935 126.858 137.797 127.258C138.264 127.323 139.295 127.348 139.607 127.687C140.03 128.149 139.533 128.615 139.354 129.236C139.053 130.271 138.98 131.21 139.525 132.035C140.435 133.435 142.594 133.778 144.607 133.047C146.878 132.22 148.257 130.178 148.427 128.301C148.622 126.096 147.169 124.659 145.501 123.434C143.447 121.927 140.307 125.47 142.342 126.966C142.729 127.249 143.204 127.585 143.442 127.981C143.851 128.669 143.549 129.437 144.183 128.78C144.784 128.166 144.677 126.71 144.533 126.119C144.08 124.277 141.994 123.614 139.959 123.331C139.238 124.637 138.523 125.946 137.802 127.251C140.041 127.527 142.663 127.516 144.484 125.496C145.958 123.858 145.672 122.002 144.19 121.027C140.249 118.429 132.845 118.702 127.534 119.412C124.483 119.829 124.779 123.729 127.8 123.319Z" fill="#8D434F"/>
<path d="M138.528 133.435C138.445 134.593 138.361 135.751 138.277 136.904C138.152 138.651 140.67 138.754 142.118 137.811C148.146 133.901 149.982 127.171 147.019 122.686C145.605 120.551 141.491 123.634 142.892 125.756C144.727 128.53 142.81 132.616 139.378 134.841C140.661 135.143 141.937 135.446 143.219 135.748C143.303 134.59 143.387 133.432 143.471 132.279C143.663 129.577 138.721 130.749 138.528 133.435Z" fill="#8D434F"/>
<path d="M144.29 119.962C141.877 115.252 131.846 118.922 126.683 120.325C123.789 121.112 124.034 124.6 126.957 123.807C129.129 123.215 138.978 119.897 139.952 121.804C140.96 123.771 145.305 121.94 144.29 119.962Z" fill="#8D434F"/>
<path d="M133.181 147.865C133.335 151.182 134.598 154.113 136.66 156.576C138.894 159.238 144.518 159.183 147.996 156.403C151.683 153.457 152.674 149.279 150.285 146.427C150.131 146.244 149.988 145.94 149.781 145.799C150.207 146.093 150.479 147.006 149.994 146.03C149.723 145.49 149.531 144.927 149.362 144.343C149.5 144.924 149.638 145.5 149.776 146.081C149.62 145.417 149.532 144.753 149.496 144.056C149.331 140.486 145.21 137.993 140.867 139.17C136.403 140.381 133.004 144.037 133.181 147.865Z" fill="#35C34F"/>
<path d="M136.725 152.787C137.245 153.211 137.741 153.646 138.173 154.142C138.28 154.265 138.381 154.395 138.487 154.518C138.921 155.111 138.885 155.032 138.374 154.294C138.409 154.271 138.981 155.55 139.004 155.606C139.123 155.91 139.224 156.218 139.312 156.529C139.101 155.589 139.063 155.491 139.195 156.245C139.727 159.708 143.215 162.367 147.81 161.121C151.965 159.994 156.063 156.16 155.495 152.441C154.916 148.653 153.38 145.129 150.328 142.659C148.899 141.503 147.493 140.673 145.242 140.683C143.262 140.691 140.679 141.498 139.01 142.831C135.777 145.412 133.77 150.4 136.725 152.787Z" fill="#35C34F"/>
<path d="M135.773 167.812C139.325 165.7 143.068 163.847 146.838 162.127C156.082 157.914 151.244 146.99 141.96 151.221C136.916 153.52 132.108 156.135 127.363 158.956C123.708 161.129 123.163 165.758 125.247 167.951C127.734 170.57 132.107 169.993 135.773 167.812Z" fill="#35C34F"/>
<path d="M137.731 152.804C132.88 154.414 128.11 156.223 123.407 158.316C120.986 159.393 120.599 161.647 121.576 163.122C122.956 165.195 123.426 167.618 123.359 170.201C123.258 174.054 130.378 172.387 130.48 168.554C130.577 164.84 129.477 161.667 127.518 158.733C126.906 160.337 126.3 161.94 125.687 163.539C129.776 161.718 133.918 160.073 138.132 158.675C140.042 158.04 141.585 156.643 141.489 154.914C141.413 153.469 139.628 152.171 137.731 152.804Z" fill="#35C34F"/>
<path d="M120.939 163.481C122.652 163.891 123.236 165.434 123.628 166.741C124.222 168.723 124.499 170.832 124.607 172.945C124.63 173.403 125.13 173.837 125.746 173.796C127.588 173.679 129.324 172.94 130.61 171.656C130.152 171.849 129.694 172.047 129.236 172.241C133.834 172.288 138.517 170.441 142.685 168.217C144.79 167.094 146.834 165.875 148.925 164.741C149.952 164.185 150.991 163.649 152.051 163.154C153.066 162.682 154.233 162.296 155.098 161.611C157.196 159.949 156.767 157.295 155.944 155.69C155.436 154.685 153.563 155.159 153.175 156.282C152.234 159.029 148.927 161.15 145.922 162.557C141.879 164.445 137.554 165.684 133.815 168.116C132.391 169.043 133.55 170.545 135.079 169.922C139.751 168.018 144.227 165.687 148.408 163.007C147.783 162.545 147.159 162.083 146.534 161.621C142.83 165.814 136.809 168.025 131.265 169.597C130.494 169.817 129.865 170.383 129.914 171.023C129.959 171.613 130.655 172.019 131.435 171.834C137.233 170.456 142.977 168.518 148.452 166.042C150.682 165.038 153.584 163.89 154.68 161.869C155.945 159.544 154.068 157.818 152.329 156.6C151.805 156.235 150.777 156.532 150.296 157.035C149.733 157.628 149.892 158.249 150.416 158.618C151.397 159.308 153.099 160.58 151.61 161.885C150.937 162.475 150.01 162.882 149.182 163.277C148.038 163.822 146.881 164.342 145.71 164.843C141.016 166.843 136.174 168.429 131.259 169.594C131.316 170.341 131.372 171.083 131.429 171.83C137.722 170.047 144.477 167.52 148.682 162.766C149.725 161.588 148.222 160.478 146.808 161.381C142.833 163.931 138.585 166.118 134.145 167.922C134.564 168.523 134.984 169.129 135.409 169.729C139.214 167.251 143.776 166.129 147.823 164.063C151.487 162.193 154.841 159.612 155.989 156.276C155.064 156.474 154.145 156.67 153.22 156.868C153.59 157.598 153.804 158.411 153.689 159.277C153.655 159.529 153.61 159.853 153.382 160.074C153.093 160.35 152.597 160.501 152.229 160.657C149.951 161.645 147.794 162.834 145.655 164.041C141.636 166.31 137.462 168.785 132.852 169.653C132.259 169.767 131.67 169.852 131.083 169.886C130.374 169.934 129.57 169.797 128.898 170.172C128.438 170.425 128.154 170.831 127.671 171.08C127.255 171.296 126.782 171.443 126.334 171.471C126.712 171.754 127.09 172.041 127.473 172.322C127.342 169.905 126.99 167.499 126.252 165.248C125.667 163.46 124.517 161.779 122.234 161.231C120.593 160.841 119.292 163.083 120.939 163.481Z" fill="#35C34F"/>
<path d="M134.61 153.36C136.792 152.535 139.126 152.213 141.305 152.414C141.595 152.442 141.919 152.207 141.976 151.999C142.047 151.75 141.833 151.601 141.537 151.575C139.173 151.358 136.603 151.742 134.243 152.634C133.547 152.898 133.914 153.624 134.61 153.36Z" fill="#35914F"/>
<path d="M122.439 159.829C122.909 160.147 123.16 160.632 123.102 161.204C123.063 161.584 123.315 161.795 123.771 161.735C124.214 161.678 124.316 162.202 124.072 162.467C123.834 162.725 123.871 163.066 124.125 163.213C125.056 163.743 125.525 164.604 125.936 165.489C126.284 166.237 127.077 167.314 126.617 168.246C126.485 168.517 126.562 168.865 126.901 168.917C127.4 168.993 127.904 169.066 128.403 169.142C128.308 168.916 128.213 168.696 128.119 168.47C127.561 169.418 127.34 170.386 127.466 171.325C127.559 171.991 128.853 171.704 128.76 171.032C128.653 170.267 128.818 169.526 129.269 168.752C129.428 168.485 129.304 168.132 128.985 168.081C128.487 168.005 127.982 167.932 127.484 167.856C127.578 168.082 127.673 168.302 127.768 168.528C128.4 167.246 127.711 166.15 127.237 165.108C126.731 163.993 126.136 162.924 124.978 162.257C124.995 162.505 125.013 162.754 125.03 163.002C126.112 161.845 125.193 160.473 123.689 160.674C123.912 160.849 124.135 161.024 124.358 161.205C124.458 160.205 124.121 159.437 123.292 158.873C122.719 158.482 121.866 159.437 122.439 159.829Z" fill="#35914F"/>
<path d="M129.057 138.653C129.937 138.463 130.816 138.273 131.696 138.083C131.182 137.797 130.661 137.507 130.146 137.22C130.156 137.281 130.155 137.34 130.153 137.399C130.163 137.289 130.173 137.18 130.183 137.071C130.172 137.166 130.148 137.254 130.119 137.348C130.159 137.242 130.205 137.134 130.245 137.028C130.205 137.129 130.147 137.23 130.082 137.327C130.153 137.229 130.223 137.13 130.293 137.031C130.223 137.13 130.14 137.217 130.051 137.305C130.146 137.22 130.241 137.136 130.336 137.051C130.241 137.136 130.145 137.206 130.037 137.274C130.151 137.21 130.265 137.14 130.38 137.075C130.283 137.131 130.179 137.179 130.069 137.219C130.196 137.175 130.324 137.131 130.452 137.088C130.342 137.123 130.236 137.147 130.124 137.162C130.254 137.147 130.384 137.132 130.514 137.117C130.419 137.124 130.324 137.127 130.228 137.119C130.348 137.131 130.468 137.147 130.588 137.159C130.474 137.146 130.365 137.117 130.261 137.082C130.365 137.122 130.469 137.162 130.573 137.201C130.469 137.162 130.382 137.108 130.301 137.049C130.383 137.113 130.465 137.177 130.547 137.241C130.465 137.177 130.4 137.109 130.341 137.026C130.394 137.111 130.454 137.194 130.508 137.279C130.454 137.199 130.418 137.11 130.393 137.014C130.418 137.115 130.443 137.216 130.469 137.317C130.452 137.248 130.447 137.181 130.448 137.108C130.456 136.81 130.214 136.505 129.96 136.359C129.693 136.211 129.26 136.149 128.898 136.245C128.518 136.346 128.132 136.536 127.885 136.83C127.815 136.929 127.745 137.027 127.674 137.126C127.553 137.343 127.503 137.558 127.518 137.773C127.516 137.837 127.521 137.894 127.53 137.95C127.559 138.104 127.589 138.268 127.652 138.409C127.695 138.506 127.755 138.589 127.814 138.673C127.881 138.77 127.935 138.864 128.024 138.946C128.177 139.091 128.355 139.24 128.564 139.334C128.773 139.427 128.994 139.523 129.24 139.554C129.415 139.578 129.59 139.606 129.774 139.603C129.964 139.599 130.171 139.571 130.365 139.542C130.447 139.528 130.524 139.511 130.605 139.483C130.797 139.42 131.001 139.363 131.185 139.273C131.433 139.154 131.685 139.009 131.893 138.84C132.101 138.671 132.314 138.487 132.467 138.282C132.728 137.941 132.881 137.668 133.009 137.294C133.034 137.221 133.047 137.15 133.06 137.079C133.083 136.903 133.106 136.723 133.088 136.552C133.049 136.255 132.896 135.95 132.6 135.803C132.297 135.653 131.936 135.604 131.538 135.69C130.658 135.88 129.778 136.07 128.899 136.26C128.523 136.34 128.135 136.574 127.886 136.844C127.649 137.107 127.48 137.495 127.519 137.788C127.559 138.095 127.704 138.387 128.007 138.537C128.298 138.69 128.658 138.739 129.057 138.653Z" fill="white"/>
<path d="M142.887 132.317C143.097 132.062 143.307 131.803 143.522 131.547C142.321 131.42 141.119 131.289 139.918 131.162C139.938 131.452 140.03 130.718 139.931 131.011C139.956 130.937 140.139 130.556 139.984 130.832C139.878 131.024 140.31 130.438 140.087 130.671C140.478 130.267 140.346 130.439 140.187 130.564C139.927 130.777 140.585 130.345 140.366 130.459C139.99 130.649 140.587 130.369 140.589 130.393C140.542 130.409 140.495 130.42 140.447 130.426C140.276 130.456 140.383 130.446 140.768 130.387C140.434 130.405 141.242 130.484 140.925 130.395C139.972 130.137 138.6 130.742 138.142 131.653C137.664 132.608 138.033 133.52 139.048 133.798C141.308 134.414 144.185 132.284 144.052 130.217C144.011 129.539 143.443 129.05 142.676 128.961C141.933 128.876 140.961 129.198 140.447 129.827C140.237 130.081 140.028 130.341 139.812 130.597C139.133 131.421 139.086 132.547 139.98 132.99C140.8 133.401 142.164 133.196 142.887 132.317Z" fill="#EFABBF"/>
<path d="M111.122 159.917C110.621 160.798 110.121 161.684 109.62 162.566C109.104 163.481 109.515 164.575 110.541 164.777C111.593 164.987 112.819 164.459 113.374 163.479C113.875 162.598 114.375 161.712 114.876 160.83C115.392 159.915 114.981 158.821 113.955 158.619C112.903 158.409 111.677 158.942 111.122 159.917Z" fill="#EFABBF"/>
<path d="M103.475 171.101C104.271 171.214 105.136 171.121 105.969 170.83C106.121 170.778 106.195 170.626 106.147 170.529C106.092 170.42 105.934 170.401 105.782 170.453C105.107 170.687 104.379 170.769 103.736 170.676C103.595 170.658 103.426 170.709 103.355 170.83C103.283 170.938 103.329 171.079 103.475 171.101Z" fill="#EF7EBF"/>
<path d="M103.1 177.554C104.836 177.584 106.649 177.273 108.336 176.65C108.678 176.523 108.498 176.179 108.149 176.307C106.562 176.892 104.856 177.185 103.218 177.157C102.857 177.15 102.745 177.546 103.1 177.554Z" fill="#EF7EBF"/>
<path d="M106.777 181.889C108.715 181.822 110.701 181.234 112.37 180.232C112.682 180.048 112.362 179.746 112.056 179.934C110.525 180.856 108.679 181.404 106.896 181.466C106.534 181.477 106.415 181.9 106.777 181.889Z" fill="#EF7EBF"/>
<path d="M122.192 176.168C122.064 174.3 121.613 172.499 120.845 170.831C120.7 170.521 120.039 170.803 120.184 171.119C120.934 172.746 121.374 174.495 121.499 176.32C121.511 176.664 122.212 176.516 122.192 176.168Z" fill="#EF7EBF"/>
</g>
<defs>
<clipPath id="clip0_4066_2629">
<rect width="61.5064" height="33.0192" fill="white" transform="translate(47.2568 101.226)"/>
</clipPath>
</defs>
</svg>
