<svg width="233" height="233" viewBox="0 0 233 233" fill="none" xmlns="http://www.w3.org/2000/svg">
<mask id="mask0" mask-type="alpha" maskUnits="userSpaceOnUse" x="0" y="0" width="233" height="233">
<rect width="233" height="233" fill="#C4C4C4"/>
</mask>
<g mask="url(#mask0)">
<path fill-rule="evenodd" clip-rule="evenodd" d="M7.00021 109.753C6.92436 90.4359 27.3072 78.257 38.8325 62.7661C49.4461 48.5006 56.4871 31.0497 72.0027 22.384C88.0926 13.3976 107.392 11.232 125.554 14.3309C143.453 17.3849 158.233 28.4396 172.606 39.5494C187.76 51.2632 204.044 62.7658 211.21 80.5411C218.706 99.1356 219.593 120.563 212.882 139.455C206.332 157.896 190.594 170.932 174.94 182.653C160.177 193.707 143.728 202.05 125.511 204.877C107.157 207.724 87.4717 207.823 71.2645 198.739C55.5341 189.923 49.7637 171.129 39.2006 156.502C27.8936 140.845 7.07607 129.073 7.00021 109.753Z" fill="#BC48E3"/>
<g clip-path="url(#clip0)">
<path d="M62.2157 117.367C59.9309 119.875 57.6133 122.359 55.3567 124.895C53.5985 126.872 52.2352 128.802 52.0988 131.521C52.0471 132.526 52.9309 133.86 53.9981 134.01C58.8355 134.691 61.5293 131.136 64.3641 127.792C67.1659 124.482 70.1982 120.875 66.9779 116.756C66.3667 118.226 65.7603 119.696 65.1492 121.166C67.8006 121.237 70.4332 121.453 73.047 121.917C74.1283 122.11 75.3365 122.589 76.4271 122.631C77.358 123.063 77.5131 122.955 76.8973 122.293C76.5588 121.589 76.446 121.551 76.5588 122.176C76.4083 122.575 76.6105 123.458 76.6152 123.899C76.634 127.398 76.3989 133.597 72.7603 135.527C70.8046 136.565 67.9557 135.818 65.859 135.64C64.9517 135.565 62.5353 134.898 61.6891 135.283C61.0733 135.095 61.0216 135.302 61.534 135.898C61.7832 136.673 61.8866 136.781 61.8443 136.227C62.0229 135.814 61.8725 135.076 61.9242 134.602C62.3285 130.746 64.0538 127.06 67.6878 125.369C66.3903 124.627 65.0927 123.88 63.7952 123.138C63.2734 127.29 62.7516 131.441 62.2251 135.598C61.8866 138.307 65.8073 138.876 67.0437 136.903C68.6515 134.339 69.4742 131.564 69.6387 128.549C69.761 126.365 66.6911 125.069 65.2244 126.722C63.5226 128.638 62.3144 130.704 61.4447 133.113C63.1089 133.569 64.7684 134.029 66.4326 134.485C67.4668 131.587 68.0921 128.661 68.4681 125.613C68.7408 123.416 65.4359 122.166 64.0538 123.787C62.2956 125.848 61.0639 128.093 60.4151 130.728C59.7429 133.47 63.7717 135.419 65.1398 132.719C66.6112 129.817 68.0827 126.914 69.5541 124.007C67.9463 123.571 66.3432 123.138 64.7355 122.702C64.8342 125.595 64.7167 128.464 64.3829 131.343C64.1008 133.752 67.3023 134.499 68.7972 133.17C71.6884 130.601 73.221 127.205 73.5501 123.387C73.8039 120.429 69.2391 119.964 68.4728 122.702C67.542 126.022 67.1283 129.413 67.2647 132.86C67.3728 135.677 71.632 136.48 72.3419 133.545C73.0235 130.737 73.9544 127.356 73.6535 124.449C73.5219 123.167 72.9812 122.133 72.0081 121.302C71.1666 120.584 69.9208 120.368 69.2438 119.527C68.6327 120.997 68.0262 122.467 67.4151 123.937C68.5481 124.031 69.7704 124.261 70.908 124.219C71.7636 124.491 72.0034 124.453 71.6226 124.111C71.6602 124.716 71.6884 125.322 71.6978 125.928C71.7448 128.436 71.5239 130.911 71.0679 133.376C70.452 136.692 74.8241 137.814 76.0558 134.748C76.9584 132.498 77.6024 130.206 78.002 127.816C78.538 124.608 73.865 123.157 73.0141 126.445C72.5628 128.182 72.1585 130.023 71.1619 131.545C70.7153 132.23 70.1982 132.813 69.4695 133.207C69.1075 133.414 68.722 133.555 68.313 133.625C67.307 133.47 67.4198 133.865 68.6609 134.813C68.266 135.785 67.8664 136.758 67.4715 137.73C67.5185 137.706 67.5608 137.678 67.6078 137.655C69.9631 136.316 68.7455 133.024 66.3009 132.841C64.7966 132.728 63.3345 132.752 61.8349 132.911C59.1787 133.193 58.0458 137.373 61.1485 137.983C64.0303 138.552 66.9403 138.969 69.8691 139.186C72.4265 139.373 76.2062 140.026 78.5427 138.758C80.8509 137.504 80.9496 134.339 81.2505 132.024C81.6595 128.924 81.7206 125.834 81.4762 122.721C81.2787 120.208 78.0819 119.156 76.6575 121.415C73.818 125.919 74.1424 132.198 70.5554 136.175C68.3365 138.641 71.9799 142.304 74.2129 139.829C78.317 135.274 77.9785 129.013 81.1236 124.021C79.5158 123.585 77.9127 123.153 76.3049 122.716C76.4695 124.81 76.5212 126.9 76.3895 128.995C76.3096 130.258 76.1639 131.517 75.9523 132.766C75.8489 133.357 75.7314 133.945 75.6045 134.527C76.3425 134.198 76.3848 134.076 75.7314 134.17C75.0121 133.855 73.3808 134.179 72.5769 134.156C71.5239 134.123 70.4755 134.062 69.4272 133.977C67.1048 133.79 64.8154 133.447 62.5306 132.996C62.3003 134.687 62.0746 136.377 61.8443 138.068C63.3486 137.908 64.806 137.885 66.3103 137.997C65.8731 136.391 65.4406 134.79 65.0034 133.184C64.9564 133.207 64.9141 133.235 64.8671 133.259C63.8705 133.827 63.3862 135.081 63.6777 136.175C64.6602 139.843 69.949 139.002 72.3654 137.481C75.7737 135.33 77.0524 131.512 78.0067 127.807C76.3425 127.351 74.683 126.891 73.0188 126.435C72.6192 128.826 71.9752 131.117 71.0726 133.367C72.7368 133.822 74.3963 134.283 76.0605 134.738C76.7797 130.854 77.5272 126.13 76.5917 122.227C75.6609 118.33 70.499 119.01 67.4198 118.762C64.947 118.56 64.3359 121.612 65.5911 123.171C66.0847 123.782 66.6911 124.209 67.3728 124.59C68.3694 125.144 68.2425 124.749 68.4917 125.604C68.7408 126.454 68.2002 128.107 68.045 128.967C67.8523 130.042 67.6172 131.103 67.3587 132.165C69.0511 132.395 70.7435 132.62 72.4359 132.85C72.3184 129.84 72.6474 126.971 73.4607 124.068C71.7683 123.838 70.0759 123.613 68.3835 123.383C68.172 125.858 66.9826 127.886 65.1445 129.511C66.6159 130.122 68.0874 130.728 69.5588 131.338C69.8973 128.459 70.0148 125.595 69.9114 122.697C69.8268 120.278 66.3103 118.996 65.0927 121.391C63.6213 124.294 62.1498 127.196 60.6784 130.103C62.2533 130.765 63.8281 131.432 65.403 132.094C65.8355 130.333 66.5266 128.821 67.7113 127.431C66.2398 126.82 64.7684 126.215 63.2969 125.604C62.9772 128.173 62.3144 130.671 61.4447 133.104C60.3258 136.246 65.309 137.584 66.4326 134.475C66.9873 132.935 67.8006 131.592 68.8818 130.366C67.4104 129.755 65.9389 129.15 64.4675 128.539C64.35 130.657 63.7012 132.498 62.5776 134.287C64.1854 134.724 65.7885 135.156 67.3963 135.593C67.9181 131.441 68.4399 127.29 68.9665 123.134C69.2344 120.992 66.6206 120.185 65.0739 120.903C59.4702 123.514 56.7153 129.971 56.673 135.903C56.6448 140.12 59.6112 140.275 63.076 140.566C66.6065 140.867 70.8234 141.848 74.2364 140.51C80.4278 138.077 81.7488 130.164 81.7911 124.331C81.8005 122.852 81.9416 120.786 81.0766 119.494C80.141 118.099 78.4956 117.799 76.9631 117.451C73.0846 116.573 69.1216 116.108 65.1492 116C62.6811 115.934 62.0417 118.771 63.3204 120.41C63.8234 121.053 60.3916 124.514 59.8604 125.139C58.9766 126.186 57.0256 129.262 55.3708 129.032C56.0055 129.863 56.6354 130.695 57.2701 131.521C57.3688 129.586 59.677 127.821 60.8805 126.496C62.5447 124.669 64.2042 122.847 65.8684 121.02C68.1062 118.564 64.4628 114.901 62.2157 117.367Z" fill="#FFA09A"/>
<path d="M62.6853 140.951C62.4832 142.825 62.2858 144.699 62.0836 146.568C61.9285 148.01 63.3952 149.081 64.6692 149.151C67.2078 149.292 69.7182 149.184 72.2521 149.02C74.8236 148.85 77.4281 149.052 79.9808 148.888C86.0452 148.494 81.0526 140.923 79.8068 138.35C78.7867 136.246 75.698 136.988 75.0822 138.965C75.2608 138.397 74.6544 138.885 74.2783 138.871C73.277 138.824 72.2286 138.974 71.2226 139.026C69.3327 139.12 67.4429 139.218 65.553 139.312C62.2481 139.477 62.2011 144.45 65.553 144.478C67.5886 144.492 69.6289 144.511 71.6645 144.525C72.8868 144.535 75.7874 143.985 76.69 144.84C79.1064 147.127 82.7685 143.478 80.3475 141.186C78.6174 139.547 76.5725 139.402 74.2877 139.378C71.3777 139.35 68.4677 139.331 65.553 139.308C65.553 141.031 65.553 142.75 65.553 144.474C68.7263 144.314 71.9936 144.351 75.148 143.948C77.4375 143.652 79.3508 142.651 80.0701 140.341C78.4952 140.547 76.9203 140.754 75.3455 140.956C75.8109 141.909 76.2716 142.867 76.737 143.821C76.9297 144.215 77.6396 146.418 77.8982 145.502C78.2931 144.985 78.6927 144.474 79.0876 143.957C80.2863 143.422 79.3978 143.685 78.4905 143.656C77.9123 143.638 77.3387 143.633 76.7605 143.638C75.3925 143.652 74.0292 143.736 72.6611 143.825C69.9956 143.999 67.3489 144.135 64.6786 143.985C65.5389 144.845 66.4039 145.709 67.2642 146.568C67.4664 144.694 67.6638 142.82 67.866 140.951C68.2092 137.65 63.0379 137.673 62.6853 140.951Z" fill="#FFA09A"/>
<path d="M66.677 119.123C70.1746 117.879 74.1564 117.973 76.5634 120.504C79.9952 124.12 79.0597 129.572 77.7998 133.912C75.7736 140.89 86.6567 143.872 88.6782 136.908C91.0711 128.675 90.9818 118.992 84.5412 112.53C79.2101 107.185 70.6823 105.762 63.6776 108.251C60.8099 109.27 58.8872 112.093 59.7381 115.183C60.4997 117.959 63.7905 120.147 66.677 119.123Z" fill="#292B2A"/>
<path d="M60.8432 120.048C63.4758 120.523 66.1272 120.95 68.7505 121.495C70.8425 121.927 73.1366 122.373 74.8008 123.674C78.2655 126.379 77.4052 132.775 77.4616 136.673C77.5698 143.919 88.8525 143.938 88.7443 136.673C88.6362 129.408 88.6973 121.387 83.0278 115.949C77.9083 111.036 70.4946 110.374 63.8472 109.177C60.8526 108.637 57.7639 109.994 56.9083 113.112C56.1515 115.845 57.8298 119.504 60.8432 120.048Z" fill="#292B2A"/>
<path d="M66.757 116.324C67.6408 115.202 69.117 115.488 70.4615 115.54C72.6005 115.62 74.669 115.986 76.7234 116.578C80.0753 117.545 83.2721 118.945 83.5212 122.796C83.7845 126.858 81.4433 130.051 80.4702 133.822C79.121 139.059 81.542 143.257 84.941 147.047C88.9886 151.555 95.6219 144.896 91.5883 140.407C90.1968 138.857 89.0591 137.645 89.7737 135.541C90.5823 133.165 91.7717 130.986 92.3217 128.516C93.4218 123.58 93.1303 118.198 89.9853 114.042C86.6287 109.604 80.8275 107.566 75.5058 106.683C70.532 105.856 63.6402 105.213 60.1096 109.679C58.5395 111.666 58.1681 114.38 60.1096 116.32C61.7409 117.959 65.1774 118.325 66.757 116.324Z" fill="#292B2A"/>
<path d="M78.3447 136.955C77.7947 138.796 77.2447 140.641 76.6946 142.482C75.745 145.662 78.3024 148.122 81.2265 148.428C80.3286 148.334 82.0069 148.738 82.209 148.818C81.8094 148.644 81.8659 148.672 82.383 148.897C82.9001 149.123 83.4172 149.339 83.9391 149.555C85.34 150.118 86.7644 150.442 88.2876 150.442C90.7463 150.442 93.1015 148.282 92.9887 145.746C92.8759 143.201 90.9249 141.05 88.2876 141.05C87.7141 141.031 87.6764 141.045 88.1842 141.092C87.888 141.022 87.5965 140.937 87.3051 140.834C86.7832 140.632 86.7268 140.613 87.1311 140.782C86.8443 140.655 86.5576 140.529 86.2708 140.407C84.5549 139.669 83.107 139.228 81.2312 139.031C82.7403 141.012 84.254 142.994 85.7631 144.976C86.3131 143.135 86.8632 141.289 87.4132 139.449C88.1137 137.096 86.567 134.226 84.1318 133.672C81.6026 133.099 79.0969 134.438 78.3447 136.955Z" fill="#292B2A"/>
<path d="M88.4897 144.943C90.4782 145.394 92.1989 145.173 93.9994 144.21C92.4668 143.332 90.9343 142.454 89.4017 141.576C89.3171 145.793 82.2842 143.548 80.211 142.9C76.4501 141.726 74.8376 147.615 78.5844 148.789C82.3218 149.959 86.3742 150.95 90.1257 149.301C93.2848 147.911 95.4379 145.075 95.5084 141.576C95.5555 139.186 92.8993 137.875 90.9107 138.941C90.6569 139.162 90.3936 139.204 90.1116 139.059C86.2848 138.181 84.6489 144.065 88.4897 144.943Z" fill="#292B2A"/>
<path d="M57.6974 138.058C58.1206 138.415 58.5719 138.645 59.1313 138.664C59.5309 138.678 59.9352 138.566 60.2831 138.373C60.8707 138.049 61.3408 137.462 61.5101 136.809C61.825 135.584 60.9788 134.076 59.5591 134.264C58.4449 134.414 57.5846 135.419 57.6034 136.546C57.6128 136.974 57.7821 137.406 58.0876 137.706C58.3744 137.993 58.8398 138.204 59.2488 138.19C60.1279 138.152 60.9083 137.467 60.8942 136.546C60.8895 136.509 60.8942 136.471 60.8989 136.438C60.8801 136.584 60.8613 136.729 60.8378 136.875C60.8472 136.819 60.8613 136.772 60.8801 136.715C60.8237 136.847 60.7673 136.978 60.7156 137.11C60.7391 137.058 60.7626 137.016 60.7955 136.969C60.7109 137.082 60.6262 137.19 60.5369 137.302C60.5839 137.241 60.6309 137.194 60.6921 137.147C60.5792 137.232 60.4711 137.316 60.3583 137.406C60.4053 137.373 60.4523 137.349 60.504 137.331C60.3724 137.387 60.2408 137.443 60.1091 137.495C60.142 137.481 60.1796 137.471 60.2125 137.467C59.6766 137.326 59.1454 137.185 58.6095 137.044C58.6283 137.063 58.6471 137.082 58.6659 137.105C58.5813 136.992 58.4966 136.884 58.4073 136.772C58.4308 136.805 58.4496 136.833 58.4684 136.866C58.412 136.734 58.3556 136.603 58.3039 136.471C58.3227 136.518 58.3368 136.56 58.3462 136.612C58.3274 136.466 58.3086 136.321 58.2851 136.175C58.2898 136.222 58.2898 136.269 58.2851 136.321C58.3039 136.175 58.3227 136.03 58.3462 135.884C58.3368 135.945 58.318 136.006 58.2945 136.067C58.3509 135.936 58.4073 135.804 58.459 135.673C58.4261 135.748 58.3838 135.814 58.3368 135.875C58.4214 135.762 58.506 135.654 58.5954 135.541C58.5437 135.602 58.4872 135.659 58.4214 135.71C58.5342 135.626 58.6424 135.541 58.7552 135.452C58.7035 135.49 58.6471 135.522 58.586 135.551C58.7176 135.494 58.8492 135.438 58.9809 135.386C58.9244 135.41 58.8633 135.429 58.8022 135.438C58.9479 135.419 59.0937 135.4 59.2394 135.377C59.2018 135.382 59.1689 135.382 59.1313 135.377C59.277 135.396 59.4228 135.414 59.5685 135.438C59.5168 135.433 59.4745 135.419 59.4275 135.4C59.5591 135.457 59.6907 135.513 59.8224 135.565C59.7847 135.546 59.7565 135.527 59.7236 135.504C59.8365 135.588 59.9446 135.673 60.0574 135.762C60.048 135.753 60.0339 135.743 60.0245 135.734C59.6813 135.447 59.324 135.25 58.8633 135.25C58.459 135.25 57.9795 135.429 57.7022 135.734C57.4154 136.048 57.1991 136.457 57.2179 136.894C57.232 137.312 57.3637 137.781 57.6974 138.058Z" fill="#FF729E"/>
<path d="M91.0665 100.526C90.681 100.55 90.3002 100.568 89.9148 100.592C88.7724 100.658 88.1424 101.583 88.3305 102.672C88.5655 104.053 89.8818 105.067 91.2452 105.142C92.6508 105.222 93.906 104.189 94.2727 102.86C94.4419 102.236 94.4278 101.522 94.1552 100.925C93.7509 100.042 92.7965 99.8076 91.908 99.7089C90.5259 99.5587 89.2754 100.052 88.2035 100.892C87.5031 101.442 87.63 102.644 88.2035 103.217C88.8946 103.907 89.8301 103.766 90.5306 103.217C90.3896 103.33 91.0054 103.006 90.8127 103.081C90.855 103.067 91.3063 102.954 91.1323 102.982C91.5978 102.916 91.7811 102.982 92.2136 103.147C91.8328 102.766 91.4473 102.381 91.0665 102.001C91.1605 102.287 91.1888 101.78 91.0806 102.066C91.1088 101.991 91.1323 101.958 91.1841 101.897C91.0383 102.081 91.0618 101.921 91.1935 101.916C91.3251 101.911 91.4238 101.926 91.5366 101.935C91.5695 101.94 91.4661 101.832 91.4661 101.869C91.4661 101.869 91.5836 102.254 91.5084 101.799C90.9819 102.494 90.4507 103.184 89.9242 103.879C90.3096 103.856 90.6904 103.837 91.0759 103.813C91.9644 103.762 92.7213 103.095 92.7213 102.17C92.7119 101.32 91.9597 100.479 91.0665 100.526Z" fill="white"/>
<path d="M97.0974 92.1434C95.9315 90.9834 94.1968 91.1995 93.1014 92.3594C91.9215 93.6133 92.0531 95.4496 93.1673 96.6941C95.0947 98.8449 100.341 99.9908 101.606 96.5673C102.753 93.463 99.2176 90.4528 96.3029 90.6312C94.7609 90.7251 93.3083 91.7442 93.2566 93.3973C93.2002 95.1631 94.7515 96.4592 96.2935 96.9805C98.1364 97.6098 100.604 96.7833 100.609 94.515C100.614 92.4393 97.9671 91.3591 96.5333 92.8619C95.8704 93.557 95.9597 94.4821 96.5333 95.1866C97.0974 95.8863 97.7885 96.4358 98.583 96.8537C100.454 97.8399 102.118 95.0034 100.242 94.0172C99.6642 93.7119 99.2693 93.3691 98.8603 92.8619C98.8603 93.6368 98.8603 94.4117 98.8603 95.1866C99.4997 94.515 97.5064 93.9702 97.0316 93.7213C96.9705 93.6885 96.5944 93.3926 96.5521 93.402C96.5333 93.4067 96.5145 94.1957 96.3499 93.9092C96.3217 93.8622 97.0504 94.0595 96.7025 93.8951C97.3137 94.1816 98.268 94.3084 98.4607 95.1631C98.5265 95.4543 98.6394 95.3134 98.3432 95.4449C97.9953 95.5998 97.2619 95.2899 96.947 95.1913C96.4816 95.041 96.1337 94.7827 95.7106 94.5761C95.4473 94.4493 95.1981 94.8766 94.775 94.454C96.2747 95.9661 98.6018 93.6415 97.0974 92.1434Z" fill="white"/>
<path d="M112.903 70.9539C109.551 71.2216 106.138 70.536 103.007 72.1092C99.8811 73.6825 98.4989 76.8759 99.0208 80.2666C99.9234 86.1322 106.054 90.4339 111.883 88.964C117.444 87.5598 122.136 80.6939 119.198 75.1242C116.025 69.1083 106.11 70.9305 103.759 76.7303C102.462 79.9331 104.051 84.1128 107.69 84.8219C111.295 85.5217 114.699 81.8586 113.387 78.3364C112.569 76.1433 110.087 75.3731 108.282 76.9886C107.516 77.6743 107.163 78.3411 106.876 79.3226C106.416 80.9006 107.436 82.6523 109.011 83.0796C111.455 83.7418 114.008 82.4221 114.539 79.8627C114.873 78.2472 114.083 76.5706 112.405 76.1057C110.745 75.6455 109.086 75.3684 107.379 75.143C105.729 74.927 104.338 76.7021 104.324 78.1955C104.305 80.0224 105.748 81.0368 107.379 81.2481C108.536 81.3984 109.659 81.6848 110.783 81.9901C110.073 80.7362 109.359 79.487 108.649 78.2331C109.312 77.8856 109.974 77.5334 110.637 77.1858C111.347 78.4397 112.062 79.6889 112.772 80.9428C112.715 81.0649 112.663 81.1823 112.607 81.3044C110.905 80.8536 109.203 80.4075 107.502 79.9566C107.455 79.8298 111.587 77.6038 111.902 77.5615C113.138 77.3925 113.867 77.5099 113.919 78.7873C114.008 81.0321 111.695 83.136 109.528 83.1688C107.459 83.2017 105.207 81.3467 105.01 79.2334C104.704 75.946 110.98 77.2093 112.908 77.0544C116.796 76.7491 116.829 70.6393 112.903 70.9539Z" fill="white"/>
<path d="M111.488 95.0926C112.099 97.173 114.281 98.5866 116.443 98.0371C117.369 97.8023 118.131 97.2764 118.709 96.5297C119.278 95.7923 119.687 94.8155 119.584 93.8622C119.494 93.031 119.301 92.3171 118.69 91.7019C118.159 91.1712 117.289 90.7721 116.528 90.8096C115.738 90.8472 114.92 91.1055 114.365 91.7019C113.853 92.2608 113.383 93.0732 113.472 93.8622C113.486 93.9749 113.486 94.0735 113.472 94.1862C113.51 93.9138 113.543 93.6462 113.58 93.3738C113.566 93.4442 113.547 93.5147 113.524 93.5851C113.627 93.3409 113.731 93.0967 113.834 92.8572C113.787 92.9605 113.74 93.0497 113.674 93.1437C113.834 92.937 113.994 92.7304 114.154 92.5238C114.078 92.613 114.008 92.6787 113.923 92.7539C114.13 92.5942 114.337 92.4345 114.544 92.2749C114.487 92.3171 114.422 92.3547 114.356 92.3829C114.6 92.2796 114.845 92.1762 115.085 92.0729C114.976 92.1152 114.882 92.1387 114.77 92.1528C115.042 92.1152 115.31 92.0823 115.583 92.0447C115.512 92.0494 115.437 92.0494 115.367 92.0401C115.639 92.0776 115.907 92.1105 116.18 92.1481C116.067 92.1246 115.973 92.1011 115.87 92.0541C116.114 92.1575 116.359 92.2608 116.598 92.3641C116.532 92.3312 116.467 92.2983 116.41 92.2561C116.617 92.4158 116.824 92.5754 117.031 92.7351C116.941 92.6647 116.871 92.5942 116.796 92.5097C116.956 92.7163 117.115 92.9229 117.275 93.1296C117.209 93.0357 117.162 92.9511 117.115 92.8478C117.219 93.092 117.322 93.3362 117.426 93.5757C117.416 93.5428 117.407 93.5053 117.393 93.4724C116.941 91.9414 115.221 90.8284 113.632 91.3403C112.071 91.8381 111.009 93.4489 111.488 95.0926Z" fill="white"/>
<path d="M107.774 68.0422C103.261 67.6477 98.5361 70.0334 96.8155 74.3399C95.1419 78.5242 96.7967 83.4647 100.699 85.7329C104.107 87.7101 107.186 82.4362 103.783 80.4591C102.33 79.6138 101.832 77.74 102.64 76.2512C103.646 74.4009 105.86 73.9783 107.774 74.1473C111.69 74.4902 111.666 68.3851 107.774 68.0422Z" fill="white"/>
<path d="M108.926 74.2929C111.06 74.3023 113.632 74.1473 115.508 75.359C117.543 76.6739 117.275 78.4021 115.7 80.0223C112.292 83.5257 106.839 82.9387 102.551 81.8445C98.7341 80.8723 97.1545 86.6111 100.925 87.7335C106.67 89.443 112.522 88.8794 117.943 86.3998C121.074 84.9675 118.855 79.703 115.588 80.8207C112.668 81.8163 109.782 81.5016 106.801 80.924C105.767 80.7221 100.765 80.2102 101.15 78.374C101.959 74.5418 96.0686 72.9028 95.2553 76.7491C94.2398 81.5674 97.7563 84.9769 102.147 86.1603C106.947 87.4518 112.405 88.3488 117.21 86.7098C116.424 84.8501 115.639 82.9903 114.854 81.1306C110.938 82.9199 106.641 83.0655 102.547 81.8492C102.006 83.8122 101.465 85.7752 100.92 87.7382C108.385 89.6402 118.291 89.2129 122.221 81.3091C123.932 77.8668 123.109 73.9736 120.289 71.386C117.167 68.5213 112.955 68.216 108.917 68.1972C104.996 68.1737 104.991 74.2788 108.926 74.2929Z" fill="white"/>
<path d="M119.136 104.185C119.136 104.053 119.136 103.922 119.136 103.79C119.151 103.372 119.066 102.978 118.873 102.616C118.751 102.236 118.539 101.912 118.243 101.634C117.966 101.339 117.637 101.127 117.261 101.005C116.899 100.813 116.504 100.728 116.085 100.742C115.813 100.78 115.545 100.813 115.272 100.85C114.755 100.996 114.304 101.259 113.923 101.634C113.763 101.841 113.603 102.048 113.443 102.254C113.166 102.729 113.03 103.245 113.025 103.795C113.025 103.926 113.025 104.058 113.025 104.189C113.011 104.607 113.095 105.002 113.288 105.363C113.41 105.744 113.622 106.068 113.918 106.345C114.196 106.641 114.525 106.852 114.901 106.974C115.263 107.167 115.658 107.251 116.076 107.237C116.349 107.199 116.617 107.167 116.889 107.129C117.406 106.983 117.858 106.72 118.238 106.345C118.398 106.138 118.558 105.932 118.718 105.725C119 105.251 119.136 104.734 119.136 104.185Z" fill="white"/>
<path d="M114.892 96.5249C118.822 96.5249 118.831 90.4198 114.892 90.4198C110.961 90.4198 110.952 96.5249 114.892 96.5249Z" fill="white"/>
<path d="M126.583 83.7277C126.094 84.141 125.779 84.7562 125.582 85.3526C125.483 85.6485 125.441 86.0054 125.436 86.3106C125.427 86.738 125.511 87.156 125.676 87.5457C126.306 89.0345 128.135 89.6591 129.634 89.2505C130.805 88.9311 131.863 87.9261 132.074 86.7051C132.182 86.0758 132.215 85.4512 132.004 84.836C131.802 84.2537 131.632 83.9719 131.233 83.507C131.026 83.2675 130.758 83.0937 130.504 82.9059C130.001 82.5302 129.089 82.4879 128.511 82.6476C127.909 82.8119 127.26 83.2769 126.964 83.8357C126.649 84.4368 126.489 85.1601 126.706 85.8269C126.79 86.0336 126.88 86.2402 126.964 86.4421C127.194 86.8319 127.505 87.1372 127.89 87.3673C127.909 87.3814 127.928 87.3955 127.947 87.4096C127.773 87.2734 127.599 87.1419 127.425 87.0057C127.481 87.0573 127.524 87.1043 127.571 87.1607C127.434 86.9869 127.303 86.8131 127.166 86.6394C127.209 86.7004 127.241 86.7615 127.27 86.8272C127.185 86.6206 127.096 86.414 127.011 86.212C127.044 86.3059 127.068 86.3952 127.082 86.4891C127.049 86.259 127.021 86.0336 126.988 85.8034C126.992 85.8786 126.992 85.9443 126.988 86.0195C127.021 85.7894 127.049 85.5639 127.082 85.3338C127.068 85.4324 127.044 85.517 127.006 85.6109C127.091 85.4043 127.18 85.1976 127.265 84.9957C127.232 85.0614 127.199 85.1178 127.152 85.1788C127.288 85.0051 127.42 84.8313 127.556 84.6576C127.505 84.7139 127.458 84.7562 127.401 84.8031C127.575 84.667 127.749 84.5355 127.923 84.3993C127.862 84.4415 127.801 84.4697 127.735 84.5026C127.942 84.4181 128.149 84.3288 128.351 84.2443C128.28 84.2678 128.215 84.2866 128.144 84.3006C128.374 84.2678 128.6 84.2396 128.83 84.2067C128.732 84.2208 128.642 84.2208 128.544 84.2114C128.774 84.2443 129 84.2725 129.23 84.3053C129.131 84.2913 129.047 84.2678 128.953 84.2302C129.16 84.3147 129.366 84.404 129.569 84.4885C129.503 84.4556 129.446 84.4181 129.385 84.3758C129.559 84.512 129.733 84.6435 129.907 84.7797C129.888 84.7656 129.869 84.7468 129.855 84.7327C130.076 85.1131 130.297 85.4935 130.518 85.8739C130.513 85.8457 130.509 85.8222 130.504 85.7941C130.537 86.0242 130.565 86.2496 130.598 86.4797C130.593 86.3952 130.593 86.3247 130.603 86.2402C130.57 86.4703 130.542 86.6957 130.509 86.9258C130.528 86.8178 130.556 86.7192 130.598 86.6206C130.513 86.8272 130.424 87.0339 130.34 87.2358C130.377 87.1607 130.415 87.0996 130.462 87.0339C130.325 87.2076 130.194 87.3814 130.057 87.5551C130.109 87.4941 130.166 87.4377 130.227 87.3861C130.706 86.9775 130.984 86.1697 130.984 85.5592C130.984 84.9252 130.702 84.1692 130.227 83.7324C129.733 83.2816 129.089 82.9434 128.398 82.9763C127.693 83.0045 127.129 83.2628 126.583 83.7277Z" fill="white"/>
<path d="M138.458 95.1959C138.716 94.9235 138.975 94.6558 139.234 94.3834C139.657 93.942 139.92 93.3409 139.92 92.721C139.934 92.3969 139.864 92.0964 139.718 91.8146C139.624 91.5234 139.459 91.2698 139.234 91.0585C138.787 90.6499 138.199 90.3447 137.569 90.3728C136.954 90.401 136.342 90.603 135.905 91.0585C135.647 91.3309 135.388 91.5986 135.13 91.8709C134.706 92.3124 134.443 92.9135 134.443 93.5334C134.429 93.8574 134.5 94.158 134.645 94.4398C134.739 94.7309 134.904 94.9845 135.13 95.1959C135.576 95.6044 136.164 95.9097 136.794 95.8815C137.41 95.8533 138.025 95.6514 138.458 95.1959Z" fill="white"/>
<path d="M142.689 104.152C145.712 104.152 145.722 99.4554 142.689 99.4554C139.662 99.4554 139.657 104.152 142.689 104.152Z" fill="white"/>
<path d="M108.846 122.636C107.192 124.58 105.537 126.524 103.887 128.464C102.796 129.746 103.088 131.939 104.926 132.39C108.973 133.376 113.204 130.211 112.847 125.905C112.645 123.463 108.743 122.49 108.231 125.28C107.304 130.296 103.689 135.973 107.624 140.67C111.432 145.215 117.675 143.243 121.817 140.407C124.299 138.711 121.948 134.64 119.443 136.354C117.252 137.852 111.841 140.81 110.661 136.509C109.777 133.292 112.184 129.647 112.762 126.534C111.225 126.327 109.683 126.116 108.146 125.909C108.24 127.055 107.464 128.182 106.176 127.868C106.524 129.178 106.867 130.483 107.215 131.794C108.87 129.849 110.525 127.905 112.175 125.966C114.121 123.664 110.811 120.325 108.846 122.636Z" fill="#FFCA9A"/>
<path d="M114.148 125.055C115.436 121.551 122.756 121.096 124.472 124.298C126.723 128.502 122.436 132.306 118.868 133.649C119.832 134.611 120.795 135.574 121.759 136.537C122.554 133.653 124.975 125.811 120.386 124.9C116.325 124.097 113.133 130.512 111.765 133.395C110.444 136.18 113.998 138.134 115.822 135.767C117.994 132.944 118.567 129.399 117.655 125.984C117.171 124.167 115.036 123.843 113.725 124.947C110.66 127.529 109.522 131.953 111.059 135.673C111.732 137.293 113.584 138.016 114.989 136.711C117.223 134.63 118.854 131.141 117.918 128.051C117.067 125.242 113.668 124.195 111.84 126.731C110.02 129.253 109.818 133.259 110.632 136.156C111.412 138.937 113.786 141.167 116.663 139.373C119.164 137.814 120.998 134.635 122.06 131.986C123.01 129.619 124.349 125.426 122.521 123.19C120.311 120.49 116.644 123.106 115.013 125.12C113.001 127.605 112.409 130.554 112.832 133.663C112.992 134.832 114.656 135.729 115.723 135.302C119.841 133.658 123.48 128.844 121.51 124.266C119.268 119.053 112.559 121.838 110.641 125.778C108.558 130.056 111.37 135.588 116.381 135.635C121.486 135.682 124.838 129.295 126.164 125.163C126.789 123.214 124.425 121.457 122.709 122.509C120.593 123.81 119.15 125.731 118.713 128.196C118.431 129.788 119.766 131.761 121.604 131.085C123.343 130.446 124.791 129.568 126.042 128.192C124.81 127.243 123.578 126.294 122.351 125.346C121.783 126.496 121.101 127.323 120.109 128.121C121.421 128.882 122.728 129.643 124.039 130.404C124.382 129.065 124.392 127.839 123.889 126.539C123.31 125.036 121.223 124.04 119.959 125.501C118.995 126.618 117.603 127.257 116.151 126.595C114.933 126.041 112.949 126.355 112.695 127.999C112.291 130.638 112.117 133.24 112.286 135.908C112.479 138.908 117.18 138.932 116.987 135.908C116.846 133.672 116.884 131.465 117.227 129.248C116.075 129.718 114.924 130.183 113.777 130.652C117.067 132.151 120.852 131.643 123.282 128.821C121.971 128.473 120.664 128.131 119.352 127.783C119.629 128.21 119.681 128.666 119.503 129.15C118.877 131.578 121.684 132.846 123.433 131.432C124.711 130.399 125.68 129.173 126.413 127.703C127.537 125.44 124.617 122.777 122.723 124.857C122.027 125.623 121.341 126.182 120.358 126.543C121.322 127.506 122.286 128.469 123.249 129.431C123.48 128.121 123.94 127.257 125.083 126.553C123.931 125.67 122.779 124.787 121.632 123.899C120.998 125.886 120.038 127.727 118.652 129.295C117.57 130.521 115.173 131.981 114.604 129.347C114.308 127.98 116.767 124.857 117.302 126.764C117.744 128.323 115.718 130.263 114.477 130.756C115.441 131.301 116.405 131.85 117.368 132.395C117.227 131.371 117.429 130.324 117.843 129.389C118.233 128.511 119.112 127.976 119.512 127.205C120.212 126.797 119.926 126.327 118.656 125.787C118.642 126.027 118.628 126.261 118.619 126.501C118.464 126.942 118.487 127.525 118.388 127.99C118.158 129.07 117.805 130.131 117.326 131.122C116.908 131.996 116.4 132.832 115.807 133.602C115.455 134.062 114.891 134.499 114.59 134.978C114.416 135.142 114.242 135.302 114.068 135.466C114.51 135.504 114.952 135.541 115.398 135.574C115.53 135.377 114.891 133.029 114.905 132.573C114.938 131.648 115.116 129.896 115.892 129.253C115.337 129.483 114.783 129.713 114.228 129.939C112.968 130.094 113.57 130.263 113.118 131.423C112.818 132.198 112.263 132.799 111.666 133.357C112.977 133.705 114.284 134.048 115.596 134.395C114.637 132.071 115.112 129.873 117.053 128.239C115.742 127.891 114.435 127.548 113.123 127.201C113.739 129.497 113.194 131.512 111.765 133.362C113.118 134.151 114.472 134.94 115.822 135.734C116.39 134.536 117.006 133.376 117.744 132.277C118.073 131.789 118.421 131.305 118.793 130.845C119.042 130.535 119.3 130.239 119.573 129.948C120.01 129.643 119.907 129.488 119.268 129.488C118.906 129.018 118.548 128.553 118.186 128.084C118.92 130.014 117.754 133.325 117.223 135.255C116.781 136.861 118.388 138.791 120.114 138.143C123.771 136.767 127.156 134.503 128.811 130.836C130.249 127.652 129.981 123.711 127.856 120.894C123.4 114.981 112.108 116.991 109.611 123.768C108.572 126.647 113.114 127.872 114.148 125.055Z" fill="#FFCA9A"/>
<path d="M110.844 138.274C109.165 141.346 108.38 144.671 108.648 148.169C108.742 149.404 109.649 150.555 110.999 150.517C117.5 150.33 124.002 150.142 130.508 149.954C133.526 149.865 133.541 145.168 130.508 145.258C124.007 145.446 117.505 145.633 110.999 145.821C111.784 146.606 112.564 147.385 113.349 148.169C113.147 145.478 113.603 143.027 114.905 140.646C116.353 137.988 112.296 135.616 110.844 138.274Z" fill="#FFCA9A"/>
<path d="M126.405 126.125C130.937 131.596 133.377 138.444 133.48 145.525C134.66 144.849 135.84 144.173 137.015 143.497C136.386 143.22 136.277 141.501 136.08 140.848C135.713 139.66 135.309 138.481 134.862 137.321C133.988 135.067 132.977 132.879 131.84 130.746C130.989 129.15 128.666 129.295 127.782 130.746C125.681 134.193 124.642 137.993 124.708 142.027C124.75 144.647 128.629 145.253 129.324 142.651C129.997 140.144 130.232 137.631 129.959 135.048C129.776 133.273 127.373 131.639 125.944 133.386C123.547 136.326 121.351 139.397 119.386 142.647C120.848 143.041 122.306 143.436 123.768 143.83C123.735 142.98 123.702 142.13 123.669 141.28C123.608 139.726 122.216 138.65 120.693 139.016C118.192 139.618 116.185 141.158 114.948 143.417C113.641 145.807 116.65 148.014 118.639 146.263C120.641 144.502 122.465 142.59 124.134 140.51C125.846 138.378 123.777 135.753 121.285 136.823C118.399 138.063 115.884 139.899 113.792 142.243C112.358 143.849 113.712 147.024 116.077 146.169C119.179 145.046 122.343 144.135 125.587 143.506C126.24 143.379 127.087 143.389 127.703 143.13C128.417 143.309 128.671 143.13 128.474 142.595C128.511 142.05 128.412 142.031 128.187 142.525C127.66 142.398 126.325 142.839 125.742 142.9C124.99 142.98 124.261 143.083 123.519 143.234C123.937 144.741 124.351 146.253 124.769 147.761C126.461 147.395 128.615 146.864 129.893 148.324C130.053 147.094 130.208 145.864 130.368 144.638C129.978 145.061 129.503 145.201 128.944 145.065C128.944 146.629 128.944 148.198 128.944 149.761C130.222 149.823 131.459 149.776 132.728 149.625C134.477 149.414 136.169 147.047 134.392 145.615C133.786 145.126 133.184 144.643 132.578 144.154C130.241 142.276 126.894 145.582 129.254 147.474C129.86 147.963 130.462 148.447 131.069 148.935C131.623 147.597 132.178 146.263 132.733 144.924C131.463 145.075 130.222 145.122 128.948 145.061C125.921 144.92 125.935 149.606 128.948 149.757C130.349 149.827 131.586 149.494 132.747 148.686C134.044 147.784 134.275 146.202 133.222 144.999C130.744 142.172 126.87 142.506 123.523 143.229C120.562 143.872 121.821 148.371 124.774 147.756C127.453 147.197 130.232 147.629 132.07 145.178C133.358 143.464 133.598 140.871 131.854 139.35C129.903 137.645 127.026 138.462 124.76 138.885C121.375 139.519 118.065 140.458 114.831 141.628C115.592 142.938 116.354 144.243 117.116 145.554C118.973 143.473 121.093 141.97 123.655 140.872C122.705 139.641 121.756 138.411 120.806 137.185C119.137 139.265 117.313 141.177 115.31 142.938C116.542 143.886 117.774 144.835 119.001 145.784C119.682 144.539 120.547 143.877 121.934 143.544C120.942 142.788 119.95 142.036 118.958 141.28C118.991 142.13 119.024 142.98 119.057 143.83C119.146 146.136 122.207 147.052 123.439 145.014C125.192 142.111 127.12 139.336 129.263 136.701C127.923 136.147 126.588 135.593 125.249 135.039C125.479 137.241 125.352 139.251 124.778 141.393C126.316 141.599 127.858 141.811 129.395 142.017C129.343 138.777 130.138 135.87 131.83 133.104C130.476 133.104 129.122 133.104 127.773 133.104C129.244 135.861 130.476 138.707 131.421 141.684C132.084 143.783 132.361 146.535 134.637 147.535C136.193 148.221 138.2 147.446 138.172 145.507C138.05 137.115 135.064 129.239 129.719 122.786C127.797 120.471 124.487 123.81 126.405 126.125Z" fill="#FFCA9A"/>
<path d="M112.645 119.292C116.128 118.747 119.706 118.865 123.157 119.551C123.49 117.09 123.824 114.629 124.158 112.173C119.537 112.276 114.958 112.718 110.388 113.398C106.171 114.028 107.21 120.898 111.39 120.776C114.314 120.692 117.238 120.635 120.162 120.617C121.549 120.607 122.931 120.607 124.318 120.612C125.502 120.617 127.073 120.372 128.14 120.767C127.585 120.443 127.035 120.123 126.48 119.799C126.588 119.936 126.696 120.077 126.805 120.213C127.693 118.076 128.577 115.939 129.465 113.798C128.826 113.868 128.473 113.967 127.999 113.516C127.444 115.61 126.894 117.7 126.339 119.795C126.508 119.743 126.682 119.687 126.852 119.635C126.184 119.635 125.516 119.635 124.854 119.635C124.492 119.574 124.75 119.527 124.976 120.077C125.187 120.588 125.488 121.077 125.728 121.57C126.32 122.786 126.87 124.012 127.364 125.275C128.328 127.75 129.118 130.277 129.776 132.846C130.871 137.124 136.87 135.936 137.161 131.845C137.453 127.774 136.921 123.707 135.61 119.842C134.063 115.286 126.795 117.24 128.356 121.838C129.48 125.144 129.889 128.361 129.639 131.845C132.103 131.512 134.566 131.178 137.025 130.845C135.972 126.736 134.538 122.758 132.761 118.907C131.2 115.526 128.859 111.13 124.341 112.544C121.732 113.361 120.547 116.817 122.682 118.823C124.539 120.57 126.885 121.589 129.47 121.307C132.883 120.936 134.209 117.545 132.131 114.892C130.067 112.262 125.408 113.084 122.48 113.089C118.784 113.089 115.094 113.15 111.399 113.258C111.733 115.718 112.067 118.179 112.4 120.635C116.302 120.053 120.232 119.767 124.172 119.677C128.253 119.588 129.475 113.154 125.173 112.3C120.303 111.327 115.564 111.276 110.661 112.041C108.654 112.356 107.539 114.864 108.033 116.662C108.611 118.809 110.633 119.607 112.645 119.292Z" fill="#FFE033"/>
<path d="M127.617 108.613C121.919 108.946 116.212 108.74 110.575 107.833C109.325 107.631 107.797 107.707 106.918 108.801C104.596 111.67 104.243 115.282 106.208 118.494C108.009 121.434 111.365 122.72 114.637 123.101C117.59 123.444 120.763 123.228 123.551 122.138C125.154 121.514 126.649 120.649 127.861 119.405C128.379 118.874 128.83 118.245 129.262 117.639C129.502 117.282 129.742 116.925 129.986 116.568C130.052 116.517 130.038 116.583 129.949 116.766C129.314 116.597 128.684 116.423 128.05 116.254C128.129 116.334 128.205 116.418 128.285 116.498C127.96 115.944 127.641 115.394 127.316 114.84C127.608 115.61 127.194 116.15 126.005 116.418C124.204 116.827 122.103 115.93 120.429 115.399C115.803 113.939 113.824 121.19 118.431 122.645C123.156 124.139 128.614 124.979 132.497 121.138C135.952 117.719 136.154 110.473 130.447 109.317C128.021 108.824 125.685 110.045 124.176 111.886C123.029 113.286 122.418 114.591 120.631 115.221C118.953 115.808 116.889 115.906 115.14 115.629C114.454 115.521 113.471 115.366 112.931 114.887C112.517 114.521 112.555 113.704 112.23 114.103C111.013 114.427 109.79 114.746 108.573 115.07C114.891 116.089 121.224 116.493 127.617 116.118C132.426 115.845 132.459 108.331 127.617 108.613Z" fill="#FFE033"/>
<path d="M108.583 134.339C108.498 134.405 108.418 134.466 108.334 134.532C108.249 134.588 108.169 134.654 108.089 134.719C108.084 134.724 108.075 134.733 108.07 134.738C107.948 134.898 107.826 135.053 107.704 135.212C107.699 135.217 107.699 135.222 107.694 135.227C107.69 135.236 107.685 135.241 107.68 135.25C107.652 135.306 107.455 135.762 107.44 135.818C107.412 135.922 107.398 136.133 107.393 136.152C107.375 136.283 107.346 136.387 107.351 136.509C107.351 136.57 107.422 137.091 107.436 137.147C107.436 137.152 107.44 137.161 107.44 137.166C107.497 137.377 107.591 137.579 107.694 137.767C107.704 137.786 107.713 137.8 107.727 137.814C107.849 137.974 107.972 138.129 108.094 138.289C108.099 138.293 108.103 138.298 108.103 138.303C108.108 138.312 108.117 138.317 108.122 138.326C108.202 138.401 108.338 138.5 108.395 138.542C108.446 138.58 108.578 138.702 108.677 138.753C108.686 138.758 108.696 138.763 108.7 138.763C108.888 138.843 109.076 138.922 109.26 138.998C109.264 138.998 109.269 139.002 109.274 139.002C109.283 139.007 109.293 139.007 109.302 139.007C109.373 139.026 109.862 139.092 109.937 139.092C109.946 139.092 109.956 139.092 109.96 139.092C109.965 139.092 109.97 139.092 109.974 139.092C110.181 139.063 110.393 139.035 110.6 139.007C110.811 138.96 110.999 138.876 111.201 138.758C111.305 138.702 111.361 138.641 111.474 138.551C111.845 138.265 111.737 138.359 112.109 137.856C112.283 137.589 112.372 137.298 112.386 136.983C112.457 136.673 112.442 136.358 112.344 136.048C112.273 135.743 112.132 135.475 111.925 135.25C111.761 134.996 111.54 134.795 111.267 134.644C111.079 134.564 110.891 134.485 110.708 134.409C110.289 134.297 109.876 134.297 109.457 134.409C109.269 134.489 109.081 134.569 108.898 134.644C108.545 134.851 108.263 135.133 108.056 135.485C108.052 135.49 108.052 135.49 108.047 135.494C108.169 135.335 108.291 135.18 108.414 135.02C108.404 135.029 108.399 135.039 108.39 135.043C108.55 134.921 108.705 134.799 108.865 134.677C108.855 134.686 108.841 134.691 108.827 134.701C109.015 134.621 109.203 134.541 109.387 134.466C109.373 134.47 109.363 134.475 109.349 134.475C109.556 134.447 109.767 134.419 109.974 134.391C109.96 134.391 109.946 134.391 109.932 134.391C110.139 134.419 110.35 134.447 110.557 134.475C110.538 134.47 110.524 134.466 110.506 134.461C110.694 134.541 110.882 134.621 111.065 134.696C111.041 134.686 111.018 134.672 110.994 134.658C111.154 134.78 111.309 134.903 111.469 135.025C111.446 135.006 111.422 134.982 111.403 134.959C111.526 135.119 111.648 135.274 111.77 135.433C111.756 135.41 111.742 135.391 111.728 135.363C111.808 135.551 111.888 135.738 111.963 135.922C111.958 135.903 111.954 135.889 111.949 135.87C111.977 136.077 112.005 136.288 112.033 136.495C112.033 136.476 112.033 136.462 112.033 136.443C112.005 136.65 111.977 136.861 111.949 137.067C111.949 137.058 111.954 137.049 111.958 137.039C111.878 137.227 111.798 137.415 111.723 137.598C111.728 137.584 111.737 137.575 111.742 137.561C111.62 137.72 111.497 137.875 111.375 138.035C111.385 138.026 111.389 138.016 111.399 138.011C111.239 138.134 111.084 138.256 110.924 138.378C110.929 138.373 110.929 138.373 110.933 138.368C111.206 138.223 111.427 138.021 111.592 137.763C111.798 137.537 111.939 137.269 112.01 136.964C112.109 136.654 112.123 136.34 112.052 136.03C112.038 135.715 111.944 135.424 111.775 135.156C111.653 134.996 111.53 134.841 111.408 134.682C111.117 134.391 110.769 134.189 110.369 134.076C110.162 134.048 109.951 134.02 109.744 133.991C109.344 134.02 108.949 134.128 108.583 134.339Z" fill="white"/>
<path d="M153.393 114.953C150.982 116.127 149.35 118.245 148.415 120.706C147.62 122.8 149.637 124.792 151.588 124.867C154.62 124.984 157.671 123.242 159.039 120.527C159.815 118.992 159.495 116.893 157.859 116.028C156.364 115.239 154.183 115.568 153.356 117.207C153.276 117.367 153.186 117.527 153.097 117.682C152.919 117.996 152.919 117.832 153.125 117.658C152.994 117.771 152.867 117.912 152.74 118.038C153.05 117.733 152.923 117.907 152.641 118.076C152.575 118.118 152.058 118.358 152.43 118.207C152.806 118.057 152.26 118.245 152.185 118.264C152.077 118.292 151.55 118.33 151.959 118.325C152.453 118.316 151.598 118.292 151.588 118.292C152.646 119.677 153.704 121.067 154.761 122.453C154.489 123.176 154.964 122.124 155.029 121.993C155.241 121.687 155.231 121.683 154.996 121.979C155.114 121.833 155.236 121.697 155.363 121.561C155.49 121.429 156.355 120.79 155.749 121.176C156.064 120.974 156.374 120.79 156.712 120.626C158.264 119.87 158.804 117.541 157.892 116.127C156.872 114.544 155.053 114.15 153.393 114.953Z" fill="#61252F"/>
<path d="M152.933 114.803C148.867 121.18 150.188 132.686 157.86 135.762C161.997 137.42 165.659 135.447 169.006 133.066C172.57 130.53 174.826 127.468 175.381 123.059C176.35 115.31 171.963 107.021 163.61 106.223C155.364 105.434 149.981 114.032 152.534 121.452C153.906 125.449 157.738 130.563 162.397 127.558C166.313 125.031 167.065 119.09 165.546 115.052C164.728 112.872 161.856 111.637 160.046 113.6C157.78 116.057 156.628 119.18 157.117 122.523C157.611 125.886 160.479 128.426 163.84 126.374C169.068 123.185 167.775 115.216 163.111 112.295C161.645 111.374 159.43 111.943 158.608 113.474C156.445 117.508 156.699 124.486 161.508 126.665C166.966 129.14 170.972 120.015 169.707 115.784C168.922 113.15 166.073 111.882 163.52 112.727C160.991 113.568 159.947 116.033 158.974 118.278C157.954 120.635 156.887 123.336 157.225 125.956C157.625 129.056 160.098 130.784 163.135 130.178C161.894 128.567 160.657 126.956 159.416 125.35C158.81 126.327 158.199 127.304 157.592 128.276C156.393 130.197 157.912 133.559 160.432 133.221C163.718 132.78 166.543 131.648 169.03 129.403C170.125 128.417 171.117 127.182 171.851 125.9C172.213 125.271 172.509 124.599 172.772 123.923C172.937 123.5 174.013 121.283 172.979 122.556C172.203 122.875 171.428 123.199 170.652 123.519C170.299 123.43 169.947 123.34 169.594 123.251C169.049 122.307 168.508 121.359 167.963 120.415C167.958 120.509 167.958 120.602 167.953 120.701C167.822 124.932 174.403 124.928 174.535 120.701C174.601 118.672 173.012 117.015 170.99 116.93C168.842 116.841 167.606 118.423 167.018 120.274C166.031 123.387 163.943 126.186 160.432 126.656C161.377 128.304 162.326 129.953 163.271 131.601C163.878 130.624 164.489 129.647 165.095 128.675C166.712 126.078 164.052 123.317 161.377 123.848C163.083 125.909 163.868 126.219 163.741 124.782C163.788 124.435 163.859 124.092 163.953 123.754C164.136 123.012 164.385 122.288 164.672 121.575C164.964 120.851 165.551 120.044 165.702 119.288C165.796 119.114 165.89 118.94 165.984 118.771C164.348 116.944 163.459 116.634 163.313 117.841C163.069 118.189 162.519 119.804 162.397 120.231C161.424 121.481 162.133 121.701 164.531 120.884C164.442 120.748 164.352 120.612 164.263 120.476C164.056 119.025 163.469 118.311 164.277 116.799C162.777 117.193 161.278 117.583 159.773 117.977C160.855 118.654 160.432 119.485 160.512 120.48C160.422 120.631 160.333 120.781 160.244 120.931C161.4 121.335 162.557 121.744 163.713 122.148C163.788 121.993 163.534 121.204 163.534 120.955C163.548 119.907 163.981 119.006 164.677 118.25C162.843 117.766 161.01 117.282 159.176 116.799C159.642 118.038 159.882 119.208 159.515 120.513C159.463 120.706 158.819 121.828 158.88 121.941C160.164 122.335 160.549 122.274 160.041 121.758C159.816 121.49 159.623 121.208 159.454 120.898C158.358 119.071 157.992 116.77 159.068 114.85C161.692 110.177 167.385 113.924 168.489 117.7C169.166 120.015 169.265 123.016 167.953 125.139C166.835 126.952 163.981 129.004 161.96 129.666C159.388 130.512 157.935 127.614 157.536 125.538C157.056 123.063 157.216 120.269 158.589 118.118C160.897 114.54 155.204 111.238 152.933 114.803Z" fill="#61252F"/>
<path d="M168.423 123.617C168.428 126.322 168.658 128.999 169.077 131.676C169.472 134.184 169.914 137.185 171.042 139.481C171.084 139.566 171.202 140.327 171.272 140.355C173.153 139.073 173.51 138.509 172.339 138.664C172.034 138.678 171.733 138.688 171.427 138.692C170.059 138.735 168.691 138.753 167.323 138.753C164.282 138.753 161.24 138.645 158.208 138.462C159.303 139.556 160.403 140.655 161.499 141.75C161.856 138.946 161.973 136.152 161.846 133.329C160.46 134.386 159.068 135.443 157.681 136.499C158.932 136.743 160.182 136.992 161.433 137.237C161.832 137.316 162.716 137.669 163.097 137.565C163.896 137.838 163.84 137.438 162.932 136.363C162.824 135.02 162.458 134.724 161.837 135.48C159.03 137.687 162.161 141.571 165.038 140.975C165.762 140.824 166.383 140.81 167.121 140.834C166.345 138.965 165.57 137.091 164.794 135.222C165.424 135.067 166.059 134.907 166.689 134.752C166.397 136.903 166.106 139.059 165.814 141.21C172.024 141.167 175.376 135.104 172.767 129.68C171.808 127.689 169.039 127.684 167.601 129.013C166.501 130.033 166.026 131.263 166.002 132.756C165.946 136.988 172.527 136.992 172.584 132.756C172.471 133.057 172.363 133.362 172.25 133.663C170.529 133.442 168.804 133.221 167.083 132.996C167.568 134.001 166.764 134.625 165.814 134.63C162.218 134.654 161.198 140.341 164.94 141.087C166.759 141.449 168.085 141.153 169.448 139.866C171.592 137.842 169.881 134.339 167.121 134.254C165.819 134.212 164.559 134.367 163.285 134.63C164.352 136.462 165.419 138.293 166.486 140.125C168.682 138.397 169.984 135.236 167.948 132.855C166.077 130.671 162.063 130.671 159.43 130.155C157.441 129.765 155.161 131.052 155.265 133.325C155.392 136.147 155.274 138.941 154.917 141.745C154.682 143.581 156.619 144.934 158.208 145.032C161.851 145.253 165.499 145.361 169.147 145.309C172.062 145.272 175.856 145.69 177.337 142.553C178.695 139.674 176.871 136.48 176.175 133.663C175.357 130.352 175.01 127.018 175.005 123.613C174.995 119.386 168.414 119.377 168.423 123.617Z" fill="#61252F"/>
<path d="M156.487 108.284C157.324 108.045 157.945 107.998 158.814 108.054C158.203 106.584 157.597 105.114 156.986 103.644C156.36 104.152 155.735 104.659 155.11 105.166C152.849 107.002 155.834 110.891 158.245 109.224C160.375 107.749 162.871 107.387 165.227 108.604C165.889 107.03 166.557 105.457 167.22 103.884C164.738 103.433 162.608 103.71 160.319 104.772C157.286 106.18 159.928 110.571 162.928 109.233C165.781 107.96 168.574 109.496 170.045 112.013C171.728 114.892 171.62 118.423 171.484 121.64C171.343 124.965 176.514 124.956 176.655 121.64C176.871 116.573 176.453 111.248 172.965 107.261C169.693 103.522 164.742 102.799 160.323 104.767C161.193 106.256 162.063 107.74 162.932 109.228C163.873 108.792 164.827 108.674 165.847 108.862C168.541 109.35 170.624 105.575 167.84 104.142C163.924 102.123 159.303 102.226 155.636 104.762C156.68 106.115 157.724 107.467 158.772 108.82C159.397 108.312 160.022 107.805 160.648 107.298C162.538 105.767 160.831 103.02 158.819 102.888C157.545 102.804 156.346 102.949 155.119 103.302C151.918 104.213 153.276 109.2 156.487 108.284Z" fill="#2B252F"/>
<path d="M158.414 106.204C158.147 105.974 158.198 105.823 158.57 105.758C160.314 104.386 158.87 101.193 156.741 101.348C154.23 101.536 152.327 102.893 151.678 105.387C151.283 106.904 152.453 108.787 154.169 108.655C156.755 108.458 159.618 105.936 157.709 103.259C156.219 101.169 152.703 100.775 151.085 102.978C149.407 105.265 151.687 108.12 154.216 108.101C157.404 108.078 158.626 104.541 157.451 101.977C156.402 99.6855 153.276 98.2297 151.462 100.676C149.699 103.053 152.03 105.791 154.602 105.847C155.834 105.875 157.103 104.753 158.128 104.814C158.621 104.842 159.345 105.668 159.909 105.805C160.431 105.931 161.132 105.931 161.639 105.772C164.117 104.992 164.944 101.404 162.443 100.089C160.572 99.1078 158.776 100.371 158.551 102.32C158.241 105.03 161.47 106.655 163.727 105.589C166.717 104.18 166.002 100.474 164.037 98.5349C162.758 97.2763 160.944 97.7272 159.975 99.0562C158.132 101.587 160.271 104.861 162.899 105.692C165.979 106.669 169.622 104.048 168.292 100.662C167.22 97.9338 163.073 97.7929 161.922 100.521C160.605 103.644 163.901 106.702 166.853 106.528C168.658 106.42 170.271 104.363 169.086 102.639C167.328 100.089 164.897 97.7553 161.884 96.7597C159.557 95.9895 156.247 96.586 155.693 99.3943C155.147 102.156 157.658 104.128 160.248 103.94C161.677 103.837 162.528 102.992 163.694 102.329C165.32 101.409 166.416 103.034 167.464 104.241C167.638 102.888 167.812 101.536 167.986 100.183C164.648 102.123 164.864 107.495 169.199 107.871C173.04 108.204 174.558 102.569 170.995 101.038C169.406 100.352 166.895 101.094 167.102 103.269C167.408 106.425 170.412 109.059 173.656 107.749C175.315 107.077 175.945 105.603 175.202 103.954C174.22 101.775 171.216 101.094 169.486 102.884C168.009 104.415 168.198 107.134 170.031 108.298C171.954 109.524 174.643 108.411 175.339 106.317C176.114 103.978 174.314 101.822 172.269 101.015C170.257 100.216 167.469 99.4554 166.04 101.663C164.784 103.597 166.082 105.931 168.019 106.735C172.805 108.721 177.468 102.057 172.546 99.2018C171.178 98.4081 169.091 99.0891 168.748 100.747C168.437 102.236 168.592 103.438 169.514 104.701C169.918 105.255 170.398 105.697 170.938 106.119C171.319 106.415 172.203 107.434 172.334 106.847C172.015 108.275 172.762 109.552 174.14 110.027C175.964 110.651 177.299 109.876 178.38 108.435C179.193 107.354 178.582 105.49 177.454 104.898C174.328 103.269 170.097 106.298 171.911 109.839C173.444 112.83 178.399 111.99 178.958 108.74C179.259 107.002 177.807 104.804 175.776 105.56C172.983 106.603 171.479 110.083 172.316 112.976C173.214 116.094 177.59 117.01 179.212 113.971C180.552 111.468 177.219 108.613 175.15 110.839C172.979 113.178 171.836 116.155 174.267 118.79C174.13 117.747 173.999 116.705 173.862 115.657C172.744 117.564 172.179 119.532 171.977 121.72C171.897 122.584 172.523 123.547 173.256 123.951C176.124 125.529 178.169 122.561 179.659 120.494C181.412 118.062 182.696 115.164 182.437 112.112C181.911 105.927 175.39 100.498 170.534 97.3655C170.097 98.9717 169.664 100.573 169.227 102.179C172.842 101.94 172.993 106.72 174.821 108.989C176.114 110.59 176.269 111.506 176.298 113.596C176.326 115.592 176.349 117.588 176.373 119.583C176.387 120.706 177.163 121.791 178.272 122.072C177.981 121.758 177.689 121.443 177.398 121.128C177.792 120.156 178.192 119.184 178.587 118.212C176.547 119.292 174.737 120.668 173.143 122.335C170.844 124.74 174.492 128.398 176.801 125.989C178.122 124.608 179.513 123.566 181.201 122.674C182.15 122.171 182.752 120.795 182.39 119.757C181.901 118.353 181.13 117.475 179.649 117.094C180.284 117.926 180.914 118.757 181.549 119.583C181.516 116.85 181.643 114.056 181.408 111.332C181.182 108.679 179.87 107.397 178.479 105.312C177.275 103.504 177.13 101.273 175.639 99.5869C174.018 97.7506 171.658 96.8537 169.227 97.0133C166.67 97.1824 165.711 100.399 167.92 101.827C171.07 103.86 174.741 106.96 176.556 110.322C177.459 111.999 177.492 113.605 176.744 115.338C176.354 116.24 175.776 117.104 175.188 117.888C174.864 118.311 174.525 118.724 174.168 119.123C173.505 119.762 173.496 119.846 174.14 119.381C174.803 119.466 175.47 119.555 176.133 119.64C176.044 119.588 175.95 119.541 175.86 119.49C176.288 120.232 176.716 120.978 177.139 121.72C177.257 120.448 177.68 119.358 178.319 118.264C178.921 117.24 178.695 115.981 177.915 115.131C178.234 115.479 178.352 114.967 178.799 114.483C177.445 113.441 176.091 112.398 174.737 111.351C176.457 112.037 177.36 111.792 177.449 110.614C177.694 110.121 177.59 110.092 177.144 110.529C176.081 109.468 175.024 108.411 173.961 107.35C174.253 108.017 174.549 108.683 174.84 109.346C174.53 108.167 174.22 106.988 173.914 105.809C173.811 105.95 173.703 106.086 173.599 106.227C174.116 105.833 174.629 105.434 175.146 105.039C175.268 105.034 175.39 105.03 175.512 105.025C176.114 106.086 176.716 107.143 177.318 108.204C177.647 106.725 177.478 105.509 176.575 104.25C176.175 103.691 175.696 103.245 175.16 102.827C174.798 102.545 173.862 101.484 173.735 102.109C172.471 102.625 171.202 103.137 169.937 103.654C170.214 103.649 170.492 103.649 170.764 103.644C170.369 104.161 169.97 104.673 169.575 105.189C168.978 105.349 168.945 105.462 169.476 105.528C170.59 105.969 171.437 105.316 172.024 103.579C172.541 103.973 173.054 104.372 173.571 104.767C172.626 105.363 171.686 105.964 170.741 106.561C171.258 105.297 171.77 104.029 172.287 102.766C171.907 102.855 171.902 103.025 172.278 103.269C170.981 104.011 169.683 104.757 168.386 105.499C169.124 105.213 169.857 104.931 170.595 104.645C172.114 103.762 172.193 101.827 171.117 100.587C168.973 98.1169 165.983 95.8252 162.547 97.0885C161.071 97.6285 157.742 99.7418 160.281 101.677C161.884 102.898 163.398 103.475 164.62 105.241C165.363 103.945 166.11 102.649 166.853 101.353C166.858 101.404 166.862 101.456 166.872 101.508C166.618 102.118 166.369 102.724 166.115 103.334C164.69 100.282 164.131 99.7231 164.437 101.653C163.083 101.827 161.729 102.001 160.375 102.174C161.489 102.217 162.603 102.264 163.713 102.306C162.415 103.048 161.118 103.795 159.82 104.537C159.905 104.579 159.985 104.626 160.069 104.668C159.641 103.926 159.214 103.179 158.791 102.437C158.899 102.104 159.007 101.771 159.11 101.442C159.721 101.188 160.328 100.939 160.939 100.686C161.893 100.601 160.789 100.16 160.356 99.9297C159.679 99.5681 158.941 99.4319 158.189 99.4507C157.517 99.4695 156.92 99.6479 156.304 99.9062C155.998 100.028 155.702 100.169 155.41 100.324C154.569 100.559 154.649 100.869 155.65 101.249C155.735 101.911 155.824 102.578 155.909 103.241C155.801 103.438 155.688 103.635 155.58 103.837C154.969 104.091 154.362 104.339 153.751 104.593C154.155 104.1 154.564 103.602 154.969 103.109C155.222 103.72 155.472 104.325 155.725 104.936C155.711 104.8 155.702 104.668 155.688 104.532C155.434 105.143 155.185 105.748 154.931 106.359C154.456 106.34 153.981 106.321 153.507 106.302C153.507 105.434 153.507 104.565 153.507 103.696C153.723 103.626 153.939 103.555 154.16 103.485C154.992 104.574 155.824 105.664 156.652 106.753C156.68 106.673 156.703 106.589 156.731 106.509C156.12 105.039 155.514 103.569 154.903 102.099C153.267 103.381 152.679 105.64 153.417 107.57C154.602 110.656 159.604 109.317 158.414 106.204Z" fill="#2B252F"/>
<path d="M174.521 120.48C175.254 120.161 175.894 119.452 176.298 118.78C176.406 118.602 176.5 118.414 176.585 118.226C176.622 118.151 176.66 118.081 176.697 118.005C176.284 118.658 175.682 119.01 174.902 119.062C174.347 118.912 173.792 118.762 173.242 118.611C173.11 118.517 172.984 118.419 172.852 118.325C172.57 117.841 172.288 117.357 172.006 116.874C172.025 116.954 172.043 117.033 172.062 117.118C172.062 116.536 172.062 115.953 172.062 115.371C171.996 115.775 171.996 115.493 172.133 115.324C171.601 115.986 172.466 115.075 172.104 115.413C171.977 115.531 171.846 115.662 171.728 115.789C171.442 116.103 172.307 115.427 171.639 115.826C171.338 116.01 171.432 115.939 171.7 115.841C171.531 115.902 171.362 115.944 171.192 116C170.624 116.188 171.489 116.057 171.145 116.014C170.929 115.991 170.699 116.01 170.478 115.991C168.757 115.841 167.112 117.611 167.187 119.278C167.272 121.185 168.635 122.406 170.478 122.566C173.679 122.843 177.398 120.673 178.315 117.489C179.071 114.859 177.121 112.145 174.276 112.53C173.27 112.666 172.354 113.103 171.648 113.84C171.338 114.164 171.108 114.516 170.896 114.901C170.45 115.718 170.845 114.948 171.192 114.793C169.608 115.484 169.129 117.921 170.012 119.292C171.08 120.941 172.828 121.218 174.521 120.48Z" fill="#61252F"/>
<path d="M156.647 127.755C156.736 127.271 156.417 128.102 156.595 127.844C156.52 127.938 156.449 128.037 156.374 128.131C156.525 127.985 156.454 128.037 156.153 128.286C156.576 128.126 155.956 128.29 155.975 128.337C156.031 128.318 156.092 128.304 156.153 128.29C155.74 128.332 155.641 128.351 155.862 128.347C155.735 128.328 155.603 128.309 155.476 128.29C155.683 128.347 155.599 128.304 155.222 128.163C155.533 128.337 154.846 127.811 155.077 128.046C154.846 127.722 154.785 127.652 154.889 127.83C154.743 127.454 154.701 127.365 154.762 127.567C154.743 127.445 154.696 126.966 154.719 127.351C154.743 127.703 154.804 126.787 154.738 127.135C154.668 127.337 154.705 127.248 154.851 126.872C154.771 126.999 154.795 126.975 154.922 126.802C155.058 126.637 155.077 126.609 154.973 126.717C155.298 126.487 155.368 126.426 155.19 126.539C155.349 126.431 155.519 126.379 155.707 126.374C155.923 126.355 155.956 126.351 155.796 126.355C156.196 126.426 156.29 126.435 156.073 126.388C155.928 126.337 155.951 126.351 156.144 126.421C156.332 126.506 156.36 126.51 156.224 126.435C156.515 126.675 156.581 126.722 156.426 126.576C156.633 126.872 156.694 126.947 156.605 126.811C156.576 126.769 156.553 126.726 156.534 126.684C156.67 126.895 156.732 127.13 156.722 127.379C156.717 127.313 156.717 127.248 156.727 127.182C156.816 126.078 155.693 125.022 154.611 125.069C153.389 125.125 152.59 125.998 152.496 127.182C152.355 128.966 153.995 130.502 155.707 130.573C157.517 130.643 158.838 129.154 158.95 127.436C159.063 125.684 157.676 124.209 155.951 124.12C154.466 124.04 152.848 125.111 152.571 126.623C152.468 127.191 152.482 127.736 152.783 128.253C153.041 128.689 153.544 129.107 154.047 129.225C155.081 129.464 156.431 128.915 156.647 127.755Z" fill="#83252F"/>
</g>
</g>
<defs>
<clipPath id="clip0">
<rect width="130.4" height="82.5128" fill="white" transform="translate(52.0986 68)"/>
</clipPath>
</defs>
</svg>
