<svg width="233" height="233" viewBox="0 0 233 233" fill="none" xmlns="http://www.w3.org/2000/svg">
<mask id="mask0" mask-type="alpha" maskUnits="userSpaceOnUse" x="0" y="0" width="233" height="233">
<rect width="233" height="233" fill="#C4C4C4"/>
</mask>
<g mask="url(#mask0)">
<path fill-rule="evenodd" clip-rule="evenodd" d="M214.925 122.448C214.142 140.579 206.396 157.685 195.311 172.03C184.829 185.596 170.016 194.566 154.176 201.062C138.823 207.359 122.544 210.012 106.013 208.653C88.6848 207.228 71.388 203.346 57.3225 193.098C42.5374 182.327 27.91 167.99 25.3013 149.852C22.7466 132.09 37.0843 117.101 44.0121 100.554C50.057 86.1153 52.689 70.2275 63.4062 58.8383C74.7727 46.7592 89.6893 38.6561 105.816 34.8745C122.91 30.8664 140.932 30.6467 157.378 36.8034C174.514 43.2184 189.496 54.8164 199.717 70.0273C210.067 85.4312 215.726 103.891 214.925 122.448Z" fill="#FF5A9A"/>
<g clip-path="url(#clip0)">
<path d="M92.3853 98.7712C94.3586 98.7712 94.3586 95.7181 92.3853 95.7181C90.4119 95.7181 90.4119 98.7712 92.3853 98.7712Z" fill="#24211D"/>
<path d="M99.8681 107.326C101.296 109.622 103.116 111.557 105.402 113.023C105.776 113.261 106.284 113.652 106.713 113.774C107.234 114.348 107.479 114.293 107.449 113.609C107.688 113.053 107.657 112.925 107.357 113.236C107.198 113.194 105.843 114.03 105.567 114.134C104.685 114.464 103.766 114.684 102.846 114.891C104.103 116.143 105.359 117.395 106.615 118.646C107.394 115.312 106.891 112.125 105.794 108.919C104.973 106.526 103.937 103.803 100.885 104.053C93.5681 104.657 98.4463 115.923 99.4084 119.739C100.371 123.55 106.284 121.931 105.316 118.115C104.942 116.625 104.562 115.135 104.189 113.646C103.986 112.84 103.662 109.628 103.061 109.176C101.897 109.335 100.732 109.5 99.5678 109.658C99.672 109.951 99.7823 110.244 99.8864 110.538C99.9355 111.105 100.303 111.771 100.456 112.327C100.898 113.92 101.088 115.404 100.708 117.022C100.162 119.349 102.16 121.296 104.477 120.777C108.227 119.941 113.902 117.981 113.448 113.181C113.252 111.136 111.788 109.725 110.127 108.694C108.092 107.43 106.462 106.324 105.163 104.248C103.085 100.908 97.7783 103.974 99.8681 107.326Z" fill="#FF97B0"/>
<path d="M102.914 119.953C102.933 121.773 102.951 123.592 102.963 125.406C102.969 125.772 102.969 126.132 102.976 126.499C102.62 127.409 102.767 127.757 103.423 127.549C104.054 127.5 104.005 127.488 103.276 127.512C102.694 127.525 102.111 127.525 101.523 127.5C99.654 127.445 97.7971 127.262 95.9586 126.938C95.2048 126.804 93.7524 126.786 93.1089 126.322C92.2142 125.681 92.5635 126.346 92.3306 125.137C91.6504 121.663 92.3245 117.334 92.3858 113.798C92.4287 111.472 92.2081 111.319 94.5552 110.666C96.2283 110.202 97.9013 110.208 99.6172 110.391C99.1025 108.492 98.5877 106.599 98.0729 104.7C95.5664 106.245 93.2683 108.046 91.1785 110.122C88.8743 112.412 91.2888 115.74 94.1569 115.227C97.6255 114.604 101.094 114.274 104.612 114.177C104.097 112.278 103.582 110.385 103.067 108.486C100.91 110 98.6612 111.252 96.2344 112.272C93.6544 113.359 94.6962 117.163 96.9637 117.853C97.313 117.956 97.6623 118.066 98.0055 118.17C97.552 116.467 97.1046 114.769 96.6511 113.065C94.9536 114.415 93.6728 116.027 92.7167 117.975C94.6226 118.488 96.5224 119.001 98.4283 119.513C98.1403 117.205 97.4478 115.49 95.9096 113.719C94.4204 111.997 91.2766 112.919 90.7863 115.068C89.8732 119.086 89.9161 123.012 90.9702 126.993C91.7607 129.991 95.9954 129.802 96.8779 126.993C97.8339 123.959 98.2813 120.863 98.2384 117.688C98.2016 114.787 93.9608 113.365 92.5268 116.149C89.15 122.731 96.0383 128.642 102.473 126.047C101.217 125.339 99.9604 124.624 98.7041 123.916C98.8083 123.513 98.9186 123.11 99.0228 122.713C100.524 123.324 102.026 123.928 103.521 124.539C103.362 123.714 103.276 122.884 103.264 122.047C103.067 118.579 98.3793 117.938 97.2456 121.235C96.645 122.994 96.3631 124.752 96.3141 126.609C96.2099 130.626 102.007 130.413 102.442 126.609C102.749 123.898 102.099 121.339 100.641 119.043C99.3537 117.004 96.6695 117.156 95.3519 119.043C92.9006 122.554 95.9648 125.021 97.4049 127.989C99.1208 131.524 104.403 128.434 102.694 124.905C102.608 124.722 100.745 121.974 100.641 122.121C98.8757 122.121 97.1108 122.121 95.3519 122.121C96.2957 123.611 96.5102 124.887 96.3141 126.609C98.3548 126.609 100.402 126.609 102.442 126.609C102.479 125.278 102.724 124.117 103.153 122.86C101.149 122.591 99.1392 122.316 97.1353 122.047C97.2149 123.434 97.3865 124.789 97.6133 126.163C97.9442 128.16 100.549 128.88 102.111 127.989C104.348 126.712 104.98 124.728 104.606 122.298C104.379 120.79 102.24 119.599 100.837 120.167C100.224 120.417 96.8411 121.132 97.8155 119.239C95.9096 118.726 94.0098 118.213 92.1039 117.7C92.1407 120.387 91.773 122.823 90.964 125.381C92.9312 125.381 94.9046 125.381 96.8717 125.381C96.0996 122.457 96.0199 119.648 96.6879 116.699C94.9781 117.15 93.2744 117.596 91.5646 118.048C91.9691 118.457 92.2081 118.952 92.2878 119.526C92.6187 122.182 96.4979 124.111 97.9994 121.064C98.7531 119.538 99.654 118.445 100.978 117.395C102.871 115.886 101.627 112.901 99.6234 112.29C99.2741 112.186 98.9247 112.076 98.5816 111.972C98.8267 113.835 99.0718 115.691 99.3108 117.553C101.738 116.528 103.993 115.282 106.144 113.768C108.473 112.131 107.86 107.991 104.6 108.077C100.536 108.187 96.5163 108.62 92.5145 109.341C93.5073 111.044 94.5001 112.742 95.4929 114.445C97.2333 112.717 99.0596 111.27 101.143 109.982C103.901 108.284 102.516 104.609 99.5989 104.291C95.1252 103.809 87.3728 104.859 86.3923 110.251C85.8101 113.456 86.1778 117.126 86.1717 120.368C86.1655 123.22 85.5159 127.018 87.1828 129.527C88.623 131.695 91.3379 132.251 93.7402 132.727C96.9943 133.368 100.518 133.826 103.84 133.612C110.949 133.154 109.067 125.015 109.018 119.953C109.006 116.027 102.878 116.015 102.914 119.953Z" fill="#FF97B0"/>
<path d="M99.5429 131.103C99.1445 132.629 98.9362 134.632 98.2008 136.043C98.8136 135.572 99.4203 135.108 100.033 134.638C99.4448 134.815 97.9556 134.198 97.2447 134.064C95.8843 133.808 94.5238 133.557 93.1694 133.301C90.6445 132.831 88.1196 132.354 85.5948 131.884C86.3424 132.867 87.0962 133.844 87.8439 134.827C87.85 134.559 87.7581 133.679 87.9664 133.472C87.2862 134.15 88.5854 134.394 89.0879 134.644C90.4729 135.346 91.8457 136.085 93.2552 136.745C95.5288 137.813 98.0414 138.448 100.235 136.867C103.398 134.583 100.346 129.283 97.1406 131.597C96.4419 132.098 92.3972 129.479 91.717 129.143C89.9704 128.276 88.2606 127.335 86.2321 127.72C82.788 128.373 81.7891 131.768 81.7155 134.827C81.6849 136.073 82.6777 137.532 83.9646 137.771C89.0695 138.729 94.346 140.195 99.5184 140.659C104.194 141.08 104.537 136.232 105.451 132.721C106.437 128.923 100.53 127.299 99.5429 131.103Z" fill="#FF97B0"/>
<path d="M121.268 156.901C122.365 157.316 123.542 157.878 124.676 158.183C125.699 158.867 126.036 158.922 125.681 158.336C125.497 157.829 125.442 157.981 125.509 158.8C124.97 160.68 124.878 162.683 124.302 164.582C123.72 166.487 122.96 168.307 122.016 170.059C121.256 171.464 119.92 172.905 119.718 174.541C119.234 178.504 123.229 179.084 126.208 178.712C129.431 178.309 132.44 176.892 134.861 174.736C139.66 170.468 142.681 161.505 138.979 155.68C135.449 150.123 125.76 147.534 119.761 149.549C116.746 150.563 116.979 154.342 119.761 155.435C121.403 156.083 123.021 156.772 124.621 157.524C125.319 157.853 126.557 158.171 127.103 158.739C127.85 159.508 127.617 158.8 127.654 159.807C127.703 161.169 126.594 163.19 126.189 164.472C125.632 166.243 125.074 168.008 124.51 169.778C123.989 171.421 125.129 173.021 126.649 173.534C129.75 174.584 132.575 171.567 134.463 169.461C136.32 167.385 139.169 164.509 139.323 161.584C139.463 158.849 137.171 156.406 134.346 156.87C131.043 157.414 130.461 161.358 130.001 164.075C129.437 167.415 133.623 169.461 135.603 166.426C136.301 165.351 136.773 164.277 137.153 163.062C138.33 159.3 132.416 157.695 131.245 161.438C131.08 162.146 130.767 162.781 130.308 163.349C132.177 164.13 134.04 164.918 135.909 165.7C136.044 164.887 136.197 164.081 136.399 163.282C136.473 162.958 136.565 162.647 136.663 162.329C136.988 161.499 136.755 161.645 135.976 162.763C135.192 162.659 134.401 162.555 133.617 162.457C132.63 161.999 133.697 160.534 132.373 162.341C131.858 163.043 131.325 163.746 130.767 164.411C130.375 164.881 127.728 167.464 128.285 167.647C128.996 168.899 129.713 170.151 130.424 171.403C131.319 168.575 132.226 165.748 133.108 162.915C133.715 160.961 134.389 158.903 133.586 156.889C131.913 152.694 125.191 151.051 121.391 149.549C121.391 151.509 121.391 153.475 121.391 155.435C124.326 154.446 127.201 155.197 129.977 156.388C132.937 157.664 134.628 159.142 134.352 162.622C134.132 165.406 132.931 168.191 130.865 170.108C129.205 171.647 126.055 173.393 123.695 172.636C124.406 173.344 125.123 174.059 125.834 174.767C125.785 174.559 125.742 174.346 125.693 174.138C125.589 174.92 125.485 175.707 125.387 176.489C126.576 173.992 128.132 171.732 129.18 169.137C130.283 166.396 131.025 163.569 131.429 160.644C131.723 158.501 131.938 156.302 130.443 154.538C128.77 152.559 125.227 151.888 122.917 151.014C119.203 149.622 117.61 155.521 121.268 156.901Z" fill="#FF97B0"/>
<path d="M119.478 151.802C119.16 151.912 119.172 151.912 119.509 151.802C119.865 151.723 119.865 151.723 119.509 151.796C119.871 151.814 119.877 151.802 119.515 151.753C119.65 151.778 119.785 151.808 119.92 151.851C120.128 151.918 120.097 151.9 119.828 151.796C119.993 151.875 120.153 151.973 120.3 152.077C120.042 151.882 120.036 151.9 120.293 152.138C120.097 151.875 120.097 151.894 120.287 152.193C120.784 153.048 121.893 153.811 122.935 153.707C125.582 153.432 127.378 151.161 126.636 148.493C125.95 146.014 123.413 145.165 121.084 145.244C119.429 145.299 118.02 146.606 118.02 148.297C118.02 149.909 119.423 151.405 121.084 151.35C121.292 151.338 121.501 151.338 121.709 151.338C122.095 151.356 122.126 151.356 121.813 151.344C121.102 151.051 120.722 150.483 120.667 149.635C120.729 148.951 121.035 148.407 121.593 147.998C122.107 147.858 122.622 147.717 123.137 147.583C123.07 147.589 122.996 147.595 122.929 147.607C123.811 148.114 124.694 148.615 125.576 149.122C123.701 145.892 119.65 144.896 116.377 146.539C114.901 147.278 114.478 149.354 115.281 150.715C116.163 152.205 117.995 152.547 119.478 151.802Z" fill="#FFA6B0"/>
<path d="M126.71 151.35C126.778 151.564 126.845 151.778 126.9 151.998C126.937 152.144 126.968 152.291 126.992 152.437C126.943 152.034 126.931 151.949 126.955 152.181C126.968 152.675 126.986 153.14 126.931 153.634C126.851 154.361 127.329 155.295 127.825 155.796C128.359 156.327 129.229 156.724 129.995 156.687C131.803 156.608 132.875 155.344 133.059 153.634C133.2 152.334 133.035 150.966 132.624 149.726C132.121 148.212 130.485 147.07 128.855 147.595C127.335 148.084 126.171 149.726 126.71 151.35Z" fill="#FFB4B0"/>
<path d="M132.477 153.982C132.354 153.707 132.648 154.483 132.648 154.464C132.746 154.758 132.826 155.051 132.9 155.35C133.071 156.046 133.065 156.138 133.102 156.736C133.188 158.171 134.309 159.551 135.86 159.484C137.281 159.423 138.709 158.275 138.617 156.736C138.501 154.764 138.035 153.011 137.238 151.21C136.656 149.891 134.616 149.482 133.463 150.227C132.091 151.106 131.852 152.565 132.477 153.982Z" fill="#FFB4B0"/>
<path d="M137.931 156.516C137.999 156.693 138.066 156.864 138.115 157.047C138.152 157.169 138.176 157.292 138.207 157.414C138.244 157.615 138.25 157.658 138.232 157.542C138.219 157.408 138.238 157.878 138.238 157.957C138.238 158.03 138.17 158.623 138.219 158.311C138.06 159.252 138.471 160.332 139.506 160.564C140.395 160.766 141.596 160.296 141.768 159.282C141.982 158.018 141.958 156.748 141.48 155.545C141.13 154.654 140.236 153.939 139.218 154.263C138.348 154.538 137.551 155.557 137.931 156.516Z" fill="#FFB4B0"/>
<path d="M97.5389 93.9413C97.3183 94.4481 97.0609 94.9304 96.7606 95.3884C97.0977 95.1747 97.4347 94.9671 97.7779 94.7656C98.544 95.2113 99.31 95.6571 100.076 96.1028C97.6125 94.0451 95.1182 92.8055 91.9928 94.5274C89.6334 95.8219 88.1748 98.2155 87.3965 100.695C86.5631 103.351 88.3832 106.379 91.0368 107.081C95.0815 108.15 99.3407 107.869 102.27 104.584C105.077 101.439 104.985 95.8952 101.075 93.6115C97.306 91.4195 92.4034 94.2954 88.9593 95.9502C85.7541 97.4889 82.9167 99.9679 82.1936 103.577C85.5396 103.577 88.8918 103.577 92.2379 103.577C91.5393 98.9116 85.5887 96.921 81.7339 99.0826C78.0079 101.177 76.6413 106.227 74.3432 109.573C72.0757 112.87 75.0908 117.419 78.8414 117.382C85.3987 117.321 87.2249 111.356 86.2015 105.879C85.5887 102.612 81.2192 101.11 78.5472 102.777C71.2851 107.307 73.859 116.619 76.4758 123.122C78.1734 127.335 83.3089 128.227 85.9993 124.362C87.7765 121.809 87.9848 118.787 87.9358 115.764C87.8807 112.345 87.7826 108.919 87.7213 105.5C87.7029 104.34 87.4884 103.516 87.8929 103.076C88.6467 102.258 90.3443 101.733 91.3677 101.354C92.8324 100.811 94.3951 100.401 95.9394 100.194C96.5339 100.114 97.159 100.041 97.7595 100.066C98.6114 100.108 96.8097 99.3573 98.0414 100.273C97.4164 99.6504 96.7974 99.0337 96.1723 98.4109C96.1662 98.3681 96.1539 98.3254 96.1478 98.2827C97.7166 104.773 107.767 102.026 106.192 95.5227C103.808 85.6676 88.7631 90.3875 83.0148 93.8863C78.5043 96.6279 77.2112 100.426 77.297 105.5C77.3399 107.918 77.3951 110.33 77.4502 112.748C77.487 114.604 78.0815 117.572 77.0029 119.123C80.1773 119.538 83.3518 119.947 86.5263 120.362C85.748 118.433 84.9329 116.491 84.4672 114.458C84.2649 113.572 84.363 112.607 84.1608 111.753C84.0627 111.325 84.3936 111.374 83.8053 111.74C81.2559 110.708 78.7065 109.67 76.151 108.639C76.4329 108.327 76.7148 108.016 76.9967 107.698C77.8731 107.46 78.7494 107.228 79.6258 106.99C79.3623 106.99 79.0988 106.996 78.8352 106.996C80.3367 109.597 81.832 112.204 83.3334 114.806C84.2527 113.468 85.1107 112.107 85.8706 110.672C86.1709 110.098 86.5508 109.487 86.7653 108.877C86.8756 108.639 86.9921 108.406 87.1207 108.174C87.8684 106.978 86.8817 107.045 84.1546 108.37C83.5295 107.747 82.9106 107.13 82.2855 106.508C82.2548 106.446 82.2181 106.391 82.1874 106.33C82.9474 111.405 91.2635 111.16 92.2318 106.33C92.5382 104.816 97.5941 103.412 98.9423 102.972C98.0169 102.972 97.0977 102.972 96.1723 102.972C96.4665 103.015 96.7606 103.051 97.0548 103.094C96.2887 102.648 95.5227 102.203 94.7567 101.757C94.916 101.94 95.0753 102.117 95.2285 102.3C94.7812 101.537 94.3338 100.774 93.8864 100.011C93.9355 100.255 93.9906 100.499 94.0396 100.743C94.0396 99.8214 94.0396 98.9055 94.0396 97.9835C94.2235 96.7989 96.3255 97.7331 93.7945 97.0615C95.0079 99.1925 96.2213 101.317 97.4347 103.448C97.6125 102.966 97.3673 103.1 96.7055 103.845C95.014 103.4 93.3288 102.954 91.6373 102.508C96.7974 107.204 103.575 105.274 106.535 99.1741C109.44 93.1902 100.462 87.9207 97.5389 93.9413Z" fill="#202C79"/>
<path d="M76.7027 118.231C76.0408 121.944 75.9979 127.598 79.8771 129.656C82.7084 131.158 86.1158 130.107 87.8072 127.451C89.2229 125.229 88.8184 122.371 87.4211 120.258C85.9258 117.993 82.7452 116.821 80.2939 118.396C78.0264 119.849 76.8191 123.073 78.4247 125.497C78.5228 125.632 78.6147 125.778 78.6944 125.925C79.9139 128.129 81.1886 126.151 82.5123 119.978C83.3887 120.216 84.265 120.448 85.1414 120.686C85.362 120.838 85.5826 120.991 85.8033 121.144C86.2506 121.907 86.698 122.67 87.1454 123.434C87.0105 123.085 86.9309 122.75 86.8267 122.396C86.4896 121.241 86.8206 123.47 86.7838 122.267C86.7715 121.889 86.7838 121.498 86.7654 121.119C86.7102 120.051 86.557 122.121 86.7593 120.985C87.2312 118.323 86.0361 115.264 83.119 114.598C80.5697 114.03 77.2113 115.374 76.7027 118.231Z" fill="#202C79"/>
<path d="M88.6224 115.587C88.7205 117.028 86.7043 117.608 85.6808 116.985C85.2519 116.729 84.9822 116.375 84.8596 115.923C84.9883 114.83 84.97 114.549 84.8106 115.062C86.7778 115.606 88.7511 116.143 90.7183 116.686C91.3373 113.939 89.6704 111.27 86.9494 110.513C84.2652 109.768 81.4707 111.521 80.7782 114.171C80.1408 116.589 81.0601 119.202 83.2663 120.484C85.6686 121.883 88.4754 121.309 90.5406 119.636C91.7908 118.622 91.6744 116.357 90.5406 115.319C89.2108 114.103 87.5377 114.238 86.2079 115.319C86.5143 115.093 86.5756 115.038 86.3856 115.16C86.1834 115.27 86.263 115.245 86.6246 115.087C86.5204 115.123 86.4162 115.16 86.3121 115.184C86.0792 115.239 86.1711 115.233 86.5878 115.166C86.6001 115.154 85.7728 115.325 86.3427 115.203C86.8452 115.099 86.1834 115.294 86.116 115.123C86.5143 115.306 86.5633 115.312 86.2692 115.154C86.3611 115.227 86.453 115.3 86.5511 115.373C86.0547 114.952 86.8207 115.88 86.5511 115.373C86.6798 115.612 86.7594 115.935 86.643 115.483C86.594 115.245 86.6124 115.361 86.692 115.825C86.7043 115.563 86.692 115.569 86.6553 115.85C86.3856 116.375 86.8023 115.776 86.7104 115.697C86.5204 116.1 86.4775 116.204 86.5878 115.996C86.6307 115.911 86.6798 115.838 86.7349 115.758C86.8146 115.972 85.7789 116.497 86.3182 116.241C86.165 116.314 85.3928 116.442 85.6379 116.442C86.0179 116.442 84.97 116.296 85.5215 116.46C84.7432 116.234 85.6686 116.686 85.0374 116.216C85.2212 116.412 85.2273 116.412 85.0558 116.216C84.9148 116.076 84.8229 115.905 84.7922 115.703C84.9577 116.204 84.7861 115.215 84.8168 115.056C84.4674 116.613 85.2886 118.433 86.9555 118.811C88.6715 119.202 90.1484 118.292 90.7245 116.68C91.515 114.458 89.9768 111.777 87.6787 111.276C85.068 110.702 82.3041 112.839 82.5002 115.581C82.6105 117.169 83.8301 118.714 85.5644 118.634C87.121 118.573 88.745 117.297 88.6224 115.587Z" fill="#FF97B0"/>
<path d="M109.44 122.945C108.643 121.48 107.117 120.472 105.444 120.387C103.881 120.307 102.312 121.174 101.522 122.518C100.615 124.062 100.86 126.065 102.135 127.329C103.373 128.563 105.481 128.953 106.988 127.952C108.318 127.067 109.023 125.217 108.085 123.775C107.227 122.45 105.321 121.73 103.893 122.682C103.612 122.853 103.777 122.823 104.384 122.585C104.764 122.396 105.15 122.365 105.548 122.487C105.989 122.628 106.345 122.86 106.627 123.226C106.811 123.427 106.933 123.666 107 123.934C107.007 124.337 107.007 124.74 107.013 125.143C106.909 125.626 106.522 126.023 106.124 126.279C106.516 126.029 105.701 126.426 105.542 126.45C105.101 126.517 104.739 126.426 104.353 126.218C104.555 126.34 104.543 126.316 104.316 126.151C104.096 125.968 104.077 125.955 104.255 126.12C104.163 125.998 104.077 125.876 103.985 125.754C104.047 125.845 104.102 125.937 104.151 126.035C104.911 127.439 106.982 128.001 108.343 127.128C109.777 126.206 110.255 124.453 109.44 122.945Z" fill="#FF97B0"/>
<path d="M109.581 122.035C108.202 120.521 105.959 120.429 104.207 121.278C102.754 121.986 101.504 123.739 101.725 125.406C101.817 126.108 101.933 126.676 102.38 127.256C102.748 127.726 103.355 128.263 103.974 128.349C105.481 128.563 106.94 128.587 108.398 128.08C109.906 127.555 111.07 125.968 110.537 124.325C110.053 122.841 108.386 121.626 106.768 122.194C106.578 122.261 106.382 122.322 106.186 122.371C106.088 122.395 105.99 122.42 105.886 122.432C105.647 122.475 105.751 122.463 106.198 122.395C106.229 122.481 104.397 122.286 105.598 122.463C106.345 123.446 107.099 124.423 107.847 125.406C107.779 124.881 107.779 125.601 107.743 125.766C107.841 125.32 107.375 126.487 107.602 126.096C107.258 126.682 107.197 126.651 107.418 126.377C106.952 126.712 106.823 126.816 107.032 126.682C107.081 126.651 107.13 126.621 107.185 126.596C107.013 126.67 106.842 126.743 106.67 126.81C106.744 126.786 106.817 126.761 106.891 126.743C106.695 126.767 106.499 126.792 106.302 126.816C106.376 126.81 106.456 126.81 106.529 126.81C106.333 126.786 106.131 126.755 105.935 126.731C106.131 126.786 106.082 126.761 105.775 126.645C105.481 126.505 105.426 126.487 105.604 126.59C105.15 126.206 105.028 126.126 105.236 126.34C106.315 127.525 108.49 127.512 109.569 126.34C110.746 125.088 110.733 123.305 109.581 122.035Z" fill="white"/>
<path d="M112.97 152.437C115.422 154.391 118.008 156.052 120.907 157.273C122.672 158.018 123.009 157.798 122.488 159.752C122.022 161.499 121.446 163.214 120.882 164.936C119.889 167.989 118.927 171.073 118.627 174.285C118.455 176.117 119.031 177.258 117.113 177.869C115.189 178.48 112.664 178.284 110.666 178.284C108.301 178.29 108.294 181.954 110.666 181.948C113.644 181.942 119.178 182.43 121.317 179.786C122.365 178.492 122.132 176.898 122.224 175.353C122.377 172.831 123.021 170.389 123.768 167.983C124.461 165.736 125.27 163.52 125.895 161.254C126.312 159.746 127.041 157.811 126.232 156.309C125.509 154.971 124.161 154.69 122.849 154.147C120.22 153.054 117.793 151.619 115.569 149.848C113.736 148.389 111.12 150.966 112.97 152.437Z" fill="#2DD6BC"/>
<path d="M116.23 171.549C108.165 171.714 100.26 170.499 92.6484 167.812C89.3146 166.64 85.5089 165.266 82.7389 163.019C80.1773 160.943 79.497 157.621 79.8341 154.471C81.8871 135.536 107.038 155.612 113.969 160.021C118.075 162.628 122.702 156.65 119.166 153.31C111.652 146.203 102.723 140.793 92.8752 137.563C88.4321 136.104 83.413 134.846 78.7984 136.311C74.0305 137.826 71.2728 142.118 70.5251 146.862C69.7652 151.692 70.568 157.053 73.9202 160.815C76.9844 164.252 81.8135 165.901 86.2321 164.289C90.577 162.708 93.5616 158.171 92.4094 153.536C91.3247 149.177 86.7162 145.58 82.1261 147.174C76.1019 149.268 77.254 157.444 83.0453 158.934C88.7447 160.4 92.4278 155.454 93.4635 150.544C93.966 148.175 92.771 146.081 90.4667 145.287C83.4437 142.869 77.3766 149.232 79.0496 156.107C80.355 161.45 88.6282 159.191 87.3229 153.836C87.1268 153.036 87.5803 153.323 88.1809 153.53C87.1819 151.778 86.183 150.025 85.1841 148.273C85.0738 148.786 84.8654 149.335 84.8103 149.848C84.7919 150.044 84.5958 151.088 84.6632 150.691C84.6326 150.88 84.5223 155.032 84.0565 155.631C83.1189 156.84 81.6297 156.437 80.5633 155.411C77.5237 152.492 77.9282 144.518 82.9411 144.219C88.0706 143.913 94.0947 146.85 98.55 149.103C103.9 151.814 108.741 155.24 113.093 159.355C114.827 157.121 116.561 154.88 118.289 152.645C113.509 149.604 108.76 146.514 103.943 143.535C99.9718 141.074 95.7371 138.809 91.0612 138.113C81.2129 136.635 73.0745 142.472 71.5118 152.315C70.7886 156.864 71.2728 161.804 73.8099 165.767C76.4635 169.907 80.8636 172.141 85.2454 174.04C95.0201 178.272 105.555 180.324 116.212 180.104C121.746 179.982 121.764 171.433 116.23 171.549Z" fill="#2DD6BC"/>
<path d="M79.6505 137.764C71.6836 138.21 68.2947 145.635 68.6378 152.791C68.9749 159.929 72.1187 167.159 79.0376 170.127C85.7543 173.015 92.5077 170.267 96.4115 164.369C99.6472 159.478 102.38 150.978 97.0795 146.496C94.72 144.506 90.7489 145.049 89.9093 148.383C88.9839 152.053 88.6162 155.771 88.9165 159.545C89.1371 162.317 91.4782 164.399 94.3462 163.666C96.4728 163.123 98.4767 162.073 99.9843 160.455C100.609 159.783 101.192 158.946 101.633 158.146C101.909 157.499 102.184 156.852 102.454 156.199C103.238 154.965 102.681 154.593 100.787 155.093C100.131 154.245 99.4756 153.39 98.8138 152.541C99.1202 153.695 97.0856 155.46 96.5402 156.339C95.6699 157.737 94.9897 159.288 94.8733 160.949C94.6771 163.856 95.9273 166.823 98.6115 168.203C101.523 169.699 104.85 168.643 107.02 166.408C109.63 163.715 109.201 160.235 110.439 156.986C112.069 152.7 106.18 150.233 103.269 152.828C98.7893 156.828 94.9284 161.413 91.662 166.445C89.7377 169.412 92.3484 172.575 95.3635 172.874C97.9742 173.137 100.591 173.399 103.202 173.662C105.353 173.876 107.504 174.37 109.532 173.387C113.724 171.36 112.989 164.368 113.418 160.461C110.611 160.839 107.798 161.218 104.991 161.596C105.647 163.624 106.309 165.657 106.964 167.684C107.927 170.658 111.812 171.983 114.135 169.571C116.623 166.982 118.345 164.063 119.442 160.656C116.635 160.277 113.822 159.899 111.015 159.52C111.193 162.176 111.371 164.826 111.548 167.483C111.812 171.439 117.432 173.644 119.54 169.638C121.06 166.75 122.579 163.862 124.099 160.974C121.433 160.253 118.768 159.533 116.108 158.818C116.096 160.876 116.083 162.934 116.071 164.997C116.041 170.194 122.739 170.304 124.498 166.133C124.908 165.156 125.129 164.362 125.276 163.312C126.036 157.89 119.062 155.844 117.003 161.041C116.617 162.012 115.869 163.349 115.679 164.375C115.532 164.747 115.385 165.113 115.238 165.486C117.266 164.961 117.701 164.765 116.543 164.894C114.766 164.686 112.609 165.174 110.825 165.297C107.32 165.547 104.905 169.901 107.792 172.593C110.727 175.329 114.073 176.147 117.995 175.561C120.306 175.213 121.532 172.343 120.992 170.304C120.343 167.855 117.995 166.976 115.716 167.318C114.993 167.428 114.355 167.012 113.859 166.548C112.848 168.979 111.836 171.415 110.825 173.845C113.712 173.644 117.818 174.089 120.379 172.532C123.254 170.786 124.124 166.206 125.27 163.312C122.512 162.555 119.754 161.798 116.997 161.041C116.849 162.091 116.629 162.885 116.218 163.862C119.025 164.24 121.838 164.619 124.645 164.997C124.657 162.94 124.669 160.882 124.681 158.818C124.706 154.697 118.694 152.846 116.69 156.663C115.17 159.551 113.65 162.439 112.131 165.327C114.796 166.048 117.462 166.768 120.122 167.483C119.944 164.826 119.767 162.176 119.589 159.52C119.27 154.745 112.682 153.677 111.162 158.385C110.519 160.381 109.514 162.018 108.061 163.526C110.451 164.155 112.842 164.784 115.232 165.413C114.576 163.385 113.914 161.352 113.258 159.325C111.702 154.526 105.347 155.771 104.832 160.461C104.685 161.786 104.544 163.117 104.397 164.442C104.323 165.113 104.415 166.896 104.17 167.318C105.022 166.664 105.88 166.011 106.732 165.352C105.537 165.852 102.822 165.071 101.51 164.936C99.4573 164.729 97.4043 164.527 95.3513 164.32C96.5831 166.463 97.821 168.606 99.0528 170.749C101.939 166.298 105.359 162.396 109.318 158.861C106.928 157.475 104.538 156.089 102.148 154.703C101.578 156.199 100.977 158.305 101.008 159.917C101.002 160.229 100.885 160.485 100.652 160.68C101.565 161.01 102.479 161.34 103.386 161.67C103.392 161.67 104.55 159.783 104.507 159.838C106.572 156.901 108.539 153.39 106.848 149.751C105.249 146.319 100.738 146.081 97.87 148.017C96.3931 149.012 95.5351 150.435 94.8549 152.04C94.1317 153.75 94.003 154.916 92.0358 155.417C93.8437 156.791 95.6577 158.165 97.4655 159.539C97.2204 156.486 97.4043 153.622 98.1519 150.648C95.7619 151.277 93.3718 151.906 90.9818 152.535C92.52 153.836 90.2157 158.128 89.2107 159.691C87.6112 162.17 85.2395 163.569 82.3285 162.274C79.2399 160.9 77.8242 157.591 77.334 154.434C77.0337 152.48 76.525 146.478 79.626 146.307C85.1415 146.008 85.1782 137.459 79.6505 137.764Z" fill="#2DD6BC"/>
<path d="M122.414 147.247C122.904 147.314 123.394 147.375 123.879 147.443C124.05 147.449 124.203 147.412 124.35 147.339C124.504 147.29 124.632 147.204 124.743 147.088C124.804 147.009 124.871 146.924 124.933 146.844C125.025 146.704 125.074 146.551 125.08 146.392C125.11 146.282 125.11 146.179 125.08 146.069C125.074 145.904 125.025 145.757 124.933 145.617C124.871 145.537 124.804 145.452 124.743 145.373C124.589 145.22 124.412 145.116 124.203 145.061C123.83 145.006 123.456 144.951 123.076 144.896C122.91 144.847 122.751 144.835 122.586 144.872C122.42 144.878 122.273 144.927 122.132 145.018C121.991 145.098 121.875 145.202 121.789 145.336C121.679 145.452 121.605 145.592 121.568 145.751C121.495 146.063 121.513 146.417 121.691 146.692C121.752 146.771 121.819 146.856 121.881 146.936C122.034 147.088 122.212 147.192 122.42 147.247C122.794 147.302 123.168 147.357 123.548 147.412C123.658 146.612 123.762 145.812 123.872 145.012C123.382 144.945 122.892 144.884 122.408 144.817C122.236 144.811 122.083 144.847 121.936 144.921C121.783 144.97 121.654 145.055 121.544 145.171C121.421 145.281 121.341 145.415 121.292 145.562C121.213 145.708 121.182 145.867 121.188 146.032C121.201 146.35 121.305 146.673 121.55 146.893C121.629 146.954 121.715 147.021 121.795 147.082C121.985 147.192 122.193 147.247 122.414 147.247Z" fill="#FAF7FF"/>
<path d="M133.04 152.407C132.942 152.272 132.838 152.12 132.703 152.01C132.575 151.9 132.434 151.784 132.28 151.711C132.127 151.637 131.962 151.558 131.79 151.521C131.619 151.485 131.435 151.454 131.257 151.454C131.079 151.454 130.895 151.485 130.724 151.515C130.65 151.527 130.577 151.552 130.503 151.576C130.344 151.637 130.172 151.698 130.031 151.796C129.89 151.894 129.743 151.992 129.627 152.12C129.535 152.217 129.455 152.327 129.382 152.437C129.357 152.468 129.339 152.504 129.32 152.535C129.29 152.596 129.265 152.663 129.241 152.724C129.167 152.901 129.167 152.871 129.143 153.066C129.137 153.121 129.13 153.176 129.118 153.231C129.13 153.341 129.149 153.445 129.161 153.555C129.173 153.597 129.259 153.793 129.228 153.713C129.253 153.775 129.277 153.842 129.308 153.903C129.345 153.976 129.406 154.037 129.455 154.104C129.504 154.165 129.553 154.239 129.615 154.294C129.706 154.379 129.817 154.458 129.921 154.532C129.945 154.55 129.976 154.568 130.001 154.581C130.117 154.642 130.24 154.69 130.362 154.733C130.393 154.745 130.423 154.751 130.454 154.764C130.583 154.794 130.724 154.806 130.859 154.819C130.895 154.825 130.926 154.825 130.963 154.825C131.134 154.831 131.306 154.794 131.471 154.77C131.539 154.758 131.6 154.739 131.661 154.721C131.821 154.66 131.992 154.599 132.133 154.507C132.268 154.416 132.415 154.312 132.526 154.184C132.734 153.945 132.82 153.787 132.936 153.494C132.948 153.463 132.961 153.426 132.967 153.39C132.997 153.249 133.016 153.103 133.022 152.962C133.028 152.791 132.991 152.639 132.918 152.492C132.869 152.34 132.783 152.211 132.666 152.101C132.556 151.979 132.421 151.9 132.274 151.851C132.127 151.772 131.968 151.741 131.802 151.747C131.484 151.76 131.159 151.863 130.938 152.108C130.712 152.352 130.589 152.639 130.577 152.969C130.577 152.987 130.577 153.011 130.571 153.03C130.583 152.92 130.601 152.816 130.613 152.706C130.607 152.755 130.595 152.804 130.571 152.853C130.613 152.755 130.65 152.657 130.693 152.559C130.675 152.602 130.65 152.645 130.62 152.688C130.681 152.608 130.748 152.523 130.81 152.443C130.773 152.486 130.736 152.523 130.693 152.559C130.773 152.498 130.859 152.431 130.938 152.37C130.883 152.413 130.822 152.45 130.754 152.48C130.852 152.437 130.951 152.401 131.049 152.358C130.963 152.395 130.877 152.419 130.791 152.431C130.902 152.419 131.006 152.401 131.116 152.388C131.03 152.401 130.951 152.401 130.865 152.388C130.975 152.401 131.079 152.419 131.19 152.431C131.122 152.419 131.061 152.407 131 152.382C131.098 152.425 131.196 152.462 131.294 152.504C131.245 152.48 131.196 152.456 131.153 152.425C131.232 152.486 131.318 152.553 131.398 152.614C131.361 152.584 131.324 152.547 131.294 152.511C131.355 152.59 131.422 152.675 131.484 152.755C131.453 152.718 131.435 152.675 131.41 152.633C131.453 152.73 131.49 152.828 131.533 152.926C131.533 152.92 131.527 152.914 131.527 152.914C131.527 153.127 131.527 153.347 131.527 153.561C131.533 153.549 131.533 153.536 131.539 153.524C131.496 153.622 131.459 153.72 131.416 153.817C131.441 153.756 131.478 153.701 131.52 153.646C131.459 153.726 131.392 153.811 131.33 153.891C131.373 153.842 131.416 153.793 131.471 153.756C131.392 153.817 131.306 153.884 131.226 153.945C131.294 153.897 131.367 153.854 131.441 153.817C131.343 153.86 131.245 153.897 131.147 153.939C131.239 153.903 131.33 153.878 131.429 153.86C131.318 153.872 131.214 153.891 131.104 153.903C131.202 153.891 131.3 153.891 131.392 153.903C131.281 153.891 131.177 153.872 131.067 153.86C131.159 153.872 131.245 153.897 131.324 153.927C131.226 153.884 131.128 153.848 131.03 153.805C131.098 153.836 131.159 153.872 131.214 153.915C131.134 153.854 131.049 153.787 130.969 153.726C131.018 153.768 131.067 153.811 131.11 153.866C131.049 153.787 130.981 153.701 130.92 153.622C130.926 153.628 130.926 153.634 130.932 153.634C131.012 153.775 131.116 153.891 131.251 153.976C131.367 154.086 131.508 154.159 131.668 154.196C131.833 154.245 131.992 154.257 132.158 154.22C132.323 154.214 132.47 154.165 132.611 154.074C132.875 153.903 133.102 153.652 133.175 153.341C133.187 153.231 133.206 153.127 133.218 153.017C133.206 152.804 133.151 152.596 133.04 152.407Z" fill="#FAF7FF"/>
<path d="M138.943 155.338C138.943 155.325 138.943 155.307 138.943 155.295C138.937 155.173 138.918 155.051 138.894 154.935C138.894 154.922 138.887 154.91 138.881 154.898C138.845 154.782 138.796 154.672 138.74 154.568C138.685 154.458 138.557 154.318 138.508 154.257C138.489 154.232 138.465 154.214 138.446 154.19C138.348 154.11 138.25 154.019 138.134 153.958C138.017 153.89 137.889 153.842 137.76 153.799C137.631 153.756 137.472 153.75 137.355 153.738C137.325 153.732 137.294 153.738 137.263 153.738C137.184 153.744 136.982 153.756 136.865 153.799C136.761 153.836 136.608 153.884 136.504 153.964C136.442 154.013 136.283 154.11 136.203 154.202C136.136 154.287 136.026 154.403 135.97 154.513C135.921 154.623 135.854 154.751 135.823 154.874C135.793 155.002 135.774 155.142 135.768 155.277C135.762 155.405 135.805 155.582 135.817 155.673C135.823 155.704 135.829 155.728 135.836 155.753C135.928 156.034 136.032 156.217 136.234 156.437C136.412 156.626 136.675 156.773 136.92 156.84C137.086 156.889 137.245 156.901 137.411 156.864C137.576 156.858 137.723 156.809 137.864 156.718C138.005 156.638 138.121 156.534 138.207 156.4C138.318 156.284 138.391 156.144 138.428 155.985C138.44 155.875 138.459 155.771 138.471 155.661C138.471 155.441 138.416 155.234 138.305 155.045C138.244 154.965 138.177 154.88 138.115 154.8C137.962 154.648 137.784 154.544 137.576 154.489C137.564 154.483 137.552 154.483 137.533 154.477C137.631 154.519 137.729 154.556 137.827 154.599C137.803 154.587 137.784 154.574 137.76 154.562C137.84 154.623 137.925 154.69 138.005 154.751C137.981 154.733 137.962 154.715 137.944 154.69C138.005 154.77 138.072 154.855 138.134 154.935C138.115 154.91 138.097 154.88 138.085 154.849C138.128 154.947 138.164 155.045 138.207 155.142C138.189 155.106 138.183 155.069 138.177 155.026C138.189 155.136 138.207 155.24 138.22 155.35C138.213 155.313 138.213 155.277 138.22 155.24C138.207 155.35 138.189 155.454 138.177 155.564C138.183 155.533 138.189 155.502 138.201 155.472C138.158 155.57 138.121 155.667 138.079 155.765C138.091 155.741 138.103 155.716 138.121 155.692C138.06 155.771 137.993 155.857 137.931 155.936C137.95 155.918 137.962 155.899 137.987 155.881C137.907 155.942 137.821 156.009 137.741 156.07C137.76 156.058 137.784 156.04 137.809 156.034C137.711 156.076 137.613 156.113 137.515 156.156C137.539 156.144 137.564 156.137 137.594 156.131C137.484 156.144 137.38 156.162 137.27 156.174C137.3 156.168 137.337 156.168 137.368 156.174C137.257 156.162 137.153 156.144 137.043 156.131C137.08 156.137 137.11 156.144 137.147 156.162C137.049 156.119 136.951 156.083 136.853 156.04C136.89 156.052 136.92 156.076 136.951 156.095C136.871 156.034 136.785 155.967 136.706 155.905C136.736 155.93 136.761 155.954 136.779 155.979C136.718 155.899 136.651 155.814 136.589 155.734C136.608 155.759 136.62 155.783 136.632 155.814C136.589 155.716 136.553 155.618 136.51 155.521C136.522 155.545 136.528 155.57 136.534 155.6C136.522 155.49 136.504 155.386 136.491 155.277C136.491 155.301 136.497 155.319 136.491 155.344C136.485 155.515 136.522 155.667 136.595 155.814C136.645 155.967 136.73 156.095 136.847 156.205C136.957 156.327 137.092 156.406 137.239 156.455C137.386 156.534 137.545 156.565 137.711 156.559C137.821 156.547 137.925 156.528 138.036 156.516C138.244 156.455 138.422 156.351 138.575 156.205C138.636 156.125 138.704 156.04 138.765 155.96C138.887 155.765 138.943 155.557 138.943 155.338Z" fill="#FAF7FF"/>
<path d="M141.388 159.331C142.963 159.331 142.969 156.889 141.388 156.889C139.813 156.889 139.807 159.331 141.388 159.331Z" fill="#FAF7FF"/>
<path d="M125.312 98.9056C128.493 98.7529 131.673 98.6002 134.848 98.4476C137.765 98.3072 141.43 97.5134 144.298 98.0019C143.685 97.5317 143.078 97.0676 142.465 96.5975C142.974 97.3363 142.717 99.7787 142.784 100.689C142.87 101.873 142.943 103.058 143.011 104.248C143.152 106.758 143.789 109.841 143.348 112.29C143.82 111.679 144.285 111.075 144.757 110.464C145.548 109.945 145.376 110.373 144.279 110.354C143.477 110.342 142.674 110.373 141.871 110.379C140.063 110.391 138.255 110.391 136.447 110.379C134.842 110.367 133.236 110.348 131.63 110.312C130.828 110.293 130.025 110.275 129.222 110.257C128.566 110.238 126.765 109.725 128.082 110.373C128.554 110.983 129.02 111.588 129.492 112.198C128.652 110.208 128.609 107.833 128.493 105.689C128.382 103.644 128.082 101.018 128.744 99.0399C128.033 99.7482 127.316 100.463 126.605 101.171C128.983 100.359 132.078 100.566 134.584 100.505C137.269 100.444 139.947 100.499 142.631 100.634C142.631 98.6002 142.631 96.5608 142.631 94.5275C139.953 94.7168 137.275 94.9 134.597 95.0893C132.139 95.2602 129.302 95.1198 126.893 95.6755C122.536 96.6829 123.235 102.136 123.369 105.592C123.492 108.657 124.301 114.213 128.873 112.919C132.905 111.783 132.274 104.859 132.623 101.751C130.619 102.02 128.609 102.294 126.605 102.563C127.157 104.554 127.708 106.538 128.26 108.529C129.044 111.344 133.481 111.527 134.168 108.529C134.725 106.08 134.97 103.68 134.817 101.171C132.776 101.171 130.73 101.171 128.689 101.171C128.842 103.583 129.216 105.903 129.884 108.223C130.564 110.574 134.309 111.417 135.485 108.95C136.668 106.459 137.342 104.041 137.691 101.311C135.651 101.311 133.604 101.311 131.563 101.311C131.373 103.68 131.686 105.909 132.531 108.132C133.353 110.293 136.938 111.502 138.133 108.858C139.358 106.141 140.008 103.455 139.916 100.463C139.793 96.4143 134.296 96.6768 133.788 100.463C133.536 102.337 133.732 104.102 134.321 105.897C135.142 108.394 138.5 108.913 139.922 106.624C140.768 105.256 141.381 103.851 141.828 102.307C139.824 102.038 137.814 101.763 135.81 101.495C136 103.656 136.355 105.72 137.005 107.796C137.789 110.318 141.203 110.788 142.606 108.523C143.544 107.014 144.157 105.451 144.426 103.693C142.422 103.424 140.412 103.149 138.408 102.881C138.31 104.67 138.464 106.355 138.727 108.126C139.125 110.794 143.139 110.983 144.328 108.852C145.266 107.173 145.695 105.592 145.879 103.687C146.259 99.7543 140.18 99.8337 139.751 103.687C139.585 105.152 139.505 106.599 139.493 108.077C141.534 108.077 143.581 108.077 145.621 108.077C145.481 104.859 145.34 101.647 145.199 98.4293C145.027 94.5214 138.942 94.4848 139.07 98.4293C139.107 99.6139 139.132 100.792 139.095 101.977C139.083 102.41 139.168 105.207 138.856 105.518C139.665 104.712 136.735 105.329 136.625 105.335C135.43 105.421 134.241 105.5 133.046 105.586C129.847 105.811 128.597 111.032 132.231 111.582C135.013 112.003 137.802 112.339 140.602 112.553C140.088 110.654 139.573 108.761 139.058 106.862C137.9 107.399 136.84 107.619 135.596 107.802C132.115 108.309 133.046 113.792 136.411 113.798C139.738 113.804 147.221 115.41 148.355 110.88C149.311 107.069 143.403 105.439 142.447 109.255C142.416 109.384 142.386 109.512 142.349 109.64C142.821 109.029 143.287 108.425 143.758 107.814C143.238 108.107 141.105 107.698 140.394 107.698C139.064 107.698 137.74 107.692 136.411 107.692C136.68 109.689 136.956 111.692 137.226 113.688C139.003 113.432 140.535 112.882 142.153 112.131C145.15 110.745 143.336 106.648 140.608 106.44C138.347 106.269 136.104 106.031 133.867 105.689C133.598 107.686 133.322 109.689 133.052 111.686C136.067 111.472 141.614 112.223 143.789 109.616C145.977 106.99 145.303 101.556 145.205 98.4171C143.164 98.4171 141.117 98.4171 139.076 98.4171C139.217 101.635 139.358 104.847 139.499 108.065C139.671 111.972 145.609 112.015 145.628 108.065C145.634 106.587 145.72 105.14 145.885 103.674C143.844 103.674 141.797 103.674 139.757 103.674C139.714 104.438 139.475 105.134 139.04 105.763C140.909 106.007 142.772 106.251 144.641 106.489C144.457 105.262 144.475 104.102 144.543 102.868C144.727 99.4917 139.052 98.6247 138.525 102.056C138.329 103.326 138.004 104.328 137.324 105.427C139.193 105.671 141.056 105.915 142.925 106.153C142.441 104.602 142.092 103.1 141.951 101.476C141.656 98.1667 136.944 97.1898 135.933 100.664C135.62 101.733 135.228 102.575 134.639 103.522C136.509 103.766 138.372 104.01 140.241 104.248C139.806 102.911 139.738 101.818 139.922 100.438C137.881 100.438 135.835 100.438 133.794 100.438C133.849 102.313 133.622 104.029 132.844 105.75C134.713 105.995 136.576 106.239 138.445 106.477C137.771 104.712 137.544 103.155 137.698 101.281C138.016 97.2997 132.053 97.4767 131.569 101.281C131.367 102.881 130.889 104.389 130.203 105.836C132.072 106.08 133.935 106.324 135.804 106.563C135.283 104.761 134.946 103.003 134.829 101.128C134.584 97.2264 128.462 97.1959 128.701 101.128C128.818 103.107 128.713 104.932 128.272 106.862C130.239 106.862 132.213 106.862 134.18 106.862C133.628 104.871 133.077 102.887 132.525 100.896C131.545 97.3668 126.869 98.4415 126.507 101.708C126.409 102.594 126.464 107.344 125.907 107.772C126.63 107.472 127.353 107.173 128.076 106.88C127.886 106.868 127.702 106.862 127.512 106.85C128.235 107.149 128.959 107.448 129.682 107.741C129.087 107.185 129.148 101.055 129.565 100.353C128.952 100.823 128.346 101.287 127.733 101.757C130.006 101.092 132.838 101.275 135.185 101.11C137.673 100.939 140.161 100.762 142.643 100.591C146.565 100.316 146.608 94.6863 142.643 94.4848C137.483 94.2283 132.286 94.265 127.145 94.8145C121.807 95.3824 122.205 100.17 122.34 104.535C122.438 107.631 122.095 114.207 125.422 115.807C127.095 116.613 129.247 116.326 131.054 116.363C133.867 116.424 136.68 116.454 139.487 116.448C142.698 116.448 148.502 117.596 149.384 113.328C149.893 110.88 149.36 107.863 149.231 105.39C149.108 103.015 148.955 100.646 148.765 98.2766C148.624 96.4753 148.765 94.2161 147.307 92.8545C145.891 91.5294 143.795 91.8653 142.03 91.9508C136.466 92.2194 130.901 92.4881 125.337 92.7507C121.384 92.9888 121.359 99.0948 125.312 98.9056Z" fill="#7F32FF"/>
<path d="M173.319 86.4422C171.745 88.7283 170.262 91.5122 168.285 93.4729C168.988 93.1534 169.684 92.8385 170.387 92.519C169.096 92.7147 167.052 91.927 165.752 91.6443C163.918 91.2502 162.085 90.8561 160.251 90.462C157.129 89.7939 155.485 93.4619 157.461 95.6566C160.041 98.5244 162.621 101.398 165.202 104.266C166.592 105.811 169.056 105.06 169.996 103.504C170.689 102.361 171.39 101.214 172.083 100.071C174.149 96.67 168.838 93.9336 166.695 97.1533C163.819 101.469 162.358 106.164 161.884 111.3C161.615 114.222 165.459 114.762 167.176 113.274C168.907 111.776 170.639 110.279 172.37 108.781C173.764 107.575 175.279 106.466 175.915 104.677C176.608 102.719 176.184 100.345 176.474 98.3065C176.807 96.0019 177.441 93.7606 178.348 91.6142C176.58 91.6679 174.82 91.7171 173.052 91.7708C173.484 92.592 173.227 93.8924 173.635 94.8147C174.198 96.0796 175.156 96.8849 176.418 97.4348C179.347 98.6971 182.947 99.0938 186.04 99.8364C185.729 97.9778 185.417 96.1251 185.105 94.2665C181.289 96.2081 177.451 98.107 173.597 99.9707C175.039 101.321 176.475 102.669 177.917 104.019C178.479 102.601 179.039 101.189 179.601 99.7715C177.833 99.8253 176.073 99.8744 174.305 99.9282C176.773 103.879 178.157 108.137 178.451 112.781C179.957 111.845 181.464 110.91 182.971 109.975C180.008 108.347 177.573 106.259 175.436 103.651C174.776 105.409 174.118 107.162 173.464 108.922C173.953 108.954 174.444 108.98 174.934 109.013C178.862 109.247 178.592 103.142 174.676 102.91C174.187 102.878 173.696 102.852 173.206 102.82C170.241 102.64 169.772 106.317 171.234 108.092C173.697 111.089 176.66 113.475 180.057 115.347C182.077 116.456 184.723 114.869 184.577 112.541C184.225 106.874 182.521 101.527 179.507 96.7035C178.396 94.9289 175.089 94.6504 174.211 96.8601C173.65 98.278 173.089 99.69 172.528 101.108C171.386 103.996 173.985 106.542 176.848 105.157C180.702 103.293 184.534 101.393 188.356 99.4524C190.803 98.2085 189.847 94.464 187.422 93.8824C185.008 93.3036 182.551 92.533 180.096 92.1326C178.301 91.8416 179.528 92.3581 179.176 91.3238C178.838 90.3426 178.757 89.4965 178.256 88.5402C177.239 86.6056 173.836 86.6309 172.96 88.6968C171.427 92.3215 170.445 96.0113 170.191 99.9516C170.031 102.378 169.78 102.972 167.914 104.588C166.183 106.086 164.451 107.583 162.72 109.081C164.485 109.741 166.245 110.4 168.012 111.055C168.382 107.047 169.87 103.4 172.088 100.072C170.295 99.0981 168.494 98.1287 166.701 97.1547C166.008 98.2977 165.307 99.4453 164.614 100.588C166.215 100.333 167.814 100.083 169.415 99.8279C166.834 96.96 164.255 94.0862 161.674 91.2183C160.743 92.9518 159.814 94.6793 158.883 96.4128C161.082 96.8855 163.282 97.3581 165.487 97.8321C167.141 98.1846 168.961 98.8574 170.657 98.6241C172.605 98.3616 173.538 96.8606 174.583 95.3667C175.977 93.3709 177.343 91.3623 178.726 89.3578C180.937 86.1222 175.529 83.2377 173.319 86.4422Z" fill="#7F32FF"/>
<path d="M143.643 101.497C144.504 98.1649 148.382 97.2858 151.378 97.2489C152.789 97.2331 154.062 97.5227 154.966 98.6703C155.631 99.5179 155.985 100.681 155.8 101.75C155.6 102.903 154.701 104.119 153.423 103.514C152.065 102.871 151.859 101.087 151.854 99.7653C151.848 98.2281 152.308 96.9278 153.687 96.1276C154.929 95.4063 156.445 95.1484 157.861 95.0536C161.544 94.8009 165.19 95.7854 168.249 97.8333C169.38 98.5913 170.442 96.7646 169.316 96.017C165.829 93.6848 161.496 92.574 157.312 93.0005C155.351 93.2005 153.344 93.648 151.774 94.9062C150.126 96.2276 149.65 98.286 149.756 100.308C149.856 102.282 150.527 104.445 152.44 105.377C154.347 106.309 156.424 105.514 157.364 103.64C158.96 100.466 157.047 96.2171 153.565 95.359C152.318 95.0536 150.982 95.1115 149.714 95.2484C148.424 95.3853 147.167 95.6485 145.973 96.1592C143.907 97.0436 142.179 98.7335 141.603 100.939C141.265 102.25 143.304 102.808 143.643 101.497Z" fill="#EBEC1B"/>
<path d="M170.489 97.0963C169.76 95.2221 168.624 93.5375 167.091 92.2213C166.748 91.9265 166.225 91.7897 165.813 92.0581C165.406 92.3214 165.216 92.7741 165.327 93.2479C165.591 94.3798 166.156 95.4064 166.922 96.2803C167.266 95.6959 167.609 95.1063 167.953 94.5219C166.109 94.2166 164.154 94.8115 162.938 96.275C162.658 96.6119 162.542 97.0068 162.722 97.4227C162.901 97.8386 163.255 98.0175 163.689 98.0702C165.67 98.3176 167.651 98.5598 169.633 98.8072C170.182 98.8757 170.711 98.2755 170.69 97.7543C170.663 97.1278 170.225 96.7751 169.633 96.7014C167.651 96.454 165.67 96.2118 163.689 95.9644C163.937 96.5645 164.185 97.1647 164.434 97.7596C164.55 97.6227 164.666 97.4911 164.798 97.37C164.862 97.3068 164.93 97.2542 164.999 97.1963C164.888 97.291 164.957 97.2279 165.031 97.1752C165.163 97.0805 165.305 96.9962 165.448 96.9173C165.527 96.8752 165.607 96.8383 165.686 96.7962C165.945 96.6698 165.49 96.8594 165.76 96.7646C165.913 96.712 166.066 96.6593 166.23 96.6225C166.304 96.6067 166.373 96.5856 166.447 96.5751C166.542 96.5593 166.706 96.5435 166.515 96.5593C166.695 96.5435 166.869 96.533 167.049 96.533C167.139 96.533 167.229 96.5435 167.313 96.5488C167.546 96.5593 167.134 96.5172 167.387 96.5593C167.836 96.633 168.349 96.5119 168.581 96.075C168.814 95.638 168.74 95.1642 168.418 94.8009C168.391 94.7746 168.148 94.4745 168.275 94.6377C168.217 94.5588 168.159 94.4798 168.106 94.4008C167.979 94.2113 167.863 94.0165 167.757 93.8165C167.715 93.7323 167.673 93.6428 167.63 93.5533C167.72 93.748 167.567 93.3901 167.556 93.3532C167.482 93.1374 167.419 92.9215 167.366 92.7004C166.78 93.0426 166.188 93.3848 165.601 93.727C165.945 94.0218 166.278 94.3377 166.584 94.6746C166.716 94.8167 166.843 94.9641 166.97 95.1168C167.012 95.1695 167.054 95.2168 167.091 95.2695C167.028 95.1853 167.028 95.1905 167.107 95.2905C167.165 95.3695 167.223 95.4485 167.282 95.5274C167.525 95.8749 167.752 96.2329 167.953 96.6014C168.064 96.8015 168.164 97.0015 168.264 97.2121C168.307 97.3016 168.344 97.3911 168.386 97.4806C168.296 97.2858 168.449 97.6438 168.465 97.6806C168.666 98.1913 169.184 98.6019 169.765 98.4176C170.251 98.2334 170.705 97.649 170.489 97.0963Z" fill="#EBEC1B"/>
</g>
</g>
<defs>
<clipPath id="clip0">
<rect width="123.388" height="97.2693" fill="white" transform="translate(68.6133 84.709)"/>
</clipPath>
</defs>
</svg>
