<svg xmlns="http://www.w3.org/2000/svg" xmlns:xlink="http://www.w3.org/1999/xlink" viewBox="0 0 183.32 125.06"><defs><style>.cls-1{fill:none;}.cls-2{fill:#e3f1e4;}.cls-3{fill:#f7f9fc;}.cls-4{fill:#cbd1d9;}.cls-5{fill:#2c2b3a;}.cls-6{fill:#dddbde;}.cls-7{fill:#d73734;}.cls-8{fill:#4537e3;}.cls-9{fill:#ffdd25;}.cls-10{fill:#a630be;}.cls-11{fill:#2cb122;}.cls-12{fill:#2c1e22;}.cls-13{fill:#e642d7;}.cls-14{fill:#d9dde1;}.cls-15{fill:#ffaae4;}.cls-16{fill:#251f34;}.cls-17{fill:#fff;}.cls-18{fill:#ec95cf;}.cls-19{fill:#1c1d99;}.cls-20{fill:#1c1d79;}.cls-21{clip-path:url(#clip-path);}.cls-22{fill:#01054a;}.cls-23{fill:#ab4744;}.cls-24{fill:#943644;}.cls-25{fill:#f1eb00;}.cls-26{fill:#eafaeb;}.cls-27{fill:#c6b12f;}.cls-28{fill:#f0f5d5;}.cls-29{fill:#010586;}.cls-30{fill:#e0712c;}.cls-31{fill:#dacbcf;}.cls-32{fill:#2b2b38;}.cls-33{fill:#2b2b77;}.cls-34{fill:#dcdfe7;}.cls-35{fill:#c1c4c3;}.cls-36{fill:#bc48e3;}</style><clipPath id="clip-path"><rect class="cls-1" x="90.89" y="14.41" width="84.37" height="87.47"/></clipPath></defs><g id="レイヤー_2" data-name="レイヤー 2"><g id="レイヤー_2-2" data-name="レイヤー 2"><path class="cls-2" d="M62.78,81.07a43.24,43.24,0,0,1-2.72,24.1l4,.54.24-12.46a2.05,2.05,0,0,0-4-.54c-.79,3.1-1.47,6.23-2,9.39-.12.67-.22,1.35-.33,2-.06.48,0,2-.37,2.33a5.32,5.32,0,0,1-1.34.15c-.94.08-1.88.13-2.82.19a130.81,130.81,0,0,1-19.09-.34,75.8,75.8,0,0,1-9-1.18C22.63,104.7,21,103.65,20,101a40,40,0,0,1-1.86-18.84l-4,.54a19.61,19.61,0,0,0,9.28,11c.34-1.27.69-2.54,1-3.81L18.7,90c-1.86.05-3,3-1,3.81A64.74,64.74,0,0,0,37.23,99c7.22.74,14.5.36,21.73,0l-2-2.58c-1.26,3.37-6.25,2.47-8.93,2.12-3.47-.47-7-1-10.42-1.49a208.41,208.41,0,0,1-21.3-4.25c-2.56-.68-3.58,3.12-1.09,3.93a105.23,105.23,0,0,0,42,4.86l-.54-4a55.83,55.83,0,0,1-33.24-.43c-2-.64-4.68-.75-5.19,1.87-.44,2.31,1.62,4,3.45,5,4.62,2.46,10.64,2.36,15.73,2.49,6.86.17,13.72-.23,20.57-.64l-2-1.5c.25-.51.19-.62-.18-.32l-.44.14a5.74,5.74,0,0,1-1.5.12c-1.44,0-2.9,0-4.34,0-2.79,0-5.56,0-8.34-.08q-8.52-.16-17-.65c-2.63-.15-2.61,3.94,0,4.09,7.36.41,14.73.66,22.1.71,3.23,0,15.46,1.56,13.66-5.11a2.07,2.07,0,0,0-2-1.5c-6.61.39-13.23.79-19.85.65a80.1,80.1,0,0,1-9.67-.63,16.41,16.41,0,0,1-3.91-.94c-.65-.26-1.18-.69-1.79-1a1.84,1.84,0,0,1-.51-.45c-1.29.84-1.47,1.32-.53,1.44a6.2,6.2,0,0,0,1.88.61c.84.26,1.68.49,2.53.71,1.49.37,3,.69,4.51,1a60.93,60.93,0,0,0,9,.86,59.72,59.72,0,0,0,18.07-2.49c2.12-.63,1.84-4.22-.54-4a102.41,102.41,0,0,1-40.91-4.71l-1.08,3.93a226.53,226.53,0,0,0,25.47,4.87c6.42.92,17.17,4.06,20.2-4.09a2.06,2.06,0,0,0-2-2.59c-13.4.7-26.68.91-39.22-4.58-.35,1.27-.69,2.53-1,3.8l5.76-.15c1.94-.05,2.87-2.81,1-3.8a15.43,15.43,0,0,1-7.4-8.54,2.05,2.05,0,0,0-4,.54,43.78,43.78,0,0,0,1.11,17c.65,2.43,1.4,5.14,3.13,7.06a11,11,0,0,0,6,3A99.78,99.78,0,0,0,41.42,111c3.07.11,6.13.12,9.2,0,2.57-.09,5.58.09,8.07-.64,3-.89,3-3.89,3.44-6.51Q63,98.79,64.24,93.8l-4-.55q-.12,6.24-.23,12.46c0,2.48,3.18,2.54,4,.55A47.11,47.11,0,0,0,66.72,80C66.26,77.4,62.32,78.5,62.78,81.07Z"/><path class="cls-3" d="M50.72,3.22a224.59,224.59,0,0,0,24.34.45L73.72,2.32q1.41,14.4,2.84,28.78l1.34-1.34-26-1.14L53.26,30A202.54,202.54,0,0,1,51.53,2a1.35,1.35,0,0,0-2.7,0,204.12,204.12,0,0,0,1.74,28,1.39,1.39,0,0,0,1.34,1.35l26,1.14a1.34,1.34,0,0,0,1.34-1.35Q77.83,16.72,76.4,2.32A1.36,1.36,0,0,0,75.06,1,224.82,224.82,0,0,1,50.71.53C49,.4,49,3.1,50.72,3.22Z"/><path class="cls-3" d="M51,4.94q.24,11.68.64,23.38a1.82,1.82,0,0,0,2.7,1.55c2.73-1.2,2.45-6.61,2.67-9.08a88.33,88.33,0,0,0,.2-12.91c-.13-2.3-3.72-2.32-3.59,0a91,91,0,0,1,0,9.91c-.09,1.57-.22,3.15-.39,4.72-.08.69-.12,4-.71,4.26l2.69,1.55q-.4-11.68-.64-23.38C54.51,2.63,50.92,2.62,51,4.94Z"/><path class="cls-3" d="M53.28,5.15c1.77,7.71,1.29,15.81,1.33,23.67a1.81,1.81,0,0,0,3.53.48c2.51-8,.93-16.37,1.44-24.58.14-2.31-3.45-2.3-3.59,0a143.73,143.73,0,0,0,.59,24.63c.13,1.16,1.5,2.47,2.7,1.54,3.14-2.4,3-7.46,3.32-11.07a150.23,150.23,0,0,0,.19-15.45H59.21q.45,11.54.92,23.07a1.81,1.81,0,0,0,3.34.9c2.11-3,2.3-6.65,2.43-10.21.15-4.38.18-8.76.22-13.14l-3.53.47a88.32,88.32,0,0,1,1.55,21.77c-.1,1.84,2.45,2.36,3.34.9,2-3.33,2.25-7.15,2.32-11,.08-4.55-.08-9.11-.24-13.67H66q1,12.29,2.09,24.58a1.8,1.8,0,0,0,3.52.48c2.67-8,.77-16.43,1.75-24.63L69.8,4.4c1.09,4,1.24,8.15,1.56,12.26s.62,8.27.94,12.4l1.8-1.8-11.44-1L64.21,29a14.92,14.92,0,0,1,1.89-2.5c1.59-1.68-.95-4.22-2.54-2.54a19.76,19.76,0,0,0-2.45,3.23,1.8,1.8,0,0,0,1.55,2.69l11.43,1a1.81,1.81,0,0,0,1.8-1.8q-.51-6.63-1-13.28A65.49,65.49,0,0,0,73.26,3.44C72.69,1.35,70,2,69.73,3.91c-.93,7.88.94,16-1.61,23.68l3.52.48q-1-12.29-2.09-24.58c-.19-2.27-3.67-2.34-3.59,0,.14,4,.28,7.93.26,11.9,0,3.7.15,7.66-1.85,10.92l3.35.9A92.08,92.08,0,0,0,66,4.5c-.4-2-3.5-1.51-3.52.47,0,3.8-.06,7.6-.17,11.39-.09,3.47.08,7.18-2,10.15l3.35.9c-.31-7.68-.62-15.38-.92-23.06-.1-2.3-3.64-2.33-3.59,0,.08,4,.17,8,0,11.92-.08,1.91-.2,3.82-.42,5.71-.14,1.27-.16,4.9-1.33,5.79l2.7,1.55A143.61,143.61,0,0,1,59.57,4.7H56c-.49,7.87,1.09,16-1.31,23.62l3.52.48c0-8.2.38-16.58-1.46-24.63C56.23,1.94,52.77,2.9,53.28,5.15Z"/><path class="cls-3" d="M83.71,9.16a133,133,0,0,1-19.45.47,1.16,1.16,0,0,0-1.14,1.14q.39,10,.77,19.92c.06,1.66.12,3.32.19,5,0,.75.06,1.51.08,2.26s.1,1.73,1,2.18a5.1,5.1,0,0,0,2.13.24l2.7.07,4.84.13,11.14.3a1.17,1.17,0,0,0,1.14-1.14,78.89,78.89,0,0,0-.28-19.84,72.51,72.51,0,0,0-2-9.7A3.13,3.13,0,0,0,83.7,8.33a4.05,4.05,0,0,0-2.4-.47h-17A1.16,1.16,0,0,0,63.2,9,157.45,157.45,0,0,0,63,32.78q.23,3.36.6,6.72a1.16,1.16,0,0,0,1.13,1.13,1.14,1.14,0,0,0,1.14-1.13,158.78,158.78,0,0,1-.85-23.78q.14-3.37.41-6.73l-1.13,1.13H81.52a2.1,2.1,0,0,1,.83.05c.19.09.21.32.26.52A72.74,72.74,0,0,1,85.3,29.18a78.82,78.82,0,0,1-.48,10.53L86,38.57l-18.68-.5a6.12,6.12,0,0,0-1.13,0c-.47.09.49.17.31.34a3.17,3.17,0,0,0,0-.45c0-.83-.06-1.66-.1-2.49,0-1.59-.12-3.17-.18-4.75-.12-3.1-.23-6.19-.35-9.28-.14-3.55-.27-7.1-.41-10.64l-1.14,1.14a133.1,133.1,0,0,0,19.46-.48,1.17,1.17,0,0,0,1.13-1.13A1.14,1.14,0,0,0,83.71,9.16Z"/><path class="cls-3" d="M78.31,13.39q0,11.43.55,22.84a2.77,2.77,0,0,0,3.46,2.63c5.61-1.49,4.25-10.35,3.81-14.6-.29-2.75-.49-6-1.77-8.55S80.64,12,78.12,11c-1.72-.71-3.4,1-3.45,2.63q-.17,4.92-.19,9.83c0,1.49,0,3,0,4.47,0,1.32.43,3.4,0,4.61l1.25-1.63c1.06-.73-.45-.52-1.15-.69s-1.57-.39-2.37-.54a10.07,10.07,0,0,0-4.16-.16c-2.6.62-4.8,3.18-4.25,6s3.09,3.78,5.67,3.88c3.46.13,7,0,10.41,0s3.52-5.47,0-5.46l-5.91,0-3.37,0a11.67,11.67,0,0,0-1.82-.06c-1,1.14,1.8,1.07,2,1.1.79.12,1.58.36,2.36.54,1.57.37,3.47,1.16,5,.35,3-1.55,1.78-7,1.77-9.69q0-6.26.19-12.52l-3.45,2.63c1.4.57,2.56,1.1,3.06,2.6a27.55,27.55,0,0,1,.94,5.43c.18,1.7.28,3.42.29,5.14,0,.86,0,1.72,0,2.58a8.86,8.86,0,0,1-.09,1.25c-.27.57-.25.7,0,.38l3.45,2.63q-.54-11.42-.55-22.84C83.76,9.88,78.31,9.88,78.31,13.39Z"/><path class="cls-3" d="M74,20.53H86.83a24.33,24.33,0,0,1,4.83,0L90,19.3c.39.58.22,2.32.28,3,.1,1.18.19,2.36.28,3.54q.26,3.33.43,6.66c.26,4.58.41,9.17.5,13.76l2.72-2.73q-10.77-.3-21.52-1l2.72,2.73a20.21,20.21,0,0,0-.53-6.75l-4.56,2.66a16,16,0,0,0,8.76,3.41c2.72.27,7.19.64,9.65-.75,3.11-1.75,2.61-6.49,2.76-9.5q.3-6.3.17-12.61H86.23a171.16,171.16,0,0,0,2.16,22.59c.56,3.45,5.81,2,5.26-1.45a161.15,161.15,0,0,1-2-21.14c-.1-3.5-5.52-3.52-5.45,0,.06,2.9.06,5.8,0,8.7-.07,2.64.13,5.66-.42,8.26-.14.66.87.36-.37.41-.47,0-.93.07-1.4.09a34.45,34.45,0,0,1-3.52.05,10.84,10.84,0,0,1-6.3-1.92c-2-1.62-5.24-.18-4.55,2.66A15.67,15.67,0,0,1,70,45.24c-.15,1.54,1.37,2.63,2.72,2.73q10.76.75,21.53,1A2.75,2.75,0,0,0,97,46.28c-.16-8.87-.54-17.78-1.43-26.61-.16-1.56-.31-3.18-1.77-4.09-1.7-1.06-4.58-.52-6.48-.52L74,15.08C70.5,15.07,70.5,20.53,74,20.53Z"/><path class="cls-4" d="M70.62,41.07a24.82,24.82,0,0,1-1-6.35,34.89,34.89,0,0,1,.54-6.28c.56-3.7,1-7.79-1.18-11.07-.32-.48-1.11,0-.79.46,2.29,3.4,1.49,7.65.93,11.44a27.81,27.81,0,0,0,.62,12A.46.46,0,0,0,70.62,41.07Z"/><path class="cls-4" d="M68.7,17.45q10.58-1.08,21.17-2c.57-.06.58-1,0-.91q-10.59,1-21.17,2C68.13,16.6,68.12,17.5,68.7,17.45Z"/><path class="cls-4" d="M76.94,6.66a133.71,133.71,0,0,1-16.85,1,.46.46,0,0,0-.44.58C62,16.4,60.93,25,62,33.29a35.31,35.31,0,0,0,1.56,6.82c.19.55,1.07.32.88-.24-2.77-8-1.73-16.64-2.63-24.95A40.41,40.41,0,0,0,60.53,8l-.44.58a135.61,135.61,0,0,0,16.85-1C77.51,7.5,77.52,6.59,76.94,6.66Z"/><path class="cls-4" d="M48.51.44l1.08,26.83c0,1.24-.14,4.22,1.89,3.93.57-.08.33-1-.24-.87s-.68-1.36-.69-1.7l-.12-3.06q-.13-3.06-.25-6.12L49.7,7.34q-.14-3.45-.28-6.91C49.4-.14,48.49-.14,48.51.44Z"/><path class="cls-5" d="M73.1,19.84,73.88,29a.45.45,0,0,0,.57.43,22.53,22.53,0,0,1,7.94,0c.57.1.82-.78.24-.88a23.82,23.82,0,0,0-8.42,0l.58.43c-.26-3-.51-6.09-.77-9.14C74,19.26,73.05,19.25,73.1,19.84Z"/><path class="cls-5" d="M90.71,17.74c-2.22-.27-4.89-.45-6.68,1.16s-2,4.77-.74,6.84a5.52,5.52,0,0,0,10.29-2.28,5.8,5.8,0,0,0-4.16-5.92.46.46,0,0,0-.24.88,4.91,4.91,0,0,1,3.5,4.26,4.61,4.61,0,0,1-8.36,3,4.86,4.86,0,0,1,.15-5.93c1.56-1.61,4.23-1.33,6.24-1.09C91.29,18.71,91.29,17.8,90.71,17.74Z"/><path class="cls-5" d="M74.44,32.76c0,2.28,0,4.55,0,6.83,0,.73.07,1.63.92,1.85a5.76,5.76,0,0,0,1.38.06l1.8,0,14,.24a.46.46,0,0,0,0-.91l-12.62-.22-3.15,0c-.42,0-1.2.15-1.35-.32a4.35,4.35,0,0,1,0-1.35c0-2.06,0-4.11,0-6.17A.46.46,0,0,0,74.44,32.76Z"/><path class="cls-5" d="M64.62,12.38h1.47a.46.46,0,0,0,.45-.46.46.46,0,0,0-.45-.45H64.62a.46.46,0,0,0,0,.91Z"/><path class="cls-5" d="M68.73,12.38h1.76a.46.46,0,0,0,0-.91H68.73a.46.46,0,0,0,0,.91Z"/><path class="cls-5" d="M72.84,12.08h2.34a.46.46,0,1,0,0-.91H72.84a.46.46,0,1,0,0,.91Z"/><path class="cls-5" d="M77.83,12.08h1.75a.46.46,0,1,0,0-.91H77.83a.46.46,0,1,0,0,.91Z"/><path class="cls-5" d="M64.92,15.63l3.33-.34c.49,0,1-.13,1.46-.14.29,0,.72,0,.91.27a.46.46,0,1,0,.79-.46c-.66-.86-1.72-.73-2.68-.63l-3.81.39a.48.48,0,0,0-.46.46A.46.46,0,0,0,64.92,15.63Z"/><path class="cls-5" d="M66.09,20h2a.46.46,0,1,0,0-.91h-2a.46.46,0,0,0,0,.91Z"/><path class="cls-5" d="M52.87,4.17a21.11,21.11,0,0,1,.7,9.89c0,.26.12.61.44.58a41.47,41.47,0,0,1,6.5-.18c.58,0,.58-.88,0-.91a41.5,41.5,0,0,0-6.5.18c.14.19.29.38.43.58a22,22,0,0,0-.7-10.38C53.57,3.37,52.69,3.6,52.87,4.17Z"/><path class="cls-5" d="M54.06,4l12.31-.2,6.1-.1c.32,0,.79-.12.87.27a2.92,2.92,0,0,1-.07.83,1.21,1.21,0,0,0,.53,1.28.46.46,0,0,0,.46-.79c-.26-.14,0-1.16,0-1.43A1.15,1.15,0,0,0,73.13,2.8a27.85,27.85,0,0,0-3,0l-3.28.06-12.76.2A.46.46,0,0,0,54.06,4Z"/><path class="cls-6" d="M55,6.14a5.7,5.7,0,0,0,2.16.51,5.24,5.24,0,0,0,2-.32,1.23,1.23,0,0,0,.68-.53,1.14,1.14,0,0,0-.41-1.55,1.09,1.09,0,0,0-.88-.11,4.52,4.52,0,0,1-1,.25l.3,0a4.17,4.17,0,0,1-1.17,0l.3,0a4,4,0,0,1-1-.28l.27.12-.1,0a1.26,1.26,0,0,0-.87-.11,1.15,1.15,0,0,0-.68.52,1.17,1.17,0,0,0-.12.88A1.08,1.08,0,0,0,55,6.14Z"/><path class="cls-6" d="M63.15,6.31h3.23a1.14,1.14,0,1,0,0-2.27H63.15a1.14,1.14,0,0,0,0,2.27Z"/><path class="cls-6" d="M59.74,8.2l.1-.09-.13.1a3.1,3.1,0,0,1,.66-.39l-.17.07A2.65,2.65,0,0,1,61,7.68l-.19,0a3,3,0,0,1,.6,0A.7.7,0,0,0,62.07,7a.71.71,0,0,0-.68-.68,3.7,3.7,0,0,0-2.62.92.67.67,0,0,0-.2.48.66.66,0,0,0,.2.48A.69.69,0,0,0,59.74,8.2Z"/><path class="cls-6" d="M56.41,10.84l1.79.06-.6-1a1.82,1.82,0,0,1-.15.27s-.16.19,0,0a.52.52,0,0,0-.1.11l-.11.11s0,0,0,0,.11-.08,0,0a1.48,1.48,0,0,1-.27.16l.16-.07-.29.08.18,0h-.27l.18,0a1.11,1.11,0,0,1-.26-.07l.16.07a.83.83,0,0,1-.16-.09h0c.1.08,0,0,0,0l0-.06c-.06-.06,0-.09,0,.05a1.09,1.09,0,0,1-.08-.15l.06.16a.94.94,0,0,1,0-.16,1.1,1.1,0,0,1,0,.18.48.48,0,0,1,0-.17l0,.18a.74.74,0,0,1,0-.14.77.77,0,0,1-.07.16l.06-.1c.05-.08-.12.14,0,.07a.08.08,0,0,1,0,0s.1-.06-.07.05l0,0,.11-.06-.16.07.2-.06-.18,0h.18l-.18,0,.13,0-.16-.07.06,0,0,0s-.06-.05,0,0,.05.09,0-.08l0,.06a.69.69,0,0,0,.93.25.7.7,0,0,0,.25-.93,1.22,1.22,0,0,0-1.4-.54,1.34,1.34,0,0,0-1,1,1.63,1.63,0,0,0,2.23,1.69,2.55,2.55,0,0,0,1.31-1.24.71.71,0,0,0,0-.69.69.69,0,0,0-.59-.34l-1.79,0a.68.68,0,1,0,0,1.35Z"/><path class="cls-6" d="M69.31,6.74h1.76a.69.69,0,0,0,0-1.37H69.31a.69.69,0,0,0-.68.68A.7.7,0,0,0,69.31,6.74Z"/><path class="cls-6" d="M74.42,15.28,76.18,15a.45.45,0,0,0,.32-.55.47.47,0,0,0-.56-.32l-1.76.31a.45.45,0,0,0-.32.56A.48.48,0,0,0,74.42,15.28Z"/><path class="cls-6" d="M80.76,14.72h1.17a.46.46,0,1,0,0-.91H80.76a.46.46,0,0,0-.45.46A.45.45,0,0,0,80.76,14.72Z"/><path class="cls-7" d="M76.16,23.08c.12,1.56.24,3.13.35,4.69a.47.47,0,0,0,.46.45.45.45,0,0,0,.45-.45c-.12-1.56-.23-3.13-.35-4.69a.47.47,0,0,0-.46-.46A.46.46,0,0,0,76.16,23.08Z"/><path class="cls-7" d="M78.18,20.73l.72,7c.06.58,1,.59.91,0-.24-2.34-.49-4.68-.73-7C79,20.16,78.12,20.15,78.18,20.73Z"/><path class="cls-7" d="M88.51,19.55l.06,3.82a.45.45,0,0,0,.68.4,8.87,8.87,0,0,0,2.37-2.24.46.46,0,0,0-.07-.55,11.08,11.08,0,0,0-1.91-1.9.46.46,0,0,0-.76.2,3.8,3.8,0,0,0,.18,2.42.46.46,0,0,0,.67.27,1.62,1.62,0,0,0,.12-2.76c-.08.28-.16.56-.23.84a1.25,1.25,0,0,1,1,.65l.72-.55-1.57-1.42-.55.71a5.62,5.62,0,0,1,1.47,1.32.45.45,0,0,0,.64-.64,6.62,6.62,0,0,0-1.65-1.47.46.46,0,0,0-.55.72l1.56,1.42a.46.46,0,0,0,.72-.55,2.26,2.26,0,0,0-1.79-1.1c-.47,0-.59.63-.23.85.11.07,0,0,.06,0l.08.08s.08.14.06.1a.9.9,0,0,1,.06.22v.24a.43.43,0,0,0,0,.11.38.38,0,0,1-.08.17.52.52,0,0,1-.28.24l.67.27a3.15,3.15,0,0,1-.18-1.94l-.76.2a11.08,11.08,0,0,1,1.91,1.9c0-.18,0-.36-.07-.54a7.9,7.9,0,0,1-2,1.9l.69.39c0-1.27,0-2.55-.06-3.82A.46.46,0,0,0,88.51,19.55Z"/><path class="cls-7" d="M89.08,19.36a2.34,2.34,0,0,1,1.16.44,1.46,1.46,0,0,1,.23.21,1.83,1.83,0,0,1,.2.21,2.7,2.7,0,0,1,.31.57l.12-.44-2,1.68a.45.45,0,1,0,.64.64l2-1.68a.45.45,0,0,0,.12-.44,3.2,3.2,0,0,0-2.78-2.11.46.46,0,0,0,0,.92Z"/><path class="cls-8" d="M79.82,20.41q.6,3.81.94,7.64c0,.58,1,.59.91,0-.24-2.64-.56-5.26-1-7.88C80.61,19.59,79.73,19.84,79.82,20.41Z"/><path class="cls-8" d="M89.74,24.36a18.61,18.61,0,0,0,2.68-2L91.64,22V23.3l.46-.46a10.67,10.67,0,0,0-2.76.24.47.47,0,0,0-.32.56.48.48,0,0,0,.56.32,9.14,9.14,0,0,1,2.52-.21.45.45,0,0,0,.45-.45V22a.46.46,0,0,0-.78-.32,16.24,16.24,0,0,1-2.49,1.85.47.47,0,0,0-.16.63A.45.45,0,0,0,89.74,24.36Z"/><path class="cls-9" d="M89.28,25.1H92a.46.46,0,0,0,.45-.4.45.45,0,0,0-.33-.5,8.46,8.46,0,0,0-3.09.08.46.46,0,0,0-.11.83,2.67,2.67,0,0,0,1.51.37.46.46,0,1,0,0-.91,1.68,1.68,0,0,1-1-.25c0,.28-.07.56-.11.84a7.39,7.39,0,0,1,2.61-.08l.12-.89H89.27a.46.46,0,1,0,0,.91Z"/><path class="cls-10" d="M88.34,23.18l-4.09-1.85a.47.47,0,0,0-.67.28,5.08,5.08,0,0,0,1.12,4.2,1.86,1.86,0,0,0,.93.68,1.26,1.26,0,0,0,1.11-.36c.71-.57,1.4-1.17,2.1-1.75a.45.45,0,0,0-.2-.76l-4.13-1.41a.46.46,0,0,0-.57.44c0,.87.21,2,1.12,2.32a1.28,1.28,0,0,0,1.78-.79.47.47,0,0,0-.32-.56l-.87-.28a.45.45,0,0,0-.54.26.47.47,0,0,0,.19.57,2.13,2.13,0,0,0,1.42.4c-.07-.28-.15-.56-.22-.84a2.78,2.78,0,0,0-1.21,2,.45.45,0,0,0,.45.46.47.47,0,0,0,.46-.46A1.83,1.83,0,0,1,87,24.51c.34-.23.26-.88-.22-.84a1.34,1.34,0,0,1-1-.28l-.35.83.88.28c-.11-.19-.22-.37-.32-.56,0,0-.06.17,0,.11s0,0,0,.05,0,0,0,0h0l-.09,0h-.22c.06,0-.1,0-.12,0s0,0-.07,0c-.4-.25-.45-1-.48-1.45l-.58.44,4.13,1.41c-.07-.26-.13-.51-.2-.76l-1.78,1.47c-.14.12-.41.45-.62.39s-.41-.36-.54-.52a4.12,4.12,0,0,1-.81-3.23l-.66.27L87.88,24a.46.46,0,0,0,.46-.79Z"/><path class="cls-11" d="M77.56,36.8a.68.68,0,0,0,0,.2,1.07,1.07,0,0,0,.07.19.83.83,0,0,0,.08.12l.09.11.16.11a.64.64,0,0,0,.19.08l.08,0,.2,0,.17,0,0,0a.47.47,0,0,0,.15-.06l0,0,.09-.07a.33.33,0,0,0,.1-.14.27.27,0,0,0,0-.12.37.37,0,0,0,0-.18,2,2,0,0,0-.09-.26l-.09-.15a1.81,1.81,0,0,0-.18-.21,1.24,1.24,0,0,0-.22-.18.34.34,0,0,0-.17,0,.37.37,0,0,0-.18,0,.28.28,0,0,0-.15.08.3.3,0,0,0-.12.13.47.47,0,0,0,0,.35A.51.51,0,0,0,78,37l.08.06L78,37a1,1,0,0,1,.14.15l-.07-.09a.59.59,0,0,1,.1.17l0-.1a.33.33,0,0,1,0,.14c.07-.17.15-.34.21-.51l-.06,0,.11,0-.08,0,.12,0h-.1l.12,0a.23.23,0,0,1-.11,0l.11,0-.11-.05a.31.31,0,0,1,.09.07.6.6,0,0,1-.08-.08l.08.09a.41.41,0,0,1,0-.09s0,.07,0,.11a.24.24,0,0,1,0-.08.5.5,0,0,0,0,.12.06.06,0,0,1,0-.06.34.34,0,0,0,0-.18.44.44,0,0,0-.1-.15.38.38,0,0,0-.15-.09.33.33,0,0,0-.17,0,.46.46,0,0,0-.33.13l-.07.09A.69.69,0,0,0,77.56,36.8Z"/><path class="cls-11" d="M81.42,35.48a.77.77,0,0,0,0,.15s0,0,0,0a.75.75,0,0,0,.06.13,0,0,0,0,0,0,0l.09.12,0,0,.15.11.17.08.07,0a.77.77,0,0,0,.37,0h0a.35.35,0,0,0,.14-.06l.08,0,.07-.06a.31.31,0,0,0,.1-.15.34.34,0,0,0,0-.18.5.5,0,0,0,0-.12.41.41,0,0,0-.12-.2L82.4,35a.38.38,0,0,0-.15-.09.34.34,0,0,0-.18,0,.25.25,0,0,0-.17,0,.38.38,0,0,0-.15.09.44.44,0,0,0-.13.32.51.51,0,0,0,0,.13.47.47,0,0,0,.12.2l.32.41v-.64l0,0,.09-.07,0,0,.11,0h.08l-.09,0,.11,0-.08,0a.31.31,0,0,1,.09.07s0,0,0,0a.71.71,0,0,1,.07.09l0-.06s0,.07,0,.11l0-.07s0,.08,0,.13v0a.44.44,0,0,0-.13-.32.24.24,0,0,0-.15-.09.34.34,0,0,0-.17,0,.52.52,0,0,0-.33.14A.43.43,0,0,0,81.42,35.48Z"/><path class="cls-11" d="M84.93,32.42l0,0a.61.61,0,0,1,0,.12v0h0a.59.59,0,0,0,0,.13v0a1,1,0,0,0,0,.18,1.19,1.19,0,0,0,.08.16.18.18,0,0,0,0,.07l.06.07a.81.81,0,0,0,.14.12l.17.08.12,0h.11l.14,0h0a.47.47,0,0,0,.15-.06.49.49,0,0,0,.16-.16.34.34,0,0,0,.05-.17.28.28,0,0,0,0-.18.36.36,0,0,0-.11-.2l-.38-.36a.31.31,0,0,0-.15-.1.47.47,0,0,0-.17,0,.34.34,0,0,0-.18,0,.31.31,0,0,0-.15.1l-.07.09a.44.44,0,0,0-.06.23.5.5,0,0,0,0,.12.4.4,0,0,0,.11.2l.38.36.09-.72,0,0,.11,0h0l.13,0h0l.12,0-.06,0,.1.05-.06,0,.09.07-.06-.05.08.09a.16.16,0,0,1,0-.07s0,.08,0,.11,0,0,0-.06,0,.08,0,.12v-.05a.49.49,0,0,1,0,.12.11.11,0,0,1,0-.05.37.37,0,0,1-.05.11l0,0a.34.34,0,0,0,0-.17.27.27,0,0,0,0-.18.35.35,0,0,0-.08-.16.3.3,0,0,0-.13-.12l-.1,0a.36.36,0,0,0-.25,0l-.1,0A.37.37,0,0,0,84.93,32.42Z"/><path class="cls-11" d="M88,38.16a1.58,1.58,0,0,0,.12.15,1,1,0,0,0,.27.15.65.65,0,0,0,.39,0,.63.63,0,0,0,.34-.18.26.26,0,0,0,.09-.12l.06-.14a.64.64,0,0,0,0-.2,1,1,0,0,0-.09-.38.59.59,0,0,0,0-.08s-.08-.11-.12-.15a.57.57,0,0,0-.16-.11L88.65,37l-.2,0-.2,0a.77.77,0,0,0-.36.21.79.79,0,0,0-.2.37.28.28,0,0,0,0,.18.34.34,0,0,0,0,.17.3.3,0,0,0,.12.13.37.37,0,0,0,.15.08.47.47,0,0,0,.35,0,.4.4,0,0,0,.21-.28s0,0,0-.07,0,.07,0,.11a.16.16,0,0,1,0-.07l-.08.09.07-.07-.09.07a.2.2,0,0,1,.08,0l-.11,0,.1,0h-.17a.11.11,0,0,1,.08,0l-.11,0,.07,0-.09-.07.06.06-.08-.09a.41.41,0,0,1,0,.09s0-.08,0-.11l0,.09s0-.08,0-.13v.1a.5.5,0,0,1,0-.12s0,0,0,.07,0-.07.05-.1,0,0,0,0l.07-.09,0,0,.1-.07-.06,0,.11,0-.07,0,.12,0h-.08l.12,0-.08,0,.11,0,0,0,.09.07,0,0,.08.1s0,0,0,0a.49.49,0,0,0-.12-.13.48.48,0,0,0-.16-.08.36.36,0,0,0-.18,0,.49.49,0,0,0-.17.06.43.43,0,0,0-.2.27A.5.5,0,0,0,88,38.16Z"/><path class="cls-11" d="M91.1,35.36a.58.58,0,0,0,.73-.1.75.75,0,0,0,.2-.55.72.72,0,0,0-.32-.6.78.78,0,0,0-.39-.1.89.89,0,0,0-.43.12,1.37,1.37,0,0,0-.2.13l-.1.1a1.76,1.76,0,0,0-.24.3.34.34,0,0,0,0,.17.28.28,0,0,0,0,.18.41.41,0,0,0,.21.27.43.43,0,0,0,.35,0,.56.56,0,0,0,.27-.21.86.86,0,0,1,.07-.1l-.07.09a.91.91,0,0,1,.19-.2l-.09.07.14-.09-.11,0a.27.27,0,0,1,.12,0h-.15l.08,0-.1,0,0,0-.09-.08,0,0-.07-.09,0,0,0-.1a.25.25,0,0,0,0,.07s0-.08,0-.12v.1a.5.5,0,0,1,0-.12l0,.09,0-.11a.13.13,0,0,1,0,.06l.08-.09s0,0,0,0a.71.71,0,0,1,.09-.07h0l.11,0h0l.12,0h0l.12,0h0l.11,0h0a.48.48,0,0,0-.35,0,.47.47,0,0,0-.27.21.48.48,0,0,0,0,.35A.46.46,0,0,0,91.1,35.36Z"/><path class="cls-12" d="M76.21,35.05l1,.76a.25.25,0,0,0,.16.06.23.23,0,0,0,.16-.06.24.24,0,0,0,0-.33l-1-.75a.22.22,0,0,0-.32,0A.22.22,0,0,0,76.21,35.05Z"/><path class="cls-12" d="M80,36.63l1-.38a.22.22,0,0,0,.16-.28.24.24,0,0,0-.28-.16l-.95.38a.24.24,0,0,0-.14.1.23.23,0,0,0,0,.18A.25.25,0,0,0,80,36.63Z"/><path class="cls-12" d="M83.69,34.53l.76-.57a.19.19,0,0,0,.1-.13.22.22,0,0,0,0-.18.28.28,0,0,0-.13-.11.23.23,0,0,0-.18,0l-.76.56a.3.3,0,0,0-.11.14.28.28,0,0,0,0,.18.19.19,0,0,0,.13.1A.19.19,0,0,0,83.69,34.53Z"/><path class="cls-12" d="M86.07,34.49c.64.63,1.28,1.26,1.93,1.88.2.2.53-.12.32-.32L86.4,34.17C86.19,34,85.86,34.29,86.07,34.49Z"/><path class="cls-12" d="M90.19,36.58l.57-.56a.24.24,0,0,0,0-.33.23.23,0,0,0-.32,0l-.57.57a.23.23,0,1,0,.32.32Z"/><path class="cls-12" d="M78.08,33.3l.77,1.51a.23.23,0,0,0,.31.08.23.23,0,0,0,.08-.31l-.77-1.51a.23.23,0,0,0-.31-.08A.24.24,0,0,0,78.08,33.3Z"/><path class="cls-12" d="M81,37.76l2.08,1.34c.24.16.47-.23.22-.39l-2.07-1.34C81,37.21,80.75,37.6,81,37.76Z"/><path class="cls-12" d="M84.63,37.74l1-.56a.22.22,0,0,0,.08-.31.24.24,0,0,0-.31-.08l-.95.56a.23.23,0,1,0,.23.39Z"/><path class="cls-12" d="M89,34.36a4.26,4.26,0,0,0,1.59-1.62.23.23,0,0,0-.08-.31.23.23,0,0,0-.31.08A3.72,3.72,0,0,1,88.79,34a.23.23,0,0,0-.08.31A.24.24,0,0,0,89,34.36Z"/><path class="cls-12" d="M91.93,32.09h.76a.24.24,0,0,0,.23-.23.23.23,0,0,0-.23-.23h-.76a.23.23,0,0,0,0,.46Z"/><path class="cls-13" d="M77.12,31.94a.49.49,0,0,0,0,.51.61.61,0,0,0,.39.28.49.49,0,0,0,.51-.2.5.5,0,0,0,0-.46.63.63,0,0,0-.35-.38.5.5,0,0,0-.27,0,.36.36,0,0,0-.24.18.58.58,0,0,0,.42.8c.44.07.77-.36.84-.75a.27.27,0,0,0-.11-.26,1.17,1.17,0,0,0-.94-.19.24.24,0,0,0-.16.28.23.23,0,0,0,.28.16h0s0,0,0,0h.23l.09,0h0a1,1,0,0,1,.17.1c0-.09-.07-.17-.1-.25A1.54,1.54,0,0,1,78,32s0,0,0,0,0,0,0,0l0,.09,0,0,0,0,0,0-.06.06h0l0,0,0,0h0s0,0,0,0h-.07l0,0h0s0,0,0,0h0s0,0,0,0l0,0h0v0s0-.05,0,0,0,0,0,0a0,0,0,0,0,0,0s0,.06,0,0v0s0,0,0,0,0,0,0,0,0,0,0,0h0s0,0,0,0l-.07.05s.06,0,0,0,0,0,0,0h0s0,0,0,0l0,0,0,0h0l0,.06s0,0,0,0,0,0,0,0v0h0v0s0-.05,0,0v0s0,0,0,0l0,0s0,0,0,0h0s0,0,0,0H77.6s.06,0,0,0l-.07,0c.06,0,0,0,0,0l0,0h0v0s0,0,0,0v0s0,0,0,0v0s0,.05,0,0v0h0s0,.05,0,0a.23.23,0,0,0-.08-.31A.23.23,0,0,0,77.12,31.94Z"/><path class="cls-13" d="M84,38.33a.39.39,0,0,0-.18.43.49.49,0,0,0,.22.31.38.38,0,0,0,.46-.06.72.72,0,0,0,.18-.36.85.85,0,0,0,0-.42c-.07-.16-.19-.35-.39-.34a.54.54,0,0,0-.34.16.59.59,0,0,0-.16.3.56.56,0,0,0,.26.68.22.22,0,0,0,.18,0,.19.19,0,0,0,.13-.1.23.23,0,0,0-.08-.31l0,0h0s0,0,0,0v0l0,0,0,.06a.32.32,0,0,1,0-.09.13.13,0,0,1,0,.06v-.13s0,0,0,.06a.56.56,0,0,1,0-.12s0,0,0,.05,0,0,0-.06l0,0,0,0,0,0,0,0h0l0,0,.06,0,0,0,.06,0h0l-.16-.07,0,0a0,0,0,0,1,0,0s0,0,0,0l0,.09,0-.06a.37.37,0,0,1,0,.14.13.13,0,0,0,0-.06.38.38,0,0,1,0,.15.13.13,0,0,0,0-.06.33.33,0,0,1,0,.14l0,0a.47.47,0,0,1-.06.09l0,0s0,0,0,0h0s0,0,0,0l.06,0h0l0,0,0,0s0,0,0,0h0s0,0,0,0l0,0s0,0,0,0,0,0,0,.05a.14.14,0,0,1,0-.07.13.13,0,0,1,0,.06v0a.13.13,0,0,1,0,.06s0,0,0,0,0,0,0,.05h0s0,0,0,0,0,0,0,0,0,0,0,0a.24.24,0,0,0,.08-.31A.25.25,0,0,0,84,38.33Z"/><path class="cls-13" d="M86.7,36.94a.54.54,0,0,0,.36-.36.69.69,0,0,0,0-.47.51.51,0,0,0-.44-.29.6.6,0,0,0-.48.28.53.53,0,0,0,0,.59.26.26,0,0,0,.14.11.21.21,0,0,0,.17,0,.22.22,0,0,0,.09-.3l0,0s0,0,0,0,0,0,0-.06,0,0,0,.06v-.08a.13.13,0,0,1,0,.06.94.94,0,0,1,0-.09s0,0,0,0a.41.41,0,0,1,.05-.09l0,0a.27.27,0,0,1,.07-.08l0,0,.09,0-.06,0,.08,0h0l.07,0-.06,0,.06,0s0,0,0,0l0,0a.1.1,0,0,1,0,0l0,.07,0-.05a.3.3,0,0,1,0,.1v0a.3.3,0,0,1,0,.1s0,0,0,0a.35.35,0,0,1,0,.08l0,0,0,.06,0,0-.06,0,.06,0,0,0a.22.22,0,1,0,.12.43Z"/><path class="cls-13" d="M90.68,31.4a.49.49,0,0,0,0,.24,1,1,0,0,0,.06.16A.6.6,0,0,0,91,32a.62.62,0,0,0,.71-.06.24.24,0,0,0,0-.28,1.25,1.25,0,0,0-.89-.62.25.25,0,0,0-.17,0,.3.3,0,0,0-.11.14.22.22,0,0,0,.16.28l.25.07,0,0,.15.07.06.05s0,0,0,0l0,0,.11.11c0,.05,0,0,0,0l0,0,0,.08,0-.28h0l0,0,.06,0-.09,0h.06a.17.17,0,0,1-.1,0h.06l-.12,0,.06,0-.08,0s0,0,0,0,0,0,0,0l0,0s0,0,0,0,0,.05,0,0a.3.3,0,0,0,0-.08l0,.06,0-.08a.13.13,0,0,1,0,.06v-.08a.13.13,0,0,1,0,.06h0a.28.28,0,0,0,0-.18.24.24,0,0,0-.31-.08S90.68,31.34,90.68,31.4Z"/><path class="cls-14" d="M45.47,64.32a1.89,1.89,0,0,1,1.74-.64,1.33,1.33,0,0,0,1.32-1.32A1.35,1.35,0,0,0,47.21,61a4.44,4.44,0,0,0-3.61,1.41C42.45,63.69,44.31,65.57,45.47,64.32Z"/><path class="cls-14" d="M44.29,61.72a7.89,7.89,0,0,0,1.08,2.38l1.5-1.95a11.22,11.22,0,0,0-3.47-.79,1.33,1.33,0,0,0-1.32,1.32A1.35,1.35,0,0,0,43.4,64a8.52,8.52,0,0,1,2.76.71c1.06.44,2.12-1,1.5-1.95A5.35,5.35,0,0,1,46.84,61,1.32,1.32,0,0,0,44.29,61.72Z"/><path class="cls-2" d="M44.65,67.08a70.29,70.29,0,0,0,1.4,10C46.6,79.66,50.54,78.57,50,76a61,61,0,0,1-1.25-8.92C48.57,64.47,44.48,64.45,44.65,67.08Z"/><path class="cls-2" d="M46.39,68.68l2.47.2a2.05,2.05,0,0,0,2-2,2.08,2.08,0,0,0-2-2l-2.47-.2a2.06,2.06,0,0,0-2,2A2.1,2.1,0,0,0,46.39,68.68Z"/><path class="cls-2" d="M45.39,67.6c8.89-1.14,13.85,7.67,17.4,14.34l1.77-3.07a271.15,271.15,0,0,1-49.18,1c-2.62-.18-2.61,3.9,0,4.08a271.15,271.15,0,0,0,49.18-1,2.07,2.07,0,0,0,1.76-3.07C62.12,72,55.79,62.18,45.39,63.52,42.81,63.85,42.78,67.94,45.39,67.6Z"/><path class="cls-2" d="M24.64,60.64c-3,2.26-6.13,4.94-8,8.27-2,3.55-1.76,8-1.39,11.91l2-2,.37.12c-2.31-1.24-4.38,2.28-2.06,3.52a3.24,3.24,0,0,0,1.69.44,2,2,0,0,0,2-2c-.29-3.12-.74-7,.84-9.86a23.7,23.7,0,0,1,6.54-6.81C28.78,62.6,26.74,59.05,24.64,60.64Z"/><path class="cls-2" d="M26.57,64.86,38.4,69.25c3.75,1.39,7.57,2.84,11.65,2.41,2.56-.27,2.65-4.26,0-4.08A7.38,7.38,0,0,1,44.77,66a2.07,2.07,0,0,0-3.48,1.44c-.07.45-.21,2.17-.86,2.26-.37.05-.79-.41-1.1-.58a5.42,5.42,0,0,0-3.76-.6c-2.82.57-4.47,2.9-5.81,5.25l3.73.48c-.51-1.83-.74-5.15-2.89-5.84s-3.81,1.77-5.08,3.09L29,73a30.64,30.64,0,0,0-.14-6.35c-.19-1.43-1.63-2.68-3.08-1.76A9.47,9.47,0,0,0,21.47,71c-.44,2.13,2.66,3.77,3.74,1.57a14.26,14.26,0,0,0,1.51-6.38,2.06,2.06,0,0,0-3.81-1,29.74,29.74,0,0,0-5.22,13.75,2.05,2.05,0,0,0,2.58,2A12.43,12.43,0,0,0,28.71,66.4,2.07,2.07,0,0,0,25,65.91,33.15,33.15,0,0,0,21.61,79a2.05,2.05,0,0,0,2.58,2A17.86,17.86,0,0,0,32,74.89c1.62-2.23,3.18-5.52,1.63-8.19-2-3.42-5.8-1.31-7.58,1-1.62,2.12-4.25,6.3-2,8.82s7,.19,9.28-.85c2.69-1.21,7.19-3.5,7.13-7,0-3.12-3.78-4.43-6.24-3s-4,5.08-3.83,7.89c.62,9.18,16.15,1.79,20.24-.48a2.06,2.06,0,0,0-.49-3.73,56.29,56.29,0,0,0-15.38-2.06c-2.21,0-2.88,3.65-.54,4,4.12.62,8-.35,12.16-.35,2.78,0,6,.68,7.44,3.26l2.31-3a87.57,87.57,0,0,0-26.21.33c-2.32.39-1.7,4,.54,4l27,.25c-.18-1.34-.36-2.68-.55-4-13.23,3.21-27,1.21-40.44,3.07-2.33.32-1.68,4,.55,4q22.2.31,44.41-.3c-.18-1.34-.36-2.68-.55-4-11,2.21-22.19,2.45-33.35,2.68-2.65,0-2.61,3.9,0,4.08,6.29.42,12.59.73,18.89.89,5.31.15,11.51,1,16.34-1.66a2.06,2.06,0,0,0,0-3.52A162.45,162.45,0,0,1,44.3,64.9c-1.81-1.38-3.53,1.18-2.79,2.79,1.35,3-1.77,5.52-4.24,6.32-3.4,1.11-7.11.67-10.63,1-2.59.22-2.62,4.31,0,4.08,4.93-.41,10.34.3,14.75-2.47,3.74-2.36,5.53-6.85,3.64-11l-2.79,2.8A162.79,162.79,0,0,0,60.68,80.61V77.08c-2.13,1.19-4.52,1.25-6.9,1.25-2.93,0-5.87-.09-8.8-.18q-8.73-.27-17.46-.86v4.09c11.53-.24,23.1-.54,34.44-2.83,2.26-.46,1.74-4.08-.55-4q-22.2.63-44.41.3c.19,1.34.37,2.68.55,4C31,77,44.7,79,58,75.78c2.26-.55,1.74-4-.55-4l-27-.24.54,4a80.72,80.72,0,0,1,24-.34c1.67.23,3.28-1.31,2.3-3-1.78-3.08-5-4.62-8.44-5.09-4.54-.62-9.07,1-13.6.31l-.54,4a52.33,52.33,0,0,1,14.3,1.91c-.17-1.24-.33-2.49-.49-3.73a37.26,37.26,0,0,1-6.76,3c-1.11.36-2.23.66-3.37.91-.87.2-2.58.83-3.46.48-1.33-.54,0-3.43.74-4.23.12-.13.7-.48.73-.54.37-.66-.51.11-.53.11-1,.46-2,1.5-3,2.06a17.78,17.78,0,0,1-3.13,1.37,31.19,31.19,0,0,0-3.15.76c.43.67.68.78.74.32a5.16,5.16,0,0,1,.28-.78,10.93,10.93,0,0,1,.73-1.45c.44-.76,1.18-2.21,2.05-2.58-.45.19-.17-.44-.27.54a4.08,4.08,0,0,1-.4,1.19,11.94,11.94,0,0,1-1.45,2.33,13.19,13.19,0,0,1-5.22,4c.87.65,1.73,1.31,2.59,2a28,28,0,0,1,2.8-11l-3.73-.49a8.25,8.25,0,0,1-5.58,9.44l2.58,2a25.55,25.55,0,0,1,4.67-11.68l-3.81-1a9.5,9.5,0,0,1-.95,4.32l3.73,1.57a5.38,5.38,0,0,1,2.44-3.66l-3.07-1.76A30,30,0,0,1,24.91,73c-.15,1.78,2.32,2.66,3.49,1.44l1.21-1.27.41-.42c.54-.45.55-.55,0-.27l-1.45-.6c-.16-.4-.14-.26.09.42.08.31.17.62.26.93l.6,2.17a2.06,2.06,0,0,0,3.73.49c.67-1.18,1.58-3.13,3.11-3.33,1.27-.17,2.47,1.28,3.86,1.3,3.56.06,4.73-3.47,5.12-6.36l-3.49,1.44A11.5,11.5,0,0,0,50,71.68V67.6c-4,.41-7.6-1.17-11.24-2.52L27.64,60.94C25.18,60,24.12,64,26.57,64.86Z"/><path class="cls-15" d="M42.48,36.24c-2.42,0-4.83-.17-7.24-.3-1.74-.09-3.55,0-4.86,1.34-1.85,1.84-2.43,5.37-2.95,7.84a19.42,19.42,0,0,0-.4,8,6.1,6.1,0,0,0,1.55,3,4.64,4.64,0,0,0,1.21.85,4.58,4.58,0,0,0,.89.35c.63.15.72.38-.22-.36l.42-3.21c.85-.55.77-.16,0-.17l-1,0A4.67,4.67,0,0,0,28,54c-1.8.81-.93,3.15.49,3.73s3.38.44,4.93.54c1.16.08,2.61,0,3.6.64,1.78,1.2,2.8,3.73,4,5.45a2.06,2.06,0,0,0,3.8-1c.16-4.21,3.7-7.63,2.89-12,0-.23-1.13-3.79-1.43-3.67-.31.83-.23,1,.25.56.25-.18.49-.37.73-.58a3.88,3.88,0,0,0,.82-1.29c1.18-2.89-1.19-4.7-1.9-7.22a2.05,2.05,0,0,0-2-1.5,5.64,5.64,0,0,0-2.95,1c-2.08,1.56-.05,5.1,2.06,3.52a1.91,1.91,0,0,1,.89-.49l-2-1.5c.39,1.4,1.32,2.37,1.85,3.67s-.31,1.12-1,1.87c-2.06,2.17.32,4.12.66,6.37.3,1.92-.91,4-1.56,5.76a17.67,17.67,0,0,0-1.42,5.47l3.81-1c-1.55-2.23-2.79-4.83-5-6.54a7,7,0,0,0-3.8-1.36c-1.91-.23-4.42.12-6.2-.61.16,1.25.32,2.49.49,3.74-1.26.57-1,.21-.32.23.37,0,.75,0,1.12,0A4.26,4.26,0,0,0,33,57.34c1-.64,1.5-2.35.41-3.21S31.29,53.75,31,52a15.33,15.33,0,0,1,.36-5.6,21.18,21.18,0,0,1,1.6-5.71c.67-1.19,2.6-.66,3.77-.59,1.92.11,3.85.17,5.79.21C45.11,40.38,45.11,36.29,42.48,36.24Z"/><path class="cls-14" d="M38.49,60.55A24.82,24.82,0,0,1,39.44,63c.13.41.25.83.36,1.24,0,.14.07.28.1.42,0,.79.49.73,1.36-.17l.6.78a1.8,1.8,0,0,0,0-.19,1.32,1.32,0,0,0-2.54.71,1.72,1.72,0,0,0,3.37-.44,8.06,8.06,0,0,0-.65-3,29.47,29.47,0,0,0-1.22-3.11C40.07,57.67,37.79,59,38.49,60.55Z"/><path class="cls-14" d="M39.07,60a12.91,12.91,0,0,1,1.28,4.46c.16,1.68,2.8,1.7,2.64,0a16.49,16.49,0,0,0-1.63-5.79C40.6,57.09,38.32,58.43,39.07,60Z"/><path class="cls-15" d="M33.24,43.07a25.16,25.16,0,0,1,9.09,1V40.14c-3,1.26-6.93.8-10.17.91a2.05,2.05,0,0,0-.54,4c1.73.63,3.58.42,5.39.55a25,25,0,0,1,6.09,1.3V43a16,16,0,0,1-5.94.87,7.73,7.73,0,0,0-4.92,1.29c-.94.76-2,2.7-.89,3.8.21.48.25.25.13-.68l-.27.27a2.6,2.6,0,0,0-.58.69,3.33,3.33,0,0,0-.6,2,2.05,2.05,0,0,0,4,.54,23,23,0,0,0,.83-5.47c.09-2.39-3.3-2.65-4-.54-.64,1.9-.91,4.57.41,6.25a3.11,3.11,0,0,0,4.79,0c1.14-1.25,1.89-3.42.42-4.73s-3.67-.36-4.76,1c-2.81,3.38.7,8,4.68,7.36s6-5.38,3.26-8.46a2.08,2.08,0,0,0-2.89,0A5.9,5.9,0,0,0,35,52.27c.31,1.86,1.66,3.75,3.72,3.75,4.25,0,5.46-6.92,2-8.9a2.06,2.06,0,0,0-3.07,1.76c.06,2.7.7,7.94,4.79,6.09,3.14-1.42,2.6-6.08.87-8.34a2.07,2.07,0,0,0-3.81,1,13.55,13.55,0,0,0,.62,4.73,15.93,15.93,0,0,0,.58,2.46c1.36-.5,1.59-.87.67-1.09-.3-.12-.6-.25-.9-.35a24.86,24.86,0,0,0-9.74-1.5c-2.62.1-2.63,4.19,0,4.08a21.56,21.56,0,0,1,6.5.66c1.71.46,3.95,2,5.72,1.38,3.91-1.46.38-7.62.63-10.37l-3.8,1a4.06,4.06,0,0,1,.67,1.11c.09.26.06,1.12.16,1.25l1.36.57-.12-.77a18.44,18.44,0,0,1-.12-2L38.7,50.64s-.38,2.08.34,1.08c0,0,0-.72,0-.86a1.9,1.9,0,0,1,.6-.93H36.77c.52.57-.37,1.44-.91,1.53-.71.14-1.29-.84-.83-.79l-1.44-.6.22.26c-.2-.48-.39-1-.6-1.44-.27.3-.06.43.6.37.73.43.94.26.62-.53.22-.56.16-1.34.37-1.95l-4-.55a18.59,18.59,0,0,1-.68,4.39l4,.54c0,.59.69-.49.82-.7a3.3,3.3,0,0,0,.51-1.07,3.19,3.19,0,0,0,0-1.41,3.76,3.76,0,0,0-.44-.9c-.09.84.12,1.15.64,1a11.19,11.19,0,0,0,2.15-.09c.64,0,1.27,0,1.91,0a15.47,15.47,0,0,0,4.5-1,2.06,2.06,0,0,0,0-3.93,28.86,28.86,0,0,0-5.89-1.32c-1.81-.22-3.86.09-5.59-.53l-.54,4c3.58-.13,7.87.34,11.25-1.06,1.77-.74,2.09-3.32,0-3.94A28.72,28.72,0,0,0,33.23,39C30.63,39.16,30.62,43.24,33.24,43.07Z"/><path class="cls-16" d="M30.08,36.74c2.12,2.2,5.08,2.66,8,2.66s6-.19,7.88-2.67.76-5.7-1.71-7.42-5.83-2-8.8-2c-3.23-.05-6.57.46-9.22,2.42-2.2,1.63-4.47,4.77-2.79,7.5S29,40.27,31.8,39.59a16.65,16.65,0,0,0,4.25-1.83c1.24-.71,2.75-1.47,3.38-2.83,1.65-3.6-2.58-4.91-5.28-4.86-3.57.06-6.82,1.41-8.17,4.89-.59,1.53,1.14,2.83,2.51,2.51a66.36,66.36,0,0,1,14.24-1.75c-.34-1.27-.68-2.54-1-3.81-4.1,3.15-10,1.27-14.24,4.43a8.76,8.76,0,0,0-1.27,13.28,2.06,2.06,0,0,0,3.48-1.44,29.82,29.82,0,0,1,1.18-8.76,2.05,2.05,0,0,0-2-2.58c-5.12.3-4.95,7.64-3.8,11.16A2.06,2.06,0,0,0,29,48a46.57,46.57,0,0,1,4.7-9.78c1.32-2.28-2.2-4.34-3.53-2.06a51.44,51.44,0,0,0-5.1,10.76H29a9.62,9.62,0,0,1-.54-3.36,21.7,21.7,0,0,1,.4-2.64l-2-2.58a34.1,34.1,0,0,0-1.32,9.84l3.48-1.44a4.44,4.44,0,0,1-.74-5.39,6.49,6.49,0,0,1,4.56-3c3.71-.84,7.7-.49,10.87-2.94,1.49-1.13,1.2-3.83-1-3.8a71.94,71.94,0,0,0-15.33,1.9L29.92,36c.7-1.82,3.24-1.93,4.86-1.89a7.54,7.54,0,0,1,1.27.15c-.12-.38-.23-.75-.34-1.12l-.36.23c-.87.15-1.94,1.17-2.77,1.56s-5.68,1.89-5.46-.3c.17-1.7,3.45-2.79,4.74-3.06a20.35,20.35,0,0,1,6.33-.12c1.15.14,4.72.69,4.69,2.36s-3.7,1.46-4.78,1.46c-1.83,0-3.79-.07-5.14-1.46C31.14,32,28.25,34.85,30.08,36.74Z"/><path class="cls-16" d="M24.55,34.23c-1.58,1.18-1.66,3.17-1.42,5a9,9,0,0,0,2.28,5.29c.82.84,2.12-.45,1.29-1.29a7,7,0,0,1-1.74-4c-.15-1-.41-2.75.51-3.44a.93.93,0,0,0,.33-1.24A.91.91,0,0,0,24.55,34.23Z"/><path class="cls-16" d="M25.79,31.36c-1.9,1-2.41,3.32-2.5,5.32a22.83,22.83,0,0,0,1,7.66c.34,1.12,2.11.64,1.76-.48a21.22,21.22,0,0,1-.93-6.67c0-1.47.16-3.47,1.62-4.26C27.75,32.38,26.83,30.8,25.79,31.36Z"/><path class="cls-16" d="M25,31.16c-3.16,1.65-3,5.88-2.8,8.92.21,3.72.65,8.05,3.4,10.82a1.64,1.64,0,0,0,2.32-2.32c-1.92-1.93-2.19-5.22-2.39-7.79-.13-1.74-.8-5.78,1.13-6.79S26.89,30.18,25,31.16Z"/><path class="cls-15" d="M31.8,41.79a3.9,3.9,0,0,0-4.41-3.63,4.25,4.25,0,0,0-3.45,4.7,5.15,5.15,0,0,0,3.95,4.28c2.33.53,4.94-.87,4.86-3.48s-4.15-2.64-4.08,0a1,1,0,0,1,.34-.47,1.87,1.87,0,0,1-.34-.07c-.29-.22-.59-.28-.69-.69s.25.23.06-.29c0,0,0,.07,0,0-.12-.29-.2.48-.29-.4a2.1,2.1,0,0,0,2.05,2A2,2,0,0,0,31.8,41.79Z"/><path class="cls-2" d="M26.05,58a34.78,34.78,0,0,0,5.69,2.31c.95.28,1.91.52,2.89.71.66.12,2.14,0,2.64.4l-1-1.76a7.91,7.91,0,0,1-.66,3.32L36.81,62c.39-.11-.57-.21-.77-.28-.4-.14-.81-.3-1.21-.48-1-.42-1.92-.92-2.85-1.43-1.74-1-3.42-2.08-5.09-3.17.24.93.49,1.86.73,2.79.13-.25.24-.51.35-.77.17-.55,0-.5-.47.17L25.93,59c1.53.56,3,1.7,4.49,2.36a35.68,35.68,0,0,0,4.75,1.68c2.53.71,3.61-3.23,1.09-3.93a34,34,0,0,1-7.79-3.35c-1-.56-1.91-1-3-.49s-.92,1.17-1.35,2.07a2.1,2.1,0,0,0,.74,2.79A56.84,56.84,0,0,0,33,64.88c2.34,1,5.62,2.37,6.61-1,.72-2.48,1.64-6.05-1.83-6.52a30.06,30.06,0,0,1-9.68-2.92C25.77,53.25,23.7,56.77,26.05,58Z"/><path class="cls-2" d="M38.05,58.86c-.2,2.17-.41,4.34-.61,6.51l2-1.14-4.07-2.06c-1.51-.76-2.85,1.52-1.33,2.28l4.06,2.06a1.34,1.34,0,0,0,2-1.14c.2-2.17.41-4.34.61-6.51C40.85,57.17,38.21,57.18,38.05,58.86Z"/><path class="cls-2" d="M38.17,61a1.32,1.32,0,0,0,0-2.64A1.32,1.32,0,0,0,38.17,61Z"/><path class="cls-14" d="M42.19,65.55c3,5.4,2.72,11.85,3.55,17.8a.59.59,0,0,0,.73.42.61.61,0,0,0,.42-.74C46.05,77,46.29,70.47,43.22,65,42.85,64.26,41.81,64.87,42.19,65.55Z"/><path class="cls-14" d="M45.81,61.41a12.56,12.56,0,0,0,2.56,2.43,1.31,1.31,0,0,0,1.8-.47,1.35,1.35,0,0,0-.47-1.81,11.08,11.08,0,0,1-2-2,1.33,1.33,0,0,0-1.87,0A1.36,1.36,0,0,0,45.81,61.41Z"/><path class="cls-14" d="M48.88,63c.19.2.37.4.56.59.2-.47.4-.95.59-1.43h-.3a2.35,2.35,0,0,1-.45-.14.85.85,0,0,0-1,.59.86.86,0,0,0,.59,1,3.05,3.05,0,0,0,1.19.21.85.85,0,0,0,.6-1.43l-.56-.6a.86.86,0,0,0-1.19,0A.87.87,0,0,0,48.88,63Z"/><path class="cls-14" d="M46.19,60.12a.84.84,0,0,0,0-1.68A.84.84,0,0,0,46.19,60.12Z"/><path class="cls-14" d="M40.29,58.66a25.44,25.44,0,0,1-.89,8.1.48.48,0,0,0,.92.26,26.5,26.5,0,0,0,.93-8.36C41.22,58.05,40.26,58.05,40.29,58.66Z"/><path class="cls-14" d="M23.88,59.64c1.21,2.63,4.58,2.31,6.66,3.76.51.35,1-.48.49-.83a13.81,13.81,0,0,0-3.69-1.44,4.13,4.13,0,0,1-2.63-2C24.45,58.6,23.62,59.09,23.88,59.64Z"/><path class="cls-14" d="M30.74,63.8c1.6,1,3.19,1.92,4.8,2.87,1.25.75,2.82,1.86,4.31,1,.54-.3,0-1.13-.49-.83a2.05,2.05,0,0,1-1.9-.2c-.7-.35-1.36-.79-2-1.19L31.22,63A.48.48,0,0,0,30.74,63.8Z"/><path class="cls-14" d="M42.25,71.2a.92.92,0,0,0-.3.29l-.08.18s0,.07,0,.1a1.49,1.49,0,0,0,0,.21,1.64,1.64,0,0,0,0,.22.72.72,0,0,0,.12.27.62.62,0,0,0,.53.32,1,1,0,0,0,.42-.12.76.76,0,0,0,.25-.19.85.85,0,0,0,.17-.25,1.8,1.8,0,0,0,.08-.21.91.91,0,0,0,0-.23,1.64,1.64,0,0,0,0-.22,1.43,1.43,0,0,0-.08-.22.33.33,0,0,0-.13-.13.32.32,0,0,0-.16-.09.41.41,0,0,0-.19,0,.28.28,0,0,0-.18.06.44.44,0,0,0-.22.29.5.5,0,0,0,0,.12.54.54,0,0,0,.06.25h0a.37.37,0,0,0-.05-.11.2.2,0,0,1,0,.11s0-.09,0-.13a.24.24,0,0,1,0,.12s0-.08,0-.13l0,.14s0-.08,0-.12a.54.54,0,0,1-.07.13l.07-.09a.94.94,0,0,1-.1.1l.1-.08a.41.41,0,0,1-.11.07l.11,0a.35.35,0,0,1-.11,0l.13,0h-.06l.24.07h0l.09.08-.06-.07.07.1a.41.41,0,0,0,0-.09.61.61,0,0,1,0,.12l0-.12s0,.09,0,.13v-.12s0,.08,0,.13l0-.12s0,.07,0,.11a.41.41,0,0,1,.05-.09l-.08.1.06-.06-.09.07,0,0a.53.53,0,0,0,.22-.29.41.41,0,0,0,0-.19.35.35,0,0,0-.06-.18.5.5,0,0,0-.29-.22A.46.46,0,0,0,42.25,71.2Z"/><path class="cls-2" d="M46.09,59a10.24,10.24,0,0,1,3.41,4.66c.36,1,2,.57,1.62-.45a12.26,12.26,0,0,0-4.19-5.67C46.08,56.91,45.24,58.37,46.09,59Z"/><path class="cls-17" d="M44.27,49.69a7.94,7.94,0,0,1-2.84.49,2,2,0,0,0-1,3.74,5,5,0,0,0,6.21-.78,2,2,0,1,0-2.84-2.84,2.47,2.47,0,0,1-.28.28c.14-.12.11-.12-.08,0,.48-.1-.65.12-.12,0a2.54,2.54,0,0,1-.39,0c.2.05.19.05,0,0s-.26-.08-.08,0a2.33,2.33,0,0,1-.34-.2c-.34,1.25-.68,2.49-1,3.74a11.52,11.52,0,0,0,3.9-.64,2.06,2.06,0,0,0,1.4-2.47A2,2,0,0,0,44.27,49.69Z"/><path class="cls-18" d="M30.5,43.2a1.89,1.89,0,0,0-.39-2.32,2.31,2.31,0,0,0-2.61-.21A3.35,3.35,0,0,0,26,42.73a2.11,2.11,0,0,0,.64,2.41,1.46,1.46,0,0,0,1.24.12,1.19,1.19,0,0,0,.84-1.08.62.62,0,0,0-.61-.6.63.63,0,0,0-.6.6c0-.18,0-.08,0,0s0,0,0-.05c-.06.14.07,0,0,0l0,0c0,.06.1-.12,0,0s-.1,0,0,0,0,0,0,0l-.07,0c-.1,0,0,0,.05,0h-.15c-.1,0,.05,0,.06,0l-.08,0-.07,0,.05,0,0,0c-.09,0,.05,0,0,0l-.06-.06h0a.35.35,0,0,1-.05-.08l-.05-.09c.06.11,0,0,0,0a.29.29,0,0,1,0-.09s0-.19,0,0a2.67,2.67,0,0,1,0-.4c0-.12,0,0,0,0a.44.44,0,0,1,0-.1c0-.08,0-.16,0-.25s.09-.27.14-.4c0,.11,0,0,0,0l.05-.09.13-.23a1.74,1.74,0,0,1,.11-.18c-.06.1.06,0,.07-.08l.15-.15.08-.06c.12-.11-.1,0,0,0l.18-.11.09,0s.11,0,0,0l.2-.07.1,0c.11,0-.05,0,0,0a1.92,1.92,0,0,1,.24,0h.1s-.12,0,0,0l.2.06s.1,0,0,0l.12.06.08,0c.06,0-.07-.07,0,0l.08.08c.05,0,.06.06,0,0l.12.19s0,.1,0,0l0,.11a.24.24,0,0,1,0,.08c0,.08,0,.07,0,0a.83.83,0,0,1,0,.22v0s0,.12,0,.13-.05.09,0,0l-.06.12a.6.6,0,0,0,.21.82A.62.62,0,0,0,30.5,43.2Z"/><path class="cls-18" d="M45.69,48.88a2.44,2.44,0,0,1,.27.29l-.1-.12a2.78,2.78,0,0,1,.28.47s0-.09-.07-.14a1.82,1.82,0,0,1,.15.54,1,1,0,0,0,0-.16.15.15,0,0,0,0,.07.66.66,0,0,0,.17.42.64.64,0,0,0,.43.18.62.62,0,0,0,.6-.6,3.1,3.1,0,0,0-.1-.53A2.64,2.64,0,0,0,46.53,48a.66.66,0,0,0-.42-.17.61.61,0,0,0-.43.17.61.61,0,0,0-.17.42A.6.6,0,0,0,45.69,48.88Z"/><path class="cls-18" d="M41.3,46a1.72,1.72,0,0,0,.46,1.71,1.84,1.84,0,0,0,.82.42,1.77,1.77,0,0,0,.94-.07.36.36,0,0,0,.2-.11.41.41,0,0,0,.16-.16.69.69,0,0,0,.06-.47.61.61,0,0,0-.28-.35.62.62,0,0,0-.46-.07.9.9,0,0,1-.28.08l.16,0h-.31l.16,0a1.09,1.09,0,0,1-.28-.08l.15.07a1.28,1.28,0,0,1-.25-.15l.12.1a1.07,1.07,0,0,1-.18-.19l.09.12a1,1,0,0,1-.14-.24l.06.14a1.38,1.38,0,0,1-.08-.29.78.78,0,0,1,0,.16,1.31,1.31,0,0,1,0-.28,1,1,0,0,1,0,.16,1,1,0,0,1,0-.17.6.6,0,0,0-.42-.74A.59.59,0,0,0,41.3,46Z"/><path class="cls-18" d="M41.29,59.1l1.6.21-.6-.6A16.25,16.25,0,0,0,43,62.17l1.1-.46-1.7-2.93a.6.6,0,1,0-1,.61c.57,1,1.13,2,1.7,2.93a.61.61,0,0,0,.76.24.59.59,0,0,0,.34-.71,15.2,15.2,0,0,1-.68-3.15.64.64,0,0,0-.6-.6l-1.6-.2a.6.6,0,0,0-.6.6A.62.62,0,0,0,41.29,59.1Z"/><path class="cls-18" d="M43.36,59.42l.57.08V58.34a2.61,2.61,0,0,0-.42.16,2.09,2.09,0,0,0-.57.44,2.26,2.26,0,0,0-.26.37l-.06.14a.49.49,0,0,0,0,.24.42.42,0,0,0,0,.16.59.59,0,0,0,.13.19.65.65,0,0,0,.27.15.39.39,0,0,0,.24,0,.44.44,0,0,0,.22-.07l.93-.56a.59.59,0,0,0,.27-.35.39.39,0,0,0,0-.24.48.48,0,0,0-.07-.23.58.58,0,0,0-.36-.27.58.58,0,0,0-.46.06l-.93.55.82.82.12-.18-.09.12a1.28,1.28,0,0,1,.26-.26l-.13.1.3-.18-.14.06.21-.06.15-.07a.38.38,0,0,0,.16-.15.26.26,0,0,0,.08-.13.46.46,0,0,0,0-.23.61.61,0,0,0-.08-.3.5.5,0,0,0-.15-.17.43.43,0,0,0-.21-.11l-.56-.07a.39.39,0,0,0-.24,0,.39.39,0,0,0-.23.07.58.58,0,0,0-.27.36.58.58,0,0,0,.06.46l.09.12A.59.59,0,0,0,43.36,59.42Z"/><path class="cls-2" d="M39.6,58.83,41.34,62c.64,1.15,1.69,2.5,1.14,3.85-.4,1,1.22,1.44,1.62.45a4.25,4.25,0,0,0-.52-3.7c-.79-1.56-1.69-3.07-2.53-4.6C40.53,57,39.07,57.88,39.6,58.83Z"/><path class="cls-19" d="M41,62.68A8.35,8.35,0,0,0,43.56,64a.6.6,0,0,0,.74-.42.62.62,0,0,0-.42-.74,5.67,5.67,0,0,1-.66-.22l-.16-.06c.15.07,0,0-.05,0l-.29-.14a7.76,7.76,0,0,1-1.17-.71.61.61,0,0,0-.82.22A.61.61,0,0,0,41,62.68Z"/><path class="cls-19" d="M42.76,64.12a3.2,3.2,0,0,1,.34.7,1,1,0,0,1,.06.23.29.29,0,0,1,0,.09h0v.16c0,.06,0,0,0,0l0,.12s-.06.16,0,.1,0,.07-.05.09a.21.21,0,0,0,0,.06s.07-.08,0,0l-.06,0s0,0,0,0h0l-.07,0s.1,0,0,0l-.07,0h0a.11.11,0,0,0-.08,0c-.06,0,0,0,0,0s-.17,0-.09,0l-.07,0c-.12-.07,0,0,0,0a.94.94,0,0,1-.1-.1s-.05-.07,0,0,0,0,0,0a1.51,1.51,0,0,1-.15-.28c0,.09,0,0,0,0L42.34,65l0-.15s0-.14,0,0l0-.36a7.4,7.4,0,0,0-.08-.81,2.23,2.23,0,0,0-.87-1.55.6.6,0,0,0-.73.94,13.31,13.31,0,0,1,1.71,2.19l.94-.73a1.15,1.15,0,0,0-.93-.37,1.22,1.22,0,0,0-1,.54l1.1.47a2.25,2.25,0,0,0-1.14-2.59.62.62,0,0,0-.89.36,2.83,2.83,0,0,0,.06,1.63.62.62,0,0,0,.66.43.6.6,0,0,0,.53-.59c0-.6,0-1.2,0-1.8a.62.62,0,0,0-.61-.6.61.61,0,0,0-.6.6c0,.6,0,1.2,0,1.8l1.18-.16c0-.1-.06-.19-.08-.29s0-.12,0-.08,0-.12,0-.12a2.43,2.43,0,0,1,0-.27.2.2,0,0,1,0-.07h0a.94.94,0,0,1,0-.16l-.88.35.22.13c.09.05,0,0,0,0l.09.09.08.09c.06.07-.06-.1,0,0a1.59,1.59,0,0,1,.13.22s0-.07,0,0,0,.1,0,.15l0,.1c0,.15,0-.08,0,0v.25c0,.07,0-.09,0,0l0,.14a.59.59,0,0,0,.34.71.63.63,0,0,0,.76-.24l0,0c-.14.15,0,0-.05,0s0,0,0,0-.12,0,0,0,0,0,0,0l.08,0-.07,0s.06,0,0,0,0,0,0,0a.6.6,0,0,0,.79,0,.6.6,0,0,0,.15-.78,14.8,14.8,0,0,0-1.89-2.43l-.73.95c-.1-.07,0,.05.07.07s.06.07,0,0,0,0,0,0l.08.15s0-.12,0,0l0,.1a2.34,2.34,0,0,1,.09.38s0,.05,0,.08c0-.12,0,0,0,0a1.49,1.49,0,0,1,0,.21,4.44,4.44,0,0,0,.37,1.73,1.71,1.71,0,0,0,1.38,1,1.51,1.51,0,0,0,1.5-1.13,2.88,2.88,0,0,0-.49-2.28.6.6,0,0,0-.82-.22A.62.62,0,0,0,42.76,64.12Z"/><path class="cls-19" d="M43.74,65a3.66,3.66,0,0,0-2.09-1.19.6.6,0,0,0-.52.1.59.59,0,0,0-.24.47,2,2,0,0,0,.92,1.54.61.61,0,0,0,.73-.1.62.62,0,0,0,.09-.72,1.43,1.43,0,0,0-.36-.45,1.85,1.85,0,0,0-.6-.36.6.6,0,0,0-.47.06.63.63,0,0,0-.27.68l.06.14a.77.77,0,0,0,.22.22l1,.76a.66.66,0,0,0,.46.06A.63.63,0,0,0,43,66a.62.62,0,0,0,.06-.46L43,65.34a.56.56,0,0,0-.22-.21l-1-.76c-.15.36-.31.73-.46,1.1l0,0-.14-.06a1,1,0,0,1,.24.14l-.13-.1a1.1,1.1,0,0,1,.22.21l-.09-.12a1.4,1.4,0,0,1,.1.16c.27-.27.55-.54.82-.82l-.13-.09.12.1a1.67,1.67,0,0,1-.23-.23l.1.12a1.61,1.61,0,0,1-.17-.28l.06.14a2,2,0,0,1-.09-.33.78.78,0,0,1,0,.16v-.08l-.76.58a3.22,3.22,0,0,1,.67.2l-.14-.06a2.92,2.92,0,0,1,.7.41l-.12-.1a4.47,4.47,0,0,1,.45.42.6.6,0,0,0,.85,0A.62.62,0,0,0,43.74,65Z"/><path class="cls-19" d="M44,63.1a1.42,1.42,0,0,1,1.37,0,2.11,2.11,0,0,1,1,1.22,4.34,4.34,0,0,1,.18,2s0,0,0,0,0,.08,0,0a.15.15,0,0,1,.12-.1h0l-.54,0-1.37,0,.58.44-.55-1.84c-.09-.3-.19-.61-.28-.92,0-.15-.1-.3-.14-.45a2.21,2.21,0,0,1,0-.29s0,0-.06.1a.36.36,0,0,1-.2.06s0,0,0,0,0,0,.06,0a1,1,0,0,1,.27.49,4.66,4.66,0,0,1,.18,1.7.6.6,0,0,0,.44.58.62.62,0,0,0,.68-.27A3.11,3.11,0,0,0,46.23,64l-.9.52a1,1,0,0,1,.39.46,1.25,1.25,0,0,1,.1.58H47a13.83,13.83,0,0,0-.93-2.88l-.95.73a1.8,1.8,0,0,1,.53,1,1.74,1.74,0,0,1,0,.51s0,.1,0,.09-.07.06,0,0a.69.69,0,0,1-.19,0,2.14,2.14,0,0,0-1.69,2.08.6.6,0,0,0,1.18.16c0-.07,0-.07,0,0s0-.06,0,0h0c.06,0,.06,0,0,0a.58.58,0,0,1,.36-.06h.19c-.11,0,.11,0,.13,0,.18,0,.36.09.55.12a2,2,0,0,0,1.24-.12,1.41,1.41,0,0,0,.7-1.15,5,5,0,0,0-.55-2.39A5.62,5.62,0,0,0,46,61.92a.6.6,0,0,0-.85.85,4.78,4.78,0,0,1,1.32,1.67,4.93,4.93,0,0,1,.31.94,1.66,1.66,0,0,1,0,.91c0-.05-.08.06,0,0s0,0-.07,0-.09,0,0,0a.17.17,0,0,1-.1,0s-.19,0-.15,0c-.34,0-.66-.17-1-.21a1.49,1.49,0,0,0-1.69,1l1.18.17a.92.92,0,0,1,.44-.8,3.11,3.11,0,0,1,.63-.2,1.21,1.21,0,0,0,.68-.6,2.83,2.83,0,0,0-.7-3.06.58.58,0,0,0-.78,0,.6.6,0,0,0-.16.77,12.36,12.36,0,0,1,.81,2.59c.12.56,1.07.58,1.16,0a2.37,2.37,0,0,0-1-2.4A.61.61,0,0,0,45,64a2,2,0,0,1-.35,1.31l1.12.3a5.14,5.14,0,0,0-.38-2.45c-.28-.63-1.07-1.27-1.78-.84s-.38,1.53-.17,2.24l.75,2.48a.61.61,0,0,0,.58.44l1.27,0a2.74,2.74,0,0,0,1.21-.16c.68-.38.62-1.4.56-2.07a3.66,3.66,0,0,0-2.25-3.36,2.59,2.59,0,0,0-2.16.15A.61.61,0,0,0,44,63.1Z"/><path class="cls-19" d="M44.38,68.11q0,7.52.74,15c.07.76,1.27.77,1.2,0q-.69-7.49-.74-15A.6.6,0,0,0,44.38,68.11Z"/><path class="cls-19" d="M46.83,67.65c.49,2.88,1.87,5.49,3.12,8.09a32.49,32.49,0,0,1,1.64,3.9,14.78,14.78,0,0,1,.51,2,9.48,9.48,0,0,1,.14,1.07c0,.19,0,.38,0,.56a2.72,2.72,0,0,1,0,.28c0,.24,0,.22.29-.06a.6.6,0,0,0-.6.6.62.62,0,0,0,.6.61c2,.26.12-5.66-.21-6.51-.91-2.33-2.15-4.52-3.13-6.83a18.31,18.31,0,0,1-1.23-4C47.86,66.57,46.7,66.89,46.83,67.65Z"/><path class="cls-19" d="M45.22,83.37a1.72,1.72,0,0,0,.17,1.4.62.62,0,0,0,.52.3,62.86,62.86,0,0,1,6.44-.1.6.6,0,0,0,0-1.2,62.86,62.86,0,0,0-6.44.1l.52.3a.49.49,0,0,1,0-.47C46.61,83,45.46,82.64,45.22,83.37Z"/><path class="cls-19" d="M45.3,68.11q.06,7.8.62,15.56a1.08,1.08,0,0,0,2.16,0c0-.19,0-.37,0-.56a1.08,1.08,0,0,0-2.16,0c0,.19,0,.37,0,.56h2.16q-.55-7.77-.62-15.56A1.08,1.08,0,0,0,45.3,68.11Z"/><path class="cls-19" d="M44.57,68.07c2.25,4.61,2.26,9.79,2.24,14.81A1.09,1.09,0,0,0,47.89,84c2,0,4.37.46,4.1-2.24-.32-3.11-1.9-6.22-3-9.12a1.09,1.09,0,0,0-2.13.29,36.29,36.29,0,0,0,1.45,10.4A1.09,1.09,0,0,0,50.48,83a11,11,0,0,0-.35-4.2L48,79.38a11.38,11.38,0,0,0,2.63,4.55,1.09,1.09,0,0,0,1.84-.76,15.11,15.11,0,0,0-1.56-7c-.61-1.25-2.47-.16-1.87,1.09a12.84,12.84,0,0,1,1.27,5.93l1.84-.76a9,9,0,0,1-2.06-3.6,1.09,1.09,0,0,0-2.09.58A9.42,9.42,0,0,1,48.32,83l2.12-.29a34,34,0,0,1-1.36-9.82L47,73.19c.76,2.08,1.54,4.15,2.25,6.25.13.37.25.75.36,1.13a9.52,9.52,0,0,0,.32,1.75c-.25-.43,1-.25-.15-.48a12.52,12.52,0,0,0-1.84,0c.36.37.73.73,1.08,1.08,0-5.43-.1-10.91-2.53-15.9C45.83,65.73,44,66.83,44.57,68.07Z"/><path class="cls-20" d="M43,63.18v1.44a.72.72,0,0,0,1.44,0V63.18A.72.72,0,0,0,43,63.18Z"/><path class="cls-20" d="M46.68,61.55c-.07-.24-.13-.48-.19-.72l-1.31.56.76,1.16a.73.73,0,0,0,1,.25.71.71,0,0,0,.26-1l-.76-1.16a.72.72,0,0,0-1.32.56c.07.24.13.48.19.72a.72.72,0,0,0,.88.5A.75.75,0,0,0,46.68,61.55Z"/><path class="cls-20" d="M45.57,68.25l1.37-.15c-.12-.45-.24-.9-.37-1.35a3.7,3.7,0,0,0-1.72,2.14l1.42.2,0-1.33c0-.93-1.37-.91-1.44,0A13.82,13.82,0,0,0,45,71.22c.14.78,1.16.59,1.39,0l1.13-2.88c.26-.66-.76-1.24-1.21-.7A6.54,6.54,0,0,0,45,73.42c.21.9,1.6.52,1.39-.39a4.93,4.93,0,0,1,1-4.37L46.17,68l-1.12,2.88h1.39a12.71,12.71,0,0,1-.14-3.08H44.86l0,1.33a.72.72,0,0,0,1.41.19A2.21,2.21,0,0,1,47.3,68c.58-.33.37-1.43-.36-1.34l-1.37.15C44.66,66.91,44.65,68.35,45.57,68.25Z"/><path class="cls-20" d="M40.48,62c0,.24,0,.48,0,.72l.71-.1,0-.14c0,.07,0,0,0,0a.38.38,0,0,1,0-.15v-.07h0a2.17,2.17,0,0,1,.07-.24h0l0-.06s0-.09.07-.13l-.49.13L41,62l0,0s0,0,.07.06l.27.24a4.77,4.77,0,0,1,.48.52,1.86,1.86,0,0,1,.18.23c.07.09.13.2.2.3s.23.42.33.64a.36.36,0,1,0,.62-.36,5.76,5.76,0,0,0-2-2.38.36.36,0,0,0-.49.12,1.75,1.75,0,0,0-.22,1.39.36.36,0,0,0,.71-.09c0-.24,0-.49,0-.73a.36.36,0,0,0-.36-.36A.39.39,0,0,0,40.48,62Z"/><path class="cls-2" d="M62.76,81.32c1,4.77-2.66,8.93-6.69,10.85-4.62,2.2-10.34,2.66-15.39,2.51C35.13,94.52,29.89,92.48,25,90c-4-2.08-8.84-5.86-7.28-11l-4-.54a17.94,17.94,0,0,0,2.37,7.74,2.07,2.07,0,0,0,2.31.94,4.76,4.76,0,0,0,3.31-3.19c.78-2.15-2.81-3.7-3.73-1.57-1.4,3.2.28,7.25,4,7.84a4.25,4.25,0,0,0,4.71-2.46,3.24,3.24,0,0,0-2.37-4.28,3,3,0,0,0-3.34,3.23c.22,1.68,2,2.74,3.5,3.12a6.7,6.7,0,0,0,7.92-4.19,2,2,0,0,0-.52-2c-2.92-3.17-7.87,1.3-5.49,4.76a4.91,4.91,0,0,0,5.11,1.75c2.16-.53,3.56-2.3,4.83-4a2.07,2.07,0,0,0-.73-2.79,5.43,5.43,0,0,0-8,2.77,2,2,0,0,0,.93,2.3,18.24,18.24,0,0,0,17.4-.25,2.07,2.07,0,0,0-.49-3.73,15.64,15.64,0,0,0-14.28,2.39,2.08,2.08,0,0,0,.49,3.73A20.28,20.28,0,0,0,48.05,89a2.06,2.06,0,0,0-.49-3.73l-5.78-1.59-.54,4a63.86,63.86,0,0,0,20.5-.8c-.83-.84-1.67-1.68-2.51-2.51-.45,3.28-3.91,4-6.72,4.28a96,96,0,0,1-10.45.4,108.68,108.68,0,0,1-11.26-.67c-1.36-.15-3.25-.79-4.53-.16a2.71,2.71,0,0,0-1.39,3c.49,2.6,3.44,3.7,5.73,4.18,3.28.69,6.71.44,10,.29a95,95,0,0,0,9.83-.76,9.8,9.8,0,0,0,6.82-3.69,2.08,2.08,0,0,0-.73-2.8,8.78,8.78,0,0,0-11.72,2.67,2.06,2.06,0,0,0,1.22,3,8.4,8.4,0,0,0,9.28-3.22c.83-1.09-.09-2.65-1.22-3a13.48,13.48,0,0,0-8.8.27c-2.43.93-1.38,4.88,1.09,3.94A9.81,9.81,0,0,1,53,91.84c-.41-1-.82-2-1.22-3a4.23,4.23,0,0,1-4.67,1.34c.4,1,.81,2,1.22,3A4.62,4.62,0,0,1,54.5,92c-.24-.93-.49-1.86-.73-2.8-1.07,1.41-3.23,1.69-4.86,1.86-2.51.27-5,.41-7.56.54s-4.83.27-7.24.16a14.35,14.35,0,0,1-3-.41c-.6-.15-1.13-.43-1.71-.6l-.52-.29q-.39-.82-.57,1.29l-1.57.21a114.7,114.7,0,0,0,22,1c5.31-.27,13.48-.76,14.42-7.54a2.08,2.08,0,0,0-2.51-2.51,60.29,60.29,0,0,1-19.42.66c-2.32-.29-2.7,3.42-.54,4l5.78,1.59c-.17-1.24-.33-2.49-.49-3.73a16.23,16.23,0,0,1-13.31,1.13c.17,1.25.33,2.49.49,3.73a11.9,11.9,0,0,1,11.13-2c-.17-1.25-.33-2.49-.49-3.74a13.92,13.92,0,0,1-13.27.25c.31.77.62,1.54.94,2.31.33-.82,1.43-.7,2-.33-.25-.93-.49-1.86-.74-2.8a5.77,5.77,0,0,1-2,2c-.23.1-.59,0-.77.14-.22-.16-.33-.09-.32.19s-.29.46-.76.13c-.17-.66-.35-1.32-.52-2-.38,1-3.11,2.26-3.72.86.07.53.14,1.05.2,1.57.11-.56-4.27-.55-3.41-2.54L17.74,82.8a.43.43,0,0,1-.46.34l2.3.94a13.31,13.31,0,0,1-1.81-5.68,2.05,2.05,0,0,0-4-.55c-1.88,6.25,2.46,11.78,7.59,14.79,5.8,3.4,12.57,5.92,19.32,6.12,6.28.18,13.58-.58,19-3.94,5-3.07,8.23-8.71,7-14.59C66.15,77.67,62.21,78.76,62.76,81.32Z"/><path class="cls-2" d="M64.55,85.34a5.48,5.48,0,0,0,1.5-4.23,2.09,2.09,0,0,0-2-2,2.06,2.06,0,0,0-2.05,2,3.78,3.78,0,0,1,0,.67c0-.48,0,.06-.06.2a2.25,2.25,0,0,1-.08.24c.1-.23.1-.23,0,0a2.75,2.75,0,0,1-.17.29c.15-.19.15-.2,0,0a2,2,0,1,0,2.89,2.88Z"/><path class="cls-2" d="M56.42,90.55c2.62,0,2.63-4.09,0-4.09S53.78,90.55,56.42,90.55Z"/><path class="cls-19" d="M51.18,82.21c1.26,2.71,1.78,5.84,2.54,8.73a19.3,19.3,0,0,0,1,3.15c.52,1.14,2,2.43,1.41,3.75s1.56,1.84,2.08.58a3.59,3.59,0,0,0-.36-3.3A17.52,17.52,0,0,1,56,91c-.89-3.3-1.49-6.78-2.92-9.89C52.46,79.85,50.59,81,51.18,82.21Z"/><path class="cls-19" d="M45.26,82.71c0,2.27,0,4.54.13,6.81a14.43,14.43,0,0,0,.7,5.19c1.45,3.32,6.61,3.87,7.15,7.58.15,1,1.51.92,2,.26a12.17,12.17,0,0,0,2.16-5.33c.14-1-1-1.93-1.81-1a8.32,8.32,0,0,0-1.7,2.77c-.36.94.83,1.63,1.59,1.23a6.63,6.63,0,0,0,1.82-1.42L55.43,98A3.42,3.42,0,0,1,55,99.71c-.49,1.05.79,2.27,1.69,1.31a5.22,5.22,0,0,0,1.49-3.33,1.09,1.09,0,0,0-2-.54A42.19,42.19,0,0,1,54,101l2,.55c-.14-1.65.12-3.29,0-4.94A20.43,20.43,0,0,0,55.15,92a37.63,37.63,0,0,0-1.48-3.87c-.55-1.26-1.08-3.09-2-4.11s-4.27-1.5-5.22,0c-.64,1-.28,2.59-.15,3.71a36.14,36.14,0,0,0,1,5,1.09,1.09,0,0,0,2.09,0A27.72,27.72,0,0,0,49.83,85a1.09,1.09,0,0,0-2.17,0,18,18,0,0,0,.77,5.79c.21.69,1.28,1.15,1.81.47a6.06,6.06,0,0,0,1.36-3.59H49.44a27.25,27.25,0,0,0,.15,3.61c.12,1.12,1.84,1.57,2.12.29A16.08,16.08,0,0,0,52,86.33,1.09,1.09,0,0,0,49.91,86a5.58,5.58,0,0,0-.35,2.68,1.08,1.08,0,0,0,2.16,0,9.86,9.86,0,0,0-.33-3c-.29-1.15-2.25-1-2.12.29a4.27,4.27,0,0,0,.7,2.11,1.09,1.09,0,0,0,1.87,0,5.92,5.92,0,0,0,.67-5.11c-.25-.82-1.56-1.15-2-.26-.88,1.86-2.75,8.11.67,8.48-.25-.62-.51-1.23-.76-1.85a16.8,16.8,0,0,0-2,2.42,1.09,1.09,0,0,0,1.22,1.59,17.72,17.72,0,0,0,3-1.2l-1.31-1.7a24.68,24.68,0,0,0-2.32,2.58c-.49.63-.28,2,.76,1.84a3.69,3.69,0,0,0,2-.71,1.09,1.09,0,0,0-.26-2,4,4,0,0,0-3.68.42,1.1,1.1,0,0,0,.26,2,1.57,1.57,0,0,0,1.56-.22l-1.31-.17a2.76,2.76,0,0,0,3.85,0L50.54,93c-.69,1-.81,2.81.81,3,1.81.24,2.14-1.7,1.77-3a1.09,1.09,0,0,0-1.8-.48,3,3,0,0,0-.06,4.32,1.1,1.1,0,0,0,1.53,0,3.32,3.32,0,0,0,.89-3.56,1.09,1.09,0,0,0-2.08,0,6.16,6.16,0,0,0,.39,4.1c.36.86,1.78.58,2-.26a8,8,0,0,0-.31-4.86,1.09,1.09,0,0,0-2.13.29,14,14,0,0,0,.87,6l2-.83a6.24,6.24,0,0,0-4.08-3.42,1.12,1.12,0,0,0-1.22.5l-.15.19.94-.53.34.13c-.86-1.09-2.38.45-1.53,1.53a1.36,1.36,0,0,0,2.26-.23l-1.22.49a4.18,4.18,0,0,1,2.8,2.43c.51,1.09,2.4.32,2-.83a12.57,12.57,0,0,1-.78-5.4l-2.13.29a6,6,0,0,1,.32,3.7l2-.25a3.69,3.69,0,0,1-.17-2.43H51.6a1.12,1.12,0,0,1-.33,1.46H52.8A.78.78,0,0,1,52.86,94l-1.81-.48,1.37.53c.7-1.07-.82-2.09-1.7-1.31l-.79,0a1.12,1.12,0,0,0-1.31-.17h.1c.09.66.17,1.32.26,2a2,2,0,0,1,2-.21c-.09-.66-.17-1.32-.26-2l-.87.42.76,1.84A23.51,23.51,0,0,1,53,92.07c.92-.88-.25-2.24-1.31-1.7a14.8,14.8,0,0,1-2.49,1l1.22,1.59A14.08,14.08,0,0,1,52,91a1.09,1.09,0,0,0-.77-1.84c.6.38.7.1.3-.82a8.81,8.81,0,0,1,.9-4.41l-2-.26A3.9,3.9,0,0,1,50,87.08h1.87l-.41-1-2.13.28a8,8,0,0,1,.26,2.38h2.16a4.42,4.42,0,0,1,.28-2.1l-2.13-.29A13.91,13.91,0,0,1,49.64,91l2.13.29a27.18,27.18,0,0,1-.15-3.61c0-1.4-2.1-1.38-2.17,0a3.39,3.39,0,0,1-.73,2.07l1.81.48A16.24,16.24,0,0,1,49.84,85H47.67a25.17,25.17,0,0,1-.39,7.14h2.09c-.3-1.1-.57-2.2-.76-3.32-.07-.43-.74-3-.35-3.49s1.75.24,2,.67a19.42,19.42,0,0,1,1.37,2.92,26.65,26.65,0,0,1,2,6.13c.4,2.19,0,4.35.19,6.54a1.1,1.1,0,0,0,2,.55c.8-1.26,1.53-2.54,2.2-3.87l-2-.55a2.49,2.49,0,0,1-.85,1.8l1.69,1.31A6.89,6.89,0,0,0,57.59,98a1.09,1.09,0,0,0-1.84-.76,4.79,4.79,0,0,1-1.38,1.07L56,99.53a5.09,5.09,0,0,1,1.14-1.82l-1.81-1a10.8,10.8,0,0,1-1.94,4.8l2,.26c-.53-3.62-4.17-4.4-6.4-6.67-1.51-1.54-1.3-3.85-1.39-5.86s-.12-4.31-.11-6.47A1.09,1.09,0,0,0,45.26,82.71Z"/><path class="cls-19" d="M48.34,97.76a6.34,6.34,0,0,0,2.11,2,6.33,6.33,0,0,1,2.15,2.94c.49,1.13,2.33.32,2-.83a9.14,9.14,0,0,0-2.22-3.44c-.54-.61-1.12-1.2-1.71-1.76S49,95.51,48.91,94.77c-.15-1.37-2.31-1.38-2.16,0S47.85,97,48.92,98c1.3,1.2,3,2.67,3.58,4.42l2-.83a8.41,8.41,0,0,0-1.73-2.81c-.8-.76-2-1.14-2.53-2.13A1.08,1.08,0,0,0,48.34,97.76Z"/><path class="cls-2" d="M31.66,78.22c2.62,0,2.63-4.08,0-4.08S29,78.22,31.66,78.22Z"/><path class="cls-2" d="M37.2,81.92c2.63,0,2.63-4.09,0-4.09S34.57,81.92,37.2,81.92Z"/><path class="cls-2" d="M42.44,73.9c2.63,0,2.63-4.08,0-4.08S39.81,73.9,42.44,73.9Z"/><path class="cls-2" d="M59.39,104.42c2.63,0,2.63-4.09,0-4.09S56.76,104.42,59.39,104.42Z"/><g class="cls-21"><path class="cls-22" d="M150.22,89.85a11.84,11.84,0,0,0,0,4.4l3.31-4.34-7.39-.56a3.46,3.46,0,0,0-3.43,3.43,3.52,3.52,0,0,0,3.43,3.43,32.62,32.62,0,0,0,7.65,0l-3.31-2.52c.23.75.47,1.5.7,2.25,1.1-1.45,2.21-2.89,3.3-4.34a77.45,77.45,0,0,1-31.6-2.75c-4.24-1.29-6,5.27-1.82,6.61A73,73,0,0,0,153.8,98.2c3.25-.45,8-.91,8.78-4.92a3.53,3.53,0,0,0-2.39-4.22A3.47,3.47,0,0,0,156,91.45c.12-.66,1.41-.9.3-.6-.66.18-1.35.28-2,.4-1.38.23-2.75.41-4.14.54a72.1,72.1,0,0,1-9.41.25,67.63,67.63,0,0,1-17.84-3.19L121,95.46a82.72,82.72,0,0,0,33.43,3c2.1-.25,4-2,3.3-4.34-.23-.75-.46-1.5-.7-2.25-.4-1.3-1.8-2.69-3.3-2.52a31.5,31.5,0,0,1-7.64,0v6.86l7.38.56c2.43.18,3.64-2.33,3.3-4.34a2.77,2.77,0,0,1,0-.76,3.52,3.52,0,0,0-2.39-4.21A3.45,3.45,0,0,0,150.22,89.85Z"/><path class="cls-23" d="M132.64,29a13.87,13.87,0,0,1,7.17.36,25.28,25.28,0,0,1,6.61,2.29,1.51,1.51,0,0,0,1.52-2.61,29.14,29.14,0,0,0-7.82-2.71,16.38,16.38,0,0,0-8.28-.24A1.51,1.51,0,0,0,132.64,29Z"/><path class="cls-23" d="M131.17,26.41a8,8,0,0,0-2.11,8.85c1.34,3.36,4.52,5,7.95,5.45a11.2,11.2,0,0,0,12.75-10.26,1.52,1.52,0,0,0-1.51-1.51,2.55,2.55,0,0,0-1.06.18c-1.77.73-1,3.65.8,2.91l.26-.07-1.51-1.51a8.16,8.16,0,0,1-8.37,7.39c-2.37-.11-5.1-.92-6.28-3.16a5.06,5.06,0,0,1,1.21-6.14C134.72,27.22,132.59,25.09,131.17,26.41Z"/><path class="cls-23" d="M131.21,30.44c2.52.31,5,.63,7.53,1,2.22.31,4.63.45,6.7,1.36L145.8,30c-2.42.4-5.19-.52-7.61-.79s-5.23-.84-7.55,0c-1.1.39-1.64,2.17-.36,2.76a19.2,19.2,0,0,0,7.33,1.56c1.23.06,2.46.07,3.69.13s3-.05,3.95.62l-.7-.9.12.29,1.05-1.85a10.94,10.94,0,0,1-4.34,0c-1.43-.14-2.85-.28-4.28-.4s-3-.36-4.55-.34a2.27,2.27,0,0,0-2.34,1.52c-.67,2.62,3.36,2.89,5,3,2.93.23,5.87.36,8.8.52l-1.51-1.51c.52-.53.49-.67-.08-.43a4.91,4.91,0,0,1-1,.14,11.53,11.53,0,0,1-1.44,0c-1.13,0-2.26-.21-3.39-.28-1.44-.09-4-.35-4.53,1.49s1.71,2.81,3.11,3.19a16.52,16.52,0,0,0,6.15.15c1.91-.2,1.93-3.22,0-3a16.3,16.3,0,0,1-4.93.06c-.45-.1-.85-.31-1.28-.41l-.39-.21c-.63,1.26-.57,1.83.17,1.72a19.52,19.52,0,0,0,2.67.12c1.93.17,8.41,1,8-2.52a1.55,1.55,0,0,0-1.5-1.51l-6-.34c-.94-.06-1.87-.11-2.8-.19a11.06,11.06,0,0,1-1.41-.16c-.16,0-1.08-.38-.86-.07l.15,1.16c-.75.49-.75.69,0,.61l1.07.07,1.61.12,3.74.32c2.29.22,4.77.81,7,.1a1.53,1.53,0,0,0,1-1.86c-1-2.49-5-2.19-7.2-2.27-2.88-.1-5.9,0-8.58-1.24l-.36,2.75a10,10,0,0,1,4.08-.14c1.25.1,2.5.22,3.75.39,2.45.32,4.86,1,7.34.55a1.52,1.52,0,0,0,.36-2.76,27.26,27.26,0,0,0-7.42-1.66q-4.15-.57-8.33-1.08C129.3,27.18,129.31,30.2,131.21,30.44Z"/><path class="cls-23" d="M150.81,31.8c-.22.69-.64.22-1,.15-.15,0,.15-.1,0,0s-.2.27-.53.21a2.37,2.37,0,0,1-.61-.32,3.47,3.47,0,0,0-1.51-.4c-1.95-.09-1.94,2.93,0,3,.34,0,.93.51,1.28.6a3.6,3.6,0,0,0,1.9,0,3.39,3.39,0,0,0,2.41-2.46,2.76,2.76,0,0,0-1.71-3.23A2.48,2.48,0,0,0,147.9,31C147.33,32.85,150.24,33.65,150.81,31.8Z"/><path class="cls-23" d="M145.33,37.2a6.22,6.22,0,0,1,1,1.79,7.6,7.6,0,0,1,.21,1.13l.33-.56-.59.09a24.22,24.22,0,0,1-4.74,0,60.07,60.07,0,0,0-9.28-.48l1.45,1.11a7.12,7.12,0,0,1,0-1.46c-.63.49-1.27,1-1.91,1.45a31.51,31.51,0,0,0,12.81,1.61c1.62-.14,4.1-.2,4.26-2.32s-2.47-2.3-4-2.12c-1.91.22-1.93,3.24,0,3a6.22,6.22,0,0,1,1-.08c.54.13.63,0,.28-.26L145.89,39c.08-.45-1.22-.1-1.56-.07-.5,0-1,.06-1.48.08a30.69,30.69,0,0,1-3.46-.11,28.67,28.67,0,0,1-6.83-1.5,1.52,1.52,0,0,0-1.9,1.46,10.68,10.68,0,0,0,.11,2.26,1.51,1.51,0,0,0,1.45,1.11c4.29-.34,8.5.76,12.78.57,1.55-.07,4,0,4.47-2,.39-1.69-.57-3.8-1.54-5.12C146.8,34.13,144.18,35.63,145.33,37.2Z"/><path class="cls-24" d="M136.48,28.51a3.44,3.44,0,0,1-.81,1.5,2.35,2.35,0,0,0-.51,1.67c.18,1.08,1.43,1.3,2.34,1.21.34,0,.35-.59,0-.55-.72.08-1.93-.05-1.81-1.05a3.24,3.24,0,0,1,.71-1.36,3,3,0,0,0,.63-1.42C137.06,28.16,136.51,28.16,136.48,28.51Z"/><path class="cls-17" d="M133.05,35.75c1,1.61,3.54,1.26,5.17,1.11,1.4-.13,1.41-2.33,0-2.2a18.18,18.18,0,0,1-1.95.09c-.24,0-1.2.08-1.32-.11C134.18,33.46,132.28,34.56,133.05,35.75Z"/><path class="cls-17" d="M134.62,36.12c.63,0,1.26,0,1.89,0l1,0a3.47,3.47,0,0,1,.67,0c-.17-.22-.34-.43-.5-.65.36-.63.39-.82.06-.57a3.17,3.17,0,0,0-.35.29c-1,1,.51,2.51,1.55,1.55.38-.35.79-.54.91-1.11a1.35,1.35,0,0,0-.82-1.53,6.31,6.31,0,0,0-2-.23,23.42,23.42,0,0,0-2.37,0C133.21,34,133.2,36.18,134.62,36.12Z"/><path class="cls-17" d="M137.63,34.83a8.37,8.37,0,0,1-3.34-.19,1.1,1.1,0,0,0-.58,2.12,11.19,11.19,0,0,0,4.5.19,1.1,1.1,0,0,0-.58-2.12Z"/><path class="cls-24" d="M149.69,32.16s.05-.1.08-.14a.43.43,0,0,0,0-.07s0,0,0,0l0-.05a.63.63,0,0,1,.12-.11s0,0,0,0,0,0,0,0h0s0,0,0,0h0s0,0,0,0l0,0s0,0,0,0,0,0,0,0,0,0,0,0,0,0,0,0,0,.05,0,.07,0,0,0,0V32a.75.75,0,0,1,0,.15s0,0,0,0a.24.24,0,0,1,0,.08s0,.1,0,.14,0,0,0,0a.59.59,0,0,1,0,.08s0,0,0,.06l0,0s0,0,0,0l0,0a.46.46,0,0,0-.07.07l-.11.09s0,0,0,0l0,0-.06,0-.09,0h0a1,1,0,0,1-.16.06h-.07s0,0,0,0H149a.26.26,0,0,0-.27.27.29.29,0,0,0,.27.28,1.56,1.56,0,0,0,1.45-.79,1.31,1.31,0,0,0,.19-.84.77.77,0,0,0-.2-.48.58.58,0,0,0-.46-.18,1.12,1.12,0,0,0-.79.66.28.28,0,0,0,.1.38A.27.27,0,0,0,149.69,32.16Z"/><path class="cls-25" d="M130.86,26.35c.14-1.22,8.6-.3,9.62-.16a16.83,16.83,0,0,1,8.4,3.29c1.63,1.32,4-1,2.33-2.33-3.56-2.89-7.87-4.06-12.39-4.43a37.38,37.38,0,0,0-7.25-.09,4.16,4.16,0,0,0-4,3.72C127.33,28.45,130.62,28.43,130.86,26.35Z"/><path class="cls-25" d="M148.68,26.16a29.85,29.85,0,0,0-10.61-2.47c-1.78-.12-3.56-.14-5.34-.15-1.61,0-3.25,0-4.44,1.22-1.46,1.53.87,3.86,2.33,2.33.59-.62,2.78-.25,3.56-.24,1.46,0,2.92,0,4.38.17A24.61,24.61,0,0,1,147,29C148.93,29.88,150.6,27,148.68,26.16Z"/><path class="cls-25" d="M132.85,24c.31-1.74.66-3.46,2.29-4.41a7.08,7.08,0,0,1,5.51-.35c3.44,1,8.07,3.18,8.34,7.26a1.65,1.65,0,0,0,3.29,0c.2-5.15-3.85-9.18-8.59-10.43a15.53,15.53,0,0,0-7.6-.22c-2.3.61-4.4,2.61-4.06,5.16a1.68,1.68,0,0,0,2.48,1.42,10.48,10.48,0,0,0,3.21-2.31l-2.59-2c-.92,1.54-1.14,3.82.88,4.58,1.86.69,4.37-.31,5.86-1.4a1.65,1.65,0,0,0-1.27-3,3.91,3.91,0,0,0-2.6,2,1.67,1.67,0,0,0,1.42,2.48,3.53,3.53,0,0,0,2.41-.67,1.66,1.66,0,0,0,.33-2.58,5.52,5.52,0,0,0-7.82.5,1.67,1.67,0,0,0,1.16,2.81c2.17.07,4.23-.72,6.38-.08a18.89,18.89,0,0,1,5.37,3.07l1.26-3A20,20,0,0,0,141.35,21c-1.81-.05-2.3,3-.44,3.23A31,31,0,0,1,150,26.94c1.9.91,3.58-1.93,1.67-2.84a34,34,0,0,0-9.92-3c-.14,1.08-.29,2.16-.44,3.23A18,18,0,0,1,147.64,26c1.84.76,2.66-2,1.27-3a21.23,21.23,0,0,0-6.16-3.4c-2.49-.74-4.75,0-7.25,0,.39.93.78,1.87,1.16,2.81a2.24,2.24,0,0,1,3.17-.5l.33-2.59a.6.6,0,0,1-.75.22L140.83,22c.2-.39.23-.42.64-.52l-1.27-3a5.47,5.47,0,0,1-2.08,1c-.13,0-1,.1-1,.11l.64.69a1.74,1.74,0,0,1,.25-.49,1.65,1.65,0,0,0-2.58-2,7.85,7.85,0,0,1-2.55,1.79L135.32,21c-.46-3.42,6.64-2.09,8.36-1.5,3,1,5.43,3.68,5.31,7h3.29C151.89,20.69,146.23,17.2,141,16a10.2,10.2,0,0,0-7.55.8c-2.4,1.4-3.33,3.77-3.81,6.38C129.3,25.21,132.47,26.1,132.85,24Z"/><path class="cls-26" d="M149.57,29.51l1.76,1.6a1.65,1.65,0,0,0,2.33-2.33,7.07,7.07,0,0,0-2-1.42l-2.51-1.43c-1.84-1.05-3.5,1.79-1.66,2.84L149.72,30a5.73,5.73,0,0,1,1.61,1.07l2.33-2.33-1.76-1.6C150.33,25.76,148,28.08,149.57,29.51Z"/><path class="cls-25" d="M135.1,19.36a13,13,0,0,1,5.65-.78,9.84,9.84,0,0,1,5,1.31,9.54,9.54,0,0,1,4.62,7.54,1.65,1.65,0,0,0,3.29,0c.27-2.79-.06-5.16-1.95-7.33a18.12,18.12,0,0,0-6.39-4.79c-2.79-1.19-5.71-1-8.66-.58a5,5,0,0,0-3.22,1.38,19.36,19.36,0,0,0-2.29,3.72c-1.05,1.84,1.79,3.5,2.84,1.66a17.63,17.63,0,0,1,1.7-3c.55-.61,1.45-.58,2.22-.67a11.41,11.41,0,0,1,6.54.65A16.86,16.86,0,0,1,149,22c1.57,1.64,1.62,3.31,1.41,5.47h3.29a13,13,0,0,0-6.25-10.38c-3.94-2.36-9.88-2.44-14-.52C131.52,17.41,133.19,20.25,135.1,19.36Z"/><path class="cls-27" d="M130.07,27.67A4.39,4.39,0,0,1,132.9,27c1.27,0,2.54-.06,3.8-.05q3.81,0,7.6.34c.71.06.7-1,0-1.09q-4-.33-8-.35c-1.32,0-2.63,0-3.94.07a4.72,4.72,0,0,0-3.07.93C128.76,27.36,129.54,28.13,130.07,27.67Z"/><path class="cls-27" d="M138.42,27.07a24.75,24.75,0,0,1,13.63,4.58.54.54,0,0,0,.75-.19.58.58,0,0,0-.2-.76A25.77,25.77,0,0,0,138.42,26C137.72,26,137.72,27.05,138.42,27.07Z"/><path class="cls-27" d="M143.53,28.1a18.2,18.2,0,0,1,4.38,1.74c.61.34,1.17-.61.55-.95A19.81,19.81,0,0,0,143.82,27,.55.55,0,0,0,143.53,28.1Z"/><path class="cls-27" d="M144.25,27.27a16.24,16.24,0,0,1,4.68,2,21.46,21.46,0,0,1,2,1.46,2.8,2.8,0,0,0,2.37.62.55.55,0,0,0-.29-1.06c-.76.19-1.43-.42-2-.87a11.54,11.54,0,0,0-2-1.33,16.62,16.62,0,0,0-4.51-1.92C143.86,26.06,143.56,27.12,144.25,27.27Z"/><path class="cls-27" d="M153.8,27.79a23.53,23.53,0,0,0-10.21-4.08c-.52-.07-.74.72-.22.79a23.16,23.16,0,0,1,10,4C153.82,28.81,154.23,28.09,153.8,27.79Z"/><path class="cls-27" d="M129.88,23.72l.93-.51A.44.44,0,0,0,131,23a.45.45,0,0,0,0-.32.42.42,0,0,0-.56-.15l-.93.52a.41.41,0,0,0-.15.56A.42.42,0,0,0,129.88,23.72Z"/><path class="cls-27" d="M142.15,16.1a8.51,8.51,0,0,1,4.31.19.42.42,0,0,0,.22-.8,9.55,9.55,0,0,0-4.75-.18C141.42,15.42,141.63,16.22,142.15,16.1Z"/><path class="cls-28" d="M136.78,15.11a4.45,4.45,0,0,0-2.66,1.16.68.68,0,0,0,0,1,.7.7,0,0,0,1,0,2.31,2.31,0,0,1,.24-.2l-.14.1a3.82,3.82,0,0,1,.83-.48l-.16.07a3.79,3.79,0,0,1,.89-.25l-.18,0,.21,0a.8.8,0,0,0,.49-.2.7.7,0,0,0,.2-.49A.7.7,0,0,0,136.78,15.11Z"/><path class="cls-28" d="M132.57,19.23l.17.13h0l.17.08h0l.2,0h0l.21,0h.05l.18-.07.06,0a1.67,1.67,0,0,0,.16-.12l0,0a1.06,1.06,0,0,0,.24-.41v0l0-.2v0a.76.76,0,0,0,0-.21s0,0,0,0a1,1,0,0,0-.07-.18.58.58,0,0,0-.18-.2.46.46,0,0,0-.23-.12.5.5,0,0,0-.27,0,.47.47,0,0,0-.26.08L133,18a.64.64,0,0,0-.17.3l0,.18a.73.73,0,0,0,.09.35h0a1.11,1.11,0,0,1-.07-.16s0,0,0,.05,0-.12,0-.18v.05c0-.06,0-.12,0-.18s0,0,0,.06l.06-.16,0,.06.1-.14s0,0-.06.06l.14-.11-.07.05.16-.07-.07,0,.18,0h-.06l.18,0h-.05l.16.06,0,0,.14.1h0a.48.48,0,0,0-.22-.14.42.42,0,0,0-.27-.06.4.4,0,0,0-.26.06.44.44,0,0,0-.22.14l-.11.14a.67.67,0,0,0-.09.34l0,.18A.73.73,0,0,0,132.57,19.23Z"/><path class="cls-29" d="M134.72,46.24a111.89,111.89,0,0,0,13.07.59,1.37,1.37,0,0,0,0-2.74,114.13,114.13,0,0,1-13.07-.6C133,43.31,133,46.05,134.72,46.24Z"/><path class="cls-29" d="M130.63,43.3a45.41,45.41,0,0,0,20.51-.71,1.37,1.37,0,0,0-.73-2.64,42.29,42.29,0,0,1-19,.7C129.63,40.32,128.9,43,130.63,43.3Z"/><path class="cls-29" d="M132,41.15c-7.74-.38-11.13,8.22-12.49,14.44A40.61,40.61,0,0,0,121,78c.6,1.64,3.25.93,2.65-.73a37.84,37.84,0,0,1-1.75-19.55c.94-5.23,3.3-14.18,10.13-13.85C133.8,44,133.79,41.24,132,41.15Z"/><path class="cls-29" d="M155.14,40.1c-3-.09-6.21,0-8.48,2.24S143.9,48,144.55,51c.7,3.22,2.73,5.92,4.89,8.33,2.53,2.81,5.19,5.53,7.78,8.29,1.22,1.28,3.15-.66,1.94-1.94q-3.1-3.3-6.2-6.59a26.4,26.4,0,0,1-5-6.5c-1.13-2.4-1.53-5.55.18-7.78s4.56-2,7-1.93C156.91,42.9,156.91,40.16,155.14,40.1Z"/><path class="cls-29" d="M156.58,42.53c5.15,0,9.41,3.34,12.15,7.48,2.61,3.92,5.22,9.51,3,14.17-.74,1.59,1.62,3,2.37,1.38,2.64-5.65.19-12.06-3-16.93s-8.37-8.83-14.52-8.84A1.37,1.37,0,0,0,156.58,42.53Z"/><path class="cls-29" d="M157.82,65.67a42.29,42.29,0,0,0-9.13,9.23c-.62.86-1.21,1.75-1.76,2.67a11.33,11.33,0,0,0-1.59,3.14c-.44,2.11,1.85,3.74,3.21,5,3,2.7,7.27,6,11.34,3.39a16.4,16.4,0,0,0,4-4.34c1.42-1.94,2.82-3.89,4.13-5.89a47.69,47.69,0,0,0,6.56-14.07,1.37,1.37,0,0,0-2.65-.72,44.34,44.34,0,0,1-6,13c-1.3,2-2.69,4-4.11,5.9-1.13,1.55-2.52,3.94-4.6,4.31-2.43.44-4.88-1.89-6.53-3.36-.63-.56-2.09-1.55-2.42-2.35s1.05-2.62,1.53-3.38A38.43,38.43,0,0,1,159.21,68C160.6,67,159.24,64.61,157.82,65.67Z"/><path class="cls-29" d="M148,46.9a28.34,28.34,0,0,0,8.13,13.8c2,1.86,6.11.7,5.85-2.42-.31-3.66-2.63-5.87-5.39-8a66.41,66.41,0,0,0-7.94-5.24c-2.83-1.6-6.7,1.74-4.69,4.69A50.43,50.43,0,0,0,156,62.22c1.53,1.12,3.79.22,4.69-1.22,1.82-2.92,2.9-6.76,1.78-10.13a10.39,10.39,0,0,0-3-4.47c-.55-.5-1.16-1-1.67-1.5.46.49-1.13-1.2-.59-.74-.31-.27,0-.9-.16.11l-3.31,2.51A12.82,12.82,0,0,1,158.05,48a14.48,14.48,0,0,1,4,3c1.91,2,4.56,5.57,4,8.67a31.81,31.81,0,0,1-2,5.79c-.67,1.73-1.37,3.44-2.18,5.12a30.19,30.19,0,0,1-6.78,9.59L161,82.58c-.09-3.8,1.83-7.51,3-11.19s2.52-9.78-1.78-12.09a3.49,3.49,0,0,0-4.15.54l-1.8,2.09L162,63.44a12.07,12.07,0,0,1,2.12-8.59h-5.92a17.07,17.07,0,0,1,3.23,10.2c0,3.88,5.7,4.64,6.74.91.45-1.61.89-3.22,1.34-4.84,1-3.74-4.28-6-6.26-2.64a52.49,52.49,0,0,1-9.87,12.1l5.39,4.15c.6-1.15,1.19-2.29,1.8-3.44a3.46,3.46,0,0,0-.89-4.42,3.39,3.39,0,0,0-4.5.27,100.52,100.52,0,0,0-8,10.67c-3,4.81,2.11,8.47,6.22,9.83,2.35.77,4.07-1.24,4.34-3.31a10.3,10.3,0,0,0-1.12-5.84L150.69,82a17,17,0,0,0,4.56,5.56c1.11.89,2.83,1.48,4.15.54A24.62,24.62,0,0,0,167,78.52c1.73-3.48,3.18-7.12,5.54-10.25,1.09-1.46.25-3.88-1.23-4.69a10.91,10.91,0,0,0-3.66-1.3,3.55,3.55,0,0,0-4.22,2.4c-.44,1.61.55,3.94,2.4,4.21a6.06,6.06,0,0,1,2,.61c-.4-1.56-.82-3.13-1.22-4.69-2.19,2.92-3.61,6.28-5.19,9.55a39,39,0,0,1-2.55,4.6,13,13,0,0,1-2.95,3.17l4.16.54a12.56,12.56,0,0,1-3.49-4.18,3.47,3.47,0,0,0-4.69-1.23A3.51,3.51,0,0,0,150.69,82a4,4,0,0,1,.19,2.38l4.34-3.3a6.75,6.75,0,0,1-1.29-.57c-.42-.24-.86-.77-1.28-1-.36-.41-.34-.08.06,1-.07,1.11,0,1.42.28,1a3.57,3.57,0,0,0,.54-.81l1.33-1.92c1.64-2.31,3.38-4.54,5.19-6.72l-5.38-4.15-1.8,3.44a3.44,3.44,0,0,0,5.38,4.15,58.49,58.49,0,0,0,10.94-13.48l-6.27-2.64q-.67,2.43-1.34,4.84l6.73.91a23.36,23.36,0,0,0-4.18-13.66,3.48,3.48,0,0,0-5.92,0,19.06,19.06,0,0,0-2.8,13.88c.4,2.49,4.14,3.35,5.72,1.51l1.8-2.09-4.15.53c-.22-.12-.3-.42-.47-.56,0-.3,0-.32,0-.07a2.9,2.9,0,0,1,0,.51,9.86,9.86,0,0,1-.27,2.13,37.57,37.57,0,0,1-1.54,4.86c-1.26,3.4-2.47,6.82-2.38,10.49A3.47,3.47,0,0,0,160,85a36.12,36.12,0,0,0,8.24-11.79c1.05-2.29,2-4.63,2.88-7s2-4.9,1.94-7.54c-.14-4.87-3.22-9.84-6.69-13.1a20.39,20.39,0,0,0-12.58-5.66,3.41,3.41,0,0,0-3.3,2.52A7.57,7.57,0,0,0,151.56,48a24.56,24.56,0,0,0,3.58,3.7c1.64,1.63.92,3.82-.34,5.83l4.69-1.23a40.88,40.88,0,0,1-9.67-10L145.13,51a69.58,69.58,0,0,1,6.38,4.07,27.3,27.3,0,0,1,2.4,1.89,11.21,11.21,0,0,1,.85.85c.12.17.32.63.31.49l5.85-2.42a21.66,21.66,0,0,1-6.36-10.77C153.5,40.81,146.89,42.62,148,46.9Z"/><path class="cls-29" d="M131.09,49l17.41-.11L146.07,43c-2,1.86-5.29,1.81-8.15,1.84-3.9,0-7.85.25-11.28,2.3l5.16,3c-.06-1-.12-2.09-.19-3.14a3.44,3.44,0,0,0-2.1-3.13,3.38,3.38,0,0,0-3.74.71c-5.23,6.64-4.7,15.4-4.45,23.41.06,2.18-.17,4.71.35,6.83a4.24,4.24,0,0,0,2.2,2.8,9.87,9.87,0,0,0,4,.62l13.67.77c4.1.24,8.93,1,12.6-1.32a10.35,10.35,0,0,0,4.62-8.93c-.12-3.76-2.93-9.38-7.54-7.64-2.1.79-3.52,3.1-4.36,5.08s-1.52,4.78.31,6.61c2.38,2.38,5.88.66,7.39-1.77a5.36,5.36,0,0,0-7.82-7.24C144.61,65.4,144,68,143.9,70.5c-.16,3,3.84,4.5,5.85,2.42a12,12,0,0,0,1.79-14.26,5.14,5.14,0,0,0-3.74-2.79,4.62,4.62,0,0,0-4.46,2.47A17.42,17.42,0,0,0,141,66.67c-.1,2.4,3.07,4.55,5.16,3a11.42,11.42,0,0,0,4.64-7.35c.5-3.11-.08-7-2.72-9.05-3.29-2.56-7.22-.22-9.71,2.27a18.18,18.18,0,0,0-4.74,8.36,3.45,3.45,0,0,0,1.23,3.6,3.39,3.39,0,0,0,3.81.27,17.13,17.13,0,0,0,5.83-7.59c1-2.56,1.78-6.64.33-9.16-2.24-3.89-6.84-2.22-9.37.35a12.52,12.52,0,0,0-3.55,8.82,3.47,3.47,0,0,0,5.16,3c2.4-1.33,4.79-3.1,5.43-5.94a6.06,6.06,0,0,0-4.18-7.35c-5.47-1.47-11,3-12.48,8-.8,2.72,1.76,4.62,4.22,4.22a6.68,6.68,0,0,0,0-13.13,3.54,3.54,0,0,0-3.88,1.57c-3.28,6.5.82,14.64,6,19a11.41,11.41,0,0,0,9.61,2.81,8.8,8.8,0,0,0,6.81-5.95,3.47,3.47,0,0,0-1.57-3.87,14.56,14.56,0,0,0-17.5,2.64,3.48,3.48,0,0,0,1.51,5.73,14.58,14.58,0,0,0,9.32,0,3.53,3.53,0,0,0,2.52-3.3,3.45,3.45,0,0,0-2.52-3.31,31.24,31.24,0,0,0-15.21.86c-3,1-3.48,5.86,0,6.61,2.4.52,5,.63,7.11-.79A6.11,6.11,0,0,0,135,64.72c-1-4.86-8.53-5.95-9.92-.7a7.3,7.3,0,0,0,1.26,6.16,8.26,8.26,0,0,0,6.16,3.3c4.36.46,8.89.26,13.28.36-.31-2.25-.61-4.49-.92-6.73a12.12,12.12,0,0,1-4.33.29c-1.83-.25-3.68.44-4.22,2.4-.44,1.59.55,4,2.4,4.21a21.44,21.44,0,0,0,8-.29c3.83-.9,2.88-6.65-.91-6.74-2.29,0-4.57-.1-6.85-.15l-3.16-.07a15.59,15.59,0,0,1-3.06-.11,1.53,1.53,0,0,1-.64-.25c-.2-.1-.23-.13-.09-.08.08.21,0,.13-.18-.25a.34.34,0,0,0,0,.1c-.09-.43-.13-.51-.12-.25-.4-.12-1.27,1.77-2.43,1.33a1.6,1.6,0,0,1-.93-1.08c.27,1.06-.08-1.08.06-.92-.1-.12.12,0,.06,0s-1.26-.08-1.49-.13v6.61a23.78,23.78,0,0,1,11.57-.86V64.22a8.25,8.25,0,0,1-5.67,0c.5,1.91,1,3.82,1.51,5.73A7.29,7.29,0,0,1,139,67.49a7.81,7.81,0,0,1,4.58.85L142,64.47c-.13.39-.14.43,0,.1-.22.34-.23.37,0,.11l-.46.46c.26-.2.22-.19-.11,0s-.39.21-.09.09a5,5,0,0,1-.65.22c-.22.06-.44.11-.67.15.35,0,.31-.06-.11,0-.23,0-.46,0-.69,0,.34.05.31,0-.1,0-.1,0-.88-.27-.66-.19a6.66,6.66,0,0,1-2.31-1.62,17.19,17.19,0,0,1-3.44-4.9c-.77-1.63-1.29-3.46-.56-4.9l-3.88,1.57c.4.13.48.11.24,0,.36.21.43.24.2.11s-.09-.16.12.19a.39.39,0,0,1-.12-.31.45.45,0,0,1,.12-.31c-.21.36-.25.42-.12.2s.16-.1-.2.11c.24-.15.16-.16-.24,0l4.22,4.22a4.51,4.51,0,0,1,3.82-3.24c-.35,0,.31,0,.31,0,0,.23-.68-.75-.38-.26a6.16,6.16,0,0,1-.37-.63c-.11-.11.19-.27,0,.15.15-.29-.3.33-.37.39a10.58,10.58,0,0,1-1.83,1.1l5.16,3A5.6,5.6,0,0,1,140,56.45c.18-.22.83-.68,1-.9s.24-.14.07-.1q-2.7-3.57-2.49-1.72c0,.41,0,.84,0,1.25a9.43,9.43,0,0,1-3.45,6.84l5,3.88A10.7,10.7,0,0,1,144,59.64a6.23,6.23,0,0,0,.68-.5c.36-.25.48-.31.35-.19a1.21,1.21,0,0,1-.91-.2c-.51-.06-.38-.45-.28,0,0,0,.23.77.27,1-.1-.53,0,.51,0,.56s-.09,1.09,0,.56a5.16,5.16,0,0,1-.5,1.63,5.32,5.32,0,0,1-.93,1.26l5.15,3a11,11,0,0,1,.46-2.73c.09-.29.18-.63.3-.91s.26-.56.4-.83q.72-1.08-.78.33h-1.82l.36.11-1.51-.88c1.74,1.39,1.07,4.8-.39,6.31l5.86,2.42c0-.63.17-.81.21-1.37,0-.31.08,0-.29.22s-1.27-.25-1.48-.45c-.35-.36-.3-1.13-.46-1.49l.09-.17c-.2.34-.25.42-.14.25s.54-.32-.19,0l1.73-.47-.39,0,1.73.47-.23-.14,1.23,1.22c0,1.57.09,2,.23,1.28.05-.22.11-.44.18-.65a3.62,3.62,0,0,1,.38-.85c.14-.28.33-.53.48-.8l.3-.35c-.27.12-.22.1.14-.07l-1.73.47a1.28,1.28,0,0,1-1.22-.56c-.09-.14-.08-.13,0,0s.29.46.4.69c-.31-.66.22,1.23.13.43,0,.27,0,.54,0,.81s-.06.72,0,.22c0,.26-.12.53-.18.79s-.25.69-.05.25c-.11.24-.25.47-.38.71s-.5.62-.13.21a7.53,7.53,0,0,1-.57.56c-.28.24.48-.13-.22.11a9.66,9.66,0,0,1-3.67.5c-3.43-.1-6.86-.37-10.29-.57-3.6-.2-7.27-.22-10.85-.63l1.73.47-.35-.17,1.22,1.23c.17,1,.22,1.07.16.27,0-.35,0-.71-.05-1.06l-.06-1.6c0-1.24-.08-2.48-.11-3.72-.06-2.37-.11-4.76,0-7.13.09-3.45.37-7.38,2.51-10.1L124.74,47c.06,1,.12,2.09.19,3.14a3.46,3.46,0,0,0,5.15,3c3-1.78,6.68-1.26,10-1.41,4-.18,7.81-1,10.81-3.8,2.22-2,.47-5.87-2.42-5.85l-17.41.11C126.68,42.15,126.67,49,131.09,49Z"/><path class="cls-29" d="M127.16,40.32c-7.69-1-14.33,5.23-16.24,12.27-2.19,8,.71,16,4.07,23.22a3.43,3.43,0,0,0,5.38.69A4.91,4.91,0,0,0,121.74,73a3.5,3.5,0,0,0-3.43-3.43A3.45,3.45,0,0,0,114.89,73a.57.57,0,0,1,0-.13c.29-.5.58-1,.88-1.51a3.88,3.88,0,0,0-.26.31l5.38.69c-2.42-5.22-4.85-11.27-3.59-17.07A10.86,10.86,0,0,1,121,48.9a8.92,8.92,0,0,1,2.73-1.48,7.47,7.47,0,0,1,3.47-.25c1.84.23,3.42-1.74,3.42-3.42C130.59,41.7,129,40.55,127.16,40.32Z"/><path class="cls-29" d="M117.24,47.85c-2,3.61-2.51,7.71-2.38,11.79s.56,8.41.86,12.61a3.52,3.52,0,0,0,3.43,3.43,3.45,3.45,0,0,0,3.42-3.43c-.27-3.89-.62-7.79-.81-11.69-.16-3.18-.19-6.43,1.4-9.25C125.34,47.47,119.42,44,117.24,47.85Z"/><path class="cls-29" d="M125.58,44.89a6,6,0,0,0,7.39.63,2.74,2.74,0,1,0-2.76-4.74,2.92,2.92,0,0,1-.37.24c.32-.11.34-.12,0,0s-.28.07.08,0h-.33c-.21,0-.15,0,.18,0a3.34,3.34,0,0,1-.43-.1c.31.15.33.15.05,0s-.24-.16,0,0a2.74,2.74,0,0,0-3.88,3.88Z"/><path class="cls-29" d="M133.45,41.56a.84.84,0,0,0-.06-.14v2.22l.08-.15-.79.78.16-.07-1.69.22c.28.08,1.07.65,1.58.81a9.93,9.93,0,0,0,2.29.36,36.31,36.31,0,0,0,5.11,0,47.14,47.14,0,0,0,10.28-1.81l-2.77-2.11c0,.4,0,.81,0,1.22.05,2.82,4.44,2.83,4.39,0l0-1.22a2.21,2.21,0,0,0-2.77-2.12A42.27,42.27,0,0,1,137,41.28a12.85,12.85,0,0,1-2.7-.16c-.75-.18-1.25-.75-2-.93-2.21-.52-3.48,1.76-2.64,3.58a2.2,2.2,0,0,0,3,.79A2.24,2.24,0,0,0,133.45,41.56Z"/><path class="cls-30" d="M151.71,43.84a9.13,9.13,0,0,0,3.29-.23,1.94,1.94,0,0,0,1.35-2.36A2,2,0,0,0,154,39.91a5.61,5.61,0,0,1-.59.13c.31,0-.31,0-.38,0a9.36,9.36,0,0,1-1.3-.06,1.91,1.91,0,0,0-1.92,1.92A2,2,0,0,0,151.71,43.84Z"/><path class="cls-30" d="M153.4,41c-5.24,3.24-7.58,9.25-9.67,14.75q-1.84,4.88-3.22,9.9c-.86,3.17-1.64,6.32-.21,9.44,1,2.24,4.33.29,3.31-1.94s.32-5.5,1-7.73c.83-2.92,1.79-5.81,2.87-8.65,1.7-4.49,3.61-9.81,7.9-12.46C157.44,43.06,155.51,39.74,153.4,41Z"/><path class="cls-30" d="M148.51,41.53A40.57,40.57,0,0,0,137.77,77c.45,2.43,4.15,1.4,3.7-1a36.56,36.56,0,0,1,9.76-31.7C153,42.48,150.24,39.76,148.51,41.53Z"/><path class="cls-30" d="M140.71,68.5a20.68,20.68,0,0,0-.28,9.61c.49,2.42,4.19,1.39,3.7-1a16.42,16.42,0,0,1,.28-7.57C145.06,67.13,141.36,66.12,140.71,68.5Z"/><path class="cls-30" d="M128.69,41.4c-3.11,4.5-3.77,10-4.26,15.33-.58,6.17-.85,12.37-.87,18.56,0,2.47,3.84,2.48,3.84,0q0-8.76.77-17.49c.43-5,.91-10.22,3.84-14.46C133.41,41.31,130.09,39.38,128.69,41.4Z"/><path class="cls-30" d="M130.27,41.39a9.83,9.83,0,0,0-3,5.93c-.5,2.78-.72,5.63-1,8.44q-.91,8.91-1.39,17.84c-.14,2.47,3.7,2.47,3.84,0q.44-8.13,1.23-16.25c.25-2.63.51-5.27.85-7.9.26-2,.62-4,2.2-5.35C134.87,42.5,132.15,39.8,130.27,41.39Z"/><path class="cls-31" d="M140.66,59.3a11.89,11.89,0,0,1,3.45,1.05l-.69-2.62a4.82,4.82,0,0,0-.69,2.92l2.43-1.85a18.13,18.13,0,0,1-4-1.14,2,2,0,0,0-2.63.68,1.94,1.94,0,0,0,.69,2.63,21.87,21.87,0,0,0,4.87,1.53c1.11.2,2.57-.5,2.43-1.85a1.32,1.32,0,0,1,.17-1A1.94,1.94,0,0,0,146,57a15.33,15.33,0,0,0-4.36-1.45,2,2,0,0,0-2.36,1.35A1.94,1.94,0,0,0,140.66,59.3Z"/><path class="cls-31" d="M126.43,56.35c.86,0,1.71,0,2.57.07l-1.66-1c-.09-.21-.27-.9-.08-1.12a1.55,1.55,0,0,0-.14.29,5.66,5.66,0,0,0-.27.68c-.13.45-.08.25.52-.34s.83-.64.53-.56c-.09,0,0,0,.13,0,.34-.06.11,0,0,0l-.22,0c-.23,0,.5.09.09,0-.86-.15-2-.5-2.79.05a2,2,0,0,0-.69,2.63c.54,1.23,2.66,1.32,3.6.6a2,2,0,0,0,.69-2.63,2,2,0,0,0-2.63-.68c-.16.11-.11.09.17-.05l.24,0c-.16,0-.07,0,.27.05-.2-.06-.1,0,.3.13l.68.69v0l-.69,2.63c-.37.26-1.14.22-.66.24-.61,0-.28,0-.11,0l.66.12a4.55,4.55,0,0,0,2,0,2.23,2.23,0,0,0,1.61-1.84c0,.35,0,0,.06-.12a4.59,4.59,0,0,0,.28-.73,2.9,2.9,0,0,0-.26-1.88,1.89,1.89,0,0,0-1.66-.95c-.85,0-1.71,0-2.56-.07a1.92,1.92,0,1,0,0,3.83Z"/><path class="cls-32" d="M140.79,54.93c1.09.35,2.19.71,3.29,1a4.86,4.86,0,0,0,2.16.34,1.91,1.91,0,0,0,1.4-2.93c-.85-1.42-3.37-1.84-4.8-2.25s-3-.13-3.1,1.62c-.07,1.23,1.85,1.23,1.92,0,0,.47,4.51.91,4.35,1.67a39.86,39.86,0,0,1-4.71-1.35C140.12,52.7,139.61,54.55,140.79,54.93Z"/><path class="cls-32" d="M125.62,49.91l1.92.24a5.74,5.74,0,0,1,1.77.25s0-.09,0-.13a.53.53,0,0,1-.23.19,1.56,1.56,0,0,1-.68.06,13.94,13.94,0,0,0-1.83-.12c-1.22.12-1.24,2,0,1.92,1.09-.1,2.2.39,3.25-.09a2.28,2.28,0,0,0,1.43-2,1.9,1.9,0,0,0-1.68-1.68c-1.3-.26-2.66-.34-4-.51S124.41,49.76,125.62,49.91Z"/><path class="cls-32" d="M136,44.05a28.52,28.52,0,0,0,9.21-.56c.86-.2.49-1.52-.37-1.32a27.35,27.35,0,0,1-8.84.51.69.69,0,0,0-.69.68A.7.7,0,0,0,136,44.05Z"/><path class="cls-33" d="M135,44.25a.69.69,0,0,0,0-1.37A.69.69,0,0,0,135,44.25Z"/><path class="cls-33" d="M154.81,50.61a23,23,0,0,0-5.25,8.06,27.72,27.72,0,0,0-1.33,5c-.35,1.86-.63,3.73-.88,5.6-.28,2.08-.49,4.17-.65,6.27a.68.68,0,0,0,.68.68.7.7,0,0,0,.69-.68q.41-5.38,1.34-10.72a32.49,32.49,0,0,1,1.24-5.13,21.7,21.7,0,0,1,1.93-4,21.22,21.22,0,0,1,3.2-4.05C156.4,51,155.43,50,154.81,50.61Z"/><path class="cls-33" d="M147.25,75.56q-.57,2.89-1.15,5.79a.71.71,0,0,0,.48.84.69.69,0,0,0,.85-.48l1.14-5.79a.68.68,0,0,0-1.32-.36Z"/><path class="cls-29" d="M117.72,80.24a143.79,143.79,0,0,0,25.49,1c1.75-.09,1.76-2.83,0-2.74a143.79,143.79,0,0,1-25.49-1C116,77.27,116,80,117.72,80.24Z"/><path class="cls-34" d="M92.37,55.49a2.91,2.91,0,0,1,1.89.3c.7.31,1.38.68,2.06,1q2.12,1,4.2,2.13t4.13,2.21a40.18,40.18,0,0,0,4,2,40.65,40.65,0,0,0,8.92,2.18l9.29,1.72c3.51.65,7,1.34,10.56,1.74a.69.69,0,1,0,0-1.37c-3.13-.35-6.23-1-9.33-1.53l-9.35-1.73c-1.55-.28-3.1-.56-4.64-.86a24.37,24.37,0,0,1-4.45-1.2,33.74,33.74,0,0,1-3.94-2q-2-1.12-4.1-2.21c-1.55-.81-3.12-1.6-4.68-2.38s-3.16-1.84-4.89-1.4A.68.68,0,0,0,92.37,55.49Z"/><path class="cls-34" d="M91,56.33a83.16,83.16,0,0,1,6.39,13.11,85.79,85.79,0,0,1,4,14.06,4,4,0,0,0,1.71,2.88,9.26,9.26,0,0,0,1.57.72c.6.24,1.2.49,1.8.72,2.46,1,4.92,2,7.39,2.9q7.41,2.84,14.9,5.48t15.06,5.06l1.9.61c.46.14,1.05-.36.85-.85-.86-2.07-1.9-4-2.84-6.07a42.77,42.77,0,0,1-2.25-6,70.76,70.76,0,0,1-2.28-12.59c-.25-2.41-.44-4.83-.62-7.24a.71.71,0,0,0-.68-.69.7.7,0,0,0-.69.69c.33,4.33.67,8.67,1.35,13a51.56,51.56,0,0,0,3.5,12.49c1,2.3,2.22,4.49,3.18,6.81l.85-.85q-7.51-2.37-14.95-5t-14.79-5.37c-2.46-.93-4.9-1.88-7.34-2.84l-3.6-1.44c-.9-.36-2-.68-2.41-1.66a9.53,9.53,0,0,1-.39-1.66c-.12-.59-.24-1.17-.37-1.75-.26-1.18-.55-2.36-.86-3.53q-.94-3.51-2.19-6.93a84.7,84.7,0,0,0-6.12-13.22c-.29-.52-.59-1-.9-1.54A.69.69,0,0,0,91,56.33Z"/><path class="cls-34" d="M111.71,76.24a.69.69,0,0,0,0-1.37A.69.69,0,0,0,111.71,76.24Z"/><path class="cls-34" d="M92.72,59a87.86,87.86,0,0,0,42.62,12.68c2.65.09,2.65-4,0-4.11A83.66,83.66,0,0,1,94.8,55.43C92.53,54.05,90.47,57.6,92.72,59Z"/><path class="cls-34" d="M95.38,62.41c5.55,4.64,6.28,12.28,8,18.86.66,2.56,4.63,1.48,4-1.09-1.88-7.29-2.89-15.55-9-20.68C96.27,57.81,93.34,60.71,95.38,62.41Z"/><path class="cls-34" d="M96.42,64.93l5.91,16.72c.88,2.48,4.85,1.41,4-1.09l-5.91-16.72C99.51,61.36,95.54,62.43,96.42,64.93Z"/><path class="cls-34" d="M101.74,67.31c5.85,1.58,11.69,3.23,17.56,4.73a41.84,41.84,0,0,0,8.32,1.41c2.68.12,5.42-.38,8,.63.19-1.35.37-2.69.55-4-11.39.34-22.86-1.5-34.17-2.7-2.28-.24-2.83,3.64-.54,4l33.32,5.86c-.17-1.25-.33-2.51-.49-3.76-2,.91-4.19.81-6.29.72-2.5-.11-5-.27-7.51-.43q-7.57-.49-15.14-1.24c-2.4-.23-2.65,3.35-.55,4,7.25,2.36,15,2.71,22.22,5.14a27.37,27.37,0,0,1,5,2.21c1.69,1,3.58,2.33,5.43.82,3-2.46,2.57-7.71.86-10.72a2.07,2.07,0,0,0-3.83,1c.05,1.34-1.12,2.28-2.12,1.09-1.53-1.83-4.37.51-3.23,2.49l1.11,1.92,2.32-3q-13.19-3-26.27-6.39a2.07,2.07,0,0,0-2.53,1.44,84.09,84.09,0,0,0-1.49,11.51,2.08,2.08,0,0,0,3.1,1.78,8.46,8.46,0,0,0,3.61-6.9h-4.11l.48,4.6a2.07,2.07,0,0,0,4,.55,10.56,10.56,0,0,0,.36-6.22l-3,2.33c7.76,4,16.62,3.11,24.83,5.45.36-1.32.73-2.64,1.09-4a145.76,145.76,0,0,0-26.2-4.89,2.07,2.07,0,0,0-2,1.51,4.49,4.49,0,0,0,.25,3.41,6.13,6.13,0,0,0,.55,1.31c.13.16-.21,0,.06-.1l1-.28s0,0,0,0c-.18,1.34-.37,2.69-.55,4a25.23,25.23,0,0,1,7,1.84c2.09.89,4.14-1.38,2.5-3.23l-5.2-5.85a2.05,2.05,0,0,0-2.9,2.91A24.88,24.88,0,0,1,109,85a11.74,11.74,0,0,0,1.67,2.65A9.14,9.14,0,0,0,116,90c1.42.18,2.21-1.46,2-2.6a11.77,11.77,0,0,0-2.91-5.6c-.66,1.15-1.33,2.29-2,3.44a95.35,95.35,0,0,1,10.49,2.92c.37-1.32.73-2.64,1.1-4l-7.51-1.84c-.18,1.35-.37,2.69-.55,4l12.11.9c2.66.2,7.74,1.47,9.14-1.77h-3.55l.9,1.94c.92,2,3.69.79,3.83-1a10.42,10.42,0,0,0-.41-3.72c-.74-2.53-4.69-1.46-4,1.1q1.51,5.3,3,10.58l3-2.32a47.29,47.29,0,0,0-28.59-7.83c-1.59.08-3,2.31-1.46,3.51a30.88,30.88,0,0,0,18.89,6.84c1.9,0,3-3,1-3.84l-8.07-3.43c-.53,1.25-1,2.51-1.58,3.76q3,.91,6,1.78a37.8,37.8,0,0,0,6.08,1.6,3.41,3.41,0,0,0,3.79-2.42,6.32,6.32,0,0,0-.77-4.45l-3.55,2.08,1.26,1.93,2.82-2.81-2-1.33a2.07,2.07,0,0,0-2.81,2.81c.24-.52.21-.68-.1-.47A3.6,3.6,0,0,1,131,90a9,9,0,0,1-1.26.16,15.93,15.93,0,0,1-2.93-.08,27,27,0,0,1-5.45-1.35c-3.79-1.27-7.43-3-11.31-4-2.57-.68-3.6,3.15-1.09,4l34.18,11a2,2,0,0,0,2.43-1.19,2.11,2.11,0,0,0-.84-2.57l-5.58-4.27a2.08,2.08,0,0,0-2.82.74,2.1,2.1,0,0,0,.74,2.81l5.58,4.27c.53-1.25,1.06-2.5,1.58-3.76L110,84.73c-.36,1.32-.72,2.64-1.09,4,5.2,1.37,10,4,15.29,5.08a19.36,19.36,0,0,0,7.84.16c2.59-.53,4.8-3.11,3.19-5.72L132.41,91l2.05,1.33a2.07,2.07,0,0,0,2.81-2.81L136,87.6a2.06,2.06,0,0,0-3.55,2.08c.17.33.21.69.36,1a2.41,2.41,0,0,1,0,.38.78.78,0,0,1,.6-.69,8.21,8.21,0,0,0-1.9-.51l-1.76-.49q-3.9-1.09-7.77-2.28c-2.17-.66-3.76,2.83-1.58,3.76l8.06,3.43,1-3.83a26.31,26.31,0,0,1-16-5.63l-1.46,3.51a43.56,43.56,0,0,1,26.52,7.27,2.08,2.08,0,0,0,3-2.33l-3-10.58-4,1.09a7.23,7.23,0,0,1,.26,2.62l3.83-1c-.3-.64-.6-1.28-.89-1.93a2.07,2.07,0,0,0-3.55,0c-.09.2.25,0,.06,0a1.85,1.85,0,0,1-.58,0c-.7,0-1.42-.09-2.11-.14L126.53,83l-10-.74c-2.32-.17-2.78,3.49-.55,4l7.51,1.84a2.06,2.06,0,0,0,1.1-4,95.35,95.35,0,0,0-10.49-2.92,2.07,2.07,0,0,0-2,3.43A7.64,7.64,0,0,1,114,88.5l2-2.61a3.87,3.87,0,0,1-3.07-2.33,31.74,31.74,0,0,0-2.77-4l-2.91,2.91,5.19,5.85,2.49-3.23a32.29,32.29,0,0,0-9.06-2.41c-2.31-.26-2.79,3.55-.55,4a3.18,3.18,0,0,0,3.86-2.38,4.61,4.61,0,0,0,.06-2.33c-.19-.75-1.07-1.8-.8-2.53l-2,1.51a139.35,139.35,0,0,1,25.11,4.74c2.55.72,3.63-3.24,1.09-4-7.79-2.23-16.5-1.29-23.84-5a2.08,2.08,0,0,0-3,2.32,6.7,6.7,0,0,1-.37,4l4,.54c-.16-1.53-.32-3.07-.49-4.6-.26-2.58-4.1-2.71-4.11,0a4.11,4.11,0,0,1-1.57,3.35l3.1,1.78a76,76,0,0,1,1.34-10.42l-2.53,1.43q13.08,3.42,26.27,6.39a2.08,2.08,0,0,0,2.32-3l-1.11-1.92-3.23,2.49c3.32,4,9.32.75,9.14-4l-3.83,1A5.57,5.57,0,0,1,135.5,79a5,5,0,0,1-.21,1.39,3.73,3.73,0,0,1-.26.73c-.23.43-.28.51-.12.27H136c-1.12-.24-2.25-1.25-3.3-1.77A34.27,34.27,0,0,0,129,78a53.4,53.4,0,0,0-7.56-2c-5.18-1.06-10.45-1.75-15.49-3.4-.18,1.35-.37,2.69-.55,4q8.1.8,16.23,1.3c4.85.31,10.22,1.22,14.78-.91a2.08,2.08,0,0,0-.49-3.76l-33.32-5.86-.54,4c11.3,1.2,22.77,3,34.17,2.69a2.06,2.06,0,0,0,.54-4c-2.52-1-5.2-.75-7.85-.75a34.51,34.51,0,0,1-8.45-1.29c-5.87-1.5-11.71-3.15-17.56-4.73C100.27,62.66,99.18,66.63,101.74,67.31Z"/><path class="cls-29" d="M119.05,56c4.41,0,4.41-6.85,0-6.85S114.63,56,119.05,56Z"/><path class="cls-29" d="M157.94,85.41a37.66,37.66,0,0,1-7.8.06,28.4,28.4,0,0,1-3.32-.56c-.66-.15-1.31-.31-2-.49l-1-.29c.3.16.28.12,0-.1l1.23,1.22c.09.13,0,1.17,0-.08,0-.43,0-.85,0-1.28a6.56,6.56,0,0,0,.09-.88c.19-.59,0-.49-.58.3a.84.84,0,0,1-.87.65,5.79,5.79,0,0,0,1.44,0l1.36,0,3-.11c3.9-.15,7.89-.54,11.8-.42l-1.73-.47.3.13-1.23-1.23c.05.11.12.22.17.34-.15-.58-.31-1.16-.47-1.73.06,1,0,2.09-.07,3.13l-.06,1.64c0,.17-.11.93,0,.87-.3.23.42-.8.57-.66s-.92.21-.7.18a6.65,6.65,0,0,1-2.77-.25c-1.72-.48-3.16-1.61-4.77-2.34a10.8,10.8,0,0,0-7-1l1.83,6.61a8.23,8.23,0,0,1,3.58.33,44.8,44.8,0,0,0,4.76.72,22.42,22.42,0,0,0,9-.89,3.5,3.5,0,0,0,2.39-4.22A3.46,3.46,0,0,0,161,82.13a17.66,17.66,0,0,1-7.75.59c-3.27-.41-6.31-1.56-9.63-.76a3.43,3.43,0,0,0,1.83,6.62c1.83-.39,4.1,1.64,5.69,2.37a14.14,14.14,0,0,0,8.8,1.2,6.32,6.32,0,0,0,5.2-6.05c.1-1.32.1-2.65.14-4,.07-1.91,0-3.95-1.84-5.06-1.31-.79-2.83-.59-4.28-.53l-4.64.17-8.73.32c-3,.11-6.13.42-7.08,3.83-.7,2.5-1,6.56,1,8.55,1.13,1.13,2.84,1.5,4.33,1.88a41.74,41.74,0,0,0,4.41.83,39.38,39.38,0,0,0,9.52.14,3.52,3.52,0,0,0,3.42-3.42C161.37,87.14,159.79,85.2,157.94,85.41Z"/><path class="cls-35" d="M137.15,78.81a8.55,8.55,0,0,1-6.81-.37c-2-1-3.85,2-1.8,3.08a12.2,12.2,0,0,0,9.56.73C140.25,81.5,139.33,78.05,137.15,78.81Z"/><path class="cls-35" d="M137.36,81.78a22.94,22.94,0,0,1-7.9.89c-2.29-.13-2.28,3.43,0,3.56a25.73,25.73,0,0,0,8.85-1C140.51,84.57,139.57,81.13,137.36,81.78Z"/><path class="cls-35" d="M138.5,85a33.24,33.24,0,0,1-6.71,1.12c-2.28.14-2.3,3.71,0,3.57a39,39,0,0,0,7.66-1.25A1.79,1.79,0,0,0,138.5,85Z"/><path class="cls-35" d="M137.11,92l3.71-.66a1.78,1.78,0,0,0,1.24-2.19,1.81,1.81,0,0,0-2.19-1.24c-1.24.21-2.47.43-3.71.66a1.8,1.8,0,0,0-1.25,2.19A1.83,1.83,0,0,0,137.11,92Z"/><path class="cls-35" d="M138.09,80.16a20.43,20.43,0,0,0,1.22,7.23,4.4,4.4,0,0,0,1.51,2.45,2.35,2.35,0,0,0,2.81-.38c1.49-1.45,1.53-4.62,1.2-6.53a6.62,6.62,0,0,0-1.11-2.72A5.23,5.23,0,0,0,142.51,79c-.22-.16-.85-.4-1-.62-1.19-2-4.27-.17-3.08,1.79.6,1,1.65,1.22,2.32,2,.86,1.06.67,2.69.5,3.93,0,.1-.19.69-.13.78h1.79l-.18-.46a14.72,14.72,0,0,0-.59-1.89,17.18,17.18,0,0,1-.5-4.4C141.66,77.87,138.1,77.87,138.09,80.16Z"/><path class="cls-35" d="M139,76.71c.09.27.17.54.25.81a1,1,0,0,0,1.88-.25c0-.32,0-.64,0-1l-1.21.92a.84.84,0,0,1,.66,1,1,1,0,0,0,1,1c3.1.16,3.49,3.94,3.2,6.29a18.43,18.43,0,0,1-.32,2c-.16.73-.48.83-1.17,1-1.42.38-2.84.74-4.26,1.1a1,1,0,0,0,.51,1.85l3.51-.9a5.32,5.32,0,0,0,2.56-1c1.07-1.09,1.09-3.38,1.17-4.81.21-3.36-1.39-7.17-5.19-7.38.32.32.63.64,1,1a2.84,2.84,0,0,0-2.08-2.82,1,1,0,0,0-1.21.92c0,.32,0,.64,0,1l1.88-.25-.24-.82A1,1,0,0,0,139,76.71Z"/><path class="cls-35" d="M136.41,89.37a3.81,3.81,0,0,0-2.86.62,1,1,0,0,0,.23,1.76,4.26,4.26,0,0,0,2.42.2,1,1,0,0,0,.67-1.19,1,1,0,0,0-1.18-.67,2.41,2.41,0,0,1-1.4-.2c.07.59.15,1.17.23,1.76a1.91,1.91,0,0,1,1.38-.43,1,1,0,0,0,1.18-.67A1,1,0,0,0,136.41,89.37Z"/><path class="cls-35" d="M131.09,86.37a3.3,3.3,0,0,0-1.92.59,1,1,0,0,0-.35,1.32,2.52,2.52,0,0,0,2.75,1.36,1,1,0,0,0,.67-1.18,1,1,0,0,0-1.18-.67c.11,0,.06,0,0,0-.28-.06.1,0-.06,0l-.17,0c-.13,0,.15.1-.06,0,0,0-.1-.07,0,0a1.59,1.59,0,0,1-.13-.13c-.11-.11,0,0,0,0s-.07-.13-.1-.2c-.11.44-.23.87-.34,1.31a1.59,1.59,0,0,1,.45-.25,1.67,1.67,0,0,1,.32-.08c-.14,0,.19,0,.18,0a1,1,0,0,0,1-1A1,1,0,0,0,131.09,86.37Z"/><path class="cls-35" d="M135.73,90.15a4,4,0,0,0-2.65.36c-1,.46-.36,1.69.48,1.79a28.74,28.74,0,0,0,8.23-.21c1.21-.2.7-2-.51-1.85a27,27,0,0,1-7.72.14l.49,1.78a1.5,1.5,0,0,1,1.17-.15C136.43,92.24,137,90.39,135.73,90.15Z"/><path class="cls-35" d="M142,91.79a5.18,5.18,0,0,0,3.81-2.36c.68-1-1-2-1.65-1a3.13,3.13,0,0,1-2.16,1.4,1,1,0,0,0-1,1A1,1,0,0,0,142,91.79Z"/></g><path class="cls-36" d="M50.11,94.55C26.25,109.27,9.75,94.55,0,98.36l24.59,22,87.54,4.66c31.52-5.86,88.82-20.68,65.93-30.51-28.62-12.29-46.24-6.15-72.8-11.75C84.67,78.45,78.07,77.29,50.11,94.55Z"/></g></g></svg>