<svg width="233" height="233" viewBox="0 0 233 233" fill="none" xmlns="http://www.w3.org/2000/svg">
<path fill-rule="evenodd" clip-rule="evenodd" d="M119.406 11.0084C164.013 11.5943 198.059 47.049 211.477 89.5878C224.501 130.873 214.695 176.989 179.884 202.73C144.203 229.115 95.4506 227.96 59.4626 201.995C23.1034 175.761 6.15066 129.841 19.576 87.067C33.4254 42.9416 73.1573 10.4008 119.406 11.0084Z" fill="#F5AA00"/>
<g clip-path="url(#clip0)">
<path d="M155.59 173.254C157.106 168.779 156.367 160.499 156.326 159.555C156.406 150.932 155.756 142.317 154.384 133.801C153.281 126.879 146.85 119.738 139.277 121.566C136.889 122.206 134.428 122.801 132.384 124.222C129.124 126.641 126.463 129.767 124.603 133.362C120.965 140.713 119.922 148.899 119.231 156.965C118.887 160.544 118.541 164.138 118.521 167.733C118.671 169.164 118.366 170.798 119.063 172.097C119.072 172.645 119.106 173.187 119.153 173.739C118.994 174.934 119.231 176.149 119.828 177.2C120.121 177.711 120.535 178.145 121.033 178.463C121.107 179.02 121.295 179.555 121.586 180.036C121.878 180.517 122.266 180.934 122.726 181.26C124.91 182.733 127.669 182.59 130.19 182.902C133.985 183.267 137.789 183.633 141.591 183.922C143.704 184.048 145.819 183.982 147.928 184.146C148.22 184.174 148.512 184.202 148.804 184.23L149.035 184.252C149.838 184.338 150.65 184.191 151.371 183.831C152.093 183.47 152.695 182.91 153.104 182.218C153.513 181.527 153.713 180.732 153.679 179.93C153.646 179.127 153.38 178.351 152.914 177.695C153.671 177.205 154.305 176.551 154.768 175.782C155.232 175.012 155.513 174.148 155.59 173.254Z" fill="#00A99D"/>
<path d="M158.522 111.342C158.586 110.698 158.597 110.05 158.554 109.404C158.904 107.604 158.748 105.743 158.102 104.024C157.456 102.306 156.345 100.797 154.892 99.664C154.017 99.0206 153.07 98.4798 152.07 98.0525C150.849 97.1823 149.507 96.4929 148.087 96.006C142.134 94.0548 136.188 96.6943 132.026 99.5747C129.63 101.271 127.746 103.585 126.575 106.266C124.451 108.865 123.24 112.083 123.127 115.43C123.573 118.52 125.119 121.349 127.486 123.404C131.852 126.866 137.758 128.02 142.814 126.003C146.134 125.026 149.132 123.188 151.499 120.677C153.278 119.716 154.826 118.384 156.038 116.773C157.25 115.162 158.098 113.309 158.522 111.342Z" fill="#FED4C7"/>
<path d="M162.873 108.018C163.022 107.334 163.063 106.631 162.996 105.935C163.019 105.377 163.018 104.815 162.995 104.248C162.927 103.291 162.722 102.349 162.389 101.448L162.249 101.204C161.831 100.161 161.136 99.251 160.239 98.5689C159.374 97.9494 158.414 97.4722 157.397 97.1558C157.323 96.9023 157.222 96.6575 157.095 96.426C156.207 93.9287 154.388 91.8648 152.012 90.6618C150.001 88.6698 147.454 87.2964 144.677 86.7063C139.314 86.0288 135.929 91.402 137.075 96.1714C137.627 99.7825 140.517 102.386 143.17 104.713C144.44 105.642 145.811 106.428 147.256 107.054L147.819 107.324C146.787 108.642 145.942 110.095 145.311 111.642C144.382 113.801 142.903 116.031 143.877 118.481C144.537 120.332 146.424 121.352 148.18 122.122C149.298 122.555 150.515 122.672 151.696 122.461C152.877 122.25 153.975 121.718 154.87 120.925C157.225 118.949 159.178 116.544 160.623 113.839C161.577 111.982 162.595 110.109 162.873 108.018Z" fill="#2661C7"/>
<path d="M98.0633 150.763C98.7367 150.024 99.3336 149.22 99.8451 148.362C100.519 147.736 100.993 146.928 101.209 146.037C101.374 145.498 101.418 144.93 101.338 144.373C101.258 143.815 101.055 143.282 100.743 142.811C101.17 141.876 101.226 140.816 100.902 139.84C100.578 138.865 99.8967 138.045 98.9935 137.545C98.634 137.333 98.2561 137.15 97.9126 136.932C96.0508 135.329 96.3109 135.284 96.0608 134.983L95.8564 134.609C95.8282 134.499 95.8008 134.38 95.7811 134.263C95.6852 132.922 95.7537 131.565 95.525 130.234C95.2978 126.631 91.9978 123.533 88.7046 122.462C85.9329 121.933 82.792 122.987 81.9203 125.922C81.0487 128.857 83.5467 130.699 85.2745 132.567C85.3258 132.643 85.3726 132.722 85.4146 132.804L85.4007 132.949L84.3375 132.554C82.9779 131.91 81.6333 131.244 80.3037 130.556C79.2081 129.935 78.0898 129.389 77.0008 128.698C75.8157 127.637 74.8304 126.272 73.3151 125.741C72.2899 124.872 71.4575 123.691 70.2664 123.014C69.6678 122.704 69.0074 122.531 68.3332 122.506C67.6589 122.481 66.9878 122.606 66.3684 122.87C65.749 123.135 65.1969 123.534 64.7522 124.037C64.3074 124.54 63.9812 125.136 63.7971 125.78C63.1487 128.49 65.0349 130.405 66.7605 132.296C66.634 132.23 66.5116 132.156 66.394 132.076C66.1643 131.884 65.9422 131.693 65.7293 131.488C65.1324 130.896 64.3679 130.5 63.5383 130.351C62.7086 130.202 61.8534 130.309 61.0871 130.656C60.1155 131.048 59.3175 131.772 58.8373 132.697C58.3571 133.623 58.2266 134.689 58.4693 135.703C58.9108 137.401 60.4317 138.518 61.7427 139.56L61.9099 139.677C58.8799 140.463 57.1551 144.448 59.328 146.929C62.0539 150.272 66.5382 151.858 71.2238 152.24C71.1638 153.052 71.3564 153.864 71.7756 154.565C72.6704 156.306 74.4995 156.798 76.337 156.721C77.1905 156.991 78.0609 157.206 78.9425 157.364C82.2858 157.896 85.7087 157.217 88.5866 155.45C90.1013 154.294 91.7264 153.28 93.1716 152.04L93.5262 151.82C94.3084 152.07 95.144 152.104 95.9433 151.917C96.7426 151.731 97.4755 151.332 98.0633 150.763Z" fill="#FED4C7"/>
<path d="M157.337 131.728C156.517 129.981 155.349 128.417 153.902 127.131C153.445 126.639 152.888 126.25 152.268 125.988C150.857 125.141 149.17 124.871 147.564 125.235C145.185 125.777 143.298 127.497 141.691 129.291C140.817 130.324 139.598 131.3 139.393 132.705C138.195 137.103 144.286 139.806 146.934 136.133C148.579 134.266 147.915 134.803 148.86 134.008L149.132 134.327C149.479 134.984 149.867 135.63 150.248 136.267C150.628 136.905 150.877 137.783 151.606 138.269C152.349 138.978 153.328 139.391 154.357 139.429C155.386 139.467 156.393 139.127 157.185 138.475C159.388 136.692 158.899 133.796 157.337 131.728Z" fill="#63CFC7"/>
<path d="M155.193 131.676L155.137 131.532C155.15 131.582 155.169 131.63 155.193 131.676Z" fill="#63CFC7"/>
<path d="M153.898 156.519C154.703 154.751 155.187 152.855 155.328 150.919C155.604 149.582 156.024 148.275 156.224 146.931C156.441 145.891 156.526 144.828 156.474 143.767C156.892 141.798 157.085 139.789 157.05 137.777C157.144 135.745 156.89 133.31 155.284 131.954L155.136 131.555L155.003 131.242C155.048 131.339 155.085 131.435 155.123 131.531L154.992 131.195C154.664 130.254 154.516 129.208 153.835 128.473C153.54 128.036 153.153 127.668 152.702 127.394C152.25 127.119 151.745 126.944 151.22 126.881C151.061 126.758 150.911 126.628 150.743 126.519C147.644 124.311 143.399 125.32 140.959 128.197C139.665 129.778 138.699 131.598 138.117 133.553C136.703 137.375 137.275 135.782 136.107 139.051C135.919 139.803 135.697 140.498 135.45 141.213C133.171 140.717 130.885 140.304 128.668 139.729C126.654 139.381 124.659 138.928 122.619 138.693L122.135 138.646C119.445 138.093 116.689 137.932 113.954 138.167C113.715 138.144 113.475 138.221 113.24 138.245L111.164 137.583C108.438 136.736 105.175 134.874 102.656 137.358C101.8 138.2 101.451 139.406 100.99 140.494C100.204 142.276 99.5601 144.117 99.0644 146C98.6316 147.113 98.2142 148.228 97.8099 149.368C97.3279 150.571 97.0457 151.844 96.9743 153.138C96.8121 154.017 96.7884 154.916 96.904 155.803C97.5636 158.377 100.143 159.373 102.648 159.051C103.055 159.09 103.471 159.038 103.873 159.046C106.272 159.577 108.647 160.198 111.036 160.759C116.599 162.342 122.279 163.483 128.023 164.172C131.211 164.479 134.425 164.526 137.613 164.833C140.748 164.973 144.038 164.865 146.891 163.345C147.169 163.241 147.44 163.118 147.701 162.977C148.333 162.59 148.902 162.109 149.389 161.553C151.256 160.235 152.797 158.514 153.898 156.519Z" fill="#63CFC7"/>
<path d="M101.383 140.277C101.363 140.349 101.356 140.424 101.361 140.499C101.373 140.425 101.38 140.351 101.383 140.277Z" fill="#63CFC7"/>
<path d="M156.865 158.475C157.623 155.214 158.141 151.902 158.416 148.566C158.792 146.894 159.013 145.191 159.076 143.478C159.214 141.779 159.264 140.075 159.226 138.371C159.123 137.071 158.934 135.779 158.659 134.504C158.498 133.467 158.094 132.481 157.478 131.626L157.35 131.429C156.346 129.53 154.559 128.203 153.03 126.685C151.106 124.837 148.242 124.869 145.811 125.798C144.016 126.396 141.837 126.802 140.885 128.636C140.462 129.355 140.265 130.183 140.317 131.015C140.369 131.847 140.669 132.645 141.179 133.307C141.689 133.97 142.386 134.467 143.18 134.735C143.975 135.004 144.831 135.032 145.641 134.816C146.443 134.538 147.29 134.204 148.11 133.983L148.485 134.35C148.908 134.791 149.357 135.204 149.787 135.653C149.918 135.89 150.062 136.12 150.217 136.342C150.377 137.012 150.496 137.708 150.617 138.39C150.737 139.072 150.627 139.731 150.633 140.394C150.614 141.162 150.625 142.01 150.593 142.824C150.571 143.06 150.547 143.304 150.524 143.541C150.487 145.701 150.423 144.594 149.919 148.142C149.415 151.69 149.748 150.644 149.303 152.857C148.78 155.549 149.347 154.009 148.391 157.09C148.322 157.245 148.253 157.4 148.191 157.564C147.974 157.805 147.75 158.037 147.511 158.268L147.387 158.341L147.101 158.414L146.623 158.545C145.384 158.611 144.146 158.422 142.905 158.426C139.415 158.352 135.904 158.654 132.452 158.191C122.07 157.531 117.921 157.217 111.109 156.777C111.708 156.835 112.642 156.963 111.554 156.82C108.584 156.588 108.408 156.317 104.003 155.924L103.734 155.898C103.876 155.627 104.153 155.168 104.728 154.346C104.497 154.655 104.258 154.963 104.019 155.271C105.83 153.075 107.298 150.62 108.372 147.988C108.218 148.374 107.725 149.467 108.138 148.567C108.872 147.024 109.394 145.391 109.69 143.71C110.692 144.022 111.702 144.32 112.71 144.563C114.425 145.172 116.214 145.553 118.029 145.698C119.804 146.185 121.653 146.309 123.451 146.72C124.901 147.059 126.375 147.288 127.86 147.406C130.219 148.081 132.618 148.61 135.043 148.991C135.396 149.024 135.735 149.126 136.094 149.184C136.453 149.242 136.632 149.236 136.924 149.264L137.394 149.371C138.039 149.515 138.707 149.516 139.352 149.373C139.996 149.23 140.6 148.947 141.121 148.544C141.642 148.141 142.066 147.629 142.363 147.043C142.66 146.458 142.823 145.814 142.84 145.158C142.884 142.275 140.377 140.855 137.781 140.752C137.276 140.647 136.766 140.57 136.253 140.52C136.114 140.514 135.975 140.501 135.838 140.48C133.178 140.001 130.841 139.068 128.292 138.884L128.161 138.872C125.957 138.49 123.768 138.025 121.55 137.704C120.56 137.402 119.534 137.228 118.498 137.187C116.346 136.749 114.281 136.05 112.171 135.493C109.434 134.852 106.455 132.764 103.65 134.358C102.554 134.988 101.744 136.013 101.39 137.221C101.191 138.138 101.184 139.086 101.37 140.007C101.359 140.077 101.352 140.149 101.349 140.22L101.36 140.113C101.372 139.984 101.386 139.839 101.443 139.729L101.396 140.217C101.428 140.451 101.46 140.685 101.483 140.926C101.446 140.817 101.423 140.703 101.415 140.588C101.425 140.482 101.435 140.375 101.391 140.27C101.385 140.331 101.379 140.392 101.373 140.454C101.323 140.774 101.292 141.098 101.28 141.423C101.274 141.491 101.268 141.552 101.26 141.629C101.239 141.711 101.231 141.796 101.236 141.88C101.08 142.774 100.758 143.629 100.548 144.517C100.539 144.617 100.452 144.708 100.411 144.812C100.37 144.916 100.248 145.22 100.159 145.42C99.3501 146.736 98.7021 148.152 97.7677 149.402C96.4712 150.993 95.5229 152.834 94.9832 154.81L94.9045 155.064C94.764 155.397 94.6233 155.73 94.4974 156.072C93.985 157.127 93.668 158.266 93.5616 159.433C93.5419 160.008 93.6395 160.582 93.8484 161.119C94.0573 161.657 94.3732 162.147 94.7773 162.561C95.1814 162.974 95.6653 163.303 96.2 163.526C96.7347 163.749 97.3091 163.863 97.8889 163.861C98.4959 163.919 99.1018 163.908 99.7069 163.905L100.037 163.937L100.291 163.961C104.257 164.404 107.286 165.004 113.387 165.413C114.697 165.562 116.014 165.627 117.331 165.608C117.047 165.581 115.854 165.404 116.563 165.534C122.824 166.136 129.116 166.426 135.39 166.906C137.86 166.943 140.339 166.804 142.816 166.85C144.572 166.896 146.327 167.188 148.088 166.78C153.79 165.942 156.223 160.962 156.865 158.475Z" fill="#63CFC7"/>
<path d="M130.673 107.508C130.557 107.353 130.422 107.213 130.271 107.092C130.782 106.969 131.257 106.73 131.658 106.393C132.06 106.056 132.376 105.63 132.583 105.15C132.801 104.585 132.846 103.968 132.712 103.377C132.577 102.786 132.27 102.248 131.829 101.829C131.387 101.411 130.831 101.132 130.23 101.028C129.629 100.923 129.011 100.997 128.453 101.241C126.583 101.908 124.529 102.219 122.89 103.378C122.418 103.705 122.028 104.135 121.75 104.636C121.472 105.136 121.314 105.694 121.288 106.265C121.261 106.836 121.367 107.406 121.598 107.93C121.828 108.455 122.176 108.92 122.616 109.289C123.176 109.836 123.549 110.149 122.758 109.419L123.52 110.131C124.136 110.783 124.876 111.307 125.698 111.673C126.549 112.009 127.435 112.556 128.382 112.462C130.864 112.532 132.248 109.353 130.673 107.508Z" fill="#FED4C7"/>
<path d="M128.572 114.522C127.056 114.16 125.099 114.357 124.379 115.951C124.137 116.393 124.008 116.887 124.003 117.39C123.999 117.893 124.119 118.39 124.354 118.837C124.588 119.283 124.93 119.666 125.348 119.95C125.766 120.235 126.248 120.413 126.752 120.469C127.159 120.508 127.559 120.546 127.962 120.624C128.358 120.673 128.76 120.64 129.143 120.529C129.526 120.417 129.881 120.229 130.188 119.975C130.669 119.596 131.025 119.083 131.21 118.501C131.395 117.92 131.402 117.296 131.228 116.71C131.055 116.125 130.709 115.604 130.236 115.214C129.763 114.824 129.184 114.583 128.572 114.522Z" fill="white"/>
<path d="M94.4414 92.5557C94.5523 90.2202 94.3283 87.8805 93.7761 85.6068C93.5636 82.737 93.6097 82.7414 93.5243 79.5988C93.4902 77.6959 93.4871 75.7934 93.515 73.8913C93.5218 73.0141 93.6465 72.0403 92.9859 71.3299C92.6928 70.9902 92.3064 70.7425 91.8741 70.6174C91.4417 70.4922 90.9822 70.4948 90.5517 70.625C90.1212 70.7552 89.7384 71.0073 89.4502 71.3504C89.162 71.6935 88.9808 72.1128 88.9288 72.5569C88.9045 75.712 88.8871 78.8755 89.0102 82.0294C88.9757 84.0733 89.1721 86.1148 89.5957 88.1158C89.7961 89.2415 89.8965 90.3825 89.8958 91.5254C89.9021 92.4271 89.5469 93.3787 89.8511 94.2474C89.9645 94.6006 90.1621 94.9215 90.4271 95.1827C90.6921 95.4439 91.0167 95.6377 91.3731 95.7476C91.7296 95.8576 92.1074 95.8803 92.4744 95.814C92.8414 95.7476 93.1867 95.5942 93.4809 95.3666C94.3639 94.6506 94.3683 93.5575 94.4414 92.5557Z" fill="#FA5AA2"/>
<path d="M110.066 86.9272C109.959 86.3976 109.677 85.9182 109.266 85.5642C108.677 84.9992 108.035 84.4985 107.402 83.9909C106.167 82.5629 105.052 81.0155 103.68 79.7131C100.996 77.3139 98.0494 75.213 95.2607 72.9271C94.2028 72.1553 93.2399 70.7997 91.7734 71.0514C91.3351 71.1371 90.9313 71.347 90.6107 71.6558C90.2902 71.9645 90.0665 72.3589 89.9667 72.7914C89.8669 73.2238 89.8953 73.6759 90.0483 74.0931C90.2014 74.5102 90.4726 74.8746 90.8293 75.1424C94.5153 78.3386 99.32 81.5116 101.423 83.9164C102.813 85.5903 104.088 87.3225 105.883 88.5734C106.066 88.7681 106.87 89.5154 107.3 89.4798C107.662 89.5549 108.037 89.5428 108.394 89.4444C108.75 89.346 109.077 89.1642 109.348 88.9143C109.619 88.6643 109.825 88.3534 109.95 88.0077C110.075 87.662 110.115 87.2915 110.066 86.9272Z" fill="#FA5AA2"/>
<path d="M100.613 80.4037C98.5739 81.4474 96.5401 82.4378 94.4441 83.4299C93.6193 83.9435 92.4938 84.1972 91.7875 84.9302C90.0696 86.6672 92.1846 89.5891 94.4101 88.5402C96.5142 87.4642 98.6701 86.4933 100.773 85.4249C101.933 84.8126 103.27 84.3789 104.129 83.3449C104.371 83.1237 104.562 82.854 104.69 82.5536C104.818 82.2533 104.88 81.9292 104.873 81.6029C104.865 81.2766 104.787 80.9556 104.645 80.6612C104.503 80.3668 104.299 80.1058 104.048 79.8954C103.796 79.6851 103.503 79.5302 103.187 79.4412C102.87 79.3522 102.539 79.331 102.214 79.3791C101.889 79.4272 101.578 79.5434 101.302 79.7201C101.026 79.8967 100.791 80.1297 100.613 80.4037Z" fill="#FA5AA2"/>
<path d="M133.061 68.9003C133.146 66.2324 132.962 63.5624 132.51 60.9305C132.135 58.6996 131.38 56.5553 131.005 54.3245C130.961 54.0584 130.94 53.9562 130.94 53.9562L130.946 53.8952C130.878 53.5609 130.74 53.2444 130.541 52.9663C130.342 52.6883 130.087 52.4548 129.791 52.2811C129.495 52.1074 129.166 51.9974 128.825 51.9582C128.485 51.919 128.139 51.9514 127.812 52.0535L127.727 52.0454C127.455 51.7923 127.127 51.6063 126.769 51.5024C126.411 51.3984 126.034 51.3794 125.668 51.4468C122.88 51.6799 120.108 52.0741 117.366 52.6275C116.028 52.9917 114.38 53.041 113.357 53.9978C113.362 53.9443 113.357 53.9978 113.149 54.2242L113.037 54.3443L113.122 54.2678C111.402 56.5051 112.524 59.601 112.596 62.157C112.958 64.6794 112.968 67.2371 113.346 69.7533C113.318 72.0609 114.586 74.1929 117.175 73.7951C118.125 73.469 119.057 73.0933 119.967 72.6696C122.032 72.0731 124.17 71.7605 126.321 71.7406C126.667 71.7739 126.698 71.6922 128.368 71.8296C130.981 72.235 132.904 71.9887 133.061 68.9003Z" fill="#169FFA"/>
<path d="M164.378 59.6449C163.14 59.6182 162.033 60.4051 160.928 60.8532C159.537 61.5111 158.207 62.2876 156.952 63.1739C155.365 64.754 157.246 67.3685 159.262 66.5613C158.574 67.8274 158.005 69.1512 157.339 70.4272L157.238 70.5945C156.666 71.538 156.157 72.5182 155.715 73.5285C155.476 73.8151 155.312 74.1568 155.24 74.5224C155.153 74.9037 155.176 75.3013 155.304 75.6711C155.432 76.0408 155.661 76.368 155.965 76.6162C156.269 76.8643 156.637 77.0237 157.027 77.0764C157.417 77.1291 157.814 77.0731 158.173 76.9147C159.106 76.4885 159.47 75.4453 159.893 74.5927C160.31 73.7076 160.774 72.8448 161.282 72.0077C162.015 70.3488 162.851 68.7369 163.785 67.1812C164.81 65.393 165.42 63.8113 165.796 63.2082C166.042 62.9056 166.203 62.5433 166.262 62.1584C166.321 61.7735 166.277 61.3798 166.132 61.0174C165.988 60.6551 165.75 60.3371 165.442 60.096C165.134 59.8548 164.767 59.6992 164.378 59.6449Z" fill="#0FD61C"/>
<path d="M161.113 77.3205C160.077 76.2072 158.884 75.2493 157.571 74.477C156.382 73.7773 155.185 73.0846 153.968 72.4361C153.222 72.1257 152.509 71.4795 151.685 71.5774C149.421 71.5829 148.896 74.8593 151.016 75.6331C153.204 76.688 155.285 77.9508 157.229 79.4036L157.416 79.5602C157.642 79.7822 157.852 80.0257 158.061 80.2691L158.065 80.2233L158.105 80.2888C158.474 80.7325 159.005 81.0128 159.581 81.0683C160.157 81.1237 160.732 80.9497 161.179 80.5844C161.413 80.3792 161.6 80.1257 161.726 79.8414C161.852 79.5571 161.913 79.2489 161.907 78.9382C161.901 78.6276 161.827 78.322 161.689 78.0426C161.552 77.7632 161.355 77.5168 161.113 77.3205Z" fill="#0FD61C"/>
<path d="M79.3138 104.724L79.352 104.327C79.574 103.309 80.1389 102.193 80.0506 101.175C80.2415 100.791 80.3203 100.361 80.2782 99.9345C80.2361 99.5077 80.0748 99.101 79.8124 98.7602C79.55 98.4195 79.1971 98.1582 78.7934 98.0059C78.3897 97.8536 77.9514 97.8164 77.5278 97.8984C74.6681 98.2856 71.8646 98.8939 69.0216 99.4291C67.0748 99.7578 65.0606 99.8182 63.2723 100.755L62.6767 100.983C62.3695 101.162 62.1048 101.405 61.9003 101.695C61.6959 101.985 61.5564 102.315 61.4915 102.663C60.7853 105.329 65.3231 108.053 65.4087 108.292L64.9554 107.925C66.1271 108.964 67.243 110.064 68.2986 111.219C69.146 112.203 70.101 113.091 71.1457 113.865L71.2953 114.003C71.3995 114.128 71.5283 114.241 71.6325 114.366C71.7368 114.492 71.7748 114.58 71.8582 114.681C72.0763 114.986 72.366 115.233 72.7021 115.402C73.0382 115.571 73.4106 115.656 73.787 115.65C74.1634 115.644 74.5324 115.546 74.8622 115.366C75.1919 115.186 75.4724 114.929 75.6793 114.617C76.3348 113.148 76.8797 111.633 77.3095 110.084C78.1581 108.356 79.1951 106.684 79.3138 104.724Z" fill="#FF5B29"/>
<path d="M152.959 117.999C152.539 115.833 150.197 114.461 148.043 114.692L147.83 114.726C147.388 114.467 146.888 114.324 146.376 114.31C145.864 114.295 145.356 114.41 144.901 114.643C144.446 114.876 144.057 115.22 143.772 115.642C143.487 116.065 143.315 116.553 143.271 117.06L143.256 117.212C143.021 117.453 142.8 117.707 142.594 117.973C141.735 118.908 141.258 120.128 141.257 121.394C141.029 123.767 143.855 125.826 146.155 125.131L146.356 125.05C146.649 124.987 146.937 124.904 147.218 124.802C147.813 124.9 148.422 124.874 149.006 124.726C149.59 124.578 150.137 124.311 150.611 123.942C152.165 122.459 153.3 120.173 152.959 117.999Z" fill="#2661C7"/>
<path d="M153.127 116.398C153.438 115.689 153.468 114.889 153.21 114.158C153.088 112.867 152.486 111.668 151.522 110.794C150.558 109.92 149.302 109.433 147.997 109.428C147.661 109.411 147.325 109.412 146.989 109.431L146.702 109.511L146.771 109.518C144.544 109.943 144.827 110.301 144.056 110.659C143.152 111.291 142.305 112 141.526 112.779C140.945 113.29 140.476 113.913 140.148 114.611C139.873 115.306 139.839 116.073 140.051 116.79C140.263 117.507 140.708 118.135 141.317 118.574C141.797 119.069 142.383 119.45 143.031 119.691C143.678 119.932 144.372 120.026 145.06 119.966C145.432 119.926 145.798 119.847 146.153 119.732C147.581 119.664 148.987 119.365 150.317 118.846C151.427 118.268 152.626 117.659 153.127 116.398Z" fill="#FED4C7"/>
<path d="M89.0624 124.938C89.1067 124.618 89.0828 124.293 88.9924 123.983C88.902 123.673 88.747 123.386 88.5375 123.139C87.4665 122.019 85.3161 121.643 84.1117 122.636C83.865 122.813 83.6625 123.043 83.5198 123.31C83.3772 123.576 83.2983 123.872 83.2892 124.174C83.1744 124.801 83.2795 125.448 83.587 126.007C83.8944 126.567 84.3857 127.004 84.9786 127.248C86.0743 127.546 87.5091 127.946 88.4771 127.153C88.804 126.898 89.038 126.543 89.1436 126.143C89.2492 125.743 89.2207 125.32 89.0624 124.938Z" fill="white"/>
<path d="M65.7079 124.616C65.1985 124.567 64.6906 124.721 64.2959 125.044C63.9013 125.368 63.6523 125.833 63.6036 126.339C63.555 126.845 63.7107 127.35 64.0365 127.742C64.3623 128.135 64.8315 128.383 65.3409 128.432C65.8503 128.481 66.3582 128.327 66.7529 128.004C67.1475 127.68 67.3965 127.215 67.4451 126.709C67.4938 126.203 67.3382 125.698 67.0124 125.306C66.6866 124.913 66.2173 124.665 65.7079 124.616Z" fill="white"/>
</g>
<defs>
<clipPath id="clip0">
<rect width="101.514" height="130.518" fill="white" transform="translate(66.9395 45.7056) rotate(5.49424)"/>
</clipPath>
</defs>
</svg>
