<svg width="233" height="233" viewBox="0 0 233 233" fill="none" xmlns="http://www.w3.org/2000/svg">
<mask id="mask0" mask-type="alpha" maskUnits="userSpaceOnUse" x="0" y="0" width="233" height="233">
<rect width="233" height="233" fill="#C4C4C4"/>
</mask>
<g mask="url(#mask0)">
<path fill-rule="evenodd" clip-rule="evenodd" d="M112.642 3.44658C131.047 1.59253 149.819 5.53515 165.805 14.8327C182.203 24.3702 195.024 39.047 203.232 56.1354C211.539 73.4318 214.558 92.719 212.368 111.778C210.136 131.204 204.975 151.627 190.72 165.03C176.878 178.044 155.655 176.394 137.536 182.135C118.909 188.038 101.915 202.891 82.7156 199.255C63.1734 195.554 48.9073 178.854 36.8352 163.065C25.2844 147.958 18.4745 130.182 15.5425 111.401C12.5838 92.4481 10.3357 71.7754 19.9959 55.1972C29.4201 39.0237 49.5993 34.0256 65.9514 24.8916C81.2115 16.3675 95.246 5.199 112.642 3.44658Z" fill="#00D18A"/>
<g clip-path="url(#clip0)">
<path d="M79.2322 77.9002C80.9685 80.653 81.6021 83.8546 80.9267 87.0445C80.5352 88.9054 83.2846 89.6932 83.8076 87.8352C84.8895 84.0033 83.9302 80.0376 81.3272 77.041C81.106 77.8704 80.8878 78.6969 80.6667 79.5263C82.2865 79.1814 83.2996 81.4437 83.5118 82.6982C83.7628 84.1698 83.3773 85.5908 82.2566 86.5985C82.9619 87.3001 83.6642 87.9987 84.3695 88.7003C86.0789 86.765 86.0699 84.2233 84.4711 82.2345C83.2697 80.7392 81.1688 82.8558 82.3582 84.3362C82.8901 84.9992 82.8035 85.9802 82.2566 86.5985C80.9895 88.0344 82.935 89.9905 84.3695 88.7003C88.398 85.0735 86.3329 75.2811 79.8717 76.6605C78.6943 76.9102 78.5269 78.355 79.2113 79.1458C81.112 81.3367 81.7037 84.2798 80.9237 87.0474C81.883 87.312 82.8453 87.5736 83.8046 87.8382C84.6414 83.8755 83.978 79.8414 81.8083 76.4019C80.7922 74.7817 78.2071 76.2711 79.2322 77.9002Z" fill="#2B5741"/>
<path d="M118.616 113.794C120.188 113.071 121.861 112.563 123.562 112.245C123.621 112.233 124.276 112.182 124.3 112.123C123.526 111.564 123.29 111.499 123.598 111.93C123.678 112.064 123.759 112.2 123.834 112.34C124.189 112.973 124.515 113.621 124.784 114.296C125.779 116.796 126.356 119.87 125.116 122.391C123.926 124.814 121.29 126.19 118.894 127.183C117.274 127.855 115.526 128.435 113.78 128.658C112.513 128.821 110.511 128.946 109.417 128.2C109.74 128.521 110.06 128.839 110.382 129.16C109.423 127.793 109.109 125.325 108.876 123.666C108.589 121.642 108.601 119.579 108.769 117.542C108.323 118.312 107.881 119.082 107.436 119.852C108.422 119.436 109.883 119.82 110.929 119.757C112.322 119.674 113.655 119.347 114.892 118.693C116.09 118.06 117.112 117.147 117.916 116.068C118.194 115.696 118.457 114.977 118.801 114.686C118.535 114.908 119.464 114.617 119.677 114.578C119.856 114.546 121.09 114.483 121.066 114.519C120.836 114.415 120.735 114.219 120.761 113.93C120.776 113.77 120.708 113.883 120.555 114.266C120.292 114.4 120.023 114.819 119.757 115.001C119.372 115.271 118.927 115.476 118.49 115.649C115.92 116.671 112.985 116.966 110.245 117.046C111.141 117.938 112.038 118.83 112.935 119.721C112.923 119.168 112.698 119.567 113.23 119.079C111.963 117.819 110.693 116.555 109.426 115.295C107.887 117.096 106.766 119.044 106.037 121.3C105.368 123.366 107.448 124.974 109.345 124.591C114.468 123.553 118.236 119.748 121.592 116.023C120.095 115.155 118.595 114.287 117.098 113.419C116.894 114.718 116.105 115.601 115.26 116.564C114.202 117.771 113.105 118.943 111.966 120.075C109.794 122.239 107.483 124.282 105.036 126.134C102.328 128.185 104.576 132.326 107.749 130.753C111.88 128.708 115.708 126.226 119.339 123.396C118.072 122.135 116.802 120.872 115.535 119.611C114.082 120.934 112.887 122.519 112.044 124.291C111.527 125.379 111.569 126.642 112.465 127.534C113.263 128.328 114.755 128.622 115.726 127.953C118.487 126.045 121.246 124.136 124.007 122.227C122.919 120.827 121.834 119.427 120.747 118.024C119.088 120.12 117.534 122.275 116.12 124.543C114.707 126.812 117.522 129.594 119.799 128.203C124.022 125.625 127.079 121.788 128.741 117.156C126.981 116.918 125.217 116.68 123.457 116.445C123.46 118.88 121.577 120.804 119.644 122.073C117.017 123.797 114.073 124.962 111.542 126.841C112.63 128.241 113.715 129.642 114.802 131.045C115.176 130.709 115.549 130.37 115.923 130.034C118.49 127.712 114.677 123.937 112.119 126.25C111.745 126.586 111.372 126.924 110.998 127.26C108.78 129.264 111.784 133.301 114.258 131.464C117.334 129.178 121.01 127.879 124.013 125.486C126.807 123.259 128.842 120.09 128.836 116.448C128.83 113.315 124.548 112.967 123.553 115.738C122.372 119.026 120.065 121.767 117.083 123.586C118.308 124.805 119.536 126.027 120.761 127.246C121.93 125.37 123.176 123.544 124.548 121.811C125.376 120.762 125.66 119.424 124.757 118.297C123.98 117.325 122.405 116.835 121.287 117.608C118.526 119.516 115.768 121.425 113.006 123.333C114.232 124.552 115.46 125.774 116.685 126.993C117.355 125.587 118.179 124.448 119.333 123.396C120.406 122.421 120.328 120.601 119.333 119.611C118.203 118.488 116.676 118.717 115.529 119.611C112.274 122.147 108.727 124.3 105.027 126.131C105.932 127.671 106.838 129.211 107.74 130.75C110.702 128.509 113.526 126.116 116.138 123.476C118.463 121.125 121.739 118.256 122.274 114.84C122.459 113.648 122.148 112.465 121.036 111.82C120.047 111.243 118.568 111.362 117.776 112.239C115.026 115.292 112.116 118.577 107.905 119.43C109.008 120.527 110.11 121.624 111.213 122.721C111.646 121.386 112.304 120.15 113.221 119.079C115.445 116.475 111.993 112.932 109.417 115.295C108.162 116.445 107.507 118.027 107.543 119.721C107.573 121.136 108.751 122.439 110.233 122.397C114.154 122.284 118.625 121.802 122.1 119.834C125.313 118.018 127.862 113.49 124.536 110.503C122.925 109.055 120.806 108.975 118.771 109.32C116.631 109.682 115.107 110.449 113.951 112.313C113.236 113.467 112.328 114.257 110.914 114.409C109.928 114.513 108.921 114.356 107.929 114.415C106.742 114.489 105.786 114.775 104.704 115.233C103.814 115.61 103.443 116.677 103.371 117.542C103.162 120.048 103.285 122.516 103.655 125.001C103.987 127.213 104.447 129.972 105.717 131.859C107.08 133.881 110.421 134.145 112.642 134.08C115.098 134.009 117.525 133.411 119.808 132.537C123.834 130.994 128.047 128.759 129.939 124.677C131.903 120.441 131.23 115.72 129.41 111.564C128.376 109.204 127.058 106.647 124.085 106.793C121.261 106.932 118.418 108.006 115.881 109.174C114.563 109.78 114.232 111.671 114.916 112.833C115.729 114.18 117.292 114.403 118.616 113.794Z" fill="#2768CE"/>
<path d="M127.694 88.3525C127.626 88.3287 127.557 88.3049 127.488 88.2782C127.62 88.3317 127.751 88.3882 127.88 88.4417C127.721 88.3703 127.581 88.2871 127.443 88.183C127.554 88.2693 127.664 88.3525 127.775 88.4387C127.64 88.3317 127.524 88.2128 127.416 88.079C127.503 88.189 127.587 88.299 127.673 88.409C127.587 88.2901 127.512 88.1682 127.449 88.0374C127.279 87.6866 126.834 87.3863 126.466 87.2853C126.071 87.1782 125.548 87.2258 125.199 87.4488C124.849 87.6747 124.538 88.0077 124.443 88.4268C124.341 88.8757 124.407 89.2711 124.607 89.6873C125.037 90.5761 125.889 91.2064 126.816 91.5007C127.634 91.7623 128.648 91.1945 128.839 90.3591C129.045 89.4703 128.57 88.6319 127.694 88.3525Z" fill="#F0A0A0"/>
<path d="M170.23 111.609C169.814 114.13 170.086 116.496 170.672 118.969C170.941 120.114 171.255 121.246 171.5 122.397C171.614 122.923 171.721 123.449 171.784 123.981C171.82 124.311 171.841 124.641 171.85 124.971C171.775 125.628 171.862 125.634 172.107 124.995C172.459 124.79 172.809 124.588 173.162 124.383C172.307 124.701 171.055 124.531 170.131 124.561C168.987 124.594 167.845 124.63 166.7 124.662C165.556 124.695 164.414 124.731 163.27 124.763C162.325 124.79 161.019 125.061 160.114 124.876C160.589 125.242 161.067 125.605 161.542 125.97C161.503 125.902 161.465 125.836 161.426 125.768C161.533 126.169 161.644 126.568 161.751 126.969C161.575 124.897 161.739 122.751 161.742 120.67C161.745 119.537 161.745 118.404 161.748 117.272C161.751 116.508 161.644 114.897 161.772 114.54C161.566 114.891 161.363 115.238 161.157 115.589C161.237 115.524 161.318 115.458 161.402 115.39C161.049 115.595 160.699 115.797 160.347 116.002C163.631 114.885 167.331 114.751 170.765 114.962C170.361 113.485 169.961 112.007 169.557 110.53C166.808 112.53 163.721 113.913 160.616 115.265C158.12 116.35 159.902 120.384 162.457 119.611C162.971 119.457 163.144 119.466 163.676 119.525C163.111 118.173 162.549 116.82 161.985 115.464C160.251 117.56 158.945 119.751 157.899 122.254C156.961 124.505 160.356 126.202 161.895 124.567C163.458 122.905 165.024 121.244 166.587 119.585C165.254 118.815 163.924 118.042 162.591 117.272C162.289 118.294 161.988 119.314 161.686 120.337C161.115 122.269 163.437 124.163 165.197 123.021C167.295 121.666 168.99 119.953 170.287 117.822C170.899 116.817 170.603 115.447 169.671 114.754C168.637 113.987 167.501 114.192 166.533 114.941C164.014 116.885 161.698 119.047 159.588 121.422C157.872 123.354 160.078 126.681 162.484 125.156C164.339 123.981 166.192 122.81 168.048 121.636C166.877 120.741 165.708 119.846 164.537 118.951C164.163 120.179 163.607 121.321 162.788 122.323C161.402 124.017 162.633 127.079 165.114 126.297C167.516 125.542 169.626 124.243 171.282 122.343C170.03 121.383 168.777 120.423 167.528 119.463C167.379 119.718 167.229 119.974 167.08 120.23C168.535 120.839 169.994 121.452 171.449 122.061C171.545 121.594 171.575 121.538 171.853 121.151C170.475 121.151 169.1 121.151 167.722 121.151C168.332 122.005 168.846 122.882 169.199 123.871C169.755 122.896 170.314 121.921 170.869 120.946C170.107 121.139 169.417 121.184 168.631 121.139C165.986 120.991 165.311 125.391 167.994 125.81C168.664 125.914 169.381 125.961 170.033 126.149C169.68 125.943 169.33 125.741 168.978 125.536C169.011 125.575 169.04 125.611 169.073 125.649C169.073 124.528 169.073 123.408 169.073 122.287C169.043 122.317 169.014 122.349 168.984 122.379C170.11 122.379 171.237 122.379 172.364 122.379C172.337 122.358 172.313 122.337 172.286 122.317C171.282 121.511 169.886 121.339 168.906 122.317C168.069 123.149 167.896 124.87 168.906 125.679C168.933 125.7 168.957 125.721 168.984 125.741C169.973 126.532 171.395 126.752 172.364 125.741C172.394 125.712 172.423 125.679 172.453 125.649C173.404 124.662 173.302 123.289 172.453 122.287C171.685 121.38 170.349 121.392 169.265 121.223C169.052 122.78 168.84 124.338 168.628 125.893C169.817 125.958 170.986 125.825 172.137 125.53C173.323 125.23 174.234 123.803 173.807 122.605C173.314 121.229 172.698 119.941 171.85 118.749C170.765 117.224 168.807 117.23 167.719 118.749C167.28 119.365 166.984 120.057 166.832 120.795C166.309 123.354 169.776 125.055 171.201 122.626C171.351 122.37 171.5 122.115 171.649 121.859C172.982 119.588 169.716 116.888 167.896 118.978C166.769 120.268 165.481 121.19 163.837 121.707C164.611 123.033 165.388 124.356 166.162 125.682C167.522 124.023 168.514 122.269 169.139 120.212C169.734 118.262 167.382 116.416 165.628 117.528C163.772 118.702 161.919 119.873 160.063 121.047C161.028 122.293 161.993 123.539 162.959 124.781C165.072 122.403 167.385 120.245 169.904 118.3C168.652 117.34 167.4 116.38 166.151 115.42C165.284 116.844 164.181 118.003 162.776 118.913C163.948 119.808 165.116 120.702 166.288 121.597C166.59 120.575 166.892 119.555 167.194 118.532C167.86 116.285 164.836 114.48 163.198 116.219C161.635 117.881 160.069 119.543 158.506 121.202C159.839 121.972 161.169 122.745 162.502 123.515C163.204 121.832 164.196 120.227 165.359 118.824C166.742 117.153 165.786 114.995 163.667 114.763C162.821 114.671 161.988 114.775 161.175 115.018C161.787 116.466 162.403 117.917 163.016 119.365C166.121 118.012 169.208 116.627 171.957 114.629C173.861 113.244 173.23 110.351 170.75 110.197C167.869 110.018 165 110.194 162.158 110.69C160.81 110.925 159.074 111.088 158.007 112.019C157.077 112.833 156.973 113.826 156.958 114.983C156.925 117.792 156.946 120.601 156.94 123.411C156.934 126.101 156.435 129.514 160.111 129.603C162.956 129.671 165.843 129.434 168.688 129.347C171.052 129.276 174.781 129.921 176.141 127.483C177.295 125.417 176.386 122.275 175.872 120.135C175.31 117.789 174.426 115.301 174.826 112.857C175.035 111.591 174.494 110.298 173.156 109.932C172.029 109.635 170.439 110.333 170.23 111.609Z" fill="#172623"/>
<path d="M106.445 61.5796C102.264 60.1645 98.5706 63.6962 98.3016 67.7214C98.1731 69.6626 98.7529 71.9427 100.107 73.3934C101.505 74.8947 103.762 75.2514 105.698 74.7847C109.541 73.8631 112.046 69.8469 110.895 66.0477C109.822 62.4952 105.358 59.3886 101.798 61.7282C98.732 63.7408 98.72 69.1424 100.465 71.9843C101.466 73.6134 103.415 74.7134 105.361 74.2556C107.461 73.7621 108.451 71.5682 108.522 69.5912C108.588 67.7481 107.733 65.8544 105.94 65.1439C104.252 64.4751 102.085 65.0518 101.46 66.886C100.952 68.3843 101.703 70.2393 103.242 70.7833C105.035 71.4195 107.109 69.8588 107.742 68.2386C108.642 65.9317 106.442 64.3294 104.309 64.4305C102.363 64.5226 100.226 66.0239 100.107 68.09C99.9602 70.6377 103.11 71.149 104.82 69.9628C106.798 68.5924 106.78 65.8277 105.1 64.2462C104.563 63.7378 103.759 63.6278 103.107 63.9905C100.119 65.6612 100.908 69.071 102.142 71.6009C103.065 73.4945 105.901 71.8387 104.981 69.951C104.578 69.1275 103.63 67.4508 104.766 66.8147C104.102 66.7284 103.439 66.6452 102.772 66.559C103.343 67.0971 102.802 66.9782 102.823 67.3646C102.922 69.178 103.451 68.087 103.887 67.8551C104.171 67.7005 104.572 67.8314 104.796 67.7184C104.589 67.2814 104.362 67.2457 104.105 67.6173C104.598 67.873 104.757 67.9651 104.578 67.8938C104.864 68.31 105.22 68.6994 105.229 69.3831C105.241 70.2036 104.984 71.3838 103.944 70.9439C102.441 70.3077 102.465 67.3408 102.758 66.012C103.164 64.154 104.805 63.7527 106.311 64.8972C109.162 67.0584 107.724 71.803 104.013 71.7168C100.029 71.6246 101.075 63.2176 105.561 64.7337C107.578 65.4115 108.439 62.2544 106.445 61.5796Z" fill="#BDBEBA"/>
<path d="M100.006 70.165C96.8109 70.486 93.3741 71.0033 91.3748 73.8007C89.492 76.4346 90.2481 79.6303 92.5553 81.7291C94.4859 83.4831 97.9137 85.0557 100.119 82.8231C101.228 81.6994 101.41 79.9752 101.545 78.4858C101.703 76.7348 101.431 74.859 100.224 73.5004C98.2604 71.2946 94.8505 71.5146 93.419 74.1723C91.9277 76.937 93.416 79.8444 95.75 81.5686C97.9944 83.2274 101.865 84.3125 103.239 81.0127C104.441 78.1261 102.157 75.1295 99.656 73.8482C98.093 73.0486 96.2072 72.894 94.713 73.9255C93.4698 74.7847 92.7675 76.3751 93.3801 77.8169C94.0884 79.4876 96.0757 79.6601 97.5282 78.8485C99.0493 77.9983 100.083 76.4138 100.352 74.7193C100.594 73.2032 98.861 71.8743 97.6059 73.1288C96.5449 74.1901 95.8307 75.4565 95.5617 76.937C95.4362 77.6177 95.6334 78.4442 96.3178 78.7831C99.0284 80.1268 100.995 77.3353 100.089 74.8441C99.7845 74.0028 98.9836 73.4648 98.0661 73.7026C96.0279 74.2288 94.5456 76.3097 95.0865 78.4234C95.6394 80.5846 97.8778 81.6221 99.9519 81.197C102.023 80.7749 101.147 77.6237 99.0792 78.0429C98.1199 78.2391 98.0661 77.0767 98.9417 76.8508C98.2663 76.4703 97.5939 76.0897 96.9185 75.7092C96.9783 76.2978 97.3309 76.3781 97.9764 75.956C98.2275 76.5713 98.4815 77.1867 98.7325 77.8021C98.9059 76.8508 99.2406 76.1314 99.9309 75.4387C99.0164 74.9095 98.099 74.3774 97.1845 73.8482C97.1128 74.2971 97.038 74.6925 96.8079 75.0938C96.6376 75.3911 96.1714 75.6408 96.0578 75.8965C95.759 76.0095 95.7978 76.1611 96.1714 76.3573C96.3059 76.7319 96.4792 76.7943 96.6854 76.5416C97.0201 76.5832 97.3429 76.4554 97.7314 76.5773C98.5532 76.8389 99.381 77.4959 99.8592 78.2123C100.101 78.575 100.612 79.6006 100.062 79.9336C99.6141 80.2041 98.5263 79.4876 98.1767 79.2647C97.4564 78.8128 96.7332 78.2391 96.3447 77.4661C95.9054 76.5951 96.3059 74.4547 97.6118 75.4922C98.3141 76.0481 98.3351 77.1302 98.3052 77.9329C98.2872 78.4561 98.2723 80.106 97.8181 80.4835C96.8139 81.3248 94.7877 79.4371 94.2348 78.7385C93.1709 77.3978 93.5086 75.8876 94.8385 74.8679C96.273 73.768 98.2783 73.6075 100.012 73.4321C102.092 73.224 102.113 69.9509 100.006 70.165Z" fill="#BDBEBA"/>
<path d="M101.655 69.8023C97.7129 67.6441 92.6892 69.0978 90.8931 73.3013C89.0283 77.6654 91.721 81.7113 95.3371 84.0955C97.1063 85.2608 98.7529 82.4307 96.9957 81.2714C94.9037 79.892 92.8955 77.6178 93.7681 74.9512C94.6288 72.3232 97.6143 71.3184 99.9992 72.6235C101.852 73.6402 103.511 70.816 101.655 69.8023Z" fill="#BDBEBA"/>
<path d="M98.6549 74.6153C97.7404 78.1529 102.053 80.986 105.239 79.7671C109.094 78.2926 106.846 72.57 103.111 72.9981C99.9489 73.3578 98.9478 78.2064 102.113 79.3777C103.52 79.8979 105.245 79.3599 106.069 78.0905C106.996 76.6635 106.58 74.5291 104.844 73.9553C102.976 73.34 101.198 74.8204 101.351 76.726C101.53 78.9883 104.115 79.8712 105.917 78.7712C107.716 77.6713 106.066 74.8412 104.258 75.9471C104.118 76.0333 104.593 76.393 104.611 76.4673C103.992 75.959 103.574 75.8906 103.35 76.2622C103.344 76.28 103.332 76.289 103.314 76.2949C103.311 76.2384 103.29 76.5446 103.448 76.4971C103.454 76.4971 103.404 76.2949 103.496 76.2741C103.72 76.2236 103.341 76.0719 103.607 76.2563C103.828 76.4079 103.852 76.5268 103.986 76.7289C104.118 76.9311 104.01 76.7349 104.007 76.7349C103.843 76.7379 103.685 76.7527 103.517 76.7319C102.943 76.6635 101.623 76.283 101.832 75.4833C102.352 73.444 99.1809 72.5759 98.6549 74.6153Z" fill="#BDBEBA"/>
<path d="M106.843 68.0751C106.237 71.4879 107.325 75.0463 110.038 77.3116C111.308 78.3729 113.012 79.2558 114.712 78.8069C116.448 78.3461 117.757 76.5684 118.528 75.0552C119.939 72.2787 120.16 67.9949 117.061 66.1993C113.938 64.3889 109.993 66.7641 108.595 69.6507C107.223 72.4867 107.907 77.157 111.646 77.6802C115.172 78.1737 117.695 74.3418 116.84 71.1579C115.875 67.5727 111.987 65.9585 108.553 66.6541C107.07 66.9544 105.403 67.6084 104.886 69.1632C104.255 71.0598 105.606 72.9297 106.834 74.2377C108.158 75.6439 110.029 77.0232 111.933 77.5108C113.95 78.028 115.818 76.5446 116.284 74.6123C116.729 72.7602 115.555 70.7358 113.574 70.5633C111.67 70.3969 110.208 72.3084 110.803 74.0831C111.048 74.8174 111.628 75.2247 112.387 75.2841C113.998 75.412 115.062 73.8007 114.778 72.3173C114.431 70.489 112.477 70.055 110.887 70.2572C108.816 70.5188 108.792 73.7918 110.887 73.5272C111.105 73.4886 111.326 73.4648 111.55 73.4618C112.193 73.4975 112.471 73.0159 112.387 72.017C112.916 72.4184 113.445 72.8167 113.971 73.2181C114.506 74.8115 112.686 74.2942 112.297 74.1723C111.861 74.0356 111.425 73.7353 111.036 73.4886C110.214 72.9683 109.461 72.3203 108.84 71.5711C108.705 71.4106 107.997 70.6615 108.069 70.3731C108.149 70.055 108.633 69.9985 108.95 69.9183C109.895 69.6745 110.965 69.6477 111.876 70.0431C113.287 70.6525 114.389 72.46 113.293 73.8513C112.623 74.7015 111.7 74.5736 111.32 73.5718C111.018 72.7781 111.18 71.8595 111.529 71.1163C112.109 69.8826 114.111 68.1108 115.543 69.1513C117.01 70.2185 116.072 72.8197 115.355 74.0029C114.942 74.6836 114.345 75.6974 113.475 75.5814C112.647 75.4714 111.792 74.5647 111.305 73.9464C110.202 72.5492 109.7 70.7031 110.011 68.9491C110.379 66.886 107.211 66.0031 106.843 68.0751Z" fill="#BDBEBA"/>
<path d="M111.344 69.1245C111.876 67.8878 113.341 67.5043 114.204 68.6667C114.73 69.3772 114.978 70.3611 115.28 71.1787C115.43 71.58 115.576 71.9813 115.726 72.3797C115.815 72.6205 115.905 72.8613 115.992 73.1021C116.135 73.7263 116.216 73.7442 116.237 73.1585C116.565 72.9088 116.891 72.6561 117.22 72.4064C117.145 72.4183 117.067 72.4302 116.993 72.4391C114.907 72.7483 115.794 75.8995 117.865 75.5933C120.131 75.2573 119.312 72.6383 118.807 71.2708C118.17 69.5496 117.671 67.5727 116.407 66.1844C114.192 63.7526 109.823 64.4275 108.508 67.4746C107.677 69.3861 110.511 71.0538 111.344 69.1245Z" fill="#BDBEBA"/>
<path d="M98.7473 80.7778C97.3008 80.9145 96.1024 81.6875 95.4928 83.0222C94.8742 84.3749 94.9788 86.0099 96.0367 87.1247C97.9882 89.1819 101.918 88.2187 102.531 85.4153C102.871 83.8635 102.175 82.1661 100.717 81.4526C99.1926 80.7035 97.2112 81.2237 96.3953 82.7428C95.6064 84.2114 96.1831 86.1526 97.6804 86.9047C99.0342 87.5855 101.222 87.4844 102.307 86.3458C103.75 84.8327 102.758 82.5436 101.162 81.6191C99.5811 80.7035 97.6894 81.0126 96.3266 82.1334C95.8305 82.5406 95.7468 83.376 95.9859 83.92C96.2698 84.5651 96.8047 84.8446 97.4891 84.9248C98.7443 85.0705 100.029 84.8951 101.198 84.4165C102.017 84.0776 102.602 83.3314 102.345 82.4039C102.133 81.6339 101.15 80.9234 100.322 81.2623C99.3749 81.6518 98.5052 81.7737 97.4891 81.6548C97.8776 82.5852 98.2631 83.5157 98.6517 84.4462C98.828 84.3005 99.2225 84.3154 99.4137 84.3927C99.4317 84.4016 99.8172 84.6602 99.7544 84.6751C99.6498 84.6959 99.9875 84.0122 99.9965 84.0211C99.9547 83.9735 100.173 84.2322 99.877 84.0241C99.8889 84.033 99.091 84.0151 99.1089 83.9616C99.1179 83.9319 99.3091 84.1519 99.3301 84.2054C99.333 84.2143 99.2374 84.3778 99.2374 84.3719C99.2404 84.4165 99.336 84.4076 99.3271 84.5324C99.2882 85.0586 98.7712 85.0051 98.4425 84.8981C98.3677 84.8743 98.3558 84.7227 98.4036 84.5562C98.4186 84.4997 98.559 84.2292 98.5799 84.2024C98.6786 84.0954 98.9206 84.03 98.7443 84.0479C99.6289 83.9646 100.388 83.3552 100.388 82.4128C100.391 81.5923 99.6349 80.6945 98.7473 80.7778Z" fill="#BDBEBA"/>
<path d="M99.9102 81.4021C98.9539 85.9565 102.185 89.173 105.514 91.7266C107.029 92.889 108.816 93.7035 110.669 92.7582C112.334 91.908 113.43 90.0708 113.932 88.3287C115.116 84.2382 112.151 80.9146 107.985 80.9919C104.148 81.0632 101.611 84.5919 103.703 88.0612C105.591 91.1915 110.887 92.2409 112.375 88.186C113.631 84.7703 111.069 80.5787 107.546 79.8741C103.598 79.0863 99.5666 83.6407 99.7429 87.3983C99.9222 91.3075 104.345 93.7125 107.767 91.9139C109.689 90.9032 110.842 88.8787 110.992 86.7532C111.129 84.7881 110.412 81.9075 108.156 81.4229C106.15 80.9919 104.279 83.0877 105.394 84.9517C106.557 86.8959 109.357 85.8494 109.432 83.7625C108.356 83.9082 107.28 84.0509 106.204 84.1966C106.222 84.2976 106.237 84.3987 106.255 84.5028C106.309 84.0836 106.365 83.6615 106.419 83.2423C106.216 83.6644 105.72 83.9141 105.442 84.3006C105.125 84.7406 104.946 85.1954 104.892 85.7365C104.796 86.7175 105.152 87.6777 105.893 88.3287C107.642 89.8657 109.97 88.7122 110.732 86.8126C111.515 84.8595 108.338 84.0093 107.561 85.9446C107.716 85.5551 108.027 86.0724 108.305 86.0278C108.535 85.9921 108.87 85.5046 108.989 85.3381C109.465 84.69 109.497 84.0985 109.369 83.3255C109.058 81.4438 106.204 81.9937 106.141 83.7596C106.975 84.0449 107.459 84.5592 107.594 85.3054C107.686 85.6235 107.728 85.9475 107.719 86.2775C107.719 86.771 107.645 87.2793 107.432 87.7312C107.029 88.5933 106.12 89.3514 105.119 89.3038C102.693 89.1849 102.8 86.5391 103.837 85.0676C104.426 84.2322 105.376 83.0877 106.494 83.0253C107.483 82.9688 108.416 83.8428 108.891 84.6128C109.731 85.9773 109.506 88.7152 107.292 87.1991C106.742 86.8215 106.096 86.0248 106.198 85.2965C106.324 84.3898 107.441 84.2382 108.188 84.2501C110.549 84.2947 111.44 85.9773 110.534 88.0701C110.262 88.6974 109.704 89.8657 108.888 89.9251C108.066 89.9816 106.748 88.5785 106.153 88.0761C104.45 86.6402 102.567 84.6871 103.075 82.2642C103.511 80.219 100.344 79.339 99.9102 81.4021Z" fill="#BDBEBA"/>
<path d="M104.138 84.7822C102.892 86.4351 103.215 88.8282 104.608 90.2759C105.244 90.9389 106.284 90.8556 106.933 90.2759C107.205 90.0322 107.477 89.7884 107.751 89.5446C108.412 88.956 108.355 87.8323 107.751 87.2318C107.094 86.5778 106.09 86.6402 105.426 87.2318C105.154 87.4755 104.883 87.7193 104.608 87.9631C105.382 87.9631 106.159 87.9631 106.933 87.9631C106.505 87.5172 106.553 86.9999 106.977 86.4321C107.509 85.7246 107.091 84.6038 106.389 84.1936C105.546 83.706 104.67 84.0717 104.138 84.7822Z" fill="#BDBEBA"/>
<path d="M103.191 77.1332C102.761 79.2884 103.404 81.4972 105.182 82.8825C107.053 84.3392 109.832 84.2827 110.968 81.9788C112.005 79.8771 111.063 77.0618 108.914 76.0927C106.942 75.2038 104.288 76.1581 103.971 78.459C103.637 80.8878 106.383 82.1572 108.397 81.2921C110.209 80.5162 111.308 78.3609 110.636 76.4702C109.88 74.3566 107.148 73.3429 105.254 74.6212C103.451 75.837 103.182 78.468 104.874 79.886C107.014 81.6786 109.844 80.1089 110.161 77.5613C110.469 75.0968 108.861 72.677 106.213 73.0515C105.645 73.1318 105.23 73.6996 105.065 74.1931C104.59 75.6111 105.433 77.0737 106.891 77.4007C108.95 77.8645 109.832 74.7103 107.764 74.2466C107.919 74.5171 108.078 74.7906 108.233 75.0611C107.851 75.4417 107.468 75.8222 107.086 76.2027C106.667 76.0659 106.58 76.1343 106.831 76.4108C106.921 76.6486 106.951 76.8953 106.921 77.151C107.298 78.0458 106.712 77.1064 107.035 77.3859C107.086 77.4305 107.444 77.2699 107.561 77.5761C107.737 78.0369 107.05 78.1172 107.002 78.3312C106.823 79.1339 107.991 79.0714 108.096 79.8889C108.164 80.433 108.09 80.6738 107.513 80.5222C106.56 80.2695 106.204 78.8098 106.365 78.0042C106.775 75.947 103.607 75.0671 103.191 77.1332Z" fill="#BDBEBA"/>
<path d="M116.081 75.0226C113.173 74.4815 110.038 75.5309 108.721 78.3343C107.54 80.8463 108.263 84.0509 110.741 85.4898C113.43 87.0505 116.524 85.9714 118.054 83.3969C119.5 80.9622 119.904 76.9965 116.715 75.7271C113.971 74.6361 110.143 75.6944 108.942 78.4859C107.812 81.1108 109.163 84.1223 111.927 84.9784C114.503 85.7781 117.871 84.2174 117.856 81.2298C117.844 78.1767 113.562 76.5506 112.092 79.5442C110.487 82.8113 115.191 84.9993 116.957 81.9462C117.725 80.6174 117.25 78.9972 116.156 78.0162C114.653 76.6665 112.57 76.9162 110.821 77.5762C108.807 78.3372 109.617 81.0127 111.694 80.7303C112.489 80.6233 113.284 80.5133 114.079 80.4063C116.165 80.1209 115.277 76.9697 113.206 77.2522C112.411 77.3592 111.616 77.4692 110.821 77.5762C111.111 78.6286 111.404 79.678 111.694 80.7303C112.307 80.4984 113.173 80.0674 113.834 80.3647C114.503 80.6679 114.808 81.3427 114.139 81.7708C113.362 82.2702 112.148 81.7292 111.867 80.9027C111.488 79.7969 112.399 78.9615 113.38 78.7445C114.653 78.4651 116.132 78.5037 115.857 80.1298C115.696 81.0871 115.062 82.5021 114.07 82.8648C113.176 83.1918 112.086 82.7043 111.664 81.8838C110.484 79.5977 113.173 77.7932 115.212 78.1708C117.277 78.5602 118.161 75.409 116.081 75.0226Z" fill="#BDBEBA"/>
<path d="M117.82 74.3982C119.443 75.6498 117.046 77.4661 116.069 78.1855C116.733 79.0417 117.396 79.8979 118.062 80.754C118.633 80.213 119.479 80.0465 120.083 79.5233C120.812 78.8931 121.248 78.0429 121.248 77.0708C121.254 74.9303 119.545 73.658 117.776 72.8434C117.354 73.8393 116.93 74.8352 116.508 75.8311C117.342 76.0005 116.305 76.5535 115.938 76.9399C115.152 77.7694 114.865 78.6225 115.047 79.7552C115.379 81.8272 118.547 80.9473 118.218 78.8871C118.059 79.3895 118.074 79.5114 118.266 79.2528C118.418 79.1041 118.576 78.9585 118.735 78.8158C118.968 78.5958 119.186 78.3788 119.383 78.1261C119.871 77.5048 120.139 76.8002 120.116 75.9976C120.065 74.4309 118.944 72.9951 117.384 72.6799C115.678 72.3351 114.324 74.8412 116.117 75.6676C116.586 75.8846 118.152 76.4911 117.91 77.0708C117.817 77.2878 117.091 77.4869 116.888 77.5999C116.464 77.8348 116.09 78.1112 115.737 78.4472C114.422 79.6957 116.201 82.1423 117.731 81.0156C119.267 79.883 120.833 78.6731 121.422 76.7764C121.93 75.1474 121.538 73.1704 120.145 72.0943C118.493 70.8101 116.15 73.108 117.82 74.3982Z" fill="#BDBEBA"/>
<path d="M112.062 86.3935C111.655 88.0523 113.003 89.2146 114.563 89.3246C115.854 89.4138 117.381 88.9233 118.418 88.1682C120.734 86.4708 120.716 82.7399 117.805 81.6875C117.046 81.414 116.15 81.9343 115.866 82.6329C115.546 83.4266 115.851 84.1936 116.538 84.6752C116.598 84.7168 116.655 84.7555 116.715 84.7971C116.517 84.6009 116.32 84.4047 116.126 84.2114C115.857 83.8309 116.449 83.4831 115.812 83.8636C114.001 84.9457 115.651 87.7728 117.471 86.6878C118.328 86.1764 119.079 85.5373 119.321 84.5355C119.587 83.4355 119.091 82.4783 118.197 81.854C117.776 82.8499 117.351 83.8458 116.93 84.8417C116.694 84.7555 116.852 84.8119 116.828 84.8922C116.742 85.1895 116.888 85.1776 116.583 85.466C116.278 85.7513 115.815 85.8732 115.424 85.9654C115.283 85.9981 114.984 85.9862 114.871 86.0665C114.605 86.2537 115.035 85.4184 115.19 86.5659C115.19 86.8542 115.19 87.1456 115.19 87.4339C115.205 87.3775 115.217 87.321 115.232 87.2645C115.731 85.2192 112.564 84.3452 112.062 86.3935Z" fill="#BDBEBA"/>
<path d="M166.052 84.7405C164.564 86.114 162.947 86.8958 161.067 87.5944C159.633 88.1295 158.47 89.7051 159.785 91.0726C160.314 91.6225 161.103 91.8217 161.794 92.1071C162.663 92.4638 163.551 92.9038 164.519 92.6808C166.16 92.3063 167.433 90.0232 168.434 88.8341C167.573 88.1741 166.713 87.5141 165.852 86.8512C165.32 87.6628 164.788 88.4743 164.259 89.2829C163.195 90.9061 165.499 92.449 166.841 91.2658C167.301 90.8585 167.762 90.4542 168.222 90.047C169.641 88.7954 167.821 86.5718 166.229 87.4785C163.291 89.1551 159.743 92.333 159.463 95.9361C159.331 97.6454 160.141 98.9653 161.555 99.872C161.525 99.8512 162.215 100.404 162.018 100.062C162.149 100.288 161.973 100.99 162.095 101.332C162.409 102.203 163.118 102.533 163.96 102.753C165.777 103.222 168.237 103.862 170.117 103.674C172.116 103.475 172.633 101.685 172.582 99.9582C172.454 95.4099 170.977 91.0399 169.513 86.7769C168.512 87.196 167.511 87.6182 166.509 88.0374C167.316 89.5327 167.143 91.132 166.208 92.5203C167.068 92.4103 167.929 92.3003 168.79 92.1903C168.545 92.0417 168.38 91.8306 168.291 91.5601C167.902 90.8229 166.746 90.484 166.04 90.9745C163.915 92.4549 162.699 94.5805 162.55 97.1608C162.478 98.3827 164.005 99.224 165.024 98.5729C166.507 97.6246 167.08 96.1739 166.761 94.4645C166.581 93.4984 165.159 92.883 164.346 93.4865C162.681 94.7232 161.07 97.0865 163.124 98.8464C165.239 100.66 167.385 98.2965 167.774 96.269C166.716 96.269 165.661 96.269 164.603 96.269C164.875 97.7881 165.508 100.621 167.325 101.011C169.145 101.4 170.41 99.1229 170.299 97.586C170.173 95.8558 168.285 94.6251 166.698 95.5407C165.114 96.4533 164.818 98.6651 165.29 100.247C165.634 101.403 167.161 101.87 168.037 100.969C169.331 99.6372 169.728 98.0824 169.462 96.2779C168.404 96.5663 167.349 96.8576 166.291 97.146C166.53 97.9338 166.931 98.4273 167.612 98.891C168.285 99.3488 169.522 99.0753 169.863 98.3054C170.317 97.2649 170.768 96.2244 171.225 95.1869C171.408 94.7796 171.572 94.3545 171.799 93.9681C171.892 93.8105 172.501 93.1565 172.265 93.1416C172.023 93.1268 172.244 93.3854 172.041 93.6321C171.793 93.9354 171.458 94.1227 171.109 94.2862C170.927 94.3813 170.735 94.4586 170.538 94.5151C171.267 95.502 171.802 95.6834 172.143 95.0591C172.367 94.9045 172.914 94.197 172.875 94.1821C172.546 93.9324 172.221 93.6797 171.892 93.43C171.952 93.5103 171.24 94.5448 171.022 94.7915C171.883 94.9015 172.744 95.0115 173.604 95.1215C173.183 94.3129 173.404 93.2784 174.172 92.7492C173.368 92.4222 172.561 92.0982 171.757 91.7712C171.967 92.5263 171.781 93.2546 171.094 93.7094C169.343 94.8718 170.986 97.7049 172.753 96.5336C174.662 95.2672 175.544 93.1297 174.928 90.9031C174.662 89.9459 173.398 89.3186 172.513 89.9251C170.227 91.4947 169.483 94.301 170.768 96.7714C171.234 97.6692 172.672 97.8713 173.35 97.1014C174.36 95.9569 175.454 94.3129 175.143 92.7076C174.791 90.8972 172.782 90.4364 171.336 91.3312C169.901 92.2201 168.512 93.9859 168.64 95.7369C168.775 97.6097 170.451 98.0646 171.996 97.4462C173.476 96.8546 174.94 95.8588 175.347 94.2267C175.699 92.8087 175.203 91.1618 173.918 90.371C170.048 87.9898 168.061 94.2772 167.024 96.6495C167.774 96.4533 168.524 96.2571 169.274 96.0639C169.337 96.1323 169.399 96.2036 169.462 96.272C168.832 94.2059 165.989 95.1096 166.291 97.14C166.381 97.7435 166.121 98.2311 165.712 98.6502C166.626 98.891 167.544 99.1318 168.458 99.3726C168.356 99.0367 168.494 98.6889 168.44 98.4124C168.661 98.0586 168.428 97.9397 167.744 98.0557C167.257 97.6811 166.988 97.6692 166.931 98.02C167.352 97.9665 167.777 97.91 168.198 97.8565C168.108 97.8208 168.019 97.7851 167.929 97.7495C168.258 97.9992 168.584 98.2519 168.912 98.5016C168.246 97.6038 167.968 96.4801 167.771 95.398C167.487 93.8283 164.899 93.8462 164.6 95.398C164.355 95.8528 164.507 96.1382 165.057 96.2601C165.395 96.7387 165.709 96.7536 165.998 96.3077C165.195 95.9806 164.388 95.6566 163.584 95.3296C163.626 95.5228 163.548 95.6596 163.357 95.7458C164.181 96.2155 165.006 96.6882 165.831 97.1579C165.909 95.8023 166.569 94.5775 167.693 93.7956C166.943 93.5994 166.193 93.4032 165.443 93.21C165.706 93.7094 166.028 94.1286 166.456 94.5002C167.284 95.2256 168.425 95.0829 169.038 94.1702C170.625 91.8098 170.675 88.8668 169.34 86.3845C168.473 84.7732 165.727 85.8732 166.336 87.6449C167.403 90.7515 168.488 93.8878 169.014 97.14C169.136 97.8922 169.217 98.6502 169.262 99.4113C169.28 99.6847 169.289 99.9582 169.292 100.232C169.208 100.505 169.283 100.583 169.522 100.464C169.809 100.434 169.824 100.413 169.567 100.407C169.402 100.395 169.238 100.374 169.074 100.348C168.264 100.247 167.457 100.107 166.656 99.9612C166.07 99.8542 164.985 99.8423 164.498 99.4856C164.749 99.8126 165.003 100.137 165.254 100.464C165.087 99.5896 165.251 98.8167 164.45 97.9992C163.781 97.3184 162.577 97.0627 162.759 95.9539C163.15 93.5608 165.927 91.4174 167.875 90.3056C167.212 89.4494 166.548 88.5933 165.882 87.7371C165.422 88.1444 164.961 88.5487 164.501 88.9559C165.362 89.6159 166.223 90.2759 167.083 90.9388C167.615 90.1272 168.147 89.3156 168.676 88.507C169.68 86.9761 167.304 85.0913 166.094 86.5242C165.362 87.3923 164.642 88.2663 163.901 89.1284C163.769 89.2889 163.635 89.4435 163.494 89.5951C163.703 89.3929 163.664 89.28 163.381 89.2562C163.025 89.1254 162.254 88.9589 162.015 88.6706C162.155 89.1997 162.296 89.7318 162.436 90.261C162.376 90.6831 161.489 90.7961 162.379 90.6148C162.678 90.5523 162.989 90.4037 163.273 90.2907C163.918 90.0351 164.555 89.7467 165.165 89.4108C166.327 88.7687 167.388 87.9571 168.359 87.0593C169.928 85.6175 167.6 83.3106 166.052 84.7405Z" fill="#F0BEBA"/>
<path d="M166.76 85.4689C167.72 84.7079 168.709 85.3738 168.966 86.3637C169.967 85.9445 170.968 85.5224 171.969 85.1032C171.482 84.3006 170.849 83.6525 170 83.2274C169.561 83.0074 168.936 82.7577 168.434 82.7904C167.594 82.5704 167.364 83.1323 167.747 84.476C167.92 84.4136 168.099 84.3779 168.282 84.369C169.178 84.5325 169.877 84.4463 170.711 84.9635C171.518 85.4659 172.077 86.1705 172.355 87.0742C172.884 86.3845 173.413 85.6948 173.939 85.0051C174.546 85.0705 174.127 84.9576 173.855 84.7346C173.604 84.5295 173.332 84.369 173.024 84.2649C172.403 84.0509 171.65 84.1222 171.079 84.4611C169.734 85.2578 169.68 86.8929 170.161 88.1949C171.076 87.6658 171.993 87.1337 172.908 86.6045C170.989 84.7079 168.625 83.6733 165.948 83.4206C164.119 83.2482 163.685 86.3102 165.511 86.6313C166.734 86.8483 167.827 87.3239 168.649 88.2812C169.316 89.06 169.734 90.0262 170.84 90.2848C171.88 90.5316 173.045 89.4376 173.831 90.2491C174.844 91.2956 174.02 93.2338 173.649 94.3902C173.072 96.1799 175.711 97.2203 176.652 95.6507C178.311 92.883 178.344 89.5773 176.811 86.7502C175.95 87.4101 175.089 88.0701 174.229 88.733C174.593 89.0511 174.955 89.3692 175.32 89.6873C176.611 90.8199 178.329 89.6992 178.066 88.0968C177.872 86.9166 176.978 86.554 176.401 85.6413C175.846 84.7643 175.747 83.7922 174.973 82.9896C173.26 81.2178 170.78 80.867 168.422 80.9532C166.312 81.0305 166.303 84.3006 168.422 84.2233C169.946 84.1668 172.053 84.146 172.911 85.677C173.225 86.2388 173.314 86.8929 173.676 87.4399C173.987 87.9096 174.808 88.4328 174.895 88.9619C175.81 88.4328 176.727 87.9006 177.642 87.3715C177.277 87.0534 176.915 86.7353 176.551 86.4172C175.167 85.2043 173.057 86.7175 173.969 88.4001C174.949 90.2075 174.862 92.2469 173.81 93.9978C174.811 94.417 175.813 94.8391 176.814 95.2583C177.815 92.1458 178.033 87.535 173.888 86.6848C173.216 86.548 172.268 86.545 171.668 86.9404C171.763 87.0564 171.859 87.1693 171.957 87.2823C171.817 87.0623 171.668 86.8483 171.512 86.6402C171.297 86.3488 171.067 86.0664 170.816 85.8048C169.635 84.5741 168.057 83.7685 166.381 83.4742C166.234 84.5444 166.091 85.6146 165.945 86.6848C167.741 86.8542 169.313 87.6569 170.583 88.9114C171.683 89.9994 173.918 88.9084 173.329 87.3209C173.213 86.6015 172.752 86.6253 171.948 87.3953C172.137 87.5617 172.334 87.7163 172.537 87.865C172.988 88.1474 173.416 88.2158 173.936 88.2722C174.997 88.3882 175.81 87.1337 175.52 86.2032C174.522 82.9688 171.264 80.7124 167.836 81.1375C166.267 81.3337 164.516 82.3712 165.162 84.2173C165.422 84.9605 166.022 85.5254 166.757 85.7989C167.648 86.1289 168.56 85.8197 169.124 86.7502C170.087 88.3347 172.597 87.3001 172.128 85.4897C171.198 81.9015 167.2 80.9473 164.426 83.1501C162.786 84.47 165.126 86.771 166.76 85.4689Z" fill="#D62E31"/>
<path d="M147.266 96.058C146.453 97.2977 145.64 98.5403 144.83 99.7799C144.005 101.037 142.977 102.301 142.314 103.648C141.128 106.053 143.835 107.28 145.551 108.333C150.006 111.071 154.923 113.143 160.003 114.403C164.289 115.467 169.749 115.854 172.57 111.734C173.771 109.98 174.172 107.628 173.568 105.586C172.878 103.243 171.153 102.093 168.939 101.341C162.391 99.114 155.801 97.0004 149.235 94.8273C148.324 94.527 147.532 95.184 147.212 95.9688C146.313 98.1865 145.852 100.49 145.76 102.878C145.691 104.664 147.923 104.878 148.823 103.704C149.289 103.095 149.755 102.482 150.222 101.873C150.505 101.501 150.807 100.859 151.315 100.734C151.785 100.618 153.094 101.299 153.569 101.451C154.134 101.629 154.695 101.807 155.26 101.989C157.986 102.854 160.708 103.719 163.434 104.584C164.091 104.792 164.749 105.003 165.406 105.211C165.884 105.363 166.889 105.91 167.379 105.838C167.66 106.029 167.758 105.954 167.675 105.618C167.648 105.761 167.531 105.83 167.331 105.821C166.829 105.764 166.24 105.88 165.717 105.847C163.09 105.678 160.529 105.092 158.043 104.248C156.037 103.567 155.174 106.724 157.17 107.402C159.121 108.065 161.109 108.553 163.15 108.841C164.835 109.079 166.754 109.427 168.413 108.903C169.853 108.452 170.971 107.167 170.965 105.618C170.956 103.808 169.483 103.086 167.973 102.595C163.849 101.257 159.707 99.9702 155.574 98.6562C154.026 98.1657 151.728 96.9142 150.066 97.4968C149.158 97.8149 148.644 98.5819 148.085 99.3102C147.382 100.226 146.686 101.141 145.987 102.057C147.009 102.334 148.028 102.607 149.05 102.884C149.131 100.779 149.594 98.793 150.386 96.8428C149.711 97.2233 149.038 97.6039 148.363 97.9844C153.993 99.8453 159.623 101.706 165.251 103.567C167.534 104.322 170.666 104.688 170.558 107.708C170.472 110.173 168.428 111.629 166.117 111.846C163.754 112.069 161.372 111.427 159.121 110.779C156.596 110.051 154.131 109.126 151.764 107.991C150.595 107.429 149.445 106.825 148.324 106.174C147.726 105.827 147.134 105.47 146.552 105.098C146.259 104.914 145.969 104.724 145.682 104.533C145.273 104.082 145.126 104.138 145.243 104.7C145.15 105.327 145.255 105.315 145.559 104.658C145.775 104.328 145.993 103.995 146.208 103.665C146.641 103.002 147.075 102.342 147.508 101.68C148.375 100.357 149.241 99.0338 150.108 97.7079C151.262 95.9421 148.416 94.3011 147.266 96.058Z" fill="#282E31"/>
<path d="M151.391 104.194C153.985 105.223 156.656 106.029 159.397 106.561C161.1 106.891 165.12 106.677 165.455 108.903C165.822 108.009 166.187 107.114 166.554 106.219C166.262 106.403 165.299 106.049 164.938 105.972C164.14 105.8 163.348 105.61 162.559 105.407C160.888 104.982 159.233 104.507 157.571 104.052C154.305 103.157 151.029 102.402 147.652 102.06C145.175 101.807 144.562 105.354 146.445 106.492C150.479 108.93 154.702 111.46 159.409 112.325C163.204 113.024 170.075 113.241 171.955 108.939C171.055 109.305 170.156 109.667 169.256 110.033C169.949 110.173 170.407 110.378 170.986 110.788C172.038 111.534 173.646 110.972 174.259 109.935C174.961 108.743 174.456 107.429 173.401 106.68C172.535 106.067 171.572 105.657 170.529 105.446C169.591 105.256 168.261 105.55 167.831 106.54C167.284 107.792 165.171 107.884 163.978 107.943C162.152 108.032 160.383 107.759 158.632 107.248C155.12 106.222 151.97 104.263 148.865 102.387C148.462 103.864 148.061 105.342 147.658 106.819C151.319 107.191 154.872 108.246 158.405 109.221C160.153 109.703 161.904 110.176 163.677 110.562C165.485 110.955 167.314 111.374 168.978 110.33C169.97 109.709 170.242 108.734 170.078 107.646C169.54 104.079 165.918 102.809 162.807 102.342C159.322 101.819 155.945 100.913 152.673 99.6164C151.471 99.1407 150.046 100.137 149.732 101.278C149.35 102.622 150.186 103.716 151.391 104.194Z" fill="#282E31"/>
<path d="M162.107 98.2549C162.119 98.2549 162.131 98.2579 162.142 98.2579C161.93 98.2281 161.718 98.2014 161.506 98.1717C161.53 98.1746 161.554 98.1806 161.575 98.1895C161.383 98.1092 161.195 98.029 161.004 97.9487C161.04 97.9636 161.067 97.9784 161.099 98.0022C160.938 97.8774 160.777 97.7555 160.615 97.6306C160.645 97.6544 160.669 97.6782 160.693 97.7079C160.568 97.5474 160.445 97.3868 160.319 97.2263C160.34 97.256 160.358 97.2858 160.376 97.3185C160.296 97.1282 160.215 96.9409 160.134 96.7507C160.149 96.7863 160.158 96.8161 160.164 96.8547C160.134 96.6436 160.107 96.4326 160.077 96.2215C160.08 96.2602 160.08 96.2899 160.074 96.3285C160.104 96.1175 160.131 95.9064 160.161 95.6953C160.158 95.7191 160.149 95.7399 160.14 95.7637C160.221 95.5734 160.302 95.3862 160.382 95.1959C160.367 95.2286 160.349 95.2554 160.328 95.2821C160.454 95.1216 160.576 94.961 160.702 94.8005C160.687 94.8184 160.672 94.8332 160.654 94.8481C160.816 94.7232 160.977 94.6013 161.138 94.4765C161.099 94.5062 161.064 94.527 161.019 94.5478C161.21 94.4676 161.398 94.3873 161.59 94.307C161.557 94.3189 161.524 94.3278 161.488 94.3338C161.7 94.3041 161.912 94.2773 162.125 94.2476C162.089 94.2506 162.059 94.2506 162.023 94.2476C162.235 94.2773 162.447 94.3041 162.659 94.3338C162.624 94.3278 162.594 94.3189 162.561 94.307C162.752 94.3873 162.94 94.4676 163.132 94.5478C163.123 94.5419 163.111 94.5359 163.102 94.533C162.827 94.3605 162.531 94.2654 162.214 94.2506C161.897 94.1792 161.578 94.1941 161.261 94.2922C160.95 94.3665 160.678 94.5062 160.448 94.7173C160.188 94.8838 159.982 95.1067 159.832 95.3832C159.539 95.9361 159.393 96.605 159.59 97.2144C159.779 97.7882 160.137 98.3471 160.69 98.6354C161.365 98.9892 162.122 99.12 162.866 98.8941C163.29 98.7632 163.759 98.5165 164.064 98.1895C164.387 97.8476 164.632 97.4671 164.76 97.0123C164.97 96.278 164.85 95.4902 164.459 94.8392C164.24 94.4735 163.861 94.0811 163.481 93.876C163.46 93.8641 163.439 93.8522 163.416 93.8433C163.224 93.763 163.036 93.6827 162.845 93.6025C162.606 93.5341 162.352 93.5192 162.104 93.4955C161.775 93.4836 161.467 93.5519 161.183 93.7006C160.887 93.7957 160.63 93.9592 160.415 94.1911C160.182 94.4051 160.018 94.6608 159.922 94.9551C159.773 95.2375 159.704 95.5437 159.716 95.8707C159.743 96.4861 159.946 97.1223 160.415 97.5533C160.576 97.6782 160.738 97.8001 160.899 97.9249C161.273 98.1449 161.676 98.2549 162.107 98.2549Z" fill="#D979C9"/>
<path d="M146.629 95.3207C144.454 94.5597 142.362 93.6203 140.359 92.4757C139.451 91.9555 138.566 91.3996 137.703 90.811C137.072 90.377 135.294 89.4465 135.192 88.6171C134.938 86.5539 131.648 86.5302 131.905 88.6171C132.261 91.5007 135.076 93.0673 137.353 94.4943C139.986 96.1471 142.816 97.4522 145.751 98.4748C147.756 99.1734 148.617 96.0134 146.629 95.3207Z" fill="#F0BEBA"/>
<path d="M131.63 88.5338C130.539 90.2967 127.921 93.0376 129.356 95.1869C130.019 96.1799 131.251 96.6733 132.24 97.2649C133.375 97.9457 134.487 98.6711 135.566 99.438C136.678 100.226 137.748 101.064 138.785 101.947C139.589 102.634 140.476 103.805 141.564 104.031C143.793 104.492 145.853 101.076 146.848 99.5302C147.604 98.3559 146.343 96.6793 144.992 97.1282C143.692 97.5592 142.464 98.0022 141.226 97.2174C140.291 96.6258 139.496 95.7756 138.638 95.0829C136.764 93.5727 134.801 92.1874 132.748 90.9269C130.901 89.7913 129.449 92.5174 131.089 93.7511C134.517 96.3285 138.217 98.4719 142.162 100.169C144.083 100.996 145.76 98.1805 143.82 97.3452C139.879 95.6477 136.179 93.5014 132.748 90.9269C132.195 91.8693 131.642 92.8087 131.089 93.7511C133.662 95.3326 135.993 97.146 138.307 99.0754C140.691 101.064 142.951 101.251 145.867 100.282C145.249 99.4826 144.63 98.68 144.012 97.8803C143.527 98.6324 143.002 99.3429 142.389 99.9969C142.213 100.187 142.033 100.369 141.845 100.547C141.382 100.892 141.663 101.055 142.694 101.043C142.724 100.984 141.776 100.217 141.71 100.157C140.348 98.9594 138.916 97.8298 137.443 96.7714C136.008 95.7399 134.517 94.7945 132.987 93.9087C132.775 93.7927 132.566 93.6738 132.359 93.5489C132.144 93.3706 132.117 93.433 132.276 93.7362C132.282 93.433 132.808 92.8741 132.96 92.6274C133.462 91.8128 133.964 90.9983 134.469 90.1867C135.581 88.3882 132.739 86.7442 131.63 88.5338Z" fill="#F0BEBA"/>
<path d="M131.675 93.1327C131.72 91.0072 132.344 87.9987 130.931 86.1883C129.425 84.2589 126.932 84.4105 124.763 84.7376C125.053 85.7899 125.345 86.8393 125.635 87.8917C127.593 87.5766 131.003 87.095 131.427 89.7883C132.428 89.3692 133.429 88.947 134.43 88.5279C132.628 85.4362 128.615 84.7732 125.315 85.3054C123.49 85.6026 122.106 86.7918 121.678 88.6111C121.233 90.5048 122.139 92.3063 123.403 93.6648C124.066 92.8087 124.73 91.9525 125.396 91.0964C124.99 90.8556 124.951 90.4513 125.253 90.1332C125.647 89.7199 126.858 89.9429 127.336 90.0083C129.404 90.2907 130.3 87.1425 128.208 86.8542C126.066 86.5599 123.481 86.4945 122.243 88.6408C121.179 90.4929 121.947 92.8592 123.735 93.9175C125.372 94.8867 126.977 92.6927 125.728 91.349C125.202 90.7842 124.482 89.7645 125.026 88.9708C125.471 88.3227 126.642 88.4179 127.36 88.4208C128.938 88.4298 130.737 88.7033 131.591 90.1718C132.587 91.8782 134.87 90.6534 134.595 88.9113C133.851 84.1965 128.4 84.146 124.76 84.7316C122.668 85.0675 123.567 88.1949 125.632 87.8857C126.807 87.7103 128.292 87.4428 128.471 88.8757C128.642 90.2342 128.415 91.7623 128.385 93.1327C128.346 95.2404 131.633 95.2374 131.675 93.1327Z" fill="#F0BEBA"/>
<path d="M130.479 83.162C126.971 82.6834 122.315 82.7994 121.293 87.0267C120.797 89.072 123.967 89.943 124.464 87.8947C124.993 85.7127 127.927 86.0843 129.607 86.3132C131.675 86.5956 132.571 83.4474 130.479 83.162Z" fill="#F0BEBA"/>
<path d="M132.177 83.6436C130.402 82.3772 128.902 80.8046 127.697 78.9912C127.369 79.7909 127.043 80.5935 126.714 81.3932C129.132 80.76 130.599 83.822 131.278 85.6146C132.082 84.9992 132.888 84.3838 133.692 83.7685C131.263 82.5794 129.978 79.9276 127.485 78.7058C124.975 77.4751 122.195 77.1421 119.446 76.8448C118.137 76.7021 117.489 78.3193 118.026 79.3063C118.902 80.9146 120.453 81.0632 122.049 81.5448C124.004 82.1364 125.599 83.9944 127.103 85.2935C128.693 86.6669 131.03 84.363 129.428 82.9807C127.993 81.744 126.598 80.3527 124.999 79.3241C124.302 78.8753 123.54 78.5542 122.739 78.3431C122.187 78.1975 121.161 78.1975 120.866 77.6564C120.393 78.4769 119.918 79.2974 119.446 80.1179C121.873 80.3795 124.503 80.656 126.621 81.967C128.675 83.2393 129.813 85.5105 132.034 86.5956C133.19 87.1604 134.995 86.1972 134.448 84.7495C133.089 81.1524 130.297 77.0797 125.841 78.245C124.858 78.5037 124.272 79.7641 124.858 80.647C126.388 82.948 128.265 84.8654 130.519 86.4737C132.24 87.6955 133.884 84.8595 132.177 83.6436Z" fill="#F0BEBA"/>
<path d="M125.757 81.4527C122.054 81.5092 119.7 85.5581 121.8 88.7063C122.966 90.4513 125.814 88.8163 124.64 87.0564C123.952 86.0278 124.424 84.7436 125.757 84.7228C127.87 84.6901 127.876 81.42 125.757 81.4527Z" fill="#F0BEBA"/>
<path d="M100.445 111.653C94.6208 112.364 91.1003 117.905 92.1732 123.556C92.6932 126.294 94.6447 127.831 97.1102 128.839C99.6475 129.876 102.606 130.545 105.158 129.163C109.48 126.823 110.947 119.225 108.368 115.244C106.939 113.036 104.286 111.606 101.629 112.188C98.9542 112.774 97.1252 115.259 96.5813 117.813C96.0105 120.494 95.7176 124.686 99.265 125.292C102.806 125.899 104.289 122.415 104.253 119.51C104.226 117.343 101.71 116.514 100.17 117.828C98.8406 118.966 97.7079 120.369 97.699 122.201C97.69 123.94 98.8167 125.572 100.523 126.021C104.447 127.049 106.859 122.01 106.171 118.791C105.807 117.088 104.304 115.69 102.513 115.669C100.538 115.646 99.3755 117.206 98.8257 118.919C98.3056 120.539 97.9769 122.691 99.3098 124.02C100.858 125.56 103.359 124.618 103.924 122.691C104.788 119.748 100.173 118.491 99.3128 121.428C99.2889 121.508 99.265 121.591 99.2411 121.672C99.6086 121.199 99.9732 120.723 100.341 120.251C100.251 120.289 100.165 120.325 100.075 120.364C100.688 120.283 101.303 120.203 101.916 120.123C101.823 120.096 101.728 120.072 101.635 120.045C102.11 120.411 102.588 120.774 103.063 121.139C103.126 121.568 103.162 121.63 103.171 121.327C103.183 121.101 103.225 120.878 103.296 120.661C103.377 120.337 103.434 120.034 103.691 119.828C103.338 120.034 102.989 120.236 102.636 120.441C101.895 119.617 101.512 119.466 101.485 119.986C101.468 120.176 101.426 120.364 101.366 120.545C101.351 120.604 101.001 121.49 101.019 121.55C101.506 121.767 101.99 121.987 102.478 122.204C102.427 122.358 102.466 122.317 102.591 122.079C102.911 121.939 103.285 121.422 103.551 121.193C102.191 120.631 100.831 120.072 99.4682 119.51C99.4682 119.591 99.3576 120.747 99.3994 120.809C99.3367 120.72 100.377 120.581 100.541 120.78C100.747 121.13 100.95 121.478 101.157 121.829C100.589 120.417 101.587 115.232 103.9 117.293C105.639 118.841 104.842 123.241 103.24 124.716C102.277 125.602 100.807 125.126 99.7162 124.763C98.6942 124.421 97.3075 124.047 96.925 122.935C96.0822 120.494 97.6601 116.752 100.445 116.413C101.728 116.255 102.836 115.432 102.836 114.034C102.836 112.866 101.736 111.496 100.445 111.653Z" fill="#F4F119"/>
<path d="M95.9917 113.88C93.326 115.313 91.3027 117.887 90.5945 120.833C89.8234 124.041 90.9082 126.764 91.8795 129.775C92.2889 131.045 92.6326 132.278 92.0319 133.539C91.3655 134.936 90.4181 136.098 90.1492 137.665C89.8951 139.146 90.3105 140.48 90.9202 141.818C91.1234 142.264 91.6584 142.957 91.6494 143.453C91.6434 143.849 91.497 143.884 91.1772 144.315C88.9717 147.264 91.1085 150.097 94.1598 151.069C97.2559 152.056 100.917 152.791 104.046 151.572C106.915 150.457 109.171 147.972 109.162 144.785C109.159 143.171 108.517 141.72 108.212 140.162C107.928 138.715 108.418 137.442 108.896 136.087C109.455 134.505 109.987 132.87 109.832 131.17C109.799 130.819 109.745 130.45 109.673 130.105C109.682 130.144 109.315 128.788 109.273 129.169C109.291 128.988 109.909 128.435 110.05 128.253C110.367 127.843 110.653 127.43 110.892 126.969C112.423 124.005 112.273 120.313 110.42 117.527C109.425 116.029 107.273 115.958 106.29 117.527C103.036 122.733 99.7812 127.941 96.5267 133.147C97.4262 132.781 98.3258 132.418 99.2253 132.053C99.294 132.076 99.3628 132.097 99.4345 132.121C99.6407 132.472 99.8439 132.819 100.05 133.17C100.035 133.158 100.02 133.147 100.005 133.135C99.9455 129.998 95.5763 130.168 95.2237 133.135C94.8411 136.375 94.4556 139.618 94.0731 142.859C95.666 142.859 97.2618 142.859 98.8547 142.859C98.2989 138.414 98.1345 133.952 98.3676 129.478C96.7747 129.478 95.1788 129.478 93.586 129.478C93.9177 132.814 93.9984 136.152 93.831 139.499C93.7145 141.839 97.1961 142.763 98.2869 140.7C99.9605 137.537 101.243 134.193 102.067 130.715C100.531 130.715 98.9922 130.715 97.4561 130.715C97.9851 133.673 98.1823 136.654 98.1166 139.657C98.0687 141.833 100.708 142.639 102.199 141.34C104.141 139.645 105.48 137.386 106.048 134.877C104.482 134.666 102.916 134.455 101.353 134.243C101.38 135.816 101.407 137.389 101.434 138.964C101.479 141.613 105.426 142.237 106.129 139.597C106.972 136.431 107.318 133.164 107.106 129.897C106.906 126.809 102.617 126.868 102.324 129.897C101.87 134.582 101.353 140.498 97.2499 143.614C98.4214 144.509 99.5899 145.403 100.761 146.298C101.371 144.806 101.114 143.364 100.489 141.937C100.107 141.063 98.6814 140.498 97.7908 140.843C94.9428 141.946 94.1956 145.567 96.5147 147.663C97.7639 148.792 99.6228 148.962 101.192 148.537C102.973 148.055 104.243 146.747 105.797 145.849C104.599 145.166 103.397 144.479 102.199 143.795C102.121 144.636 102.04 145.478 101.963 146.319C101.843 147.6 103.146 148.697 104.354 148.697C105.746 148.697 106.625 147.603 106.744 146.319C106.822 145.478 106.903 144.636 106.981 143.795C107.154 141.946 104.838 140.903 103.382 141.741C102.357 142.332 101.473 143.248 100.403 143.753C100.37 143.768 99.4136 144.122 99.4345 144.003C99.6467 144.072 99.7901 144.193 99.8648 144.369C100.155 144.737 99.8858 145.088 99.055 145.427C98.1554 145.061 97.2559 144.699 96.3563 144.333C96.4191 144.479 96.1591 145.005 96.1471 145.032C95.394 146.878 98.0478 148.941 99.6586 147.716C105.37 143.382 106.452 136.595 107.103 129.894C105.51 129.894 103.914 129.894 102.321 129.894C102.507 132.766 102.259 135.549 101.515 138.331C103.08 138.542 104.646 138.753 106.209 138.964C106.183 137.392 106.156 135.819 106.129 134.243C106.084 131.636 102.04 130.92 101.434 133.61C101.03 135.388 100.194 136.77 98.8159 137.974C100.176 138.536 101.535 139.095 102.898 139.657C102.973 136.226 102.671 132.825 102.067 129.448C101.649 127.109 97.9761 127.254 97.4561 129.448C96.7239 132.543 95.6451 135.486 94.1568 138.298C95.6421 138.7 97.1274 139.098 98.6127 139.499C98.78 136.152 98.6993 132.814 98.3676 129.478C98.0687 126.47 93.7473 126.372 93.586 129.478C93.3558 133.949 93.5172 138.414 94.0731 142.859C94.4526 145.9 98.4931 145.927 98.8547 142.859C99.2373 139.618 99.6228 136.375 100.005 133.135C98.4124 133.135 96.8165 133.135 95.2237 133.135C95.2565 134.823 96.2786 136.238 97.9582 136.64C99.0161 136.892 100.083 136.464 100.657 135.546C103.911 130.34 107.166 125.132 110.42 119.926C109.043 119.926 107.668 119.926 106.29 119.926C107.36 121.535 107.527 123.651 106.347 125.275C105.525 126.41 104.623 127.243 104.572 128.756C104.53 129.957 105.214 131.057 105.056 132.255C104.73 134.71 103.263 136.803 103.314 139.363C103.34 140.632 103.711 141.857 104.049 143.067C104.312 144.015 104.635 145.058 104.034 145.944C102.692 147.927 99.6586 147.526 97.6952 147.077C97.0018 146.919 96.2876 146.759 95.6122 146.533C95.4926 146.494 95.2775 146.387 95.1519 146.387C94.5752 146.399 94.7425 145.611 94.7993 146.735C94.8531 147.799 94.8172 147.202 95.1191 146.952C95.3313 146.777 95.4926 146.503 95.648 146.268C96.0037 145.73 96.2547 145.154 96.3802 144.523C96.6133 143.361 96.3264 142.243 95.8722 141.176C95.5494 140.424 94.7694 139.392 94.8262 138.53C94.886 137.638 95.7676 136.699 96.1621 135.935C96.8106 134.686 97.2021 133.349 97.1602 131.931C97.0736 129.05 95.2924 126.591 95.0802 123.773C94.8949 121.336 96.2906 119.124 98.4064 117.985C101.114 116.529 98.7023 112.42 95.9917 113.88Z" fill="#F4F119"/>
<path d="M111.578 117.643C110.448 115.417 108.47 113.85 106.142 113.003C104.964 112.575 103.47 113.482 103.201 114.665C102.893 116.008 103.61 117.132 104.872 117.59C105.571 117.843 104.692 117.483 105.072 117.67C105.251 117.759 105.427 117.852 105.598 117.956C105.643 117.982 106.13 118.3 105.947 118.173C105.792 118.063 106.261 118.443 106.261 118.44C106.378 118.547 106.491 118.66 106.602 118.773C106.596 118.767 106.996 119.231 106.88 119.076C106.745 118.901 107.077 119.374 107.104 119.418C107.229 119.62 107.343 119.831 107.451 120.042C108.03 121.19 109.656 121.514 110.723 120.896C111.895 120.215 112.164 118.794 111.578 117.643Z" fill="#F4F119"/>
<path d="M94.6474 117.096C99.0376 116.829 103.305 117.299 107.552 118.422C108.879 118.773 110.824 118.963 111.249 117.206C111.607 115.72 110.095 114.388 109.076 113.547C106.727 111.609 103.652 110.574 100.601 110.678C98.673 110.744 92.7228 111.76 93.9332 114.861C94.232 115.622 94.9194 116.112 95.7711 115.898C98.5295 115.209 101.318 115.123 104.106 115.678C105.983 116.053 106.787 113.187 104.901 112.813C101.581 112.153 98.2606 112.212 94.9762 113.033C95.5888 113.377 96.2015 113.725 96.8141 114.07C97.0173 114.59 96.1806 114.757 96.9546 114.567C97.1996 114.507 97.4537 114.326 97.6898 114.234C98.2426 114.02 98.8284 113.865 99.4141 113.767C100.517 113.58 101.685 113.594 102.785 113.806C103.837 114.008 104.856 114.358 105.789 114.882C106.527 115.295 108.215 116.267 108.368 117.206C108.419 116.826 108.469 116.442 108.517 116.062C109.061 115.747 109.004 115.58 108.347 115.557C107.988 115.455 107.627 115.36 107.265 115.268C106.721 115.131 106.177 115.007 105.627 114.894C104.492 114.662 103.344 114.483 102.193 114.341C99.6861 114.031 97.1698 113.972 94.6504 114.124C92.7378 114.243 92.7228 117.215 94.6474 117.096Z" fill="#F4BECE"/>
<path d="M103.003 111.796C103 111.638 102.989 111.695 102.968 111.965C102.935 112.037 102.902 112.108 102.869 112.179C102.991 111.948 102.621 112.417 102.818 112.239C102.624 112.42 102.34 112.518 102.065 112.429C101.99 112.396 101.916 112.367 101.841 112.334C101.969 112.414 101.925 112.379 101.709 112.23C101.662 112.168 101.617 112.102 101.569 112.04C101.596 112.078 101.62 112.12 101.641 112.165C101.608 112.09 101.575 112.019 101.542 111.945C101.566 112.058 101.566 112.037 101.539 111.888C101.506 111.76 101.512 111.635 101.557 111.508C101.548 111.555 101.533 111.6 101.512 111.644C101.378 111.98 101.488 112.492 101.662 112.789C101.844 113.098 102.2 113.392 102.555 113.473C102.938 113.559 103.368 113.541 103.706 113.324C104.052 113.101 104.241 112.816 104.393 112.435C104.614 111.876 104.51 111.145 104.208 110.634C103.894 110.098 103.398 109.7 102.791 109.549C101.405 109.201 99.9671 110.384 100.018 111.799C100.048 112.575 100.684 113.321 101.512 113.285C102.292 113.247 103.033 112.628 103.003 111.796Z" fill="#F4BECE"/>
<path d="M117.533 94.6459C117.456 98.3381 117.647 102.015 118.107 105.678C118.34 107.551 121.332 107.575 121.096 105.678C120.639 102.015 120.447 98.3352 120.522 94.6459C120.561 92.7314 117.572 92.7344 117.533 94.6459Z" fill="#F4BECE"/>
<path d="M114.643 101.513C114.102 103.535 114.685 105.696 116.218 107.141C117.614 108.455 119.733 106.356 118.331 105.039C117.557 104.31 117.249 103.335 117.524 102.304C118.02 100.452 115.139 99.664 114.643 101.513Z" fill="#F4BECE"/>
<path d="M116.207 104.093C116.287 104.453 116.21 103.772 116.222 104.141C116.225 104.254 116.225 104.364 116.222 104.477C116.216 104.777 116.314 104.218 116.213 104.524C116.177 104.631 116.153 104.741 116.117 104.848C115.863 105.586 116.407 106.507 117.16 106.677C117.991 106.864 118.726 106.427 118.998 105.639C119.261 104.881 119.258 104.079 119.088 103.303C118.92 102.542 117.988 102.027 117.25 102.265C116.446 102.524 116.027 103.279 116.207 104.093Z" fill="#F4BECE"/>
<path d="M115.51 106.314C115.701 107.491 116.744 108.22 117.856 108.437C118.451 108.553 119.015 108.532 119.607 108.419C120.103 108.324 120.967 107.913 121.442 108.175C123.128 109.103 124.637 106.534 122.951 105.61C121.917 105.039 120.883 105.072 119.754 105.327C119.368 105.416 119.003 105.497 118.615 105.547C118.504 105.562 118.409 105.497 118.301 105.494C118.256 105.494 118.468 106.002 118.391 105.52C118.262 104.721 117.27 104.293 116.553 104.483C115.701 104.709 115.381 105.526 115.51 106.314Z" fill="#F4BECE"/>
<path d="M122.829 103.151C122.829 103.023 122.838 102.889 122.832 102.762C122.808 102.334 122.912 102.64 122.796 102.672C122.273 102.821 122.954 103.166 121.986 102.539C121.176 102.013 121.574 102.045 121.427 102.345C121.293 102.619 121.266 103.011 121.194 103.309C121.095 103.71 121 104.111 120.901 104.516C120.45 106.374 123.331 107.167 123.782 105.306C124.168 103.722 125.214 101.249 123.349 100.193C122.473 99.6967 121.308 99.9672 120.62 100.66C119.963 101.323 119.831 102.265 119.84 103.154C119.855 105.063 122.844 105.066 122.829 103.151Z" fill="#F4BECE"/>
<path d="M126.021 105.437C126.128 105.226 126.239 105.015 126.347 104.807C125.486 104.807 124.625 104.807 123.767 104.807C123.8 104.875 123.821 105.14 123.75 105.229C124.583 105.711 125.414 106.192 126.248 106.674C126.424 105.467 126.604 104.263 126.78 103.056C126.896 102.262 126.583 101.459 125.737 101.228C125.035 101.034 124.015 101.465 123.899 102.265C123.723 103.472 123.543 104.676 123.367 105.883C123.268 106.549 123.433 107.2 124.054 107.563C124.58 107.869 125.459 107.839 125.865 107.331C126.834 106.115 127.028 104.715 126.35 103.306C125.871 102.316 124.258 102.354 123.77 103.306C123.663 103.517 123.552 103.728 123.445 103.936C122.563 105.636 125.142 107.143 126.021 105.437Z" fill="#F4BECE"/>
<path d="M125.659 105.196C125.542 106.124 123.28 105.728 122.536 105.725C121.254 105.719 119.972 105.717 118.69 105.711C116.765 105.705 116.765 108.677 118.69 108.683C121.006 108.692 123.492 108.96 125.793 108.689C127.775 108.454 128.423 106.974 128.647 105.196C128.886 103.303 125.898 103.32 125.659 105.196Z" fill="#F4BECE"/>
<path d="M72.4609 78.9348C65.3721 76.5714 62.0459 87.7967 67.0338 91.697C69.2752 93.4479 72.7747 93.546 75.4733 93.0436C79.1582 92.3599 79.8515 88.4507 79.7977 85.249C79.738 81.7024 77.6012 79.568 74.1674 79.0507C71.0384 78.581 67.9662 79.3599 66.9381 82.6656C66.1253 85.2787 66.2478 90.1184 68.8926 91.7089C71.4448 93.2458 75.0699 92.3777 76.9736 90.2076C78.7159 88.2218 78.8922 84.5177 75.9874 83.4802C73.3545 82.5408 69.9625 84.9993 71.2775 87.874C72.5805 90.7189 76.6269 89.9638 76.8122 86.8513C76.9915 83.8399 73.6115 82.2049 70.9577 82.2911C68.0917 82.3862 67.488 86.3103 68.8 88.305C70.5991 91.0489 74.9832 88.7509 76.3699 86.7711C77.117 85.7068 77.5354 84.1996 76.86 82.9837C76.0681 81.5538 74.3018 81.5181 73.0048 82.2376C71.7975 82.9064 70.7067 84.1015 70.7455 85.5552C70.7844 86.9286 71.8752 88.0494 73.1811 88.3674C76.866 89.2623 78.2975 84.4315 76.1637 82.08C74.1405 79.8504 69.2961 79.4164 68.3786 82.9599C67.4103 86.6938 72.0664 88.0672 74.251 85.4214C75.2313 84.2323 75.3239 82.3505 73.9133 81.4408C72.7747 80.7066 71.1998 80.983 70.5513 82.2019C69.6517 83.8904 72.2308 85.3947 73.1303 83.7031C73.1333 83.6972 71.2267 83.7804 71.2655 83.8518C71.0324 83.4207 72.0694 83.281 72.2188 83.278C73.0078 83.2632 74.4304 83.9707 74.2809 84.9279C74.2212 85.3203 73.5846 85.7009 73.8894 85.243C74.0239 85.0409 74.4064 84.9933 74.511 84.8001C74.4602 84.7347 74.4094 84.6663 74.3616 84.6009C74.2152 84.3007 74.1405 84.3393 74.1375 84.7198C73.3186 85.4155 72.9182 86.4559 71.6002 86.4916C71.14 86.5035 71.1729 86.5451 71.1908 85.9981C71.1968 85.8525 71.1221 85.6057 71.1788 85.469C71.3044 85.1568 71.1878 85.3203 71.2984 85.2787C71.5554 85.1776 72.3742 85.4957 72.6342 85.5849C72.8524 85.6592 73.3575 85.8168 73.5398 86.0219C73.6234 86.1141 73.7699 86.4708 73.8386 86.5154C74.1225 86.7146 73.4143 86.6997 74.0149 86.7027C73.9103 86.7027 74.2092 86.3816 74.1943 86.3905C74.6126 86.1735 75.0998 86.1765 75.2851 86.6878C75.5929 87.544 74.526 88.5518 73.9014 88.9323C73.0915 89.4258 71.9828 89.6666 71.0503 89.405C69.7593 89.0423 69.6876 87.5202 69.5979 86.3697C69.5142 85.3174 69.4814 83.9707 69.9984 83.0016C70.5752 81.9195 71.7407 81.7976 72.8584 81.8689C73.7968 81.9284 75.1685 82.074 75.9127 82.7221C76.8511 83.5396 76.86 84.9844 76.7853 86.1141C76.7255 87.0386 76.6777 88.9888 75.9127 89.7052C75.2044 90.3681 73.8356 90.2611 72.9361 90.27C70.3271 90.2998 67.9692 89.6666 67.6853 86.7175C67.4611 84.4077 68.6655 80.7928 71.6719 81.7946C73.4949 82.41 74.2779 79.5383 72.4609 78.9348Z" fill="#B45741"/>
<path d="M77.6816 77.1629C74.0834 74.6361 69.1404 75.7003 65.8411 78.2242C64.0689 79.5798 63.3517 81.2743 63.5399 83.492C63.7312 85.7097 64.1317 87.8442 65.5422 89.6338C68.2977 93.1268 73.3602 94.1465 77.5382 93.0258C81.9851 91.8337 84.089 88.0612 82.8816 83.6585C82.266 81.417 81.214 78.9674 79.2446 77.591C77.2274 76.1849 74.5467 76.2444 72.4876 77.5197C71.6179 78.0607 71.4177 79.6006 72.4876 80.0852C74.5676 81.0335 80.4131 82.6537 79.4299 85.8524C80.4071 85.9832 81.3874 86.117 82.3646 86.2478C82.4065 85.0973 82.012 84.1758 81.232 83.3374C80.7239 82.7904 79.6152 82.731 79.1191 83.3374C78.4855 84.1104 78.0522 84.8595 77.8011 85.8316C77.32 87.6866 80.2009 88.4744 80.6821 86.6224C80.7986 86.1735 80.9331 85.8048 81.232 85.4392C80.5267 85.4392 79.8244 85.4392 79.1191 85.4392C79.3701 85.6592 79.4538 85.9297 79.3761 86.2478C79.3163 87.9601 81.8267 88.2158 82.3108 86.6432C83.9216 81.4051 77.6368 79.1755 73.9938 77.5197C73.9938 78.3758 73.9938 79.232 73.9938 80.0852C77.837 77.701 80.4101 83.3761 80.2906 86.4737C80.1382 90.4335 74.6901 90.9121 71.7643 90.1867C70.043 89.7587 68.4232 88.7806 67.4908 87.2437C66.6868 85.9208 65.9278 82.9212 66.7317 81.4854C67.4788 80.1506 69.6186 79.2974 71.0112 78.9347C72.8402 78.4591 74.6094 78.6315 76.1694 79.7285C77.7474 80.8343 79.2416 78.2569 77.6816 77.1629Z" fill="#B45741"/>
<path d="M82.0183 88.4803C81.8599 88.2485 81.6985 88.0166 81.5401 87.7817C81.1785 87.2526 80.5091 86.8869 79.8516 87.098C78.3006 87.5974 77.5833 89.3424 78.3484 90.7783C78.716 91.465 79.7351 91.7355 80.3925 91.3104C81.0948 90.8586 81.322 90.0113 80.9275 89.277C80.8319 89.0987 80.9813 89.3989 80.9903 89.4287C80.9036 89.1671 81.0351 89.7319 81.0082 89.5713C80.9992 89.5178 81.0291 89.3127 80.9962 89.5862C80.9574 89.9073 81.0231 89.5892 81.0231 89.5684C81.0231 89.5922 80.8767 89.9073 80.9693 89.723C81.056 89.5535 80.8976 89.8151 80.8677 89.8478C81.0291 89.6724 80.6137 89.9905 80.7631 89.9162C80.9096 89.8448 80.3776 90.047 80.6406 89.9608C80.0788 89.7319 79.5169 89.5059 78.9521 89.277C79.1105 89.5089 79.2719 89.7408 79.4302 89.9756C79.8696 90.6178 80.7631 90.9656 81.4744 90.5078C82.1229 90.1035 82.4905 89.167 82.0183 88.4803Z" fill="#B45741"/>
<path d="M79.4717 87.7252C79.4329 88.733 78.614 89.5238 78.0163 90.2699C77.2961 91.1707 76.7043 92.0358 76.3517 93.1416C76.3158 93.2665 76.2859 93.3914 76.265 93.5192C76.2172 93.7838 76.2112 93.7867 76.2531 93.5311C76.525 93.4984 75.5179 93.2338 75.4253 93.2219C74.5675 93.1 73.7098 92.9811 72.8521 92.8592C72.0901 92.7522 71.328 92.6452 70.5659 92.5382C70.0907 92.4698 69.6126 92.4044 69.1374 92.336C68.6652 92.2706 68.202 91.9555 68.4231 92.5679C68.3723 92.9484 68.3215 93.3319 68.2737 93.7124C68.3096 93.6381 68.3454 93.5668 68.3813 93.4924C69.2271 91.7801 66.648 90.2729 65.8022 91.9912C64.5889 94.4526 67.431 95.071 69.2032 95.3207C70.536 95.508 71.8719 95.6953 73.2048 95.8826C74.3733 96.0461 75.7151 96.4296 76.8926 96.3701C79.128 96.2571 78.9637 93.9235 80.0186 92.5114C81.1692 90.9715 82.3855 89.7497 82.4662 87.7193C82.5349 85.8107 79.5464 85.8137 79.4717 87.7252Z" fill="#B45741"/>
<path d="M65.8827 88.5279C65.0997 89.9935 64.8905 91.5156 65.1415 93.1447C65.264 93.9384 66.2652 94.3784 66.9795 94.1822C67.8312 93.9503 68.148 93.1506 68.0224 92.3539C67.8999 91.5572 68.0882 90.7308 68.4618 90.0292C69.3643 88.3406 66.7852 86.8364 65.8827 88.5279Z" fill="#B45741"/>
<path d="M79.8389 75.3287C75.5115 74.422 71.6414 76.717 68.4198 79.3777C65.4372 81.8421 62.9119 85.0468 62.8133 89.0482C63.3124 88.5517 63.8085 88.0582 64.3076 87.5618C63.6172 87.4904 62.6758 87.2229 61.9915 87.324C61.8301 87.3091 61.6657 87.2913 61.5043 87.2764C61.8928 87.6658 61.9675 87.5439 61.7344 86.9167C61.8809 85.7513 61.6239 84.5741 61.842 83.3761C62.2246 81.2714 63.1779 79.2766 64.708 77.7545C66.1186 76.3514 67.9416 75.3555 69.92 75.0374C71.1991 74.8323 72.5409 74.9601 73.7991 75.2188C74.337 75.3287 74.866 75.4685 75.395 75.6141C75.9419 75.7687 77.0416 75.9084 77.4541 76.3187C77.3076 75.9679 77.1612 75.6171 77.0177 75.2663C77.0237 75.3733 77.0267 75.4804 77.0327 75.5874C77.5318 75.0909 78.0278 74.5974 78.5269 74.101C72.7591 74.3329 65.3685 75.6558 63.8922 82.2999C63.5216 83.9706 65.6673 84.8446 66.6237 83.4445C68.103 81.2803 69.7467 79.2677 71.5637 77.377C72.3855 76.5208 71.9522 75.2752 70.9032 74.8917C65.491 72.9208 63.0105 80.9949 62.371 84.7584C62.105 86.3281 64.2089 87.4696 65.1025 85.903C66.1784 84.0182 67.0122 82.0294 67.5949 79.9425C68.0193 78.4264 66.1843 77.5762 65.0965 78.4977C63.0464 80.2309 61.6896 82.6299 61.3041 85.2816C61.0321 87.1426 63.8742 87.972 64.185 86.0724C64.5257 84.0034 65.1623 82.071 66.1694 80.2249C66.9494 78.795 64.9919 77.1154 63.8234 78.4234C62.2903 80.1417 61.1726 82.0443 60.4165 84.2174C61.3938 84.3482 62.374 84.482 63.3512 84.6128C63.2825 83.1769 63.5395 81.9075 64.2269 80.6382C64.9949 79.2261 62.9747 77.4573 61.8809 78.8366C60.6526 80.3825 59.9921 81.9878 59.8158 83.9558C59.7052 85.1687 61.1427 85.6889 62.0632 85.24C62.7446 84.9071 63.2616 84.3958 63.5754 83.7031C64.3584 81.9729 61.7823 80.4598 60.9963 82.2018C60.9604 82.4664 60.814 82.624 60.557 82.6715C61.3071 83.0996 62.0572 83.5277 62.8043 83.9558C62.903 82.8499 63.3004 81.8154 63.9968 80.9414C63.2138 80.3409 62.4308 79.7404 61.6508 79.1399C60.7213 80.8492 60.2731 82.6686 60.3657 84.6128C60.4494 86.3102 62.7476 86.6016 63.3004 85.0082C63.8802 83.3374 64.7588 81.8481 65.9393 80.5252C65.1563 79.9247 64.3733 79.3242 63.5933 78.7237C62.4666 80.7868 61.6896 82.9629 61.3101 85.2816C62.2694 85.5462 63.2317 85.8078 64.191 86.0724C64.5138 83.8547 65.497 82.0532 67.2154 80.5995C66.3816 80.1179 65.5508 79.6363 64.717 79.1547C64.197 81.0068 63.4767 82.734 62.5234 84.4047C63.4349 84.7852 64.3434 85.1687 65.2549 85.5492C65.5866 83.5991 67.0062 76.6279 70.1143 77.7635C69.8931 76.9341 69.6749 76.1076 69.4538 75.2782C67.4634 77.3502 65.6643 79.5769 64.0446 81.9492C64.9561 82.3297 65.8646 82.7132 66.7761 83.0937C67.9356 77.8824 74.1278 77.2551 78.5299 77.0797C79.3069 77.047 80.063 76.4227 80.0242 75.5933C79.9375 73.7383 78.249 73.3637 76.7189 72.9059C74.866 72.353 72.9085 71.9219 70.96 71.9754C67.7473 72.0676 64.6542 73.5153 62.4367 75.8163C60.0728 78.2688 58.8236 81.5716 58.6802 84.9428C58.6234 86.2894 58.5248 88.4358 59.5259 89.4971C60.5809 90.6178 62.9269 90.3948 64.3046 90.5346C65.1234 90.6178 65.7809 89.7854 65.7988 89.0482C65.8765 86.0189 67.9775 83.6555 70.177 81.7738C72.5529 79.7493 75.7536 77.5048 79.0439 78.1945C80.9207 78.5869 81.7217 75.7241 79.8389 75.3287Z" fill="#2B5741"/>
<path d="M62.2939 88.4595C64.2155 88.4595 64.2215 85.4868 62.2939 85.4868C60.3723 85.4868 60.3693 88.4595 62.2939 88.4595Z" fill="#2B5741"/>
<path d="M59.4658 83.3968C58.1569 84.9129 59.1311 87.0415 57.6279 88.3287C56.833 89.0094 57.1916 90.6534 58.2884 90.8139C59.7617 91.028 61.235 91.242 62.7084 91.4561C63.7454 91.6077 64.9677 91.9703 65.8374 91.1677C66.6263 90.4394 66.5576 89.0986 66.7339 88.1295C66.973 86.8155 67.2838 85.5134 67.7201 84.253C68.1326 83.0639 68.6795 81.9193 69.3937 80.8818C70.099 79.8592 71.1001 79.1398 71.8443 78.1617C73.1383 76.4613 72.451 73.4618 69.9257 73.6253C68.016 73.7501 68.0011 76.7229 69.9257 76.598C69.3907 76.6337 69.4355 76.5475 69.0082 76.8478C68.7721 77.0142 68.5539 77.2669 68.3537 77.475C67.9443 77.8972 67.5677 78.352 67.2151 78.8217C66.4321 79.8622 65.8284 80.9978 65.3263 82.1958C64.8482 83.3403 64.4746 84.5176 64.1877 85.7245C64.0413 86.3369 63.9187 86.9552 63.8082 87.5736C63.7215 88.0641 63.7663 88.9559 63.4884 89.3662C63.7872 89.1373 64.0831 88.9113 64.382 88.6824C63.7902 88.8757 62.4693 88.4387 61.8447 88.3495C60.9242 88.2157 60.0038 88.0819 59.0833 87.9482C59.3045 88.7776 59.5226 89.604 59.7438 90.4334C60.455 89.827 61.0199 89.0451 61.2948 88.1444C61.4114 87.7668 61.4771 87.3477 61.507 86.9523C61.5339 86.6253 61.3546 85.7632 61.5787 85.5016C62.8249 84.0568 60.721 81.9431 59.4658 83.3968Z" fill="#2B5741"/>
<path d="M77.8872 84.1639C77.9709 84.4047 78.0486 84.6484 78.1113 84.8952C78.1412 85.02 78.1681 85.1449 78.189 85.2698C78.198 85.3262 78.207 85.4214 78.198 85.3114C78.204 85.3798 78.213 85.4481 78.2159 85.5165C78.2249 85.6414 78.2249 85.7662 78.2189 85.8911C78.2159 85.9476 78.213 86.004 78.207 86.0605C78.189 86.2716 78.2428 85.9238 78.195 86.1319C78.1681 86.2538 78.1382 86.3727 78.0964 86.4916C78.0426 86.6462 78.0486 86.5213 78.0934 86.5064C78.0815 86.5094 78.0277 86.6343 78.0187 86.6462C77.9978 86.6848 77.9739 86.7235 77.947 86.7591C77.8902 86.8424 77.9201 86.8334 77.953 86.7591C77.9141 86.8424 77.8005 86.9316 77.7318 86.991C77.7139 87.0059 77.6003 87.1099 77.684 87.0356C77.7677 86.9613 77.6511 87.0594 77.6302 87.0713C77.5764 87.1069 77.421 87.2318 77.3552 87.2259C77.409 87.2318 77.4867 87.1813 77.3642 87.2169C77.3224 87.2288 77.2835 87.2437 77.2417 87.2556C77.2327 87.2586 77.0952 87.2942 77.0923 87.2883C77.0923 87.2883 77.2835 87.2794 77.1162 87.2794C77.0743 87.2794 77.0325 87.2764 76.9907 87.2794C76.8323 87.2883 77.1311 87.318 76.9907 87.2823C76.9428 87.2705 76.892 87.2556 76.8442 87.2437C76.7008 87.211 76.9757 87.3091 76.8323 87.2407C76.4796 87.0713 76.0074 87.1337 75.8102 87.5083C75.6339 87.8412 75.7026 88.3436 76.0792 88.525C77.2417 89.0839 78.5297 88.5458 79.229 87.5291C79.9851 86.4291 79.7461 84.9428 79.3307 83.7655C79.2022 83.3999 78.8136 83.1175 78.4102 83.2453C78.0456 83.3672 77.7497 83.7715 77.8872 84.1639Z" fill="#883F41"/>
<path d="M73.7095 91.1558C74.11 91.7355 74.5702 92.3479 75.2127 92.6779C75.5474 92.8503 75.9479 92.9811 76.3304 92.9454C76.7518 92.9068 77.1015 92.7433 77.4213 92.4698C77.9682 92.0031 78.2252 91.1885 77.8994 90.5286C77.5049 89.7259 76.4888 89.6665 75.7118 89.7943C75.3203 89.8597 74.9497 90.044 74.7047 90.3591C74.4088 90.7396 74.355 91.2391 74.5672 91.6731C74.872 92.2974 75.652 92.5174 76.2916 92.559C76.6711 92.5857 77.1164 92.5441 77.4422 92.339C77.8994 92.0536 78.0907 91.4977 77.9293 90.9893C77.7888 90.5464 77.49 90.2134 77.1224 89.94C76.8116 89.7081 76.453 89.5119 76.0734 89.4167C75.5714 89.2949 75.0334 89.3394 74.5851 89.61C74.1279 89.8835 73.8231 90.3324 73.7782 90.8645C73.6916 91.8693 74.9497 92.7492 75.8343 92.1547C76.1571 91.9377 76.3304 91.4918 76.1033 91.138C75.8971 90.8169 75.4279 90.6386 75.0812 90.8704C75.0693 90.8794 75.0394 90.8942 75.0245 90.9061C75.1022 90.8288 75.1918 90.8467 75.1141 90.8675C74.9916 90.9002 75.2964 90.8645 75.2068 90.8585C75.1858 90.8556 75.1649 90.8556 75.144 90.8585C75.0573 90.8615 75.3293 90.9031 75.2516 90.8704C75.2337 90.8615 75.2097 90.8556 75.1918 90.8526C75.1081 90.8318 75.3711 90.9507 75.2665 90.8823C75.2396 90.8645 75.153 90.805 75.2606 90.8853C75.3771 90.9775 75.2486 90.8645 75.2247 90.8437C75.1589 90.7872 75.3323 91.0131 75.2695 90.9031C75.2576 90.8853 75.2456 90.8645 75.2366 90.8467C75.1769 90.7486 75.3054 91.0369 75.2546 90.8704C75.2307 90.7991 75.2994 90.8229 75.2665 90.9715C75.2665 90.9537 75.2665 90.9388 75.2665 90.921C75.2695 90.8615 75.2635 90.8972 75.2486 91.028C75.2576 91.0102 75.2606 90.9745 75.2665 90.9566C75.2815 90.8912 75.3233 90.9002 75.2307 91.031C75.2546 90.9953 75.2904 90.9448 75.3024 90.9031C75.2576 91.0191 75.2038 91.0191 75.2546 90.9685C75.2725 90.9507 75.2874 90.9329 75.3084 90.915C75.3263 90.9002 75.3502 90.8823 75.3651 90.8645C75.2426 91.0072 75.2725 90.9329 75.3383 90.8942C75.3592 90.8823 75.3831 90.8704 75.404 90.8585C75.5086 90.7961 75.3383 90.8972 75.3323 90.8853C75.3323 90.8823 75.4907 90.8377 75.4966 90.8348C75.664 90.7991 75.3173 90.8437 75.4877 90.8377C75.5176 90.8377 75.5475 90.8377 75.5773 90.8377C75.7507 90.8437 75.4907 90.814 75.5624 90.8288C75.6222 90.8407 75.6819 90.8526 75.7417 90.8704C75.7716 90.8794 75.8015 90.8883 75.8314 90.8972C75.8373 90.9002 75.8463 90.9031 75.8523 90.9061C75.927 90.9358 75.912 90.9269 75.8045 90.8823C75.8194 90.9091 75.9419 90.9477 75.9718 90.9656C76.0406 91.0042 76.1093 91.0429 76.175 91.0875C76.2288 91.1231 76.2796 91.1588 76.3304 91.1945C76.3932 91.2391 76.3573 91.2569 76.2826 91.1588C76.2946 91.1766 76.3245 91.1945 76.3394 91.2093C76.3783 91.245 76.4111 91.2837 76.447 91.3223C76.5337 91.4115 76.3962 91.2628 76.4052 91.2628C76.4141 91.2628 76.4649 91.352 76.4709 91.3609C76.4829 91.3818 76.4948 91.4055 76.5068 91.4263C76.5695 91.5334 76.4679 91.3461 76.4769 91.3491C76.4858 91.355 76.4918 91.4026 76.4978 91.4174C76.5396 91.5245 76.4709 91.3223 76.4888 91.3193C76.5008 91.3164 76.4739 91.5066 76.5008 91.3164C76.5187 91.1856 76.5068 91.2599 76.4978 91.2955C76.4799 91.3609 76.5606 91.1647 76.5815 91.141C76.6293 91.0845 76.6353 91.0756 76.5964 91.1172C76.6263 91.0964 76.6562 91.0726 76.6861 91.0518C76.5695 91.138 76.8146 91.022 76.7249 91.0399C76.695 91.0458 76.6681 91.0548 76.6383 91.0607C76.456 91.0993 76.7727 91.0548 76.6353 91.0637C76.5366 91.0696 76.438 91.0756 76.3394 91.0696C76.3245 91.0696 76.193 91.0726 76.187 91.0577C76.184 91.0547 76.3992 91.0904 76.2826 91.0696C76.2587 91.0666 76.2378 91.0607 76.2139 91.0577C76.1153 91.0399 76.0166 91.0131 75.924 90.9804C75.7656 90.9239 76.0525 91.0458 75.9569 90.9953C75.921 90.9775 75.8852 90.9596 75.8523 90.9388C75.7118 90.8496 75.9778 91.0637 75.8792 90.9626C75.8672 90.9507 75.8553 90.9358 75.8403 90.9239C75.7477 90.8407 75.912 91.0012 75.9001 91.0042C75.8672 91.0131 75.8343 90.7575 75.915 91.0577C75.8792 90.9299 75.918 91.2688 75.921 91.132C75.924 90.9923 75.8762 91.3372 75.912 91.1915C75.936 91.1053 75.9569 91.1707 75.8762 91.2628C75.8941 91.242 75.9569 91.1439 75.8732 91.2539C75.7596 91.3996 76.0047 91.1558 75.8583 91.2718C75.7327 91.3699 75.9001 91.2391 75.93 91.245C75.9389 91.245 75.7327 91.3104 75.8523 91.2807C75.8762 91.2747 75.9001 91.2658 75.921 91.2599C75.9718 91.245 76.0585 91.248 76.1033 91.2212C76.0973 91.2242 75.9001 91.242 76.0166 91.2331C76.0406 91.2301 76.0645 91.2272 76.0914 91.2272C76.1422 91.2242 76.193 91.2212 76.2408 91.2212C76.2976 91.2212 76.3543 91.2183 76.4141 91.2212C76.444 91.2212 76.4709 91.2242 76.5008 91.2242C76.5307 91.2272 76.5576 91.2272 76.5875 91.2331C76.5486 91.2272 76.5127 91.2242 76.4739 91.2183C76.4978 91.2034 76.6114 91.251 76.6383 91.2599C76.7608 91.2926 76.5755 91.2331 76.5755 91.2331C76.5964 91.2331 76.7189 91.3312 76.6024 91.2391C76.4948 91.1529 76.6114 91.2539 76.6323 91.2747C76.6921 91.3312 76.5337 91.1172 76.5665 91.1915C76.5815 91.2212 76.6323 91.3223 76.5725 91.1856C76.5127 91.0429 76.5606 91.1796 76.5725 91.2123C76.5994 91.2926 76.5606 91.0102 76.5576 91.0934C76.5576 91.1172 76.5606 91.138 76.5606 91.1618C76.5606 91.1766 76.5546 91.2064 76.5576 91.2183C76.5576 91.2183 76.5964 91.0072 76.5725 91.1053C76.5606 91.1529 76.5486 91.1974 76.5337 91.245C76.4978 91.352 76.6263 91.0577 76.5486 91.2034C76.5307 91.2391 76.5068 91.2747 76.4858 91.3074C76.3902 91.4472 76.5845 91.1974 76.5068 91.2807C76.4709 91.3193 76.435 91.358 76.3962 91.3936C76.2647 91.5126 76.5456 91.2985 76.3962 91.3936C76.3842 91.4026 76.2587 91.465 76.2587 91.4709C76.2587 91.465 76.45 91.4026 76.3514 91.4323C76.3275 91.4382 76.3035 91.4501 76.2766 91.4561C76.2557 91.462 76.2348 91.465 76.2169 91.4709C76.1422 91.4918 76.441 91.459 76.2916 91.459C76.2408 91.459 76.19 91.4531 76.1422 91.4531C76.3155 91.4472 76.2856 91.4769 76.2229 91.462C76.184 91.4531 76.1452 91.4472 76.1063 91.4353C76.0824 91.4293 76.0555 91.4204 76.0316 91.4115C75.9569 91.3877 75.9091 91.3312 76.0645 91.4293C76.0107 91.3966 75.9449 91.3728 75.8911 91.3401C75.8403 91.3104 75.7895 91.2777 75.7417 91.242C75.6849 91.2004 75.664 91.1439 75.7806 91.2747C75.7596 91.251 75.7268 91.2301 75.7029 91.2093C75.6042 91.1231 75.5116 91.031 75.4249 90.9358C75.3771 90.8853 75.3323 90.8318 75.2874 90.7783C75.2695 90.7575 75.2516 90.7337 75.2337 90.7129C75.135 90.594 75.3383 90.8556 75.2486 90.7307C75.1679 90.6207 75.0872 90.5078 75.0095 90.3948C74.7884 90.0737 74.3431 89.9013 73.9874 90.1272C73.6557 90.3443 73.4734 90.814 73.7095 91.1558Z" fill="#ED9941"/>
<path d="M60.8894 98.2995C61.7232 94.8718 68.8867 98.2579 70.7605 99.01C74.6157 100.553 78.2467 102.646 81.6118 105.066C82.2244 103.618 82.8401 102.167 83.4527 100.719C80.3357 99.661 77.2187 98.6027 74.1017 97.5444C71.0713 96.5158 67.9483 95.0978 64.7506 94.7083C59.3174 94.0484 54.3714 98.5819 54.5029 104.022C54.5657 106.579 58.7586 107.405 59.1979 104.655C59.5894 102.197 59.9839 99.7353 60.3754 97.2768C60.737 95.0205 58.2326 93.2101 56.3797 94.964C54.6105 96.6377 53.2268 98.8732 52.8353 101.296C52.2735 104.789 55.8508 105.211 58.397 105.696C61.2779 106.243 64.1708 106.712 67.0756 107.111C68.4504 107.298 69.8251 107.476 71.2028 107.637C72.4759 107.786 73.749 107.952 74.8398 107.111C77.1858 105.3 75.7334 102.247 73.8626 100.755C72.0306 99.2924 69.6757 98.6889 67.3596 99.0962C65.0972 99.4945 62.7333 101.531 63.334 104.037C63.9138 106.472 66.8007 107.372 68.8568 106.103C71.5584 104.435 70.8053 100.577 68.4294 99.0189C66.2418 97.586 62.6676 97.4225 60.6922 99.2537C59.2846 100.562 60.1423 102.649 61.7471 103.228C64.1499 104.099 66.6692 102.565 67.3685 100.226C67.8497 98.6146 66.5527 97.372 65.0644 97.2144C63.0142 97.0004 60.7549 97.2739 59.5087 99.111C58.388 100.764 58.5853 102.58 59.8046 104.082C60.2857 104.673 61.4214 104.97 62.1296 104.694C66.5138 102.982 64.3979 97.1668 61.7919 94.7292C58.4089 91.5631 52.928 93.433 51.9956 97.9398C50.9974 102.765 54.9721 106.347 58.9319 108.208C63.3519 110.283 68.0589 111.784 72.9003 112.483C75.3389 112.833 78.8982 113.681 81.1217 112.31C83.1539 111.059 84.2656 107.958 84.956 105.815C85.1921 105.083 84.9679 103.998 84.3403 103.502C82.0511 101.68 79.481 100.538 76.6897 102.078C74.278 103.41 73.1991 105.937 73.5966 108.579C73.9044 110.622 77.0693 110.848 77.9658 109.147C78.3752 108.368 78.7847 107.592 79.1971 106.814C77.7118 106.412 76.2265 106.014 74.7412 105.613C74.8607 107.396 74.538 110.122 75.8798 111.517C77.2336 112.926 79.2957 112.596 80.6465 111.392C82.4845 109.757 83.372 105.752 86.3008 105.586C85.8973 105.479 85.4969 105.369 85.0934 105.262C84.5047 104.923 85.1831 104.652 84.5914 105.211C84.1162 105.663 83.6589 106.121 83.1658 106.552C82.2334 107.364 81.2532 108.122 80.2102 108.79C79.7051 109.114 79.2658 109.447 78.6472 109.456C77.9927 109.465 77.1739 109.073 76.5463 108.895C75.2522 108.529 73.9612 108.163 72.6672 107.798C67.8288 106.43 62.9336 105.143 58.8781 102.042C57.5662 101.037 55.8119 102.182 55.3666 103.463C53.6183 108.475 62.8439 107.708 65.423 107.839C68.4982 107.994 68.4892 103.237 65.423 103.083C64.2306 103.023 63.0411 102.964 61.8487 102.904C61.2988 102.878 60.7489 102.848 60.1991 102.821C59.9241 102.806 59.6492 102.794 59.3742 102.779C59.0515 102.747 59.0455 102.788 59.3533 102.904C59.5595 103.255 59.7627 103.603 59.9689 103.954C59.942 103.873 59.9152 103.796 59.8883 103.716C59.8883 104.138 59.8883 104.56 59.8883 104.979C59.9181 104.896 59.948 104.81 59.9779 104.727C58.8064 105.199 57.6379 105.675 56.4664 106.148C60.3694 109.132 65.1331 110.607 69.8072 111.933C72.3175 112.646 74.8936 113.603 77.4637 114.058C80.2072 114.543 82.2812 113.238 84.3852 111.647C86.2141 110.265 88.5093 108.689 89.3282 106.46C90.0843 104.397 89.2803 101.558 86.9344 100.913C84.8693 100.348 82.4366 101.81 81.0021 103.127C80.2221 103.844 79.5677 104.706 78.955 105.562C78.6173 106.035 78.3035 106.525 77.9987 107.022C77.8493 107.262 77.7028 107.506 77.5594 107.75C77.401 107.931 77.3801 107.946 77.4996 107.801C77.924 107.801 78.3483 107.801 78.7697 107.801C78.6681 107.783 78.5665 107.765 78.4649 107.747C78.8175 107.952 79.1672 108.154 79.5198 108.359C79.5049 108.33 79.49 108.297 79.475 108.267C79.5826 108.669 79.6932 109.067 79.8008 109.468C79.6483 108.19 79.6065 106.891 79.5228 105.61C79.3764 103.407 76.2414 102.182 75.0669 104.409C74.6575 105.187 74.2481 105.963 73.8357 106.742C75.2911 106.932 76.7495 107.12 78.2049 107.31C78.1391 106.873 78.7518 106.332 79.1014 106.18C79.8217 105.865 80.4015 106.418 80.9603 106.861C80.7541 106.091 80.5509 105.318 80.3447 104.548C80.0847 105.36 79.7828 106.124 79.3794 106.879C79.1971 107.218 78.9102 107.575 78.7697 107.922C78.6801 108.056 78.5934 108.193 78.5037 108.327C78.9431 108.223 78.9819 108.184 78.6263 108.211C77.8522 107.931 76.5313 108.133 75.6886 108.059C74.8219 107.982 73.9612 107.872 73.1035 107.729C69.3977 107.108 65.7338 106.029 62.291 104.525C60.3873 103.695 55.5489 101.599 56.7473 98.7008C57.1687 97.6811 57.9905 97.6217 58.6839 98.3649C59.0814 98.79 59.3683 99.3845 59.5954 99.9167C59.688 100.131 59.7538 100.642 59.8972 100.8C60.0706 100.993 59.6522 100.981 60.0945 100.603C60.4471 100.398 60.7968 100.196 61.1494 99.991C61.0538 100.03 60.9552 100.065 60.8595 100.104C61.6336 100.309 62.4106 100.511 63.1846 100.716C63.1159 100.633 63.0471 100.55 62.9814 100.464C63.1876 100.814 63.3908 101.162 63.597 101.513C63.4476 101.043 63.3968 101.136 63.4416 101.79C63.2503 101.914 63.2414 101.95 63.4117 101.897C63.6807 102.039 64.7147 101.926 65.0644 101.962C64.2963 100.957 63.5283 99.9553 62.7602 98.9505C62.8857 98.5284 63.7554 98.897 63.0202 98.6324C63.3729 99.9583 63.7225 101.281 64.0752 102.607C63.9228 102.747 65.0106 102.723 65.2795 102.794C65.3692 102.818 65.7846 103.026 65.8474 103.011C66.215 102.937 66.5377 101.513 67.1294 101.944C67.4163 102.23 67.7002 102.512 67.9871 102.797C67.5508 103.763 67.5658 104.096 68.026 103.793C68.2143 103.722 68.4085 103.689 68.6058 103.695C69.0122 103.656 69.4097 103.728 69.7922 103.856C70.4915 104.088 71.2655 104.483 71.3731 105.229C71.3731 104.807 71.3731 104.385 71.3731 103.966C71.3492 104.082 71.3283 104.2 71.3044 104.316C71.5106 103.966 71.7138 103.618 71.92 103.267C71.9021 103.285 71.8842 103.3 71.8692 103.318C72.2727 103.211 72.6731 103.101 73.0766 102.994C71.7168 103.118 70.2226 102.759 68.8747 102.583C67.5359 102.408 66.2 102.212 64.8671 102.001C63.5163 101.787 62.1655 101.558 60.8207 101.314C60.0526 101.174 59.2846 101.029 58.5165 100.877C58.134 100.803 57.7485 100.725 57.3659 100.648C56.7802 100.425 56.6338 100.425 56.9207 100.648C57.1269 100.999 57.3301 101.347 57.5363 101.697C57.5064 101.561 57.4765 101.424 57.4466 101.287C57.4466 101.709 57.4466 102.131 57.4466 102.551C57.6947 100.862 58.5315 99.4797 59.7627 98.3173C58.4299 97.5474 57.1 96.7744 55.7671 96.0045C55.3756 98.463 54.9811 100.924 54.5896 103.383C56.1556 103.594 57.7216 103.805 59.2846 104.016C59.2427 102.337 60.0735 100.856 61.511 99.9672C63.2862 98.8703 65.2526 99.5629 67.0816 100.175C72.1233 101.861 77.147 103.594 82.1796 105.303C83.2943 105.681 84.5824 104.962 85.0008 103.927C85.473 102.762 85.0157 101.671 84.0235 100.957C79.6095 97.7792 74.7382 95.2791 69.58 93.5163C67.0069 92.6363 64.1768 91.7207 61.4333 92.3004C58.9857 92.8147 56.8758 94.5835 56.2781 97.039C55.5579 100.009 60.1662 101.278 60.8894 98.2995Z" fill="#EC46CC"/>
<path d="M81.4619 101.867C83.3387 102.155 85.075 102.985 86.2017 104.557C86.9488 105.601 88.2877 106.1 89.4741 105.41C90.5111 104.807 91.0849 103.208 90.3318 102.155C88.5088 99.6105 85.8819 97.7614 82.735 97.2798C81.4589 97.0836 80.1649 97.6009 79.7943 98.9416C79.4805 100.068 80.1798 101.671 81.4619 101.867Z" fill="#EC46CC"/>
<path d="M84.2595 97.9605C85.9719 98.6205 87.5349 99.5688 88.9216 100.767C89.6508 101.394 90.7446 101.329 91.2676 100.467C93.0846 97.4849 94.8478 94.4556 95.7115 91.0458C96.1807 89.1908 93.2998 88.4 92.8306 90.255C92.0267 93.4211 90.374 96.1947 88.6885 98.9653C89.4715 98.8643 90.2545 98.7662 91.0345 98.6651C89.2324 97.1103 87.2779 95.9509 85.0544 95.0948C83.2613 94.4021 82.4843 97.2768 84.2595 97.9605Z" fill="#B45741"/>
<path d="M86.1417 96.7774C87.0143 95.2256 87.887 93.6738 88.7626 92.122C88.9479 91.795 89.1302 91.468 89.3155 91.141C89.453 90.8972 89.5904 90.6505 89.7279 90.4067C89.6084 90.5732 89.4859 90.7367 89.3663 90.9002C89.4141 91.138 91.787 91.6374 92.0918 91.7326C91.793 91.0042 91.4971 90.2759 91.1983 89.5505C89.713 91.682 88.5714 93.9681 87.6987 96.4118C87.0472 98.24 89.8803 98.9416 90.5796 97.2025C91.004 96.1472 91.1624 95.0859 91.0817 93.9533C91.007 92.9039 89.8445 92.0031 88.8344 92.669C87.5881 93.4925 86.8022 94.5062 86.2612 95.8856C85.6097 97.5444 88.0932 98.3322 88.9927 97.0301C89.8564 95.7815 90.2748 94.4467 90.4362 92.9484C90.5856 91.5572 88.7596 91.138 87.884 91.8961C87.1428 92.5412 86.5272 93.2457 85.9295 94.0216C86.841 94.4021 87.7495 94.7856 88.661 95.1662C88.8194 94.3576 89.0435 93.6114 89.4111 92.8741C90.2629 91.1648 87.6868 89.6576 86.832 91.3729C86.3479 92.342 85.9893 93.3111 85.7801 94.3754C85.4424 96.1026 87.4925 96.8428 88.5116 95.5199C88.9509 94.9521 89.459 94.4646 89.9999 93.9949C89.1481 93.6441 88.2994 93.2933 87.4477 92.9425C87.3431 93.9087 86.9606 94.7292 86.4107 95.5229C87.3222 95.9034 88.2307 96.2869 89.1422 96.6674C89.3872 96.0431 89.7877 95.5913 90.3436 95.2256C89.5934 94.7975 88.8433 94.3694 88.0962 93.9414C88.1619 94.8362 88.0364 95.5705 87.7017 96.3999C88.661 96.6644 89.6233 96.926 90.5826 97.1906C91.3656 94.9908 92.4445 92.9574 93.7804 91.0399C94.3512 90.2224 93.7475 89.1195 92.8868 88.8579C91.1026 88.3139 88.6012 86.8721 87.2295 88.7747C85.804 90.7516 84.758 93.1447 83.5626 95.2672C82.6212 96.9498 85.2033 98.4481 86.1417 96.7774Z" fill="#B45741"/>
<path d="M90.0901 87.0147C89.077 85.4569 89.074 83.4444 90.3262 81.9996C91.5754 80.5578 89.4715 78.4441 88.2133 79.8978C86.1154 82.3206 85.7388 85.7899 87.511 88.5159C88.551 90.1153 91.1391 88.6259 90.0901 87.0147Z" fill="#B45741"/>
<path d="M90.4965 93.4746C90.8253 93.1327 91.154 92.7909 91.4857 92.449C92.0267 91.8871 92.0894 90.8972 91.4857 90.3472C90.9 89.8121 89.9496 89.7467 89.3728 90.3472C89.0441 90.6891 88.7154 91.031 88.3837 91.3728C87.8427 91.9347 87.78 92.9246 88.3837 93.4746C88.9694 94.0097 89.9168 94.0721 90.4965 93.4746Z" fill="#B45741"/>
<path d="M92.2294 87.3596C91.9425 84.9963 93.0183 82.8677 95.1641 81.7797C96.8765 80.9087 95.3673 78.3432 93.6549 79.2142C90.6753 80.7244 88.8374 84.045 89.2408 87.3626C89.471 89.2325 92.4595 89.2563 92.2294 87.3596Z" fill="#B45741"/>
<path d="M92.5557 89.4554C93.9245 88.8906 94.6806 87.8977 95.1019 86.4915C95.2932 85.8524 95.3201 85.0111 95.7624 84.476C96.2017 83.9438 97.0176 83.7506 97.6422 83.5633C99.4771 83.0074 98.6941 80.1387 96.8472 80.6976C95.4516 81.1197 94.0321 81.6934 93.1923 82.9509C92.7799 83.5663 92.5796 84.2827 92.3973 84.9903C92.3017 85.3589 92.1881 86.4142 91.7608 86.5896C91.0107 86.8988 90.4936 87.5736 90.7178 88.4179C90.9061 89.1195 91.8116 89.7616 92.5557 89.4554Z" fill="#B45741"/>
<path d="M94.6738 90.1124C96.6313 88.8311 98.4603 87.3715 100.131 85.7335C101.503 84.3868 99.3897 82.285 98.018 83.6317C96.5267 85.0973 94.9189 86.4024 93.1646 87.5469C91.5658 88.5933 93.06 91.1677 94.6738 90.1124Z" fill="#B45741"/>
<path d="M96.4313 90.0322C96.775 88.9352 97.1576 87.8531 97.6178 86.7978C97.9376 86.0605 97.8359 85.2044 97.0828 84.7644C96.4523 84.3987 95.3614 84.5563 95.0387 85.2965C94.4768 86.5897 93.9718 87.8947 93.5534 89.2414C92.9766 91.0727 95.8605 91.8575 96.4313 90.0322Z" fill="#B45741"/>
<path d="M99.2471 79.8236C97.7827 80.0049 96.4199 80.4479 95.2215 81.3248C94.573 81.8005 94.2473 82.6121 94.6866 83.3582C95.0602 83.9944 96.0792 84.3719 96.7307 83.8904C97.4749 83.3463 98.3176 82.9093 99.2471 82.7934C100.048 82.6953 100.741 82.181 100.741 81.307C100.741 80.5816 100.054 79.7225 99.2471 79.8236Z" fill="#B45741"/>
<path d="M96.4732 78.1023C95.0208 78.0964 93.7387 78.6166 92.621 79.5174C91.9934 80.0228 92.092 81.093 92.621 81.6192C93.2396 82.2345 94.1063 82.1275 94.7339 81.6192C95.2151 81.2297 95.8426 81.0722 96.4732 81.0751C98.3978 81.0811 98.4008 78.1083 96.4732 78.1023Z" fill="#B45741"/>
<path d="M98.2424 83.4117C95.0716 83.6882 92.4507 85.6948 91.4406 88.7122C90.8309 90.5315 93.7148 91.3104 94.3215 89.5029C94.8833 87.8233 96.4583 86.5391 98.2424 86.3845C100.146 86.221 100.161 83.2452 98.2424 83.4117Z" fill="#B45741"/>
<path d="M96.9842 91.8693C97.7732 90.811 98.9118 90.0024 100.155 89.5654C101.957 88.9322 101.18 86.0575 99.3601 86.6996C97.322 87.4161 95.6872 88.6438 94.4022 90.3681C93.921 91.0132 94.2946 92.0269 94.9371 92.4015C95.7022 92.8444 96.5031 92.5174 96.9842 91.8693Z" fill="#B45741"/>
<path d="M99.7553 86.0932C100.093 86.0932 100.428 86.0932 100.765 86.0932C101.548 86.0932 102.296 85.4095 102.26 84.6068C102.224 83.8012 101.602 83.1204 100.765 83.1204C100.428 83.1204 100.093 83.1204 99.7553 83.1204C98.9723 83.1204 98.2251 83.8042 98.261 84.6068C98.2999 85.4124 98.9185 86.0932 99.7553 86.0932Z" fill="#B45741"/>
<path d="M97.1099 80.6976C97.7076 80.5757 98.3083 80.4568 98.906 80.3349C99.674 80.1803 100.185 79.235 99.949 78.5066C99.686 77.698 98.9329 77.3027 98.111 77.4691C97.5133 77.591 96.9126 77.7099 96.3149 77.8318C95.5469 77.9864 95.0358 78.9317 95.2719 79.6601C95.5349 80.4687 96.288 80.8611 97.1099 80.6976Z" fill="#B45741"/>
</g>
</g>
<defs>
<clipPath id="clip0">
<rect width="126.25" height="91.2885" fill="white" transform="translate(51.8457 60.9166)"/>
</clipPath>
</defs>
</svg>
