<svg width="233" height="233" viewBox="0 0 233 233" fill="none" xmlns="http://www.w3.org/2000/svg">
<mask id="mask0" mask-type="alpha" maskUnits="userSpaceOnUse" x="0" y="0" width="233" height="233">
<rect width="233" height="233" fill="#C4C4C4"/>
</mask>
<g mask="url(#mask0)">
<path fill-rule="evenodd" clip-rule="evenodd" d="M110.19 12.0215C154.883 11.122 196.086 38.4617 209.681 80.4645C223.078 121.852 204.211 166.089 168.124 191C133.963 214.583 88.5128 211.745 55.0453 187.215C22.6928 163.501 10.5059 122.202 22.4573 84.2328C34.9433 44.5653 68.089 12.8689 110.19 12.0215Z" fill="#F5AA00"/>
<path d="M91.8499 140.674C91.5469 137.65 91.4554 134.612 91.6127 131.576C91.6808 130.266 91.6972 128.879 92.0377 127.604C92.1645 127.133 92.3148 126.807 92.6341 126.452C92.7304 126.345 92.566 126.508 92.8126 126.343C93.0169 126.3 93.0216 126.286 92.8314 126.295C92.5754 126.281 92.6435 126.312 93.0333 126.388C93.7636 126.937 93.9984 127.869 94.2262 128.714C94.5854 130.043 94.8696 131.406 95.0504 132.771C95.2312 134.139 95.3087 135.53 95.3157 136.91C95.3204 137.567 95.304 138.223 95.2711 138.878C95.2523 139.242 95.2077 139.607 95.2007 139.971C95.196 140.17 95.0222 140.565 95.2101 140.284C95.5059 139.985 95.7994 139.69 96.0953 139.392C96.6894 139.266 96.6917 139.221 96.0977 139.264C95.8018 139.264 95.5059 139.264 95.2101 139.264C94.6183 139.264 94.0266 139.264 93.4349 139.266C92.2514 139.266 91.0656 139.268 89.8821 139.268C89.8821 140.925 89.8821 142.581 89.8821 144.237C91.2746 144.216 92.6435 144.069 94.0219 143.873C94.7756 143.766 95.6233 142.886 95.7431 142.139C96.5767 136.914 96.6072 131.747 95.8558 126.511C95.6703 125.217 93.9702 124.407 92.822 124.776C90.5912 125.496 90.178 127.478 89.9267 129.554C89.6731 131.659 89.6074 133.767 89.7154 135.885C89.8774 139.067 94.8109 139.086 94.6465 135.885C94.5761 134.527 94.569 133.166 94.6488 131.808C94.6841 131.205 94.7334 130.602 94.8038 130.003C94.8343 129.733 94.9071 129.447 94.9189 129.177C94.9494 128.335 95.6327 129.083 94.1346 129.565C93.1225 128.988 92.1128 128.408 91.1008 127.831C91.7137 132.111 91.669 136.55 90.9881 140.816C91.561 140.239 92.1363 139.659 92.7093 139.082C91.7747 139.214 90.8237 139.252 89.8798 139.268C86.7098 139.321 86.698 144.24 89.8798 144.237C92.1762 144.235 94.5385 144.398 96.8279 144.221C99.9204 143.979 100.104 141.152 100.212 138.658C100.317 136.242 100.151 133.838 99.803 131.449C99.4743 129.189 99.061 126.726 97.9597 124.701C96.7904 122.55 94.4657 121.022 91.9837 121.457C89.699 121.857 88.0881 123.731 87.3978 125.879C86.6628 128.16 86.6745 130.829 86.6182 133.207C86.5595 135.7 86.6675 138.19 86.9164 140.669C87.0502 142.004 87.9543 143.154 89.382 143.154C90.6147 143.158 91.9837 142.018 91.8499 140.674Z" fill="white"/>
<path d="M69.1005 137.482C68.7624 133.969 68.7671 130.417 69.2062 126.911C69.3753 125.567 69.4762 123.858 70.0915 122.626C70.4977 121.812 70.9861 121.727 71.6154 121.883C73.9471 122.458 74.3909 125.619 74.729 127.628C75.0085 129.279 75.2292 130.942 75.2926 132.618C75.349 134.103 75.4147 135.88 74.8324 137.283C75.0437 136.919 75.255 136.552 75.4664 136.188C75.8209 135.738 76.4174 135.885 75.4077 135.835C75.1094 135.821 74.8089 135.805 74.5107 135.79C73.7616 135.753 73.0149 135.715 72.2658 135.677C70.8429 135.606 69.4222 135.532 67.9993 135.462C68.7084 136.708 69.4175 137.953 70.129 139.2C71.2444 136.616 71.5121 133.952 71.6577 131.16C71.7798 128.834 71.862 126.489 73.1793 124.49C71.6765 124.291 70.176 124.095 68.6732 123.896C70.0234 127.493 70.6174 131.382 70.0985 135.213C69.92 136.54 70.4155 137.88 71.8197 138.27C72.9703 138.589 74.6727 137.873 74.8535 136.536C75.4945 131.801 75.1141 127.067 73.4282 122.576C72.6721 120.56 70.1502 120.12 68.9221 121.982C67.4099 124.277 66.9919 126.989 66.8111 129.686C66.6561 131.981 66.804 134.534 65.8718 136.692C65.1228 138.431 65.9892 140.328 68.0016 140.43C70.1713 140.539 72.3433 140.648 74.513 140.759C76.7672 140.873 78.9768 140.816 79.7282 138.227C80.8882 134.236 80.1133 129.565 79.3596 125.574C78.6669 121.895 76.8236 118.107 72.9304 117.094C71.2068 116.644 69.3048 116.838 67.8231 117.875C66.1653 119.027 65.3177 120.903 64.9067 122.836C63.89 127.618 63.6998 132.622 64.1694 137.482C64.2986 138.817 65.2097 139.966 66.635 139.966C67.8678 139.966 69.2297 138.826 69.1005 137.482Z" fill="white"/>
<path d="M73.8347 134.825C73.8159 135.054 73.7994 135.284 73.7807 135.513C73.567 138.272 78.1623 138.947 78.6225 136.174C78.9513 134.203 79.0663 132.274 78.8221 130.287C78.6578 128.955 77.8054 127.802 76.3566 127.802C75.152 127.802 73.7267 128.945 73.891 130.287C74.0765 131.801 74.1188 133.344 73.8675 134.853C75.4807 135.073 77.0962 135.293 78.7094 135.513C78.7282 135.284 78.7446 135.054 78.7634 134.825C78.8667 133.486 77.5565 132.341 76.2979 132.341C74.8796 132.341 73.938 133.481 73.8347 134.825Z" fill="white"/>
<path d="M92.3455 120.801C88.4757 121.592 86.2638 125.512 86.8767 129.279C87.0199 130.161 88.1376 131.02 89.0276 130.928C91.4015 130.684 93.7779 130.599 96.1636 130.67C97.2555 130.703 98.5493 129.608 98.3943 128.422C98.1008 126.167 97.4128 122.42 94.9073 121.596C91.9627 120.626 90.3989 124.159 90.4458 126.563C90.5022 129.452 94.9637 129.461 94.9073 126.563C94.9026 126.317 94.959 126.092 94.9684 125.857C94.9754 125.656 95.2736 125.408 94.9144 125.645C94.5387 125.746 94.163 125.848 93.7896 125.952C93.7685 125.945 93.745 125.94 93.7239 125.933C93.3951 125.742 93.0687 125.548 92.74 125.356C93.5031 125.95 93.8178 127.511 93.9352 128.427C94.6795 127.677 95.4216 126.929 96.1659 126.179C93.7802 126.108 91.4039 126.193 89.0299 126.437C89.7461 126.986 90.4646 127.537 91.1808 128.086C90.9436 126.624 92.2375 125.406 93.5337 125.141C94.7148 124.899 95.3957 123.489 95.0928 122.375C94.7523 121.133 93.5313 120.558 92.3455 120.801Z" fill="#2421FF"/>
<path d="M86.5528 127.159C86.3133 127.999 86.2217 128.832 86.318 129.703C86.4143 130.571 86.9942 131.39 87.9617 131.359C89.758 131.302 91.5543 131.248 93.353 131.191C94.7197 131.148 96.5747 131.404 97.8098 130.692C100.693 129.026 97.9812 124.691 96.5864 122.94C96.0252 122.238 94.8488 122.363 94.2618 122.94C93.5714 123.622 93.7076 124.59 94.2618 125.283C94.8887 126.071 95.3795 126.996 95.6542 127.966C95.7035 128.11 95.7411 128.259 95.7693 128.408C95.8139 128.728 95.9477 128.524 96.1685 127.8C96.0299 127.656 94.9169 127.829 94.7032 127.836C92.4584 127.907 90.2112 127.975 87.9664 128.046C88.5135 128.598 89.063 129.151 89.6101 129.703C89.5443 129.104 89.5631 128.619 89.7275 128.039C90.3075 125.985 87.1351 125.11 86.5528 127.159Z" fill="#2421FF"/>
<path d="M65.9927 125.846C69.7474 125.836 73.589 126.066 77.3343 125.808C81.3566 125.531 78.567 120.122 77.2286 118.4C75.3759 116.02 72.1777 114.714 69.32 116.041C66.7488 117.236 65.3799 120.106 64.8844 122.777C64.6566 124.01 66.042 125.619 67.2983 124.649C69.1064 123.25 71.1399 122.683 73.4035 122.955C74.2676 123.059 75.0754 122.112 75.0472 121.298C74.9415 118.289 71.0154 117.101 69.5713 119.917C69.1956 120.65 69.32 121.795 70.1607 122.183C71.741 122.912 73.3236 123.111 75.019 122.68C74.3451 122.294 73.6712 121.909 72.9972 121.523C73.2015 122.375 73.6782 122.988 74.4273 123.423C76.2612 124.493 77.919 121.63 76.0874 120.563C76.1132 120.589 76.1414 120.615 76.1672 120.643C75.9559 119.76 74.9861 119.273 74.1455 119.486C73.3542 119.687 72.5722 119.671 71.8185 119.323C72.0157 120.078 72.2106 120.832 72.4079 121.589C72.166 121.568 71.95 121.473 71.7574 121.298C72.3045 120.747 72.854 120.193 73.4011 119.642C70.6561 119.313 67.829 120.094 65.6358 121.791C66.4412 122.415 67.2466 123.037 68.0497 123.662C68.3432 122.074 68.9068 120.234 70.2992 119.271C71.9993 118.092 74.0069 119.38 74.9673 120.894C75.2421 121.327 75.4816 121.788 75.6765 122.264C75.8408 122.664 75.9066 123.414 76.1649 123.74C76.24 124.199 76.4255 124.024 76.7144 123.217C77.3789 122.678 77.4658 122.441 76.9774 122.507C76.7731 122.413 76.2706 122.51 76.0428 122.51C75.3407 122.512 74.6386 122.515 73.9389 122.515C71.2878 122.522 68.6367 122.529 65.9857 122.536C63.877 122.538 63.8723 125.851 65.9927 125.846Z" fill="#2421FF"/>
<path d="M90.681 135.984C91.0239 135.743 91.3691 135.502 91.7119 135.258C91.3597 135.055 91.0051 134.849 90.6529 134.645C90.7726 135.857 90.8924 137.07 91.0121 138.282C91.1014 139.183 92.5103 139.193 92.421 138.282C92.3013 137.07 92.1815 135.857 92.0618 134.645C92.0148 134.16 91.4818 133.694 91.0027 134.032C90.6599 134.274 90.3147 134.515 89.9719 134.759C89.2322 135.277 89.9367 136.51 90.681 135.984Z" fill="#24211D"/>
<path d="M90.5116 139.827C91.3029 139.716 92.0919 139.605 92.8832 139.493C93.2636 139.439 93.4632 138.956 93.3763 138.62C93.2683 138.211 92.8856 138.071 92.5099 138.123C91.7186 138.235 90.9296 138.346 90.1383 138.457C89.7579 138.511 89.5583 138.994 89.6451 139.33C89.7508 139.742 90.1359 139.879 90.5116 139.827Z" fill="#24211D"/>
<path d="M95.1494 133.777C93.7499 134.073 93.1769 135.587 93.4963 136.886C93.7592 137.955 94.7783 140.04 96.152 139.775C97.2932 139.555 97.8333 138.026 97.8051 137.006C97.7722 135.741 97.096 134.527 95.9477 133.976C95.1329 133.583 94.4191 134.806 95.2362 135.201C96.1802 135.655 96.8001 137.009 96.1778 137.986C95.9407 138.36 95.9689 138.372 95.6659 138.083C95.4382 137.865 95.2527 137.454 95.1118 137.174C94.776 136.51 94.5294 135.355 95.5227 135.144C96.4103 134.957 96.0346 133.59 95.1494 133.777Z" fill="#24211D"/>
<path d="M68.8776 130.195C69.0654 129.854 69.4012 130.467 69.4106 130.647C69.4364 131.129 68.948 131.65 68.6545 131.979C68.0863 132.615 67.5697 133.171 67.2386 133.971C67.0061 134.534 67.6495 134.91 68.105 134.844C69.0701 134.702 70.0399 134.681 71.012 134.747C71.9161 134.809 71.9137 133.389 71.012 133.327C69.9061 133.252 68.8259 133.313 67.7317 133.474C68.0205 133.765 68.3093 134.056 68.5982 134.347C69.2251 132.828 71.5286 131.759 70.6598 129.781C70.1409 128.598 68.3352 128.259 67.6636 129.475C67.2198 130.278 68.4361 130.994 68.8776 130.195Z" fill="#24211D"/>
<path d="M74.1893 128.803C70.9489 128.905 71.9868 134.711 74.8046 134.92C76.4929 135.045 77.2866 133.202 77.0964 131.756C76.885 130.142 75.6922 128.841 74.1541 128.411C73.2783 128.167 72.9049 129.534 73.7784 129.78C74.4946 129.982 75.0769 130.422 75.4268 131.089C75.7603 131.721 76.0115 133.105 75.1403 133.422C73.6798 133.954 72.9941 130.258 74.1893 130.223C75.0934 130.195 75.0957 128.775 74.1893 128.803Z" fill="#24211D"/>
<path d="M46.4095 135.47C48.2716 135.472 50.1337 135.472 51.9981 135.475C54.0645 135.477 56.2389 135.373 56.9574 133.016C57.3918 131.595 57.049 129.77 56.9879 128.315C56.9081 126.344 56.8259 124.376 56.7461 122.405C56.6075 119.036 56.4666 115.262 53.7052 112.893C51.0048 110.577 47.2196 110.868 44.8691 113.544C42.5585 116.17 42.4036 119.752 42.5092 123.079C42.5609 124.733 42.6219 126.387 42.6783 128.041C42.744 129.955 42.4787 132.33 44.4512 133.388C45.8272 134.126 47.8184 133.814 49.3353 133.826C51.5426 133.84 52.9726 132.851 53.3812 130.601C54.0316 127.011 54.2382 123.323 53.9611 119.684C53.8062 117.647 53.5831 115.274 51.2537 114.625C49.0512 114.015 47.2642 115.742 46.6537 117.703C46.0408 119.672 45.8436 121.877 45.7849 123.929C45.7544 124.953 45.7826 125.98 45.8624 127C45.9117 127.646 46.2968 128.963 46.1371 129.498C46.3485 129.134 46.5598 128.767 46.7711 128.403C46.4001 128.869 45.5266 129.259 45.0218 129.685C44.376 130.232 43.8618 130.904 43.3827 131.602C42.6313 132.709 43.1832 134.363 44.2727 135.004C45.4961 135.726 46.8885 135.219 47.647 134.112C48.3843 133.035 49.7251 132.747 50.4554 131.665C51.4369 130.213 50.9226 128.62 50.7982 127C50.6855 125.542 50.6761 124.073 50.7911 122.613C50.8475 121.884 50.9438 121.17 51.0847 120.453C51.1528 120.103 51.2819 119.734 51.3195 119.383C51.4228 118.427 51.8126 119.584 50.6033 119.504C50.1877 119.39 49.7744 119.277 49.3588 119.166C49.023 118.943 48.8727 118.669 48.9103 118.345C48.9432 118.64 48.9713 118.939 48.9972 119.237C49.0488 119.831 49.0887 120.427 49.1122 121.023C49.1568 122.066 49.1639 123.112 49.131 124.156C49.07 126.089 49.0958 128.493 48.3702 130.3C48.5815 129.936 48.7929 129.569 49.0042 129.205C49.3658 128.784 50.2746 128.866 49.1146 128.855C48.7412 128.85 48.3679 128.845 47.9945 128.84C47.6963 128.838 47.3981 128.833 47.0975 128.831C46.8744 128.829 46.649 128.826 46.4259 128.824C46.0221 128.798 46.123 128.85 46.7265 128.98C47.0224 129.278 47.3159 129.574 47.6118 129.872C47.6939 130.449 47.7151 130.44 47.6728 129.846C47.6658 129.621 47.6564 129.394 47.6493 129.169C47.6305 128.644 47.6141 128.116 47.5953 127.591C47.5648 126.69 47.5343 125.788 47.5037 124.884C47.445 123.171 47.283 121.402 47.4803 119.693C47.6658 118.087 49.1357 114.727 50.8475 117.048C51.7539 118.276 51.714 120.043 51.775 121.496C51.8596 123.465 51.937 125.436 52.0169 127.407C52.0545 128.315 52.092 129.226 52.1296 130.135C52.1484 130.591 52.0709 131.204 52.1883 131.644C52.1672 132.363 52.5687 131.985 53.3929 130.511C53.0829 130.511 52.773 130.511 52.4607 130.511C50.4436 130.508 48.4242 130.506 46.4072 130.506C43.2348 130.499 43.2301 135.468 46.4095 135.47Z" fill="white"/>
<path d="M43.7478 119.977C47.4156 120.031 51.0834 120.088 54.7512 120.142C55.6928 120.156 56.3245 119.369 56.3949 118.486C56.6814 114.939 54.2675 111.21 50.696 110.531C47.2724 109.878 43.4543 112.282 42.9471 115.85C44.0037 115.85 45.0604 115.85 46.1171 115.85C45.7155 113.567 49.01 113.413 49.651 115.368C50.0338 114.689 50.4165 114.009 50.7993 113.33C49.6088 113.652 48.4488 113.749 47.2207 113.664C45.1027 113.515 45.1285 116.804 47.2207 116.976C48.477 117.081 49.5853 116.605 50.4987 115.756C51.3065 115.003 51.0224 113.707 50.1653 113.155C48.646 112.173 46.6665 112.72 45.7813 114.274C45.3516 115.027 45.5817 116.115 46.3707 116.541C47.3546 117.069 48.3502 117.338 49.4679 117.334C51.5836 117.324 51.5859 114.017 49.4679 114.021C47.3146 114.026 45.3164 114.523 43.3791 115.462C41.8153 116.217 42.7076 118.469 44.2104 118.545C46.5186 118.663 48.8268 118.801 51.1374 118.898C53.2061 118.985 55.1574 117.559 54.0726 115.327C53.1427 113.413 50.3062 115.091 51.2337 117C51.3981 116.536 51.5624 116.073 51.7291 115.607C51.607 115.604 51.4849 115.599 51.3605 115.597C51.0717 115.498 50.5621 115.557 50.2428 115.54C49.5735 115.507 48.902 115.472 48.2328 115.439C46.892 115.37 45.5512 115.301 44.2104 115.233C44.4875 116.262 44.7645 117.291 45.0393 118.318C46.4411 117.639 47.9181 117.334 49.4679 117.329C49.4679 116.224 49.4679 115.122 49.4679 114.017C48.9278 114.019 48.5098 113.934 48.0308 113.678C48.2281 114.433 48.423 115.188 48.6202 115.945C48.6343 115.919 48.4535 115.978 48.5075 116.014C48.3971 115.148 48.2868 114.279 48.1741 113.413C47.8711 113.695 47.6175 113.697 47.2207 113.664C47.2207 114.769 47.2207 115.872 47.2207 116.976C48.7259 117.083 50.2169 116.92 51.6728 116.525C52.4993 116.3 53.0981 115.337 52.821 114.487C51.9874 111.937 49.4327 110.139 46.7299 110.711C44.0061 111.291 42.4868 114.097 42.9494 116.73C43.2242 118.287 45.8917 118.337 46.1194 116.73C46.3895 114.833 48.1905 113.392 50.123 113.787C52.2199 114.215 53.2695 116.52 53.1099 118.488C53.657 117.937 54.2064 117.383 54.7536 116.832C51.0834 116.775 47.4156 116.719 43.7478 116.664C41.6321 116.631 41.6298 119.944 43.7478 119.977Z" fill="#2421FF"/>
<path d="M45.8542 123.306C46.7371 123.389 47.6177 123.47 48.5006 123.552C49.4022 123.638 49.3975 122.216 48.5006 122.133C47.6177 122.05 46.7371 121.97 45.8542 121.887C44.9525 121.802 44.9572 123.221 45.8542 123.306Z" fill="#24211D"/>
<path d="M45.7136 123.668C45.4647 124.402 45.3802 125.135 45.46 125.904C45.5117 126.408 46.0283 126.832 46.519 126.517C46.9746 126.226 47.4348 126.089 47.9749 126.176C47.8105 126.011 47.6461 125.845 47.4818 125.679C47.6203 126.278 47.7565 127.04 47.3878 127.586C47.1178 127.989 46.5589 128.199 46.1973 127.797C45.5868 127.118 44.5935 128.126 45.2017 128.8C45.9555 129.638 47.2446 129.595 48.0899 128.904C49.1583 128.031 49.1278 126.529 48.8413 125.298C48.7897 125.081 48.5783 124.839 48.3482 124.801C47.4278 124.652 46.6012 124.78 45.8052 125.287C46.1574 125.49 46.512 125.696 46.8642 125.899C46.7961 125.244 46.8548 124.664 47.0661 124.04C47.3644 123.181 46.0048 122.807 45.7136 123.668Z" fill="#24211D"/>
<path d="M53.0773 123.479C52.0065 122.509 50.4826 123.254 50.1609 124.567C49.8767 125.731 50.2008 127.485 51.4876 127.885C52.5842 128.225 53.8827 127.466 54.2255 126.382C54.6811 124.944 53.7348 123.595 52.6452 122.774C51.9196 122.227 51.2152 123.458 51.9337 123.999C52.617 124.513 53.6056 126.143 52.2437 126.512C51.713 126.657 51.5745 126.176 51.5134 125.731C51.4852 125.533 51.5627 124.016 52.077 124.482C52.7532 125.09 53.7535 124.089 53.0773 123.479Z" fill="#24211D"/>
<g clip-path="url(#clip0)">
<path d="M135.389 97.9238C135.162 100.259 133.755 102.352 131.765 103.565C130.332 104.437 130.819 106.259 132.193 106.828C139.32 109.786 144.412 116.098 149.163 121.893C149.163 121.051 149.163 120.21 149.163 119.368C148.054 120.368 146.974 121.429 145.819 122.377C145.34 122.772 145.221 122.766 144.609 122.52C143.966 122.264 143.345 121.931 142.726 121.621C140.391 120.449 138.098 119.121 136.041 117.502C132.047 114.364 128.936 110.172 128.008 105.118C127.591 105.85 127.172 106.582 126.755 107.315C127.975 107.009 129.196 106.705 130.415 106.399C129.741 105.524 129.066 104.652 128.391 103.777C127.818 104.888 127.244 106 126.67 107.111C125.895 108.614 127.165 109.942 128.694 109.734C130.171 109.533 131.46 108.839 132.553 107.846C131.554 107.268 130.556 106.687 129.557 106.109C129.353 106.665 129.05 107.154 128.707 107.636C127.634 109.143 129.696 110.935 131.162 110.08C131.646 109.797 132.13 109.516 132.616 109.232C131.798 108.417 130.98 107.603 130.162 106.788C129.7 107.556 129.239 108.326 128.777 109.094C127.802 110.714 129.689 112.288 131.231 111.538C132.114 111.107 132.999 110.676 133.882 110.245C133.064 109.431 132.246 108.616 131.428 107.801C130.994 108.743 130.559 109.683 130.124 110.625C129.447 112.091 130.946 114.17 132.578 113.069C134.033 112.087 135.489 111.105 136.944 110.123C136.065 109.451 135.189 108.779 134.311 108.107C133.963 108.982 133.475 109.839 132.89 110.578C131.502 112.335 133.766 114.792 135.424 113.103C135.888 112.632 136.35 112.158 136.814 111.687C135.875 110.966 134.936 110.245 133.999 109.524C133.515 110.339 133.031 111.154 132.547 111.969C131.605 113.556 133.452 115.228 135.001 114.413C135.969 113.902 136.937 113.393 137.905 112.882C137.087 112.067 136.269 111.252 135.451 110.437C134.913 111.395 134.268 112.185 133.448 112.915C134.293 113.757 135.138 114.598 135.983 115.44C136.733 114.589 137.594 113.65 138.652 113.19C138.349 113.27 138.049 113.353 137.746 113.433C137.554 113.455 137.769 113.498 137.917 113.663C138.136 113.908 138.365 114.145 138.58 114.397C138.954 114.835 139.284 115.297 139.604 115.775C140.543 115.054 141.482 114.333 142.419 113.612C141.406 112.455 140.075 111.667 138.587 111.288C136.489 110.754 135.664 113.379 137.206 114.551C138.434 115.487 139.665 116.422 140.893 117.357C141.393 117.737 143.556 118.964 143.486 119.569C144.385 119.056 145.286 118.54 146.185 118.027C141.864 115.989 137.542 113.951 133.224 111.913C131.132 110.926 129.519 113.67 131.413 114.998C134.781 117.357 138.132 119.746 141.521 122.078C142.993 123.094 144.739 123.964 146.577 123.478C148.282 123.027 149.47 121.654 149.54 119.893C149.632 117.594 146.046 117.598 145.954 119.893C145.96 119.737 146.05 119.806 145.918 119.902C145.795 119.993 145.633 120.056 145.479 120.069C145.037 120.112 144.497 119.743 144.138 119.529C142.879 118.777 141.704 117.857 140.503 117.016C138.076 115.315 135.646 113.614 133.219 111.913C132.616 112.942 132.013 113.969 131.408 114.998C135.729 117.036 140.05 119.074 144.369 121.112C145.683 121.732 146.904 120.962 147.068 119.569C147.301 117.578 145.483 116.391 144.105 115.342C142.408 114.049 140.709 112.759 139.013 111.466C138.553 112.554 138.092 113.643 137.632 114.73C138.569 114.969 139.25 115.415 139.882 116.136C141.211 117.654 143.831 115.661 142.697 113.973C141.725 112.525 140.223 110.062 138.302 109.859C136.393 109.656 134.595 111.614 133.443 112.915C131.919 114.641 134.25 116.98 135.978 115.44C137.007 114.522 137.867 113.44 138.542 112.239C139.436 110.647 137.663 108.964 136.088 109.795C135.12 110.306 134.151 110.815 133.183 111.326C134.001 112.141 134.819 112.955 135.637 113.77C136.121 112.955 136.606 112.141 137.09 111.326C138.121 109.589 135.709 107.701 134.275 109.163C133.811 109.634 133.349 110.107 132.885 110.578C133.73 111.42 134.575 112.261 135.42 113.103C136.417 111.841 137.168 110.549 137.762 109.056C138.334 107.616 136.366 106.203 135.129 107.04C133.674 108.022 132.217 109.004 130.763 109.987C131.581 110.801 132.399 111.616 133.217 112.431C133.652 111.489 134.086 110.549 134.521 109.607C135.277 107.975 133.741 106.348 132.067 107.163C131.184 107.594 130.299 108.024 129.416 108.455C130.234 109.27 131.052 110.085 131.87 110.899C132.332 110.132 132.793 109.362 133.255 108.594C134.181 107.056 132.34 105.252 130.801 106.149C130.317 106.433 129.833 106.714 129.346 106.998C130.164 107.812 130.982 108.627 131.8 109.442C132.329 108.699 132.697 107.915 133.011 107.062C133.665 105.281 131.236 104.214 130.014 105.326C129.353 105.926 128.613 106.176 127.737 106.297C128.412 107.172 129.086 108.045 129.761 108.92C130.335 107.808 130.908 106.696 131.482 105.585C132.193 104.205 131.02 102.571 129.458 102.962C128.239 103.268 127.018 103.571 125.798 103.877C124.799 104.127 124.375 105.14 124.545 106.074C125.684 112.272 129.801 117.348 134.783 121.014C137.316 122.877 140.12 124.447 143.004 125.703C144.549 126.375 146.129 126.549 147.574 125.531C149.053 124.487 150.351 123.105 151.696 121.895C152.465 121.203 152.283 120.087 151.696 119.371C146.465 112.989 140.956 106.627 133.143 103.386C133.286 104.473 133.427 105.562 133.571 106.649C136.715 104.732 138.618 101.556 138.97 97.9238C139.064 96.9617 138.08 96.1381 137.177 96.1381C136.133 96.1381 135.48 96.9595 135.389 97.9238Z" fill="#7560EC"/>
<path d="M114.339 76.0885C113.357 77.5774 112.201 78.8877 110.874 80.0819C111.813 80.8029 112.752 81.5239 113.689 82.2449C114.81 80.6868 115.93 79.1265 117.051 77.5684C116.233 77.7827 115.415 77.9948 114.597 78.2091C117.333 79.5149 120.184 80.4814 123.169 81.0328C122.73 80.4591 122.291 79.8854 121.854 79.3118C121.993 80.9547 122.129 82.5998 122.268 84.2427C122.333 85.0284 122.401 85.8141 122.466 86.6021C122.51 87.149 122.739 88.4035 122.645 88.6624C122.921 88.3075 123.194 87.9503 123.47 87.5954C123.405 87.6333 123.34 87.6691 123.275 87.707C123.577 87.6266 123.878 87.5441 124.18 87.4637C124.142 87.4615 123.394 86.9949 123.178 86.8833C122.712 86.6378 122.248 86.3833 121.791 86.1199C120.818 85.5619 119.866 84.9681 118.936 84.3386C117.145 83.1266 115.473 81.7716 113.886 80.3051C113.463 81.3207 113.041 82.3364 112.618 83.3542C113.765 83.3565 114.778 83.631 115.769 84.2069C116.818 84.8186 118.032 84.2203 118.402 83.14C118.727 82.198 118.859 81.2247 118.803 80.2314C118.689 78.1934 115.955 77.8408 115.282 79.756C115.087 80.3073 115.014 80.8832 115.076 81.4658C116.251 81.3073 117.425 81.1489 118.597 80.9904C118.535 80.7247 118.472 80.4613 118.409 80.1957C118.207 79.3408 117.286 78.7894 116.441 78.9167C115.489 79.0595 115 79.7604 114.886 80.6712C114.718 82.006 115.742 83.227 117.037 83.448C118.407 83.6824 119.59 82.7292 119.96 81.4658C118.808 81.4658 117.654 81.4658 116.502 81.4658C116.594 81.9324 116.688 82.3989 116.78 82.8632C117.033 84.1333 118.927 84.6445 119.776 83.6511C120.28 83.0618 120.632 82.4815 120.839 81.7248C119.687 81.7248 118.532 81.7248 117.38 81.7248C117.564 82.8676 117.97 83.9391 118.537 84.948C119.108 85.9637 120.54 86.0976 121.352 85.3096C122.058 84.6244 122.549 83.7828 122.701 82.8051C121.527 82.6466 120.352 82.4882 119.18 82.3297C119.209 82.7069 119.238 83.0864 119.267 83.4636C119.442 85.7449 122.723 85.7762 122.853 83.4636C122.894 82.7605 122.932 82.0596 122.972 81.3564C121.798 81.5149 120.623 81.6734 119.451 81.8319C119.541 82.3877 119.63 82.9435 119.72 83.4993C119.765 83.7784 119.81 84.0552 119.855 84.3342C119.852 84.8275 119.915 84.8855 120.043 84.5083C120.258 84.294 120.471 84.0819 120.686 83.8677C120.621 83.8967 120.556 83.9279 120.489 83.9569C121.213 84.0507 121.937 84.1422 122.661 84.236C122.533 84.111 122.405 83.986 122.28 83.861C120.637 82.2449 118.097 84.7695 119.745 86.3856C119.873 86.5106 120 86.6356 120.126 86.7606C120.74 87.3633 121.56 87.3766 122.298 87.0396C124.449 86.0574 123.185 82.6109 122.907 80.8832C122.571 78.8028 119.494 79.4546 119.386 81.3587C119.346 82.0618 119.308 82.7627 119.267 83.4659C120.462 83.4659 121.659 83.4659 122.853 83.4659C122.824 83.0886 122.795 82.7092 122.766 82.3319C122.699 81.448 122.136 80.6868 121.211 80.5774C120.413 80.4837 119.382 80.968 119.243 81.8565C119.176 82.2917 119.137 82.4725 118.817 82.785C119.756 82.9056 120.695 83.0261 121.632 83.1467C121.204 82.3855 120.975 81.6377 120.836 80.7761C120.547 78.9725 117.808 79.1823 117.378 80.7761C117.378 80.91 117.331 81.0283 117.239 81.1265C118.239 81.3899 119.236 81.6511 120.236 81.9145C120.144 81.448 120.05 80.9814 119.958 80.5171C119.601 78.7225 116.968 78.9144 116.499 80.5171C116.484 80.5305 116.468 80.5417 116.452 80.5551C116.668 80.3408 116.88 80.1287 117.096 79.9145C117.232 79.9011 117.369 79.8854 117.508 79.872C117.772 80.0261 118.035 80.1779 118.299 80.3319C118.355 80.4457 118.413 80.5596 118.47 80.6734C117.295 80.8319 116.121 80.9904 114.949 81.1489C115.011 81.4145 115.074 81.6779 115.137 81.9435C115.59 83.8587 118.88 83.4993 118.658 81.4681C118.617 81.0975 118.613 81.0618 118.736 80.7091C117.562 80.5506 116.387 80.3921 115.215 80.2337C115.256 80.948 115.173 81.5216 114.942 82.1935C115.82 81.8386 116.697 81.4814 117.575 81.1265C116.049 80.2381 114.382 79.7895 112.613 79.7872C111.103 79.785 110.19 81.7694 111.345 82.8364C114.715 85.9414 118.586 88.7829 122.782 90.6803C123.806 91.1423 125.025 91.1981 125.783 90.2205C126.484 89.3142 126.175 88.082 126.087 87.0329C125.872 84.4592 125.655 81.8877 125.44 79.314C125.379 78.5818 124.931 77.7425 124.124 77.593C121.453 77.0974 118.862 76.2983 116.41 75.1287C115.473 74.6822 114.561 74.93 113.956 75.7693C112.835 77.3274 111.714 78.8877 110.594 80.4457C109.359 82.1645 111.97 83.9056 113.409 82.6087C114.958 81.2158 116.291 79.6287 117.434 77.8921C118.705 75.9635 115.601 74.1733 114.339 76.0885Z" fill="#68DAEC"/>
<path d="M110.854 74.834C110.085 75.9256 109.206 76.9256 108.249 77.8586C106.701 79.3698 109.079 81.7359 110.627 80.227C111.788 79.0953 112.824 77.8497 113.756 76.526C114.278 75.7849 113.891 74.6644 113.153 74.2358C112.313 73.7447 111.376 74.0929 110.854 74.834Z" fill="#E295E0"/>
<path d="M109.07 70.064C109.845 71.7984 110.789 73.4301 111.903 74.9703C112.398 75.6534 113.268 75.9859 114.05 75.5306C114.729 75.1355 115.11 74.0819 114.613 73.3922C113.499 71.8519 112.557 70.218 111.78 68.4858C111.435 67.7157 110.307 67.5327 109.633 67.9255C108.835 68.3898 108.723 69.2894 109.07 70.064Z" fill="#E5BAE0"/>
<path d="M105.581 73.3988C106.813 73.9791 108.001 74.6733 109.066 75.526C109.772 76.093 110.754 76.2135 111.444 75.526C112.033 74.939 112.154 73.7291 111.444 73.1577C110.148 72.1175 108.786 71.2179 107.28 70.5081C106.459 70.1219 105.466 70.2804 104.98 71.1085C104.55 71.8362 104.758 73.0081 105.581 73.3988Z" fill="#E5BAE0"/>
<path d="M104.91 75.8965C105.771 76.7247 106.759 77.3073 107.877 77.718C108.704 78.0216 109.755 77.3787 109.946 76.5483C110.163 75.6019 109.657 74.8139 108.772 74.488C108.59 74.4188 108.588 74.421 108.763 74.4947C108.673 74.4545 108.583 74.4143 108.496 74.3697C108.321 74.2826 108.149 74.1867 107.983 74.0817C107.924 74.046 107.445 73.6889 107.725 73.9166C107.573 73.7916 107.429 73.6621 107.286 73.5259C106.654 72.9165 105.531 72.8518 104.908 73.5259C104.303 74.1889 104.233 75.2469 104.91 75.8965Z" fill="#E5BAE0"/>
<path d="M103.709 78.3944C104.754 79.9681 106.6 81.0083 108.53 80.7605C109.431 80.6444 110.211 80.073 110.211 79.0864C110.211 78.2716 109.438 77.2962 108.53 77.4122C108.075 77.4703 107.692 77.4547 107.465 77.3676C107.049 77.2069 106.8 76.9881 106.612 76.7046C106.112 75.9502 105.126 75.6287 104.312 76.1042C103.559 76.5417 103.205 77.6355 103.709 78.3944Z" fill="#E5BAE0"/>
<path d="M125.854 90.9794C127.876 91.4393 129.898 91.9013 131.919 92.3611C132.93 92.5911 133.941 92.821 134.952 93.0531C135.738 93.2317 137.056 93.2719 137.693 93.7496C137.417 93.3946 137.144 93.0375 136.868 92.6826C137.186 93.5308 136.453 95.1424 136.068 95.8992C135.492 97.0242 134.716 98.022 133.726 98.8166C131.661 100.473 128.808 101.064 126.229 100.585C125.021 100.361 124.057 101.082 123.958 102.306C123.929 102.674 123.9 103.042 123.871 103.41C123.689 105.703 127.275 105.69 127.457 103.41C127.486 103.042 127.515 102.674 127.544 102.306C126.787 102.879 126.031 103.453 125.274 104.027C131.189 105.123 137.249 102.384 139.607 96.7206C140.118 95.4929 140.501 94.1022 140.494 92.7607C140.483 90.7227 138.878 90.2852 137.202 89.9035C133.737 89.1133 130.272 88.3231 126.805 87.5352C124.561 87.0218 123.602 90.466 125.854 90.9794Z" fill="#9568EC"/>
<path d="M124.837 88.3433C122.506 90.3924 120.173 92.4416 117.842 94.4907C116.842 95.368 115.843 96.2475 114.843 97.1247C113.767 98.0712 112.586 98.973 111.678 100.089C109.825 102.366 110.071 104.864 111.461 107.319C112.781 109.652 114.345 111.871 115.982 113.991C119.124 118.067 122.696 121.819 126.719 125.047C128.754 126.681 131.233 128.154 133.862 126.913C134.743 126.496 135.465 125.813 135.877 124.931C136.525 123.549 136.092 122.232 135.496 120.929C132.692 114.801 129.749 108.732 126.876 102.636C126.482 101.797 125.175 101.495 124.422 101.995C123.169 102.828 121.878 103.6 120.545 104.294C119.937 104.609 119.323 104.911 118.702 105.194C118.111 105.464 117.219 106.031 116.56 106.022C116.862 106.103 117.163 106.185 117.465 106.266C116.457 105.73 116.88 103.69 117.212 102.899C117.828 101.433 119.104 100.283 120.247 99.2274C122.575 97.0756 125.003 94.8055 128.272 94.3523C127.692 93.3568 127.109 92.3635 126.529 91.3679C122.775 94.4796 119.503 98.0845 116.708 102.073C115.598 103.658 117.696 105.236 119.162 104.518C123.795 102.243 128.113 99.4529 132.139 96.2341C133.539 95.1135 132.029 92.6938 130.395 93.2496C125.877 94.7854 121.629 96.9707 117.801 99.8145C118.525 100.75 119.249 101.685 119.973 102.618C121.41 101.239 123.026 100.12 124.825 99.2564C125.675 98.848 126.56 98.5265 127.466 98.2654C128.127 98.0756 129.404 97.5488 130.061 97.7854C129.797 97.6314 129.534 97.4796 129.27 97.3256C129.335 97.3903 129.398 97.4551 129.463 97.522C129.308 97.2586 129.156 96.9975 129.001 96.7341C128.869 96.2943 128.905 96.9283 128.84 97.1493C128.766 97.4015 128.692 97.6939 128.541 97.9127C128.241 98.3569 127.842 98.3569 127.322 98.3747C125.924 98.4261 124.613 98.5466 123.301 99.0734C120.614 100.152 118.501 102.169 116.515 104.212C115.314 105.446 116.504 107.759 118.259 107.196C119.39 106.835 120.52 106.473 121.652 106.111C121.071 105.116 120.489 104.123 119.908 103.127C118.826 103.975 117.943 104.946 117.109 106.033C116.04 107.426 117.801 108.868 119.133 108.656C121.24 108.321 123.344 107.987 125.451 107.649C124.87 106.654 124.288 105.661 123.707 104.665C122.907 105.674 122.109 106.685 121.309 107.694C120.17 109.132 121.224 110.964 123.053 110.679C124.418 110.466 125.704 109.969 126.876 109.245C126.273 108.216 125.67 107.19 125.065 106.161C123.05 107.547 120.637 108.194 118.2 107.752C116.838 107.507 115.168 108.989 116.177 110.375C120.036 115.685 126.181 118.828 129.87 124.244C130.971 125.86 133.723 124.904 133.147 122.868C132.45 120.397 131.48 117.996 130.24 115.743C129.626 114.629 128.945 113.551 128.199 112.522C127.466 111.511 126.69 110.283 125.61 109.607C124.532 108.935 123.198 108.886 122.176 109.696C121.136 110.522 120.818 111.944 121.587 113.063C122.293 114.092 123.725 114.375 124.83 113.839C126.114 113.214 126.542 111.922 126.598 110.58C125.404 110.58 124.207 110.58 123.012 110.58C122.999 112.074 123.169 113.551 123.496 115.009C123.808 116.404 126.161 116.866 126.773 115.435C127.448 113.855 127.82 112.266 127.732 110.538C126.558 110.696 125.384 110.855 124.211 111.013C124.279 111.337 124.344 111.661 124.411 111.982C124.875 114.232 128.331 113.279 127.869 111.033C127.802 110.71 127.737 110.386 127.67 110.065C127.266 108.1 124.048 108.529 124.149 110.54C124.202 111.596 124.099 112.652 123.678 113.636C124.769 113.779 125.863 113.92 126.955 114.063C126.697 112.908 126.589 111.766 126.598 110.583C126.618 108.277 123.109 108.292 123.012 110.583C122.994 111.004 123.057 110.819 122.802 111.152C123.017 110.937 123.23 110.725 123.445 110.511C123.716 110.58 123.989 110.652 124.261 110.721C124.415 110.984 124.568 111.246 124.722 111.509C124.7 111.429 124.678 111.35 124.657 111.27C124.657 111.587 124.657 111.904 124.657 112.219C124.59 112.667 123.608 112.167 123.795 112.71C123.848 112.868 124.214 113.176 124.335 113.326C124.682 113.75 125.007 114.19 125.323 114.638C125.982 115.574 126.592 116.547 127.143 117.549C128.241 119.54 129.073 121.634 129.689 123.822C130.78 123.364 131.874 122.904 132.966 122.447C129.25 116.987 123.124 113.879 119.272 108.578C118.597 109.453 117.922 110.326 117.248 111.201C120.612 111.808 124.041 111.199 126.876 109.248C128.75 107.957 127.053 104.937 125.065 106.163C124.133 106.739 123.18 107.067 122.098 107.237C122.678 108.232 123.261 109.225 123.842 110.221C124.642 109.212 125.44 108.201 126.24 107.192C127.376 105.757 126.327 103.915 124.496 104.207C122.389 104.542 120.285 104.877 118.178 105.214C118.853 106.089 119.527 106.962 120.202 107.837C120.838 107.009 121.621 106.295 122.441 105.652C123.871 104.529 122.32 102.147 120.697 102.667C119.565 103.029 118.436 103.39 117.304 103.752C117.884 104.748 118.467 105.741 119.048 106.736C120.948 104.781 123.196 102.341 126.072 101.989C127.609 101.801 129.07 102.038 130.411 101.076C131.61 100.216 132.201 98.7475 132.488 97.3479C132.836 95.6515 131.789 94.1336 129.967 94.1604C128.476 94.1827 126.861 94.6671 125.466 95.1559C122.452 96.2095 119.736 97.8859 117.436 100.094C116.011 101.462 117.943 104.136 119.608 102.897C123.185 100.239 127.118 98.1292 131.345 96.6917C130.765 95.6961 130.182 94.7028 129.602 93.7072C125.823 96.7296 121.694 99.2989 117.351 101.431C118.169 102.245 118.987 103.06 119.805 103.875C122.423 100.14 125.552 96.8055 129.066 93.8925C129.669 93.3925 129.72 92.3657 129.346 91.7295C128.909 90.9862 128.12 90.7987 127.322 90.9081C124.267 91.3322 121.717 93.167 119.449 95.1358C117.154 97.1292 114.601 99.2944 113.642 102.277C113.207 103.627 113.133 105.199 113.574 106.558C114.038 107.989 115.09 109.589 116.762 109.594C118.36 109.598 120.224 108.44 121.629 107.745C123.225 106.957 124.758 106.058 126.24 105.076C125.422 104.861 124.604 104.649 123.786 104.435C125.908 108.942 128.033 113.449 130.155 117.955C130.686 119.083 131.217 120.21 131.749 121.335C131.982 121.833 132.246 122.326 132.455 122.835C132.526 123.009 132.623 123.183 132.629 123.375C132.636 123.607 132.753 123.288 132.634 123.46C131.659 124.866 129.095 122.393 128.369 121.786C125.034 118.984 121.975 115.846 119.276 112.431C117.902 110.692 116.634 108.868 115.459 106.991C114.939 106.163 114.33 105.308 114.014 104.377C113.666 103.359 114.094 102.683 114.812 101.957C116.699 100.044 118.864 98.3502 120.883 96.5756C123.048 94.6715 125.213 92.7697 127.378 90.8657C129.106 89.3455 126.56 86.8276 124.837 88.3433Z" fill="#9568EC"/>
<path d="M130.736 68.9165C126.155 70.8429 123.966 75.7314 123.322 80.3587C123.038 82.3967 122.038 86.3856 124.88 86.9571C126.223 87.2272 127.596 87.2763 128.939 87.5798C130.277 87.8812 131.586 88.283 132.872 88.7584C133.807 89.1044 134.802 88.3656 135.078 87.5106C136.263 83.8365 136.855 79.9926 136.848 76.1332C136.846 74.4144 134.354 73.6332 133.507 75.2314C132.316 77.4792 131.126 79.7248 129.936 81.9726C131.05 82.2739 132.164 82.573 133.278 82.8744C133.549 80.0529 133.818 77.2314 134.089 74.41C134.266 72.5706 131.601 72.084 130.748 73.5081C129.448 75.6734 128.497 78.0283 127.948 80.4904C129.1 80.8074 130.254 81.1244 131.406 81.4391C131.844 79.2828 132.281 77.1288 132.718 74.9725C133.036 73.401 130.952 71.7313 129.721 73.2358C127.655 75.7627 126.097 78.5574 125.091 81.6645C124.793 82.582 125.438 83.6132 126.344 83.861C127.359 84.14 128.195 83.515 128.549 82.6132C129.694 79.6958 131.169 76.9256 132.892 74.3095C131.859 73.709 130.828 73.1086 129.795 72.5059C128.67 74.4925 127.762 76.6153 127.155 78.8185C126.879 79.8208 126.525 80.9503 126.608 81.9904C126.651 82.544 126.877 83.0753 127.265 83.4815C127.59 83.8231 128.047 83.9972 128.332 84.361C128.177 84.0976 128.024 83.8365 127.87 83.5731C127.899 83.6557 127.926 83.7382 127.955 83.8186C127.955 83.5016 127.955 83.1847 127.955 82.8699C127.939 82.9525 127.924 83.0351 127.908 83.1177C128.063 82.8543 128.215 82.5931 128.37 82.3297C127.834 82.9815 126.272 83.6021 125.373 83.9726C123.694 84.6624 123.668 86.7316 125.373 87.4169C127.621 88.3187 130.021 89.3522 132.406 89.8254C135.277 90.3946 135.954 86.87 136.409 84.8008C136.956 82.3186 136.676 79.9837 136.221 77.5149C135.746 74.9412 135.243 72.3764 134.441 69.8809C133.74 67.7 130.275 68.6331 130.983 70.8295C131.868 73.5796 132.404 76.4234 132.908 79.2627C133.134 80.5328 133.287 81.8253 133.094 83.111C132.998 83.7516 132.832 84.3833 132.655 85.0061C132.565 85.3253 132.467 85.6445 132.368 85.9615C132.328 86.0887 132.287 86.216 132.247 86.341C132.065 86.7651 132.065 86.8365 132.249 86.5553C132.552 86.4749 132.852 86.3923 133.155 86.312C132.684 86.312 132.13 86.0262 131.678 85.8834C131.075 85.6936 130.474 85.4972 129.876 85.2918C128.681 84.8811 127.498 84.4369 126.326 83.9659C126.326 85.1133 126.326 86.2628 126.326 87.4102C127.812 86.7986 129.699 86.1066 130.837 84.9302C131.44 84.3075 131.604 83.4213 131.328 82.6155C131.2 82.2405 130.974 81.8855 130.694 81.6043C130.539 81.448 129.853 80.9145 129.95 81.0797C130.03 81.3811 130.113 81.6802 130.194 81.9815C130.051 80.8096 130.741 79.2136 131.135 78.0953C131.599 76.7738 132.202 75.5193 132.895 74.3006C134.038 72.2849 131.059 70.584 129.797 72.497C127.899 75.381 126.35 78.4435 125.091 81.6556C126.243 81.9726 127.397 82.2896 128.549 82.6043C129.356 80.1176 130.597 77.7806 132.258 75.7515C131.259 75.1734 130.261 74.593 129.262 74.0149C128.825 76.1711 128.388 78.3252 127.951 80.4815C127.498 82.7181 130.904 83.6869 131.409 81.4302C131.897 79.2471 132.695 77.2203 133.847 75.3006C132.733 74.9992 131.619 74.7001 130.506 74.3988C130.234 77.2203 129.965 80.0418 129.694 82.8632C129.524 84.6445 132.238 85.2718 133.036 83.765C134.226 81.5172 135.416 79.2716 136.606 77.0238C135.492 76.7225 134.378 76.4234 133.264 76.122C133.271 79.6868 132.718 83.1579 131.622 86.5508C132.357 86.1356 133.092 85.7182 133.827 85.303C132.476 84.803 131.102 84.3878 129.692 84.0798C129.022 83.9347 128.349 83.8119 127.67 83.7115C127.278 83.6534 125.998 83.6378 125.797 83.5307C126.012 83.7449 126.225 83.957 126.44 84.1713C126.4 84.0887 126.361 84.0061 126.321 83.9235C126.402 84.2249 126.485 84.524 126.565 84.8253C126.377 80.0685 127.699 74.026 132.545 71.988C133.437 71.613 133.632 70.3005 133.188 69.5438C132.648 68.6353 131.633 68.5393 130.736 68.9165Z" fill="#E0EFEC"/>
<path d="M125.256 57.8695C124.987 58.5347 124.532 59.1173 123.954 59.5458C123.342 59.999 123.076 60.8807 123.705 61.4744C124.66 62.374 126.195 62.2713 126.978 61.1753C127.838 59.9699 127.507 58.1329 126.319 57.3025C126.467 57.8628 126.615 58.423 126.76 58.9833C126.507 59.3293 127.39 59.182 127.556 59.1865C127.847 59.1931 128.139 59.2043 128.43 59.2177C129.23 59.2556 130.028 59.3204 130.824 59.4119C131.308 59.4677 132.056 59.4208 132.283 59.7869C132.578 60.2624 132.449 61.4387 132.44 61.9878C132.435 62.3227 132.527 63.4231 132.267 63.6754C131.991 63.9455 130.79 63.8138 130.434 63.8361C128.824 63.9365 127.217 64.037 125.608 64.1374C124.039 64.2357 124.006 66.6062 125.608 66.5928C126.944 66.5817 128.192 65.7803 128.571 64.4566C128.762 63.7937 128.679 63.124 128.443 62.4856C128.32 62.153 128.13 61.8405 128.022 61.5035C127.957 61.374 127.912 61.2356 127.89 61.0927C127.971 60.8182 127.912 60.7892 127.715 61.0101C127.208 60.7244 126.704 60.4387 126.198 60.153C126.415 60.8874 126.63 61.6218 126.848 62.3562C127.128 63.3026 128.62 63.6397 129.1 62.6486C129.297 62.2401 129.497 61.8294 129.694 61.4209C128.943 61.1061 128.192 60.7892 127.442 60.4744C127.175 61.3785 127.168 62.1887 127.361 63.1084C127.558 64.0593 128.782 64.2357 129.421 63.6508C130.407 62.749 130.875 61.6597 131.03 60.3539C130.223 60.4633 129.416 60.5704 128.609 60.6798C128.706 61.2535 128.733 61.816 128.726 62.3986C128.712 63.7468 130.88 64.1129 131.146 62.7245C131.332 61.7557 131.521 60.7869 131.707 59.8182C130.9 59.7088 130.093 59.6016 129.286 59.4923C129.387 60.4811 129.488 61.4677 129.589 62.4566C129.716 63.7156 131.133 64.066 131.886 63.0771C132.305 62.5258 132.576 61.9276 132.742 61.2557C133.121 59.7222 130.788 59.0771 130.364 60.6039C130.136 61.4298 130.03 62.2579 130.05 63.1129C130.073 64.1017 131.431 64.8294 132.155 63.9812C132.576 63.4856 132.856 63.0057 133.101 62.403C133.643 61.0615 131.57 60.3427 130.848 61.4566C130.548 61.9209 130.106 62.2356 129.546 62.2937C128 62.4521 127.937 64.8361 129.546 64.7491C130.806 64.6821 131.716 64.0816 132.664 63.3004C133.244 62.8227 133.822 62.3651 134.531 62.0816C135.095 61.8561 135.416 62.124 134.95 61.3695C134.519 60.6731 134.484 60.9811 133.917 61.2936C132.572 62.037 131.187 62.691 129.772 63.2981C128.694 63.7624 127.59 64.345 127.2 65.5348C126.868 66.5437 127.099 67.7424 128.024 68.363C129.149 69.1174 130.606 68.613 131.823 68.3853C132.96 68.1732 134.802 68.1933 135.602 67.258C136.485 66.229 135.833 64.9187 134.925 64.1732C133.71 63.1754 131.955 64.9031 133.181 65.9098C133.264 65.9768 133.347 66.046 133.428 66.1129C133.923 65.6263 133.975 65.4433 133.58 65.5683C133.392 65.5192 132.971 65.6821 132.776 65.7178C132.173 65.8294 131.568 65.9433 130.965 66.0549C130.66 66.1107 129.434 66.2647 129.456 66.3919C129.45 66.3585 129.918 65.9343 130.151 65.8049C132.159 64.6955 134.593 64.1374 136.389 62.653C137.866 61.4298 137.137 59.153 135.125 59.3918C134.055 59.519 132.953 60.0213 132.081 60.6351C131.341 61.1575 130.499 62.2423 129.539 62.2937C129.539 63.1129 129.539 63.9298 129.539 64.7491C131.014 64.5995 132.162 63.9455 132.971 62.6954C132.22 62.3807 131.469 62.0637 130.718 61.749C130.642 61.9298 130.539 62.095 130.407 62.2423C131.108 62.5325 131.81 62.8204 132.511 63.1106C132.496 62.4611 132.565 61.8785 132.738 61.2535C131.944 61.0369 131.153 60.8182 130.36 60.6017C130.241 61.086 130.055 61.441 129.752 61.8361C130.519 62.0436 131.283 62.249 132.05 62.4566C131.949 61.4677 131.848 60.4811 131.747 59.4923C131.617 58.2288 129.609 57.6931 129.326 59.1664C129.14 60.1351 128.952 61.1039 128.766 62.0727C129.573 62.182 130.38 62.2892 131.187 62.3986C131.196 61.5972 131.115 60.8182 130.983 60.028C130.732 58.5458 128.71 59.1039 128.562 60.3539C128.486 61.0057 128.145 61.4856 127.675 61.9164C128.36 62.0972 129.049 62.278 129.734 62.4588C129.631 61.9678 129.676 61.6039 129.815 61.1307C130.201 59.8249 128.179 58.9097 127.563 60.1842C127.365 60.5927 127.166 61.0034 126.969 61.4119C127.719 61.5102 128.47 61.6084 129.221 61.7044C129.004 60.97 128.789 60.2356 128.571 59.5012C128.401 58.9231 127.681 58.3851 127.054 58.644C125.989 59.0838 125.404 59.9208 125.418 61.095C125.427 61.8271 126.861 64.1285 125.599 64.1397C125.599 64.9589 125.599 65.7759 125.599 66.5951C126.915 66.5125 128.23 66.4299 129.546 66.3495C130.635 66.2826 131.855 66.3451 132.912 66.046C135.16 65.412 135.006 62.4343 134.844 60.5883C134.764 59.6574 134.708 58.5726 134.017 57.865C133.309 57.1373 132.193 57.1284 131.247 57.0101C129.947 56.8471 128.638 56.7534 127.327 56.7288C126.193 56.7087 125.326 56.7891 124.622 57.7467C124.205 58.3137 124.566 59.0771 125.064 59.4275C124.936 59.4298 124.922 59.4744 125.021 59.5615C125.086 59.7244 125.225 59.7847 125.438 59.7423C125.355 60.3851 125.272 61.028 125.189 61.6709C126.332 60.8249 127.092 59.8427 127.625 58.528C128.226 57.0569 125.844 56.4185 125.256 57.8695Z" fill="#E5BAE0"/>
<path d="M126.375 62.4209C125.996 62.9856 125.615 63.5503 125.236 64.1151C124.876 64.6508 125.115 65.499 125.678 65.7959C126.299 66.1218 126.98 65.9254 127.366 65.3562C127.744 64.7914 128.125 64.2267 128.504 63.662C128.865 63.1262 128.625 62.278 128.063 61.9811C127.442 61.653 126.76 61.8494 126.375 62.4209Z" fill="#E5BAE0"/>
<path d="M138.251 85.7762C139.837 85.7762 139.84 83.3208 138.251 83.3208C136.664 83.3208 136.661 85.7762 138.251 85.7762Z" fill="#E5BAE0"/>
<path d="M135.626 85.2561C136.669 85.62 137.98 85.8678 138.919 86.4481C138.731 86.2026 138.54 85.9593 138.352 85.7137C138.464 86.1088 138.009 87.1959 137.892 87.6223C137.691 88.3656 137.449 89.0977 137.166 89.8165C136.595 91.2741 135.824 92.6424 134.945 93.9371C134.055 95.2496 136.189 96.4795 137.074 95.176C138.612 92.9081 139.764 90.3768 140.414 87.716C140.645 86.774 141.185 85.3477 140.414 84.5195C140.013 84.0909 139.325 83.9503 138.796 83.765C137.957 83.4726 137.119 83.1802 136.283 82.8878C134.782 82.3655 134.136 84.736 135.626 85.2561Z" fill="#E5BAE0"/>
<path d="M134.222 84.9592C133.056 87.4995 131.985 90.0799 131.019 92.7027C130.68 93.6201 131.402 94.6469 132.272 94.8991C132.794 95.0509 133.285 95.2608 133.713 95.609C134.809 96.4974 136.203 96.1447 136.709 94.821C137.709 92.2071 138.444 89.5218 138.912 86.7628C139.226 84.9213 136.613 83.4324 135.636 85.3878C134.638 87.3812 133.816 89.4482 133.195 91.5866C132.552 93.7987 136.012 94.7429 136.653 92.5353C137.189 90.687 137.87 88.9124 138.733 87.1892C137.642 86.7316 136.548 86.2718 135.456 85.8142C134.988 88.5709 134.253 91.2585 133.253 93.8723C134.253 93.6089 135.25 93.3478 136.25 93.0844C135.329 92.3366 134.374 91.7897 133.226 91.4571C133.643 92.1893 134.062 92.9214 134.479 93.6536C135.34 91.321 136.283 89.024 137.321 86.7628C137.725 85.8856 137.572 84.8409 136.678 84.3186C135.905 83.8677 134.627 84.0775 134.222 84.9592Z" fill="#E5BAE0"/>
<path d="M134.624 95.2943C134.613 96.4372 134.111 97.5689 133.158 98.2452C132.372 98.8033 131.995 99.8033 132.515 100.689C132.97 101.464 134.176 101.893 134.969 101.33C136.975 99.906 138.185 97.772 138.212 95.2965C138.235 92.9951 134.649 92.9951 134.624 95.2943Z" fill="#E5BAE0"/>
<path d="M132.923 94.33C131.827 95.3456 130.886 96.5332 130.137 97.8256C129.055 99.6962 131.957 101.384 133.04 99.5154C133.658 98.4484 134.393 97.5376 135.299 96.6983C135.964 96.0823 135.924 94.955 135.299 94.33C134.638 93.6693 133.589 93.7117 132.923 94.33Z" fill="#E5BAE0"/>
<path d="M130.693 93.254C129.151 94.513 127.835 95.9818 126.695 97.609C126.175 98.3501 126.558 99.4684 127.298 99.8992C128.136 100.388 129.077 100.042 129.597 99.2988C130.572 97.9104 131.755 96.6938 133.069 95.6224C133.773 95.0487 133.665 93.85 133.069 93.254C132.376 92.5621 131.397 92.6781 130.693 93.254Z" fill="#E5BAE0"/>
<path d="M131.247 100.741C133.409 100.741 133.414 97.3925 131.247 97.3925C129.082 97.3925 129.079 100.741 131.247 100.741Z" fill="#E5BAE0"/>
<path d="M137.331 100.402C138.878 99.3368 139.295 97.6648 139.297 95.8724C139.299 93.917 138.351 92.1201 136.123 92.4728C135.29 92.6045 134.817 93.6469 135.027 94.3947C135.276 95.2809 136.114 95.6202 136.957 95.4862C137.033 95.4751 137.107 95.4617 137.184 95.4505C136.906 95.4505 136.628 95.4505 136.35 95.4505C136.137 95.0644 136.07 95.013 136.148 95.2987C136.15 95.397 136.155 95.4974 136.157 95.5956C136.173 95.9215 136.168 96.2586 136.137 96.5845C136.103 96.9238 136.067 97.4863 135.749 97.705C134.097 98.839 135.666 101.549 137.331 100.402Z" fill="#E5BAE0"/>
<path d="M131.075 90.0308C129.885 90.158 128.753 90.3321 127.803 91.1201C126.87 91.8946 126.521 93.0375 126.74 94.2027C126.897 95.0331 127.901 95.5041 128.67 95.2942C129.544 95.0554 129.923 94.2049 129.766 93.3723C129.782 93.4505 129.757 93.5241 129.768 93.5978C129.752 93.4906 129.878 93.4103 129.791 93.5442C129.703 93.6737 129.784 93.542 129.84 93.4884C130.021 93.3188 129.826 93.4616 129.981 93.3991C130.275 93.2786 130.718 93.1982 131.075 93.1603C131.917 93.071 132.644 92.5062 132.644 91.5977C132.644 90.8187 131.924 89.9392 131.075 90.0308Z" fill="#E5BAE0"/>
<path d="M130.677 93.6536C132.697 93.6536 132.699 90.5286 130.677 90.5286C128.658 90.5286 128.656 93.6536 130.677 93.6536Z" fill="#E5BAE0"/>
<path d="M129.92 94.408C131.939 94.408 131.941 91.283 129.92 91.283C127.903 91.283 127.898 94.408 129.92 94.408Z" fill="#E5BAE0"/>
<path d="M124.495 58.4699C124.311 59.3226 123.932 59.9788 123.186 60.4565C122.072 61.1708 122.218 62.9476 123.56 63.3115C124.528 63.5749 125.494 63.7401 126.492 63.8628C126.041 63.0793 125.588 62.2958 125.138 61.5123C122.594 64.9387 126.144 69.537 130.122 68.258C132.036 67.6419 131.218 64.624 129.289 65.2445C127.753 65.7379 126.958 64.2869 127.847 63.0883C128.641 62.019 127.525 60.865 126.494 60.7378C125.783 60.6485 125.089 60.4855 124.398 60.298C124.524 61.2489 124.647 62.2021 124.773 63.153C126.182 62.249 127.166 60.9431 127.523 59.298C127.944 57.3404 124.92 56.5011 124.495 58.4699Z" fill="#E5BAE0"/>
<path d="M128.268 61.1106C128.726 60.999 129.279 60.8785 129.669 60.9432C129.55 60.9231 129.795 60.9209 129.759 61.0637C129.766 61.0347 129.73 60.8338 129.723 60.7981C129.71 60.72 129.9 60.4744 129.692 60.7557C129.19 61.4365 129.577 62.499 130.254 62.8941C131.05 63.3584 131.897 63.0147 132.401 62.3338C133.231 61.2088 132.809 59.5637 131.83 58.6731C130.602 57.557 128.925 57.74 127.433 58.0994C125.471 58.5704 126.303 61.5861 128.268 61.1106Z" fill="#E5BAE0"/>
<path d="M129.456 94.4349C129.512 94.3121 129.577 94.1983 129.655 94.0889C129.568 94.2028 129.481 94.3144 129.393 94.4282C129.49 94.3054 129.595 94.1983 129.716 94.1023C129.602 94.1894 129.49 94.2764 129.375 94.3635C129.485 94.2831 129.597 94.2162 129.72 94.1581C129.586 94.2139 129.454 94.2697 129.319 94.3278C129.355 94.3121 129.391 94.2987 129.427 94.2854C129.846 94.1269 130.198 93.9148 130.431 93.5152C130.642 93.1559 130.731 92.6268 130.601 92.225C130.469 91.821 130.218 91.4282 129.828 91.225C129.449 91.0264 128.949 90.8991 128.533 91.0554C127.703 91.3679 126.926 91.9081 126.554 92.7429C126.365 93.1693 126.256 93.5666 126.383 94.0331C126.491 94.4215 126.791 94.8412 127.156 95.0331C127.546 95.2385 128.019 95.3412 128.452 95.2028C128.84 95.0778 129.283 94.8233 129.456 94.4349Z" fill="#E295E0"/>
<path d="M126.93 66.296C127.062 66.191 127.192 66.0839 127.325 65.979C126.646 66.066 125.967 66.1531 125.287 66.2402C125.303 66.2491 125.319 66.258 125.334 66.2692C125.22 66.1821 125.108 66.0951 124.994 66.008C125.014 66.0259 125.032 66.0415 125.048 66.0638C124.96 65.95 124.873 65.8384 124.785 65.7245C124.801 65.7468 124.812 65.7669 124.823 65.7915C124.767 65.6576 124.711 65.5259 124.653 65.3919C124.662 65.4165 124.669 65.441 124.673 65.4678C124.653 65.3205 124.633 65.1709 124.613 65.0236C124.62 65.0683 124.62 65.1129 124.613 65.1575C124.633 65.0102 124.653 64.8607 124.673 64.7133C124.664 64.7602 124.653 64.8026 124.635 64.845C124.691 64.7111 124.747 64.5794 124.806 64.4455C124.79 64.479 124.772 64.508 124.75 64.537C124.837 64.4232 124.924 64.3115 125.012 64.1977C124.994 64.2178 124.976 64.2356 124.956 64.2535C125.07 64.1665 125.182 64.0794 125.296 63.9923C125.274 64.008 125.254 64.0214 125.231 64.0325C125.366 63.9767 125.498 63.9209 125.633 63.8629C125.608 63.8718 125.583 63.8785 125.556 63.8852C125.704 63.8651 125.854 63.845 126.002 63.8249C125.984 63.8272 125.967 63.8272 125.946 63.8272C125.516 63.8249 125.061 64.0169 124.758 64.3182C124.467 64.6084 124.247 65.0861 124.265 65.5013C124.286 65.9343 124.427 66.383 124.758 66.6844C125.088 66.9857 125.491 67.171 125.946 67.1754C126.888 67.1821 127.634 66.5236 127.903 65.6576C128.004 65.3339 128.006 64.8495 127.901 64.5281C127.8 64.2133 127.656 63.9365 127.423 63.6977C127.298 63.5682 127.139 63.4388 126.982 63.3517C126.847 63.2959 126.715 63.2401 126.581 63.1821C126.356 63.1129 126.135 63.1017 125.91 63.153C125.758 63.153 125.617 63.191 125.487 63.2669C125.278 63.3338 125.099 63.4499 124.947 63.6129C124.815 63.7178 124.685 63.8249 124.552 63.9298C124.389 64.0816 124.272 64.2602 124.205 64.4678C124.1 64.6665 124.052 64.883 124.059 65.1129C124.059 65.5236 124.243 66.0147 124.552 66.296C124.873 66.5884 125.294 66.8071 125.74 66.787C125.888 66.7669 126.038 66.7469 126.186 66.7268C126.475 66.6464 126.722 66.5035 126.93 66.296Z" fill="white"/>
<path d="M127.269 57.6284C129.257 57.1239 131.371 57.615 132.87 59.0325C134.735 60.7959 136.207 62.7111 138.856 63.3272C140.111 63.6196 141.389 63.633 142.653 63.3852C143.841 63.1531 144.845 62.5214 145.957 62.0839C148.24 61.1888 150.457 62.9879 152.196 64.2736C153.12 64.9567 154.574 64.4254 155.11 63.5125C155.744 62.4321 155.273 61.2959 154.346 60.6106C152.174 59.0057 149.664 57.4231 146.842 57.5815C144.298 57.7244 142.245 59.9119 139.643 59.1441C138.547 58.8204 137.801 58.0503 137.041 57.2378C136.124 56.2601 135.201 55.3114 134.04 54.6172C131.669 53.1998 128.8 52.8605 126.14 53.5368C123.481 54.2132 124.607 58.3048 127.269 57.6284Z" fill="#FF47FF"/>
<path d="M127.224 55.4676C126.96 55.1484 127.347 54.5703 127.592 54.3761C128.179 53.914 129.046 53.9676 129.741 54.0457C130.463 54.1283 131.086 53.3716 131.086 52.7064C131.086 51.914 130.465 51.4497 129.741 51.3671C128.121 51.1818 126.321 51.5948 125.279 52.9296C124.228 54.2734 124.241 56.0547 125.324 57.3605C125.785 57.9186 126.747 57.8382 127.226 57.3605C127.78 56.8092 127.688 56.0279 127.224 55.4676Z" fill="#FF47FF"/>
<path d="M128.145 54.9186C129.23 54.2936 130.458 54.115 131.675 54.4431C132.999 54.8025 133.826 55.9208 135.124 56.3271C137.332 57.019 138.275 53.5703 136.077 52.8828C135.395 52.6685 134.795 51.9073 134.129 51.577C133.32 51.1752 132.477 50.923 131.583 50.8024C129.75 50.5524 127.936 50.9096 126.334 51.8337C124.339 52.9855 126.143 56.0726 128.145 54.9186Z" fill="#FF47FF"/>
<path d="M130.613 54.6909C132.009 54.3895 133.41 54.9476 134.692 55.4498C136.227 56.0503 137.72 56.7266 139.367 56.9632C141.071 57.2088 142.673 56.8963 144.28 56.3226C145.681 55.8226 147.306 54.9632 148.834 55.2779C148.834 54.1306 148.834 52.981 148.834 51.8337C148.554 51.9207 148.274 52.0056 147.996 52.0926C145.8 52.7712 146.736 56.2199 148.949 55.5369C149.229 55.4498 149.509 55.365 149.787 55.2779C151.378 54.7846 151.604 52.2087 149.787 51.8337C147.942 51.4542 146.239 51.8158 144.495 52.4475C142.902 53.0257 141.324 53.7422 139.596 53.3984C136.131 52.7087 133.365 50.4475 129.656 51.2466C127.406 51.7332 128.361 55.1753 130.613 54.6909Z" fill="#FF47FF"/>
<path d="M144.273 56.2265C145.302 55.0591 146.703 54.6752 148.182 55.1707C150.374 55.9073 151.313 52.4586 149.134 51.7265C146.537 50.8537 143.547 51.6461 141.738 53.6997C140.221 55.423 142.749 57.9587 144.273 56.2265Z" fill="#FF47FF"/>
<path d="M146.848 54.8025C148.213 53.7489 149.193 55.9655 149.822 56.6709C151.095 58.095 152.942 58.2847 154.726 58.4946C155.578 58.595 157.42 58.8874 156.445 60.1575C155.26 61.7044 152.98 60.0348 152.079 59.0905C151.815 60.0861 151.553 61.0794 151.288 62.075C152.602 61.7781 153.913 61.4812 155.226 61.1866C154.646 61.0325 154.063 60.8808 153.482 60.7267C153.355 60.5147 153.343 60.2982 153.449 60.0727C154.388 60.1932 155.327 60.3138 156.264 60.4343C155.426 59.133 154.462 57.8986 153.352 56.816C152.386 55.874 151.239 54.7958 149.805 54.7512C148.446 54.7065 147.155 55.5079 146.851 56.874C146.496 58.4633 147.774 59.874 149.343 59.8986C150.407 59.9165 151.508 58.7267 151.071 57.6374C150.103 55.2199 147.635 54.4632 145.206 55.0012C143.977 55.2735 142.812 55.961 141.528 55.9409C140.172 55.9208 138.867 55.2691 137.67 54.7021C136.964 54.3672 136.07 54.3717 135.499 54.9811C135.21 55.2891 134.92 55.5972 134.631 55.903C133.786 56.8003 134.042 58.0303 134.994 58.7066C135.891 59.345 136.893 59.7959 137.955 60.0861C140.183 60.6955 141.135 57.2512 138.908 56.6418C138.114 56.4253 137.473 56.0972 136.803 55.6217C136.924 56.557 137.045 57.4923 137.166 58.4254C137.455 58.1173 137.744 57.8093 138.034 57.5035C137.31 57.5972 136.586 57.6887 135.862 57.7825C138.04 58.8182 140.302 59.7915 142.769 59.4053C143.879 59.2312 144.887 58.7557 145.97 58.4923C146.313 58.4075 146.662 58.3316 147.019 58.3919C147.193 58.4209 147.344 58.5124 147.507 58.5526C147.655 58.5905 147.689 58.7758 147.613 58.5838C148.189 57.8294 148.765 57.0771 149.341 56.3226C149.26 56.3204 149.181 56.3204 149.101 56.3182C149.403 56.3985 149.704 56.4811 150.006 56.5615C150.107 56.6642 150.206 56.7646 150.307 56.8673C150.307 57.1843 150.307 57.5012 150.307 57.816C150.298 57.8584 149.589 58.3562 149.589 58.3004C149.589 58.3294 149.912 58.5191 149.968 58.5638C150.416 58.9097 150.824 59.3383 151.214 59.7446C151.952 60.5124 152.586 61.3384 153.162 62.2335C153.796 63.2179 155.114 63.4054 155.977 62.5951C157.212 61.4366 157.297 59.3651 156.011 58.1977C155.125 57.3941 154.119 57.7713 153.083 58.0057C152.165 58.2133 151.246 58.4209 150.327 58.6285C148.969 58.9343 148.646 60.6821 149.536 61.6129C151.703 63.883 155.175 65.2782 158.072 63.4254C160.726 61.7268 161.076 57.5994 158.267 55.8606C157.102 55.1396 155.753 55.0481 154.428 54.8896C153.942 54.8315 153.397 54.8003 152.947 54.5927C152.411 54.3472 152.218 53.9007 151.893 53.432C150.091 50.8225 146.824 50.3404 144.313 52.2779C143.547 52.8695 143.69 54.182 144.313 54.8025C145.071 55.5548 146.082 55.3941 146.848 54.8025Z" fill="#FF47FF"/>
<path d="M133.475 60.4589C133.529 60.5325 133.576 60.6129 133.619 60.6955C133.551 60.5325 133.545 60.537 133.601 60.7089C133.587 60.5191 133.585 60.5169 133.596 60.7022C133.587 60.8875 133.594 60.8852 133.619 60.6999C133.603 60.7915 133.58 60.8808 133.551 60.9678C133.628 60.8093 133.625 60.8116 133.542 60.97C133.444 61.1196 133.444 61.1241 133.542 60.9834C133.48 61.0504 133.41 61.1129 133.336 61.1687C132.684 61.7089 132.776 62.8205 133.336 63.3786C133.982 64.0214 134.901 63.9188 135.555 63.3786C136.839 62.316 137.099 60.258 136.185 58.883C135.719 58.1798 134.797 57.8807 134.038 58.3227C133.336 58.7289 133.004 59.7513 133.475 60.4589Z" fill="#E5BAE0"/>
<path d="M136.164 65.6196C133.213 65.2915 130.095 67.5862 130.812 70.7826C131.458 73.6577 135.241 74.7515 137.558 75.8609C139.629 76.8519 141.449 73.7738 139.369 72.776C137.881 72.0639 135.963 71.4724 134.681 70.4166C133.54 69.4768 135.322 69.0951 136.166 69.1911C137.13 69.2982 137.959 68.2938 137.959 67.4053C137.957 66.3518 137.13 65.729 136.164 65.6196Z" fill="#68DAEC"/>
<path d="M136.464 69.5259C137.217 69.3607 138.053 69.8786 138.708 70.1889C139.582 70.6041 140.456 71.0193 141.332 71.4344C142.206 71.8496 143.08 72.2648 143.957 72.68C144.36 72.872 144.764 73.0639 145.167 73.2559C145.483 73.4055 146.155 73.5907 146.393 73.8407C146.238 73.5773 146.086 73.3162 145.931 73.0528C145.947 73.1532 145.963 73.2514 145.976 73.3519C145.976 73.0349 145.976 72.7179 145.976 72.4032C145.499 74.2291 144.62 76.026 143.773 77.7046C143.345 78.5506 142.892 79.3855 142.412 80.2025C142.173 80.6109 141.926 81.0172 141.673 81.419C141.572 81.5775 140.994 82.4949 141.106 82.4257C141.408 82.3454 141.709 82.2628 142.011 82.1824C141.061 82.1043 140.019 81.6712 139.093 81.4346C138.116 81.1869 137.11 80.9837 136.155 80.6645C136.419 80.8185 136.682 80.9703 136.946 81.1244C136.879 81.0663 136.814 81.0105 136.747 80.9525C136.901 81.2159 137.054 81.477 137.208 81.7404C137.19 81.6556 137.175 81.5708 137.157 81.486C137.157 81.8029 137.157 82.1199 137.157 82.4346C137.601 80.1868 138.779 78.1823 139.055 75.8787C139.169 74.9256 139.143 73.9724 138.95 73.0282C138.842 72.4947 138.652 71.9836 138.421 71.4902C138.262 71.1532 137.807 70.7001 137.755 70.3474C137.695 70.805 137.634 71.2648 137.574 71.7224C137.612 71.6666 137.65 71.613 137.69 71.5572C137.334 71.8318 136.975 72.1041 136.619 72.3787C136.22 72.5059 135.996 72.1867 136.453 72.5706C136.646 72.7313 136.904 72.8541 137.121 72.9813C137.627 73.2805 138.145 73.5595 138.672 73.8206C139.689 74.3229 140.743 74.7515 141.814 75.1287C141.458 74.2537 141.099 73.3809 140.743 72.5059C138.974 75.1376 137.979 78.0908 137.63 81.2293C137.417 83.14 140.077 83.4458 140.971 82.1311C141.816 80.8855 142.421 79.4993 142.771 78.0372C143.199 76.2515 141.11 75.1287 139.775 76.3006C139.212 76.7939 138.703 77.3207 138.226 77.8966C139.165 78.6176 140.104 79.3386 141.041 80.0596C141.949 78.5975 142.856 77.1377 143.764 75.6756C142.65 75.3742 141.536 75.0751 140.422 74.7738C140.25 76.1064 140.001 77.4279 139.71 78.7381C139.34 80.4034 141.415 81.8342 142.706 80.4748C144.351 78.7426 145.75 76.8051 146.841 74.6823C147.892 72.6354 145.003 70.9434 143.744 72.8787C142.809 74.3162 141.877 75.7537 140.942 77.1912C141.975 77.7917 143.006 78.3922 144.04 78.9948C144.681 77.6578 145.162 76.2961 145.418 74.8341C145.584 73.8854 145.162 72.9099 144.165 72.6376C143.3 72.401 142.126 72.93 141.96 73.8854C141.76 75.0327 141.449 76.1399 140.944 77.1935C139.956 79.2538 142.773 80.948 144.042 78.9971C144.976 77.5596 145.909 76.122 146.843 74.6845C145.81 74.084 144.779 73.4836 143.746 72.8809C142.789 74.7448 141.617 76.4278 140.173 77.9502C141.173 78.5283 142.17 79.1087 143.17 79.6868C143.531 78.0596 143.798 76.4234 144.01 74.7738C144.25 72.9077 141.52 72.5014 140.669 73.872C139.761 75.3341 138.853 76.7939 137.946 78.256C136.899 79.9413 139.45 82.015 140.761 80.419C141.236 79.8408 141.745 79.3163 142.309 78.823C141.31 78.2448 140.312 77.6645 139.313 77.0863C139.028 78.2783 138.564 79.3118 137.874 80.3275C138.988 80.6288 140.102 80.9279 141.216 81.2293C141.494 78.727 142.439 76.3921 143.838 74.3095C144.524 73.2872 143.789 72.0461 142.767 71.6867C141.861 71.3697 140.985 71.0014 140.131 70.5639C139.241 70.1063 138.419 69.459 137.502 69.0683C135.328 68.1397 133.396 70.2893 134.718 72.3028C135.774 73.9099 135.648 75.4814 135.097 77.2805C134.597 78.9123 132.838 81.698 134.073 83.3007C134.707 84.1266 135.749 84.2717 136.702 84.515C137.8 84.7941 138.898 85.0731 139.994 85.3543C140.983 85.6066 142.054 86.0195 143.009 85.457C143.856 84.957 144.374 83.8632 144.88 83.053C145.992 81.2717 146.98 79.41 147.83 77.4926C148.249 76.5461 148.645 75.5908 149.008 74.622C149.396 73.5863 149.777 72.497 149.069 71.5036C148.403 70.5706 146.962 70.1733 145.967 69.7C144.824 69.1576 143.679 68.613 142.536 68.0705C140.326 67.0214 138.051 65.5348 135.509 66.0906C133.257 66.5727 134.212 70.017 136.464 69.5259Z" fill="#68DAEC"/>
<path d="M133.517 70.5215C135.449 71.5461 137.455 72.4166 139.519 73.1466C141.698 73.9167 142.635 70.4679 140.472 69.7023C138.697 69.0728 136.991 68.3184 135.326 67.4366C133.291 66.3585 131.475 69.4389 133.517 70.5215Z" fill="#68DAEC"/>
<path d="M126.892 91.4259C129.201 91.4259 129.203 87.8544 126.892 87.8544C124.584 87.8544 124.582 91.4259 126.892 91.4259Z" fill="#9568EC"/>
<path d="M149.641 120.668C149.184 122.199 148.075 123.493 146.555 124.067C145.286 124.547 144.576 126.639 146.127 127.331C147.144 127.786 148.133 128.29 149.083 128.871C149.989 129.422 150.818 130.19 151.775 130.632C154.139 131.721 155.82 128.681 157.109 127.19C157.907 126.266 157.737 125.081 156.746 124.386C155.164 123.277 153.763 121.971 152.492 120.52C151.647 121.362 150.802 122.203 149.957 123.045C150.365 123.391 150.76 123.752 151.087 124.177C151.226 124.357 151.349 124.552 151.466 124.748C151.6 124.971 151.683 125.469 151.699 124.978C151.873 124.556 152.048 124.136 152.223 123.714C152.411 123.478 152.12 123.618 151.795 123.538C150.544 123.228 149.128 124.398 149.59 125.735C149.962 126.811 150.659 127.538 151.766 127.857C153.987 128.498 154.935 125.052 152.718 124.413C152.828 124.536 152.936 124.661 153.046 124.784C152.311 125.516 151.575 126.248 150.84 126.98C152.454 127.38 155.276 127.13 155.285 124.893C155.291 123.272 153.64 121.491 152.49 120.516C150.733 119.027 148.426 121.297 149.955 123.04C151.427 124.723 153.102 126.179 154.935 127.465C154.814 126.529 154.693 125.594 154.572 124.661C154.119 125.183 153.669 125.706 153.216 126.23C152.882 126.616 152.514 127.275 152.089 127.534C152.391 127.453 152.692 127.371 152.994 127.29C152.889 127.295 152.783 127.297 152.68 127.302C152.983 127.382 153.283 127.465 153.586 127.545C152.627 127.136 151.788 126.328 150.894 125.784C149.944 125.203 148.953 124.699 147.938 124.243C147.794 125.331 147.653 126.42 147.51 127.507C150.235 126.478 152.261 124.415 153.099 121.614C153.758 119.409 150.3 118.467 149.641 120.668Z" fill="#E3E8EC"/>
<path d="M148.762 121.703C148.243 122.659 147.696 123.471 147.043 124.223C146.411 124.953 146.324 126.031 147.043 126.748C147.691 127.393 148.944 127.48 149.578 126.748C150.448 125.746 151.223 124.67 151.858 123.505C152.304 122.683 152.088 121.522 151.214 121.06C150.378 120.623 149.24 120.826 148.762 121.703Z" fill="#E3E8EC"/>
<path d="M134.169 122.534C132.93 123.632 131.5 124.384 129.907 124.833C128.322 125.279 128.266 127.23 129.478 128.096C130.274 128.663 131.07 129.232 131.865 129.799C132.596 130.322 133.378 131.052 134.237 131.353C136.043 131.985 136.982 130.192 138.656 130.161C139.75 130.139 140.783 129.027 140.384 127.9C139.692 125.938 138.555 124.206 136.904 122.915C135.734 122 133.856 122.502 133.842 124.179C133.838 124.743 133.833 125.306 133.829 125.871C133.826 126.152 133.824 126.435 133.822 126.717C133.764 127.177 133.782 127.273 133.874 127.007C134.089 126.793 134.302 126.581 134.517 126.366C134.537 126.357 134.557 126.348 134.577 126.339C134.896 126.339 135.214 126.339 135.53 126.339C135.469 126.324 135.407 126.306 135.346 126.29C135.611 126.444 135.873 126.596 136.137 126.75C136.099 126.703 136.059 126.654 136.021 126.607C134.553 124.831 132.029 127.371 133.486 129.132C134.45 130.299 136.325 129.92 137.034 128.694C137.749 127.46 137.417 125.547 137.428 124.179C136.408 124.601 135.389 125.02 134.367 125.442C135.53 126.353 136.431 127.451 136.926 128.851C137.502 128.096 138.078 127.344 138.654 126.589C137.82 126.605 137.029 126.746 136.26 127.072C135.568 127.364 135.039 127.886 134.362 128.174C134.665 128.094 134.965 128.011 135.268 127.931C135.559 127.918 134.828 127.543 134.698 127.449C134.302 127.165 133.903 126.882 133.506 126.598C132.766 126.072 132.029 125.545 131.289 125.018C131.146 126.105 131.005 127.194 130.861 128.281C133.058 127.663 135.003 126.574 136.706 125.063C138.432 123.527 135.888 121.007 134.169 122.534Z" fill="#E3E8EC"/>
<path d="M156.531 126.485C156.195 127.86 155.37 128.828 154.099 129.447C152.494 130.228 153.277 132.842 155.005 132.775C155.466 132.757 155.76 132.826 156.094 133.15C157.75 134.753 160.287 132.23 158.629 130.625C157.642 129.672 156.385 129.15 155.005 129.203C155.307 130.313 155.607 131.422 155.91 132.532C157.956 131.536 159.453 129.632 159.991 127.435C160.534 125.201 157.078 124.248 156.531 126.485Z" fill="#20204D"/>
<path d="M157.575 128.19C159.039 128.933 160.507 129.346 162.136 129.527C161.56 128.773 160.984 128.02 160.408 127.266C159.828 129.938 159.245 132.612 158.665 135.284C158.172 137.552 157.696 139.835 156.5 141.855C155.325 143.84 158.423 145.639 159.597 143.659C160.881 141.492 161.502 139.074 162.035 136.637C162.65 133.831 163.257 131.023 163.867 128.217C164.133 126.987 163.329 126.09 162.139 125.956C161.177 125.848 160.247 125.543 159.389 125.105C157.333 124.063 155.516 127.143 157.575 128.19Z" fill="#20204D"/>
<path d="M153.317 132.487C155.17 134.012 154.442 136.612 153.922 138.599C153.603 139.811 153.151 141.15 153.238 142.413C153.337 143.84 154.516 144.822 155.923 144.786C158.938 144.713 159.16 140.817 159.491 138.628C159.915 135.84 160.255 133.038 161.235 130.375C160.083 130.058 158.929 129.741 157.777 129.427C156.77 132.741 155.76 136.056 154.758 139.373C154.305 140.871 153.863 142.501 154.599 143.989C155.204 145.217 156.524 146.166 157.94 145.987C158.902 145.867 159.733 145.253 159.733 144.201C159.733 143.331 158.909 142.293 157.94 142.416C157.467 142.476 157.853 142.391 157.916 142.545C157.891 142.483 157.768 142.425 157.786 142.338C157.889 141.869 157.898 141.393 158.037 140.916C158.377 139.748 158.743 138.585 159.097 137.42C159.809 135.072 160.522 132.724 161.235 130.375C161.912 128.145 158.559 127.299 157.777 129.427C157.033 131.451 156.645 133.554 156.327 135.681C156.167 136.746 156.022 137.815 155.842 138.878C155.753 139.409 155.659 139.938 155.547 140.463C155.5 140.699 155.446 140.934 155.385 141.168C155.107 141.73 155.448 141.817 156.403 141.425C156.557 141.688 156.71 141.949 156.864 142.213C156.575 141.454 157.281 139.938 157.483 139.159C157.788 137.978 158.064 136.766 158.093 135.541C158.144 133.485 157.485 131.304 155.851 129.96C154.088 128.509 151.535 131.023 153.317 132.487Z" fill="#20204D"/>
<path d="M139.116 128.406C138.289 129.09 137.235 129.558 136.164 129.681C134.992 129.817 134.145 130.71 134.436 131.942C134.703 133.067 135.299 134.467 135.229 135.621C135.31 135.32 135.393 135.02 135.474 134.719C135.162 135.416 134.239 136.045 133.674 136.565C133.044 137.145 132.399 137.708 131.688 138.19C130.234 139.177 128.398 139.554 127.056 140.688C125.783 141.764 125.26 143.634 126.038 145.163C126.944 146.943 128.849 147.027 130.509 146.3C132.473 145.442 134.411 144.525 136.361 143.637C138.378 142.717 140.494 141.898 142.453 140.86C144.551 139.75 144.215 137.887 143.854 135.869C143.5 133.889 142.939 131.958 142.211 130.083C141.482 128.208 138.851 128.485 138.69 130.558C138.52 132.741 138.349 134.924 138.179 137.108C139.373 137.108 140.57 137.108 141.765 137.108C141.677 135.695 141.292 134.386 140.476 133.217C139.595 131.953 137.688 132.121 137.199 133.643C136.845 134.744 136.671 135.871 136.637 137.025C137.831 137.025 139.028 137.025 140.223 137.025C140.205 136.65 140.185 136.275 140.167 135.9C140.05 133.581 136.78 133.625 136.581 135.9C136.527 136.514 136.036 136.708 135.55 136.924C134.62 137.337 133.983 137.688 133.369 138.525C132.305 139.974 134.38 141.925 135.823 140.969C135.924 140.902 136.025 140.835 136.126 140.768C138.038 139.5 136.245 136.407 134.315 137.683C134.214 137.75 134.113 137.817 134.012 137.884C134.83 138.699 135.649 139.514 136.467 140.329C136.37 140.46 137.287 140.067 137.473 139.98C137.966 139.753 138.437 139.438 138.82 139.052C139.678 138.186 140.062 137.092 140.167 135.902C138.972 135.902 137.775 135.902 136.581 135.902C136.599 136.277 136.619 136.652 136.637 137.027C136.751 139.315 140.156 139.337 140.223 137.027C140.248 136.177 140.398 135.407 140.658 134.596C139.566 134.739 138.472 134.88 137.381 135.023C137.84 135.681 138.13 136.306 138.179 137.112C138.322 139.418 141.586 139.4 141.765 137.112C141.935 134.929 142.106 132.746 142.276 130.563C141.101 130.721 139.927 130.88 138.755 131.038C139.239 132.288 139.656 133.561 139.979 134.86C140.124 135.445 140.25 136.034 140.36 136.625C140.438 137.043 140.703 137.851 140.57 138.275C140.725 138.012 140.877 137.75 141.032 137.487C140.66 137.956 139.766 138.179 139.221 138.429C138.544 138.737 137.867 139.045 137.19 139.355C135.77 140.003 134.349 140.65 132.925 141.297C132.249 141.605 131.572 141.913 130.895 142.224C130.489 142.409 130.084 142.594 129.676 142.779C129.449 142.882 128.864 143.025 128.741 143.19C128.539 143.463 129.084 143.554 129.272 143.514C129.548 143.456 130.028 143.005 130.33 142.873C132.737 141.813 134.707 140.525 136.623 138.708C137.518 137.86 138.721 136.953 138.813 135.63C138.916 134.141 138.233 132.44 137.892 131.003C137.316 131.757 136.74 132.509 136.164 133.264C138.262 133.02 140.023 132.286 141.651 130.942C143.43 129.465 140.882 126.949 139.116 128.406Z" fill="#20204D"/>
<path d="M139.278 130.938C139.408 132.203 139.757 133.371 140.452 134.451C140.759 134.929 141.118 135.38 141.487 135.811C141.682 136.036 141.889 136.253 142.099 136.465C142.184 136.547 142.27 136.63 142.355 136.712C142.619 137.065 142.673 136.978 142.521 136.449C142.675 136.186 142.828 135.924 142.982 135.661C142.509 136.241 141.727 136.668 141.127 137.11C140.349 137.681 139.957 138.659 140.483 139.554C140.932 140.32 142.153 140.77 142.937 140.195C144.497 139.049 146.943 137.766 145.84 135.458C145.049 133.804 143.072 132.94 142.866 130.94C142.767 129.98 142.113 129.154 141.073 129.154C140.176 129.152 139.177 129.971 139.278 130.938Z" fill="#20204D"/>
<path d="M164.614 127.864C163.769 126.732 162.319 127.025 161.712 128.239C160.905 129.851 160.916 132.083 161.107 133.824C161.185 134.527 162.066 135.083 162.637 134.456C164.043 132.909 164.771 130.953 164.632 128.862C164.592 128.257 164.094 127.88 163.498 128C161.505 128.406 161.333 131.697 161.243 133.286C161.1 135.802 160.936 138.123 159.656 140.367C158.955 141.599 156.355 143.813 158.262 145.177C160.192 146.554 161.205 142.951 161.384 141.719C161.548 140.594 159.82 140.11 159.656 141.244C159.605 141.599 159.544 141.951 159.446 142.297C159.338 142.672 158.926 143.204 158.906 143.565C158.868 144.237 159.652 143.454 159.845 143.215C160.042 142.969 160.241 142.724 160.427 142.469C161.284 141.3 161.94 139.978 162.368 138.594C162.79 137.228 162.924 135.826 162.989 134.404C163.023 133.663 163.036 132.915 163.126 132.177C163.18 131.737 163.399 129.84 163.978 129.721C163.599 129.433 163.22 129.148 162.843 128.86C162.951 130.48 162.474 131.98 161.373 133.192C161.884 133.402 162.393 133.614 162.904 133.824C162.81 132.969 162.778 132.116 162.857 131.257C162.917 130.603 163.46 129.288 163.07 128.764C163.747 129.677 165.304 128.788 164.614 127.864Z" fill="#1477DF"/>
<path d="M146.295 136.525C142.577 135.715 140.468 139.505 137.778 141.242C134.762 143.19 131.019 143.545 127.585 144.304C127.215 144.387 126.913 144.788 126.926 145.166C126.989 146.829 128.777 146.565 129.9 146.28C131.969 145.751 133.997 145.092 135.99 144.329C137.057 143.92 136.593 142.192 135.512 142.608C134.318 143.065 133.11 143.489 131.886 143.864C131.341 144.032 130.797 144.19 130.248 144.34C129.905 144.434 129.56 144.523 129.217 144.61C129.08 144.646 128.941 144.679 128.802 144.713C128.506 144.713 128.477 144.864 128.719 145.168C128.5 145.456 128.28 145.742 128.06 146.03C131.225 145.329 134.511 144.925 137.453 143.478C138.859 142.788 140.026 141.822 141.151 140.753C142.357 139.61 143.964 137.846 145.818 138.248C146.945 138.494 147.425 136.773 146.295 136.525Z" fill="#1477DF"/>
<path d="M141.736 142.268C143.225 141.402 145 140.643 146.34 139.565C147.203 138.871 147.124 137.429 145.824 137.335C145.13 137.284 144.581 137.733 144.034 138.096C143.258 138.61 142.485 139.125 141.71 139.639C140.1 140.706 138.493 141.775 136.884 142.842C135.929 143.476 136.826 145.023 137.79 144.384C139.159 143.474 140.531 142.565 141.9 141.654C142.555 141.219 143.211 140.784 143.866 140.349C144.222 140.112 144.581 139.873 144.937 139.637C145.069 139.55 145.629 139.099 145.69 139.108C145.511 138.971 145.334 138.833 145.154 138.697C145.148 138.67 145.141 138.646 145.134 138.619C145.222 138.409 145.309 138.197 145.396 137.987C144.908 138.57 143.863 138.956 143.218 139.333C142.422 139.797 141.627 140.259 140.829 140.724C139.836 141.306 140.737 142.851 141.736 142.268Z" fill="#1477DF"/>
<path d="M153.678 133.538C154.083 133.677 154.487 133.815 154.893 133.956C154.825 133.793 154.758 133.628 154.691 133.465C154.505 133.824 154.321 134.181 154.135 134.541C154.034 134.739 154.122 134.965 154.337 135.032C154.592 135.114 154.814 135.264 154.973 135.478C154.991 135.342 155.009 135.208 155.025 135.072C154.675 135.362 154.339 135.721 154.198 136.161C154.135 136.355 154.124 136.576 154.182 136.773C154.211 136.873 154.258 136.971 154.317 137.058C154.35 137.11 154.48 137.224 154.471 137.288C154.464 137.333 154.305 137.434 154.265 137.465C154.137 137.565 153.998 137.657 153.888 137.777C153.77 137.907 153.671 138.07 153.658 138.246C153.637 138.496 153.9 138.715 154.048 138.896C154.018 138.786 153.989 138.679 153.96 138.57C153.929 138.643 153.85 138.692 153.772 138.699C153.344 138.737 153.339 139.407 153.772 139.369C154.178 139.333 154.456 139.121 154.608 138.748C154.655 138.632 154.592 138.509 154.521 138.422C154.422 138.3 154.323 138.177 154.222 138.054C154.252 138.163 154.281 138.271 154.31 138.38C154.35 138.168 154.608 138.047 154.763 137.92C154.967 137.755 155.146 137.543 155.141 137.264C155.135 136.933 154.765 136.73 154.825 136.411C154.893 136.056 155.238 135.762 155.5 135.543C155.603 135.456 155.634 135.248 155.551 135.137C155.283 134.771 154.946 134.521 154.512 134.382C154.579 134.545 154.646 134.71 154.713 134.873C154.899 134.514 155.083 134.157 155.269 133.797C155.372 133.596 155.28 133.378 155.067 133.306C154.662 133.168 154.258 133.029 153.853 132.889C153.447 132.75 153.272 133.398 153.678 133.538Z" fill="#EAF42A"/>
<path d="M131.155 137.137C130.846 137.364 130.788 137.739 130.996 138.061C131.209 138.391 131.604 138.518 131.973 138.384C132.375 138.237 132.637 137.891 132.899 137.574C133.237 137.168 133.578 136.762 133.916 136.355C133.757 136.355 133.6 136.355 133.441 136.355C133.578 136.509 133.648 136.695 133.652 136.898C133.659 137.152 133.932 137.315 134.159 137.188C134.735 136.862 135.024 136.11 134.766 135.491C134.627 135.63 134.49 135.766 134.351 135.904C134.551 135.987 134.75 136.07 134.95 136.154C135.091 136.212 135.255 136.114 135.328 136C135.452 135.813 135.577 135.625 135.701 135.438C135.94 135.076 135.358 134.741 135.12 135.101C134.997 135.288 134.871 135.476 134.748 135.663C134.874 135.612 135.001 135.561 135.127 135.509C134.927 135.427 134.728 135.344 134.528 135.259C134.304 135.166 134.022 135.447 134.114 135.672C134.259 136.02 134.154 136.42 133.816 136.614C133.984 136.71 134.152 136.806 134.322 136.904C134.311 136.516 134.172 136.177 133.914 135.887C133.802 135.759 133.551 135.753 133.439 135.887C133.013 136.395 132.599 136.918 132.159 137.418C132.052 137.541 131.843 137.804 131.653 137.777C131.635 137.775 131.597 137.755 131.574 137.728C131.503 137.643 131.579 137.654 131.491 137.719C131.637 137.612 131.711 137.429 131.613 137.262C131.532 137.114 131.303 137.029 131.155 137.137Z" fill="#EAF42A"/>
</g>
</g>
<defs>
<clipPath id="clip0">
<rect width="61.3135" height="96.004" fill="white" transform="translate(103.474 50.7242)"/>
</clipPath>
</defs>
</svg>
