<svg width="233" height="233" viewBox="0 0 233 233" fill="none" xmlns="http://www.w3.org/2000/svg">
<mask id="mask0" mask-type="alpha" maskUnits="userSpaceOnUse" x="0" y="0" width="233" height="233">
<rect width="233" height="233" fill="#C4C4C4"/>
</mask>
<g mask="url(#mask0)">
<path opacity="0.8" fill-rule="evenodd" clip-rule="evenodd" d="M107.193 62.0357C138.68 61.0959 168.245 78.7633 178.49 107.455C189.277 137.669 180.676 172.864 153.107 190.634C127.966 206.839 96.2666 193.788 72.4776 175.788C51.8609 160.188 40.919 135.568 48.3127 111.341C56.4212 84.7714 78.4536 62.8936 107.193 62.0357Z" fill="white"/>
</g>
<path d="M86.6172 123.316C86.6172 125.23 86.0508 126.711 84.918 127.758C83.793 128.797 82.1914 129.316 80.1133 129.316H78.8125V135H74.1836V117.867H80.1133C82.2773 117.867 83.9023 118.34 84.9883 119.285C86.0742 120.23 86.6172 121.574 86.6172 123.316ZM78.8125 125.543H79.6562C80.3516 125.543 80.9023 125.348 81.3086 124.957C81.7227 124.566 81.9297 124.027 81.9297 123.34C81.9297 122.184 81.2891 121.605 80.0078 121.605H78.8125V125.543Z" fill="#2373FF"/>
<path d="M97.0938 121.488C97.4922 121.488 97.8711 121.52 98.2305 121.582L98.4883 121.629L98.0781 125.953C97.7031 125.859 97.1836 125.812 96.5195 125.812C95.5195 125.812 94.793 126.043 94.3398 126.504C93.8867 126.957 93.6602 127.613 93.6602 128.473V135H89.0781V121.723H92.4883L93.2031 123.844H93.4258C93.8086 123.141 94.3398 122.574 95.0195 122.145C95.707 121.707 96.3984 121.488 97.0938 121.488Z" fill="#2373FF"/>
<path d="M113.031 128.332C113.031 130.504 112.445 132.199 111.273 133.418C110.109 134.629 108.477 135.234 106.375 135.234C104.359 135.234 102.754 134.613 101.559 133.371C100.371 132.129 99.7773 130.449 99.7773 128.332C99.7773 126.168 100.359 124.488 101.523 123.293C102.695 122.09 104.336 121.488 106.445 121.488C107.75 121.488 108.902 121.766 109.902 122.32C110.902 122.875 111.672 123.672 112.211 124.711C112.758 125.742 113.031 126.949 113.031 128.332ZM104.43 128.332C104.43 129.473 104.582 130.344 104.887 130.945C105.191 131.539 105.703 131.836 106.422 131.836C107.133 131.836 107.633 131.539 107.922 130.945C108.219 130.344 108.367 129.473 108.367 128.332C108.367 127.199 108.219 126.344 107.922 125.766C107.625 125.188 107.117 124.898 106.398 124.898C105.695 124.898 105.191 125.188 104.887 125.766C104.582 126.336 104.43 127.191 104.43 128.332Z" fill="#2373FF"/>
<path d="M115.316 140.766C114.941 140.766 114.512 140.734 114.027 140.672C113.535 140.617 113.145 140.551 112.855 140.473V136.898C113.355 137.039 113.824 137.109 114.262 137.109C115.191 137.109 115.656 136.445 115.656 135.117V121.723H120.238V136.078C120.238 137.539 119.809 138.684 118.949 139.512C118.098 140.348 116.887 140.766 115.316 140.766ZM115.539 118.418C115.539 117.73 115.73 117.219 116.113 116.883C116.496 116.547 117.113 116.379 117.965 116.379C118.816 116.379 119.438 116.551 119.828 116.895C120.219 117.238 120.414 117.746 120.414 118.418C120.414 119.762 119.598 120.434 117.965 120.434C116.348 120.434 115.539 119.762 115.539 118.418Z" fill="#2373FF"/>
<path d="M129.848 135.234C127.637 135.234 125.918 134.648 124.691 133.477C123.473 132.297 122.863 130.621 122.863 128.449C122.863 126.207 123.43 124.488 124.562 123.293C125.695 122.09 127.312 121.488 129.414 121.488C131.414 121.488 132.957 122.012 134.043 123.059C135.137 124.098 135.684 125.598 135.684 127.559V129.598H127.492C127.523 130.34 127.793 130.922 128.301 131.344C128.816 131.766 129.516 131.977 130.398 131.977C131.203 131.977 131.941 131.902 132.613 131.754C133.293 131.598 134.027 131.336 134.816 130.969V134.262C134.098 134.629 133.355 134.883 132.59 135.023C131.824 135.164 130.91 135.234 129.848 135.234ZM129.578 124.605C129.039 124.605 128.586 124.777 128.219 125.121C127.859 125.457 127.648 125.988 127.586 126.715H131.523C131.508 126.074 131.324 125.562 130.973 125.18C130.629 124.797 130.164 124.605 129.578 124.605Z" fill="#2373FF"/>
<path d="M144.32 135.234C142.148 135.234 140.5 134.648 139.375 133.477C138.258 132.305 137.699 130.621 137.699 128.426C137.699 126.223 138.305 124.516 139.516 123.305C140.727 122.094 142.449 121.488 144.684 121.488C146.223 121.488 147.672 121.824 149.031 122.496L147.684 125.883C147.129 125.641 146.617 125.449 146.148 125.309C145.68 125.16 145.191 125.086 144.684 125.086C143.941 125.086 143.367 125.375 142.961 125.953C142.555 126.531 142.352 127.348 142.352 128.402C142.352 130.527 143.137 131.59 144.707 131.59C146.051 131.59 147.34 131.199 148.574 130.418V134.062C147.395 134.844 145.977 135.234 144.32 135.234Z" fill="#2373FF"/>
<path d="M157.715 131.613C158.332 131.613 159.07 131.461 159.93 131.156V134.496C159.312 134.762 158.723 134.949 158.16 135.059C157.605 135.176 156.953 135.234 156.203 135.234C154.664 135.234 153.555 134.859 152.875 134.109C152.195 133.352 151.855 132.191 151.855 130.629V125.156H150.25V123.293L152.289 121.852L153.473 119.062H156.473V121.723H159.73V125.156H156.473V130.324C156.473 131.184 156.887 131.613 157.715 131.613Z" fill="#2373FF"/>
</svg>
