<svg xmlns="http://www.w3.org/2000/svg" xmlns:xlink="http://www.w3.org/1999/xlink" viewBox="0 0 85.97 101"><defs><style>.cls-1{fill:none;}.cls-2{clip-path:url(#clip-path);}.cls-3{fill:#202c79;}.cls-4{fill:#2dc7bc;}.cls-5{fill:#ffa6b0;}.cls-6{fill:#ff97b0;}.cls-7{fill:#2dd6bc;}.cls-8{fill:#de6d9d;}.cls-9{fill:#fff;}.cls-10{fill:#ffc02a;}</style><clipPath id="clip-path" transform="translate(0 0)"><rect class="cls-1" width="86" height="101"/></clipPath></defs><g id="レイヤー_2" data-name="レイヤー 2"><g id="レイヤー_2-2" data-name="レイヤー 2"><g class="cls-2"><path class="cls-3" d="M62.74,54.88c5.36-5,4.45-12.44,2-18.68-1-2.67-3.53-4.53-6.48-3.71-2.52.7-4.72,3.85-3.68,6.53.92,2.36,2.94,6.23.69,8.35C50.33,52,57.79,59.54,62.74,54.88Z" transform="translate(0 0)"/><path class="cls-4" d="M36.41,87.29c1.27-2.6,2.53-5.19,3.8-7.78.55-1.11,1.09-2.22,1.63-3.33.24-.49,1-2.62,1.47-3,0,0,2.16-.14,2.65-.23l4.24-.76A59.72,59.72,0,0,1,58,70.84c2.29-.1,3.63,1.2,5.3,2.65,2.09,1.83,4.14,3.72,6.13,5.66,2.62,2.55,7,6.44,6.31,10.59l6.37-2.62a85.42,85.42,0,0,1-22-15.94c-6.71-6.5-15.47-4.65-20.61,2.78-1.84,2.67.6,6.77,3.74,6.58a162.47,162.47,0,0,0,18.54-2.19c2.33-.41,3.59-3.26,3-5.38-.65-2.52-3-3.39-5.33-3.06a45,45,0,0,0-25,12.66c-3.31,3.27.18,8,4.21,7.31l18.14-3.27c4.94-.89,10.66-1.07,14.51-4.69a4.43,4.43,0,0,0-.88-6.86l-1.43-.82c-4.35-2.48-8.56,3.23-5.25,6.87l5.24,5.76c.81.89,1.61,1.78,2.42,2.66l1.2,1.33q2.43-3.84.74-3.21c-.88-.24-2.74.25-3.69.32l-3.59.29c-2.4.18-4.79.34-7.19.47-4.79.26-9.59.41-14.39.32Q41,89,37.39,88.71c-1.73-.14-4.57.06-4.89-2.09-.56-3.74-6.3-4.18-7.92-1a5.15,5.15,0,0,0-.5,4.51,4.48,4.48,0,0,0,4.18,3.21l44-2.17c5.55-.27,5.62-8.81,0-8.75a149.13,149.13,0,0,0-21.72,1.88c-4.74.75-3.45,7,0,8.44A65.53,65.53,0,0,0,74,97.42V88.67A369,369,0,0,1,31,90.24c-5.73-.12-5.37,8.08,0,8.75,12.82,1.6,25.74,1.38,38.62.8,4.79-.22,12.25.75,15.33-4a6.45,6.45,0,0,0-5-10c-5.58-.27-5.57,8.48,0,8.74.17-3.07-.51-4.4-2.06-4a2,2,0,0,1-.61.07,20.52,20.52,0,0,0-2.81.15c-2,.1-4,.2-6.05.28-4.23.19-8.46.33-12.7.38A180.45,180.45,0,0,1,31,90.24V99A368.8,368.8,0,0,0,74,97.42c5.47-.51,5.68-8.63,0-8.75a59,59,0,0,1-21.16-4.41V92.7A131.67,131.67,0,0,1,72.3,91.13V82.38l-44,2.17,4.18,3.21c-.07-.19-.15-.38-.22-.58-.15,1.13-.29,2.25-.44,3.37.09-.19.19-.37.28-.56l-7.92-1c1.12,7.59,9.62,8.32,15.65,8.67a183.94,183.94,0,0,0,23.36-.4c3.61-.25,7.26-.41,10.85-.86,2.78-.35,5.5-1.49,6.68-4.24,1.42-3.3-.57-6-2.66-8.33-2.66-3-5.37-5.91-8.06-8.87-1.75,2.29-3.5,4.59-5.25,6.87l1.42.82q-.44-3.44-.88-6.87C64,76.86,61.51,76.93,60,77.19l-7.86,1.42L36.43,81.44q2.1,3.66,4.22,7.32A37.35,37.35,0,0,1,61.81,78.35c-.77-2.81-1.53-5.62-2.3-8.44a140.92,140.92,0,0,1-16.24,1.88L47,78.37c1.35-1.94,3.79-3.51,6-2,2.6,1.85,4.72,4.66,7.18,6.73A85.56,85.56,0,0,0,77.74,94.67c2.26,1.11,5.88.39,6.37-2.61,1.13-6.82-2-12.35-6.61-17.17-2.41-2.53-5-4.89-7.62-7.19s-5.1-4.57-8.41-5.35-7.18.28-10.58.89-7.25.9-10.6,1.95-4.74,4.09-6.23,7.13q-2.6,5.28-5.17,10.56C26.46,87.91,33.94,92.34,36.41,87.29Z" transform="translate(0 0)"/><path class="cls-5" d="M15.64,41.25a39.27,39.27,0,0,1-1.82,11.18c-1.2,3.85,4.77,5.5,6,1.66a45.39,45.39,0,0,0,2-12.84C21.9,37.23,15.71,37.23,15.64,41.25Z" transform="translate(0 0)"/><path class="cls-5" d="M15.71,49.76q0-10.56-.08-21.12c0-4-6.2-4-6.19,0q0,10.56.07,21.12C9.53,53.78,15.73,53.78,15.71,49.76Z" transform="translate(0 0)"/><path class="cls-6" d="M41.19,57.07c4,0,4-6.25,0-6.25S37.19,57.07,41.19,57.07Z" transform="translate(0 0)"/><path class="cls-6" d="M38.34,40.51c-3.65,4.55-9.79,14.55-4.46,19.88,2.53,2.54,6.88,2.74,10.22,3,3.18.25,7.06.73,10.19-.11,8.79-2.38,8.05-13.12,6.06-20-1.07-3.72-2.83-6.94-6.6-8.34-3-1.1-6.64-1.11-9.78-1.2-4.48-.13-7.59,1.25-8.89,5.84a30.49,30.49,0,0,0-.59,12c.38,2.88,3.17,5.29,6.06,3.5,4.57-2.81,3.93-7.4,4.92-12H37.7c1.44,4.3,2.83,8.6,3.86,13,.78,3.39,5.71,4,7.36,1a30,30,0,0,0,3.34-10.36c.69-5-6.23-7.33-7.77-2.17a24.75,24.75,0,0,0-1,7.25c0,4.25,5.29,5.25,7.5,2.05,2-2.82,2.37-6.08,3.21-9.33H46.47c.32,2.17.27,4.38.57,6.57.48,3.51,5.85,3.84,7.36,1,.46-.88.93-1.72,1.32-2.64l-7.36-3.13c-.44,1.91-.89,3.82-1.26,5.74-.71,3.68,3.83,7.21,6.73,4l.61-.68L47.56,52.3a6.92,6.92,0,0,0,.07,3c1.53,3.71,6.33,4,7.77,0l.12-.33c1.79-4.92-6-7-7.76-2.17,0,.12-.08.23-.13.34H55.4c.46,1.11.17-.32.22-.88.28-3.48-4.62-5.4-6.88-2.87l-.61.68q3.36,2,6.73,4c.37-1.92.82-3.83,1.26-5.74,1-4.24-5.46-7.54-7.36-3.13-.4.92-.86,1.75-1.33,2.64l7.36,1c-.29-2.18-.24-4.38-.57-6.57-.6-4.1-6.83-3.63-7.76,0-.66,2.56-.86,5.19-2.4,7.4l7.51,2a16.56,16.56,0,0,1,.67-5.1l-7.77-2.16a23.82,23.82,0,0,1-2.53,8.42l7.36,1c-1-4.42-2.42-8.72-3.85-13-1.19-3.55-6.88-4.16-7.77,0-.31,1.46-.16,6.5-1.22,7.16l6.06,3.51a28.69,28.69,0,0,1,0-8.53A14.08,14.08,0,0,0,43,41.09c0,.17-1,.67-1,.68a25.27,25.27,0,0,0,3.94.12c1.66.12,4.63-.18,5.75,1.17,1.46,1.76,1.85,5.86,1.91,8.1s-.08,4.25-2.71,4.33a58.42,58.42,0,0,1-8.67-.41c-.66-.09-2.22-.69-2.7-.53-.62-.37-.54-.25.22.38.17.78.22.8.16,0a9.14,9.14,0,0,0,.31-1.43,20.9,20.9,0,0,1,1.93-4.38c.33-.58.67-1.16,1-1.72.11-.18,1.11-1.59.8-1.19C47.26,42.23,41.6,36.44,38.34,40.51Z" transform="translate(0 0)"/><path class="cls-6" d="M31.52,37.76c.13,5.17,0,10.45.42,15.6.38,4.43,3,8.53,7.84,8.4,5.17-.15,5.19-8.27,0-8.13.47,0,.13-2.15.1-3l-.09-4.11c-.08-2.93-.15-5.87-.22-8.8C39.44,32.54,31.39,32.52,31.52,37.76Z" transform="translate(0 0)"/><path class="cls-6" d="M38.22,59.57c-.09,2.55-.21,5.69,2,7.43s5.36,1.21,7.9,1.23c5.29.06,12,.62,13.73-5.83,1.35-5.06-6.41-7.21-7.76-2.16,0,0-5.49-.13-6-.13a27.11,27.11,0,0,0-3.25,0q-3-.33,1.41,1.71c0-.73,0-1.47,0-2.2C46.46,54.34,38.4,54.35,38.22,59.57Z" transform="translate(0 0)"/><path class="cls-6" d="M8.42,58.85,12,58.61l1.57-.1.79,0c.47,0,.52,0,.14,0l-2.4-1.87.23.43c-.18-.68-.36-1.37-.55-2a27.62,27.62,0,0,1-.19,4.26,18.3,18.3,0,0,1-.33,3.29L12.67,61l.12,0h2.14c-.4-.09-1.15-1.81-1.38-2.26a14.72,14.72,0,0,1-1.19-3.65c-1.09-5.13-8.85-3-7.78,2.14a20.09,20.09,0,0,0,4.58,9.43c3,3.13,8.43,3.12,9.68-1.69a37.23,37.23,0,0,0,.76-5.76c.17-1.87.53-4-.16-5.82-1.7-4.45-7.39-2.91-11-2.67a4.14,4.14,0,0,0-4,4.07A4.1,4.1,0,0,0,8.42,58.85Z" transform="translate(0 0)"/><path class="cls-6" d="M11,52.56c-.3-2.47-1.7-5-1.66-7.49s1.67-.13,2.13.93c.66,1.56,2.91,1.88,4.23,1.12,1.6-.92,1.77-2.73,1.11-4.28C15,38.52,9.29,35.61,5.41,39.28a8,8,0,0,0-2.26,5.78c0,2.65,1.34,4.93,1.65,7.5a3.22,3.22,0,0,0,3.1,3.12C9.42,55.7,11.19,54.24,11,52.56Z" transform="translate(0 0)"/><path class="cls-7" d="M8.75,72.26a39.29,39.29,0,0,0,10.59-1A4.37,4.37,0,0,0,17,62.84a30.39,30.39,0,0,1-8.29.67,4.38,4.38,0,0,0,0,8.75Z" transform="translate(0 0)"/><path class="cls-7" d="M3.1,70.52c-.52,7.62,1.33,19.7,11.09,20.08,10.5.41,10.17-13,9.34-20.22C23,65.86,16.21,64,15,69.22a33.32,33.32,0,0,1-3.1,8.39H19.4l-3-5.72c-1.81-3.48-6.85-2.37-7.93,1a13.39,13.39,0,0,0-.59,5.11c.37,4.55,7.59,6.36,8.52,1.16a27.48,27.48,0,0,0,.49-5.65l-8.07,2.2.36.83c1,2.18,4.06,2.65,5.94,1.57,2.21-1.27,2.5-3.84,1.55-6l-.37-.84c-1.79-4-8.18-1.9-8.07,2.21a15.36,15.36,0,0,1-.19,3.32L16.59,78a6.14,6.14,0,0,1,.28-2.79L9,76.29l3,5.72a4.35,4.35,0,0,0,7.49,0,42.71,42.71,0,0,0,4-10.48l-8.51-1.17C15,71.79,16,81.82,14.35,81.8c-3.17,0-2.68-9.62-2.57-11.29C12.15,64.9,3.48,64.93,3.1,70.52Z" transform="translate(0 0)"/><path class="cls-7" d="M5.58,67.17a27.74,27.74,0,0,0-2.38,20c1.64,6.3,5.81,13,12.77,13.75S27.21,96,28,89.63c.89-7.3-.66-15.19-3-22.09-1.28-3.8-7.44-4.51-8.37,0-.76,3.68-.27,7,.12,10.68.24,2.27.52,4.92-1.29,6.57-2.21,2-4.78,3.88-3.82,7.42.88,3.25,4.92,4.58,7.82,5.07,5.46.92,7.8-7.51,2.3-8.44a10.49,10.49,0,0,1-2.14-.47q-3.16-2,.22,4c.7-.1,1.69-1.2,2.21-1.73a11.91,11.91,0,0,0,3.09-6c1.05-5-1.15-9.92-.14-14.8H16.64a51.89,51.89,0,0,1,2.82,14.37c.1,2.1.71,7.81-2.34,8-3.46.27-5.28-5.91-5.8-8.41a18.38,18.38,0,0,1,1.74-12.27C15.68,66.62,8.2,62.19,5.58,67.17Z" transform="translate(0 0)"/><path class="cls-3" d="M30.48,32.71c1.81,10.95,24.07,6,21.1-5-1.33-5-7.54-7.46-12.2-7.59-5.42-.16-9.59,3.1-11.6,8-1.1,2.65,1.18,5.84,3.68,6.54,3,.84,5.38-1.05,6.48-3.71-.33.8,0-.12.6-.17.28,0,.56,0,.85,0a4.22,4.22,0,0,1,1.56.39c1.09.45.95,1.23.58-.22V28c.13-.94,1-.55-.85-.09a2.78,2.78,0,0,1-1.37.17c-.91.2-.46.79,1.34,1.77-.47-2.84-3.94-4.42-6.48-3.72C31.18,27,30,29.88,30.48,32.71Z" transform="translate(0 0)"/><path class="cls-3" d="M31.22,20.86C24.84,24.24,26.88,34.72,32.31,38c3.7,2.27,7,.87,10.58-.8a7.85,7.85,0,0,1,7.9.47c5.8,3.57,11.1-5.62,5.31-9.17a18.46,18.46,0,0,0-13.19-2.45c-1.58.28-4.82.92-5.79,2.23q-1.77.67,1.14,1.05a1.24,1.24,0,0,1-.14-.18c-.63.83,0-2.06-.17-1.53L36.6,30l-.07,0C42.54,26.86,37.22,17.68,31.22,20.86Z" transform="translate(0 0)"/><path class="cls-3" d="M43.61,32.14a5.82,5.82,0,0,1,5.91,2.4l8.27-6.44A14.49,14.49,0,0,0,47.29,23c-4.54-.35-7,6.06-3.73,9.07l5.19,4.79,3.72-9.07a47.58,47.58,0,0,1-17.11-.9c-2.62-.63-5.32-1-7.47,1a6.44,6.44,0,0,0-1.24,7.56c2.39,4.68,9.08,4.65,13.61,4.37a40.52,40.52,0,0,0,8.25-1.45c1.15-.32,2.92-1.2,4.14-.92.89.22.38-.33.85.76,1.12,2.64,5,3.23,7.2,1.91,2.7-1.6,3-4.62,1.89-7.27-2.27-5.34-8.47-6.62-13.58-5.6-2.55.51-5,1.52-7.58,1.84-1.86.23-6,.61-7.28-.32.64.63,1.26,1.27,1.89,1.9-.1-.19-.19-.39-.29-.58.24.89.47,1.78.71,2.68l0-.65L35,35.91c.13-.15.25-.31.38-.47L33,36.81l.6-.1h-2.8c7.29,1.52,14.2,2.6,21.67,1.71,4.15-.49,7.42-5.65,3.72-9.07L51,24.56c-1.23,3-2.48,6-3.72,9.07a4.31,4.31,0,0,1,3.06,2c3.78,4.62,11.63-1.46,8.27-6.44a16.78,16.78,0,0,0-17.81-7.27C34.17,23.28,37,33.53,43.61,32.14Z" transform="translate(0 0)"/><path class="cls-8" d="M38.47,42.6a15,15,0,0,1-2.07,3.68,8.37,8.37,0,0,0-1.53,4c-.13,2.55,2.36,5.07,4.9,3.85a.93.93,0,0,0-.94-1.61c-.61.29-1.34-.22-1.7-.7A2.88,2.88,0,0,1,37,49.18a12.62,12.62,0,0,1,1.67-2.92,11.47,11.47,0,0,0,1.6-3.16A.93.93,0,0,0,38.47,42.6Z" transform="translate(0 0)"/><path class="cls-9" d="M39.68,61.32a9.49,9.49,0,0,0,6.66-.69,3.12,3.12,0,0,0-3.13-5.4c.53-.24-.29.08-.35.1s-.88.06-.33.08c-.29,0-.58,0-.87,0,.54,0-.16-.06-.33-.1a3.14,3.14,0,0,0-3.81,2.18A3.18,3.18,0,0,0,39.68,61.32Z" transform="translate(0 0)"/><path class="cls-6" d="M10.78,43.31c-3.25-.59-6.79-.65-9,2.31S1,52.24,3.54,54.34a3.17,3.17,0,0,0,4.38,0,3.17,3.17,0,0,0,0-4.42,4.08,4.08,0,0,1-1-1c0,.15,0,.13,0-.07s-.06-.23,0,0V49c-.36.52-.41.65-.17.38,0-.07.21-.17-.07,0a2.19,2.19,0,0,1,.68-.17,6.44,6.44,0,0,1,1.75.19,3.13,3.13,0,0,0,1.65-6Z" transform="translate(0 0)"/><path class="cls-6" d="M6.56,49.93a3.27,3.27,0,0,0-4-.54A3.63,3.63,0,0,0,1,51.56a3.51,3.51,0,0,0,.9,3.34,3.9,3.9,0,0,0,1.61.93,8.28,8.28,0,0,0,1.2.18l-.82-.11a2.57,2.57,0,0,1,.38.08l-.74-.31a.39.39,0,0,1,.11.06L3,55.24l.09.1-.48-.63a1.31,1.31,0,0,1,.09.17c-.11-.25-.21-.5-.31-.75l0,.12c0-.27-.07-.56-.11-.83a.21.21,0,0,1,0,.11c0-.27.07-.55.11-.83a.29.29,0,0,1,0,.1c.11-.25.21-.5.31-.74l0,0,.48-.63s0,0,0,0L3.76,51l0,0,.74-.31H4.39a3.17,3.17,0,0,0-1.85,1.44,3.22,3.22,0,0,0-.31,2.41,3.16,3.16,0,0,0,1.42,1.86A3.32,3.32,0,0,0,6,56.76a3.39,3.39,0,0,0,1.47-.84,3.43,3.43,0,0,0,.7-3.82,3.66,3.66,0,0,0-1.48-1.77,4.93,4.93,0,0,0-2.13-.56l.83.11a1.75,1.75,0,0,1-.38-.09l.74.32S5.69,50,5.64,50l.63.49,0-.05.48.64,0,0c.1.25.21.5.31.74a.26.26,0,0,1,0-.11c0,.27.08.55.11.83v-.06C7,52.7,7,53,7,53.26a1,1,0,0,1,0-.18l-.31.75.06-.1-.48.63,0,0-.63.49.08-.05L5,55.07H3.48l-.74-.31,0,0-.62-.49,0,0a3.17,3.17,0,0,0,2.2.91,3.09,3.09,0,0,0,3.09-3.12A3.36,3.36,0,0,0,6.56,49.93Z" transform="translate(0 0)"/><path class="cls-6" d="M16.2,41.76a2.63,2.63,0,0,0-.39-.06h-.08l-.39.05-.08,0a2,2,0,0,0-.78.47s0,0-.05.05a3.65,3.65,0,0,0-.24.31A1.56,1.56,0,0,0,14,43a1.65,1.65,0,0,0-.08.47.22.22,0,0,0,0,.08A2.73,2.73,0,0,0,14,44a1,1,0,0,0,.22.42,1,1,0,0,0,.35.33,1,1,0,0,0,.46.15.92.92,0,0,0,.49,0l.3-.12a1.49,1.49,0,0,0,.45-.45l.12-.3a1.27,1.27,0,0,0,0-.67s0,0,0,0,0,.22,0,.33a.24.24,0,0,1,0-.12c0,.11,0,.22,0,.33a.74.74,0,0,1,0-.14l-.12.3a.39.39,0,0,1,.08-.14l-.2.25.13-.13-.25.2.14-.08-.29.12.14,0-.32,0h.13l-.33,0,.05,0a.94.94,0,0,0,.5,0,.77.77,0,0,0,.46-.15,1,1,0,0,0,.34-.32.9.9,0,0,0,.23-.43c0-.11,0-.22,0-.33a1.17,1.17,0,0,0-.17-.63l-.19-.25A1.29,1.29,0,0,0,16.2,41.76Z" transform="translate(0 0)"/><path class="cls-9" d="M14.84,41.32a2.52,2.52,0,0,0-.61.11,2.48,2.48,0,0,0-.57.27l-.35.27-.11.12c-.1.11-.19.23-.28.35l-.09.15a1.23,1.23,0,0,0-.16.63,1,1,0,0,0,.1.48.9.9,0,0,0,.26.4,1.15,1.15,0,0,0,.54.32l.18,0a4,4,0,0,0,.5.06h.17a3,3,0,0,0,.5-.07.52.52,0,0,0,.16-.06,3.62,3.62,0,0,0,.45-.2,4.73,4.73,0,0,0,.39-.28l.13-.13a.87.87,0,0,0,.26-.4.89.89,0,0,0,.1-.48,1,1,0,0,0-.1-.48.9.9,0,0,0-.26-.4,1.23,1.23,0,0,0-.87-.37l-.33,0a1.34,1.34,0,0,0-.54.32,1,1,0,0,1-.15.14l.25-.19a1.1,1.1,0,0,1-.26.15l.3-.13a1.17,1.17,0,0,1-.32.09l.33,0a.81.81,0,0,1-.31,0l.33,0a.77.77,0,0,1-.23-.06c.24.61.49,1.23.74,1.84a1.74,1.74,0,0,1,.11-.18c-.06.09-.13.17-.19.25a2.39,2.39,0,0,1,.22-.23l-.25.2a1.61,1.61,0,0,1,.28-.17l-.29.13a1.38,1.38,0,0,1,.29-.08l-.33,0h0a1.08,1.08,0,0,0,.47-.11.9.9,0,0,0,.4-.26A.94.94,0,0,0,16,43a1,1,0,0,0,.11-.48c0-.11,0-.22-.05-.33a1.31,1.31,0,0,0-.31-.55l-.25-.19A1.32,1.32,0,0,0,14.84,41.32Z" transform="translate(0 0)"/><path class="cls-9" d="M10.1,44.45a1.7,1.7,0,0,0-.66.67c-.06.12-.11.24-.16.37s0,0,0,.08L9.2,46v.18l.06.41a2.75,2.75,0,0,0,.18.46.54.54,0,0,0,.09.15,1.8,1.8,0,0,0,.3.37,3.65,3.65,0,0,0,.31.24,2,2,0,0,0,.37.16l.08,0h0L11,48h.09a2.11,2.11,0,0,0,.35-.05h.05a3,3,0,0,0,.36-.15l.08,0a2,2,0,0,0,.36-.29,2.82,2.82,0,0,0,.29-.39c.06-.12.1-.24.15-.36a.16.16,0,0,0,0-.09,2,2,0,0,0,.08-.49,2.24,2.24,0,0,0-.05-.52,2.64,2.64,0,0,0-.17-.47.56.56,0,0,1,0-.08,2.92,2.92,0,0,0-.21-.28l0,0a1.31,1.31,0,0,0-.4-.3.79.79,0,0,0-.46-.15.85.85,0,0,0-.5,0,.87.87,0,0,0-.42.23.91.91,0,0,0-.32.35l-.12.3a1.06,1.06,0,0,0,0,.66l.12.3a1.21,1.21,0,0,0,.45.45l.09.05-.25-.19.09.09c-.06-.08-.13-.16-.19-.25a.67.67,0,0,1,.06.12l-.12-.3a.38.38,0,0,1,0,.17c0-.11,0-.22,0-.33a.74.74,0,0,1,0,.21c0-.12,0-.22,0-.33a.9.9,0,0,1-.06.22c.05-.1.08-.2.13-.3a.86.86,0,0,1-.1.16l.19-.25a.57.57,0,0,1-.11.11l.25-.19-.1.06.29-.13a.42.42,0,0,1-.12,0l.33,0H11l.33,0-.12,0,.29.12a.39.39,0,0,1-.11-.06l.24.19-.1-.11.19.25a.69.69,0,0,1-.1-.17l.12.3a.65.65,0,0,1-.06-.21c0,.11,0,.22,0,.33a.41.41,0,0,1,0-.22c0,.12,0,.22,0,.34a1.09,1.09,0,0,1,0-.17c0,.1-.08.2-.13.3l.07-.12c-.06.09-.13.17-.19.25a.6.6,0,0,1,.08-.08l-.25.2.08,0a1,1,0,0,0,.35-.33,1,1,0,0,0,.22-.42,1.06,1.06,0,0,0,0-.5,1,1,0,0,0-.15-.47c-.06-.08-.13-.16-.19-.25a1.21,1.21,0,0,0-.55-.31l-.33,0A1,1,0,0,0,10.1,44.45Z" transform="translate(0 0)"/><path class="cls-9" d="M5.69,50l0,0s0,.3,0,.34h0a1.25,1.25,0,0,0,0,.19,1,1,0,0,0,.15.48v0s.18.24.19.25H6a1.86,1.86,0,0,0,.28.21,0,0,0,0,0,0,0l.3.12h0l.36.05H7l.37-.05.06,0a1.64,1.64,0,0,0,.33-.14s0,0,0,0l.13-.1.12-.1h0s0,0,0,0h0L8.29,51h0a1,1,0,0,0,.14-.33,1.32,1.32,0,0,0,0-.34h0s0-.32,0-.33,0,0,0,0a1.69,1.69,0,0,0-.13-.31s0,0,0,0a.64.64,0,0,0-.1-.13l-.1-.14h0a.94.94,0,0,0-.4-.25A.81.81,0,0,0,7.2,49a.86.86,0,0,0-.47.11.88.88,0,0,0-.4.25l-.19.25a1.29,1.29,0,0,0-.17.63c0,.12,0,.22,0,.33a1.31,1.31,0,0,0,.32.55v0l-.19-.25s0,0,0,0l-.12-.3v0c0-.11,0-.22,0-.33v0c0-.11,0-.22,0-.33v0l.12-.3s0,0,0,0l.19-.25s0,0,0,0a2.43,2.43,0,0,0,.25-.2l-.05,0,.29-.13-.08,0,.33-.05a.14.14,0,0,1-.09,0l.33.05,0,0,.3.13h0l.24.19h0l.19.25v0l.12.3s0,0,0,0,0,.22,0,.33v0c0,.11,0,.22,0,.33s0,0,0,0a1.06,1.06,0,0,0,0-.5.93.93,0,0,0-.15-.46,1,1,0,0,0-.32-.35.85.85,0,0,0-.42-.22l-.33-.05a1.29,1.29,0,0,0-.63.17L6,49.44A1.38,1.38,0,0,0,5.69,50Z" transform="translate(0 0)"/><path class="cls-10" d="M11.3.6A6.14,6.14,0,0,0,5.41.92,6,6,0,0,0,2.67,6.08a6,6,0,0,0,3,5.13,6.11,6.11,0,0,0,5.92,0,7.27,7.27,0,0,0,3.75-5.47A5.3,5.3,0,0,0,11.84.63,5.85,5.85,0,0,0,5.61,2.11a4.72,4.72,0,0,0-.1,6.14,4.28,4.28,0,0,0,6.15.16,4.14,4.14,0,0,0-.75-6.17c-.39.95-.79,1.91-1.19,2.86l.51.19a1.56,1.56,0,0,0,1.91-1.1,1.61,1.61,0,0,0-1.08-1.92l-.52-.19A1.52,1.52,0,0,0,8.72,3a1.58,1.58,0,0,0,.63,2c.25.17,0-.05-.06-.05s.16.15.16.15c.18.16-.07-.07,0-.07s.08.12.09.14c.19.31,0-.24.06.12a.88.88,0,0,0,0,.15l0,.16c0,.12,0,.07,0-.15,0,0,0,.36,0,.39,0,.38.07-.19,0,.06a1.66,1.66,0,0,0-.06.21c-.08.31,0-.09,0-.07a.78.78,0,0,1-.11.18c-.11.23.15-.08,0,0s-.32.27-.06.09c-.09.07-.28.23-.39.23s.28-.08.11-.06a1.87,1.87,0,0,0-.22.07s-.29.06-.07,0-.1,0-.14,0-.46,0-.24,0-.24-.07-.29-.09L8,6.36c.28.2.13.06.07,0l-.2-.12c.17.09.15.14,0,0l-.16-.17c-.13-.11,0,.06,0,.08-.07-.14-.16-.27-.23-.42.15.31,0-.08,0-.2s-.07-.24,0,0,0-.09,0-.16a3.85,3.85,0,0,1,0-.48c0,.32,0,0,.05-.12s.09-.3,0-.1,0,0,0-.09.07-.11.09-.16c.17-.31-.2.19.07-.1L8.15,4c.12-.12,0,0,0,0l.23-.16a4.74,4.74,0,0,1,.5-.26c-.27.11.21-.06.3-.08s.6-.11.28-.08a3.62,3.62,0,0,1,.57,0h.21c.05,0,.33.05.14,0s.1,0,.14,0l.34.09c.06,0,.27.12,0,0l.19.1.23.13s.26.17.1.06,0,0,.05,0,.13.11.18.17l.18.19c.19.2,0-.1,0,0s.15.25.23.38,0,0,0,0a2.25,2.25,0,0,1,.08.24,4.05,4.05,0,0,1,.12.5c-.07-.31,0,.1,0,.25s0,.06,0,0a1.18,1.18,0,0,1-.06.27,3.23,3.23,0,0,1-.14.47c-.07.22.11-.18,0,0,0,0-.06.12-.1.18s-.23.37-.34.55.14-.16,0,0-.12.15-.19.22-.23.25-.34.37l-.44.41,0,0-.24.17c-.17.11-.34.2-.52.3s-.28.11,0,0l-.23.09a2.73,2.73,0,0,1-.41.1c-.06,0-.32.05-.1,0s-.14,0-.15,0H8.49l-.24,0c-.23,0,.27.07.05,0l-.41-.09-.24-.07s-.37-.13-.16,0,0,0-.09-.05L7.24,8.5c-.15-.08-.28-.17-.42-.26s-.2-.18,0,0l-.13-.12c-.14-.12-.26-.26-.39-.39.23.24-.06-.09-.11-.19S6.07,7.31,6,7.18s.08.24,0,0A.85.85,0,0,0,6,7c0-.19-.1-.37-.13-.55s-.06-.32,0-.1,0-.13,0-.17a5.37,5.37,0,0,1,0-.57c0-.06,0-.13,0-.19,0,.39,0,0,0-.08S5.92,5,6,4.89s0,0,0,0a1.43,1.43,0,0,1,.13-.28,4.85,4.85,0,0,1,.29-.49c-.18.27.08-.07.16-.15s.12-.11.17-.17.31-.23.13-.11l.09-.06.26-.16c.12-.06.49-.21.18-.1l.52-.18c.11,0,.62-.11.25-.07.18,0,.36,0,.55,0s.64.07.25,0a3.86,3.86,0,0,1,.49.09l.23.07c.08,0,.42.18.08,0a1.58,1.58,0,0,0,2.12-.56A1.58,1.58,0,0,0,11.3.6Z" transform="translate(0 0)"/><path class="cls-10" d="M5.46,8.37A57,57,0,0,0,.05,21.59a1.59,1.59,0,0,0,1.08,1.93c2.78.62,3.47-2.94,4.18-4.86l2.55-7a1.55,1.55,0,1,0-3-.83c-.68,1.85-1.35,3.68-2,5.53L1.88,19c-.18.47-.32,1-.53,1.43.1-.22-.15.26-.15.24,0-.25,1.21-.09.75-.19L3,22.43A53.79,53.79,0,0,1,8.13,10C9.12,8.2,6.45,6.62,5.46,8.37Z" transform="translate(0 0)"/><path class="cls-10" d="M6.21,15.09s.24,0,0,0a.76.76,0,0,0,.16,0l.33.09.14,0c.1,0,0,0,0,0l.08,0a2.11,2.11,0,0,1,.3.16l.14.09.07.05,0,0a2.75,2.75,0,0,1,.26.22A3,3,0,0,1,7.9,16c.07.08-.06-.09,0,0a.35.35,0,0,1,0,.08l.1.15.53-.94a3.25,3.25,0,0,1-.54,0l-.25,0c.17,0,.05,0,0,0l-.14,0a4.67,4.67,0,0,1-.5-.14l-.12,0H7L6.75,15c-.11.38-.22.77-.31,1.16H6.5c-.14,0-.13,0-.08,0l.12,0c.06,0,.17.08,0,0l.11.06c.15.08.3.17.45.24A1.24,1.24,0,0,0,9,15.24,1.6,1.6,0,0,0,8.29,14a3.4,3.4,0,0,0-1.53-.42v1.25h.36s.15,0,0,0l.22,0,.08,0c.15.05-.1,0,0,0l.08,0,0,0c-.08-.07-.11-.08-.07,0l.07.08c-.11-.09-.06-.1,0,0l0,.05c0-.1,0-.12,0-.05v0c0,.06,0,0,0-.08v.12c0,.05,0,0,0-.09l0,.06a.32.32,0,0,1,0,.09c0-.1,0-.11,0-.06l0,.06-.06.08,0-.05s0,0,0,0l-.09.08c-.09.08.11-.08,0,0l-.11.07c-.12.07.12,0,0,0l-.28.07c-.12,0,.15,0,0,0H6.78a3.88,3.88,0,0,1-.59,0,.63.63,0,0,0,0,1.25,4.09,4.09,0,0,0,1.21-.05,1.81,1.81,0,0,0,1-.72,1.34,1.34,0,0,0-.57-2.08,3,3,0,0,0-1.12-.19.63.63,0,0,0-.62.63.65.65,0,0,0,.62.62h.13s.16,0,.05,0H7l.15,0L7.4,15l.1,0s.1,0,0,0,0,0,0,0a2.12,2.12,0,0,1,.2.12l-.06-.05.06.05.07.08c-.13-.13-.07-.08,0,0l0,.09s0-.14,0-.09v0a.45.45,0,0,1,0,.11c0,.09,0-.16,0-.06a.27.27,0,0,1,0,.09c0,.07,0,.14,0,0,0,0,0,.06,0,.09s0,0,0,.05l0-.09,0,.07c0,.07,0-.07.05-.07l0,0,0,0c-.06.07.12-.08.06,0s-.11,0,0,0,0,0,0,0,.15,0,.09,0h-.1s.17,0,.08,0l-.1,0s-.12,0,0,0l0,0-.11-.06a2.67,2.67,0,0,0-1.15-.42.63.63,0,0,0-.6.46.65.65,0,0,0,.29.71,4.31,4.31,0,0,0,2.44.52.65.65,0,0,0,.53-.31.62.62,0,0,0,0-.63,3.69,3.69,0,0,0-2.89-1.77.64.64,0,0,0-.62.63A.62.62,0,0,0,6.21,15.09Z" transform="translate(0 0)"/><path class="cls-10" d="M6.11,18.76l0,0-.12.1.07,0L6,18.84l.09,0-.17,0H6l-.17,0,.14,0-.15-.07a.57.57,0,0,1,.13.08l-.13-.1a.38.38,0,0,1,.11.11.64.64,0,0,0-.1-.13l.06.11-.06-.15a.35.35,0,0,1,0,.12.86.86,0,0,0,0-.17.4.4,0,0,1,0,.11l0-.17a.54.54,0,0,1,0,.15.94.94,0,0,0,.06-.15.53.53,0,0,1-.08.15l.1-.12-.15.14.13-.1-.2.11.15-.06-.22.06.16,0a1,1,0,0,1-.3,0l.17,0a2.53,2.53,0,0,1-.49-.14l.15.06-.36-.17a.61.61,0,0,0-.75.1.65.65,0,0,0-.1.75,1.82,1.82,0,0,0,1.06.81,1.58,1.58,0,0,0,.75,0,1.46,1.46,0,0,0,.61-.33A1.33,1.33,0,0,0,7,18.75,1.23,1.23,0,0,0,6.65,18a1.38,1.38,0,0,0-.52-.34,1.18,1.18,0,0,0-1.27.27.67.67,0,0,0-.18.45.65.65,0,0,0,.18.44.63.63,0,0,0,.88,0l.07-.07-.12.1.1-.06-.15.06a.28.28,0,0,1,.13,0l-.17,0a.54.54,0,0,1,.18,0l-.17,0a.61.61,0,0,1,.18.05l-.15-.07.16.1-.12-.1.1.1a1.13,1.13,0,0,0-.1-.13.33.33,0,0,1,.07.13.94.94,0,0,0-.06-.15s0,.1,0,.15a.92.92,0,0,0,0-.16.49.49,0,0,1,0,.17c0-.06,0-.11,0-.17a1.29,1.29,0,0,1,0,.19.94.94,0,0,1,.06-.15,1.18,1.18,0,0,1-.11.19l.09-.12a.58.58,0,0,1-.16.15l.13-.1a.64.64,0,0,1-.18.1L5.69,19A1.06,1.06,0,0,1,5.5,19l.17,0H5.43a.9.9,0,0,1,.16,0l-.26-.07.15.06a1.35,1.35,0,0,1-.26-.15l.13.1a1.36,1.36,0,0,1-.24-.24,1.13,1.13,0,0,0,.1.13.33.33,0,0,1-.06-.1l-.85.86.55.26a2.31,2.31,0,0,0,.59.14,1.51,1.51,0,0,0,1-.24,1.29,1.29,0,0,0,.61-1.05,1.14,1.14,0,0,0-.56-1,1,1,0,0,0-1.26.13.63.63,0,0,0,0,.88A.62.62,0,0,0,6.11,18.76Z" transform="translate(0 0)"/></g></g></g></svg>