<svg width="233" height="233" viewBox="0 0 233 233" fill="none" xmlns="http://www.w3.org/2000/svg">
<mask id="mask0" mask-type="alpha" maskUnits="userSpaceOnUse" x="0" y="0" width="233" height="233">
<rect width="233" height="233" fill="#C4C4C4"/>
</mask>
<g mask="url(#mask0)">
<path fill-rule="evenodd" clip-rule="evenodd" d="M108.3 198.271C66.4666 198.238 29.7057 169.545 18.484 129.413C8.38764 93.3043 32.9065 59.8793 63.4333 37.8106C94.0133 15.7035 133.661 2.56812 164.807 23.6315C198.834 46.6433 211.756 90.4299 199.096 129.556C186.209 169.385 150.232 198.304 108.3 198.271Z" fill="#FF5A9A"/>
<g clip-path="url(#clip0)">
<path d="M145.94 112.21C150.176 107.985 155.238 105.318 161.058 104.076C165.826 103.063 163.807 95.6835 159.039 96.7063C151.996 98.2069 145.684 101.715 140.575 106.809C137.106 110.27 142.461 115.67 145.94 112.21Z" fill="#F5DCB6"/>
<path d="M149.56 112.621C152.783 109.371 156.299 106.599 160.214 104.248C164.404 101.734 160.593 95.1196 156.385 97.6431C151.939 100.31 147.845 103.521 144.195 107.221C140.745 110.7 146.11 116.11 149.56 112.621Z" fill="#F5DCB6"/>
<path d="M71.3412 119.503C73.1895 120.239 75.0283 120.975 76.8766 121.702C76.1184 119.828 75.3696 117.955 74.6113 116.082C75.0283 115.107 76.3648 115.183 74.8672 115.556C74.289 115.699 73.635 115.929 73.1042 116.225C71.9952 116.856 70.981 117.993 70.6492 119.265C69.8436 122.333 73.6729 125.239 72.507 127.944C71.2085 130.974 70.0995 125.219 69.7109 124.158C69.455 123.451 69.2749 122.342 68.8673 121.778C68.8199 121.081 68.3554 120.813 67.4645 120.975C66.1375 120.22 65.8057 120.478 66.4787 121.731C66.4503 123.537 67.237 125.602 67.3792 127.447C68.981 126.213 70.5829 124.99 72.1753 123.757C72.6492 124.264 73.1231 124.77 73.5876 125.267C74.0046 120.364 66.4123 120.392 66.0048 125.267C65.7583 128.192 67.5972 130.171 70.1564 131.127C72.3743 131.958 75.1326 129.788 74.9525 127.437C74.5639 122.247 73.0568 110.337 64.9147 114.715C61.9195 116.321 60.7631 119.542 61.3413 122.792C61.8721 125.822 63.1612 129.683 64.6588 132.379C67.9384 138.295 76.0804 137.54 79.1041 131.786C80.7344 128.67 80.3268 124.923 78.9524 121.798C78.7723 121.329 78.5543 120.88 78.2984 120.45C77.6728 119.035 77.1041 119.886 76.5733 123.002C76.7913 123.088 77.5307 122.744 77.7676 122.686C79.1894 122.333 80.5638 121.291 81.1515 119.934C82.2036 117.496 81.36 115.298 78.8861 114.313C77.0378 113.577 75.1989 112.841 73.3506 112.115C68.8104 110.327 66.8389 117.716 71.3412 119.503Z" fill="#F8EBCA"/>
<path d="M129.229 128.326C132.688 126.777 137.845 125.64 139.636 121.922C140.707 119.685 141.191 119.36 143.484 118.462C144.337 118.576 144.489 118.232 143.949 117.439C143.589 117.812 143.238 118.184 142.878 118.557C141.494 119.312 140.176 120.985 138.897 121.912C136.3 123.786 136.489 127.905 139.807 128.899C145.513 130.61 152.224 127.676 153.939 121.635C155.664 115.556 151.418 108.951 145.352 107.804C139.361 106.667 129.977 110.92 130.65 118.108C131.352 125.544 140.66 125.353 145.465 122.409C143.93 120.412 142.404 118.404 140.868 116.407C135.655 121.845 127.93 121.148 122.707 126.233C124.869 127.131 127.02 128.039 129.181 128.938C129.068 126.758 128.755 124.942 127.968 122.897C126.205 118.356 119.703 120.029 120.66 124.933C121.324 128.326 122.888 132.121 126.47 133.248C128.338 133.832 129.996 133.306 131.75 132.675C133.522 132.035 135.778 131.442 137.266 130.218C139.864 128.077 139.911 124.168 138.148 121.492C135.466 117.42 130.641 117.783 126.47 118.853C127.447 121.186 128.414 123.508 129.39 125.841C132.868 124.206 136.394 123.518 140.224 123.537C145.105 123.547 145.115 115.9 140.224 115.89C135.001 115.881 130.281 117.028 125.57 119.245C121.58 121.119 124.452 127.274 128.489 126.233C130.395 125.745 134.688 123.786 130.451 124.847C128.243 125.401 128.432 125.296 127.968 122.906C125.532 123.585 123.096 124.264 120.66 124.942C121.295 126.194 121.608 127.533 121.608 128.957C121.788 132.235 125.636 134.032 128.082 131.662C130.527 129.282 134.518 129.167 137.57 127.905C140.916 126.519 143.74 124.445 146.243 121.836C149.19 118.767 145.409 113.529 141.646 115.833C140.527 116.751 139.247 117.037 137.816 116.703C138.195 116.712 138.565 116.732 138.944 116.741C141.077 115.68 143.627 114.332 145.636 116.321C148.593 119.255 145.077 122.514 141.835 121.539C142.138 123.872 142.442 126.194 142.745 128.527C145.968 126.194 151.105 122.801 152.138 118.672C153.162 114.571 149.769 111.207 145.968 110.758C142.527 110.346 137.883 111.379 135.314 113.826C133.968 115.107 133.835 117.018 132.726 118.261C131.333 119.828 127.314 120.889 125.428 121.731C120.944 123.719 124.802 130.304 129.229 128.326Z" fill="#F8EBCA"/>
<path d="M140.403 127.791C138.622 127.007 137.2 125.65 136.347 123.891C136.148 123.489 136.005 123.069 135.882 122.639C135.825 122.438 135.75 122.228 135.74 122.027C135.721 121.769 135.787 121.759 136.072 121.606C137.01 121.109 138.129 121.071 139.162 121.119C141.171 121.205 143.721 121.989 145.541 120.775C146.337 120.24 146.801 119.379 146.735 118.404C146.669 117.515 146.166 116.598 145.256 116.349C144.062 116.024 143.181 116.837 142.489 117.688C141.835 118.49 141.029 119.016 139.958 118.749C138.773 118.462 138.271 120.297 139.456 120.593C140.498 120.851 141.569 120.727 142.517 120.201C142.944 119.972 143.323 119.637 143.636 119.274C143.901 118.968 144.148 118.538 144.479 118.299C144.574 118.232 144.659 118.156 144.783 118.175C144.735 118.165 144.688 118.118 144.754 118.194C144.877 118.328 144.896 118.653 144.82 118.835C144.546 119.542 143.323 119.513 142.716 119.485C140.498 119.408 138.214 118.806 136.043 119.551C134.991 119.915 133.873 120.555 133.844 121.826C133.825 122.849 134.271 123.948 134.707 124.847C135.683 126.864 137.408 128.546 139.446 129.435C139.911 129.636 140.46 129.578 140.745 129.091C140.982 128.699 140.877 128.001 140.403 127.791Z" fill="#F5DCB6"/>
<path d="M144.707 117.602C144.678 117.63 144.64 117.659 144.612 117.678C144.678 117.63 144.735 117.582 144.802 117.525C144.451 117.793 144.081 118.013 143.674 118.185C143.749 118.156 143.825 118.118 143.901 118.089C143.494 118.261 143.076 118.376 142.64 118.443C142.422 118.481 142.176 118.701 142.072 118.882C141.949 119.083 141.901 119.389 141.977 119.618C142.053 119.848 142.195 120.077 142.413 120.192C142.489 120.221 142.565 120.259 142.64 120.287C142.811 120.335 142.972 120.335 143.143 120.287C144.223 120.125 145.2 119.628 146.043 118.94C146.223 118.796 146.318 118.481 146.318 118.261C146.318 118.022 146.214 117.745 146.043 117.582C145.863 117.42 145.626 117.296 145.37 117.305C145.285 117.315 145.2 117.324 145.114 117.343C144.963 117.401 144.821 117.477 144.707 117.602Z" fill="#F5DCB6"/>
<path d="M120.148 119.36C119.788 122.41 120.082 125.535 121.02 128.46C121.759 130.754 123.086 134.472 126.11 133.966C127.314 133.765 126.802 131.92 125.608 132.121C124.707 132.274 124.034 130.83 123.731 130.19C123.21 129.1 122.811 127.953 122.518 126.787C121.892 124.359 121.759 121.846 122.053 119.36C122.11 118.844 121.57 118.414 121.105 118.405C120.537 118.405 120.214 118.854 120.148 119.36Z" fill="#F5DC10"/>
<path d="M67.8914 147.922C66.3369 144.939 69.5881 142.024 71.8156 140.638C75.2564 138.497 79.0195 136.776 82.7068 135.104C90.2424 131.691 98.0909 128.957 106.091 126.874C110.679 125.679 115.323 124.713 119.996 123.949C121.257 123.748 121.968 122.152 121.655 121.005C121.285 119.647 120.006 119.131 118.736 119.332C109.731 120.785 100.868 123.05 92.2709 126.118C87.9485 127.657 83.702 129.407 79.5314 131.318C75.5787 133.134 71.3132 134.951 67.8251 137.589C63.9293 140.542 61.3321 145.561 63.806 150.311C65.2089 153.064 69.3037 150.646 67.8914 147.922Z" fill="#F5DC10"/>
<path d="M64.5832 152.701C70.3274 158.58 79.5408 158.637 86.7447 155.769C90.9817 154.087 94.8301 151.669 98.6785 149.25C102.679 146.736 106.773 144.461 111.105 142.578C115.996 140.447 121.067 138.745 126.101 137.015C128.973 136.031 127.74 131.414 124.84 132.408C116.214 135.362 107.522 138.373 99.6358 143.066C92.9533 147.042 86.2328 152.529 78.1474 152.854C74.4033 153.007 70.6307 152.099 67.9293 149.336C65.7871 147.128 62.441 150.512 64.5832 152.701Z" fill="#F5DC10"/>
<path d="M75.4737 151.286C81.5779 148.562 87.3408 145.264 92.8004 141.393C98.2411 137.531 93.0374 128.403 87.5399 132.312C82.0802 136.184 76.3173 139.481 70.2131 142.205C67.616 143.362 67.0662 147.128 68.3458 149.403C69.8624 152.098 72.9145 152.433 75.4737 151.286Z" fill="#F5DC10"/>
<path d="M69.6635 151.085C74.725 147.635 80.0425 145.14 85.9381 143.534C92.4119 141.775 89.6632 131.624 83.1704 133.392C76.488 135.218 70.1469 138.095 64.4029 142.005C58.8769 145.771 64.0901 154.889 69.6635 151.085Z" fill="#F5DC10"/>
<path d="M73.7582 154.737C83.4265 155.435 96.422 151.449 101.218 142.148C106.469 131.968 91.3129 123.958 87.4645 135.18C86.2228 138.812 90.2228 142.999 93.8816 141.651C96.5168 140.676 98.204 139.434 99.7206 137.025C98.2229 137.895 96.7158 138.764 95.2182 139.625C99.3225 139.988 102.763 138.392 106.289 136.451C110.109 134.348 113.825 132.58 118.015 131.337C115.872 130.114 113.74 128.89 111.598 127.667C111.797 128.709 112.166 129.569 112.735 130.458C113.01 130.812 113.275 131.165 113.55 131.519C114.432 132.704 114.384 132.417 113.417 130.649C113.929 129.407 114.432 128.173 114.944 126.931C114.214 127.753 111.408 128.011 110.356 128.326C108.375 128.919 106.422 129.55 104.507 130.334C100.962 131.796 97.8248 133.756 95.3509 136.738C91.7963 141.011 96.3746 148.495 101.673 144.997C104.071 143.41 106.526 142.091 109.171 140.963C115.332 138.334 110.024 129.273 103.91 131.882C101.266 133.01 98.8201 134.329 96.4125 135.916C98.5168 138.669 100.621 141.422 102.735 144.175C106.962 139.089 113.37 139.061 119.048 136.614C121.673 135.486 123.626 133.67 123.863 130.659C124.062 128.049 121.996 126.529 121.673 124.876C121.143 122.113 117.806 120.45 115.256 121.205C111.787 122.228 108.394 123.509 105.152 125.124C101.958 126.711 98.9244 129.445 95.2276 129.12C93.3982 128.957 91.6541 130.248 90.7252 131.72C90.8579 131.653 90.9811 131.586 91.1138 131.519C93.256 133.679 95.3888 135.83 97.531 137.99C94.5546 136.241 92.3366 136.47 90.8863 138.678C90.1186 139.434 89.2844 140.093 88.3839 140.667C87.0948 141.536 85.692 142.301 84.2512 142.865C80.8673 144.184 77.3696 144.5 73.7676 144.242C67.0661 143.745 67.0946 154.259 73.7582 154.737Z" fill="#F5DC10"/>
<path d="M121.465 120.249C120.716 122.476 121.731 124.723 122.84 126.625C124.11 128.814 125.408 130.974 126.697 133.153C126.972 132.675 127.247 132.197 127.513 131.719C127.219 131.71 127.532 131.71 127.532 131.738C127.522 131.825 127.532 131.7 127.532 131.748C127.532 131.719 127.399 131.49 127.38 131.433C127.228 131.012 127.162 130.563 127.058 130.123C126.83 129.206 126.441 128.211 125.475 127.877C123.835 127.313 123.38 129.664 123.645 130.821C124.006 132.369 125.389 133.277 126.66 134.023C127.569 134.558 128.631 133.268 127.806 132.522C126.205 131.069 125.209 129.148 124.508 127.112C124.148 126.061 123.854 125 123.579 123.92C123.285 122.763 122.84 121.521 123.143 120.326C123.437 119.131 121.617 118.624 121.314 119.819C120.953 121.243 121.295 122.639 121.645 124.025C121.949 125.229 122.271 126.434 122.679 127.609C123.484 129.942 124.622 132.188 126.47 133.86C126.849 133.363 127.238 132.857 127.617 132.36C126.963 131.977 126.242 131.595 125.787 130.974C125.475 130.553 125.247 129.836 125.645 129.397C125.342 129.483 125.029 129.559 124.726 129.645C124.84 129.664 124.906 129.741 124.878 129.683C124.811 129.54 124.963 129.789 124.887 129.683C125.02 129.865 125.039 129.951 125.105 130.161C125.257 130.63 125.333 131.127 125.456 131.605C125.74 132.666 126.328 133.602 127.522 133.631C128.242 133.65 128.697 132.799 128.337 132.197C127.171 130.228 126.015 128.269 124.849 126.3C123.882 124.665 122.631 122.734 123.304 120.765C123.693 119.59 121.863 119.093 121.465 120.249Z" fill="#F5DC10"/>
<path d="M127.067 133.201C126.83 133.679 126.584 134.157 126.347 134.635C126.233 134.864 126.186 135.123 126.252 135.371C126.309 135.591 126.479 135.83 126.688 135.945C126.906 136.059 127.171 136.117 127.418 136.04C127.645 135.964 127.873 135.82 127.987 135.6C128.224 135.123 128.47 134.645 128.707 134.167C128.821 133.937 128.868 133.679 128.802 133.431C128.745 133.211 128.574 132.972 128.366 132.857C128.148 132.743 127.882 132.685 127.636 132.762C127.408 132.838 127.181 132.981 127.067 133.201Z" fill="#F5DC10"/>
<path d="M76.023 111.742C76.9898 104.554 68.9236 105.07 64.2507 106.494C60.4782 107.651 60.8384 112.573 64.2507 113.864C64.9995 114.151 65.7293 114.552 66.3549 115.059C67.2459 112.879 68.1464 110.71 69.0373 108.53C67.2269 108.626 65.0374 108.454 63.3502 109.142C61.4735 109.907 61.0564 111.283 60.355 113.013C60.6773 112.449 61.009 111.885 61.3313 111.321C62.0232 111.302 62.7152 111.283 63.4166 111.274C60.7247 109.849 56.6394 112.258 57.8432 115.594C57.9854 116.014 58.137 116.425 58.2792 116.846C58.6015 115.603 58.9332 114.37 59.2555 113.128C57.7958 114.753 57.0754 116.483 56.9996 118.681C56.8385 123.604 64.4213 123.594 64.5824 118.681C64.5824 118.414 64.5919 118.366 64.6203 118.538C65.4829 117.582 66.0611 116.12 65.5966 114.82C65.445 114.409 65.3028 113.998 65.1511 113.587C63.2933 115.03 61.4356 116.464 59.5778 117.907C63.2744 119.857 66.9331 117.869 68.0231 113.979C67.4449 114.743 66.8573 115.498 66.2791 116.263C66.4876 116.12 68.5539 116.225 69.0279 116.206C71.9757 116.043 74.4591 111.923 71.7103 109.677C70.0041 108.282 68.3264 107.297 66.2601 106.513C66.2601 108.97 66.2601 111.426 66.2601 113.883C67.0848 113.634 67.9094 113.386 68.7625 113.262C69.1037 113.195 69.4449 113.166 69.7956 113.157C70.6676 113.099 70.8288 113.099 70.2601 113.176C69.8051 112.717 69.3501 112.258 68.8952 111.799C68.9805 111.933 69.0563 112.067 69.1416 112.201C69.0184 111.216 68.8857 110.241 68.7625 109.257C68.7435 109.41 68.7245 109.572 68.6961 109.725C68.4212 111.771 69.1795 113.826 71.3406 114.428C73.1321 114.896 75.7481 113.797 76.023 111.742Z" fill="#703169"/>
<path d="M78.4692 124.541C77.9858 124.407 77.4929 124.293 76.9906 124.264C76.6967 124.245 76.3839 124.293 76.0901 124.36C75.8911 124.407 75.711 124.493 75.5214 124.579C75.455 124.608 75.3982 124.637 75.3318 124.685C75.1328 124.818 74.9242 124.981 74.7631 125.172C74.5072 125.487 74.365 125.726 74.2228 126.099C74.2039 126.157 74.1849 126.223 74.166 126.281C74.128 126.462 74.0996 126.654 74.0996 126.835C74.0996 127.208 74.1944 127.543 74.3555 127.867C74.5261 128.202 74.801 128.451 75.0949 128.661C75.1612 128.709 75.2276 128.747 75.2939 128.776C75.474 128.862 75.6541 128.938 75.8342 128.995C76.0996 129.072 76.3934 129.101 76.6683 129.139C76.8294 129.158 76.9906 129.158 77.1517 129.148C77.692 129.11 78.2228 128.995 78.6967 128.709C78.9147 128.575 79.1327 128.412 79.3033 128.221C79.455 128.04 79.6161 127.848 79.7109 127.629C79.8815 127.237 79.9668 126.959 79.9953 126.529C80.0047 126.453 80.0047 126.386 79.9953 126.319C79.9763 126.137 79.9573 125.937 79.9194 125.755C79.872 125.583 79.7962 125.411 79.7204 125.248C79.6919 125.191 79.654 125.134 79.6161 125.076C79.3981 124.771 79.1611 124.503 78.8294 124.331C78.4882 124.159 78.109 124.082 77.7299 124.188C77.3981 124.283 77.038 124.532 76.8768 124.847C76.7062 125.182 76.6114 125.583 76.7346 125.956C76.8484 126.3 77.0569 126.644 77.3887 126.816C77.4361 126.835 77.474 126.864 77.5119 126.893C77.4171 126.816 77.3223 126.74 77.2275 126.673C77.2844 126.711 77.3318 126.759 77.3697 126.816C77.2939 126.72 77.218 126.625 77.1517 126.529C77.1991 126.596 77.237 126.654 77.2654 126.73C77.218 126.615 77.1707 126.501 77.1233 126.386C77.1612 126.482 77.1896 126.577 77.1991 126.673C77.1801 126.548 77.1612 126.415 77.1517 126.29C77.1612 126.396 77.1612 126.491 77.1517 126.596C77.1707 126.472 77.1896 126.338 77.1991 126.214C77.1801 126.329 77.1517 126.434 77.1138 126.539C77.1612 126.424 77.2086 126.309 77.256 126.195C77.218 126.29 77.1612 126.376 77.1043 126.462C77.1801 126.367 77.256 126.271 77.3223 126.176C77.256 126.262 77.1801 126.329 77.1043 126.396C77.1991 126.319 77.2939 126.243 77.3887 126.176C77.2844 126.252 77.1801 126.309 77.0664 126.367C77.1801 126.319 77.2939 126.271 77.4076 126.223C77.256 126.29 77.0948 126.329 76.9337 126.348C77.0569 126.329 77.1896 126.309 77.3128 126.3C77.0853 126.329 76.8484 126.329 76.6209 126.3C76.7441 126.319 76.8768 126.338 77 126.348C76.8105 126.319 76.6114 126.281 76.4313 126.204C76.5451 126.252 76.6588 126.3 76.7726 126.348C76.6872 126.309 76.6114 126.271 76.5356 126.214C76.6304 126.29 76.7252 126.367 76.8199 126.434C76.7631 126.386 76.7062 126.338 76.6588 126.271C76.7346 126.367 76.8105 126.462 76.8768 126.558C76.8484 126.51 76.8199 126.472 76.801 126.424C76.8484 126.539 76.8958 126.654 76.9432 126.768C76.9242 126.711 76.9053 126.654 76.8958 126.596C76.9147 126.72 76.9337 126.854 76.9432 126.979C76.9337 126.893 76.9337 126.816 76.9432 126.73C76.9242 126.854 76.9053 126.988 76.8958 127.112C76.9053 127.026 76.9337 126.95 76.9621 126.864C76.9147 126.979 76.8673 127.093 76.8199 127.208C76.8673 127.103 76.9147 127.017 76.9906 126.921C76.9147 127.017 76.8389 127.112 76.7726 127.208C76.8389 127.131 76.9053 127.055 76.9811 126.998C76.8863 127.074 76.7915 127.151 76.6967 127.218C76.7726 127.16 76.8579 127.103 76.9526 127.065C76.8389 127.112 76.7252 127.16 76.6114 127.208C76.7346 127.16 76.8673 127.131 77 127.112C76.8768 127.131 76.7441 127.151 76.6209 127.16C76.8199 127.141 77.019 127.141 77.218 127.17C77.0948 127.151 76.9621 127.132 76.8389 127.122C77.1327 127.16 77.4171 127.237 77.7015 127.323C78.0522 127.428 78.4787 127.361 78.801 127.179C79.0948 127.007 79.3792 126.663 79.455 126.319C79.5403 125.956 79.5213 125.535 79.3128 125.21C79.1232 124.885 78.8389 124.646 78.4692 124.541Z" fill="#FF85BF"/>
<path d="M93.635 85.7327C97.9289 79.2042 106.678 77.7321 113.882 77.866C118.233 77.9424 122.593 78.8123 125.91 81.8328C128.726 84.4041 130.422 88.0746 129.863 91.9459C129.351 95.4635 127.114 98.6083 123.607 99.5068C120.024 100.424 116.526 98.9524 114.82 95.6451C111.171 88.5812 113.74 79.4623 118.735 73.7748C125.237 66.3669 135.55 63.9581 145.01 64.6559C147.446 64.8375 147.437 61.014 145.01 60.8324C135.048 60.1059 124.242 62.7154 117.029 70.0374C110.365 76.7954 107.199 87.5107 111.057 96.5149C113.01 101.065 117.247 103.923 122.223 103.579C126.839 103.263 130.735 100.463 132.564 96.1804C134.46 91.7356 134.024 86.5166 131.399 82.4637C128.745 78.3534 124.375 75.5719 119.626 74.616C114.232 73.5359 108.223 73.8513 102.924 75.2755C97.8815 76.6329 93.2843 79.3571 90.3554 83.8019C89.0094 85.8666 92.2985 87.7783 93.635 85.7327Z" fill="#27D379"/>
<path d="M136.603 53.8738C142.707 55.9863 148.697 58.4332 154.527 61.2147C154.527 60.6603 154.527 60.1155 154.527 59.5611C149.171 63.1742 143.74 66.8733 139.569 71.901C138.792 72.8377 140.129 74.195 140.906 73.2487C144.982 68.3357 150.242 64.7418 155.474 61.2147C156.015 60.8515 156.166 59.8956 155.474 59.5611C149.494 56.7127 143.351 54.1893 137.096 52.0291C135.949 51.6276 135.446 53.4724 136.603 53.8738Z" fill="#27D379"/>
<path d="M136.916 53.9789C137.987 55.1833 139.048 56.3877 140.12 57.592C140.622 58.156 141.181 58.7008 141.627 59.303C142.167 60.0294 142.053 60.6507 141.845 61.4823C141.077 64.6079 140.157 67.6857 139.124 70.7253C138.793 71.7098 140.044 72.2068 140.707 71.6524C143.048 69.7121 144.025 66.5578 144.726 63.6903C145.352 61.1573 145.551 58.1082 143.191 56.4259C142.442 55.8906 141.323 56.9803 141.892 57.7354C142.015 57.9074 142.025 57.9266 141.939 57.7832C141.911 57.8214 141.873 57.8501 141.835 57.8788C142.167 58.3185 142.167 57.8597 142.233 57.8979C142.015 58.0126 142.063 58.0986 142.356 58.1751C142.527 58.2802 142.707 58.3854 142.878 58.4905C143.228 58.6912 143.589 58.892 143.958 59.0736C145.418 59.7905 146.944 60.3162 148.527 60.6412C148.337 60.1728 148.148 59.7044 147.958 59.2361C148.337 59.1118 148.394 59.0449 148.129 59.0353C147.987 59.0067 147.845 58.9875 147.702 58.9684C147.475 58.9398 147.266 58.9206 147.029 58.9493C146.508 59.0162 146.091 59.2839 145.759 59.6949C145.428 60.1059 145.257 60.6029 145.172 61.1095C145.077 61.7021 145.172 62.3521 144.849 62.8778C144.214 63.9292 145.854 64.8946 146.489 63.8432C146.792 63.3462 146.906 62.8491 146.963 62.2756C146.991 62.0176 146.925 60.9853 147.247 60.8323C147.513 60.6985 148.148 60.9853 148.451 60.9661C148.944 60.9279 149.39 60.6698 149.589 60.2015C149.807 59.6758 149.683 58.9398 149.02 58.7964C147.134 58.4045 145.342 57.745 143.683 56.7604C143.02 56.3685 142.451 55.8524 141.636 56.0818C141.02 56.2538 140.537 56.7891 140.338 57.3913C139.939 58.6243 140.849 60.039 142.233 59.7235C143.456 59.4464 144.309 57.8405 143.494 56.7604C143.058 57.2001 142.631 57.6303 142.195 58.0699C143.911 59.303 143.143 62.1992 142.669 63.8719C142.015 66.2328 141.266 68.6798 139.323 70.2951C139.854 70.601 140.375 70.9164 140.906 71.2223C141.484 69.5114 142.034 67.7908 142.527 66.0608C143.02 64.3594 143.636 62.5815 143.854 60.8228C144.063 59.1309 143.01 58.0413 141.977 56.8751C140.717 55.4605 139.456 54.0363 138.195 52.6216C137.447 51.7136 136.11 53.0709 136.916 53.9789Z" fill="#27D379"/>
<path d="M136.214 55.4032C137.285 56.512 138.385 57.6016 139.522 58.6435C140.119 59.1979 140.726 59.7331 141.342 60.2684C142.015 60.8515 142.83 61.7882 143.731 61.8933C145.399 62.0941 146.631 60.4213 146.546 58.8633C146.46 57.2193 145.342 55.9958 143.712 55.8715C142.783 55.8046 141.949 56.6553 141.854 57.5251C141.74 58.5192 142.299 59.2839 143.209 59.6184C144.375 60.0486 145.731 60.8228 146.697 61.6353C146.697 60.7368 146.697 59.8287 146.697 58.9302C145.494 60.2015 144.29 61.4632 143.096 62.7345C141.807 64.0918 143.086 66.4527 144.944 65.927C146.754 65.4204 148.347 64.5315 149.787 63.3367C150.508 62.7345 150.47 61.511 149.939 60.8228C149.37 60.0964 148.318 59.8192 147.494 60.3258C145.958 61.2816 144.517 62.3999 143.228 63.6712C142.555 64.3307 142.508 65.4491 143.077 66.1851C143.607 66.8542 144.754 67.2652 145.522 66.6821C147.465 65.2006 149.304 63.6043 150.991 61.836C150.1 61.836 149.2 61.836 148.309 61.836C149.029 62.6676 150.186 62.9352 151.219 62.658C152.214 62.3999 152.811 61.2912 152.546 60.3066C152.271 59.2935 151.209 58.7104 150.214 58.9685C150.385 58.9207 150.868 58.9876 150.991 59.131C150.328 58.3663 148.982 58.4236 148.309 59.131C146.849 60.6603 145.285 62.1036 143.598 63.3845C144.366 64.3881 145.133 65.3822 145.892 66.3858C146.982 65.3153 148.091 64.4454 149.389 63.6425C148.622 62.6389 147.854 61.6448 147.096 60.6412C146.224 61.3581 145.086 61.922 143.93 62.247C144.546 63.308 145.162 64.3785 145.778 65.4395C146.982 64.1682 148.186 62.9065 149.38 61.6353C150.034 60.9375 150.186 59.5993 149.38 58.9302C147.816 57.6207 146.129 56.6362 144.214 55.9289C144.043 57.181 143.882 58.4332 143.712 59.6853C143.314 59.6567 143.058 59.5133 142.821 59.1883C142.915 59.3699 142.897 59.3221 142.773 59.0545C142.811 59.217 142.811 59.2074 142.783 59.0354C142.764 58.8633 142.754 58.8538 142.764 59.0258C142.821 58.7199 142.821 58.6626 142.773 58.8729C142.897 58.5192 143.124 58.2803 143.484 58.156C144.1 58.3185 144.716 58.481 145.333 58.6435C143.077 56.7796 140.934 54.7819 138.906 52.679C138.195 51.943 136.944 51.9526 136.224 52.679C135.475 53.4437 135.494 54.6672 136.214 55.4032Z" fill="#27D379"/>
<path d="M142.934 59.4179C136.195 58.8826 129.105 59.9436 123.256 63.528C118.129 66.6727 114.081 71.6718 112.659 77.6075C112.081 79.9972 115.74 81.0199 116.318 78.6207C117.55 73.507 121.019 69.2822 125.484 66.6345C130.735 63.5185 136.953 62.7538 142.934 63.2317C145.36 63.4324 145.351 59.6091 142.934 59.4179Z" fill="#27D379"/>
</g>
</g>
<defs>
<clipPath id="clip0">
<rect width="106.788" height="105.652" fill="white" transform="translate(57 51.9717)"/>
</clipPath>
</defs>
</svg>
