<svg width="233" height="233" viewBox="0 0 233 233" fill="none" xmlns="http://www.w3.org/2000/svg">
<mask id="mask0" mask-type="alpha" maskUnits="userSpaceOnUse" x="0" y="0" width="233" height="233">
<rect width="233" height="233" fill="#C4C4C4"/>
</mask>
<g mask="url(#mask0)">
<path fill-rule="evenodd" clip-rule="evenodd" d="M121.353 37.0035C138.193 37.2521 150.531 51.7468 165.289 59.8891C181.358 68.7544 203.254 70.7727 211.938 86.9799C220.643 103.228 213.325 123.229 208.806 141.11C204.675 157.455 198.464 173.245 187.018 185.59C175.819 197.667 160.479 203.848 145.138 209.777C128.53 216.195 111.747 224.117 94.145 221.48C75.3733 218.668 56.6932 209.877 45.1068 194.791C33.734 179.984 34.5768 159.889 32.5648 141.303C30.6226 123.361 25.1045 104.187 33.5753 88.2659C41.9395 72.5457 61.2306 67.543 76.5792 58.5794C91.1846 50.0499 104.457 36.754 121.353 37.0035Z" fill="#018EFF"/>
<g clip-path="url(#clip0)">
<path d="M139.668 131.345C144.307 126.999 143.524 120.616 141.416 115.229C140.515 112.927 138.36 111.325 135.807 112.026C133.624 112.63 131.72 115.348 132.621 117.666C133.415 119.699 135.163 123.036 133.217 124.864C128.921 128.892 135.378 135.362 139.668 131.345Z" fill="#202C79"/>
<path d="M116.87 159.301C117.97 157.064 119.064 154.826 120.163 152.594C120.635 151.634 121.102 150.675 121.574 149.72C121.783 149.3 122.41 147.456 122.845 147.165C122.861 147.154 124.716 147.041 125.14 146.965C126.363 146.744 127.585 146.528 128.808 146.307C130.991 145.914 133.366 145.207 135.587 145.11C137.571 145.024 138.735 146.146 140.177 147.402C141.99 148.976 143.765 150.605 145.486 152.281C147.75 154.481 151.546 157.835 150.951 161.415C152.791 160.666 154.63 159.911 156.464 159.161C149.235 155.63 143.197 150.971 137.421 145.401C131.618 139.799 124.035 141.39 119.584 147.801C117.986 150.108 120.099 153.64 122.823 153.478C128.207 153.166 133.56 152.524 138.874 151.591C140.885 151.241 141.979 148.782 141.497 146.949C140.928 144.776 138.874 144.021 136.879 144.312C128.679 145.515 121.15 149.418 115.24 155.231C112.376 158.051 115.401 162.164 118.892 161.539C124.126 160.601 129.355 159.657 134.589 158.719C138.869 157.948 143.819 157.792 147.154 154.675C148.919 153.025 148.441 149.914 146.393 148.75C145.98 148.518 145.572 148.281 145.159 148.049C141.389 145.903 137.743 150.831 140.612 153.974C142.124 155.63 143.636 157.285 145.149 158.946C145.846 159.711 146.543 160.477 147.24 161.237C147.589 161.62 147.937 162.003 148.286 162.386C149.686 160.175 149.9 159.248 148.924 159.614C148.157 159.404 146.548 159.83 145.728 159.895C144.693 159.975 143.658 160.056 142.617 160.137C140.542 160.294 138.472 160.434 136.391 160.547C132.246 160.773 128.095 160.903 123.939 160.822C121.863 160.779 119.793 160.687 117.723 160.525C116.222 160.407 113.76 160.585 113.486 158.73C113.004 155.495 108.027 155.123 106.627 157.83C105.952 159.134 105.657 160.31 106.193 161.717C106.767 163.221 108.065 164.575 109.813 164.488C122.523 163.863 135.238 163.243 147.948 162.617C152.748 162.38 152.812 155.02 147.948 155.069C141.636 155.134 135.372 155.705 129.135 156.692C125.038 157.339 126.153 162.768 129.135 163.971C135.619 166.586 142.473 167.912 149.45 168.047C149.45 165.529 149.45 163.016 149.45 160.498C137.045 161.668 124.598 162.121 112.146 161.852C107.185 161.744 107.491 168.823 112.146 169.4C123.247 170.781 134.428 170.586 145.578 170.085C149.728 169.896 156.185 170.732 158.851 166.667C161.242 163.016 158.743 158.239 154.507 158.04C149.675 157.813 149.686 165.362 154.507 165.588C154.657 162.936 154.062 161.792 152.726 162.148C152.555 162.197 152.378 162.218 152.195 162.213C151.412 162.143 150.554 162.299 149.761 162.337C148.018 162.423 146.275 162.51 144.527 162.585C140.864 162.747 137.196 162.871 133.533 162.914C126.384 163 119.241 162.736 112.14 161.852C112.14 164.37 112.14 166.882 112.14 169.4C124.593 169.67 137.045 169.217 149.444 168.047C154.174 167.599 154.362 160.595 149.444 160.498C143.1 160.374 137.013 159.064 131.125 156.692C131.125 159.118 131.125 161.544 131.125 163.971C136.691 163.092 142.306 162.671 147.943 162.617C147.943 160.099 147.943 157.587 147.943 155.069C135.233 155.694 122.517 156.314 109.808 156.94C111.014 157.862 112.221 158.789 113.427 159.711C113.363 159.544 113.299 159.377 113.234 159.21C113.106 160.18 112.982 161.151 112.854 162.116C112.934 161.954 113.02 161.798 113.1 161.636C110.816 161.334 108.526 161.038 106.241 160.736C107.212 167.281 114.57 167.912 119.788 168.214C126.529 168.602 133.286 168.333 140.016 167.874C143.143 167.659 146.302 167.513 149.407 167.125C151.815 166.823 154.169 165.842 155.193 163.469C156.416 160.622 154.7 158.304 152.887 156.282C150.581 153.716 148.238 151.187 145.91 148.637C144.392 150.61 142.875 152.589 141.362 154.562C141.775 154.794 142.183 155.031 142.596 155.263C142.344 153.29 142.092 151.311 141.834 149.337C140.794 150.308 138.601 150.362 137.292 150.594C135.024 151.004 132.755 151.408 130.492 151.818C125.955 152.632 121.423 153.446 116.887 154.26C118.104 156.363 119.321 158.466 120.539 160.569C125.596 155.592 131.876 152.616 138.863 151.591C138.198 149.165 137.533 146.739 136.868 144.312C132.208 145.132 127.532 145.655 122.812 145.93C123.89 147.822 124.974 149.715 126.052 151.607C127.215 149.931 129.328 148.577 131.205 149.909C133.458 151.505 135.297 153.926 137.426 155.716C142.097 159.652 147.176 163 152.657 165.675C154.614 166.629 157.74 166.003 158.17 163.421C159.146 157.533 156.4 152.761 152.442 148.61C150.361 146.426 148.114 144.388 145.851 142.404C143.695 140.511 141.438 138.457 138.568 137.788C135.581 137.093 132.353 138.031 129.409 138.559C126.422 139.099 123.134 139.336 120.233 140.236C117.219 141.174 116.125 143.762 114.833 146.388C113.342 149.424 111.851 152.459 110.36 155.495C108.258 159.835 114.731 163.663 116.87 159.301Z" fill="#2DC7BC"/>
<path d="M98.8889 119.586C98.8353 122.902 98.3043 126.072 97.3122 129.232C96.2718 132.547 101.447 133.971 102.482 130.666C103.608 127.069 104.187 123.355 104.252 119.586C104.311 116.113 98.9479 116.113 98.8889 119.586Z" fill="#FFA6B0"/>
<path d="M98.9477 126.924C98.9262 120.853 98.9048 114.782 98.8833 108.705C98.8726 105.238 93.5098 105.227 93.5205 108.705C93.542 114.776 93.5634 120.847 93.5849 126.924C93.601 130.391 98.9638 130.396 98.9477 126.924Z" fill="#FFA6B0"/>
<path d="M121.005 133.232C124.454 133.232 124.464 127.84 121.005 127.84C117.552 127.84 117.546 133.232 121.005 133.232Z" fill="#FF97B0"/>
<path d="M118.539 118.95C115.385 122.869 110.071 131.502 114.677 136.095C116.871 138.284 120.635 138.462 123.526 138.678C126.282 138.888 129.64 139.309 132.348 138.581C139.963 136.532 139.325 127.264 137.598 121.29C136.676 118.087 135.153 115.305 131.881 114.097C129.323 113.153 126.138 113.143 123.413 113.062C119.541 112.948 116.849 114.14 115.723 118.103C114.806 121.322 114.763 125.112 115.208 128.417C115.541 130.903 117.954 132.979 120.453 131.442C124.416 129.011 123.858 125.058 124.717 121.079C122.475 121.079 120.233 121.079 117.992 121.079C119.236 124.789 120.437 128.498 121.327 132.31C122.008 135.233 126.272 135.745 127.698 133.146C129.237 130.342 130.154 127.371 130.594 124.206C131.195 119.872 125.205 117.887 123.869 122.341C123.263 124.379 123.017 126.476 123.038 128.595C123.076 132.256 127.618 133.119 129.532 130.364C131.227 127.927 131.581 125.118 132.305 122.309C130.063 122.309 127.822 122.309 125.58 122.309C125.859 124.18 125.816 126.094 126.073 127.975C126.486 131.011 131.141 131.291 132.444 128.811C132.847 128.051 133.249 127.323 133.592 126.53C131.468 125.63 129.345 124.729 127.221 123.829C126.84 125.479 126.443 127.123 126.127 128.784C125.516 131.96 129.447 135.001 131.951 132.192C132.128 131.992 132.305 131.793 132.482 131.599C130.498 130.774 128.513 129.949 126.529 129.118C126.459 129.943 126.266 130.957 126.588 131.744C127.907 134.942 132.064 135.173 133.313 131.744C133.351 131.647 133.383 131.55 133.42 131.453C134.965 127.21 128.229 125.382 126.695 129.587C126.658 129.685 126.626 129.782 126.588 129.879C128.83 129.879 131.071 129.879 133.313 129.879C133.71 130.838 133.463 129.604 133.501 129.118C133.748 126.115 129.5 124.46 127.548 126.638C127.371 126.838 127.194 127.037 127.017 127.231C128.959 128.369 130.9 129.507 132.841 130.639C133.163 128.978 133.554 127.334 133.935 125.684C134.777 122.023 129.205 119.176 127.564 122.983C127.221 123.775 126.819 124.498 126.417 125.263C128.54 125.544 130.664 125.824 132.788 126.099C132.53 124.217 132.573 122.319 132.294 120.432C131.774 116.895 126.379 117.3 125.569 120.432C125.001 122.637 124.829 124.907 123.499 126.811C125.666 127.398 127.832 127.992 129.994 128.579C129.977 127.037 130.138 125.662 130.578 124.185C128.336 123.565 126.095 122.945 123.853 122.319C123.499 124.886 122.915 127.307 121.66 129.587C123.783 129.868 125.907 130.148 128.031 130.423C127.141 126.611 125.939 122.902 124.695 119.192C123.665 116.13 118.742 115.601 117.97 119.192C117.702 120.448 117.831 124.8 116.914 125.366C118.662 126.374 120.41 127.382 122.158 128.391C121.842 126.007 121.772 123.398 122.185 121.031C122.271 120.524 122.566 119.947 122.577 119.451C122.571 119.591 121.724 120.022 121.756 120.033C122.652 120.276 124.116 120.071 125.162 120.141C126.604 120.238 129.173 119.979 130.144 121.149C131.404 122.664 131.742 126.201 131.795 128.132C131.854 130.164 131.726 131.804 129.452 131.868C126.985 131.933 124.395 131.83 121.949 131.512C121.37 131.437 120.024 130.919 119.606 131.059C119.075 130.736 119.139 130.844 119.799 131.383C119.944 132.062 119.987 132.073 119.938 131.415C120.067 131.21 120.142 130.38 120.206 130.175C120.587 128.843 121.209 127.603 121.88 126.401C122.158 125.9 122.453 125.403 122.764 124.918C122.866 124.762 123.73 123.549 123.456 123.888C126.266 120.427 121.365 115.439 118.539 118.95Z" fill="#FF97B0"/>
<path d="M112.639 116.572C112.746 121.036 112.628 125.587 113.004 130.035C113.331 133.858 115.599 137.395 119.788 137.276C124.266 137.152 124.282 130.143 119.788 130.267C120.195 130.256 119.9 128.407 119.879 127.711C119.847 126.53 119.82 125.349 119.793 124.169C119.729 121.64 119.67 119.106 119.605 116.577C119.498 112.07 112.526 112.053 112.639 116.572Z" fill="#FF97B0"/>
<path d="M118.436 135.394C118.356 137.594 118.254 140.295 120.142 141.8C121.986 143.272 124.78 142.84 126.985 142.862C131.559 142.91 137.383 143.396 138.874 137.831C140.043 133.469 133.318 131.609 132.149 135.966C132.138 136.009 127.403 135.858 126.985 135.853C126.089 135.842 125.059 135.729 124.169 135.826C122.41 135.632 122.818 136.122 125.392 137.298C125.365 136.667 125.37 136.031 125.408 135.4C125.569 130.881 118.597 130.887 118.436 135.394Z" fill="#FF97B0"/>
<path d="M92.6411 134.769C93.6654 134.699 94.6843 134.634 95.7086 134.564C96.1645 134.532 96.6149 134.505 97.0708 134.472C97.296 134.456 97.5266 134.44 97.7519 134.429C98.1648 134.408 98.2077 134.402 97.8752 134.413C97.1834 133.874 96.4862 133.34 95.7944 132.801C95.8641 132.925 95.9285 133.049 95.9982 133.173C95.8373 132.585 95.6818 131.992 95.5209 131.404C95.596 132.623 95.4673 133.863 95.36 135.076C95.2957 135.809 95.2689 137.519 95.0705 137.918C95.4888 137.497 95.9017 137.082 96.32 136.661C96.3522 136.651 96.3897 136.634 96.4219 136.624C97.0386 136.624 97.6553 136.624 98.2774 136.624C97.9288 136.543 97.2799 135.065 97.0761 134.672C96.5667 133.674 96.2824 132.612 96.0518 131.523C95.108 127.102 88.3884 128.967 89.3161 133.372C89.9221 136.246 91.2307 139.352 93.2793 141.503C95.8588 144.21 100.573 144.199 101.656 140.047C102.069 138.457 102.171 136.71 102.321 135.076C102.466 133.464 102.777 131.599 102.182 130.056C100.707 126.223 95.7783 127.549 92.6304 127.76C90.7534 127.884 89.1445 129.28 89.1445 131.264C89.1553 133.065 90.748 134.893 92.6411 134.769Z" fill="#FF97B0"/>
<path d="M94.8664 129.345C94.6144 127.21 93.397 124.994 93.4346 122.88C93.4775 120.729 94.8825 122.767 95.274 123.683C95.8478 125.031 97.7999 125.306 98.9422 124.648C100.326 123.856 100.471 122.292 99.9021 120.961C98.3147 117.229 93.3863 114.722 90.0345 117.887C88.6831 119.165 88.0932 121.047 88.0717 122.875C88.0449 125.161 89.2355 127.123 89.5036 129.339C89.6752 130.795 90.6137 132.019 92.185 132.035C93.5043 132.051 95.038 130.79 94.8664 129.345Z" fill="#FF97B0"/>
<path d="M92.9259 146.34C96.0095 146.485 99.0877 146.167 102.096 145.488C104.075 145.04 105.239 142.743 104.719 140.845C104.161 138.802 102.086 137.761 100.101 138.209C97.7202 138.748 95.3606 138.91 92.9259 138.791C90.8987 138.694 89.1719 140.592 89.1719 142.565C89.1719 144.69 90.8933 146.243 92.9259 146.34Z" fill="#2DD6BC"/>
<path d="M88.0294 144.841C87.5843 151.413 89.1824 161.836 97.6288 162.159C106.724 162.51 106.435 150.96 105.716 144.717C105.265 140.813 99.3825 139.212 98.3421 143.714C97.7522 146.27 96.8995 148.647 95.6607 150.955C97.8219 150.955 99.9831 150.955 102.144 150.955C101.286 149.31 100.428 147.666 99.5702 146.022C98.0042 143.018 93.6389 143.973 92.7111 146.922C92.2553 148.372 92.073 149.817 92.1963 151.332C92.5181 155.258 98.7658 156.821 99.5702 152.335C99.8651 150.702 100.042 149.116 99.9992 147.456C97.6664 148.092 95.3335 148.728 93.0061 149.359C93.1133 149.596 93.2152 149.833 93.3225 150.076C94.1537 151.952 96.8351 152.357 98.4601 151.429C100.38 150.33 100.627 148.114 99.8061 146.264C99.6989 146.027 99.597 145.79 99.4897 145.547C97.9345 142.048 92.4001 143.903 92.4966 147.45C92.5234 148.442 92.5127 149.343 92.3357 150.319C94.7919 150.653 97.2534 150.987 99.7096 151.322C99.6292 150.351 99.6613 149.85 99.9563 148.917C97.6717 149.219 95.3818 149.515 93.0973 149.817C93.9553 151.462 94.8134 153.106 95.6714 154.751C96.9638 157.226 100.852 157.188 102.155 154.751C103.689 151.888 104.858 148.874 105.593 145.703C103.136 145.369 100.675 145.035 98.2187 144.701C98.3635 145.935 99.1841 154.584 97.7736 154.567C95.0279 154.53 95.4515 146.27 95.5481 144.825C95.8645 139.988 88.3565 140.01 88.0294 144.841Z" fill="#2DD6BC"/>
<path d="M90.1738 141.951C87.3691 147.256 86.5861 153.365 88.1145 159.199C89.541 164.639 93.1502 170.371 99.1726 171.066C105.238 171.767 108.901 166.845 109.571 161.323C110.338 155.026 109.003 148.216 106.997 142.263C105.892 138.985 100.562 138.376 99.7572 142.263C99.0976 145.439 99.5212 148.302 99.8591 151.478C100.068 153.435 100.31 155.721 98.7436 157.15C96.8291 158.897 94.5982 160.498 95.4294 163.545C96.1963 166.354 99.6928 167.502 102.203 167.923C106.927 168.716 108.96 161.442 104.198 160.644C103.565 160.569 102.948 160.434 102.342 160.234C100.513 159.102 100.578 160.25 102.535 163.663C103.136 163.572 103.994 162.628 104.444 162.17C105.812 160.795 106.729 158.929 107.126 157.037C108.032 152.734 106.123 148.475 106.997 144.269C104.584 144.269 102.17 144.269 99.7572 144.269C101.114 148.291 102.015 152.416 102.197 156.665C102.278 158.477 102.809 163.405 100.17 163.604C97.1777 163.831 95.5956 158.498 95.1505 156.347C94.3997 152.74 94.9414 149.009 96.6575 145.763C98.926 141.471 92.4477 137.654 90.1738 141.951Z" fill="#2DD6BC"/>
<path d="M111.738 112.221C113.304 121.662 132.578 117.407 130.009 107.869C128.856 103.572 123.477 101.437 119.444 101.318C114.747 101.184 111.143 103.993 109.4 108.198C108.451 110.484 110.424 113.24 112.585 113.838C115.213 114.566 117.24 112.932 118.195 110.635C117.911 111.325 118.152 110.538 118.715 110.49C118.962 110.468 119.203 110.484 119.45 110.479C119.895 110.479 120.404 110.641 120.801 110.808C121.745 111.201 121.627 111.875 121.305 110.619C121.305 109.805 121.305 108.996 121.305 108.182C121.412 107.373 122.169 107.708 120.565 108.101C120.184 108.247 119.793 108.301 119.38 108.252C118.597 108.425 118.983 108.932 120.538 109.773C120.131 107.33 117.128 105.966 114.929 106.57C112.344 107.298 111.33 109.773 111.738 112.221Z" fill="#202C79"/>
<path d="M112.376 101.998C106.853 104.915 108.617 113.951 113.32 116.82C116.522 118.772 119.418 117.569 122.485 116.13C124.84 115.024 127.108 115.181 129.318 116.534C134.343 119.613 138.928 111.687 133.919 108.619C130.46 106.5 126.475 105.777 122.496 106.505C121.129 106.753 118.324 107.298 117.487 108.43C116.468 108.824 116.795 109.126 118.469 109.341C118.431 109.287 118.388 109.239 118.351 109.185C117.804 109.902 118.388 107.406 118.206 107.864C117.814 108.538 117.423 109.212 117.031 109.886C117.015 109.891 116.994 109.902 116.978 109.907C122.174 107.168 117.573 99.2533 112.376 101.998Z" fill="#202C79"/>
<path d="M123.102 111.73C125.017 111.331 127.113 112.161 128.218 113.795C130.605 111.946 132.991 110.091 135.378 108.241C133.072 105.432 129.832 104.111 126.288 103.842C122.362 103.54 120.254 109.072 123.065 111.665C124.561 113.045 126.057 114.426 127.553 115.801C128.626 113.191 129.704 110.587 130.776 107.977C125.773 108.57 120.86 108.387 115.959 107.201C113.696 106.651 111.357 106.3 109.491 108.096C107.727 109.794 107.314 112.442 108.424 114.614C110.489 118.653 116.286 118.631 120.201 118.383C122.63 118.232 125.006 117.779 127.349 117.138C128.347 116.863 129.875 116.097 130.932 116.345C131.704 116.529 131.264 116.059 131.666 116.998C132.637 119.273 135.967 119.78 137.903 118.642C140.242 117.267 140.515 114.658 139.539 112.371C137.571 107.767 132.208 106.662 127.784 107.54C125.569 107.983 123.467 108.851 121.214 109.131C119.605 109.331 115.991 109.654 114.918 108.851C115.465 109.401 116.007 109.945 116.554 110.495C116.468 110.328 116.382 110.155 116.297 109.988C116.506 110.759 116.71 111.53 116.919 112.301C116.924 112.113 116.935 111.929 116.94 111.741C116.495 112.819 116.05 113.903 115.605 114.981C115.717 114.846 115.825 114.712 115.937 114.571C115.267 114.965 114.597 115.359 113.926 115.752C114.098 115.725 114.269 115.693 114.446 115.666C113.637 115.666 112.832 115.666 112.022 115.666C118.335 116.976 124.314 117.909 130.782 117.143C134.375 116.717 137.206 112.269 134.005 109.32C132.508 107.939 131.012 106.559 129.516 105.184C128.443 107.794 127.365 110.398 126.293 113.008C127.505 113.099 128.197 113.827 128.937 114.728C132.213 118.718 139.008 113.471 136.096 109.174C132.578 103.982 126.808 101.62 120.683 102.898C114.934 104.084 117.369 112.921 123.102 111.73Z" fill="#202C79"/>
<path d="M118.65 120.75C118.302 121.931 117.519 122.907 116.859 123.926C116.178 124.972 115.604 126.142 115.54 127.409C115.422 129.614 117.578 131.782 119.776 130.736C120.168 130.547 120.27 129.981 120.066 129.631C119.83 129.226 119.358 129.151 118.967 129.339C118.436 129.593 117.803 129.156 117.492 128.741C116.988 128.067 117.111 127.177 117.369 126.428C117.685 125.506 118.28 124.702 118.816 123.904C119.39 123.053 119.916 122.174 120.205 121.182C120.495 120.179 118.945 119.753 118.65 120.75Z" fill="#DE6D9D"/>
<path d="M119.702 136.899C121.697 137.432 123.617 137.163 125.467 136.3C126.744 135.707 127.162 133.755 126.427 132.612C125.58 131.291 124.127 131.011 122.759 131.647C123.215 131.437 122.507 131.717 122.454 131.733C122.298 131.777 121.697 131.782 122.169 131.798C121.917 131.787 121.665 131.814 121.413 131.793C121.885 131.83 121.279 131.744 121.134 131.706C119.777 131.345 118.158 132.159 117.836 133.588C117.514 134.995 118.254 136.516 119.702 136.899Z" fill="white"/>
<path d="M94.6791 121.365C91.8637 120.858 88.8015 120.799 86.9245 123.36C85.1119 125.829 86.2112 129.07 88.41 130.876C89.5308 131.798 91.1075 131.976 92.2015 130.876C93.1454 129.927 93.3277 127.991 92.2015 127.064C91.8154 126.746 91.5848 126.525 91.3756 126.196C91.4078 126.325 91.3971 126.309 91.3542 126.131C91.3006 125.943 91.3006 125.937 91.3542 126.115C91.3542 126.158 91.3595 126.196 91.3595 126.239C91.0485 126.687 91.0002 126.794 91.2094 126.568C91.2094 126.509 91.3917 126.422 91.1504 126.546C91.3059 126.466 91.5901 126.417 91.7403 126.401C92.2176 126.352 92.7807 126.482 93.2526 126.568C94.6738 126.827 96.1432 126.18 96.5508 124.686C96.9047 123.371 96.111 121.624 94.6791 121.365Z" fill="#FF97B0"/>
<path d="M91.0267 127.069C90.1311 126.164 88.7046 125.959 87.5999 126.606C86.9188 127.005 86.4093 127.716 86.2163 128.482C85.9696 129.463 86.2216 130.66 86.9885 131.361C87.3907 131.728 87.8573 132.014 88.3882 132.165C88.7261 132.262 89.0854 132.278 89.4286 132.321C89.1926 132.289 88.9513 132.256 88.7153 132.224C88.828 132.24 88.9352 132.262 89.0425 132.294C88.828 132.202 88.6135 132.111 88.4043 132.025C88.4365 132.035 88.4687 132.057 88.5008 132.078C88.3185 131.938 88.1415 131.798 87.9592 131.658C87.986 131.679 88.0128 131.706 88.0396 131.739C87.9002 131.555 87.7608 131.377 87.6213 131.194C87.6535 131.243 87.6803 131.286 87.7018 131.34C87.6106 131.124 87.5194 130.908 87.4336 130.698C87.4444 130.73 87.4551 130.768 87.4604 130.801C87.4283 130.563 87.3961 130.321 87.3639 130.083C87.3693 130.116 87.3693 130.148 87.3639 130.181C87.3961 129.943 87.4283 129.701 87.4604 129.463C87.4551 129.496 87.4497 129.523 87.4336 129.55C87.5248 129.334 87.616 129.118 87.7018 128.908C87.691 128.919 87.6857 128.93 87.675 128.94C87.8144 128.757 87.9538 128.579 88.0933 128.396C88.0825 128.407 88.0718 128.412 88.0611 128.423C88.2434 128.283 88.4204 128.142 88.6027 128.002C88.5866 128.008 88.5759 128.013 88.5598 128.024C88.7743 127.932 88.9889 127.84 89.198 127.754C89.1819 127.76 89.1658 127.76 89.1497 127.765C88.5116 127.905 87.8734 128.45 87.5463 129.005C87.2084 129.582 87.069 130.434 87.2781 131.081C87.4873 131.733 87.8895 132.364 88.5116 132.693C89.1658 133.044 89.8469 133.13 90.5762 132.963C91.0374 132.86 91.5147 132.564 91.8472 132.24C92.1958 131.9 92.4479 131.453 92.5927 130.989C92.8018 130.31 92.7267 129.593 92.4532 128.946C92.1851 128.31 91.7722 127.781 91.1715 127.42C90.5762 127.059 90.0024 127.021 89.3321 126.935C89.568 126.967 89.8094 126.999 90.0453 127.032C89.9327 127.016 89.8308 126.994 89.7236 126.956C89.9381 127.048 90.1526 127.14 90.3617 127.226C90.3242 127.193 90.2759 127.167 90.233 127.134C90.4154 127.274 90.5923 127.415 90.7747 127.555C90.7639 127.544 90.7532 127.528 90.7371 127.517C90.8766 127.7 91.016 127.878 91.1554 128.062C91.1447 128.045 91.1393 128.035 91.1286 128.018C91.2198 128.234 91.311 128.45 91.3968 128.66C91.3807 128.628 91.3753 128.595 91.3753 128.563C91.4075 128.8 91.4397 129.043 91.4718 129.28C91.4718 129.264 91.4718 129.248 91.4718 129.226C91.4397 129.463 91.4075 129.706 91.3753 129.943C91.3807 129.889 91.3968 129.846 91.4182 129.792C91.327 130.008 91.2359 130.224 91.1501 130.434C91.1662 130.402 91.1822 130.375 91.2037 130.348C91.0643 130.531 90.9248 130.709 90.7854 130.892C90.7961 130.881 90.8068 130.871 90.8176 130.86C90.6352 131 90.4583 131.14 90.2759 131.28C90.2974 131.264 90.3188 131.248 90.3456 131.237C90.1311 131.329 89.9166 131.421 89.7075 131.507C89.7182 131.507 89.7343 131.502 89.745 131.502C89.2677 131.502 88.7958 131.502 88.3185 131.502C88.3292 131.502 88.3453 131.507 88.356 131.507C88.1415 131.415 87.927 131.324 87.7179 131.237C87.7286 131.243 87.7393 131.248 87.7554 131.259C87.5731 131.119 87.3961 130.979 87.2138 130.838C87.2245 130.849 87.2352 130.86 87.2459 130.871C87.7286 131.361 88.4579 131.658 89.1444 131.658C89.804 131.658 90.587 131.367 91.0428 130.871C91.5094 130.358 91.858 129.684 91.8258 128.962C91.7829 128.261 91.5416 127.587 91.0267 127.069Z" fill="#FF97B0"/>
<path d="M99.3768 120.022C99.2642 119.995 99.1462 119.985 99.0336 119.974C99.0121 119.974 98.9906 119.969 98.9692 119.969C98.8566 119.974 98.7386 119.995 98.626 120.012C98.6045 120.017 98.5831 120.022 98.5616 120.028C98.2935 120.114 98.0843 120.238 97.8805 120.432C97.8645 120.448 97.8484 120.459 97.8376 120.475C97.7626 120.562 97.6982 120.648 97.6339 120.74C97.5588 120.847 97.5051 120.998 97.4676 121.106C97.4193 121.23 97.4086 121.397 97.3979 121.511C97.3979 121.532 97.3925 121.554 97.3979 121.575C97.4033 121.688 97.4247 121.807 97.4408 121.92C97.473 122.061 97.5373 122.185 97.6339 122.287C97.7089 122.406 97.8108 122.497 97.9342 122.567C98.0575 122.648 98.1916 122.691 98.331 122.697C98.4758 122.729 98.6153 122.724 98.76 122.675C98.8459 122.637 98.9317 122.605 99.0175 122.567C99.1783 122.47 99.3071 122.341 99.4036 122.179C99.4411 122.093 99.4733 122.007 99.5108 121.92C99.5645 121.732 99.5645 121.538 99.5108 121.349C99.5108 121.338 99.5055 121.333 99.5055 121.322C99.5162 121.419 99.5323 121.511 99.543 121.608C99.5377 121.57 99.5377 121.538 99.543 121.5C99.5323 121.597 99.5162 121.688 99.5055 121.786C99.5108 121.742 99.5216 121.705 99.5377 121.667C99.5001 121.753 99.4679 121.839 99.4304 121.926C99.4465 121.883 99.4733 121.839 99.5001 121.802C99.4465 121.872 99.3875 121.947 99.3339 122.017C99.366 121.98 99.3982 121.942 99.4411 121.91C99.3714 121.963 99.2963 122.023 99.2266 122.077C99.2642 122.05 99.3071 122.023 99.35 122.007C99.2642 122.044 99.1783 122.077 99.0925 122.114C99.1354 122.098 99.173 122.087 99.2213 122.082C99.1247 122.093 99.0336 122.109 98.937 122.12C98.9746 122.114 99.0121 122.114 99.0496 122.12C98.9531 122.109 98.8619 122.093 98.7654 122.082C98.7815 122.082 98.7976 122.087 98.8137 122.093C98.9585 122.136 99.0979 122.147 99.2427 122.114C99.3875 122.109 99.5162 122.066 99.6396 121.985C99.7629 121.915 99.8648 121.823 99.9399 121.705C100.036 121.602 100.101 121.478 100.133 121.338C100.144 121.241 100.16 121.149 100.17 121.052C100.17 120.858 100.122 120.675 100.026 120.508C99.972 120.438 99.9131 120.362 99.8594 120.292C99.72 120.168 99.5591 120.071 99.3768 120.022Z" fill="#FF97B0"/>
<path d="M98.1964 119.645C98.0194 119.666 97.8317 119.677 97.6655 119.742C97.5046 119.801 97.3223 119.871 97.1775 119.974C97.0702 120.049 96.9683 120.13 96.8718 120.211C96.8342 120.243 96.8021 120.276 96.7753 120.308C96.6895 120.405 96.609 120.513 96.5339 120.615C96.5071 120.653 96.4803 120.696 96.4588 120.739C96.3623 120.907 96.3141 121.09 96.3141 121.284C96.3087 121.435 96.3409 121.57 96.4052 121.699C96.4481 121.834 96.5232 121.947 96.6251 122.044C96.7592 122.179 96.9147 122.271 97.097 122.319C97.1453 122.335 97.1989 122.352 97.2525 122.362C97.392 122.389 97.5368 122.411 97.6816 122.416C97.7298 122.416 97.7835 122.416 97.8317 122.411C97.9712 122.395 98.1213 122.384 98.2608 122.346C98.309 122.335 98.3573 122.319 98.4056 122.298C98.5343 122.244 98.6683 122.195 98.7917 122.125C98.9097 122.055 99.0223 121.963 99.1295 121.877C99.1724 121.845 99.21 121.807 99.2475 121.769C99.3548 121.672 99.4245 121.554 99.4674 121.424C99.5371 121.295 99.5639 121.155 99.5586 121.009C99.5639 120.858 99.5318 120.723 99.4674 120.594C99.4245 120.459 99.3494 120.346 99.2475 120.249C99.0437 120.06 98.7756 119.92 98.4914 119.931C98.3948 119.941 98.3037 119.958 98.2071 119.968C98.0248 120.022 97.8693 120.114 97.7352 120.243C97.6977 120.287 97.6548 120.33 97.6065 120.362C97.6762 120.308 97.7513 120.249 97.821 120.195C97.7513 120.249 97.6816 120.292 97.6011 120.324C97.6869 120.287 97.7727 120.254 97.8585 120.216C97.7674 120.254 97.6762 120.281 97.5797 120.292C97.6762 120.281 97.7674 120.265 97.8639 120.254C97.7727 120.265 97.6816 120.265 97.5958 120.254C97.6923 120.265 97.7835 120.281 97.88 120.292C97.8103 120.281 97.7459 120.265 97.6816 120.243C97.8961 120.772 98.1106 121.3 98.3251 121.829C98.3519 121.775 98.3841 121.726 98.4216 121.678C98.368 121.748 98.309 121.823 98.2554 121.893C98.3144 121.818 98.3787 121.753 98.4485 121.694C98.3787 121.748 98.3037 121.807 98.2339 121.861C98.309 121.807 98.3895 121.758 98.4753 121.721C98.3895 121.758 98.3037 121.791 98.2179 121.829C98.2983 121.796 98.3841 121.775 98.4699 121.758C98.3734 121.769 98.2822 121.785 98.1857 121.796C98.1964 121.796 98.2071 121.791 98.2179 121.791C98.368 121.796 98.5021 121.764 98.6308 121.699C98.7649 121.656 98.8775 121.581 98.974 121.478C99.0813 121.381 99.151 121.262 99.1939 121.133C99.2636 121.004 99.2904 120.863 99.2851 120.718C99.2743 120.621 99.2582 120.529 99.2475 120.432C99.1939 120.249 99.1027 120.092 98.974 119.958C98.9043 119.904 98.8292 119.844 98.7595 119.79C98.5664 119.693 98.3895 119.645 98.1964 119.645Z" fill="white"/>
<path d="M94.0945 122.346C93.8693 122.465 93.6333 122.697 93.5207 122.928C93.4724 123.031 93.4241 123.133 93.3866 123.241C93.3759 123.263 93.3705 123.29 93.3652 123.317C93.3437 123.43 93.3276 123.549 93.3169 123.667C93.3169 123.694 93.3115 123.721 93.3115 123.748C93.3115 123.775 93.3115 123.797 93.3169 123.824C93.3276 123.942 93.3437 124.061 93.3652 124.179C93.3973 124.314 93.467 124.46 93.5207 124.573C93.5421 124.622 93.5689 124.665 93.5958 124.702C93.6762 124.81 93.7513 124.934 93.8585 125.021C93.9443 125.091 94.0301 125.166 94.1267 125.225C94.2232 125.285 94.3519 125.328 94.4431 125.366C94.4645 125.376 94.486 125.382 94.5128 125.387C94.5235 125.387 94.5342 125.393 94.5503 125.393C94.6522 125.409 94.7595 125.43 94.8667 125.436C94.8936 125.436 94.915 125.436 94.9418 125.436C95.0384 125.425 95.151 125.414 95.2475 125.393C95.2636 125.387 95.2797 125.387 95.2904 125.382C95.3977 125.349 95.4996 125.301 95.5961 125.252C95.6175 125.242 95.6444 125.231 95.6658 125.215C95.7731 125.145 95.891 125.058 95.9822 124.961C96.068 124.859 96.1645 124.746 96.2289 124.622C96.2825 124.524 96.3201 124.417 96.363 124.314C96.3737 124.287 96.3844 124.266 96.3898 124.239C96.4327 124.104 96.4434 123.948 96.4541 123.813C96.4702 123.667 96.4327 123.5 96.4112 123.365C96.3898 123.225 96.3201 123.09 96.2611 122.961C96.2504 122.939 96.2396 122.912 96.2235 122.891C96.1699 122.804 96.1002 122.724 96.0412 122.648C96.0305 122.637 96.0251 122.627 96.0144 122.616C95.9179 122.513 95.7999 122.416 95.6658 122.352C95.5425 122.271 95.4084 122.228 95.269 122.222C95.1242 122.19 94.9847 122.195 94.8399 122.244C94.7005 122.276 94.5771 122.341 94.4753 122.438C94.3573 122.513 94.2661 122.616 94.1964 122.74C94.1588 122.826 94.1267 122.912 94.0891 122.999C94.0355 123.187 94.0355 123.381 94.0891 123.57C94.1267 123.656 94.1588 123.743 94.1964 123.829C94.2929 123.991 94.4216 124.12 94.5825 124.217C94.6093 124.233 94.6361 124.249 94.663 124.266C94.5932 124.212 94.5182 124.152 94.4484 124.099C94.4753 124.12 94.5021 124.147 94.5235 124.179C94.4699 124.109 94.4109 124.034 94.3573 123.964C94.3787 123.996 94.4002 124.028 94.4163 124.066C94.3787 123.98 94.3465 123.894 94.309 123.807C94.3305 123.856 94.3412 123.904 94.3465 123.953C94.3358 123.856 94.3197 123.764 94.309 123.667C94.3144 123.726 94.3144 123.786 94.309 123.845C94.3197 123.748 94.3358 123.656 94.3465 123.559C94.3358 123.624 94.3197 123.689 94.2929 123.753C94.3305 123.667 94.3626 123.581 94.4002 123.495C94.3787 123.543 94.3519 123.592 94.3144 123.635C94.368 123.565 94.427 123.489 94.4806 123.419C94.4538 123.451 94.4216 123.484 94.3895 123.511C94.4592 123.457 94.5342 123.398 94.604 123.344C94.5771 123.365 94.545 123.387 94.5128 123.398C94.5986 123.36 94.6844 123.327 94.7702 123.29C94.738 123.306 94.7005 123.317 94.663 123.322C94.7595 123.311 94.8507 123.295 94.9472 123.284C94.9096 123.29 94.8667 123.29 94.8292 123.284C94.9257 123.295 95.0169 123.311 95.1134 123.322C95.0759 123.317 95.0384 123.306 95.0062 123.295C95.092 123.333 95.1778 123.365 95.2636 123.403C95.2261 123.387 95.1939 123.365 95.1617 123.344C95.2314 123.398 95.3065 123.457 95.3762 123.511C95.344 123.484 95.3119 123.451 95.285 123.419C95.3387 123.489 95.3977 123.565 95.4513 123.635C95.4191 123.592 95.3923 123.543 95.3655 123.489C95.403 123.576 95.4352 123.662 95.4727 123.748C95.4459 123.689 95.4298 123.629 95.4191 123.565C95.4298 123.662 95.4459 123.753 95.4567 123.85C95.4459 123.786 95.4459 123.726 95.4567 123.662C95.4459 123.759 95.4298 123.85 95.4191 123.948C95.4245 123.899 95.4406 123.856 95.4567 123.807C95.4191 123.894 95.3869 123.98 95.3494 124.066C95.3655 124.028 95.3869 123.996 95.4084 123.964C95.3548 124.034 95.2958 124.109 95.2421 124.179C95.2636 124.152 95.285 124.131 95.3119 124.109C95.2421 124.163 95.1671 124.223 95.0973 124.276C95.1188 124.26 95.1456 124.244 95.1671 124.233C95.2904 124.163 95.3923 124.072 95.4674 123.953C95.5639 123.85 95.6283 123.726 95.6604 123.586C95.7033 123.441 95.7141 123.301 95.6819 123.155C95.6765 123.009 95.6336 122.88 95.5532 122.756C95.4996 122.686 95.4406 122.61 95.3869 122.54C95.2529 122.405 95.0973 122.314 94.915 122.265C94.8185 122.255 94.7273 122.238 94.6308 122.228C94.4431 122.201 94.2607 122.249 94.0945 122.346Z" fill="white"/>
<path d="M90.2709 127.14C90.2656 127.15 90.2656 127.161 90.2602 127.172C90.2548 127.204 90.2227 127.431 90.2227 127.463C90.2227 127.463 90.2227 127.463 90.2227 127.468V127.474C90.2227 127.522 90.2441 127.63 90.2441 127.63C90.2709 127.824 90.2656 127.835 90.3782 128.051C90.3782 128.056 90.3835 128.056 90.3835 128.062C90.3889 128.072 90.5444 128.272 90.5498 128.283C90.5498 128.283 90.5498 128.288 90.5552 128.288C90.6249 128.358 90.7053 128.417 90.7911 128.471C90.7965 128.471 90.7965 128.477 90.8018 128.477C90.8287 128.487 91.0324 128.574 91.0593 128.585H91.0646C91.0753 128.59 91.0807 128.59 91.0914 128.59C91.1933 128.606 91.3006 128.628 91.4025 128.633C91.4132 128.633 91.4239 128.633 91.4347 128.633C91.5419 128.628 91.6438 128.606 91.7511 128.59C91.7725 128.585 91.794 128.579 91.8101 128.574C91.9066 128.536 92.0031 128.504 92.0943 128.455C92.105 128.45 92.1104 128.444 92.1157 128.439C92.1533 128.412 92.2176 128.358 92.2284 128.353C92.2176 128.358 92.3034 128.299 92.3356 128.266L92.341 128.261C92.3463 128.256 92.3463 128.256 92.3517 128.25L92.3571 128.245C92.3731 128.229 92.5126 128.04 92.5233 128.024C92.5233 128.018 92.5287 128.018 92.5287 128.013C92.5769 127.927 92.6252 127.83 92.6467 127.733C92.6681 127.636 92.6842 127.533 92.6842 127.436V127.431C92.6842 127.431 92.6842 127.431 92.6842 127.425C92.6842 127.409 92.6467 127.15 92.6467 127.14C92.6467 127.134 92.6467 127.129 92.6413 127.123C92.6091 127.032 92.5716 126.94 92.5287 126.854C92.5233 126.848 92.5233 126.843 92.5179 126.838C92.4911 126.8 92.4268 126.719 92.4321 126.724C92.416 126.703 92.3731 126.649 92.3463 126.611C92.3463 126.606 92.341 126.606 92.341 126.6C92.2444 126.493 92.1265 126.422 91.9977 126.379C91.869 126.309 91.7296 126.282 91.5848 126.288C91.4347 126.282 91.3006 126.315 91.1719 126.379C91.0378 126.422 90.9252 126.498 90.8287 126.6C90.775 126.67 90.716 126.746 90.6624 126.816C90.5659 126.983 90.5176 127.167 90.5176 127.361C90.5283 127.458 90.5444 127.549 90.5552 127.646C90.6088 127.83 90.6999 127.986 90.8287 128.121C90.834 128.126 90.834 128.126 90.8394 128.132C90.7858 128.062 90.7268 127.986 90.6731 127.916C90.6785 127.921 90.6839 127.932 90.6892 127.943C90.6517 127.857 90.6195 127.77 90.582 127.684C90.5873 127.69 90.5873 127.695 90.5873 127.706C90.5766 127.609 90.5605 127.517 90.5498 127.42C90.5498 127.425 90.5498 127.431 90.5498 127.436C90.5605 127.339 90.5766 127.247 90.5873 127.15C90.5873 127.156 90.5873 127.161 90.582 127.167C90.6195 127.08 90.6517 126.994 90.6892 126.908C90.6839 126.913 90.6839 126.918 90.6785 126.929C90.7321 126.859 90.7911 126.784 90.8447 126.714C90.8394 126.724 90.8287 126.73 90.8233 126.735C90.893 126.681 90.9681 126.622 91.0378 126.568C91.0217 126.579 91.0056 126.59 90.9895 126.595C91.0753 126.557 91.1611 126.525 91.247 126.487C91.2201 126.498 91.1987 126.503 91.1719 126.509C91.2684 126.498 91.3596 126.482 91.4561 126.471C91.4347 126.476 91.4078 126.476 91.3864 126.471C91.4829 126.482 91.5741 126.498 91.6706 126.509C91.6545 126.509 91.6438 126.503 91.6277 126.498C91.7135 126.536 91.7993 126.568 91.8851 126.606C91.8744 126.6 91.869 126.6 91.8637 126.595C91.9334 126.649 92.0085 126.708 92.0782 126.762C92.0728 126.757 92.0675 126.751 92.0621 126.751C92.1157 126.821 92.1747 126.897 92.2284 126.967C92.223 126.962 92.223 126.956 92.2176 126.951C92.2552 127.037 92.2873 127.123 92.3249 127.21C92.3249 127.204 92.3195 127.199 92.3195 127.193C92.3302 127.291 92.3463 127.382 92.3571 127.479C92.3571 127.468 92.3571 127.463 92.3571 127.452C92.3463 127.549 92.3302 127.641 92.3195 127.738C92.3195 127.727 92.3249 127.716 92.3302 127.706C92.3731 127.56 92.3839 127.42 92.3517 127.274C92.3463 127.129 92.3034 126.999 92.223 126.875C92.1533 126.751 92.0621 126.649 91.9441 126.573C91.8422 126.476 91.7189 126.412 91.5794 126.379C91.4829 126.369 91.3918 126.352 91.2952 126.342C91.1022 126.342 90.9198 126.39 90.7536 126.487C90.6839 126.541 90.6088 126.6 90.5391 126.654C90.4157 126.8 90.3245 126.956 90.2709 127.14Z" fill="white"/>
<path d="M95.1295 84.5177C93.4992 83.7682 91.5739 83.8113 90.0294 84.7926C88.5225 85.7524 87.6269 87.4454 87.659 89.2462C87.6912 91.0633 88.6458 92.794 90.2493 93.6675C91.842 94.541 93.7834 94.5787 95.3761 93.6891C97.0547 92.7455 98.4812 90.9285 98.6207 88.9659C98.7601 86.9925 97.3765 85.2186 95.6014 84.5392C93.8156 83.8545 91.4935 84.3721 90.2064 85.8171C88.8925 87.2944 88.8067 89.5967 90.1206 91.1172C91.4291 92.6323 94.0676 92.7347 95.4405 91.252C96.8938 89.683 96.556 87.1057 94.797 85.9357C94.4537 86.7552 94.1105 87.5802 93.7619 88.3997C93.9121 88.4536 94.0569 88.5076 94.207 88.5615C94.8667 88.8041 95.7033 88.2919 95.8588 87.6179C96.0304 86.8577 95.6282 86.2161 94.9203 85.9573C94.7701 85.9033 94.6253 85.8494 94.4752 85.7955C93.8477 85.5637 93.1345 86.0004 92.8932 86.5773C92.625 87.2135 92.8771 87.8821 93.4402 88.2595C93.66 88.4051 93.3973 88.2164 93.3919 88.2164C93.408 88.211 93.526 88.3458 93.526 88.3458C93.6815 88.486 93.4723 88.2865 93.4884 88.2865C93.5045 88.2865 93.5528 88.3889 93.5635 88.4051C93.7244 88.6747 93.5313 88.2002 93.6171 88.5076C93.6279 88.5507 93.644 88.5992 93.6547 88.6424C93.6654 88.6855 93.6761 88.734 93.6869 88.7771C93.7083 88.8796 93.7029 88.8365 93.6708 88.6531C93.7029 88.6693 93.6761 88.9605 93.6761 88.982C93.6708 89.3109 93.7351 88.8257 93.6654 89.0413C93.6493 89.1007 93.6279 89.16 93.6171 89.2193C93.5474 89.4835 93.644 89.1438 93.6493 89.1546C93.6547 89.1654 93.5581 89.3217 93.5581 89.3163C93.4616 89.5158 93.6815 89.2408 93.5742 89.3055C93.4777 89.3649 93.2954 89.5374 93.5206 89.3864C93.4455 89.4403 93.2793 89.5805 93.1827 89.5805C93.1774 89.5805 93.4294 89.5158 93.2793 89.532C93.2203 89.5374 93.1506 89.5697 93.0916 89.5859C93.0433 89.6021 92.8342 89.6452 93.0272 89.6075C93.231 89.5643 92.9414 89.6075 92.9092 89.6075C92.8395 89.6075 92.507 89.5805 92.6947 89.6075C92.8932 89.6344 92.4909 89.5482 92.4427 89.532C92.4051 89.5212 92.3354 89.505 92.3032 89.4835C92.5392 89.656 92.4159 89.5374 92.3569 89.4943C92.3086 89.4619 92.2443 89.4242 92.1906 89.3918C92.3301 89.4673 92.314 89.5104 92.1906 89.3864C92.1424 89.3379 92.0995 89.284 92.0458 89.2354C91.9386 89.1384 92.0834 89.284 92.0941 89.3055C92.0297 89.1815 91.9493 89.0683 91.8903 88.9443C92.019 89.2085 91.8903 88.8742 91.8581 88.7718C91.8474 88.7448 91.7991 88.5669 91.8474 88.7448C91.901 88.9389 91.842 88.6639 91.842 88.61C91.8367 88.4698 91.842 88.3296 91.8581 88.1894C91.8313 88.4698 91.8689 88.2056 91.901 88.087C91.9118 88.0439 91.9761 87.8282 91.9225 88.0007C91.8689 88.1733 91.9386 87.9684 91.9654 87.9252C91.9922 87.8767 92.019 87.8336 92.0405 87.7905C92.1853 87.5209 91.8635 87.9522 92.0995 87.7042C92.196 87.6017 92.2979 87.5101 92.3998 87.413C92.507 87.3106 92.3891 87.4238 92.3676 87.44C92.4373 87.3969 92.5017 87.3483 92.5714 87.3052C92.7108 87.2243 92.8503 87.1434 93.0004 87.0787C92.7698 87.1758 93.1827 87.0302 93.2578 87.0086C93.3222 86.9925 93.7834 86.9116 93.5045 86.9439C93.6654 86.9278 93.8316 86.917 93.9925 86.9224C94.0515 86.9224 94.1159 86.9278 94.1749 86.9332C94.2178 86.9386 94.4645 86.9763 94.2982 86.9439C94.132 86.9116 94.384 86.9655 94.4216 86.9763C94.5181 86.9979 94.6146 87.0302 94.7165 87.0572C94.7648 87.068 94.9525 87.1542 94.738 87.0572C94.7916 87.0841 94.8506 87.1111 94.9042 87.1381C94.9739 87.1758 95.0383 87.2135 95.1026 87.2513C95.1348 87.2728 95.3332 87.4022 95.1938 87.3052C95.0651 87.2189 95.2153 87.3214 95.2313 87.3375C95.285 87.3861 95.344 87.4346 95.3922 87.4885C95.4459 87.5424 95.4941 87.5964 95.5424 87.6503C95.714 87.8228 95.4995 87.5586 95.5692 87.688C95.6336 87.8012 95.7033 87.9091 95.773 88.0223C95.8963 88.2326 95.7998 88.06 95.7784 88.0007C95.8052 88.0708 95.832 88.1409 95.8534 88.211C95.8963 88.3512 95.9285 88.4968 95.9553 88.6424C95.8963 88.3728 95.9392 88.7286 95.9446 88.8526C95.95 89.0845 95.95 88.9119 95.9607 88.8472C95.95 88.9281 95.9339 89.009 95.9124 89.0845C95.8802 89.2247 95.832 89.3541 95.7891 89.4889C95.7247 89.6776 95.8856 89.3325 95.7784 89.4996C95.7462 89.5482 95.7247 89.6075 95.6925 89.6614C95.6014 89.8232 95.4941 89.9741 95.3976 90.1305C95.2903 90.3084 95.5209 89.9957 95.3815 90.1521C95.3279 90.2114 95.2742 90.2761 95.2206 90.3408C95.1241 90.4486 95.0222 90.5564 94.9203 90.6589C94.797 90.7829 94.6682 90.8961 94.5395 91.0093C94.5127 91.0309 94.3411 91.1603 94.5074 91.0417C94.4376 91.0902 94.3679 91.1441 94.2982 91.1873C94.1534 91.2843 94.0033 91.3598 93.8531 91.4461C93.8048 91.473 93.6064 91.5431 93.8424 91.4569C93.778 91.4784 93.7083 91.5054 93.644 91.527C93.526 91.5647 93.408 91.597 93.2846 91.6186C93.2364 91.6294 93.0111 91.6617 93.2042 91.6402C93.4133 91.6132 93.0755 91.6456 93.0701 91.6456C92.9468 91.651 92.8234 91.651 92.7001 91.6456C92.6304 91.6402 92.5607 91.6348 92.4909 91.6294C92.2925 91.6186 92.7215 91.6833 92.5338 91.6348C92.4159 91.6024 92.2925 91.5863 92.1745 91.5539C92.1048 91.5377 92.0405 91.5162 91.9708 91.4946C91.9332 91.4838 91.6543 91.3814 91.8313 91.4515C91.9976 91.5162 91.7884 91.4299 91.7509 91.4083C91.7026 91.3868 91.6543 91.3598 91.6114 91.3328C91.4881 91.2628 91.3701 91.1873 91.2521 91.1118C91.1931 91.074 91.0805 90.95 91.2736 91.128C91.236 91.0902 91.1931 91.0579 91.1556 91.0255C91.0376 90.9177 90.9304 90.7991 90.8231 90.6858C91.0162 90.8961 90.7695 90.605 90.7212 90.5241C90.6569 90.4162 90.6032 90.303 90.5442 90.1898C90.4477 90.0226 90.6086 90.4001 90.555 90.2114C90.5389 90.1574 90.5174 90.1089 90.5013 90.0604C90.4531 89.904 90.4102 89.7477 90.3834 89.5859C90.3565 89.5428 90.3351 89.3109 90.3512 89.4996C90.3673 89.7045 90.3512 89.3918 90.3458 89.3541C90.3351 89.1869 90.3405 89.0252 90.3512 88.8634C90.3565 88.8095 90.3619 88.7556 90.3673 88.7017C90.3351 89.0413 90.378 88.6909 90.3941 88.6316C90.4263 88.4914 90.4692 88.3512 90.5121 88.2164C90.5818 87.9846 90.5174 88.1841 90.496 88.238C90.5282 88.1517 90.5657 88.0708 90.6086 87.99C90.6837 87.8444 90.7748 87.7096 90.866 87.5748C90.7105 87.8012 90.9304 87.5101 91.0001 87.44C91.0483 87.3915 91.102 87.3429 91.1502 87.2944C91.161 87.289 91.413 87.0949 91.2575 87.1974C91.1127 87.2998 91.3004 87.1704 91.3379 87.1488C91.413 87.1003 91.4881 87.0572 91.5632 87.014C91.6651 86.9601 91.9868 86.8307 91.7187 86.9224C91.8689 86.8685 92.019 86.8145 92.1692 86.7714C92.2657 86.7445 92.7055 86.6744 92.3837 86.7121C92.5392 86.6959 92.7001 86.6851 92.861 86.6851C92.9682 86.6851 93.4187 86.7391 93.0809 86.6798C93.2257 86.6959 93.3651 86.7229 93.4992 86.7606C93.5689 86.7768 93.6332 86.7984 93.7029 86.8199C93.7727 86.8415 94.0623 86.9763 93.7727 86.8415C94.4108 87.1327 95.2474 87.0464 95.6067 86.3562C95.9178 85.7685 95.8105 84.8304 95.1295 84.5177Z" fill="#FFC02A"/>
<path d="M90.0728 91.225C88.0403 94.8105 86.4636 98.6495 85.391 102.629C85.2087 103.308 85.6163 104.128 86.3295 104.289C88.7321 104.828 89.3327 101.755 89.9441 100.094C90.6788 98.0941 91.4135 96.0884 92.1536 94.088C92.4056 93.4033 91.8747 92.6107 91.2151 92.4274C90.4643 92.2225 89.8154 92.6808 89.5633 93.3709C88.9788 94.9615 88.3942 96.5467 87.815 98.1373C87.5362 98.8975 87.2573 99.6577 86.9784 100.418C86.8229 100.822 86.6996 101.254 86.5172 101.653C86.603 101.459 86.3885 101.874 86.3885 101.858C86.3885 101.642 87.4343 101.782 87.0374 101.69C87.3485 102.246 87.6595 102.796 87.9759 103.351C88.9895 99.5823 90.4643 95.9806 92.3895 92.5891C93.2422 91.074 90.9308 89.7153 90.0728 91.225Z" fill="#FFC02A"/>
<path d="M90.7211 97.0211C90.7694 97.0265 90.9357 97.0535 90.764 97.0211C90.807 97.0319 90.8552 97.0373 90.9035 97.0427C91 97.0643 91.0965 97.0858 91.1877 97.1182C91.2306 97.1344 91.2735 97.1505 91.3164 97.1667C91.3969 97.1991 91.3218 97.1775 91.2896 97.1559C91.3111 97.1721 91.3379 97.1775 91.3593 97.1883C91.4505 97.2314 91.5363 97.2746 91.6167 97.3285C91.6543 97.3554 91.6972 97.377 91.7347 97.404C91.7562 97.4201 91.7776 97.4363 91.7991 97.4471C91.8581 97.4902 91.7776 97.4309 91.7669 97.4201C91.842 97.4848 91.9171 97.5441 91.9868 97.6142C92.0565 97.6843 92.1208 97.7544 92.1852 97.8353C92.2442 97.9054 92.1316 97.7598 92.1691 97.8137C92.1852 97.8353 92.2013 97.8569 92.212 97.8784C92.2388 97.9216 92.271 97.9647 92.2978 98.0078C92.4533 97.7382 92.6089 97.4687 92.759 97.1991C92.6035 97.2152 92.448 97.2152 92.2925 97.2098C92.2227 97.2045 92.1477 97.1937 92.0779 97.1937C92.2227 97.1937 92.1208 97.1991 92.0779 97.1937C92.035 97.1883 91.9975 97.1775 91.9546 97.1721C91.8098 97.1398 91.665 97.102 91.5202 97.0535C91.488 97.0427 91.4505 97.0265 91.4183 97.0157C91.3111 96.9726 91.5095 97.0589 91.413 97.0157C91.3379 96.978 91.2628 96.9457 91.1877 96.9025C91.0965 97.2368 91.0054 97.5711 90.9196 97.9054C90.9357 97.9054 90.9571 97.9108 90.9732 97.9108C90.8499 97.9216 90.8606 97.8892 90.9088 97.9054C90.941 97.9162 90.9786 97.9216 91.0107 97.9323C91.059 97.9485 91.1555 98.0024 91.0107 97.927C91.0429 97.9431 91.0751 97.9593 91.1073 97.9755C91.236 98.0456 91.3647 98.1211 91.4934 98.1858C91.901 98.3799 92.3622 98.4446 92.7429 98.148C93.0432 97.9162 93.1934 97.528 93.1559 97.1505C93.113 96.703 92.8931 96.3526 92.5231 96.1045C92.1369 95.8457 91.6543 95.7918 91.2038 95.7433C91.2038 96.1045 91.2038 96.4604 91.2038 96.8216C91.2682 96.8216 91.3325 96.827 91.3969 96.827C91.4344 96.827 91.4719 96.8324 91.5095 96.8378C91.5524 96.8432 91.6382 96.8702 91.4773 96.8324C91.5417 96.8486 91.606 96.854 91.665 96.8702C91.6918 96.8756 91.7186 96.8863 91.7401 96.8917C91.8688 96.9349 91.6543 96.8432 91.7347 96.8863C91.7562 96.8971 91.7776 96.9079 91.8044 96.9241C91.8205 96.9349 91.8313 96.9403 91.8473 96.951C91.7776 96.8917 91.7562 96.881 91.7883 96.9079C91.8044 96.9295 91.8313 96.9564 91.8527 96.9726C91.7562 96.8971 91.7991 96.8917 91.8313 96.9457C91.842 96.9618 91.8473 96.978 91.8581 96.9942C91.8259 96.9079 91.8152 96.8917 91.8366 96.9457C91.8366 96.9564 91.842 96.9618 91.842 96.9726C91.8527 97.0265 91.8527 97.0104 91.8366 96.9079C91.8366 96.9349 91.8366 96.978 91.8366 97.005C91.8313 97.0481 91.8366 97.0211 91.8473 96.9295C91.842 96.9457 91.842 96.9672 91.8366 96.9834C91.8313 97.0104 91.8152 97.0373 91.8098 97.0643C91.8473 96.978 91.8527 96.9618 91.8313 97.0104C91.8205 97.0265 91.8152 97.0427 91.8044 97.0589C91.7883 97.0858 91.7723 97.1074 91.7562 97.129C91.8098 97.0589 91.8205 97.0427 91.7883 97.0858C91.7776 97.0966 91.7669 97.1074 91.7615 97.1182C91.7401 97.1451 91.7133 97.1667 91.6865 97.1883C91.6114 97.2584 91.783 97.1236 91.7025 97.1721C91.6704 97.1937 91.6382 97.2098 91.606 97.2314C91.5041 97.2907 91.7133 97.1991 91.6006 97.2314C91.5202 97.253 91.4398 97.2746 91.3593 97.2907C91.2521 97.3123 91.4827 97.2799 91.3432 97.2907C91.3003 97.2961 91.2574 97.2961 91.2199 97.2961C91.0483 97.3015 90.882 97.2907 90.7104 97.2799C90.4316 97.2638 90.1634 97.5387 90.1741 97.8191C90.1902 98.1264 90.4101 98.3367 90.7104 98.3583C91.059 98.3799 91.4076 98.3906 91.7508 98.3098C92.1316 98.2181 92.4372 98.0024 92.6679 97.6897C92.877 97.404 92.9574 97.0211 92.8716 96.6761C92.7805 96.3148 92.5016 96.0452 92.1691 95.8996C91.8634 95.7702 91.5363 95.7379 91.2038 95.7325C90.9249 95.7271 90.6568 95.9859 90.6675 96.2717C90.6836 96.5898 90.9035 96.7785 91.2038 96.8109C91.2413 96.8163 91.2789 96.8216 91.3164 96.8216C91.3379 96.8216 91.4505 96.8378 91.3593 96.827C91.2628 96.8163 91.3915 96.8324 91.4183 96.8378C91.4612 96.8432 91.5041 96.854 91.547 96.8594C91.6167 96.8756 91.6811 96.8917 91.7508 96.9079C91.783 96.9187 91.8098 96.9295 91.842 96.9403C91.8634 96.9457 91.9278 96.9726 91.8527 96.9403C91.7723 96.9079 91.842 96.9349 91.8581 96.9457C91.9171 96.978 91.9707 97.0211 92.0297 97.0481C92.0297 97.0481 91.9439 96.9726 91.9814 97.0104C91.9975 97.0265 92.0136 97.0373 92.0297 97.0535C92.0511 97.0751 92.0672 97.0966 92.0887 97.1182C91.9814 97.0104 92.035 97.0481 92.0619 97.0966C92.0672 97.102 92.1048 97.1667 92.0994 97.1721C92.094 97.1775 92.0565 97.0481 92.0672 97.0966C92.0672 97.1074 92.0726 97.1182 92.0779 97.129C92.0887 97.1613 92.094 97.1883 92.0994 97.2206C92.1208 97.3015 92.0887 97.0858 92.094 97.1721C92.094 97.1991 92.0994 97.226 92.094 97.253C92.094 97.3123 92.0619 97.3716 92.1048 97.2152C92.0994 97.2422 92.094 97.2692 92.0887 97.2907C92.0833 97.3069 92.0779 97.3177 92.0726 97.3339C92.0619 97.377 92.1048 97.2584 92.1048 97.2584C92.0994 97.2584 92.0779 97.3069 92.0726 97.3177C92.0404 97.3824 92.1101 97.2584 92.1208 97.2584C92.1155 97.2584 92.1048 97.2799 92.0994 97.2799C92.094 97.2853 92.0833 97.2961 92.0779 97.3015C92.0243 97.3608 92.1798 97.2368 92.1262 97.2638C92.1048 97.2746 92.0297 97.3123 92.1208 97.2746C92.2442 97.2206 92.094 97.2853 92.0887 97.2746C92.0779 97.2638 92.2227 97.2746 92.1691 97.2638C92.1584 97.2638 92.1423 97.2638 92.1316 97.2638C92.1369 97.2638 92.0833 97.2638 92.0833 97.2638C92.0833 97.2584 92.2281 97.2907 92.153 97.2746C92.1262 97.2692 92.094 97.2584 92.0672 97.253C92.0458 97.2476 91.96 97.2098 92.0458 97.2476C92.1423 97.2907 92.035 97.2422 92.0136 97.2314C91.9814 97.2152 91.9492 97.1991 91.9171 97.1829C91.6006 97.0104 91.295 96.8378 90.9196 96.8216C90.6943 96.8109 90.453 96.9942 90.4047 97.2152C90.3511 97.4417 90.4369 97.7059 90.6514 97.8245C91.295 98.1696 92.035 98.3421 92.7644 98.2774C92.9574 98.2612 93.1237 98.1858 93.2256 98.0078C93.3221 97.8461 93.3275 97.625 93.2256 97.4633C92.6893 96.579 91.7508 96.0183 90.7265 95.9428C90.4476 95.9212 90.1795 96.207 90.1902 96.482C90.1956 96.7947 90.4208 96.9996 90.7211 97.0211Z" fill="#FFC02A"/>
<path d="M90.6351 100.186C90.6458 100.175 90.6565 100.165 90.6726 100.148C90.6351 100.175 90.6029 100.202 90.5654 100.235C90.5814 100.224 90.6029 100.213 90.6243 100.202C90.5814 100.218 90.5385 100.24 90.4956 100.256C90.5225 100.245 90.5493 100.24 90.5761 100.235C90.5278 100.24 90.4796 100.245 90.4313 100.256C90.4581 100.256 90.4849 100.256 90.5171 100.256C90.4688 100.251 90.4206 100.245 90.3723 100.235C90.4152 100.24 90.4527 100.251 90.4903 100.267C90.4474 100.251 90.4045 100.229 90.3616 100.213C90.3991 100.229 90.4366 100.251 90.4688 100.278C90.4313 100.251 90.3991 100.224 90.3616 100.192C90.3937 100.218 90.4259 100.245 90.4527 100.283C90.4259 100.245 90.3991 100.213 90.3669 100.175C90.3884 100.202 90.4045 100.235 90.4206 100.267C90.4045 100.224 90.383 100.181 90.3669 100.138C90.383 100.17 90.3884 100.202 90.3937 100.24C90.3884 100.192 90.383 100.143 90.3723 100.094C90.3777 100.127 90.3723 100.159 90.3723 100.192C90.3777 100.143 90.383 100.094 90.3937 100.046C90.3884 100.094 90.3777 100.138 90.3616 100.175C90.3777 100.132 90.3991 100.089 90.4152 100.046C90.3937 100.094 90.3723 100.138 90.3401 100.175C90.3669 100.138 90.3937 100.105 90.4259 100.068C90.3884 100.111 90.3455 100.154 90.3026 100.192C90.3401 100.165 90.3723 100.138 90.4098 100.105C90.3562 100.143 90.2972 100.175 90.2382 100.202C90.2811 100.186 90.324 100.165 90.3669 100.148C90.3026 100.175 90.2382 100.192 90.1739 100.202C90.2221 100.197 90.2704 100.192 90.3187 100.181C90.2329 100.192 90.1417 100.192 90.0559 100.175C90.1042 100.181 90.1524 100.186 90.2007 100.197C90.0505 100.175 89.9165 100.132 89.7824 100.078C89.8253 100.094 89.8682 100.116 89.9111 100.132C89.8038 100.089 89.7019 100.035 89.6 99.9813C89.3963 99.8734 89.1174 99.8842 88.9511 100.068C88.7956 100.24 88.7366 100.515 88.8653 100.72C89.0745 101.054 89.3963 101.318 89.777 101.421C89.9915 101.48 90.2168 101.48 90.4313 101.432C90.6297 101.389 90.8013 101.281 90.9568 101.151C91.2303 100.925 91.4127 100.531 91.3751 100.175C91.3537 99.9327 91.2679 99.7278 91.107 99.5391C90.9837 99.3989 90.8228 99.3127 90.6565 99.2426C90.2972 99.097 89.8199 99.1833 89.5571 99.4798C89.4606 99.5877 89.4016 99.7117 89.4016 99.8626C89.4016 99.9974 89.4606 100.154 89.5571 100.245C89.7609 100.434 90.1202 100.472 90.3133 100.245C90.3348 100.224 90.3508 100.202 90.3777 100.186C90.3401 100.213 90.3079 100.24 90.2704 100.272C90.2972 100.251 90.3294 100.235 90.3562 100.218C90.3133 100.235 90.2704 100.256 90.2275 100.272C90.265 100.256 90.3026 100.245 90.3401 100.24C90.2919 100.245 90.2436 100.251 90.1953 100.262C90.249 100.256 90.2972 100.256 90.3508 100.262C90.3026 100.256 90.2543 100.251 90.206 100.24C90.2597 100.251 90.3079 100.262 90.3616 100.283C90.3187 100.267 90.2758 100.245 90.2329 100.229C90.2811 100.251 90.3294 100.278 90.3723 100.31C90.3348 100.283 90.3026 100.256 90.265 100.224C90.2972 100.251 90.324 100.278 90.3508 100.31C90.324 100.272 90.2972 100.24 90.265 100.202C90.2919 100.235 90.3133 100.272 90.3294 100.31C90.3133 100.267 90.2919 100.224 90.2758 100.181C90.2919 100.224 90.3026 100.267 90.3133 100.316C90.3187 100.272 90.3133 100.224 90.3079 100.175C90.3133 100.224 90.3133 100.272 90.3079 100.321C90.3133 100.272 90.3187 100.224 90.3294 100.175C90.3187 100.229 90.3079 100.283 90.2865 100.337C90.3026 100.294 90.324 100.251 90.3401 100.208C90.3133 100.267 90.2811 100.321 90.2436 100.375C90.2704 100.337 90.2972 100.305 90.3294 100.267C90.2865 100.316 90.2436 100.364 90.19 100.402C90.2275 100.375 90.2597 100.348 90.2972 100.316C90.249 100.348 90.2007 100.38 90.1471 100.402C90.19 100.386 90.2329 100.364 90.2758 100.348C90.2221 100.369 90.1685 100.386 90.1095 100.396C90.1578 100.391 90.206 100.386 90.2543 100.375C90.1846 100.386 90.1149 100.386 90.0452 100.375C90.0934 100.38 90.1417 100.386 90.19 100.396C90.1095 100.386 90.0398 100.364 89.9647 100.337C90.0076 100.353 90.0505 100.375 90.0934 100.391C90.013 100.359 89.9379 100.31 89.8682 100.262C89.9057 100.289 89.9379 100.316 89.9754 100.348C89.9004 100.289 89.8307 100.218 89.7717 100.143C89.7985 100.181 89.8253 100.213 89.8575 100.251C89.836 100.224 89.8199 100.197 89.8038 100.17C89.5571 100.418 89.3158 100.661 89.0691 100.909C89.2247 100.99 89.3855 101.065 89.5464 101.13C89.7127 101.194 89.8789 101.232 90.0559 101.254C90.3508 101.291 90.6833 101.221 90.93 101.049C91.2357 100.839 91.4556 100.52 91.4609 100.138C91.4609 99.7979 91.2572 99.4852 90.9729 99.3127C90.6297 99.1024 90.1685 99.124 89.8843 99.4205C89.6859 99.62 89.6698 99.9866 89.8843 100.181C90.0881 100.38 90.4259 100.402 90.6351 100.186Z" fill="#FFC02A"/>
</g>
</g>
<defs>
<clipPath id="clip0">
<rect width="74.4574" height="87.131" fill="white" transform="translate(85.3477 84)"/>
</clipPath>
</defs>
</svg>
