<svg width="233" height="233" viewBox="0 0 233 233" fill="none" xmlns="http://www.w3.org/2000/svg">
<mask id="mask0" mask-type="alpha" maskUnits="userSpaceOnUse" x="0" y="0" width="233" height="233">
<rect width="233" height="233" fill="#C4C4C4"/>
</mask>
<g mask="url(#mask0)">
<path fill-rule="evenodd" clip-rule="evenodd" d="M105.77 25.0942C125.311 26.5149 136.652 47.2791 153.432 57.3837C170.894 67.8991 196.137 67.947 206.278 85.618C216.442 103.331 207.809 125.519 204.047 145.588C200.435 164.858 198.551 185.889 184.853 199.929C171.384 213.733 150.469 215.206 131.71 219.728C113.866 224.03 96.0169 229.586 78.084 225.668C59.426 221.591 40.8962 212.794 29.5916 197.415C18.5912 182.45 20.8431 162.428 18.0993 144.065C15.3385 125.587 6.86823 106.84 13.4451 89.3511C20.1517 71.5177 37.7848 61.0034 53.4315 50.1135C69.6287 38.8405 86.0817 23.6628 105.77 25.0942Z" fill="#1E32B3"/>
<g clip-path="url(#clip0)">
<path d="M92.9184 108.341C91.3503 109.743 90.0025 111.297 88.7629 112.988C87.6914 114.449 89.1624 116.267 90.6969 116.345C91.6265 116.394 92.5525 116.442 93.4821 116.49C92.7354 115.747 91.9887 115.003 91.242 114.26C91.0441 116.371 90.2899 119.093 92.4293 120.475C93.2469 121.003 94.3483 121.16 95.2854 121.364C96.4391 121.62 97.7197 121.992 98.907 122.022C101.52 122.093 102.14 119.684 102.525 117.58C103.018 114.91 103.133 112.226 102.868 109.527C102.749 108.315 101.939 107.312 100.628 107.297C98.444 107.271 94.6096 106.449 93.0192 108.341C91.5444 110.096 92.097 113.713 92.2314 115.817C92.3173 117.148 93.6091 118.498 95.0689 117.97C97.197 117.2 98.4029 115.635 98.556 113.379C98.7539 110.457 94.4342 110.613 94.0758 113.379C93.9973 113.981 93.9189 114.583 93.8443 115.189C93.5867 117.182 96.4204 118.033 97.6674 116.765C98.1341 116.293 98.6008 115.821 99.0638 115.349C97.8914 114.449 96.7191 113.546 95.5468 112.646C94.6694 114.628 94.8822 116.334 96.2636 118.014C98.093 120.238 101.244 117.063 99.4334 114.858C99.4297 114.869 99.4222 114.884 99.4185 114.895C100.378 112.721 97.8205 110.249 95.9015 112.193C95.4348 112.665 94.9681 113.137 94.5051 113.609C95.7782 114.133 97.0551 114.661 98.3283 115.185C98.4067 114.583 98.4851 113.981 98.5597 113.375C97.0663 113.375 95.5729 113.375 94.0795 113.375C94.087 113.531 94.0235 113.628 93.8816 113.665C94.8262 114.382 95.7708 115.1 96.7191 115.817C96.6631 114.933 96.622 114.048 96.6258 113.159C96.6295 112.717 96.6407 112.271 96.6594 111.828C96.8908 111.092 96.734 110.959 96.1852 111.434C95.446 111.721 95.5132 111.814 96.3831 111.71C96.8535 111.713 97.3277 111.721 97.7981 111.724C98.7427 111.736 99.6873 111.747 100.632 111.758C99.8851 111.014 99.1384 110.271 98.3917 109.527C98.5373 110.999 98.5933 112.468 98.5 113.947C98.4888 114.152 97.8392 118.423 97.7608 118.386C98.8659 117.806 99.0675 117.494 98.3656 117.449C98.052 117.39 97.7346 117.33 97.421 117.264C96.8796 117.152 96.1068 116.81 95.543 116.847C94.7254 116.513 94.6918 116.68 95.4348 117.353C95.4534 117.148 95.4721 116.94 95.4945 116.736C95.767 116.089 95.6625 114.966 95.7297 114.26C95.8455 113.014 94.6059 112.085 93.4896 112.029C92.5599 111.981 91.634 111.933 90.7044 111.884C91.3503 113.003 91.9924 114.122 92.6383 115.241C93.6501 113.862 94.8187 112.635 96.0956 111.498C98.2349 109.572 95.0614 106.427 92.9184 108.341Z" fill="#FF8755"/>
<path d="M49.6204 116.962C54.7353 116.695 59.854 117.003 64.8756 118.026C65.8128 118.215 67.3174 118.914 68.247 118.814C69.0012 119.241 69.1953 119.007 68.8369 118.115C69.0609 117.338 68.8481 117.048 68.1985 117.245C67.7169 117.044 66.8805 117.141 66.3691 117.089C64.0729 116.858 61.8067 116.468 59.7681 115.338C57.248 113.936 54.9855 117.788 57.5056 119.189C60.597 120.907 64.1177 121.431 67.6086 121.665C69.2401 121.773 70.8941 121.539 71.9955 120.223C73.0222 118.992 73.1417 117.126 72.0888 115.877C71.0136 114.598 68.9527 114.368 67.4219 114.022C65.5215 113.591 63.6025 113.256 61.6723 112.996C57.6699 112.457 53.6563 112.297 49.6241 112.505C46.7493 112.65 46.7343 117.115 49.6204 116.962Z" fill="#FF8755"/>
<path d="M56.9078 114.884C55.6645 116.323 54.5071 118.04 54.7648 120.033C55.0485 122.212 56.8369 123.301 58.7933 123.851C61.571 124.635 62.7583 120.33 59.9843 119.55C59.6781 119.464 59.3272 119.409 59.0621 119.223C58.9314 119.13 59.2114 119.379 59.1927 119.472C59.3085 118.97 59.7229 118.457 60.0776 118.044C60.8654 117.13 60.9774 115.788 60.0776 114.888C59.2674 114.081 57.6993 113.966 56.9078 114.884Z" fill="#FF8755"/>
<path d="M58.5169 122.528C60.0776 123.483 61.9966 125.197 63.9605 124.669C65.775 124.182 67.3356 122.141 68.6722 120.925C70.8078 118.985 67.6305 115.84 65.5024 117.769C64.7893 118.42 63.2361 120.245 62.594 120.409C62.9897 120.409 63.3892 120.409 63.785 120.409C62.7919 120.204 61.627 119.2 60.772 118.676C58.3153 117.171 56.0603 121.026 58.5169 122.528Z" fill="#FF967A"/>
<path d="M59.3159 121.594C60.7458 122.293 62.4297 123.531 64.065 122.959C65.5099 122.453 66.6598 120.728 67.6865 119.658C69.6765 117.58 66.5142 114.423 64.5167 116.501C64.0612 116.977 63.6057 117.453 63.1502 117.929C62.8478 118.245 62.3811 118.862 62.0713 118.996C62.4483 118.896 62.8254 118.791 63.2025 118.691C63.1278 118.68 63.0494 118.672 62.9748 118.661C63.3519 118.762 63.729 118.866 64.106 118.966C63.2473 118.598 62.4147 118.152 61.5747 117.743C60.4882 117.211 59.1516 117.449 58.5095 118.542C57.9345 119.524 58.2257 121.059 59.3159 121.594Z" fill="#FF967A"/>
<path d="M67.3324 118.851C68.3591 118.989 69.5389 118.996 70.5171 119.338C70.1885 119.148 69.8562 118.955 69.5277 118.765C69.285 117.888 69.1693 117.68 69.1805 118.137C69.1767 118.308 69.173 118.483 69.1655 118.654C69.1581 118.94 69.1506 119.23 69.1431 119.516C69.1282 120.148 69.1095 120.78 69.0946 121.412C70.0392 120.695 70.9838 119.977 71.9321 119.26C71.2115 119.055 70.4909 118.851 69.7741 118.646C66.9964 117.858 65.8091 122.163 68.5831 122.948C69.3037 123.152 70.0243 123.357 70.7411 123.561C72.1748 123.966 73.5413 122.84 73.5786 121.409C73.601 120.606 73.6197 119.799 73.6421 118.996C73.6645 118.078 73.7578 117.137 73.2836 116.308C72.3503 114.672 70.1661 114.765 68.5271 114.546C67.3286 114.386 66.1227 114.832 65.7718 116.104C65.4805 117.148 66.1227 118.691 67.3324 118.851Z" fill="#FF967A"/>
<path d="M57.8487 121.468C58.0466 121.494 58.2333 121.561 58.4312 121.594C58.6813 121.639 58.0429 121.39 58.2631 121.516C58.3565 121.572 58.4573 121.624 58.5544 121.676C58.812 121.814 58.4872 121.635 58.4237 121.557C58.476 121.621 58.5618 121.673 58.6216 121.732C58.685 121.792 58.9277 122.096 58.7112 121.803C58.4834 121.494 58.7336 121.858 58.7597 121.903C59.372 122.896 60.7945 123.364 61.825 122.702C62.8255 122.059 63.2848 120.713 62.6277 119.65C61.8548 118.397 60.5331 117.364 59.0397 117.167C58.4125 117.081 57.8823 117.059 57.3148 117.39C56.8519 117.661 56.4076 118.193 56.2844 118.725C56.1537 119.297 56.1836 119.936 56.5084 120.442C56.7996 120.892 57.2887 121.394 57.8487 121.468Z" fill="#FF967A"/>
<path d="M58.1399 120.97C59.581 120.97 59.5848 118.739 58.1399 118.739C56.6987 118.739 56.695 120.97 58.1399 120.97Z" fill="white"/>
<path d="M48.0704 114.003C48.9254 114.234 49.7654 113.996 50.4263 113.431C50.8706 113.048 50.8482 112.241 50.4263 111.854C49.9521 111.42 49.3174 111.446 48.8432 111.854C49.1233 111.613 48.8022 111.921 48.7574 111.888C48.7984 111.869 48.8432 111.851 48.8843 111.832C48.8358 111.847 48.7872 111.862 48.7387 111.873C48.496 111.947 48.9889 111.847 48.7387 111.866C48.6155 111.858 48.6379 111.866 48.8134 111.888C48.7648 111.881 48.7163 111.869 48.6678 111.854C48.104 111.702 47.4245 112.044 47.2901 112.635C47.152 113.219 47.4656 113.84 48.0704 114.003Z" fill="white"/>
<path d="M94.8111 109.587C96.129 108.241 98.3019 108.561 99.6236 109.769C100.979 111.007 101.517 112.921 101.826 114.665C102.136 116.42 102.192 118.208 102.495 119.963C102.681 121.037 102.89 123.137 104.044 123.691C104.604 123.959 105.231 123.836 105.575 123.29C105.605 123.245 105.635 123.197 105.661 123.152C106.012 122.595 105.724 121.985 105.258 121.628C105.224 121.602 105.19 121.576 105.157 121.554C104.014 120.676 102.898 122.613 104.025 123.479C104.059 123.505 104.093 123.531 104.126 123.554C103.992 123.044 103.857 122.535 103.723 122.029C103.693 122.074 103.663 122.122 103.637 122.167C104.149 122.033 104.66 121.899 105.168 121.766C104.753 121.568 104.518 118.502 104.466 118.055C104.332 116.91 104.242 115.758 104.07 114.62C103.772 112.68 103.223 110.71 102.013 109.118C99.9559 106.408 95.7855 105.393 93.2243 108.011C92.22 109.04 93.803 110.617 94.8111 109.587Z" fill="#28B3C2"/>
<path d="M93.7878 109.988C95.4194 110.144 97.2376 110.323 98.675 111.182C100.661 112.368 100.822 114.661 100.635 116.751C100.359 119.851 98.339 123.186 100.523 125.981C100.826 126.372 101.486 126.375 101.882 126.156C103.719 125.134 104.735 123.364 104.679 121.267C104.652 120.39 103.756 119.922 102.995 120.305C101.651 120.977 100.982 122.137 100.923 123.613C100.863 125.048 103.103 125.044 103.163 123.613C103.17 122.899 103.491 122.438 104.126 122.23C103.566 121.91 103.002 121.587 102.442 121.267C102.479 122.591 101.916 123.583 100.755 124.23C101.206 124.29 101.658 124.345 102.114 124.405C100.9 122.851 102.539 119.524 102.767 117.803C103.021 115.884 103.114 113.758 102.289 111.951C100.796 108.683 97.0061 108.063 93.7915 107.754C92.3541 107.624 92.3616 109.854 93.7878 109.988Z" fill="#28B3C2"/>
<path d="M93.6947 108.23C93.4968 106.958 93.2579 105.371 94.6393 104.691C95.625 104.204 97.0512 104.457 98.0592 104.765C100.258 105.438 102.035 107.118 102.838 109.256C103.462 108.895 104.085 108.531 104.709 108.17C102.446 106.267 99.5452 104.431 96.536 104.074C94.8111 103.869 91.6226 105.115 92.9069 107.401C93.7545 108.91 96.9541 109.077 97.7568 107.393C98.9553 104.877 94.7588 104.412 93.2542 104.635C92.276 104.78 92.205 106.241 92.9853 106.672C94.5833 107.557 95.9236 105.479 94.587 104.3C93.0974 102.984 90.3569 103.52 89.9761 105.572C89.558 107.814 91.7757 109.066 93.7283 109.051C95.2255 109.04 96.5994 108.505 98.104 108.91C99.7953 109.367 101.039 110.538 101.8 112.078C102.342 113.17 103.783 112.501 103.887 111.516C103.503 111.315 103.394 111.39 103.562 111.739C103.626 112.04 103.682 112.345 103.727 112.654C103.801 113.167 103.85 113.687 103.88 114.204C103.951 115.39 103.913 116.583 103.768 117.762C103.48 120.089 102.756 122.308 101.681 124.39C102.375 124.576 103.073 124.766 103.768 124.951C103.701 123.591 103.63 122.23 103.562 120.87C103.518 119.951 102.663 119.576 101.879 119.907C101.173 120.204 100.561 120.554 99.9447 121.007C100.505 121.327 101.068 121.65 101.629 121.97C101.658 121.687 101.688 121.409 101.718 121.126C101.83 120.067 100.464 119.788 99.8065 120.338C98.8209 121.159 97.9323 122.044 97.0997 123.022C96.6592 123.539 96.6405 124.42 97.3275 124.773C99.3062 125.792 102.771 127.212 104.992 126.208C106.094 125.71 106.452 124.442 106.859 123.394C107.464 121.829 107.916 120.212 108.233 118.568C109.017 114.539 109.887 105.579 103.17 106.557C102.588 106.642 102.218 107.412 102.386 107.929C102.887 109.453 103.495 110.918 104.22 112.349C104.552 113.007 105.489 113.048 105.978 112.576C106.516 112.059 106.624 111.754 106.654 111.018C106.706 109.758 104.765 109.509 104.455 110.721C103.951 112.683 104.264 114.985 104.429 117.018C104.522 118.178 106.4 118.643 106.628 117.316C106.687 116.977 106.743 116.639 106.803 116.301C107.042 114.91 105.041 114.301 104.641 115.706C104.354 116.724 104.257 117.632 104.361 118.684C104.447 119.554 105.575 120.271 106.273 119.472C106.475 119.241 106.68 119.007 106.882 118.777C107.822 117.698 106.247 116.115 105.299 117.2C105.097 117.431 104.892 117.665 104.69 117.895C105.328 118.159 105.963 118.42 106.602 118.684C106.516 117.836 106.568 117.119 106.799 116.301C106.079 116.104 105.358 115.907 104.638 115.706C104.578 116.044 104.522 116.382 104.462 116.721C105.194 116.821 105.93 116.918 106.661 117.018C106.542 115.557 106.467 114.096 106.467 112.628C106.467 111.628 106.785 110.405 106.127 109.564C105.261 108.457 103.436 108.393 102.517 109.483C100.165 112.275 105.601 115.245 106.605 111.315C105.874 111.215 105.138 111.118 104.406 111.018C104.399 111.011 104.395 111.003 104.388 110.999C104.974 111.074 105.56 111.148 106.146 111.226C105.508 109.966 104.977 108.68 104.537 107.338C104.276 107.795 104.014 108.252 103.753 108.709C108.151 108.07 106.329 116.888 105.855 118.962C105.575 120.182 105.026 123.71 103.745 124.208C102.364 124.747 99.6348 123.461 98.4475 122.847C98.5222 123.431 98.5969 124.015 98.6753 124.598C99.5041 123.621 100.396 122.739 101.382 121.914C100.744 121.65 100.109 121.39 99.4705 121.126C99.4406 121.409 99.4108 121.687 99.3809 121.97C99.295 122.773 100.411 123.416 101.065 122.933C101.681 122.479 102.293 122.13 102.999 121.832C102.439 121.513 101.875 121.189 101.315 120.87C101.382 122.23 101.453 123.591 101.52 124.951C101.573 125.989 103.07 126.554 103.607 125.513C105.653 121.55 106.542 117.107 105.963 112.672C105.795 111.39 105.65 109.26 104.022 108.929C102.401 108.598 101.778 110.241 101.64 111.512C102.334 111.327 103.032 111.137 103.727 110.951C102.797 109.074 101.203 107.616 99.2017 106.921C98.2646 106.594 97.2603 106.449 96.2671 106.505C95.737 106.535 95.218 106.65 94.6953 106.717C94.1241 106.84 93.5528 106.854 92.9816 106.761C92.8696 105.962 92.9629 105.776 93.2579 106.208C93.1608 105.847 93.0675 105.483 92.9704 105.122C93.0376 105.033 93.1048 104.947 93.172 104.858C93.5491 104.858 93.9262 104.858 94.3033 104.858C94.2361 104.821 94.1689 104.784 94.1054 104.747C94.0158 105.427 93.9262 106.107 93.8366 106.784C93.9859 106.761 95.8191 106.996 95.7631 107.063C95.8228 106.501 95.6399 106.252 95.218 106.312C94.8596 106.289 94.8185 106.286 95.0985 106.3C95.9087 106.1 96.8458 106.371 97.6112 106.62C99.6385 107.282 101.487 108.375 103.114 109.743C103.88 110.386 105.418 109.799 104.985 108.657C103.674 105.181 100.564 102.587 96.7861 102.256C95.1209 102.111 93.2803 102.39 92.1789 103.758C91.0252 105.189 91.2604 107.133 91.5218 108.817C91.757 110.237 93.915 109.639 93.6947 108.23Z" fill="#28B3C2"/>
<path d="M99.2429 111.624C100.557 115.49 98.9591 119.784 95.3786 121.806C94.6431 122.223 94.6618 123.312 95.3786 123.732C98.246 125.42 101.565 125.795 104.727 124.743C106.086 124.29 105.504 122.137 104.13 122.591C101.509 123.461 98.8882 123.208 96.5062 121.806C96.5062 122.45 96.5062 123.089 96.5062 123.732C100.915 121.241 103.029 115.825 101.401 111.033C100.945 109.676 98.7799 110.26 99.2429 111.624Z" fill="#28B3C2"/>
<path d="M73.3875 116.089C73.5294 118.821 73.4734 121.539 73.2233 124.264C73.0926 125.691 75.3327 125.684 75.4634 124.264C75.7135 121.539 75.7695 118.821 75.6277 116.089C75.5567 114.661 73.3129 114.65 73.3875 116.089Z" fill="#EEEB4B"/>
<path d="M75.1759 117.379C80.7799 117.922 86.3018 119.111 91.6221 120.951C94.0601 121.795 96.696 122.691 98.6449 124.442C100.43 126.044 102.446 129.877 99.5298 131.353C97.3307 132.465 94.09 132.729 91.6744 132.914C88.9564 133.126 86.1936 133.048 83.5017 132.61C79.1596 131.9 74.5934 130.111 72.6632 125.888C72.0658 124.583 70.1356 125.717 70.7292 127.015C73.044 132.071 78.6891 134.193 83.8788 134.903C87.1307 135.349 90.4125 135.361 93.6681 134.937C96.2517 134.598 100.467 134.305 102.259 132.13C103.835 130.219 103.293 127.256 102.177 125.271C100.803 122.829 98.3649 121.279 95.8522 120.186C89.3484 117.357 82.2248 115.836 75.1833 115.152C73.7422 115.007 73.7534 117.241 75.1759 117.379Z" fill="#EEEB4B"/>
<path d="M73.5558 119.505C74.0001 121.71 73.5595 123.814 72.361 125.706C73.0443 125.795 73.7275 125.885 74.407 125.974C74.5116 125.65 74.6124 125.331 74.7169 125.007C75.6615 123.937 74.1345 122.383 73.1339 123.431C72.8464 123.732 72.5589 124.029 72.2752 124.331C72.8613 124.78 73.4475 125.23 74.0337 125.684C74.4854 125.063 74.7654 124.438 74.9521 123.699C75.2508 122.502 73.5259 121.699 72.9061 122.84C72.4954 123.598 72.081 124.353 71.6703 125.111C72.3162 125.487 72.9584 125.862 73.6043 126.238C74.702 123.754 75.4599 121.219 75.837 118.531C76.0348 117.126 73.8768 116.52 73.6752 117.936C73.328 120.416 72.6821 122.814 71.6666 125.111C71.0991 126.394 72.8987 127.528 73.6006 126.238C74.0113 125.479 74.4257 124.725 74.8364 123.966C74.1531 123.68 73.4699 123.394 72.7904 123.108C72.6485 123.673 72.4432 124.089 72.0997 124.561C71.3455 125.595 72.9957 126.818 73.8582 125.914C74.1457 125.613 74.4331 125.316 74.7169 125.015C74.1905 124.49 73.6603 123.963 73.1339 123.438C72.2938 124.39 72.0511 125.338 72.2453 126.576C72.4058 127.583 73.8246 127.58 74.2913 126.844C75.8146 124.438 76.2701 121.702 75.7138 118.922C75.4337 117.505 73.2757 118.104 73.5558 119.505Z" fill="#EEEB4B"/>
<path d="M78.3347 122.539C82.0384 122.728 85.7644 122.907 89.371 123.84C91.0997 124.286 92.832 124.87 94.3628 125.803C94.7735 126.052 95.6733 126.546 95.6397 127.126C95.6098 127.632 94.5943 127.985 94.1238 128.171C92.6454 128.755 91.0175 128.907 89.4457 129.011C87.6088 129.134 86.4103 129.316 85.1073 127.933C83.823 126.572 82.6245 125.119 81.3925 123.714C80.53 122.728 78.5251 121.189 78.3571 119.795C78.1891 118.39 77.2744 117.208 75.7436 117.193C74.4369 117.178 72.992 118.397 73.1301 119.795C73.2683 121.186 73.3093 122.595 73.0965 123.981C72.8837 125.357 72.1706 126.751 72.3871 128.163C72.8874 131.431 76.8823 131.394 79.4659 131.55C82.7179 131.743 84.0955 129.383 84.1366 126.438C84.1702 124.026 83.8193 120.044 80.7055 119.81C77.7522 119.587 76.5799 123.037 77.6664 125.319C78.8574 127.807 81.8741 128.899 84.3644 127.598C86.6343 126.412 87.9598 122.94 85.6263 121.115C83.0352 119.085 80.4927 121.836 79.4734 124.122C78.1517 127.082 79.5219 130.446 82.8821 131.022C86.1341 131.58 88.3555 129.256 90.0431 126.825C91.1183 125.279 89.7108 122.721 87.788 122.911C84.4353 123.238 81.8666 124.702 79.8244 127.36C78.6296 128.914 80.2425 131.398 82.0794 131.275C86.1266 131.007 89.9497 129.877 93.4331 127.795C95.5874 126.509 94.7697 122.84 92.1152 122.948C88.7923 123.078 85.6188 123.379 82.6133 124.896C80.362 126.03 81.3551 129.966 83.9313 129.743C86.7053 129.505 89.483 129.331 92.2645 129.245C93.5937 129.204 94.9266 129.178 96.2557 129.175C96.5506 129.175 97.8723 129.346 98.1598 129.189C98.1971 127.833 97.8798 127.32 97.2115 127.643C96.9651 127.743 96.7075 127.81 96.4424 127.847C91.1258 129.022 85.3052 129.018 79.8916 128.836C76.5276 128.725 76.5314 133.929 79.8916 134.041C84.0171 134.178 88.1427 134.056 92.2459 133.624C95.5127 133.279 100.672 133.357 102.102 129.699C102.7 128.171 102.491 126.331 101.251 125.16C99.9855 123.963 98.2494 123.974 96.6178 123.974C92.3803 123.981 88.1502 124.182 83.9313 124.543C84.3718 126.16 84.8124 127.777 85.2492 129.39C87.3773 128.32 89.778 128.245 92.1152 128.156C91.6746 126.539 91.2341 124.922 90.7973 123.308C88.1128 124.911 85.2081 125.87 82.0794 126.078C82.8299 127.383 83.584 128.688 84.3345 129.992C85.1447 128.937 86.4701 128.249 87.7843 128.123C87.0338 126.818 86.2797 125.513 85.5292 124.208C85.238 124.628 84.9543 125.067 84.5846 125.42C84.4838 125.517 83.8454 125.914 83.8491 125.911C83.6176 125.896 83.64 125.992 83.9201 126.197C84.0582 126.539 84.159 126.561 84.2187 126.256C84.3121 126.093 84.4092 125.929 84.5025 125.766C84.9692 125.234 84.9393 125.152 84.4092 125.52C83.7371 125.431 83.0651 125.346 82.3968 125.256C81.5119 123.293 81.4597 122.569 82.24 123.078C83.1136 123.516 82.6021 124.163 80.7092 125.026C80.0932 124.773 79.4771 124.517 78.8611 124.264C78.5288 123.535 78.484 123.565 78.7267 124.345C78.8051 124.639 78.8499 124.937 78.8686 125.234C78.9208 125.725 78.723 126.55 78.8947 126.981C78.8051 127.624 79.1673 127.427 79.9774 126.39C79.5779 126.364 79.1785 126.327 78.7827 126.275C78.4168 126.238 76.9047 125.866 76.733 126.048C77.2183 127.71 77.5469 128.111 77.7112 127.249C77.8045 126.937 77.8867 126.624 77.9576 126.305C78.1069 125.654 78.204 124.996 78.2899 124.338C78.4878 122.818 78.5102 121.334 78.3571 119.806C76.6135 119.806 74.8737 119.806 73.1301 119.806C73.4587 122.569 75.0118 124.345 76.7927 126.375C78.596 128.431 80.3023 130.81 82.4042 132.572C84.6593 134.461 87.2691 134.409 90.0617 134.186C92.7051 133.978 95.4679 133.576 97.779 132.182C100.116 130.769 101.505 128.279 100.646 125.546C99.8212 122.929 97.4616 121.416 95.0759 120.353C89.8153 118.011 84.0209 117.639 78.3384 117.349C74.9745 117.163 74.982 122.368 78.3347 122.539Z" fill="#EEEB4B"/>
</g>
<path d="M110.563 158.337C110.325 158.578 110.094 158.83 109.926 159.133C109.758 159.436 109.606 159.737 109.522 160.084C109.499 160.18 109.48 160.275 109.456 160.371C109.437 160.53 109.449 160.68 109.506 160.832C109.522 160.935 109.564 161.03 109.626 161.11C109.691 161.249 109.786 161.362 109.905 161.454C110.066 161.571 110.239 161.658 110.427 161.696C110.58 161.727 110.723 161.723 110.864 161.673C111.01 161.652 111.133 161.593 111.244 161.494C111.775 161.012 112.307 160.531 112.839 160.055C113.047 159.865 113.202 159.621 113.232 159.315C113.26 159.032 113.171 158.669 112.987 158.443C112.797 158.213 112.542 158.024 112.255 157.984C111.968 157.945 111.655 157.989 111.438 158.187C110.907 158.668 110.375 159.15 109.843 159.625C110.416 160.095 110.99 160.565 111.57 161.04C111.628 160.806 111.709 160.582 111.82 160.373C111.777 160.453 111.73 160.539 111.687 160.62C111.798 160.41 111.934 160.221 112.095 160.052C112.034 160.117 111.968 160.188 111.906 160.253C111.925 160.233 111.944 160.214 111.968 160.188C112.081 160.1 112.169 159.992 112.225 159.858C112.306 159.739 112.35 159.6 112.36 159.447C112.388 159.165 112.299 158.801 112.115 158.576C111.925 158.345 111.67 158.157 111.383 158.117C111.099 158.094 110.764 158.136 110.563 158.337Z" fill="#EF7EBF"/>
<path d="M126.788 128.395C126.817 128.587 126.775 128.675 126.535 128.931C126.257 129.227 125.904 129.466 125.576 129.691C124.709 130.292 123.88 131.068 123.526 132.141C122.718 134.59 125.084 136.728 127.279 135.819C128.307 135.396 128.943 134.452 129.143 133.317C129.329 132.273 129.117 130.775 128.596 129.806C128.612 129.834 128.522 129.577 128.529 129.583C128.473 129.731 128.412 129.873 128.356 130.021C128.401 129.987 128.446 129.953 128.496 129.918C128.612 129.911 128.803 129.808 128.934 129.758C129.352 129.607 129.765 129.504 130.206 129.439C131.072 129.305 131.942 129.313 132.822 129.456C134.856 129.789 136.851 130.813 138.279 132.466C138.799 133.067 139.623 133.281 140.234 132.79C140.78 132.353 140.944 131.347 140.423 130.745C137.659 127.566 133.47 125.888 129.567 126.565C128.612 126.732 127.524 126.979 126.732 127.555C125.603 128.374 125.665 129.693 126.125 130.988C126.322 131.553 126.646 132.619 126.297 132.994C126.211 133.086 125.901 133.214 125.881 133.115C125.88 133.109 126.039 133.169 126.059 133.185C126.316 133.412 125.972 133.419 126.192 133.183C126.519 132.84 126.724 132.504 127.126 132.219C127.528 131.933 127.937 131.658 128.297 131.312C129.162 130.48 129.73 129.425 129.53 128.108C129.237 126.228 126.496 126.52 126.788 128.395Z" fill="#EFABBF"/>
<path d="M127.646 130.594C127.042 133.513 126.632 138.981 129.212 141.337C130.495 142.506 132.264 142.43 133.807 142.5C135.463 142.581 137.384 142.844 138.97 142.368C141.905 141.481 142.618 137.513 142.118 134.629C141.523 131.19 139.042 128.329 135.874 127.236C133.12 126.286 129.535 126.496 128.958 129.873C128.477 132.662 129.184 136.859 132.214 137.914C135.116 138.93 137.005 136.015 136.352 133.24C135.799 130.904 133.175 129.078 131.389 131.055C129.523 133.117 130.094 137.788 132.817 139.039C136.365 140.668 138.289 136.293 137.783 133.293C137.493 131.552 135.32 130.873 134.326 132.219C132.841 134.217 132.332 137.575 135.078 139.079C137.38 140.345 139.9 138.237 139.242 135.679C138.938 134.493 137.743 133.396 136.541 134.001C135.881 134.333 135.469 134.598 135.098 135.266C136.257 135.808 137.414 136.344 138.573 136.886C138.725 136.013 138.871 135.136 139.024 134.263C138.158 134.762 137.285 135.257 136.419 135.756C136.367 135.738 137.144 136.629 137.463 136.805C138.156 137.186 138.948 137.208 139.639 136.936C140.892 136.443 143.297 132.04 140.544 131.422C138.093 130.865 137.691 134.847 140.131 135.399C143.187 136.089 147.219 132.732 143.961 129.656C142.82 128.582 141.097 128.427 139.854 129.164C139.218 129.54 138.735 130.133 138.398 130.804C138.287 131.019 137.773 133.265 137.804 133.25C138.303 133.267 138.801 133.284 139.299 133.296C138.949 133.169 138.403 132.307 137.807 132.09C136.557 131.634 135.432 132.242 135.203 133.583C135.05 134.456 134.904 135.333 134.752 136.206C134.426 138.099 137.28 139.517 138.227 137.826C138.202 137.805 138.177 137.79 138.158 137.769C137.256 137.212 136.358 136.648 135.456 136.091C136.122 135.653 136.794 135.215 137.461 134.784C136.309 134.428 135.156 134.066 134.004 133.71C134.333 135.668 134.013 134.163 134.4 133.883C133.922 134.004 133.444 134.124 132.966 134.239C132.609 134.213 132.847 130.994 133.025 130.865C133.771 130.337 135.36 131.201 136.04 131.642C137.456 132.57 139.914 136.82 137.915 138.377C137.068 139.038 132.93 138.916 132.156 138.398C130.324 137.17 131.158 132.886 131.49 131.278C131.992 128.771 128.158 128.116 127.646 130.594Z" fill="#EFABBF"/>
<path d="M111.27 162.052C111.748 162.861 111.062 164.071 110.15 164.34C109.181 164.628 108.818 165.988 109.218 166.926C109.679 168.014 110.767 168.36 111.741 168.067C115.085 167.071 115.999 162.728 114.206 159.704C113.647 158.765 112.256 158.682 111.528 159.261C110.66 159.959 110.712 161.113 111.27 162.052Z" fill="#EFABBF"/>
<path d="M114.481 163.725C114.786 162.995 115.086 162.267 115.391 161.537C114.563 161.869 113.74 162.2 112.912 162.531C112.941 162.546 114.515 164.058 114.162 164.014C114.196 165.34 114.23 166.667 114.264 167.994C116.192 167.912 117.367 166.696 118.718 165.472C119.746 164.545 119.534 164.346 120.224 165.83C120.913 167.308 121.455 168.825 121.919 170.379C122.231 169.51 122.548 168.646 122.86 167.776C121.994 168.152 120.547 168.997 119.569 168.891C120.078 169.308 120.594 169.729 121.103 170.146C120.565 168.826 120.583 166.913 120.375 165.524C119.987 162.934 116.319 163.35 116.589 165.924C116.699 166.993 116.814 168.061 116.923 169.13C118.045 168.669 119.172 168.207 120.294 167.745C119.766 166.889 119.18 166.225 118.477 165.515C117.631 164.658 115.842 165.074 115.565 166.235C115.434 166.778 115.304 167.32 115.179 167.868C116.148 167.626 117.117 167.39 118.091 167.148C117.335 166.664 116.825 166.172 116.322 165.4C115.659 164.384 113.87 164.254 113.284 165.309C113.044 165.747 112.803 166.179 112.562 166.617C113.573 166.649 114.583 166.676 115.599 166.708C114.532 165.38 113.357 164.854 111.764 164.93C109.308 165.044 109.93 169.044 112.38 168.93C112.47 168.979 112.554 169.028 112.644 169.071C113.383 169.986 115.048 170.304 115.681 169.162C115.921 168.725 116.162 168.292 116.403 167.855C115.392 167.822 114.382 167.795 113.366 167.763C114.035 168.79 114.837 169.612 115.855 170.259C116.794 170.863 118.439 170.91 118.767 169.539C118.898 168.997 119.029 168.454 119.153 167.907C118.185 168.148 117.215 168.384 116.241 168.627C116.677 169.069 117.044 169.558 117.338 170.108C118.479 171.951 120.901 170.545 120.708 168.724C120.599 167.655 120.484 166.587 120.374 165.518C119.114 165.651 117.848 165.785 116.588 165.918C116.864 167.748 116.909 169.857 117.615 171.589C117.871 172.213 118.506 172.773 119.15 172.844C120.978 173.046 122.83 172.223 124.453 171.517C125.472 171.072 125.717 169.984 125.393 168.914C124.645 166.414 123.281 160.622 120.057 160.463C118.845 160.406 117.777 160.966 116.853 161.679C115.838 162.472 115.02 163.912 113.64 163.976C111.5 164.069 111.584 167.69 113.741 167.956C115.893 168.222 117.803 166.847 118.055 164.52C118.332 161.929 116.341 159.956 114.286 158.854C113.316 158.336 112.196 158.919 111.806 159.848C111.501 160.578 111.201 161.306 110.895 162.036C109.936 164.373 113.523 166.039 114.481 163.725Z" fill="#EFABBF"/>
<path d="M104.457 159.175C100.502 159.437 98.7932 164.257 101.019 167.686C103.495 171.489 108.109 171.652 111.556 169.941C113.72 168.864 112.141 165.105 109.956 166.19C108.43 166.949 106.463 167.564 104.869 166.344C103.716 165.461 103.283 163.295 105.073 163.175C107.522 163.021 106.906 159.015 104.457 159.175Z" fill="#EFABBF"/>
<path d="M100.034 161.144C98.388 164.458 99.9346 168.846 102.886 171.074C106.555 173.85 111.4 172.761 114.452 170.061C116.801 167.983 113.672 163.775 111.303 165.867C109.91 167.098 107.668 168.255 105.78 167.062C104.46 166.223 104.008 164.61 104.655 163.301C106.081 160.417 101.452 158.29 100.034 161.144Z" fill="#EFABBF"/>
<path d="M99.9193 175.107C102.543 179.466 107.571 178.784 111.377 177.662C114.406 176.769 112.314 171.888 109.3 172.774C107.508 173.3 105.028 174.116 103.768 172.02C103.023 170.78 101.226 170.689 100.258 171.445C99.1172 172.337 99.1884 173.889 99.9193 175.107Z" fill="#EFABBF"/>
<path d="M104.605 176.979C108.859 177.706 112.768 176.852 116.366 174.69C117.518 173.995 117.479 172.046 116.704 170.986C115.766 169.699 114.316 169.718 113.175 170.406C110.765 171.856 107.951 172.236 105.147 171.757C101.936 171.203 101.393 176.425 104.605 176.979Z" fill="#EFABBF"/>
<path d="M104.308 175.392C107.087 176.419 109.684 176.247 112.323 175.18C115.158 174.038 117.514 171.92 120.65 171.589C119.984 169.997 119.324 168.409 118.658 166.817C115.889 169.194 112.855 170.82 109.379 171.853C106.335 172.756 108.435 177.683 111.463 176.788C115.312 175.644 118.782 173.727 121.842 171.093C123.683 169.511 122.349 166.059 119.849 166.321C117.487 166.568 115.482 167.472 113.432 168.595C111.279 169.777 108.734 171.542 106.115 170.574C103.036 169.443 101.216 174.249 104.308 175.392Z" fill="#EFABBF"/>
<path d="M110.342 161.294C109.748 163.369 108.865 165.197 107.598 166.875C105.697 169.401 109.678 172.657 111.575 170.132C113.063 168.153 114.211 165.88 114.912 163.435C115.285 162.13 114.81 160.636 113.508 160.022C112.354 159.485 110.72 159.982 110.342 161.294Z" fill="#EFABBF"/>
<path d="M105.446 182.481C111.635 182.994 119.183 181.082 119.598 173.403C119.78 170.069 114.827 169.178 114.646 172.524C114.397 177.088 109.489 177.615 105.981 177.323C102.799 177.061 102.242 182.216 105.446 182.481Z" fill="#EFABBF"/>
<path d="M106.504 177.466C106.498 177.461 106.493 177.461 106.486 177.456C106.669 177.57 106.857 177.69 107.039 177.804C107.027 177.793 107.014 177.783 107.002 177.773C107.152 177.931 107.309 178.094 107.46 178.252C107.452 178.241 107.446 178.236 107.439 178.225C107.552 178.422 107.664 178.619 107.776 178.81C107.762 178.789 107.754 178.772 107.75 178.749C107.812 178.975 107.88 179.2 107.942 179.425C107.939 179.402 107.935 179.379 107.932 179.356C107.94 179.588 107.942 179.819 107.951 180.05C107.952 180.021 107.953 179.992 107.96 179.968C107.91 180.182 107.861 180.396 107.811 180.604C107.818 180.581 107.826 180.562 107.834 180.544C107.737 180.728 107.634 180.919 107.536 181.103C107.545 181.091 107.554 181.078 107.563 181.066C107.422 181.214 107.275 181.369 107.133 181.517C107.142 181.504 107.158 181.497 107.168 181.49C106.986 181.596 106.805 181.702 106.629 181.808C106.645 181.801 106.655 181.794 106.671 181.792C106.459 181.843 106.248 181.901 106.037 181.952C106.053 181.95 106.069 181.948 106.085 181.947C105.865 181.941 105.644 181.93 105.423 181.924C105.434 181.923 105.446 181.927 105.457 181.932C105.25 181.867 105.042 181.802 104.84 181.736C104.857 181.74 104.869 181.745 104.887 181.755C104.704 181.64 104.516 181.521 104.334 181.407C104.351 181.417 104.37 181.432 104.384 181.448C104.233 181.29 104.076 181.127 103.926 180.969C103.939 180.985 103.946 180.996 103.954 181.012C103.842 180.815 103.729 180.618 103.617 180.427C103.633 180.455 103.641 180.477 103.652 180.511C103.59 180.285 103.522 180.06 103.46 179.835C103.464 179.858 103.467 179.881 103.471 179.903C103.463 179.672 103.46 179.441 103.452 179.209C103.45 179.233 103.448 179.256 103.445 179.274C103.495 179.06 103.544 178.846 103.594 178.638C103.592 178.655 103.583 178.668 103.579 178.68C103.677 178.496 103.779 178.305 103.877 178.121C103.868 178.133 103.859 178.146 103.85 178.158C103.992 178.01 104.138 177.855 104.28 177.707C104.27 177.714 104.265 177.72 104.255 177.727C103.999 177.916 103.801 178.163 103.677 178.461C103.499 178.729 103.398 179.035 103.374 179.38C103.324 179.733 103.366 180.077 103.488 180.406C103.557 180.747 103.703 181.056 103.921 181.329C104.071 181.487 104.228 181.65 104.379 181.808C104.73 182.096 105.12 182.275 105.556 182.357C105.776 182.362 105.997 182.374 106.218 182.379C106.655 182.333 107.047 182.17 107.39 181.902C107.578 181.766 107.731 181.581 107.873 181.398C108.005 181.228 108.117 181.024 108.188 180.808C108.192 180.802 108.192 180.796 108.195 180.784C108.245 180.57 108.294 180.356 108.344 180.148C108.377 179.895 108.364 179.635 108.331 179.384C108.328 179.367 108.327 179.355 108.324 179.338C108.295 179.219 108.26 179.101 108.225 178.983C108.196 178.865 108.161 178.746 108.121 178.629C107.945 178.195 107.607 177.715 107.24 177.434C107.147 177.363 107.027 177.295 106.936 177.24C106.784 177.146 106.739 177.099 106.621 177.048C106.414 176.953 106.199 176.872 105.975 176.843C105.858 176.833 105.742 176.827 105.627 176.828C105.511 176.823 105.394 176.818 105.279 176.818C105.16 176.831 105.02 176.88 104.93 176.902C104.788 176.94 104.696 176.95 104.587 176.99C104.197 177.136 103.815 177.466 103.564 177.8C103.428 177.988 103.312 178.192 103.231 178.415C103.223 178.433 103.219 178.445 103.216 178.463C103.167 178.677 103.117 178.891 103.067 179.099C103.063 179.111 103.06 179.123 103.062 179.135C103.034 179.381 103.036 179.648 103.079 179.893C103.082 179.91 103.085 179.927 103.087 179.944C103.149 180.169 103.217 180.394 103.279 180.62C103.28 180.625 103.282 180.637 103.288 180.642C103.394 180.868 103.517 181.093 103.668 181.292C103.999 181.732 104.272 181.901 104.735 182.159C105.045 182.318 105.357 182.389 105.683 182.366C106.019 182.406 106.341 182.36 106.643 182.218C106.949 182.105 107.201 181.922 107.398 181.669C107.635 181.458 107.809 181.196 107.914 180.884C107.963 180.67 108.013 180.456 108.063 180.247C108.106 179.779 108.036 179.322 107.853 178.883C107.741 178.686 107.628 178.49 107.516 178.298C107.239 177.928 106.907 177.655 106.504 177.466Z" fill="#EFABBF"/>
<path d="M108.917 185.712C113.533 186.237 118.579 185.374 120.837 180.833C121.27 179.965 121.594 179.004 121.696 178.007C121.844 176.624 121.381 176.861 122.444 176.419C124.483 175.575 126.11 175.555 127.007 173.165C128.161 170.103 123.514 167.931 122.365 170.993C122.22 171.384 119.544 171.686 119.022 171.97C117.884 172.577 117.06 173.633 116.805 174.975C116.461 176.778 116.987 178.037 115.488 179.393C113.901 180.834 111.484 180.797 109.452 180.567C106.268 180.194 105.717 185.347 108.917 185.712Z" fill="#EFABBF"/>
<path d="M110.812 164.793C112.886 141.143 116.75 117.813 122.458 95.0766C123.234 91.9913 118.789 89.8569 118.012 92.9653C112.197 116.125 108.184 139.848 106.07 163.937C105.791 167.18 110.527 168.03 110.812 164.793Z" fill="#1B2D38"/>
<path d="M120.613 95.1306C121.108 95.188 121.609 95.2505 122.104 95.3079C121.653 94.5061 121.202 93.7042 120.757 92.9018C120.39 93.6804 120.025 94.4647 119.658 95.2433C119.287 96.0282 119.804 97.1871 120.597 97.5135C121.49 97.887 122.316 97.5048 122.706 96.6659C123.073 95.8873 123.438 95.103 123.805 94.3244C124.245 93.3877 123.459 92.0377 122.457 91.9183C121.962 91.861 121.461 91.7984 120.966 91.7411C120.115 91.6405 119.221 92.186 119.167 93.1454C119.111 94.0297 119.701 95.0249 120.613 95.1306Z" fill="#1B2D38"/>
<path d="M125.523 96.8499C128.389 96.3947 130.576 99.7231 133.174 100.728C135.361 101.572 137.459 101.087 139.571 100.548C141.002 100.181 142.425 99.767 143.912 100.299C145.065 100.715 145.983 101.688 147.064 102.281C149.382 103.549 151.767 103.601 154.145 102.923C153.367 102.286 152.589 101.649 151.811 101.013C151.423 103.485 151.035 105.958 150.647 108.431C150.428 109.845 150.202 111.254 149.983 112.669C149.866 113.417 149.92 115.387 149.483 115.849C148.593 116.785 144.559 117.018 143.454 116.264C142.008 115.278 141.214 114.14 139.504 113.52C137.987 112.967 136.395 112.861 134.869 113.181C134.183 113.323 133.555 113.624 132.88 113.8C131.12 114.255 130.365 113.914 129.06 112.761C126.57 110.557 123.42 110.066 120.557 111.223C121.335 111.859 122.113 112.496 122.891 113.133C122.745 107.221 123.665 101.559 125.703 96.1879C126.474 94.154 123.389 92.7152 122.617 94.7433C120.481 100.376 119.448 106.348 119.601 112.551C119.631 113.828 120.67 114.975 121.935 114.461C126.229 112.727 128.073 118.278 132.262 117.618C134.642 117.244 136.517 115.812 139.04 116.971C140.783 117.769 141.645 119.782 143.544 120.195C145.397 120.595 147.832 119.963 149.62 119.616C151.069 119.334 152.078 118.777 152.59 117.285C153.332 115.102 153.402 112.394 153.766 110.088C154.211 107.264 154.655 104.435 155.094 101.612C155.313 100.198 153.861 99.387 152.76 99.7023C149.471 100.641 147.728 98.1888 144.919 97.0364C142.924 96.2187 140.909 96.6307 138.971 97.1163C137.747 97.4212 136.417 97.9068 135.116 97.7522C133.584 97.5694 132.396 96.4209 131.176 95.5036C129.263 94.0635 127.304 93.0433 124.988 93.411C122.92 93.7293 123.44 97.1814 125.523 96.8499Z" fill="#E32C4F"/>
<path d="M124.642 100.091C128.393 102.457 132.52 104.033 136.786 104.605C138.781 104.874 140.799 104.935 142.78 104.79C144.705 104.645 148.527 103.479 149.858 105.802C150.219 104.804 150.581 103.806 150.942 102.808C149.763 103.167 147.011 101.071 145.904 100.597C144.286 99.9021 142.579 99.3103 140.863 99.1233C139.242 98.9496 137.648 99.1242 136.139 99.6409C134.409 100.228 132.868 101.474 131.06 101.846C129.231 102.221 128.724 101.585 127.708 100.2C126.993 99.2163 125.895 98.5951 124.73 98.7536C122.045 99.108 120.972 102.674 120.954 105.111C120.941 106.932 123.02 108.796 124.556 107.375C125.719 106.298 126.54 105.163 127.233 103.697C125.824 103.454 124.408 103.206 122.998 102.963C123.056 104.28 123.12 105.59 123.178 106.906C123.255 108.525 125.078 109.221 126.275 108.837C127.134 108.559 127.555 108.198 128.076 107.453C129.614 105.253 126.891 102.908 124.88 104.116C123.578 104.898 122.568 105.888 121.689 107.157C120.825 108.408 121.506 110.788 123.246 110.908C128.792 111.28 134.468 111.516 139.369 108.774C141.071 107.821 141.078 104.625 138.687 104.334C134.71 103.842 130.749 103.711 126.789 103.937C123.947 104.098 124.697 108.612 127.497 108.544C129.834 108.484 132.172 108.43 134.509 108.369C135.59 108.343 136.665 108.317 137.745 108.29C138.285 108.274 138.826 108.264 139.366 108.247C140.6 108.503 140.81 108.352 139.989 107.801C139.969 107.2 139.954 106.605 139.934 106.004C139.437 107.485 134.449 107.223 133.217 107.377C130.991 107.659 128.924 108.288 127.308 109.904C126.182 111.036 126.255 113.1 127.92 113.883C131.523 115.579 135.192 114.682 138.675 113.582C142.011 112.532 144.847 110.353 145.161 106.458C145.321 104.474 143.073 102.992 141.559 104.194C138.902 106.313 136.36 111.55 140.433 114.145C141.862 115.053 143.614 114.931 144.783 113.789C146.598 112.023 145.733 109.709 146.599 107.569C146.032 108.016 145.464 108.462 144.896 108.908C144.565 108.733 144.233 108.557 143.896 108.376C143.616 108.646 143.343 108.921 143.076 109.201C142.71 109.59 142.344 109.945 142.049 110.404C141.539 111.189 141.257 112.126 141.286 113.106C141.348 115.201 142.905 117.195 144.802 117.872C150.226 119.82 150.985 112.624 151.497 108.935C151.802 106.749 148.657 105.151 147.509 107.081C145.875 109.841 145.609 112.608 146.555 115.843C147.396 118.727 151.403 117.039 150.564 114.172C150.132 112.691 150.348 111.257 151.087 110.015C149.758 109.395 148.429 108.78 147.1 108.16C146.895 109.633 146.874 111.373 146.363 112.762C146.042 113.627 145.762 113.206 146.116 112.7C146.41 112.277 146.899 111.962 147.23 111.564C148.531 110.016 149.192 107.874 147.92 105.902C146.881 104.292 144.579 103.57 143.125 104.73C142.292 105.398 142.01 106.768 141.901 107.821C141.882 108.022 141.723 109.473 141.851 109.582C142.516 110.161 143.959 108.247 144.358 107.93C143.157 107.173 141.957 106.422 140.756 105.666C140.432 109.709 132.526 111.09 129.49 109.662C129.693 110.986 129.898 112.316 130.102 113.641C133.113 110.624 143.81 113.395 144.169 107.347C144.329 104.679 141.784 103.637 139.714 103.599C135.419 103.527 131.092 103.815 126.792 103.919C127.028 105.457 127.264 106.989 127.5 108.526C131.071 108.324 134.62 108.44 138.212 108.879C137.985 107.399 137.757 105.919 137.53 104.439C133.285 106.814 128.539 106.649 123.725 106.327C124.244 107.577 124.763 108.828 125.282 110.078C125.961 109.099 126.702 108.447 127.7 107.849C126.633 106.739 125.571 105.623 124.503 104.513C124.481 104.509 124.464 104.511 124.442 104.508C125.476 105.153 126.51 105.793 127.539 106.439C127.48 105.122 127.417 103.812 127.359 102.496C127.243 99.9799 123.963 99.9877 123.123 101.762C122.817 102.508 122.359 103.125 121.754 103.622C122.955 104.378 124.155 105.129 125.356 105.885C125.312 105.27 125.375 104.672 125.546 104.098C126.241 103.217 126.184 102.989 125.386 103.413C124.896 103.108 124.411 102.796 123.921 102.491C125.486 104.21 126.112 105.764 128.549 106.349C131.06 106.955 133.307 106.127 135.492 105.082C138.756 103.525 141.294 103.438 144.767 105.013C147.557 106.274 149.8 108.05 152.791 107.131C153.821 106.817 154.464 105.168 153.874 104.137C151.104 99.2916 146.607 99.8437 142.077 100.183C136.552 100.598 131.109 98.9562 126.237 95.8845C123.736 94.3057 122.178 98.5321 124.642 100.091Z" fill="#E32C4F"/>
<path d="M129.287 124.544C129.208 124.455 129.134 124.359 129.063 124.251C129.205 124.507 129.217 124.517 129.111 124.281C129.024 124.031 129.027 124.054 129.126 124.348C129.103 124.23 129.089 124.105 129.082 123.985C129.09 124.289 129.1 124.317 129.113 124.05C129.156 123.798 129.148 123.816 129.098 124.092C129.193 123.863 129.178 123.871 129.053 124.114C129.114 124.016 129.181 123.922 129.254 123.834C129.965 122.946 129.708 121.339 128.763 120.627C127.744 119.855 126.498 120.005 125.741 120.949C124.384 122.648 124.468 125.431 125.94 127.209C126.705 128.135 128.086 128.507 128.985 127.714C129.829 126.991 130.106 125.54 129.287 124.544Z" fill="#8D434F"/>
<path d="M128.928 121.559C127.251 123.11 127.202 126.13 129.254 127.662C130.067 128.269 131.139 128.357 131.912 127.744C132.597 127.198 132.995 125.955 132.505 125.071C132.302 124.711 132.105 124.351 131.943 123.97C131.917 123.909 131.791 123.547 131.815 123.631C131.844 123.715 131.845 123.686 131.811 123.539C131.787 123.38 131.784 123.363 131.811 123.499C131.751 123.575 131.708 123.787 131.657 123.885C131.77 123.659 131.782 123.808 131.63 123.888C131.564 123.918 131.504 123.953 131.438 123.983C131.633 123.905 131.643 123.898 131.472 123.956C131.354 123.934 130.465 123.757 130.849 123.988C131.899 124.61 133.269 123.905 133.659 122.858C134.117 121.644 133.465 120.454 132.41 119.832C130.838 118.902 128.89 119.715 128.035 121.145C126.989 122.896 127.568 124.959 128.541 126.715C129.625 125.85 130.709 124.99 131.792 124.125C131.565 123.958 131.735 124.038 131.816 124.174C131.867 124.255 132.051 124.779 132.002 124.53C131.958 124.315 132.004 124.72 131.984 124.803C131.942 124.992 131.837 125.125 131.699 125.255C132.554 124.465 132.776 123.108 131.994 122.065C131.276 121.119 129.783 120.769 128.928 121.559Z" fill="#8D434F"/>
<path d="M136.311 126.182C136.384 125.413 136.451 124.644 136.524 123.875C136.632 122.698 135.778 121.393 134.601 121.241C133.439 121.088 132.325 121.846 132.208 123.105C132.135 123.874 132.068 124.642 131.995 125.411C131.887 126.588 132.741 127.893 133.918 128.045C135.085 128.198 136.194 127.44 136.311 126.182Z" fill="#8D434F"/>
<path d="M130.741 124.74C131.611 124.133 132.73 124.026 133.751 124.443C136.463 125.542 138.068 121.295 135.35 120.19C132.75 119.132 130.127 119.412 127.914 120.959C126.943 121.636 126.884 123.249 127.611 124.223C128.416 125.301 129.765 125.423 130.741 124.74Z" fill="#8D434F"/>
<path d="M136.207 122.081C135.307 122.889 134.661 124.029 134.637 125.334C134.624 126.28 134.951 127.125 135.776 127.646C136.595 128.162 137.449 128.054 138.197 127.57C137.748 127.86 138.279 127.572 138.386 127.521C138.543 127.469 138.49 127.481 138.227 127.555C138.339 127.531 138.446 127.52 138.56 127.514C137.717 126.624 136.879 125.734 136.036 124.85C135.969 125.269 135.897 125.687 135.83 126.106C135.637 127.273 136.641 128.603 137.765 128.75C138.961 128.908 139.885 128.503 140.656 127.605C141.399 126.739 141.095 125.085 140.16 124.379C139.107 123.587 137.904 123.778 137.109 124.702C137.42 124.339 137.772 124.169 138.23 124.23C138.876 125.112 139.521 125.993 140.166 126.875C140.233 126.457 140.305 126.038 140.372 125.619C140.617 124.146 139.181 122.827 137.848 122.956C136.926 123.048 136.166 123.377 135.403 123.869C136.592 124.618 137.78 125.361 138.969 126.11C138.969 126.04 139.025 125.727 139.005 125.671C139.041 125.76 138.925 126.178 139.012 125.752C139.061 125.642 139.048 125.661 138.972 125.808C138.881 125.968 138.881 125.968 138.982 125.807C139.296 125.531 138.638 126.098 138.981 125.796C139.823 125.04 140.094 123.599 139.277 122.596C138.525 121.657 137.107 121.274 136.207 122.081Z" fill="#8D434F"/>
<path d="M125.789 118.811C123.888 119.445 122.635 121.713 123.147 123.845C123.718 126.218 125.778 127.719 128.027 127.618C129.195 127.564 130.002 126.295 129.822 125.12C129.625 123.832 128.504 123.022 127.331 123.078C127.612 123.065 127.278 123.124 127.234 123.047C127.219 123.02 127.441 123.118 127.43 123.119C127.203 123.131 127.342 122.863 127.329 123.032C127.329 123.066 127.381 123.476 127.376 123.159C127.37 122.871 127.353 123.185 127.354 123.231C127.368 123.356 127.473 123.045 127.402 123.116C127.25 123.259 127.478 123.114 127.598 123.078C128.696 122.713 129.131 121.219 128.664 120.127C128.15 118.901 126.887 118.446 125.789 118.811Z" fill="#8D434F"/>
<path d="M128.039 122.308C130.287 122.343 132.565 122.678 134.764 123.328C135.772 123.628 136.771 124.01 137.745 124.442C138.322 124.695 138.887 124.972 139.449 125.267C140.726 126.171 140.732 125.886 139.466 124.411C136.773 123.522 135.153 127.638 137.889 128.591C138.336 128.747 139.307 128.953 139.64 129.4C140.091 130.008 139.678 130.464 139.58 131.154C139.417 132.304 139.456 133.38 140.063 134.432C141.079 136.212 143.149 136.981 144.956 136.476C146.996 135.906 148.058 133.772 148.002 131.623C147.932 129.098 146.4 127.181 144.691 125.473C142.587 123.372 140.043 126.946 142.128 129.032C142.524 129.426 143.009 129.897 143.278 130.397C143.742 131.266 143.547 132.106 144.067 131.453C144.562 130.843 144.293 129.134 144.09 128.424C143.453 126.208 141.416 125.082 139.47 124.405C138.942 125.796 138.421 127.193 137.893 128.585C140.03 129.289 142.493 129.725 143.972 127.693C145.17 126.044 144.688 123.842 143.183 122.456C139.179 118.766 132.25 117.814 127.34 117.729C124.519 117.69 125.246 122.266 128.039 122.308Z" fill="#8D434F"/>
<path d="M139.421 133.974C139.47 135.221 139.52 136.468 139.569 137.71C139.645 139.592 141.884 140.111 143.064 139.318C147.979 136.036 148.883 129.005 145.783 123.643C144.303 121.089 140.993 123.781 142.46 126.319C144.38 129.635 143.121 133.774 140.323 135.642C141.489 136.178 142.651 136.714 143.818 137.25C143.768 136.003 143.719 134.756 143.67 133.514C143.55 130.603 139.304 131.08 139.421 133.974Z" fill="#8D434F"/>
<path d="M144.022 122.247C141.04 115.54 131.587 118.7 126.66 119.678C123.899 120.226 124.582 124.925 127.372 124.374C129.444 123.96 138.762 121.239 139.966 123.955C141.212 126.756 145.276 125.065 144.022 122.247Z" fill="#8D434F"/>
<path d="M133.891 147.231C134.398 150.962 135.875 154.446 138.027 157.542C140.36 160.889 145.483 161.765 148.347 159.239C151.384 156.563 151.827 152.062 149.332 148.478C149.172 148.247 149.007 147.883 148.803 147.691C149.224 148.091 149.573 149.156 149.023 147.985C148.716 147.337 148.479 146.676 148.26 145.995C148.45 146.667 148.639 147.334 148.83 148.006C148.614 147.238 148.46 146.482 148.35 145.697C147.805 141.681 143.77 138.209 139.939 138.8C136.002 139.408 133.307 142.925 133.891 147.231Z" fill="#35C34F"/>
<path d="M137.659 152.547C138.181 153.109 138.683 153.679 139.133 154.307C139.245 154.462 139.351 154.624 139.462 154.78C139.924 155.516 139.882 155.422 139.334 154.511C139.363 154.49 140.028 156.019 140.055 156.085C140.197 156.445 140.324 156.807 140.439 157.17C140.142 156.082 140.097 155.965 140.3 156.832C141.171 160.798 144.655 164.36 148.717 163.733C152.391 163.164 155.712 159.556 154.781 155.297C153.831 150.959 152.036 146.756 148.972 143.479C147.537 141.946 146.16 140.781 144.103 140.417C142.293 140.095 140.022 140.566 138.644 141.78C135.975 144.13 134.693 149.38 137.659 152.547Z" fill="#35C34F"/>
<path d="M136.788 170.088C139.949 168.149 143.323 166.557 146.74 165.13C155.119 161.639 149.173 147.583 140.757 151.091C136.186 152.997 131.878 155.326 127.655 157.915C124.403 159.91 124.431 165.414 126.693 168.429C129.394 172.029 133.526 172.089 136.788 170.088Z" fill="#35C34F"/>
<path d="M136.211 153.327C131.85 154.356 127.588 155.631 123.422 157.244C121.276 158.074 121.172 160.609 122.256 162.48C123.787 165.109 124.504 167.987 124.736 170.957C125.084 175.389 131.564 174.681 131.22 170.272C130.886 166.001 129.492 162.15 127.321 158.427C126.931 160.175 126.547 161.922 126.156 163.663C129.778 162.259 133.471 161.068 137.259 160.174C138.976 159.766 140.261 158.417 139.974 156.405C139.737 154.724 137.916 152.92 136.211 153.327Z" fill="#35C34F"/>
<path d="M121.167 161.144C122.898 161.972 123.663 164.065 124.209 165.82C125.039 168.481 125.572 171.251 125.941 173.997C126.02 174.593 126.565 175.24 127.164 175.294C128.957 175.464 130.568 174.812 131.671 173.378C131.245 173.548 130.821 173.724 130.395 173.894C134.913 174.756 139.278 173.187 143.092 171.043C145.017 169.961 146.872 168.743 148.783 167.644C149.721 167.105 150.674 166.594 151.653 166.14C152.59 165.708 153.688 165.413 154.451 164.68C156.303 162.899 155.553 159.4 154.546 157.185C153.923 155.8 152.143 156.085 151.903 157.467C151.32 160.848 148.339 163.01 145.565 164.302C141.833 166.034 137.742 166.88 134.376 169.368C133.094 170.317 134.418 172.457 135.841 171.919C140.188 170.275 144.291 168.047 148.06 165.315C147.39 164.611 146.72 163.906 146.049 163.201C142.935 167.967 137.302 169.772 132.058 170.836C131.328 170.985 130.782 171.607 130.909 172.441C131.027 173.21 131.76 173.855 132.502 173.752C138.021 172.984 143.416 171.483 148.48 169.241C150.544 168.333 153.248 167.356 154.073 164.939C155.026 162.159 152.97 159.605 151.112 157.73C150.553 157.167 149.581 157.372 149.171 157.937C148.693 158.605 148.925 159.433 149.485 160.001C150.533 161.063 152.362 163.001 151.063 164.425C150.475 165.069 149.617 165.433 148.853 165.799C147.798 166.303 146.727 166.773 145.641 167.215C141.284 168.979 136.73 170.183 132.052 170.831C132.2 171.805 132.348 172.773 132.496 173.746C138.449 172.541 144.764 170.456 148.299 165.053C149.176 163.714 147.564 162.02 146.288 162.939C142.704 165.538 138.808 167.62 134.675 169.176C135.162 170.024 135.649 170.879 136.14 171.727C139.566 169.192 143.903 168.539 147.617 166.577C150.981 164.802 153.951 162.054 154.663 157.949C153.78 158.043 152.902 158.137 152.019 158.231C152.474 159.238 152.784 160.324 152.779 161.421C152.777 161.741 152.773 162.151 152.576 162.397C152.327 162.702 151.859 162.811 151.518 162.949C149.405 163.826 147.436 164.985 145.487 166.171C141.825 168.4 138.038 170.867 133.622 171.185C133.054 171.228 132.487 171.235 131.915 171.177C131.225 171.115 130.419 170.798 129.806 171.166C129.387 171.412 129.158 171.887 128.715 172.124C128.334 172.331 127.888 172.438 127.452 172.395C127.858 172.826 128.264 173.262 128.675 173.693C128.247 170.55 127.602 167.384 126.599 164.35C125.803 161.94 124.466 159.57 122.158 158.466C120.499 157.677 119.501 160.344 121.167 161.144Z" fill="#35C34F"/>
<path d="M134.733 154.258C136.811 153.42 139.108 153.343 141.318 154.005C141.612 154.094 141.907 153.806 141.936 153.511C141.974 153.16 141.74 152.906 141.44 152.817C139.043 152.103 136.517 152.23 134.269 153.135C133.606 153.403 134.07 154.526 134.733 154.258Z" fill="#35914F"/>
<path d="M122.489 160.032C122.911 160.437 123.168 160.986 123.177 161.579C123.183 161.973 123.413 162.233 123.785 162.238C124.147 162.245 124.285 162.812 124.109 163.054C123.937 163.29 124.002 163.655 124.227 163.847C125.053 164.545 125.529 165.522 125.958 166.515C126.323 167.355 127.089 168.608 126.8 169.52C126.718 169.786 126.817 170.163 127.104 170.269C127.525 170.423 127.951 170.577 128.372 170.731C128.271 170.479 128.17 170.233 128.069 169.981C127.701 170.895 127.615 171.882 127.814 172.889C127.958 173.604 129.003 173.496 128.858 172.775C128.693 171.953 128.755 171.198 129.052 170.451C129.157 170.194 129.019 169.803 128.749 169.701C128.328 169.547 127.901 169.394 127.48 169.24C127.582 169.492 127.682 169.738 127.783 169.99C128.179 168.735 127.498 167.478 127 166.31C126.468 165.06 125.867 163.845 124.839 162.969C124.878 163.233 124.918 163.498 124.957 163.762C125.739 162.705 124.839 161.124 123.611 161.109C123.813 161.327 124.016 161.545 124.219 161.768C124.202 160.73 123.845 159.872 123.101 159.154C122.586 158.656 121.974 159.534 122.489 160.032Z" fill="#35914F"/>
<path d="M129.224 139.605C130.041 139.53 130.858 139.456 131.674 139.381C131.15 138.952 130.619 138.518 130.095 138.089C130.112 138.163 130.117 138.233 130.122 138.302C130.119 138.174 130.116 138.046 130.113 137.918C130.113 138.029 130.101 138.129 130.084 138.236C130.11 138.117 130.141 137.997 130.167 137.877C130.141 137.991 130.097 138.101 130.047 138.205C130.102 138.1 130.158 137.995 130.213 137.89C130.158 137.995 130.089 138.084 130.014 138.173C130.095 138.089 130.176 138.005 130.257 137.92C130.176 138.005 130.092 138.072 129.997 138.134C130.099 138.077 130.199 138.014 130.301 137.956C130.215 138.006 130.121 138.045 130.021 138.074C130.138 138.044 130.255 138.014 130.371 137.984C130.27 138.006 130.172 138.017 130.067 138.016C130.189 138.021 130.312 138.025 130.434 138.03C130.344 138.022 130.254 138.008 130.161 137.983C130.277 138.017 130.394 138.058 130.509 138.092C130.399 138.057 130.292 138.004 130.189 137.945C130.293 138.01 130.396 138.075 130.5 138.14C130.396 138.075 130.307 137.997 130.222 137.912C130.308 138.002 130.394 138.093 130.479 138.183C130.394 138.093 130.324 138.001 130.258 137.891C130.319 138.001 130.385 138.111 130.447 138.221C130.386 138.117 130.341 138.005 130.307 137.886C130.342 138.01 130.378 138.135 130.414 138.26C130.39 138.175 130.377 138.094 130.369 138.008C130.343 137.655 130.076 137.251 129.816 137.033C129.545 136.811 129.124 136.663 128.79 136.716C128.44 136.77 128.094 136.929 127.893 137.236C127.838 137.341 127.782 137.447 127.726 137.552C127.636 137.789 127.613 138.036 127.653 138.294C127.659 138.37 127.67 138.439 127.686 138.507C127.731 138.695 127.779 138.894 127.856 139.072C127.908 139.195 127.974 139.305 128.041 139.415C128.116 139.541 128.179 139.663 128.273 139.775C128.436 139.974 128.623 140.182 128.833 140.329C129.044 140.476 129.266 140.627 129.505 140.707C129.674 140.765 129.844 140.829 130.019 140.857C130.2 140.884 130.394 140.887 130.576 140.886C130.653 140.883 130.723 140.876 130.797 140.856C130.973 140.814 131.162 140.783 131.327 140.707C131.549 140.608 131.772 140.479 131.951 140.314C132.13 140.15 132.311 139.967 132.432 139.75C132.642 139.39 132.756 139.092 132.834 138.669C132.849 138.586 132.853 138.504 132.857 138.422C132.859 138.217 132.859 138.007 132.822 137.801C132.75 137.441 132.569 137.052 132.269 136.827C131.963 136.597 131.613 136.476 131.243 136.509C130.426 136.584 129.609 136.658 128.793 136.733C128.444 136.764 128.101 136.975 127.896 137.254C127.7 137.525 127.585 137.957 127.656 138.312C127.73 138.683 127.903 139.056 128.209 139.286C128.504 139.517 128.854 139.638 129.224 139.605Z" fill="white"/>
<path d="M142.882 133.786C143.051 133.524 143.219 133.256 143.393 132.994C142.242 132.638 141.091 132.277 139.94 131.922C139.993 132.265 139.995 131.421 139.935 131.748C139.95 131.665 140.079 131.25 139.965 131.547C139.887 131.753 140.227 131.141 140.043 131.376C140.366 130.969 140.262 131.149 140.126 131.268C139.904 131.472 140.477 131.08 140.282 131.176C139.949 131.333 140.481 131.108 140.486 131.137C140.443 131.147 140.4 131.152 140.356 131.151C140.197 131.156 140.297 131.163 140.654 131.16C140.34 131.123 141.114 131.355 140.803 131.196C139.872 130.73 138.645 131.203 138.318 132.192C137.977 133.229 138.432 134.361 139.423 134.862C141.632 135.972 144.105 133.971 143.74 131.526C143.622 130.724 143.029 130.054 142.293 129.817C141.58 129.59 140.698 129.8 140.286 130.448C140.117 130.71 139.949 130.978 139.775 131.241C139.228 132.09 139.314 133.401 140.211 134.074C141.034 134.697 142.3 134.691 142.882 133.786Z" fill="#EFABBF"/>
<path d="M111.011 160.497C110.648 161.408 110.286 162.325 109.924 163.236C109.55 164.183 110.051 165.489 111.02 165.889C112.013 166.304 113.084 165.913 113.485 164.9C113.848 163.988 114.21 163.071 114.573 162.16C114.946 161.213 114.445 159.908 113.476 159.508C112.484 159.093 111.413 159.489 111.011 160.497Z" fill="#EFABBF"/>
<path d="M103.521 172.001C104.328 172.297 105.177 172.319 105.967 172.059C106.112 172.013 106.166 171.815 106.106 171.672C106.037 171.511 105.877 171.457 105.733 171.502C105.092 171.71 104.378 171.698 103.726 171.457C103.583 171.407 103.422 171.448 103.366 171.604C103.309 171.743 103.373 171.946 103.521 172.001Z" fill="#EF7EBF"/>
<path d="M103.149 178.42C104.904 178.754 106.689 178.565 108.306 177.868C108.635 177.726 108.406 177.157 108.072 177.3C106.551 177.955 104.87 178.133 103.214 177.819C102.849 177.748 102.79 178.349 103.149 178.42Z" fill="#EF7EBF"/>
<path d="M106.897 182.843C108.829 183.074 110.74 182.56 112.279 181.394C112.568 181.18 112.209 180.691 111.927 180.911C110.514 181.983 108.738 182.464 106.961 182.253C106.6 182.207 106.536 182.798 106.897 182.843Z" fill="#EF7EBF"/>
<path d="M122.172 177.367C121.904 175.435 121.402 173.53 120.673 171.719C120.536 171.382 120.066 171.583 120.204 171.926C120.916 173.694 121.405 175.543 121.666 177.43C121.707 177.784 122.218 177.726 122.172 177.367Z" fill="#EF7EBF"/>
</g>
<defs>
<clipPath id="clip0">
<rect width="61.5064" height="33.0192" fill="white" transform="translate(47.2568 102.226)"/>
</clipPath>
</defs>
</svg>
