<svg width="233" height="233" viewBox="0 0 233 233" fill="none" xmlns="http://www.w3.org/2000/svg">
<mask id="mask0" mask-type="alpha" maskUnits="userSpaceOnUse" x="0" y="0" width="233" height="233">
<rect width="233" height="233" fill="#C4C4C4"/>
</mask>
<g mask="url(#mask0)">
<path fill-rule="evenodd" clip-rule="evenodd" d="M109.912 211.774C72.1152 212.377 34.1501 194.142 22.4207 158.16C10.6506 122.053 30.6284 85.0478 61.3316 62.7436C91.9611 40.493 133.113 33.258 163.759 55.4852C194.523 77.7972 201.606 119.541 189.218 155.497C177.536 189.403 145.729 211.202 109.912 211.774Z" fill="#BC48E3"/>
<g clip-path="url(#clip0)">
<path d="M139.187 116.25C138.733 118.845 137.449 120.975 135.193 122.354C133.225 123.559 133.455 126.116 135.193 127.365C137.822 129.257 141.837 128.495 143.625 125.788C144.554 124.385 144.737 122.719 144.764 121.071C144.777 120.176 144.483 119.179 145.458 118.913C147.779 118.278 150.344 120.559 151.12 122.549C152.177 125.266 151.038 128.345 149.127 130.349C146.559 133.042 150.625 137.152 153.2 134.452C158.742 128.642 158.773 118.452 151.116 114.38C147.928 112.687 143.243 112.338 140.614 115.261C139.157 116.882 139.042 118.995 139.008 121.067C138.994 121.89 139.109 123.074 138.103 122.351C138.103 124.02 138.103 125.693 138.103 127.362C141.545 125.256 144.039 121.811 144.743 117.79C145.015 116.247 144.33 114.663 142.731 114.219C141.339 113.84 139.458 114.701 139.187 116.25Z" fill="#DC7A4A"/>
<path d="M144.788 117.831C142.779 120.992 141.854 124.788 142.311 128.526C142.636 131.196 146.112 132.708 147.678 129.991C148.958 127.765 149.964 125.392 150.683 122.924C148.796 122.668 146.912 122.409 145.025 122.153C145.154 125.348 145.523 128.523 146.089 131.67C146.577 134.367 150.059 134.186 151.353 132.363C153.278 129.653 152.736 126.253 150.778 123.771C149.582 122.255 147.129 122.917 146.255 124.358C145.086 126.29 144.171 128.352 143.483 130.503C142.345 134.067 147.905 135.592 149.036 132.046C149.578 130.356 150.307 128.803 151.225 127.287C149.717 127.482 148.21 127.68 146.702 127.874C147.088 128.362 146.651 129.048 146.377 129.434C148.132 129.666 149.887 129.895 151.641 130.127C151.164 127.485 150.893 124.836 150.784 122.153C150.652 118.917 146.058 118.172 145.127 121.381C144.54 123.395 143.748 125.246 142.704 127.062C144.493 127.55 146.282 128.038 148.071 128.526C147.725 125.693 148.23 123.173 149.761 120.76C151.763 117.606 146.783 114.694 144.788 117.831Z" fill="#DC7A4A"/>
<path d="M136.734 127.806C136.7 131.37 136.809 137.05 140.41 138.986C142.213 139.955 144.659 139.624 146.613 139.484C149.016 139.313 151.411 138.969 153.772 138.491C155.012 138.241 155.873 136.9 155.886 135.691C155.913 133.339 156.32 130.639 155.798 128.332C155.246 125.901 152.966 124.665 150.672 124.44C145.76 123.962 142.131 127.635 139.363 131.216C138.564 132.25 138.211 133.52 138.913 134.732C139.509 135.76 140.996 136.528 142.165 136.067C145.136 134.889 147.02 132.684 148.606 129.956C149.842 127.833 150.859 125.273 153.139 124.099C154.931 123.173 155.107 119.954 153.139 119.087C151.695 118.452 150.466 117.503 149.893 115.971C148.968 117.196 148.043 118.418 147.115 119.644C150.117 119.845 152.481 122.31 152.912 125.246C153.545 129.601 153.674 134.097 154.05 138.487C155.009 137.521 155.971 136.552 156.93 135.586C153.179 135.452 149.259 135.633 145.54 135.152C146.024 135.285 146.508 135.415 146.993 135.548C146.905 135.49 146.82 135.429 146.732 135.371C147.206 136.207 147.684 137.04 148.158 137.876C148.155 137.808 148.148 137.736 148.145 137.668C147.864 138.351 147.582 139.037 147.301 139.72C147.345 139.665 147.386 139.61 147.43 139.556C146.752 139.839 146.071 140.122 145.394 140.406C145.451 140.413 145.509 140.416 145.567 140.423C147.115 140.58 148.446 138.975 148.446 137.521C148.446 135.821 147.122 134.777 145.567 134.62C143.829 134.442 142.379 136.105 142.392 137.77C142.409 139.791 144.073 140.839 145.875 140.996C149.53 141.317 153.261 141.259 156.93 141.385C158.39 141.437 159.942 140.01 159.809 138.484C159.549 135.449 159.288 132.418 159.027 129.383C158.813 126.884 158.851 124.146 157.949 121.777C156.191 117.169 151.973 114.165 147.115 113.837C145.357 113.718 143.7 115.803 144.337 117.51C145.418 120.408 147.369 122.836 150.232 124.095C150.232 122.426 150.232 120.753 150.232 119.084C147.671 120.405 146.024 122.815 144.628 125.266C143.659 126.963 142.589 129.697 140.634 130.469C141.569 132.087 142.501 133.701 143.436 135.319C144.93 133.384 146.735 130.704 149.324 130.247C149.51 130.212 150.672 130.243 150.642 130.291C150.249 129.4 150.1 129.328 150.191 130.069C150.188 130.38 150.184 130.694 150.181 131.004C150.164 132.565 150.144 134.125 150.127 135.685C150.831 134.753 151.536 133.821 152.241 132.885C150.801 133.176 149.361 133.418 147.901 133.561C147.152 133.636 146.4 133.691 145.648 133.729C144.997 133.763 143.995 133.585 143.388 133.79C142.704 133.688 142.694 133.787 143.358 134.087C143.32 134.029 143.283 133.971 143.246 133.913C143.371 133.636 142.809 132.145 142.755 131.807C142.534 130.479 142.487 129.137 142.501 127.796C142.531 124.071 136.772 124.068 136.734 127.806Z" fill="#DC7A4A"/>
<path d="M141.704 129.68C140.454 129.335 139.533 130.421 139.391 131.571C139.228 132.896 140.319 133.831 141.549 133.937C142.782 134.043 144.245 133.292 144.808 132.162C145.428 130.919 144.76 129.403 143.578 128.782C142.28 128.099 140.698 128.502 139.519 129.25C138.882 129.656 138.415 130.209 138.334 130.984C138.273 131.564 138.554 132.134 138.95 132.537C139.743 133.346 140.956 133.677 142.053 133.694C143.317 133.715 144.74 133.148 144.845 131.697C144.899 130.96 144.499 130.233 143.907 129.823C143.276 129.386 142.409 129.424 141.796 129.868C141.135 130.346 140.715 131.199 140.932 132.022C141.064 132.524 141.572 132.81 142.057 132.885C142.524 132.957 142.968 132.892 143.385 132.653C144.042 132.278 143.856 131.315 143.182 131.093C142.863 130.987 142.545 130.885 142.226 130.779C141.806 130.639 141.281 130.94 141.183 131.377C141.078 131.844 141.322 132.278 141.776 132.428C142.094 132.534 142.413 132.636 142.731 132.742C142.663 132.223 142.595 131.701 142.528 131.182C142.443 131.226 142.446 131.23 142.541 131.185C142.497 131.202 142.453 131.213 142.406 131.223C142.433 131.219 142.463 131.216 142.49 131.213C142.443 131.216 142.396 131.216 142.352 131.216C142.45 131.233 142.467 131.237 142.402 131.223C142.368 131.216 142.335 131.209 142.301 131.196C142.392 131.24 142.396 131.243 142.311 131.199C142.27 131.175 142.23 131.151 142.192 131.12C142.321 131.291 142.453 131.462 142.582 131.629C142.538 131.462 142.568 131.656 142.575 131.667C142.562 131.643 142.572 131.571 142.572 131.54C142.565 131.356 142.572 131.585 142.565 131.578C142.558 131.568 142.592 131.476 142.599 131.455C142.616 131.383 142.667 131.377 142.589 131.482C142.612 131.452 142.636 131.4 142.653 131.37C142.684 131.315 142.745 131.291 142.636 131.387C142.673 131.353 142.721 131.312 142.748 131.271C142.809 131.185 142.633 131.322 142.728 131.284C142.762 131.271 142.809 131.243 142.836 131.219C142.924 131.144 142.704 131.278 142.809 131.233C142.819 131.23 142.894 131.202 142.9 131.209C142.745 131.073 142.802 131.295 142.863 131.216C142.883 131.216 142.907 131.216 142.928 131.216C142.894 131.209 142.86 131.206 142.826 131.199C142.843 131.189 142.917 131.223 142.941 131.226C143.1 131.26 142.819 131.138 142.951 131.233C142.972 131.25 143.039 131.278 143.049 131.298C143.049 131.298 142.904 131.151 143.012 131.278C143.026 131.295 143.094 131.346 143.094 131.366C143.094 131.38 143.009 131.219 143.049 131.312C143.063 131.346 143.09 131.38 143.11 131.414C143.131 131.448 143.158 131.561 143.131 131.448C143.097 131.312 143.182 131.615 143.168 131.633C143.161 131.646 143.168 131.441 143.154 131.581C143.154 131.575 143.155 131.697 143.151 131.697C143.144 131.701 143.188 131.51 143.151 131.643C143.121 131.752 143.185 131.66 143.175 131.605C143.188 131.68 142.972 131.837 143.138 131.691C143.11 131.714 143.077 131.752 143.056 131.779C142.961 131.892 143.144 131.738 143.066 131.776C142.999 131.807 142.921 131.858 142.856 131.895C142.765 131.95 142.995 131.871 142.887 131.878C142.86 131.878 142.822 131.899 142.799 131.909C142.717 131.933 142.633 131.95 142.551 131.967C142.399 132.001 142.555 131.967 142.585 131.967C142.521 131.974 142.453 131.981 142.389 131.984C142.223 131.994 142.057 131.994 141.894 131.984C141.809 131.981 141.721 131.974 141.637 131.967C141.606 131.964 141.471 131.953 141.596 131.964C141.732 131.977 141.552 131.957 141.525 131.95C141.356 131.919 141.19 131.875 141.024 131.824C140.939 131.796 140.857 131.766 140.776 131.735C140.959 131.8 140.708 131.701 140.654 131.674C140.512 131.602 140.387 131.513 140.254 131.428C140.431 131.537 140.248 131.421 140.197 131.373C140.17 131.346 140.143 131.318 140.116 131.291C139.983 131.144 140.122 131.281 140.109 131.291C140.102 131.298 140.014 131.114 140.004 131.107C140.017 131.11 140.051 131.271 140.041 131.192C140.038 131.161 140.027 131.124 140.014 131.093C139.973 130.994 140.011 131.274 140.024 131.168C140.027 131.138 140.027 131.097 140.024 131.062C140.011 130.96 139.973 131.226 140.017 131.127C140.034 131.086 140.044 131.035 140.058 130.991C140.014 131.148 140.031 131.059 140.058 131.008C140.136 130.875 140.075 130.977 140.051 131.004C140.112 130.929 140.183 130.864 140.258 130.8C140.231 130.823 140.129 130.888 140.261 130.8C140.302 130.772 140.343 130.745 140.383 130.718C140.481 130.653 140.586 130.595 140.688 130.54C140.786 130.486 140.888 130.438 140.99 130.39C141.078 130.349 140.996 130.383 140.979 130.39C141.03 130.369 141.084 130.349 141.135 130.329C141.369 130.243 141.613 130.175 141.86 130.134C141.708 130.158 141.959 130.131 142.003 130.127C142.111 130.124 142.219 130.134 142.328 130.134C142.46 130.134 142.216 130.103 142.345 130.134C142.399 130.148 142.453 130.154 142.504 130.168C142.555 130.182 142.606 130.195 142.653 130.212C142.745 130.243 142.761 130.267 142.667 130.212C142.745 130.257 142.822 130.298 142.897 130.346C142.931 130.366 143.019 130.445 142.887 130.332C142.921 130.359 142.955 130.39 142.988 130.421C143.056 130.482 143.11 130.55 143.171 130.615C143.151 130.591 143.077 130.472 143.161 130.602C143.192 130.649 143.222 130.694 143.249 130.742C143.293 130.817 143.334 130.96 143.29 130.803C143.314 130.885 143.341 130.967 143.361 131.052C143.409 131.226 143.358 131.015 143.358 131.015C143.368 131.025 143.361 131.12 143.361 131.141C143.361 131.158 143.368 131.247 143.354 131.267C143.371 131.158 143.371 131.134 143.358 131.199C143.351 131.23 143.344 131.26 143.334 131.295C143.331 131.308 143.293 131.411 143.327 131.322C143.368 131.219 143.3 131.37 143.287 131.394C143.276 131.411 143.188 131.551 143.243 131.472C143.297 131.394 143.195 131.527 143.182 131.54C143.11 131.619 143.033 131.694 142.951 131.766C142.931 131.783 142.795 131.885 142.89 131.817C142.985 131.749 142.826 131.858 142.809 131.871C142.731 131.923 142.653 131.97 142.568 132.011C142.514 132.039 142.28 132.124 142.453 132.069C142.365 132.097 142.28 132.131 142.189 132.158C142.145 132.172 142.101 132.182 142.053 132.192C142.03 132.199 141.837 132.237 141.965 132.213C142.074 132.192 141.965 132.213 141.942 132.213C141.874 132.216 141.81 132.223 141.742 132.223C141.698 132.223 141.654 132.22 141.61 132.22C141.447 132.216 141.708 132.247 141.606 132.223C141.515 132.199 141.417 132.168 141.325 132.148C141.467 132.179 141.406 132.189 141.349 132.158C141.301 132.131 141.254 132.107 141.206 132.076C141.179 132.059 141.081 131.97 141.159 132.046C141.244 132.124 141.129 132.005 141.108 131.988C141 131.895 141.152 132.018 141.145 132.042L141.071 131.912C141.088 131.919 141.135 132.117 141.098 131.977C141.088 131.936 141.074 131.895 141.064 131.858C141.013 131.677 141.068 132.042 141.061 131.81C141.061 131.769 141.068 131.52 141.064 131.67C141.061 131.81 141.088 131.585 141.105 131.534C141.173 131.315 141.034 131.643 141.125 131.482C141.132 131.469 141.234 131.291 141.24 131.295C141.305 131.342 141.098 131.435 141.2 131.356C141.21 131.349 141.288 131.257 141.301 131.26C141.284 131.274 141.267 131.288 141.25 131.298C141.19 131.346 141.183 131.349 141.237 131.312C141.254 131.312 141.413 131.226 141.254 131.295C141.088 131.366 141.234 131.308 141.237 131.305C141.25 131.284 141.545 131.257 141.19 131.305C141.217 131.301 141.254 131.301 141.281 131.305C141.179 131.295 141.108 131.271 141.247 131.312C141.674 131.428 142.189 131.165 142.291 130.714C142.396 130.277 142.162 129.806 141.704 129.68Z" fill="white"/>
<path d="M135.884 108.03C136.964 108.075 138.049 108.123 139.129 108.167C139.038 107.498 138.95 106.825 138.858 106.156C137.839 106.467 136.954 106.474 135.931 106.177C135.332 106.003 134.596 106.498 134.644 107.163C134.864 110.253 135.603 116.172 139.831 115.711C142.199 115.452 144.428 114.895 146.84 114.885C148.012 114.882 149.181 114.923 150.353 114.974C151.875 115.039 152.891 115.267 153.403 116.858C154.151 119.19 154.243 121.569 154.48 123.979C154.602 125.218 155.032 126.676 156.428 126.946C157.726 127.195 158.556 126.195 159.04 125.13C159.453 124.218 159.606 123.191 160.378 122.484C161.283 121.654 162.875 121.607 163.244 122.999C163.58 124.273 165.541 123.733 165.206 122.453C164.379 119.33 160.551 119.169 158.64 121.361C158.173 121.897 157.858 122.515 157.6 123.173C157.336 123.846 156.892 125.488 156.516 123.979C156.242 122.873 156.374 121.521 156.218 120.381C156.072 119.326 155.876 118.285 155.618 117.254C155.235 115.732 154.775 114.079 153.243 113.369C151.499 112.56 149.036 112.847 147.165 112.84C144.933 112.833 142.765 113.045 140.579 113.485C139.648 113.673 138.967 114.011 138.171 113.031C137.791 112.567 137.598 111.734 137.418 111.174C137.005 109.867 136.782 108.532 136.683 107.167C136.253 107.494 135.826 107.826 135.396 108.153C136.765 108.553 138.038 108.549 139.404 108.133C140.512 107.795 140.281 106.17 139.133 106.122C138.052 106.078 136.968 106.03 135.887 105.986C134.576 105.928 134.579 107.976 135.884 108.03Z" fill="#21212E"/>
<path d="M167.581 120.934C166.534 115.735 164.983 109.884 160.023 107.092C157.472 105.654 154.538 105.491 151.685 105.415C148.507 105.33 145.33 105.265 142.152 105.19C139.685 105.132 136.484 104.572 135.403 107.453C134.654 109.447 135.623 111.792 137.446 112.803C139.895 114.158 143.039 113.195 145.672 113.076C148.992 112.926 152.312 113.103 155.625 113.277C155.625 111.799 155.625 110.318 155.625 108.839C149.944 109.147 144.266 109.454 138.584 109.761C138.584 111.239 138.584 112.721 138.584 114.199C142.999 113.953 147.413 113.707 151.828 113.462C152.468 113.427 153.545 113.151 153.928 113.526C154.45 114.035 154.643 115.271 154.846 115.954C155.466 118.053 155.656 120.159 155.547 122.341C157.014 122.341 158.485 122.341 159.952 122.341C160.114 118.937 160.274 115.537 160.436 112.134C159.068 112.506 157.699 112.881 156.333 113.253C157.706 115.196 158.681 117.24 159.284 119.548C160.006 122.306 164.254 121.139 163.533 118.367C162.842 115.718 161.713 113.243 160.138 111.01C158.885 109.235 156.144 109.836 156.035 112.13C155.873 115.534 155.713 118.934 155.551 122.337C155.415 125.194 159.813 125.184 159.955 122.337C160.087 119.691 159.796 117.008 159.01 114.475C158.373 112.417 157.509 109.785 155.212 109.119C154.118 108.802 152.949 108.955 151.834 109.017C150.289 109.102 148.745 109.188 147.2 109.276C144.33 109.437 141.461 109.597 138.591 109.758C135.772 109.915 135.752 114.349 138.591 114.195C144.273 113.888 149.951 113.581 155.632 113.274C158.464 113.12 158.471 108.986 155.632 108.836C151.011 108.59 146.461 108.481 141.854 108.966C141.505 109.003 141.152 109.048 140.803 109.058C140.59 109.065 139.601 108.819 139.448 108.853C139.546 108.833 139.604 108.788 139.536 108.839C138.452 109.645 139.533 109.447 139.858 109.573C140.692 109.898 142.243 109.631 143.144 109.652C144.35 109.679 145.557 109.71 146.763 109.737C150.425 109.823 155.537 109.082 158.647 111.461C161.842 113.905 162.598 118.411 163.343 122.112C163.895 124.911 168.144 123.726 167.581 120.934Z" fill="#21212E"/>
<path d="M162.086 134.22C163.709 130.619 165.332 127.014 166.954 123.412C168.028 121.03 164.525 118.944 163.445 121.344C161.822 124.945 160.199 128.55 158.576 132.151C157.502 134.534 161.005 136.62 162.086 134.22Z" fill="#21212E"/>
<path d="M163.055 125.771C162.916 125.126 162.95 126.085 163.041 125.426C162.984 125.85 163.045 125.423 163.092 125.225C163.204 124.761 162.814 125.768 163.17 125.007C163.397 124.522 163 125.119 163.393 124.699C161.788 123.757 160.185 122.818 158.579 121.876C158.291 123.286 157.797 124.392 157.045 125.276C156.035 126.468 155.886 128.212 157.045 129.379C158.078 130.421 160.1 130.578 161.117 129.379C162.587 127.649 163.671 125.665 164.132 123.416C164.383 122.194 163.98 120.763 162.807 120.139C161.693 119.545 160.219 119.633 159.318 120.593C157.587 122.433 156.967 124.839 157.499 127.307C157.82 128.792 159.616 129.799 161.042 129.335C162.594 128.833 163.397 127.362 163.055 125.771Z" fill="#DC7A4A"/>
<path d="M144.645 146.165C148.209 146.103 151.777 146.072 155.341 145.984C157.018 145.943 158.475 145.584 159.542 144.181C160.538 142.87 161.205 141.205 161.971 139.743C163.743 136.371 159.166 133.865 156.998 136.815C155.72 138.552 153.637 139.446 151.536 139.47C147.833 139.515 147.823 145.318 151.536 145.274C155.819 145.222 159.45 143.174 161.971 139.743C160.314 138.767 158.654 137.791 156.998 136.815C156.513 137.74 155.568 138.948 155.344 139.959C154.88 140.597 154.989 140.669 155.666 140.174C155.449 140.177 155.233 140.18 155.019 140.184C154.331 140.047 153.454 140.211 152.749 140.221C150.049 140.266 147.345 140.314 144.645 140.358C140.942 140.423 140.932 146.226 144.645 146.165Z" fill="#C9C9CB"/>
<path d="M158.431 143.065C161.005 144.413 163.16 146.27 164.756 148.725C165.586 147.271 166.413 145.813 167.243 144.359C158.37 144.516 149.497 144.676 140.62 144.833C141.545 146.059 142.47 147.281 143.399 148.506C143.798 147.223 144.584 146.339 145.733 145.683C148.958 143.843 146.058 138.829 142.826 140.672C140.37 142.072 138.686 144.263 137.842 146.963C137.283 148.749 138.798 150.667 140.62 150.636C149.493 150.479 158.366 150.319 167.243 150.162C169.326 150.124 170.963 147.69 169.729 145.796C167.605 142.529 164.786 139.859 161.338 138.057C158.051 136.337 155.138 141.341 158.431 143.065Z" fill="#C9C9CB"/>
<path d="M96.1503 116.589C93.2638 123.641 98.3254 131.96 104.119 135.814C107.31 137.938 111.359 138.252 114.631 136.125C117.802 134.063 120.001 130.38 121.258 126.874C122.542 123.29 122.407 119.077 120.072 115.957C117.755 112.857 114.055 111.98 110.39 111.809C107.114 111.656 103.133 111.731 100.646 114.233C97.9764 116.92 98.1729 121.443 98.9826 124.897C99.8465 128.594 103.983 133.578 107.991 130.421C111.413 127.727 110.535 121.433 109.228 117.875C108.384 115.585 104.566 114.291 103.346 117.101C101.429 121.514 101.988 127.802 106.558 130.448C112.375 133.814 115.57 124.597 115.604 120.391C115.631 117.329 111.016 115.766 109.607 118.756C108.452 121.2 107.849 123.768 108.133 126.485C108.499 129.994 113.334 131.042 114.455 127.348C115.17 124.996 115.509 122.539 115.475 120.077C113.33 120.077 111.182 120.077 109.038 120.077C109.092 121.75 108.703 123.112 107.801 124.512C105.542 128.024 111.115 131.281 113.361 127.785C114.841 125.481 115.563 122.818 115.475 120.077C115.339 115.919 108.977 115.889 109.038 120.077C109.065 122.006 108.808 123.778 108.249 125.625C110.356 125.911 112.463 126.198 114.57 126.488C114.408 124.945 114.496 123.457 115.167 122.033C113.168 121.487 111.169 120.941 109.17 120.398C109.16 121.678 108.753 124.416 107.601 124.996C108.144 124.85 108.686 124.703 109.224 124.553C109.688 124.495 109.671 124.969 109.221 124.133C108.997 123.72 108.845 123.341 108.75 122.877C108.584 122.074 108.57 121.149 108.906 120.381C106.944 120.122 104.983 119.866 103.024 119.606C103.536 120.992 103.865 122.361 103.861 123.846C103.858 124.392 103.617 125.153 103.688 125.679C104.417 125.222 105.254 125.048 106.202 125.15C106.067 125.031 105.938 124.904 105.819 124.768C105.528 123.788 105.091 122.955 105 121.876C104.932 121.095 104.647 119.391 105.203 118.821C106.256 117.736 109.607 118.241 110.908 118.326C113.073 118.469 115.224 119.067 115.61 121.514C116.014 124.061 114.465 126.874 113.009 128.844C111.907 130.332 110.427 131.663 108.506 130.878C106.162 129.922 104.261 127.396 103.068 125.246C101.825 123.003 101.378 120.733 102.367 118.319C103.031 116.698 101.649 114.752 100.118 114.329C98.261 113.81 96.8177 114.964 96.1503 116.589Z" fill="#E78477"/>
<path d="M111.539 120.081C110.587 123.518 113.378 127.372 117.02 127.157C116.478 125.143 115.936 123.129 115.397 121.115C115.042 121.381 114.686 121.648 114.33 121.914C113.632 122.436 113.09 122.976 112.85 123.853C112.636 124.628 112.735 125.662 113.175 126.352C114.032 127.693 116.136 128.598 117.579 127.516C117.935 127.249 118.291 126.983 118.646 126.717C119.764 125.877 120.594 124.519 120.127 123.054C119.707 121.747 118.47 120.589 117.024 120.675C116.671 120.682 116.763 120.712 117.305 120.767C116.976 120.675 117.054 120.719 117.535 120.907C117.247 120.733 117.305 120.794 117.708 121.091C117.61 121.006 117.518 120.914 117.434 120.815C117.728 121.221 117.786 121.279 117.606 120.989C117.786 121.474 117.823 121.552 117.722 121.224C117.769 121.774 117.783 121.869 117.769 121.518C117.671 122.057 117.664 122.156 117.752 121.808C118.206 120.176 117.193 118.207 115.502 117.817C113.792 117.425 112.023 118.333 111.539 120.081Z" fill="#E78477"/>
<path d="M97.4111 116.643C97.279 120.248 97.1164 123.849 97.0181 127.454C96.947 130.124 97.2044 132.998 99.0644 135.07C101.182 137.429 104.4 137.508 107.328 137.559C110.898 137.62 114.432 137.316 117.969 136.828C119.693 136.589 120.635 134.367 120.218 132.838C119.707 130.964 117.989 130.335 116.258 130.571C113.737 130.919 111.18 131.066 108.639 131.076C107.388 131.083 106.108 131.104 104.861 130.974C104.231 130.909 103.963 130.936 103.648 130.4C103.357 129.905 103.438 128.922 103.438 128.393C103.431 127.181 103.513 125.963 103.557 124.751C103.655 122.047 103.753 119.343 103.852 116.643C104.001 112.468 97.5636 112.475 97.4111 116.643Z" fill="#E78477"/>
<path d="M105.216 118.374C105.979 119.589 105 120.961 104.634 122.149C104.339 123.112 104.193 124.181 104.64 125.123C105.389 126.71 107.253 127.191 108.598 126.14C109.627 125.331 108.181 123.89 107.161 124.693C106.423 125.273 106.473 123.143 106.528 122.928C106.724 122.17 107.107 121.477 107.317 120.726C107.646 119.552 107.629 118.391 106.971 117.343C106.273 116.227 104.515 117.254 105.216 118.374Z" fill="#BC6877"/>
<path d="M105.952 131.22C106.592 131.015 107.236 130.851 107.904 130.769C108.246 130.728 108.727 130.813 109.049 130.704C109.191 130.707 109.333 130.711 109.476 130.714C109.313 130.458 109.093 130.301 108.818 130.243C107.592 129.659 106.115 129.366 104.821 128.946C104.024 128.687 103.144 129.721 103.672 130.451C105.237 132.605 108.419 132.978 110.306 130.994C111.21 130.042 109.777 128.591 108.869 129.547C107.961 130.499 106.247 130.54 105.43 129.417C105.048 129.919 104.665 130.421 104.282 130.923C105.8 131.418 107.412 132.158 108.994 132.387C110.089 132.544 111.295 132.049 111.573 130.868C112.325 127.645 106.857 128.782 105.413 129.246C104.17 129.639 104.702 131.619 105.952 131.22Z" fill="white"/>
<path d="M99.5824 123.525C99.3994 121.436 98.8743 119.439 98.5389 117.377C98.3492 116.206 98.2543 115.158 98.9353 114.455C99.6467 113.724 100.724 113.421 101.944 113.25C103.919 112.973 105.992 113.089 107.981 113.055C109.987 113.021 111.992 112.98 113.998 112.953C115.461 112.936 116.64 112.878 117.457 113.697C119.605 115.858 118.87 120.108 118.514 123.102C118.253 125.304 120.57 127.198 122.579 127.198C124.995 127.198 126.384 125.307 126.645 123.102C127.275 117.783 127.238 111.966 123.206 107.904C119.148 103.818 113.202 104.774 107.981 104.862C102.869 104.948 97.0923 104.716 93.1826 108.662C91.1973 110.666 90.2047 113.444 90.2826 116.261C90.3503 118.743 91.2312 121.081 91.448 123.525C91.6411 125.73 93.1792 127.622 95.5135 127.622C97.5666 127.622 99.7789 125.744 99.5824 123.525Z" fill="#723612"/>
<path d="M99.4672 111.331C100.26 109.737 102.005 108.614 103.685 110.106C105.328 107.962 106.968 105.818 108.611 103.671C103.624 100.449 96.6349 99.5577 92.3086 104.405C90.3639 106.583 89.1714 109.867 90.0488 112.779C91.404 117.278 96.9771 117.333 98.5762 113.031C99.0979 111.628 98.4339 110.092 97.5293 109.044C97.4887 109 97.4514 108.956 97.4108 108.908C95.9709 107.238 93.1386 107.419 91.6615 108.908C90.0184 110.563 90.2149 113.028 91.6615 114.701C91.7021 114.745 91.7394 114.79 91.7801 114.837C91.4311 113.509 91.0822 112.181 90.7332 110.85C90.7061 110.918 90.6824 110.99 90.6553 111.058C91.2787 110.242 91.902 109.427 92.522 108.611C92.4543 108.638 92.3899 108.669 92.3221 108.696C93.6908 108.696 95.0596 108.696 96.4249 108.696C96.3334 108.631 96.2419 108.563 96.1505 108.498C96.7738 109.314 97.3972 110.13 98.0172 110.946C97.8004 110.403 97.8173 110.662 97.8444 110.912C97.8038 110.519 97.9088 110.475 98.1222 110.147C98.3594 109.782 98.8811 109.392 99.247 109.273C101.06 108.689 103.008 109.778 104.498 110.744C108.34 113.226 112.914 107.409 109.424 104.31C104.149 99.6259 95.7236 100.589 92.4373 107.194C91.4548 109.171 91.9156 111.632 93.8975 112.799C95.7066 113.864 98.478 113.318 99.4672 111.331Z" fill="#723612"/>
<path d="M112.26 111.168C113.69 110.57 115.438 109.942 116.956 110.556C117.163 110.642 117.708 111.024 117.732 111.045C117.532 110.871 118.189 111.594 117.972 111.308C118.413 111.891 118.406 111.884 118.342 112.83C118.193 115.039 120.317 116.926 122.407 116.926C124.731 116.926 126.324 115.045 126.473 112.83C126.723 109.133 124.565 105.603 121.476 103.715C118.088 101.647 113.666 101.77 110.099 103.265C108.073 104.115 106.626 105.979 107.26 108.303C107.785 110.236 110.221 112.021 112.26 111.168Z" fill="#723612"/>
<path d="M118.809 122.863C118.009 124.184 117.921 125.409 118.179 126.905C118.46 128.533 120.32 129.205 121.723 128.932C126.909 127.922 127.584 122.02 127.634 117.664C127.685 113.304 126.733 109.174 123.108 106.477C121.855 105.545 119.893 106.269 119.168 107.518C118.311 108.993 118.948 110.553 120.201 111.488C121.821 112.693 121.872 115.37 121.878 117.182C121.885 118.818 122.312 122.921 120.191 123.334C121.374 124.01 122.553 124.686 123.735 125.362C123.752 125.505 123.769 125.648 123.786 125.792C125.714 122.593 120.737 119.674 118.809 122.863Z" fill="#723612"/>
<path d="M95.1987 123.027C94.9446 123.283 94.6905 123.539 94.4365 123.795C94.0062 124.228 93.7419 124.87 93.7419 125.485C93.7284 125.812 93.7961 126.119 93.9452 126.406C94.0401 126.703 94.2027 126.959 94.4365 127.174C94.887 127.591 95.4833 127.901 96.1135 127.874C96.7436 127.847 97.3365 127.632 97.7905 127.174C98.0446 126.918 98.2987 126.662 98.5528 126.406C98.983 125.973 99.2473 125.331 99.2473 124.716C99.2608 124.389 99.1931 124.082 99.044 123.795C98.9491 123.498 98.7865 123.242 98.5528 123.027C98.1022 122.61 97.5059 122.3 96.8757 122.327C96.249 122.354 95.6527 122.569 95.1987 123.027Z" fill="#723612"/>
<path d="M89.6491 109.16C86.9049 114.489 87.823 121.081 92.0511 125.351C94.2092 127.533 97.5633 124.153 95.4052 121.972C92.722 119.261 91.98 114.994 93.7451 111.57C95.1477 108.846 91.0551 106.429 89.6491 109.16Z" fill="#723612"/>
<path d="M95.8356 134.541C99.7486 139.573 106.402 140.675 112.379 140.256C114.113 140.133 115.841 139.911 117.566 139.679C118.843 139.508 120.12 139.307 121.177 138.511C123.664 136.644 122.79 133.524 121.607 131.172C120.835 131.95 120.063 132.728 119.29 133.507C123.965 136.436 127.113 141.471 127.604 147.015C127.797 149.186 131.185 149.206 130.992 147.015C130.392 140.235 126.754 134.162 121.001 130.561C119.483 129.608 117.955 131.445 118.684 132.896C119.046 133.616 119.775 134.855 119.253 135.613C118.734 136.364 117.088 136.33 116.275 136.432C113.907 136.733 111.525 136.989 109.133 136.927C104.973 136.821 100.873 135.521 98.2342 132.128C96.8892 130.397 94.5042 132.831 95.8356 134.541Z" fill="#7236D2"/>
<path d="M93.7312 132.704C91.9492 134.773 90.5635 137.081 89.6386 139.658C88.7951 142.007 88.0938 145.035 88.48 147.551C88.9441 150.568 92.8639 149.906 95.0999 149.974C98.4201 150.073 101.744 150.118 105.064 150.104C111.707 150.077 118.351 149.827 124.974 149.35C126.004 149.274 127.475 149.401 128.376 148.79C129.399 148.097 129.494 146.895 129.115 145.816C128.051 142.785 126.252 139.863 124.849 136.975C124.124 135.483 121.553 136.166 121.692 137.835C121.661 137.477 121.478 137.757 121.166 137.832C120.797 137.921 120.431 138.067 120.065 138.173C119.327 138.385 118.582 138.569 117.829 138.719C116.285 139.033 114.716 139.201 113.141 139.245C109.922 139.334 106.731 138.89 103.658 137.924C102.15 137.449 100.744 136.808 99.3179 136.132C98.1762 135.592 96.9802 135.176 95.7437 135.685C93.3145 136.685 92.0068 140.392 91.4173 142.73C91.0751 144.089 92.2473 145.035 93.5009 144.83C95.7877 144.454 97.729 142.969 98.7318 140.87C99.511 139.235 97.4308 137.255 96.0723 138.801C94.8255 140.218 93.9481 141.771 93.3992 143.584C93.1519 144.407 93.6974 145.526 94.5816 145.683C95.9977 145.936 97.563 146.096 98.7724 145.13C99.7583 144.345 100.189 142.959 99.8024 141.74C98.6132 137.982 94.1446 140.948 92.9351 143.062C92.2406 144.277 92.4032 145.775 93.5754 146.619C94.6494 147.394 95.9977 147.25 97.2208 147.018C101.534 146.192 105.829 145.239 110.132 144.348C111.995 143.963 111.589 140.904 109.681 140.996C106.368 141.157 103.055 141.317 99.7448 141.481C97.5799 141.587 97.5494 144.919 99.7448 144.895C100.781 144.884 101.818 144.874 102.858 144.861C104.407 144.843 105.338 142.379 103.712 141.679C101.988 140.938 100.267 140.194 98.5421 139.453C98.2575 140.515 97.9729 141.573 97.6883 142.635C99.1248 142.447 100.565 142.259 102.001 142.075C101.456 141.355 100.914 140.634 100.368 139.914C100.006 140.979 99.3043 141.611 98.3117 142.082C96.3399 143.017 98.0576 145.96 100.023 145.028C101.822 144.174 102.997 142.693 103.634 140.819C103.959 139.863 103.072 138.518 102.001 138.658C100.565 138.846 99.1248 139.033 97.6883 139.218C96.2756 139.402 95.0762 141.641 96.8346 142.399C98.559 143.14 100.28 143.884 102.005 144.625C102.289 143.563 102.574 142.505 102.858 141.443C101.822 141.454 100.785 141.464 99.7448 141.478C99.7448 142.614 99.7448 143.755 99.7448 144.891C103.058 144.731 106.372 144.57 109.681 144.407C109.532 143.29 109.38 142.171 109.231 141.054C106.029 141.717 102.831 142.379 99.6296 143.038C98.8571 143.198 98.0847 143.359 97.3123 143.516C97.1361 143.553 95.6454 143.693 95.5776 143.795C95.1508 143.731 95.3134 143.956 96.0655 144.471C96.3365 144.151 96.6448 143.864 96.987 143.618C97.8306 143.318 97.651 142.939 96.4483 142.481C96.1231 142.491 95.7979 142.461 95.4794 142.389C95.8724 143.089 96.2688 143.789 96.6618 144.488C97.0378 143.246 97.607 142.188 98.4641 141.211C97.5765 140.522 96.6889 139.832 95.8046 139.143C95.1406 140.535 94.1039 141.29 92.5997 141.536C93.2942 142.235 93.9887 142.935 94.6832 143.635C95.039 142.218 95.5675 140.525 96.5669 139.412C97.2614 138.637 97.7459 139.163 98.603 139.569C99.2569 139.88 99.9209 140.167 100.588 140.436C103.492 141.611 106.571 142.29 109.688 142.556C112.703 142.816 115.763 142.614 118.731 142.01C120.899 141.57 125.334 140.901 125.08 137.832C124.026 138.119 122.976 138.405 121.922 138.692C123.043 141 124.165 143.311 125.286 145.618C125.432 145.919 125.578 146.219 125.723 146.523C125.913 146.291 126.106 146.062 126.296 145.83C126.289 145.792 124.575 145.956 124.307 145.973C122.982 146.066 121.654 146.148 120.33 146.223C115.356 146.503 110.373 146.653 105.389 146.677C102.953 146.69 100.517 146.67 98.0813 146.622C96.865 146.598 95.6454 146.567 94.4291 146.526C93.7651 146.506 93.1011 146.482 92.4371 146.455C92.105 146.441 91.773 146.427 91.441 146.414C90.7838 146.305 90.9125 146.574 91.8306 147.219C91.8781 147.202 91.9424 144.437 91.9932 144.11C92.1457 143.082 92.393 142.065 92.7183 141.078C93.4399 138.876 94.6155 136.852 96.1197 135.104C97.5494 133.466 95.1643 131.042 93.7312 132.704Z" fill="#7236D2"/>
<path d="M93.4369 147.639C99.359 147.431 105.281 147.219 111.203 147.011C113.961 146.912 116.885 147.076 119.612 146.639C121.919 146.27 123.528 144.451 123.013 142.058C122.827 141.191 122.007 140.764 121.218 140.679C116.671 140.201 112.145 140.433 107.653 141.28C105.847 141.621 105.904 144.519 107.653 144.901C111.301 145.7 114.923 145.229 118.504 144.314C119.131 144.154 120.699 143.478 121.262 144.024C121.309 144.007 121.357 143.993 121.404 143.976C121.221 144.137 121.008 144.205 120.764 144.181C120.323 144.256 119.883 144.195 119.442 144.154C117.417 143.97 115.397 143.693 113.378 143.464C109.973 143.075 106.555 142.734 103.516 141.003C100.704 139.402 98.5222 137.023 97.0451 134.142C95.944 131.994 92.7289 133.889 93.8265 136.036C95.8051 139.9 99.0405 143.102 102.967 144.932C107.564 147.073 112.89 147.165 117.85 147.731C120.13 147.991 122.688 148.332 124.308 146.308C125.656 144.618 125.202 142.307 123.511 141.047C121.407 139.484 118.928 140.372 116.631 140.914C113.998 141.536 111.312 141.867 108.645 141.283C108.645 142.491 108.645 143.696 108.645 144.905C112.806 144.12 117.013 143.997 121.221 144.441C120.621 143.98 120.022 143.522 119.426 143.062C119.348 142.693 118.995 142.945 118.531 142.997C117.996 143.055 117.447 143.038 116.908 143.058C115.79 143.099 114.672 143.137 113.554 143.178C111.318 143.256 109.086 143.335 106.85 143.417C102.381 143.574 97.909 143.734 93.4403 143.891C91.0451 143.97 91.0349 147.725 93.4369 147.639Z" fill="#7236D2"/>
<path d="M95.7439 132.349C89.2493 132.906 83.9709 138.381 84.496 145.14C84.7027 147.796 85.8173 151.364 89.1917 150.384C90.5197 149.998 91.4683 148.895 91.8207 147.574C92.3018 145.782 91.3667 144 91.8004 142.252C92.068 141.181 91.2515 139.74 90.0048 139.877C86.4813 140.262 85.9732 144.847 88.9342 146.52C90.6586 147.492 92.9387 147.445 94.8529 147.626C97.3802 147.865 99.911 148.066 102.445 148.237C112.253 148.892 122.085 149.083 131.91 149.271C133.987 149.312 134.474 146.066 132.404 145.584C131.256 145.315 130.107 145.048 128.959 144.779C126.625 144.232 125.629 147.854 127.97 148.401C129.118 148.67 130.267 148.936 131.415 149.206C131.581 147.977 131.744 146.748 131.91 145.519C124.622 145.379 117.332 145.239 110.051 144.908C106.521 144.748 102.994 144.543 99.4706 144.27C97.6005 144.127 95.7303 143.963 93.8636 143.778C93.081 143.7 92.2679 143.673 91.4988 143.492C91.2922 143.444 90.9331 143.236 90.7332 143.242C90.6485 143.229 90.6281 143.212 90.6688 143.195C90.9195 143.051 90.6993 143.198 90.0014 143.638C89.4017 142.846 88.8021 142.054 88.2058 141.263C87.9585 142.263 87.9381 143.157 88.0601 144.181C88.1143 144.642 88.2092 145.096 88.2464 145.557C88.2735 145.885 88.1008 146.475 88.1922 146.759C88.3379 147.199 88.4768 147.103 88.5547 146.786C88.6123 146.543 88.2702 145.639 88.2397 145.42C88.1211 144.519 88.1651 143.553 88.3481 142.666C89.0833 139.074 92.1256 136.422 95.7405 136.111C98.1154 135.903 98.1357 132.145 95.7439 132.349Z" fill="#7236D2"/>
<path d="M122.75 136.374C127.642 137.859 130.891 142.662 130.657 147.769C130.545 150.186 134.272 150.179 134.384 147.769C134.692 140.993 130.152 134.701 123.739 132.752C121.442 132.052 120.456 135.674 122.75 136.374Z" fill="#7236D2"/>
<path d="M62.4075 135.749C65.277 140.563 70.884 141.86 76.1149 141.464C79.3572 141.218 79.3809 136.094 76.1149 136.343C72.7846 136.596 68.7056 136.367 66.7948 133.165C65.1144 130.346 60.7169 132.916 62.4075 135.749Z" fill="#ECFCEF"/>
<path d="M62.4244 141.321C64.5656 141.812 66.5543 142.761 68.6683 143.345C69.6542 143.618 70.6774 143.806 71.6971 143.867C71.9953 143.884 72.8253 143.727 72.9812 143.782C73.0963 143.823 73.5639 144.335 73.7841 144.526C75.1697 145.735 76.9043 146.182 78.6728 146.441C79.6756 146.588 82.3927 146.567 82.5655 147.82C82.5655 147.366 82.5655 146.912 82.5655 146.458C82.6739 145.816 84.1849 145.837 82.6401 145.772C82.1996 145.755 81.7592 145.728 81.3188 145.707C80.3261 145.659 79.3369 145.608 78.3442 145.56C76.2505 145.458 74.1568 145.352 72.063 145.25C70.0811 145.151 68.0958 145.052 66.1139 144.956C65.7785 144.939 65.1009 144.775 64.7926 144.891C64.1286 144.789 64.2912 145.021 65.2804 145.588C65.2229 145.403 65.1653 145.219 65.1077 145.035C65.0331 144.079 64.8908 143.253 65.0128 142.27C63.7389 143.007 62.4651 143.744 61.1879 144.482C65.7141 147.172 70.7079 148.677 75.9422 149.036C75.9422 147.329 75.9422 145.622 75.9422 143.915C71.792 143.768 67.6418 143.621 63.4916 143.478C60.2223 143.362 60.2257 148.483 63.4916 148.599C67.6418 148.745 71.792 148.892 75.9422 149.036C79.2318 149.152 79.1776 144.137 75.9422 143.915C71.6091 143.618 67.4894 142.28 63.7525 140.061C61.9332 138.979 60.1579 140.423 59.9276 142.273C59.6294 144.707 59.9919 148.274 62.4312 149.524C63.8067 150.227 65.6023 150.053 67.1031 150.128C68.6446 150.203 70.1895 150.282 71.731 150.357C74.8174 150.51 77.9004 150.661 80.9868 150.814C83.5819 150.944 86.8343 151.08 87.4678 147.82C87.9896 145.127 85.74 143.041 83.443 142.205C81.583 141.529 79.2522 141.87 77.5108 140.945C76.6638 140.495 76.2064 139.556 75.3256 139.102C74.0619 138.453 72.7745 138.897 71.4464 138.737C68.8073 138.419 66.3612 136.985 63.783 136.391C60.5916 135.651 59.233 140.587 62.4244 141.321Z" fill="#43B3E7"/>
<path d="M76.5248 120.654C77.2261 122.18 78.3272 123.86 78.605 125.519C78.605 125.003 78.605 124.491 78.605 123.976C78.6795 123.58 80.5259 122.989 80.4107 123.348C80.4243 123.303 80.3159 123.194 80.343 123.15C80.4819 122.931 80.0753 121.747 80.0279 121.422C79.7941 119.917 79.3876 118.565 78.4593 117.343C76.8975 115.284 74.3972 114.137 71.8224 114.376C65.9986 114.919 62.9698 120.292 62.1703 125.597C61.74 128.451 61.2115 131.54 64.0641 133.288C66.5034 134.783 69.627 135.715 72.3814 136.415C75.3086 137.156 78.1239 136.449 78.9031 133.179C79.2318 131.796 79.3605 130.322 79.5638 128.915C79.7637 127.523 79.8992 126.215 79.3707 124.874C78.107 121.675 74.3498 121.374 71.8732 123.293C69.3831 125.222 68.3498 128.775 68.7055 131.831C68.98 134.196 71.714 135.825 73.6214 133.882C76.6671 130.779 76.9043 124.884 74.5564 121.235C73.0793 118.941 70.0167 118.162 68.0347 120.333C66.229 122.31 65.9579 125.184 66.3882 127.703C66.6389 129.171 68.5734 130.223 69.932 129.731C72.6524 128.748 74.631 126.782 75.3899 123.931C76.2369 120.753 71.8089 118.855 70.1251 121.695C69.6982 122.412 69.3154 123.385 68.8072 124.023C69.2307 123.774 69.6542 123.525 70.0776 123.276C70.0065 123.296 69.9353 123.317 69.8642 123.337C70.9483 123.781 72.0325 124.225 73.1166 124.672C73.0929 124.638 73.0692 124.6 73.0454 124.566C73.1437 125.31 73.2386 126.058 73.3368 126.802C73.3537 126.758 73.3707 126.717 73.3876 126.673C72.4627 127.383 71.5378 128.093 70.6095 128.803C70.64 128.806 70.6739 128.809 70.7044 128.813C72.2527 128.984 73.5841 127.359 73.5841 125.911C73.5841 124.201 72.2561 123.18 70.7044 123.01C70.6739 123.006 70.64 123.003 70.6095 122.999C69.2747 122.853 68.2583 124.023 67.8315 125.13C67.5367 125.901 67.6892 126.918 68.1431 127.604C68.8512 128.67 70.1183 129.311 71.3955 128.939C73.347 128.366 74.1364 126.249 75.0985 124.628C73.3436 123.884 71.5886 123.136 69.8337 122.392C69.6169 123.201 69.2137 123.843 68.3972 124.14C69.5796 124.815 70.7586 125.491 71.941 126.167C71.8732 125.778 71.9037 125.365 71.9986 124.983C72.1205 124.505 72.7575 124.092 72.0968 124.457C71.6124 124.59 71.1279 124.72 70.6434 124.853C70.6536 124.853 70.6637 124.85 70.6739 124.85C70.2504 124.6 69.8269 124.351 69.4034 124.102C70.5892 125.075 70.762 128.543 69.5491 129.779C71.1889 130.462 72.8252 131.148 74.465 131.831C74.3464 130.8 74.3362 129.786 74.7462 128.809C75.19 127.755 75.9252 128.004 74.7801 127.297C73.3402 126.41 74.282 126.748 74.0076 127.369C73.8009 127.84 73.7908 128.792 73.7129 129.301C73.6146 129.946 73.5401 130.595 73.4181 131.233C73.3944 131.366 73.3707 131.496 73.3504 131.629C73.2216 132.138 73.2182 132.155 73.3436 131.674C73.7671 131.424 74.1906 131.175 74.614 130.926C73.9229 131.151 72.1748 130.325 71.5006 130.103C70.5045 129.779 69.5152 129.424 68.5497 129.018C68.4582 128.98 67.2081 128.328 67.1437 128.376C67.408 129.253 67.5401 129.431 67.5367 128.905C67.5537 128.632 67.5808 128.359 67.6146 128.086C67.7061 127.191 67.8348 126.3 68.0313 125.42C68.4108 123.73 68.9935 121.962 70.43 120.89C71.4464 120.128 73.0319 119.668 73.9127 120.866C74.4548 121.6 74.4074 122.702 74.5531 123.573C74.7157 124.536 74.9867 125.488 75.4983 126.331C76.5756 128.106 78.4864 129.236 80.5768 128.847C82.7687 128.437 84.3577 126.649 84.2052 124.355C84.0561 122.125 82.413 119.722 81.4915 117.718C80.8376 116.295 78.8015 115.94 77.5514 116.677C76.1115 117.537 75.871 119.227 76.5248 120.654Z" fill="#F5909F"/>
<path d="M82.1039 107.214C73.8849 101.49 59.8454 101.138 55.5428 111.847C54.6145 114.155 56.5523 116.909 58.7375 117.517C61.353 118.241 63.4332 116.616 64.3649 114.298C64.087 114.991 64.6935 113.922 64.3886 114.301C64.1108 114.649 64.9001 113.755 64.8866 113.769C65.0763 113.567 65.388 113.393 64.9984 113.66C65.3101 113.448 65.6387 113.264 65.9707 113.089C66.6246 112.745 65.0763 113.318 66.3569 112.929C66.6517 112.837 66.9464 112.741 67.248 112.666C67.3496 112.639 68.4981 112.407 68.0102 112.485C67.5732 112.553 68.7962 112.434 68.7793 112.434C71.9368 112.308 74.7861 113.298 77.493 115.182C79.5257 116.599 82.5715 115.561 83.7505 113.53C85.0751 111.232 84.1434 108.635 82.1039 107.214Z" fill="#F1B300"/>
<path d="M75.3149 106.05C69.9179 105.934 64.7175 107.218 59.8965 109.628C61.9835 111.731 64.067 113.83 66.154 115.933C66.4995 115.38 66.9637 115.148 67.7565 114.96C69.0303 114.656 67.0721 114.868 68.6509 114.817C69.2878 114.796 69.9484 114.796 70.5786 114.871C73.6582 115.226 76.7547 116.203 79.7734 116.892C82.1822 117.442 84.7231 116.152 85.4007 113.673C86.0342 111.355 84.6248 108.556 82.2059 108.003C74.224 106.187 63.6605 102.681 58.2534 111.284C57.1726 113.001 57.5724 115.462 58.9682 116.868C60.4691 118.381 62.678 118.507 64.5109 117.589C67.9428 115.875 71.5408 115.189 75.3149 115.271C77.7847 115.325 79.8885 113.113 79.8885 110.662C79.8885 108.116 77.7948 106.105 75.3149 106.05Z" fill="#F1B300"/>
<path d="M61.2011 109.805C55.4654 112.857 52.6467 119.814 54.2593 126.072C54.8793 128.482 57.5286 129.943 59.8866 129.291C62.3056 128.622 63.7048 126.037 63.0814 123.621C62.5055 121.381 63.4032 119.05 65.8222 117.766C68.0074 116.605 68.6714 113.543 67.462 111.461C66.1678 109.232 63.3931 108.641 61.2011 109.805Z" fill="#F1B300"/>
<path d="M57.6239 111.304C54.1174 114.578 52.4166 119.087 52.4099 123.856C52.4065 125.881 52.6199 127.857 52.0982 129.803C51.8847 130.605 51.6137 131.404 51.2919 132.172C51.0547 132.742 50.7769 133.302 50.5093 133.858C50.4178 134.043 50.3297 134.23 50.2382 134.415C49.7605 135.265 49.9096 135.176 50.6922 134.148C51.4613 133.94 52.2303 133.729 52.9994 133.52C52.8943 133.524 52.7859 133.524 52.6809 133.527C53.7583 133.978 54.8356 134.428 55.9164 134.876C55.8418 134.797 55.7673 134.722 55.6894 134.643C51.5561 130.407 45.0886 136.924 49.2219 141.16C52.1863 144.202 56.4144 142.41 58.1354 139.068C59.4228 136.565 60.6628 133.845 61.1947 131.062C61.7571 128.116 61.2083 125.201 61.6114 122.276C61.8621 120.439 62.7125 119.111 64.0914 117.824C65.9039 116.131 65.7921 113.021 64.0914 111.307C62.2856 109.485 59.4398 109.607 57.6239 111.304Z" fill="#F1B300"/>
<path d="M50.7426 126.27C47.0837 130.858 43.8855 136.023 43.0216 141.949C42.1001 148.271 44.0481 157.935 52.4129 156.829C59.1514 155.938 62.126 148.196 62.7866 142.256C63.4405 136.395 61.8143 130.557 59.4055 125.276C58.3722 123.016 55.13 122.453 53.148 123.624C50.8443 124.983 50.4716 127.659 51.5083 129.929C52.8499 132.872 53.7985 136.569 53.7884 139.836C53.7816 141.655 53.6596 142.597 53.0735 144.417C52.9515 144.789 51.2068 148.117 51.0137 147.854C50.868 147.656 52.2401 148.127 52.2875 148.138C52.5145 148.189 52.4264 148.51 52.2536 147.926C52.1283 147.499 52.0233 147.059 51.9521 146.622C51.7522 145.359 51.8877 143.679 52.2469 142.222C53.0871 138.812 55.0385 135.51 57.2101 132.786C58.755 130.847 59.0904 128.164 57.2101 126.27C55.611 124.658 52.2977 124.32 50.7426 126.27Z" fill="#F1B300"/>
<path d="M47.2738 148.783C47.538 149.138 47.8023 149.49 48.0632 149.845C49.7436 152.101 53.0468 153.159 55.2455 150.777C59.101 146.602 60.0631 140.686 61.2455 135.306C62.5769 129.25 63.5289 122.993 62.7938 116.793C62.499 114.322 60.8999 112.185 58.2201 112.185C55.9773 112.185 53.3517 114.305 53.6464 116.793C54.263 122.003 53.6566 127.109 52.5657 132.206C52.0372 134.678 51.4545 137.146 50.8175 139.593C50.5973 140.436 50.2484 141.7 50.0044 142.28C49.7436 142.905 49.1439 143.86 48.778 144.256C51.1733 144.567 53.5685 144.878 55.9604 145.188C55.6961 144.833 55.4319 144.482 55.171 144.127C53.6905 142.14 51.2207 141.112 48.9135 142.474C46.9723 143.625 45.7831 146.782 47.2738 148.783Z" fill="#F1B300"/>
<path d="M57.5694 112.161C54.1984 116.606 55.6349 122.156 56.4412 127.157C56.7766 129.24 56.6445 130.704 55.6891 132.066C54.9776 133.077 53.1481 134.514 51.9353 135.398C49.9364 136.856 48.9607 139.406 50.2955 141.703C51.4474 143.69 54.5406 144.823 56.553 143.355C61.1029 140.034 65.1786 136.371 65.7105 130.38C65.9747 127.406 65.1583 124.491 64.6704 121.586C64.379 119.845 64.3214 118.329 65.4699 116.814C66.9708 114.834 65.7749 111.656 63.8302 110.509C61.4756 109.119 59.0736 110.174 57.5694 112.161Z" fill="#F1B300"/>
<path d="M78.0527 104.671C73.5976 101.94 69.0816 100.524 63.8608 101.357C59.4531 102.06 55.2962 104.641 52.9585 108.515C50.0856 113.281 50.5294 118.896 51.0545 124.191C51.2713 126.355 51.4848 128.632 51.1562 130.8C51.268 130.062 50.9834 131.482 50.9732 131.52C50.858 131.984 50.7259 132.462 50.5497 132.909C50.814 132.244 50.255 133.401 50.1906 133.527C49.8823 133.978 49.8416 134.056 50.072 133.756C49.862 134.002 49.6384 134.237 49.4046 134.459C45.2036 138.627 51.6745 145.144 55.8721 140.976C59.1889 137.682 60.3814 133.118 60.439 128.536C60.4898 124.498 59.3075 119.862 59.8427 116.175C59.9816 115.216 60.2595 114.25 60.6355 113.547C60.6829 113.458 61.2792 112.502 60.9879 112.922C60.7575 113.25 61.4994 112.373 61.6045 112.25C61.7535 112.096 61.9094 111.953 62.072 111.813C61.7535 112.041 61.723 112.062 61.9839 111.874C62.2753 111.666 62.5734 111.475 62.8851 111.297C63.0511 111.202 64.0709 110.714 63.3458 111.017C63.7456 110.85 64.1623 110.72 64.579 110.601C64.9991 110.481 65.426 110.389 65.8563 110.311C64.9483 110.478 66.2899 110.287 66.3882 110.283C66.8286 110.263 67.2724 110.263 67.7095 110.287C67.8145 110.294 69.1358 110.498 68.2447 110.324C68.6784 110.41 69.1053 110.502 69.5288 110.625C69.6948 110.673 70.8771 111.082 70.081 110.761C71.2566 111.232 72.3577 111.97 73.4316 112.629C75.5423 113.922 78.4593 113.096 79.6891 110.976C80.9629 108.788 80.1702 105.969 78.0527 104.671Z" fill="#F1B300"/>
<path d="M77.8361 129.84C77.7344 129.817 77.6362 129.786 77.5346 129.752C77.4837 129.735 77.4329 129.714 77.3855 129.694C77.5142 129.748 77.3889 129.69 77.3652 129.68C77.1449 129.561 76.9247 129.444 76.7147 129.311C76.3386 129.072 75.9761 128.81 75.5967 128.574C74.7361 128.045 73.7604 127.721 72.7949 128.175C71.809 128.635 71.4499 129.724 71.6294 130.748C71.8022 131.718 72.4696 132.582 73.364 132.971C74.726 133.558 76.2099 133.24 77.582 132.872C78.1071 132.732 78.368 132.09 78.0868 131.619C77.5684 130.745 76.8028 130.004 75.888 129.557C74.9699 129.107 73.3505 128.577 72.7746 129.796C72.5238 130.325 72.6018 130.967 72.9507 131.431C73.2963 131.892 73.8316 132.117 74.3872 132.199C74.9936 132.288 75.661 132.363 76.2099 132.022C76.6944 131.721 76.962 131.192 76.9925 130.626C77.0501 129.492 76.1963 128.68 75.18 128.383C74.2585 128.113 73.0524 128.014 72.1817 128.502C71.1924 129.055 70.9451 130.281 71.4838 131.237C71.9581 132.076 72.8423 132.667 73.7062 133.032C75.4239 133.759 78.0631 134.241 79.1777 132.285C79.4047 131.885 79.2692 131.349 78.8728 131.117C78.4798 130.885 77.9411 131.022 77.7141 131.424C77.6769 131.493 77.6362 131.558 77.5922 131.619C77.6904 131.486 77.5922 131.616 77.5583 131.643C77.5142 131.68 77.4736 131.725 77.4261 131.762C77.5617 131.653 77.4363 131.752 77.3957 131.769C77.3448 131.796 77.294 131.827 77.2398 131.855C77.4126 131.766 77.2093 131.861 77.1754 131.872C77.128 131.885 77.084 131.899 77.0365 131.913C77.0094 131.919 76.7553 131.964 76.857 131.95C76.9857 131.933 76.7384 131.957 76.7418 131.957C76.6639 131.96 76.5859 131.964 76.508 131.964C76.3725 131.964 76.2404 131.957 76.1049 131.943C76.0507 131.936 75.9965 131.933 75.9422 131.926C76.1218 131.95 75.8508 131.906 75.8372 131.906C75.6712 131.875 75.5086 131.837 75.346 131.796C75.0783 131.728 74.8141 131.643 74.5566 131.547C74.4956 131.523 74.4312 131.499 74.3703 131.476C74.228 131.421 74.5498 131.568 74.3025 131.445C74.1399 131.366 73.984 131.284 73.8316 131.192C73.547 131.018 73.442 130.94 73.2218 130.721C73.1608 130.66 73.1032 130.598 73.049 130.533C73.0727 130.561 73.1201 130.649 73.032 130.51C72.9914 130.445 72.9507 130.376 72.9135 130.308C72.7915 130.096 72.9778 130.451 72.8897 130.236C72.8186 130.062 72.8626 130.37 72.8796 130.185C72.883 130.131 72.9101 130.049 72.8694 130.202C72.8796 130.161 72.8965 129.96 72.8864 130.131C72.8897 130.079 72.9473 130.028 72.8931 130.1C72.9101 130.079 73.0964 129.936 72.9677 130.018C72.9575 130.025 73.1845 129.909 73.0862 129.95C73.0354 129.97 73.4792 129.878 73.3403 129.892C73.6148 129.868 73.9942 129.892 74.2009 129.919C74.4482 129.953 74.8446 130.045 75.0343 130.158C75.1766 130.24 75.1732 130.233 75.2714 130.359C75.2003 130.271 75.2714 130.332 75.2647 130.373C75.2748 130.397 75.2884 130.417 75.2985 130.441C75.2613 130.356 75.2579 130.359 75.2884 130.451C75.2647 130.544 75.3019 130.53 75.2952 130.448C75.2985 130.489 75.2748 130.714 75.3121 130.516C75.3019 130.564 75.2918 130.609 75.2782 130.656C75.3223 130.561 75.3189 130.557 75.2748 130.643C75.3392 130.564 75.3358 130.557 75.2714 130.629C75.2714 130.667 75.3189 130.571 75.3392 130.571C75.0207 130.568 75.4883 130.615 75.1596 130.585C75.0749 130.578 74.9869 130.574 74.9022 130.568C74.8784 130.564 74.6752 130.544 74.7937 130.561C74.6481 130.54 74.4685 130.513 74.3364 130.451C74.4516 130.506 74.211 130.373 74.316 130.434C74.2178 130.376 74.2991 130.414 74.3398 130.506C74.333 130.482 74.3262 130.458 74.3194 130.434C74.3262 130.53 74.3262 130.544 74.3262 130.482C74.3262 130.417 74.3228 130.434 74.3127 130.533C74.2923 130.588 74.2618 130.632 74.2178 130.67C74.1975 130.687 74.1771 130.701 74.1534 130.718C73.9976 130.748 73.9671 130.762 74.0653 130.759C74.0891 130.776 74.2009 130.772 74.2788 130.789C74.6616 130.875 74.8988 130.96 75.2071 131.127C75.8271 131.465 76.2844 131.906 76.63 132.489C76.7994 132.073 76.9688 131.653 77.1348 131.237C76.2709 131.469 75.3019 131.742 74.4651 131.558C74.272 131.517 74.0823 131.459 73.9264 131.37C73.8993 131.353 73.7333 131.247 73.8045 131.298C73.8892 131.36 73.7706 131.267 73.7503 131.25C73.7164 131.216 73.6791 131.185 73.6486 131.148C73.6148 131.114 73.4826 130.929 73.5741 131.066C73.5334 131.005 73.4928 130.943 73.4555 130.882C73.4318 130.841 73.3403 130.649 73.3708 130.721C73.4081 130.813 73.364 130.701 73.3607 130.687C73.3437 130.629 73.3234 130.574 73.3065 130.516C73.2997 130.486 73.2556 130.281 73.2726 130.387C73.2895 130.492 73.2658 130.26 73.2658 130.223C73.2658 130.155 73.2692 130.086 73.276 130.018C73.2556 130.23 73.2997 129.98 73.3166 129.922C73.276 130.079 73.3234 129.933 73.3539 129.861C73.3912 129.782 73.3234 129.888 73.3166 129.902C73.3437 129.868 73.3776 129.837 73.4047 129.803C73.4894 129.697 73.3234 129.83 73.4487 129.765C73.4826 129.748 73.5165 129.728 73.547 129.707C73.6283 129.656 73.4284 129.731 73.5741 129.694C73.6554 129.673 73.7672 129.653 73.6148 129.666C73.6893 129.66 73.774 129.673 73.8485 129.66C73.9332 129.646 73.8113 129.653 73.7909 129.646C73.835 129.653 73.879 129.663 73.9231 129.673C74.0145 129.694 74.1026 129.728 74.1907 129.755C74.3398 129.806 74.1196 129.711 74.2585 129.786C74.3364 129.83 74.4177 129.868 74.4956 129.912C74.6582 130.004 74.8175 130.103 74.9767 130.209C75.739 130.708 76.4809 131.271 77.3787 131.493C77.8225 131.602 78.2968 131.349 78.4222 130.895C78.5442 130.451 78.2799 129.95 77.8361 129.84Z" fill="white"/>
</g>
</g>
<defs>
<clipPath id="clip0">
<rect width="127.341" height="55.9059" fill="white" transform="translate(42.8115 101.012)"/>
</clipPath>
</defs>
</svg>
