<svg width="233" height="233" viewBox="0 0 233 233" fill="none" xmlns="http://www.w3.org/2000/svg">
<path fill-rule="evenodd" clip-rule="evenodd" d="M112.648 22.0126C154.784 21.4585 197.896 39.1814 211.785 78.8999C226.51 121.008 208.989 167.563 172.59 193.423C137.263 218.521 89.8064 216.085 54.9745 190.306C21.1716 165.288 7.61339 121.152 21.2344 81.4054C34.2453 43.4389 72.4573 22.541 112.648 22.0126Z" fill="#018EFF"/>
<g clip-path="url(#clip0)">
<path d="M95.5469 116.953C95.9707 115.776 96.0645 114.505 95.818 113.278C95.5716 112.052 94.9942 110.916 94.1485 109.994C92.6725 108.091 89.5526 106.944 87.5651 108.766L87.2088 109.14C86.7549 109.322 86.3499 109.607 86.0266 109.974C85.3403 110.349 84.7283 110.846 84.2208 111.441C82.8098 113.343 82.6725 115.986 83.0548 118.252C83.4485 119.731 84.3212 121.038 85.5367 121.969C86.1677 122.743 87.0298 123.295 87.997 123.544C90.637 124.785 93.7188 123.856 95.1966 120.244C95.5803 119.192 95.7005 118.062 95.5469 116.953Z" fill="#EFABBF"/>
<path d="M130.903 98.185C126.809 94.4786 122.221 90.6333 116.466 90.2703C112.442 89.6022 108.747 91.4247 105.828 94.0682C101.608 97.6668 97.405 102.015 96.0268 107.576C95.7129 108.63 95.4549 109.701 95.2538 110.783C93.7353 114.078 93.2535 117.756 93.8724 121.331C95.2746 126.631 95.7343 133.307 101.284 136.046C105.696 138.664 110.728 139.862 115.685 140.965C123.02 142.704 131.255 139.859 135.268 133.332C137.349 129.64 138.33 125.381 139.027 121.263C139.901 112.868 137.472 103.785 130.903 98.185ZM115.133 115.69C115.126 115.708 115.124 115.727 115.127 115.747C114.974 115.644 114.833 115.526 114.704 115.395C114.888 115.166 115.087 114.95 115.3 114.748C115.203 115.063 115.146 115.389 115.13 115.718L115.133 115.69Z" fill="#EFABBF"/>
<path d="M140.429 97.8174C140.434 97.786 140.437 97.7543 140.439 97.7225C140.008 96.2668 139.374 94.8788 138.556 93.5993C138.498 93.3735 138.397 93.1608 138.259 92.9729C138.082 92.6518 137.827 92.3806 137.518 92.1843C136.656 91.1543 135.632 90.2711 134.487 89.5694C133.368 88.3795 132.057 87.387 130.608 86.634C128.535 85.7316 126.312 85.225 124.053 85.1404C120.504 84.1912 116.782 84.0908 113.188 84.8474C112.186 84.9011 111.187 85.0126 110.198 85.1815C109.243 85.4221 108.311 85.7432 107.41 86.1413C105.71 86.8208 104.135 87.7816 102.753 88.9835C100.393 90.0774 98.337 91.7322 96.7637 93.8037C95.7656 94.8005 94.9293 95.7186 94.289 96.4178C92.6939 98.287 91.5021 100.466 90.7882 102.817C90.306 104.042 90.2738 105.398 90.6974 106.644C90.8536 107.014 91.0624 107.359 91.3173 107.669C91.401 108.333 91.6327 108.97 91.9952 109.533C92.3578 110.095 92.8421 110.569 93.4123 110.92C93.9825 111.271 94.6241 111.489 95.2898 111.558C95.9556 111.628 96.6284 111.547 97.2589 111.323C100.025 110.658 102.063 108.63 104.022 106.719C104.395 106.365 104.75 106 105.096 105.634C105.072 105.862 105.049 106.08 105.073 106.303C105.026 109.176 106.443 112.99 109.765 113.133C110.089 113.151 110.413 113.13 110.731 113.073C112.995 113.16 115.37 111.485 116.875 109.42C117.156 108.937 117.393 108.429 117.583 107.903C119.436 112.119 122.295 115.263 125.837 114.795C129.07 114.065 130.76 110.888 130.966 107.783C130.989 107.565 131.012 107.347 131.036 107.129C131.658 108.49 132.301 109.843 132.984 111.173C134.056 112.908 134.908 115.444 137.197 115.745C139.037 115.855 140.449 114.298 141.342 112.849C142.235 111.399 142.233 109.884 142.462 108.364C142.785 104.727 142.081 101.073 140.429 97.8174Z" fill="#026306"/>
<path d="M142.274 112.372C141.981 112.512 141.698 112.67 141.427 112.848C140.19 113.292 139.097 114.065 138.265 115.083C137.433 116.102 136.895 117.327 136.707 118.628C136.636 119.026 136.593 119.429 136.579 119.833C136.129 121.521 136.228 123.308 136.861 124.937C138.121 127.517 140.828 127.498 142.971 126.287C143.877 126.166 144.75 125.863 145.537 125.399C146.325 124.934 147.011 124.316 147.556 123.581C150.435 119.6 148.461 110.384 142.274 112.372Z" fill="#EFABBF"/>
<path d="M111.993 122.175C113.568 120.53 115.733 119.11 116.595 116.958C117.316 114.512 113.842 112.905 112.384 114.985C110.729 116.977 108.852 118.772 106.788 120.336C105.853 121.195 104.819 120.817 103.706 122.981C102.922 125.392 104.891 127.711 106.984 128.682C108.793 129.58 110.83 129.91 112.83 129.63C113.249 129.501 113.624 129.258 113.914 128.928C114.205 128.599 114.398 128.196 114.474 127.764C114.55 127.332 114.505 126.887 114.344 126.479C114.183 126.07 113.913 125.714 113.562 125.45C113.22 125.197 112.816 125.038 112.393 124.99L112.033 124.951C111.873 124.959 111.713 124.958 111.554 124.948C110.967 124.888 110.385 124.79 109.81 124.657C109.602 124.593 109.399 124.514 109.202 124.42C110.198 123.757 111.132 123.006 111.993 122.175Z" fill="#DA99AC"/>
<path d="M121.051 133.623C121.093 130.884 118.717 130.497 116.672 131.238C115.76 131.308 114.88 131.606 114.113 132.104C113.347 132.602 112.717 133.285 112.282 134.09C112.058 134.95 112.142 135.862 112.518 136.667C112.895 137.473 113.541 138.121 114.345 138.501C115.168 138.552 115.994 138.454 116.783 138.214C117.49 138.197 118.168 137.929 118.695 137.458C118.811 137.365 118.918 137.261 119.014 137.166C119.097 137.119 119.176 137.067 119.252 137.009C119.675 136.727 120.028 136.354 120.286 135.916C120.543 135.478 120.698 134.988 120.739 134.481C120.875 134.208 120.98 133.92 121.051 133.623Z" fill="white"/>
<path d="M151.851 152.362C151.338 151.996 150.703 151.845 150.081 151.94C149.459 152.035 148.898 152.369 148.517 152.87C148.148 153.581 147.651 154.217 147.051 154.747C145.399 156.298 143.884 158.007 142.156 159.463C140.807 160.519 139.341 161.399 137.951 162.383C135.841 164.191 134.74 164.621 131.355 165.872C127.854 167.06 124.231 167.852 120.553 168.233C117.866 168.523 110.155 167.52 107.51 166.692C102.532 165.606 99.2447 163.961 94.7873 161.233C91.0252 159 90.0536 157.765 87.3695 154.055C85.3998 151.415 83.6541 148.614 82.1507 145.683C81.8705 145.141 81.3933 144.727 80.8172 144.526C80.2412 144.326 79.6101 144.354 79.0539 144.604C78.4976 144.854 78.0585 145.308 77.8269 145.873C77.5953 146.437 77.5888 147.069 77.8087 147.638C80.7958 153.097 84.0719 158.634 88.7268 162.842C92.9229 166.223 101.441 170.448 104.531 170.796C109.261 172.156 114.141 172.921 119.06 173.071C123.221 172.891 127.339 172.162 131.309 170.903C133.684 170.214 135.982 169.282 138.165 168.122C140.361 166.687 142.406 165.044 144.601 163.618C146.571 162.139 148.165 160.228 149.935 158.565C151.556 157.03 154.272 154.307 151.851 152.362Z" fill="#0DD9C4"/>
<path d="M157.544 148.882C157.479 148.49 157.322 148.119 157.084 147.801C156.847 147.482 156.537 147.225 156.18 147.051C155.823 146.877 155.429 146.791 155.032 146.8C154.635 146.809 154.246 146.913 153.897 147.103C152.567 147.527 151.565 148.552 150.37 149.24C148.654 150.383 146.779 151.266 144.806 151.861C141.619 152.971 138.415 154.059 135.196 155.097C133.701 155.725 131.815 155.773 130.579 156.85C128.73 158.629 130.958 161.754 133.261 160.665C138.732 158.917 144.242 157.249 149.58 155.132C150.47 154.699 151.337 154.222 152.178 153.701C152.007 154.584 151.827 155.467 151.61 156.336C151.037 159.533 149.974 162.623 148.458 165.496C147.469 167.127 145.894 168.407 145.222 170.216C145.038 170.705 145.019 171.241 145.168 171.742C145.317 172.243 145.625 172.681 146.047 172.99C146.468 173.3 146.98 173.462 147.502 173.453C148.025 173.445 148.53 173.265 148.941 172.942C149.33 172.625 149.613 172.197 149.753 171.715C150.878 170.156 152.245 168.757 153.038 166.981C154.635 163.744 155.758 160.294 156.373 156.737C157.087 154.177 157.481 151.539 157.544 148.882Z" fill="#0DD9C4"/>
<path d="M150.533 155.54C148.375 155.09 147.654 156.912 147.056 158.748C146.878 158.257 146.598 157.809 146.236 157.433C144.804 156.11 142.563 156.62 140.765 156.39C138.257 156.251 135.743 156.252 133.235 156.395C130.77 157.024 131.143 160.824 133.7 161.038C136.805 161.062 139.912 161.066 143.015 161.291C143.453 162.666 143.676 164.1 143.676 165.543C143.839 167.795 142.196 171.064 144.573 172.525C146.969 173.797 148.478 171.157 149.111 169.172C149.311 168.646 149.488 168.157 149.653 167.685C150.267 166.261 150.785 164.797 151.203 163.304C151.622 160.989 153.944 156.565 150.533 155.54Z" fill="#0DD9C4"/>
<path d="M150.006 170.332C149.946 170.003 149.818 169.69 149.63 169.413C149.443 169.136 149.199 168.901 148.916 168.723C148.633 168.544 148.316 168.427 147.985 168.378C147.654 168.329 147.317 168.35 146.994 168.438C147.123 167.224 147.252 166.01 147.382 164.796C147.388 163.205 148.248 161.34 147.194 159.981C146.893 159.621 146.494 159.358 146.046 159.222C145.598 159.087 145.12 159.085 144.671 159.218C144.221 159.351 143.821 159.611 143.518 159.969C143.215 160.326 143.023 160.763 142.965 161.228C142.587 164.785 142.311 168.371 141.753 171.899C141.389 173.606 141.417 173.254 141.263 173.986C141.186 174.473 141.257 174.971 141.465 175.417C141.848 176.109 142.48 176.63 143.232 176.874C143.984 177.118 144.801 177.067 145.517 176.731C146.852 175.997 147.942 174.885 148.648 173.535C149.218 172.502 150.265 171.587 150.006 170.332Z" fill="#0DD9C4"/>
<path d="M144.757 163.222C141.577 164.802 138.478 166.611 135.176 167.9C132.172 168.556 129.135 169.053 126.078 169.387L125.76 169.401C123.405 169.448 121.907 169.557 120.77 169.609C118.738 169.536 116.711 169.359 114.697 169.078C112.377 168.351 109.65 167.927 108.698 167.681C107.426 167.373 106.266 166.464 104.942 166.467C102.415 166.418 101.766 170.176 104.139 171.043C106.025 171.874 108.009 172.462 110.043 172.793C110.808 172.999 112.298 173.33 112.59 173.381C115.949 174.246 119.431 174.532 122.887 174.227C125.53 174.259 128.171 174.042 130.773 173.58C133.086 173.03 135.5 172.96 137.724 172.075C140.942 170.403 144.445 169.04 147.449 167.038C149.24 165.253 147.021 162.13 144.757 163.222Z" fill="#0DD9C4"/>
<path d="M173.098 79.9531C172.712 78.7782 171.884 77.7993 170.789 77.2232C169.05 76.079 167.282 75.0276 165.62 73.7956C163.957 72.5636 162.107 71.7433 160.485 70.4964C158.506 69.356 156.406 68.4409 154.224 67.7679C152.74 67.2935 151.326 66.3374 149.733 66.4364C149.427 66.4782 149.133 66.5857 148.872 66.7516C148.611 66.9175 148.389 67.1379 148.221 67.3977C147.845 67.4414 147.485 67.572 147.168 67.7789C146.851 67.9859 146.587 68.2636 146.396 68.5902C146.205 68.9168 146.092 69.2834 146.067 69.6609C146.042 70.0385 146.105 70.4167 146.251 70.7657C147.829 73.8145 149.095 77.0149 150.03 80.3181C150.488 82.5058 150.5 84.9145 151.733 86.8489C151.828 88.0246 152.38 89.1162 153.27 89.89L153.453 90.4273C153.453 90.4273 153.453 90.4273 153.441 90.5411C153.445 90.9205 153.535 91.2939 153.706 91.6326C153.877 91.9713 154.123 92.2663 154.426 92.495C154.729 92.7236 155.08 92.8797 155.452 92.9513C155.825 93.0229 156.209 93.0081 156.575 92.9081C158.297 92.4967 158.459 90.5189 158.136 89.0553C158.056 88.1836 157.946 87.3183 157.798 86.4585C157.812 86.3257 157.903 86.1915 157.964 86.0733C158.471 84.6406 158.831 83.1538 159.384 81.7451C159.508 81.6842 159.635 81.6306 159.765 81.5843C160.086 81.5039 160.412 81.4488 160.742 81.4197L160.913 81.4379C161.718 81.4373 162.524 81.5231 163.322 81.5984C163.826 81.6434 164.328 81.716 164.824 81.8157L164.606 81.7925L164.824 81.8157C166.857 82.2719 169.347 82.9397 171.344 82.6439C171.921 82.4965 172.421 82.1382 172.745 81.64C173.07 81.1417 173.196 80.5398 173.098 79.9531ZM155.164 73.1721C154.605 73.1126 154.045 73.053 153.486 72.9935C153.439 72.8062 153.391 72.619 153.335 72.4307L155.164 73.1721Z" fill="#FFA617"/>
<path d="M173.515 102.269C173.708 99.9203 172.253 92.5911 169.827 88.7073C168.377 86.4717 167.542 85.3949 166.828 84.1775C165.667 82.0303 164.13 80.1091 162.29 78.5056C161.154 77.2817 159.289 77.0544 158.283 78.3093L156.128 75.9315C155.727 75.4438 155.151 75.1314 154.523 75.0606C154.057 75.0189 153.588 75.1145 153.175 75.3355C152.762 75.5564 152.423 75.8932 152.199 76.3044C151.975 76.7156 151.876 77.1833 151.914 77.65C151.952 78.1168 152.126 78.5622 152.413 78.9316C155.597 82.637 160.149 86.8142 161.204 89.7943C162.515 94.4226 165.141 100.563 165.26 107.826C165.527 109.111 164.422 117.329 163.837 118.59C162.055 123.887 160.601 126.283 158.2 128.838L158.045 129.033C157.835 129.163 157.647 129.324 157.486 129.51C157.072 129.958 156.844 130.545 156.847 131.155C156.85 131.764 157.085 132.349 157.503 132.792C157.921 133.235 158.492 133.503 159.1 133.541C159.709 133.579 160.308 133.385 160.779 132.997L161.076 132.722C161.323 132.493 161.554 132.249 161.768 131.99L162.389 131.384C165.129 128.616 167.909 125.574 169.281 121.874C170.373 118.816 170.66 117.11 171.222 115.261C172.623 111.067 173.396 106.689 173.515 102.269Z" fill="#FFA617"/>
<path d="M154.567 71.4875C154.22 71.236 153.814 71.0773 153.388 71.0264C152.967 70.9756 152.54 71.0377 152.15 71.2065C151.761 71.3752 151.423 71.6445 151.172 71.9867C150.921 72.329 150.765 72.7318 150.721 73.154C150.677 73.5762 150.746 74.0025 150.92 74.3893C151.321 75.0955 151.952 75.6433 152.707 75.9417C153.462 76.2402 154.296 76.2714 155.072 76.03C155.523 75.8123 155.897 75.4597 156.14 75.0209C156.383 74.5821 156.483 74.0787 156.428 73.5801C156.373 73.0816 156.164 72.6126 155.83 72.2377C155.497 71.8629 155.056 71.6008 154.567 71.4875Z" fill="#FFA617"/>
<path d="M118.847 60.8573C118.066 59.815 116.747 59.9528 115.602 59.8117C114.098 59.6404 112.585 59.5595 111.071 59.5694C103.883 59.6101 95.5337 59.8342 90.0856 65.1532C85.5161 64.83 80.4612 65.4622 78.0524 66.376C69.3691 69.2886 64.8344 76.4792 63.5784 85.2177C63.1364 87.5685 62.9125 89.9426 62.6686 92.3241C62.5485 93.4527 62.1912 94.7383 63.0098 95.6982C63.3104 96.0573 63.7093 96.3208 64.1576 96.4563C64.6058 96.5917 65.0839 96.5933 65.533 96.4607C65.9822 96.3282 66.3828 96.0673 66.6857 95.7102C66.9886 95.3531 67.1806 94.9153 67.2381 94.4505C68.1747 86.5509 68.3196 80.773 72.2821 75.8043C74.6751 73.0827 77.8548 71.1721 81.3812 70.3367C83.4103 70.0035 85.4621 69.8275 87.5183 69.81C86.5901 73.8452 88.042 78.4981 92.1823 80.0609C97.7143 82.1555 101.517 72.7385 99.1424 68.7355C98.4867 67.7316 97.5322 66.959 96.4137 66.5268C101.106 64.3406 108.859 63.8612 115.799 64.6284C118.346 65.2928 120.394 63.1799 118.847 60.8573ZM93.7065 75.5617L93.5927 75.5496C93.3867 75.4125 93.1658 75.2356 93.0157 75.1141C92.8315 74.9288 92.6569 74.7341 92.4926 74.5309L92.4428 74.4584C92.3797 74.3323 92.3263 74.2016 92.283 74.0674C92.0246 73.247 91.9371 72.3825 92.0258 71.527C92.0629 71.1134 92.1578 70.707 92.3077 70.3197L93.4832 70.5407C93.6634 70.5599 93.8924 70.661 94.0675 70.7276L94.6279 70.9599C94.7298 71.0225 94.8282 71.0906 94.9227 71.1639L95.0254 71.2803L95.0732 71.3717C95.0466 72.8736 94.5706 74.333 93.7065 75.5617Z" fill="#DC3FF5"/>
<path d="M76.6829 68.0814C75.8636 68.1351 75.0589 68.325 74.302 68.6433C73.7788 68.6359 73.2711 68.8208 72.8751 69.1628C72.6517 69.3693 72.4358 69.5957 72.2019 69.8106C70.8195 70.858 69.512 72.0009 68.2891 73.2308C66.7851 74.7384 65.4772 76.4296 64.3964 78.2645C63.635 79.2002 62.8811 80.1558 62.1746 81.1165C59.9407 84.0823 59.246 87.8162 58.8425 91.4277C58.7565 93.7684 57.4524 97.3703 60.1137 98.6799C63.2747 99.6205 63.8405 96.0167 64.2407 93.5176C64.6675 92.6765 64.9095 91.7539 64.9507 90.8116C65.4064 89.594 66.0691 88.0532 66.5976 86.8721C66.2132 88.6659 66.0408 90.4986 66.0837 92.3325C66.1052 93.5721 66.0795 95.0753 67.1934 95.8748C67.4885 96.0875 67.828 96.2304 68.1863 96.2928C68.5447 96.3552 68.9125 96.3355 69.2621 96.2351C69.6118 96.1347 69.934 95.9563 70.2046 95.7132C70.4752 95.4702 70.6872 95.1689 70.8245 94.8321C71.242 92.8911 70.6496 93.2309 70.8333 91.9556C70.8766 88.1236 71.5907 86.5498 72.1988 83.9002C73.7484 77.8114 74.8569 76.318 78.305 72.8483L78.31 72.8009C78.6679 72.6647 78.9863 72.4417 79.2364 72.1519C79.4866 71.862 79.6608 71.5145 79.7432 71.1406C80.3081 69.1673 78.4341 67.7594 76.6829 68.0814Z" fill="#DC3FF5"/>
<path d="M77.6609 70.612C77.7008 68.0745 73.9524 67.4262 73.0765 69.798C70.0587 75.8936 66.6127 81.8669 64.8634 88.4811C64.1572 91.2119 63.703 94.0017 63.5064 96.8156C63.4814 97.772 63.1174 98.7596 63.4123 99.683C64.042 102.148 67.8405 101.785 68.0561 99.218C68.4278 95.0949 68.914 91.1566 69.7045 88.7757C71.1457 84.4443 72.9628 80.2472 75.1349 76.2324C75.926 74.6572 76.7255 73.0926 77.5546 71.5215C77.669 71.2328 77.7057 70.9192 77.6609 70.612Z" fill="#DC3FF5"/>
<path d="M85.0328 91.6442C85.6248 90.9486 86.0417 90.1214 86.2487 89.2318C86.3038 88.7542 86.214 88.271 85.9907 87.8453C85.7674 87.4195 85.4211 87.0708 84.9968 86.8446C84.6065 86.6408 84.173 86.5335 83.7326 86.5317C83.2922 86.5299 82.8579 86.6336 82.4658 86.8342C82.1146 86.9788 81.7756 87.1512 81.4518 87.3497C79.5201 88.3657 77.6926 89.5687 75.9956 90.9414C73.2585 93.048 69.2159 95.9748 67.8347 96.787C67.2831 97.0697 66.667 97.2026 66.048 97.1723C65.22 96.3806 64.2534 95.7478 63.1966 95.3055C61.3724 94.4208 59.5644 93.3843 57.7403 92.4996C56.6391 91.9606 55.5659 91.3662 54.5248 90.7187C54.0811 90.2015 53.6773 89.6694 53.1632 89.183C52.6636 88.4343 51.8879 87.9137 51.0057 87.7353C50.5573 87.6974 50.1072 87.7861 49.7067 87.9914C49.3063 88.1967 48.9715 88.5103 48.7405 88.8965C48.5095 89.2827 48.3916 89.726 48.4001 90.1759C48.4087 90.6259 48.5434 91.0644 48.7889 91.4415C48.7155 91.7318 48.703 92.0342 48.7519 92.3296C48.9157 93.5843 50.1263 94.1064 50.9891 94.8313C51.5873 95.4074 52.2429 95.9207 52.9458 96.3631C54.6249 98.4933 56.152 100.739 57.5155 103.084C58.9723 105.618 59.4422 108.593 60.981 111.078C63.5397 115.244 66.3745 113.752 68.0553 111.207C69.3567 109.523 70.693 107.872 71.8877 106.11C74.1055 103.296 76.451 100.543 78.8114 97.8304C80.1019 96.5194 81.5893 95.4308 83.0299 94.2413C83.3064 94.1527 83.5627 94.0105 83.7842 93.8228C84.2325 93.4385 84.5356 92.9122 84.6432 92.3316L85.0328 91.6442Z" fill="#DC3FF5"/>
<path d="M67.6199 101.426C67.2426 101.385 66.8648 101.497 66.5696 101.735C66.2745 101.974 66.086 102.319 66.0459 102.697C66.0057 103.074 66.1171 103.452 66.3555 103.747C66.5939 104.042 66.9398 104.231 67.3171 104.271C67.6944 104.311 68.0722 104.2 68.3674 103.961C68.6626 103.723 68.851 103.377 68.8911 103C68.9313 102.622 68.8199 102.244 68.5815 101.949C68.3431 101.654 67.9972 101.466 67.6199 101.426Z" fill="#DC3FF5"/>
<path d="M83.2316 67.56C80.912 68.6272 78.4211 69.3213 76.1194 70.4C74.1086 71.5313 72.4201 73.1575 71.2141 75.1245C68.9886 78.5516 67.5339 80.3247 66.118 83.8955C64.8214 87.0666 64.9278 90.4829 64.9888 93.8752C65.0086 95.8532 65.0482 97.8236 64.9826 99.7925C64.8701 100.356 64.9796 100.942 65.2882 101.427C65.4682 101.642 65.7073 101.801 65.976 101.882C66.2448 101.964 66.5315 101.965 66.8009 101.885C67.0702 101.806 67.3105 101.65 67.4921 101.435C67.6737 101.221 67.7888 100.959 67.8231 100.68C68.0921 95.9895 67.3253 91.208 68.2791 86.5713C68.9039 84.4397 69.8339 82.4096 71.0402 80.5444C71.8001 79.5318 72.3816 78.3948 73.1595 77.3937C73.5883 76.6078 74.0913 75.8648 74.6617 75.1749C75.5078 74.3384 76.4327 73.5856 77.4235 72.927C77.4306 72.8606 79.174 72.2501 80.2274 71.8155C81.7703 71.1068 83.5868 70.8014 84.9608 69.787C86.1228 68.6926 84.5949 66.7363 83.2316 67.56Z" fill="#DC3FF5"/>
</g>
<defs>
<clipPath id="clip0">
<rect width="125.802" height="113.603" fill="white" transform="translate(52.3457 53.0608) rotate(6.07444)"/>
</clipPath>
</defs>
</svg>
