<svg width="233" height="233" viewBox="0 0 233 233" fill="none" xmlns="http://www.w3.org/2000/svg">
<path fill-rule="evenodd" clip-rule="evenodd" d="M178.778 36.2026C210.234 62.356 216.015 106.946 200.973 145.159C185.995 183.208 151.313 211.358 110.56 209.501C68.5042 207.586 32.8737 177.823 22.4795 137.028C12.2196 96.7604 30.4562 55.0671 65.4582 32.4879C100.651 9.78589 146.699 9.53163 178.778 36.2026Z" fill="#BC48E3"/>
<g clip-path="url(#clip0_4066_2247)">
<path d="M177.62 75.1971C177.57 75.0065 177.537 74.8216 177.497 74.6366C177.458 74.4516 177.447 74.2274 177.425 74.0761C177.079 72.5738 175.582 72.1198 174.225 72.5346C173.843 72.6248 173.469 72.7486 173.109 72.9046C172.232 73.2577 171.283 73.3474 170.384 73.6164C169.81 73.7768 169.25 73.983 168.709 74.233H168.658C166.374 74.7169 164.126 75.3593 161.93 76.1556C160.054 76.8563 158.021 77.3608 156.29 78.3249C154.431 79.6702 155.944 82.6802 158.138 82.0468H158.194C158.484 84.0928 160.774 86.3461 162.661 86.0939C163.093 86.1359 163.529 86.0874 163.942 85.9513C164.354 85.8153 164.734 85.5947 165.057 85.3035L165.23 85.2531C166.534 84.7736 167.784 84.1573 168.96 83.4145C169.915 82.7083 173.064 82.0973 175.443 80.8361C178.14 79.5469 178.385 77.9045 177.62 75.1971Z" fill="#FDE8B3"/>
<path d="M177.067 71.845C175.85 71.1276 174.331 71.3742 173.053 71.7834C171.774 72.1926 168.312 73.6836 169.965 75.3596C171.294 76.3293 173.125 75.7688 174.588 75.4437C175.202 75.2363 176.113 75.0737 176.464 74.4907C177.017 74.2406 177.466 73.8071 177.738 73.2632C177.8 72.9856 177.768 72.6951 177.646 72.4381C177.525 72.181 177.321 71.9722 177.067 71.845Z" fill="white"/>
<path d="M162.751 84.9055C160.813 82.0524 156.659 78.4089 153.057 78.4538C151.488 78.5379 150.058 79.2329 148.59 79.7262C147.763 80.0059 146.981 80.4084 146.273 80.9201C145.232 81.4655 144.322 82.2304 143.604 83.1622C142.453 84.8775 142.699 87.0411 142.593 89.0254C142.543 89.1151 142.498 89.2048 142.453 89.3001C141.605 89.5467 140.711 89.6756 139.862 89.9054C139.391 89.7052 138.864 89.6834 138.378 89.8443C137.892 90.0051 137.481 90.3376 137.221 90.7799C137.049 91.1069 136.956 91.4696 136.948 91.8393C136.854 92.0304 136.797 92.2378 136.78 92.4503C136.624 93.3471 137.182 94.1319 137.562 94.9615C138.014 96.1161 138.5 97.2652 139.058 98.3751C139.265 98.9796 139.63 99.5176 140.114 99.9334C140.467 100.226 140.909 100.389 141.367 100.395C141.825 100.401 142.271 100.25 142.632 99.967C143.427 100.036 144.225 99.8829 144.938 99.5242L145.776 99.2159C146.652 99.0774 147.508 98.8347 148.327 98.4928L148.093 98.5881L148.478 98.4367C148.635 98.5208 148.785 98.6049 148.947 98.6778C150.896 99.5802 152.515 99.7708 154.029 99.1206C156.413 99.3896 159.054 98.3863 160.919 96.9906C165.76 93.5601 166.157 89.6644 162.751 84.9055Z" fill="#FFF3D4"/>
<path d="M157.759 89.6534C157.518 89.3844 156.536 88.0279 155.922 87.2207C155.806 87.0559 155.634 86.9405 155.438 86.8976C155.242 86.8547 155.037 86.8873 154.864 86.989C154.691 87.0906 154.563 87.2539 154.504 87.4464C154.445 87.6389 154.461 87.8465 154.548 88.0279C154.855 88.4147 155.341 89.0929 155.799 89.7095C154.548 89.7375 153.498 89.8552 152.404 89.9617C150.957 89.8945 149.517 90.2588 149.539 91.9908C149.394 94.1937 149.841 96.9684 151.935 98.1567C152.448 98.3865 153.213 98.7845 153.61 98.1959C153.688 98.0923 153.741 97.9711 153.762 97.8427C153.783 97.7142 153.773 97.5825 153.733 97.4589C153.692 97.3352 153.622 97.2234 153.529 97.133C153.435 97.0427 153.321 96.9766 153.197 96.9404C153.102 96.9404 152.884 96.8394 152.783 96.8058C152.456 96.6599 152.172 96.4322 151.957 96.1444C151.086 94.9056 150.957 92.8933 151.142 91.733L151.22 91.6938C151.304 91.6573 151.392 91.6292 151.482 91.6097C151.879 91.6769 154.325 91.3743 154.872 91.3462C155.67 91.3462 156.469 91.3462 157.267 91.3462C157.409 91.3603 157.553 91.3452 157.689 91.3018C157.826 91.2585 157.952 91.1878 158.06 91.094C158.758 90.2812 157.82 89.7319 157.759 89.6534Z" fill="#FFE394"/>
<path d="M99.9488 85.567C99.8037 84.3058 99.4909 83.067 99.2955 81.8114C99.1701 80.3042 98.8799 78.8154 98.43 77.372C97.7052 75.4551 96.6274 73.6924 95.2528 72.1758C94.4105 71.2587 93.4121 70.4994 92.3045 69.9337C91.7845 69.7335 91.2397 69.6053 90.6852 69.5526C90.4266 69.2723 90.0945 69.0711 89.7271 68.9719C89.3596 68.8727 88.9717 68.8797 88.608 68.992C83.5825 70.4662 76.9936 72.0133 75.0895 77.5682C74.1235 81.4078 74.5311 85.5165 75.3073 89.3394C75.7763 91.9066 77.3566 93.9805 78.518 96.2451C79.1211 97.8482 79.7241 99.5354 81.1145 100.628C82.7394 102.047 84.9562 102.467 87.0613 102.344C91.7852 102.091 95.8838 98.7002 98.3239 94.8101C100.1 92.0691 100.116 88.6891 99.9488 85.567Z" fill="#FFF3D4"/>
<path d="M101.188 73.5268C99.0833 72.3384 96.9726 71.1501 94.8451 69.9898C92.3994 68.6389 90.3334 72.1815 92.7009 73.6725C94.4989 74.6927 96.336 75.6456 98.1285 76.6714C96.895 77.1202 95.737 77.7553 94.6944 78.5547C94.1694 78.7172 93.7278 79.0782 93.4632 79.5614C93.1985 80.0447 93.1314 80.6124 93.2761 81.1444C93.416 81.6299 93.7213 82.0507 94.1386 82.3335C94.556 82.6162 95.059 82.7429 95.5599 82.6915C95.9165 82.6947 96.269 82.615 96.5897 82.4584C96.9104 82.3018 97.1905 82.0727 97.4081 81.789C97.6315 81.6601 97.8604 81.5312 98.0838 81.3854C98.4586 81.1623 98.8465 80.962 99.2452 80.7857C100.301 80.3484 101.395 80.0009 102.445 79.5469C102.91 79.4447 103.342 79.2247 103.698 78.9078C104.055 78.5909 104.325 78.1876 104.483 77.7364C105.097 75.5671 102.769 74.4068 101.188 73.5268Z" fill="#FFF3D4"/>
<path d="M91.8355 66.8565C91.8055 66.4319 91.6432 66.0275 91.3716 65.7006C91.1 65.3737 90.7329 65.1407 90.3222 65.0348L89.4511 64.7545C88.1092 64.0157 86.6228 63.5796 85.0957 63.4765L84.6937 63.37C83.3145 63.0729 81.8515 62.8095 80.4723 63.2243C77.7139 64.166 76.6418 66.7725 77.9261 68.7904C78.2835 70.741 80.0033 72.6524 82.8008 73.4596C84.8208 74.1323 86.964 74.3486 89.077 74.093C89.5787 73.9784 90.0409 73.7314 90.4158 73.3777C90.7908 73.024 91.065 72.5762 91.2101 72.0807C91.9039 71.4192 92.3459 70.5354 92.4601 69.5817C92.5743 68.628 92.3534 67.6642 91.8355 66.8565Z" fill="#7A302F"/>
<path d="M85.1517 74.4013C84.6715 71.139 81.8907 67.4955 78.4511 67.1872C77.8116 67.1443 77.1716 67.2641 76.5905 67.5355C76.0094 67.8069 75.506 68.2212 75.1268 68.7399C74.7476 69.2586 74.505 69.8649 74.4214 70.5028C74.3377 71.1407 74.4158 71.7895 74.6484 72.389C74.7993 72.7615 74.9863 73.1183 75.2068 73.454C75.1978 73.928 75.2846 74.399 75.4622 74.8384C75.6398 75.2777 75.9043 75.6763 76.2399 76.01C77.2533 77.0171 78.5487 77.6897 79.9531 77.9382C80.2915 78.0862 80.6561 78.1644 81.0252 78.1681C81.2408 78.1609 81.4546 78.127 81.6618 78.0672C83.5938 77.9607 85.2355 76.8956 85.1517 74.4013Z" fill="#7A302F"/>
<path d="M75.6536 69.5582C73.8165 68.112 71.1865 69.0985 70.0976 70.9875C69.5593 71.9106 69.2271 72.94 69.124 74.0046C69.0208 75.0691 69.1492 76.1435 69.5001 77.1534C70.6895 79.9841 73.0235 81.5816 74.8941 81.4358C75.285 81.425 75.6677 81.3212 76.0109 81.1332C77.5632 80.2531 78.0267 78.3305 78.1551 76.6825C78.3729 74.1265 77.8313 71.1221 75.6536 69.5582Z" fill="#7A302F"/>
<path d="M78.8531 66.509C78.6363 66.0612 78.2771 65.6986 77.8323 65.4783C77.3874 65.2581 76.8822 65.1928 76.3962 65.2927C75.5649 65.2354 74.7376 65.4519 74.0399 65.9092H73.9729C73.5505 66.0275 73.175 66.2743 72.898 66.6156C72.621 66.9569 72.4562 67.3759 72.4261 67.8151C72.0822 68.3759 71.8689 69.0074 71.8022 69.6626C71.7355 70.3178 71.817 70.9796 72.0408 71.5986C72.5992 73.0504 74.2297 73.8128 75.7038 73.7679C76.298 73.733 76.8728 73.543 77.3713 73.2166C77.8698 72.8902 78.2748 72.4387 78.546 71.9069C80.305 70.6794 80.2268 68.0393 78.8531 66.509Z" fill="#7A302F"/>
<path d="M130.046 91.29C129.487 90.9312 128.812 91.0209 128.175 90.9481C127.006 90.7651 125.82 90.7218 124.641 90.8191C118.316 91.3043 112.073 92.5521 106.046 94.5355C100.699 96.487 95.4628 98.7325 90.3613 101.262C88.6862 102.08 87.0892 103.067 85.4531 103.964C84.6658 104.401 83.7389 104.816 83.5155 105.78C83.4093 106.187 83.4251 106.617 83.5609 107.015C83.6967 107.413 83.9465 107.763 84.279 108.019C84.6115 108.276 85.012 108.429 85.4304 108.458C85.8488 108.487 86.2665 108.392 86.6313 108.184C91.2749 105.473 96.0954 103.08 101.06 101.021C103.746 99.754 112.384 96.7103 117.432 96.0601C121.408 95.4323 122.558 95.1745 126.21 95.0624C127.622 95.0063 129.325 95.8359 130.476 94.6756C130.709 94.4431 130.886 94.16 130.992 93.848C131.099 93.5361 131.133 93.2037 131.091 92.8765C131.05 92.5493 130.934 92.2361 130.753 91.961C130.571 91.6859 130.33 91.4563 130.046 91.29Z" fill="#FFE100"/>
<path d="M137.327 96.8953C135.624 93.6442 131.883 91.2899 128.175 91.9402C125.785 92.5455 122.329 92.1083 118.532 92.5904C112.619 93.4032 106.845 95.0343 101.177 96.8729C98.0391 97.9154 95.0909 99.4401 92.0812 100.797L91.7461 100.954C90.9833 101.299 90.2934 101.788 89.7136 102.394C89.4568 102.686 89.2055 102.983 88.9598 103.285C88.4917 103.093 87.9703 103.077 87.4912 103.239C87.0121 103.402 86.6076 103.733 86.3521 104.171C85.7323 105.163 85.012 106.105 84.4815 107.153C83.5435 109.188 83.1246 111.402 82.6053 113.571C82.1866 115.382 81.9241 117.371 82.6947 119.12C83.7353 121.287 85.564 122.97 87.8039 123.823C92.1203 125.505 96.8889 125.118 101.334 124.227C106.527 123.162 111.435 121.021 116.198 118.745C120.937 116.491 125.473 113.83 129.755 110.791C132.123 108.924 134.921 107.428 136.579 104.804C137.852 102.439 138.483 99.3952 137.327 96.8953ZM128.812 106.194C124.301 109.556 119.476 112.471 114.405 114.9C109.687 117.142 105.884 118.93 99.8874 120.191C96.4812 121.06 90.8974 120.813 88.9989 119.748C88.1824 119.342 87.4684 118.756 86.9105 118.033C86.7905 117.87 86.684 117.698 86.5922 117.517C86.532 117.346 86.4854 117.169 86.4526 116.99C86.4191 115.359 86.4024 116.183 86.7932 114.266C87.0613 113.145 87.3014 112.024 87.6085 110.953C87.9531 110.888 88.2762 110.739 88.5491 110.518C88.8219 110.296 89.0359 110.011 89.172 109.687C90.3122 108.44 91.3822 107.13 92.3771 105.763C92.5955 105.496 92.8365 105.248 93.0974 105.023C93.6949 104.653 94.8675 104.193 96.3863 103.47C99.4367 101.939 102.632 100.716 105.924 99.8212C110.257 98.4816 116.795 96.9681 119.442 96.7215C121.821 96.43 124.227 96.7215 126.595 96.4356C129.549 96.1273 128.761 95.7798 130.945 96.3852C131.907 96.862 132.733 97.5755 133.346 98.4592C133.564 98.7614 133.684 99.1232 133.692 99.4961C133.575 102.719 132.458 103.549 128.812 106.194Z" fill="#FFE100"/>
<path d="M140.672 99.1543C140.535 97.7831 140.214 96.4368 139.717 95.1521C139.159 93.3584 138.517 91.5479 137.199 90.169C136.826 89.7258 136.296 89.445 135.722 89.3854C135.147 89.3258 134.572 89.4922 134.116 89.8495C133.932 89.9845 133.772 90.1493 133.642 90.3371L133.519 90.382C132.168 90.864 130.61 91.1331 129.197 91.5479H128.968C127.153 91.447 125.233 92.1084 125.35 94.0591L124.892 94.1207C123.73 94.3001 122.552 94.4066 121.402 94.6813C113.423 96.3068 105.477 98.5377 98.0838 102.019H98.0224C97.0761 101.791 96.0992 101.719 95.13 101.806C94.5979 101.636 94.0524 101.512 93.4995 101.436C90.5233 101.01 87.7593 102.602 85.9389 104.905C84.824 105.739 83.9603 106.866 83.4429 108.162C82.7926 108.986 82.271 109.905 81.8962 110.886C81.0586 113.577 81.7064 116.777 83.9455 118.594C84.5047 119.09 85.1475 119.483 85.844 119.754C88.0775 121.85 90.9309 122.069 93.6 121.11C93.7189 121.407 93.9049 121.672 94.1433 121.884C94.3817 122.096 94.666 122.249 94.9736 122.332C95.9675 122.613 96.8274 122.03 97.6538 121.548L97.7488 121.492C98.6813 121.693 100.044 121.228 101.501 120.505C101.678 120.867 101.952 121.173 102.292 121.388C102.633 121.602 103.026 121.718 103.428 121.721C105.013 121.576 108.38 119.58 111.061 117.971C113.227 116.744 115.405 115.533 117.577 114.311C120.711 112.529 123.861 110.783 127.025 109.076C128.521 108.19 130.219 107.501 131.671 106.508C131.931 106.628 132.216 106.686 132.503 106.677C133.547 106.621 134.424 105.909 135.356 105.477C136.746 104.743 138.148 104.065 139.538 103.28C139.645 103.238 139.748 103.188 139.845 103.128C141.258 102.254 141.23 100.533 140.672 99.1543ZM133.279 95.6229C133.105 95.4246 132.918 95.2374 132.72 95.0624C133.055 94.9895 133.396 94.9111 133.731 94.827C133.958 95.1784 134.163 95.5435 134.345 95.92C134.021 95.7302 133.654 95.6279 133.279 95.6229ZM135.356 100.713C135.331 100.274 135.266 99.8386 135.161 99.4121V99.3112C135.194 99.2384 135.239 99.1655 135.267 99.0926C135.341 98.9301 135.401 98.7613 135.445 98.5882C135.501 98.7451 135.557 98.9077 135.607 99.0702C135.78 99.4682 135.937 99.8942 136.121 100.303C135.87 100.449 135.613 100.584 135.356 100.701V100.713Z" fill="#FFE100"/>
<path d="M113.909 95.0961C113.099 94.2609 111.921 94.4795 110.876 94.5692C108.663 94.8308 106.464 95.205 104.288 95.6902C98.5194 96.5871 93.1812 99.1936 88.4684 102.613C87.4522 102.248 86.3689 102.764 85.5705 103.454C84.6764 104.087 83.967 104.948 83.5156 105.948C82.9961 106.381 82.5734 106.92 82.2752 107.528C81.9769 108.137 81.8098 108.802 81.7846 109.479C81.7232 109.855 81.6841 110.236 81.6562 110.6C81.4643 111.036 81.4288 111.526 81.5557 111.985L81.6059 112.114V112.674C81.5947 112.844 81.5947 113.015 81.6059 113.184C81.4216 114.547 82.2369 115.903 83.7166 115.903C84.1896 115.896 84.647 115.732 85.0177 115.437C85.3883 115.142 85.6514 114.733 85.7659 114.272C85.8161 114.182 85.8664 114.093 85.9055 114.003L86.0283 113.896C86.9496 112.775 87.3964 111.38 88.1446 110.152C88.3515 109.731 88.6104 109.337 88.9152 108.98C89.4736 108.493 90.0319 108.005 90.5903 107.529L90.7076 107.45C91.2447 107.382 91.7479 107.149 92.1482 106.783C92.3986 106.532 92.5813 106.222 92.679 105.88C92.7767 105.539 92.7862 105.179 92.7066 104.833C95.0484 103.272 97.5679 101.998 100.211 101.038C103.411 100.018 106.756 99.5075 110.05 98.9021C110.608 98.846 111.117 98.7788 111.653 98.7564C112.179 98.7895 112.708 98.7151 113.205 98.5378C113.523 98.4045 113.805 98.1951 114.024 97.9277C114.244 97.6604 114.395 97.3432 114.464 97.0038C114.533 96.6645 114.519 96.3132 114.422 95.9807C114.325 95.6482 114.149 95.3445 113.909 95.0961Z" fill="#FFE100"/>
<path d="M137.936 154.322C137.243 152.876 136.691 151.351 135.702 150.067C134.836 148.698 133.708 147.514 132.385 146.583C131.062 145.652 129.569 144.992 127.991 144.641C125.707 144.081 123.312 144.361 121.033 144.826C119.811 145.101 118.521 145.174 117.37 145.701C114.807 146.856 113.462 149.625 111.943 151.811C111.351 152.713 110.86 153.677 110.312 154.613C109.961 155.207 109.531 155.858 109.754 156.581C109.754 156.659 109.799 156.732 109.827 156.805L109.268 156.883C108.963 156.932 108.671 157.042 108.41 157.208C108.148 157.374 107.924 157.591 107.749 157.848C107.018 159.255 108.101 160.235 109.425 160.583H109.492C109.566 160.825 109.695 161.046 109.867 161.232C110.039 161.417 110.25 161.56 110.485 161.652C110.721 161.744 110.973 161.781 111.225 161.761C111.476 161.741 111.72 161.664 111.937 161.536L112.01 161.485C112.116 161.457 112.221 161.421 112.323 161.379C112.524 161.302 112.713 161.195 112.881 161.059C115.444 160.645 117.962 160.017 120.492 159.423C124.328 159.333 128.404 159.316 131.531 159.283C131.86 159.19 132.157 159.006 132.387 158.753C132.617 158.499 132.771 158.185 132.832 157.848C134.446 157.848 135.981 157.954 136.97 158.055C137.437 158.056 137.885 157.872 138.217 157.542C138.549 157.212 138.737 156.764 138.74 156.295C138.678 155.589 138.209 154.983 137.936 154.322Z" fill="#169FFA"/>
<path d="M98.8098 90.3763C98.8767 89.8781 98.7723 89.3719 98.5138 88.9414C98.1306 88.387 97.62 87.9335 97.0251 87.6193C96.4302 87.3051 95.7687 87.1395 95.0965 87.1365C94.6892 87.0362 94.2605 87.0697 93.8735 87.2322C93.4866 87.3946 93.1617 87.6774 92.9467 88.0389C92.8139 88.2751 92.7178 88.5303 92.6619 88.7957C92.5904 88.9374 92.5324 89.0857 92.4888 89.2385C91.7685 90.2811 92.4107 91.7665 93.9351 92.2541C94.1863 92.3326 94.4488 92.3943 94.7112 92.4503C95.0454 92.6208 95.4061 92.7326 95.7777 92.781C97.196 92.9996 98.8879 93.0389 98.9047 91.1555C98.9225 90.8921 98.8903 90.6277 98.8098 90.3763Z" fill="#FFB8E5"/>
<path d="M127.304 119.199C125.277 116.817 122.206 115.724 119.375 114.625C117.234 113.89 114.891 114.025 112.848 115C109.955 116.598 107.66 119.148 105.784 121.839C105.004 122.85 104.402 123.988 104.003 125.202C103.05 126.772 102.476 128.544 102.328 130.376C101.669 135.746 104.109 140.129 109.352 141.766C112.049 142.59 114.936 142.063 117.577 141.172C120.757 140.191 123.549 138.23 125.556 135.566C129.108 131.116 131.581 123.924 127.304 119.199Z" fill="#F7C672"/>
<path d="M116.371 146.133C115.46 144.998 114.405 143.988 113.233 143.128C112.451 142.428 111.457 142.102 110.564 141.592C108.965 140.92 107.213 140.703 105.499 140.965C104.889 140.946 104.28 141.016 103.69 141.172C103.278 141.173 102.872 141.273 102.506 141.463C102.069 141.628 101.676 141.891 101.356 142.231C100.435 142.842 99.6025 143.578 98.8823 144.417C98.2008 145.13 97.5578 145.878 96.9559 146.66C96.2245 146.906 95.5727 147.346 95.0685 147.932C93.3599 148.532 92.2766 150.735 93.1309 152.416C93.6447 153.829 95.1802 154.462 96.3361 155.297C96.4757 155.415 96.6153 155.533 96.7604 155.645C97.263 156.015 97.7432 156.424 98.2178 156.839C99.3093 158.01 100.324 159.252 101.255 160.555C101.998 161.57 102.551 162.797 103.634 163.47C104.336 163.879 105.16 164.025 105.96 163.883C106.759 163.74 107.482 163.318 108.001 162.691L108.096 162.601C108.531 162.27 109.62 161.43 109.977 161.138C110.742 160.533 111.464 159.876 112.138 159.171C112.586 159.061 113.002 158.846 113.35 158.543C114.093 158.089 114.389 157.27 114.679 156.486C115.792 154.733 116.523 152.763 116.823 150.707C117.091 149.165 117.236 147.523 116.371 146.133Z" fill="#72CDF7"/>
<path d="M118.437 140.628C116.616 139.285 114.375 138.643 112.122 138.818C111.692 138.857 110.581 139.019 110.028 139.109C105.427 139.434 101.557 142.22 98.5138 145.55C95.4818 148.79 100.021 153.335 103.249 150.309C105.935 147.708 105.482 147.803 108.219 146.351C108.682 146.189 109.157 146.054 109.637 145.936L110.022 145.864C112.256 145.6 111.608 145.488 113.194 145.522C113.278 145.522 113.367 145.522 113.451 145.572L113.791 145.673C114.098 145.823 114.395 145.994 114.679 146.183C114.763 146.262 114.847 146.329 114.925 146.407L115.182 146.688C115.498 147.113 115.775 147.567 116.008 148.044L116.042 148.111C115.896 148.369 115.74 148.616 115.578 148.857C113.601 151.166 113.177 150.953 109.732 152.954C109.073 153.313 108.425 153.7 107.766 154.075H107.292C102.741 154.227 102.947 160.908 107.498 160.802C109.642 160.88 111.457 159.754 113.244 158.705C115.031 157.657 117.03 156.743 118.638 155.342C120.408 153.75 122.128 151.788 122.675 149.412C123.328 146.105 120.95 142.512 118.437 140.628Z" fill="#72CDF7"/>
<path d="M125.132 113.863L124.931 113.717C123.982 112.305 122.74 111.116 121.29 110.231C118.286 108.583 114.338 107.747 111.178 109.395C107.269 111.71 106.086 116.94 108.107 120.92C109.374 123.723 112.016 125.634 114.662 126.996C115.571 127.515 116.627 127.713 117.661 127.557C118.34 127.68 119.027 127.764 119.716 127.809C123.624 128.313 127.779 126.755 129.074 122.764C130.297 119.065 128.175 115.836 125.132 113.863Z" fill="#F5371D"/>
<path d="M125.813 143.504C125.776 142.784 125.795 142.063 125.869 141.346C126.332 138.802 127.081 136.32 128.103 133.947C128.309 133.453 128.521 132.96 128.739 132.472C129.432 131.026 130.146 129.591 130.839 128.145C131.138 127.627 131.333 127.055 131.41 126.461C131.488 125.868 131.447 125.265 131.291 124.687C130.314 120.925 125.043 120.23 123.127 123.616C120.218 129.586 117.114 135.768 116.868 142.534C116.695 146.8 119.146 151.951 123.758 152.517C125.143 152.674 126.696 153.05 127.985 152.371C131.386 151.155 131.615 146.133 128.544 144.401C127.74 143.955 126.831 143.737 125.914 143.767C125.852 143.678 125.836 143.593 125.813 143.504Z" fill="#F5371D"/>
<path d="M134.574 143.778C133.87 143.094 132.974 142.642 132.006 142.484C131.883 142.36 131.76 142.237 131.643 142.102C131.526 141.968 131.47 141.8 131.392 141.643C131.319 141.441 131.259 141.235 131.213 141.026C131.213 140.892 131.213 140.763 131.213 140.634C131.314 137.428 131.665 136.839 132.944 131.923C134.061 128.123 133.642 129.165 134.826 126.912C137.618 121.693 130.286 117.383 127.109 122.388C125.646 124.9 124.808 127.702 124.071 130.499C122.999 134.546 121.804 138.795 122.53 143.005C123.418 147.338 127.315 151.805 132.023 151.351C135.619 151.076 137.143 146.245 134.574 143.778Z" fill="#F5371D"/>
<path d="M137.584 122.506C137.239 121.23 136.806 119.979 136.289 118.762C135.87 117.859 135.283 117.047 134.853 116.155C134.172 114.922 133.737 113.583 133.05 112.349C131.874 110.414 130.082 108.935 127.963 108.151C125.674 107.074 123.189 106.482 120.662 106.412C118.135 106.343 115.621 106.797 113.277 107.747C111.558 108.543 109.408 108.902 108.431 110.718C106.415 114.121 109.67 118.375 113.456 117.304C117.75 115.561 118.387 115.264 121.011 115.343C121.67 115.477 122.329 115.656 122.982 115.83C123.306 115.942 123.636 116.043 123.959 116.15C124.401 116.363 124.847 116.565 125.266 116.811C125.93 117.932 126.338 119.221 126.941 120.382C127.338 121.206 127.835 121.974 128.265 122.775L128.415 123.28C128.527 123.65 128.683 124.003 128.801 124.367C128.801 124.367 128.801 124.418 128.801 124.44C128.477 125.001 128.125 125.561 127.756 126.082L127.527 126.335C124.317 129.574 127.472 134.995 131.872 133.829C134.105 133.19 135.256 130.903 136.45 129.081C137.628 127.107 138.032 124.763 137.584 122.506Z" fill="#F5371D"/>
<path d="M140.181 136.749C139.452 136.38 138.651 136.175 137.835 136.149C137.835 135.948 137.835 135.751 137.875 135.555C137.964 134.995 138.059 134.485 138.17 133.952C138.388 132.271 139.287 130.651 139.008 128.969C138.45 124.165 131.609 123.728 130.314 128.375C129.599 131.379 128.723 134.473 128.951 137.59C129.033 138.697 129.287 139.785 129.705 140.813C128.711 141.25 127.734 141.721 126.785 142.248C125.696 142.327 124.669 142.789 123.887 143.554C121.095 146.278 123.144 151.267 127.047 151.211C129.515 151.211 131.576 149.804 133.748 148.756L133.849 148.711C135.306 148.184 136.713 147.523 138.165 146.973C140.03 146.519 141.912 145.101 142.018 143.05C142.066 142.8 142.086 142.547 142.079 142.293C142.478 141.294 142.506 140.184 142.157 139.166C141.809 138.149 141.107 137.291 140.181 136.749Z" fill="#F5371D"/>
<path d="M102.903 152.926C102.637 152.364 102.283 151.849 101.853 151.402C99.8595 149.339 96.5092 149.311 94.2868 151.015C93.5497 151.407 92.7903 151.743 92.0533 152.136C90.3986 149.935 88.4329 147.988 86.2181 146.357C85.5231 145.677 84.7763 145.053 83.9846 144.49L83.8785 144.423C82.8664 143.229 81.634 142.243 80.249 141.519C80.0535 141.424 79.8469 141.334 79.6403 141.256C79.4951 141.2 79.3612 141.144 79.216 141.099C78.2689 140.817 77.263 140.799 76.3067 141.048C75.3503 141.297 74.4797 141.803 73.7884 142.511C72.7988 143.527 72.2259 144.878 72.1835 146.298C72.141 147.718 72.6323 149.101 73.5595 150.174C73.66 150.37 73.7494 150.566 73.8499 150.735C74.4826 151.882 75.2013 152.981 75.9997 154.019C76.6195 155.062 77.2114 156.116 77.8367 157.153C78.585 158.307 78.9535 159.675 79.7855 160.768C80.7292 162.242 81.5053 163.823 82.5774 165.213C83.0728 165.935 83.6137 166.624 84.1968 167.276C84.314 167.427 84.4424 167.573 84.5709 167.713C84.7043 167.898 84.8518 168.072 85.012 168.234C85.7942 169.015 86.7735 169.568 87.8447 169.833C88.916 170.097 90.0389 170.064 91.0928 169.737C93.0527 169.12 94.6051 167.747 96.0736 166.373C96.4701 166.093 96.8665 165.813 97.2518 165.516C98.0782 164.955 98.927 164.355 99.6864 163.728C99.9712 163.548 100.245 163.386 100.557 163.218L101.233 162.954C102.251 162.666 103.167 162.093 103.873 161.303C104.58 160.512 105.048 159.537 105.223 158.489C105.399 157.442 105.274 156.367 104.865 155.388C104.455 154.409 103.776 153.567 102.908 152.96L102.903 152.926Z" fill="#F7C672"/>
<path d="M82.4658 139.939C81.1368 135.841 76.586 132.882 72.3199 133.941C68.9361 134.855 66.1218 138.605 67.8528 142.063C67.8936 142.179 67.9402 142.293 67.9924 142.405C67.0934 144.883 67.3335 147.663 69.2879 149.759C72.7331 153.246 78.6185 152.113 81.1312 148.078C82.4658 145.673 83.3536 142.618 82.4658 139.939Z" fill="#F7C672"/>
<path d="M76.8206 134.524C76.5241 133.731 76.085 133 75.5251 132.366C75.4287 131.753 75.1322 131.189 74.682 130.763L73.5038 129.793C72.9454 129.115 72.387 128.465 71.7616 127.826C71.0094 126.849 70.0136 126.089 68.8747 125.623C68.2468 125.162 67.4687 124.957 66.6963 125.048C65.9239 125.139 65.2144 125.52 64.7101 126.114C64.2057 126.709 63.9438 127.472 63.9767 128.252C64.0097 129.032 64.3352 129.771 64.8879 130.32C65.1114 130.549 65.372 130.739 65.6584 130.881L65.8874 131.026C66.0553 131.443 66.3216 131.812 66.6635 132.103C67.0656 132.484 67.4564 132.876 67.8194 133.291C68.4927 134.07 69.2205 134.801 69.9971 135.477C70.2149 135.824 70.4829 136.245 70.8458 136.789C72.8393 140.146 77.7866 138.442 76.8206 134.524Z" fill="#F7C672"/>
<path d="M69.4497 142.147C65.3902 142.271 65.4014 148.179 69.4497 148.313C73.5092 148.19 73.498 142.282 69.4497 142.147Z" fill="#F7C672"/>
<path d="M76.653 147.321C76.2979 146.954 75.8538 146.686 75.3643 146.543C74.8747 146.401 74.3567 146.389 73.8611 146.508C73.8583 146.484 73.8583 146.459 73.8611 146.435C74.0454 145.589 74.4865 144.754 74.2799 143.896C73.9337 140.606 69.1595 140.309 68.3052 143.487C67.261 146.794 67.0767 152.018 70.9799 153.414C72.2507 153.724 73.5914 153.533 74.7266 152.881C75.5574 152.567 76.2952 152.047 76.8708 151.368C77.337 150.785 77.5726 150.049 77.5324 149.303C77.4923 148.556 77.1791 147.85 76.653 147.321Z" fill="#F7C672"/>
<path d="M73.7604 137.366C73.2779 137.225 72.7686 137.203 72.2758 137.302C71.783 137.4 71.3213 137.617 70.9298 137.934C70.5384 138.25 70.2289 138.657 70.0276 139.119C69.8263 139.581 69.7391 140.085 69.7736 140.589C69.6485 140.682 69.5309 140.785 69.4218 140.897C67.1268 143.515 64.7648 148.122 67.3892 151.228C70.3208 154.484 75.9772 153.083 77.9986 149.479C80.7682 145.819 78.1549 138.487 73.7604 137.366Z" fill="#F7C672"/>
<path d="M69.1149 138.442C68.0786 139.234 67.2601 140.278 66.7362 141.475C66.3677 142.377 65.8372 143.358 66.0606 144.356C66.189 146.486 68.8525 147.719 70.6282 146.598C71.5718 146.037 71.9459 145.112 72.2475 144.132L72.3815 143.879C72.4541 143.756 72.5378 143.638 72.6216 143.515C73.18 143.01 73.8779 142.568 74.0957 141.8C75.4693 138.762 71.449 136.082 69.1149 138.442Z" fill="#F7C672"/>
<path d="M70.6727 138.459C66.6188 138.582 66.63 144.49 70.6727 144.625C74.7321 144.502 74.721 138.594 70.6727 138.459Z" fill="#F7C672"/>
<path d="M70.1478 126.547C69.9357 126.402 69.7179 126.273 69.4945 126.15L69.0143 125.813C68.8154 125.569 68.5606 125.377 68.2717 125.253C68.0865 125.16 67.8841 125.107 67.6773 125.097C67.4706 125.088 67.2641 125.121 67.0712 125.197C66.7846 125.188 66.5013 125.259 66.2528 125.403C66.0043 125.546 65.8005 125.756 65.664 126.009C64.7371 127.568 66.5574 129.227 68.0595 129.317H68.227L68.3945 129.406C68.6937 129.613 69.0474 129.727 69.4108 129.731C69.7854 129.728 70.1481 129.598 70.4408 129.364C70.7335 129.129 70.9394 128.803 71.0256 128.437C71.1118 128.071 71.0732 127.686 70.9161 127.345C70.759 127.003 70.4925 126.725 70.159 126.553L70.1478 126.547Z" fill="#E3F8FF"/>
<path d="M108.269 132.551C108.058 131.925 107.619 131.403 107.039 131.091C106.459 130.779 105.783 130.699 105.147 130.869C104.523 131.112 103.986 131.538 103.605 132.09C103.224 132.643 103.016 133.297 103.009 133.969C103.009 134.104 103.009 134.244 103.009 134.378C102.949 134.654 102.955 134.94 103.027 135.213C103.099 135.486 103.234 135.738 103.422 135.948C104.059 137.349 105.348 138.364 106.99 137.573C107.355 137.438 107.674 137.2 107.909 136.888C108.144 136.576 108.284 136.203 108.313 135.813C108.452 135.693 108.573 135.553 108.671 135.398C108.947 134.952 109.058 134.422 108.985 133.901C108.911 133.381 108.658 132.903 108.269 132.551Z" fill="#FF9E7A"/>
</g>
<defs>
<clipPath id="clip0_4066_2247">
<rect width="114" height="107" fill="white" transform="translate(64 63)"/>
</clipPath>
</defs>
</svg>
