<svg width="233" height="233" viewBox="0 0 233 233" fill="none" xmlns="http://www.w3.org/2000/svg">
<mask id="mask0_4066_2809" style="mask-type:alpha" maskUnits="userSpaceOnUse" x="0" y="0" width="233" height="233">
<rect width="233" height="233" fill="#C4C4C4"/>
</mask>
<g mask="url(#mask0_4066_2809)">
<path fill-rule="evenodd" clip-rule="evenodd" d="M214.925 122.448C214.142 140.579 206.396 157.685 195.311 172.03C184.829 185.596 170.016 194.566 154.176 201.062C138.823 207.359 122.544 210.012 106.013 208.653C88.6848 207.228 71.388 203.346 57.3225 193.098C42.5374 182.327 27.91 167.99 25.3013 149.852C22.7466 132.09 37.0843 117.101 44.0121 100.554C50.057 86.1153 52.689 70.2275 63.4062 58.8383C74.7727 46.7592 89.6893 38.6561 105.816 34.8745C122.91 30.8664 140.932 30.6467 157.378 36.8034C174.514 43.2184 189.496 54.8164 199.717 70.0273C210.067 85.4312 215.726 103.891 214.925 122.448Z" fill="#018EFF"/>
<g clip-path="url(#clip0_4066_2809)">
<path d="M92.3853 98.7713C94.3586 98.7713 94.3586 95.7183 92.3853 95.7183C90.4119 95.7183 90.4119 98.7713 92.3853 98.7713Z" fill="#24211D"/>
<path d="M99.8676 107.326C101.295 109.622 103.116 111.557 105.401 113.023C105.775 113.261 106.284 113.652 106.713 113.774C107.234 114.348 107.479 114.293 107.448 113.609C107.687 113.053 107.657 112.925 107.356 113.236C107.197 113.194 105.843 114.03 105.567 114.134C104.684 114.464 103.765 114.684 102.846 114.891C104.102 116.143 105.359 117.395 106.615 118.646C107.393 115.312 106.891 112.125 105.794 108.919C104.972 106.526 103.937 103.803 100.885 104.053C93.5677 104.657 98.4458 115.923 99.408 119.739C100.37 123.55 106.284 121.931 105.316 118.115C104.942 116.625 104.562 115.135 104.188 113.646C103.986 112.84 103.661 109.628 103.06 109.176C101.896 109.335 100.732 109.5 99.5673 109.658C99.6715 109.951 99.7818 110.244 99.886 110.538C99.935 111.105 100.303 111.771 100.456 112.327C100.897 113.92 101.087 115.404 100.707 117.022C100.162 119.349 102.16 121.296 104.476 120.777C108.227 119.941 113.901 117.981 113.448 113.181C113.252 111.136 111.787 109.725 110.126 108.694C108.092 107.43 106.462 106.324 105.162 104.248C103.085 100.908 97.7778 103.974 99.8676 107.326Z" fill="#FF97B0"/>
<path d="M102.914 119.953C102.932 121.773 102.951 123.592 102.963 125.406C102.969 125.772 102.969 126.132 102.975 126.499C102.62 127.409 102.767 127.757 103.423 127.549C104.054 127.5 104.005 127.488 103.275 127.512C102.693 127.525 102.111 127.525 101.523 127.5C99.6536 127.445 97.7967 127.262 95.9582 126.938C95.2044 126.804 93.752 126.786 93.1085 126.322C92.2138 125.681 92.5631 126.346 92.3302 125.137C91.65 121.663 92.3241 117.334 92.3854 113.798C92.4283 111.472 92.2077 111.319 94.5548 110.666C96.2279 110.202 97.9009 110.208 99.6168 110.391C99.102 108.492 98.5873 106.599 98.0725 104.7C95.566 106.245 93.2679 108.046 91.1781 110.122C88.8738 112.412 91.2884 115.74 94.1565 115.227C97.6251 114.604 101.094 114.274 104.611 114.177C104.097 112.278 103.582 110.385 103.067 108.486C100.91 110 98.6608 111.252 96.234 112.272C93.654 113.359 94.6958 117.163 96.9633 117.853C97.3126 117.956 97.6619 118.066 98.0051 118.17C97.5516 116.467 97.1042 114.769 96.6507 113.065C94.9532 114.415 93.6723 116.027 92.7163 117.975C94.6222 118.488 96.522 119.001 98.4279 119.513C98.1399 117.205 97.4474 115.49 95.9092 113.719C94.42 111.997 91.2762 112.919 90.7859 115.068C89.8728 119.086 89.9157 123.012 90.9697 126.993C91.7603 129.991 95.995 129.802 96.8775 126.993C97.8335 123.959 98.2808 120.863 98.2379 117.688C98.2012 114.787 93.9604 113.365 92.5263 116.149C89.1496 122.731 96.0379 128.642 102.473 126.047C101.216 125.339 99.96 124.624 98.7037 123.916C98.8079 123.513 98.9182 123.11 99.0224 122.713C100.524 123.324 102.025 123.928 103.521 124.539C103.361 123.714 103.275 122.884 103.263 122.047C103.067 118.579 98.3789 117.938 97.2452 121.235C96.6446 122.994 96.3627 124.752 96.3137 126.609C96.2095 130.626 102.007 130.413 102.442 126.609C102.748 123.898 102.099 121.339 100.64 119.043C99.3533 117.004 96.6691 117.156 95.3515 119.043C92.9002 122.554 95.9643 125.021 97.4045 127.989C99.1204 131.524 104.403 128.434 102.693 124.905C102.607 124.722 100.744 121.974 100.64 122.121C98.8753 122.121 97.1103 122.121 95.3515 122.121C96.2953 123.611 96.5098 124.887 96.3137 126.609C98.3544 126.609 100.401 126.609 102.442 126.609C102.479 125.278 102.724 124.117 103.153 122.86C101.149 122.591 99.1388 122.316 97.1348 122.047C97.2145 123.434 97.3861 124.789 97.6129 126.163C97.9438 128.16 100.548 128.88 102.111 127.989C104.348 126.712 104.979 124.728 104.605 122.298C104.379 120.79 102.24 119.599 100.836 120.167C100.224 120.417 96.8407 121.132 97.8151 119.239C95.9092 118.726 94.0094 118.213 92.1035 117.7C92.1403 120.387 91.7726 122.823 90.9636 125.381C92.9308 125.381 94.9041 125.381 96.8713 125.381C96.0992 122.457 96.0195 119.648 96.6875 116.699C94.9777 117.15 93.274 117.596 91.5642 118.048C91.9687 118.457 92.2077 118.952 92.2873 119.526C92.6183 122.182 96.4975 124.111 97.9989 121.064C98.7527 119.538 99.6536 118.445 100.977 117.395C102.871 115.886 101.627 112.901 99.623 112.29C99.2736 112.186 98.9243 112.076 98.5811 111.972C98.8263 113.835 99.0714 115.691 99.3104 117.553C101.737 116.528 103.992 115.282 106.144 113.768C108.472 112.131 107.859 107.991 104.599 108.077C100.536 108.187 96.5159 108.62 92.5141 109.341C93.5069 111.044 94.4997 112.742 95.4925 114.445C97.2329 112.717 99.0591 111.27 101.143 109.982C103.901 108.284 102.516 104.609 99.5984 104.291C95.1248 103.809 87.3724 104.859 86.3919 110.251C85.8097 113.456 86.1774 117.126 86.1712 120.368C86.1651 123.22 85.5155 127.018 87.1824 129.527C88.6226 131.695 91.3374 132.251 93.7397 132.727C96.9939 133.368 100.518 133.826 103.839 133.612C110.948 133.154 109.067 125.015 109.018 119.953C109.005 116.027 102.877 116.015 102.914 119.953Z" fill="#FF97B0"/>
<path d="M99.543 131.103C99.1446 132.629 98.9363 134.632 98.2009 136.043C98.8137 135.572 99.4204 135.108 100.033 134.638C99.4449 134.815 97.9557 134.198 97.2448 134.064C95.8843 133.808 94.5239 133.557 93.1695 133.301C90.6446 132.831 88.1197 132.354 85.5949 131.884C86.3425 132.867 87.0963 133.844 87.844 134.827C87.8501 134.559 87.7582 133.679 87.9665 133.472C87.2863 134.15 88.5855 134.394 89.088 134.644C90.473 135.346 91.8458 136.085 93.2553 136.745C95.5289 137.813 98.0415 138.448 100.235 136.867C103.398 134.583 100.346 129.283 97.1406 131.597C96.442 132.098 92.3973 129.479 91.7171 129.143C89.9705 128.276 88.2607 127.335 86.2322 127.72C82.7881 128.373 81.7892 131.768 81.7156 134.827C81.685 136.073 82.6778 137.532 83.9647 137.771C89.0696 138.729 94.3461 140.195 99.5184 140.659C104.194 141.08 104.538 136.232 105.451 132.721C106.437 128.923 100.53 127.299 99.543 131.103Z" fill="#FF97B0"/>
<path d="M121.268 156.901C122.365 157.316 123.542 157.878 124.675 158.183C125.699 158.867 126.036 158.922 125.68 158.336C125.497 157.829 125.441 157.981 125.509 158.8C124.97 160.68 124.878 162.683 124.302 164.582C123.719 166.487 122.959 168.307 122.016 170.059C121.256 171.464 119.92 172.905 119.718 174.541C119.233 178.504 123.229 179.084 126.208 178.712C129.431 178.309 132.44 176.892 134.861 174.736C139.659 170.468 142.68 161.505 138.979 155.68C135.449 150.123 125.76 147.534 119.761 149.549C116.745 150.563 116.978 154.342 119.761 155.435C121.403 156.083 123.021 156.772 124.62 157.524C125.319 157.853 126.557 158.171 127.102 158.739C127.85 159.508 127.617 158.8 127.654 159.807C127.703 161.169 126.594 163.19 126.189 164.472C125.631 166.243 125.074 168.008 124.51 169.778C123.989 171.421 125.129 173.021 126.649 173.534C129.75 174.584 132.575 171.567 134.462 169.461C136.319 167.385 139.169 164.509 139.322 161.584C139.463 158.849 137.171 156.406 134.346 156.87C131.043 157.414 130.461 161.358 130.001 164.075C129.437 167.415 133.623 169.461 135.602 166.426C136.301 165.351 136.773 164.277 137.153 163.062C138.329 159.3 132.416 157.695 131.245 161.438C131.08 162.146 130.767 162.781 130.307 163.349C132.177 164.13 134.04 164.918 135.909 165.7C136.044 164.887 136.197 164.081 136.399 163.282C136.472 162.958 136.564 162.647 136.662 162.329C136.987 161.499 136.754 161.645 135.976 162.763C135.192 162.659 134.401 162.555 133.617 162.457C132.63 161.999 133.696 160.534 132.373 162.341C131.858 163.043 131.325 163.746 130.767 164.411C130.375 164.881 127.727 167.464 128.285 167.647C128.996 168.899 129.713 170.151 130.424 171.403C131.319 168.575 132.226 165.748 133.108 162.915C133.715 160.961 134.389 158.903 133.586 156.889C131.913 152.694 125.19 151.051 121.391 149.549C121.391 151.509 121.391 153.475 121.391 155.435C124.326 154.446 127.2 155.197 129.976 156.388C132.936 157.664 134.628 159.142 134.352 162.622C134.131 165.406 132.93 168.191 130.865 170.108C129.204 171.647 126.054 173.393 123.695 172.636C124.406 173.344 125.123 174.059 125.834 174.767C125.785 174.559 125.742 174.346 125.693 174.138C125.589 174.92 125.484 175.707 125.386 176.489C126.575 173.992 128.132 171.732 129.18 169.137C130.283 166.396 131.024 163.569 131.429 160.644C131.723 158.501 131.938 156.302 130.442 154.538C128.769 152.559 125.227 151.888 122.917 151.014C119.203 149.622 117.609 155.521 121.268 156.901Z" fill="#FF97B0"/>
<path d="M119.479 151.802C119.16 151.912 119.172 151.912 119.509 151.802C119.865 151.723 119.865 151.723 119.509 151.796C119.871 151.814 119.877 151.802 119.515 151.753C119.65 151.778 119.785 151.808 119.92 151.851C120.128 151.918 120.098 151.9 119.828 151.796C119.993 151.875 120.153 151.973 120.3 152.077C120.042 151.882 120.036 151.9 120.294 152.138C120.098 151.875 120.098 151.894 120.287 152.193C120.784 153.048 121.893 153.811 122.935 153.707C125.582 153.432 127.378 151.161 126.636 148.493C125.95 146.014 123.413 145.165 121.084 145.244C119.43 145.299 118.02 146.606 118.02 148.297C118.02 149.909 119.423 151.405 121.084 151.35C121.293 151.338 121.501 151.338 121.709 151.338C122.095 151.356 122.126 151.356 121.813 151.344C121.103 151.051 120.723 150.483 120.667 149.635C120.729 148.951 121.035 148.407 121.593 147.998C122.108 147.858 122.622 147.717 123.137 147.583C123.07 147.589 122.996 147.595 122.929 147.607C123.811 148.114 124.694 148.615 125.576 149.122C123.701 145.892 119.65 144.896 116.378 146.539C114.901 147.278 114.478 149.354 115.281 150.715C116.163 152.205 117.995 152.547 119.479 151.802Z" fill="#FFA6B0"/>
<path d="M126.71 151.35C126.777 151.564 126.845 151.778 126.9 151.998C126.937 152.144 126.967 152.291 126.992 152.437C126.943 152.034 126.931 151.949 126.955 152.181C126.967 152.675 126.986 153.14 126.931 153.634C126.851 154.361 127.329 155.295 127.825 155.796C128.359 156.327 129.229 156.724 129.995 156.687C131.803 156.608 132.875 155.344 133.059 153.634C133.2 152.334 133.034 150.966 132.624 149.726C132.121 148.212 130.485 147.07 128.855 147.595C127.335 148.084 126.171 149.726 126.71 151.35Z" fill="#FFB4B0"/>
<path d="M132.477 153.982C132.354 153.707 132.648 154.483 132.648 154.465C132.746 154.758 132.826 155.051 132.9 155.35C133.071 156.046 133.065 156.138 133.102 156.736C133.188 158.171 134.309 159.551 135.86 159.484C137.281 159.423 138.709 158.275 138.617 156.736C138.501 154.764 138.035 153.011 137.238 151.21C136.656 149.891 134.616 149.482 133.463 150.227C132.091 151.106 131.852 152.566 132.477 153.982Z" fill="#FFB4B0"/>
<path d="M137.931 156.516C137.999 156.693 138.066 156.864 138.115 157.047C138.152 157.169 138.176 157.291 138.207 157.414C138.244 157.615 138.25 157.658 138.231 157.542C138.219 157.408 138.238 157.878 138.238 157.957C138.238 158.03 138.17 158.623 138.219 158.311C138.06 159.252 138.47 160.332 139.506 160.564C140.395 160.766 141.596 160.296 141.767 159.282C141.982 158.018 141.957 156.748 141.479 155.545C141.13 154.654 140.235 153.939 139.218 154.263C138.348 154.538 137.551 155.557 137.931 156.516Z" fill="#FFB4B0"/>
<path d="M97.5394 93.9413C97.3188 94.4481 97.0614 94.9304 96.7611 95.3884C97.0982 95.1747 97.4352 94.9671 97.7784 94.7656C98.5445 95.2113 99.3105 95.6571 100.077 96.1028C97.6129 94.0451 95.1187 92.8055 91.9933 94.5274C89.6339 95.8219 88.1753 98.2155 87.397 100.695C86.5636 103.351 88.3837 106.379 91.0372 107.081C95.0819 108.15 99.3411 107.869 102.27 104.584C105.077 101.439 104.985 95.8952 101.075 93.6115C97.3065 91.4195 92.4039 94.2954 88.9597 95.9502C85.7546 97.4889 82.9172 99.9679 82.194 103.577C85.5401 103.577 88.8923 103.577 92.2384 103.577C91.5398 98.9116 85.5891 96.921 81.7344 99.0826C78.0084 101.177 76.6418 106.227 74.3436 109.573C72.0762 112.87 75.0913 117.419 78.8418 117.382C85.3992 117.321 87.2254 111.356 86.202 105.879C85.5891 102.612 81.2196 101.11 78.5477 102.777C71.2856 107.307 73.8595 116.619 76.4763 123.122C78.1739 127.335 83.3094 128.227 85.9997 124.362C87.777 121.809 87.9853 118.787 87.9363 115.764C87.8811 112.345 87.7831 108.919 87.7218 105.5C87.7034 104.34 87.4889 103.516 87.8934 103.076C88.6472 102.258 90.3447 101.733 91.3682 101.354C92.8328 100.811 94.3956 100.401 95.9399 100.194C96.5344 100.114 97.1594 100.041 97.76 100.066C98.6119 100.108 96.8101 99.3573 98.0419 100.273C97.4168 99.6504 96.7979 99.0337 96.1728 98.4109C96.1667 98.3681 96.1544 98.3254 96.1483 98.2827C97.7171 104.773 107.768 102.026 106.193 95.5227C103.809 85.6676 88.7636 90.3875 83.0152 93.8863C78.5048 96.6279 77.2117 100.426 77.2975 105.5C77.3404 107.918 77.3956 110.33 77.4507 112.748C77.4875 114.604 78.0819 117.572 77.0033 119.123C80.1778 119.538 83.3523 119.947 86.5268 120.362C85.7485 118.433 84.9334 116.491 84.4677 114.458C84.2654 113.572 84.3635 112.607 84.1612 111.753C84.0632 111.325 84.3941 111.374 83.8058 111.74C81.2564 110.708 78.707 109.67 76.1515 108.639C76.4334 108.327 76.7153 108.016 76.9972 107.698C77.8736 107.46 78.7499 107.228 79.6263 106.99C79.3628 106.99 79.0992 106.996 78.8357 106.996C80.3372 109.597 81.8325 112.204 83.3339 114.806C84.2532 113.468 85.1111 112.107 85.871 110.672C86.1713 110.098 86.5513 109.487 86.7658 108.877C86.8761 108.639 86.9925 108.406 87.1212 108.174C87.8689 106.978 86.8822 107.045 84.1551 108.37C83.53 107.747 82.9111 107.13 82.286 106.508C82.2553 106.446 82.2186 106.391 82.1879 106.33C82.9478 111.405 91.264 111.16 92.2323 106.33C92.5387 104.816 97.5946 103.412 98.9428 102.972C98.0174 102.972 97.0982 102.972 96.1728 102.972C96.4669 103.015 96.7611 103.051 97.0553 103.094C96.2892 102.648 95.5232 102.203 94.7571 101.757C94.9165 101.94 95.0758 102.117 95.229 102.3C94.7817 101.537 94.3343 100.774 93.8869 100.011C93.9359 100.255 93.9911 100.499 94.0401 100.743C94.0401 99.8214 94.0401 98.9055 94.0401 97.9835C94.224 96.7989 96.326 97.7331 93.795 97.0615C95.0084 99.1925 96.2218 101.317 97.4352 103.448C97.6129 102.966 97.3678 103.1 96.7059 103.845C95.0145 103.4 93.3292 102.954 91.6378 102.508C96.7979 107.204 103.576 105.274 106.536 99.1741C109.441 93.1902 100.463 87.9207 97.5394 93.9413Z" fill="#202C79"/>
<path d="M76.703 118.231C76.0411 121.944 75.9982 127.598 79.8774 129.656C82.7087 131.158 86.1161 130.107 87.8075 127.451C89.2232 125.229 88.8187 122.371 87.4214 120.258C85.9261 117.993 82.7455 116.821 80.2942 118.396C78.0267 119.849 76.8194 123.073 78.425 125.497C78.5231 125.632 78.615 125.778 78.6947 125.925C79.9142 128.129 81.1889 126.151 82.5126 119.978C83.389 120.216 84.2653 120.448 85.1417 120.686C85.3623 120.838 85.5829 120.991 85.8035 121.144C86.2509 121.907 86.6983 122.67 87.1456 123.434C87.0108 123.085 86.9312 122.75 86.827 122.396C86.4899 121.241 86.8208 123.47 86.7841 122.267C86.7718 121.889 86.7841 121.498 86.7657 121.119C86.7105 120.051 86.5573 122.121 86.7596 120.985C87.2314 118.323 86.0364 115.264 83.1193 114.598C80.5699 114.03 77.2116 115.374 76.703 118.231Z" fill="#202C79"/>
<path d="M88.6223 115.587C88.7203 117.028 86.7041 117.608 85.6807 116.986C85.2517 116.729 84.982 116.375 84.8595 115.923C84.9882 114.83 84.9698 114.549 84.8104 115.062C86.7776 115.606 88.751 116.143 90.7182 116.686C91.3371 113.939 89.6702 111.27 86.9492 110.513C84.265 109.768 81.4705 111.521 80.778 114.171C80.1407 116.589 81.0599 119.202 83.2661 120.484C85.6684 121.883 88.4752 121.309 90.5404 119.636C91.7906 118.622 91.6742 116.357 90.5404 115.319C89.2106 114.104 87.5376 114.238 86.2077 115.319C86.5141 115.093 86.5754 115.038 86.3854 115.16C86.1832 115.27 86.2629 115.245 86.6244 115.087C86.5203 115.123 86.4161 115.16 86.3119 115.184C86.079 115.239 86.1709 115.233 86.5877 115.166C86.5999 115.154 85.7726 115.325 86.3425 115.203C86.8451 115.099 86.1832 115.294 86.1158 115.123C86.5141 115.306 86.5632 115.313 86.269 115.154C86.3609 115.227 86.4528 115.3 86.5509 115.374C86.0545 114.952 86.8205 115.88 86.5509 115.374C86.6796 115.612 86.7593 115.935 86.6428 115.484C86.5938 115.245 86.6122 115.361 86.6918 115.825C86.7041 115.563 86.6918 115.569 86.6551 115.85C86.3854 116.375 86.8022 115.777 86.7102 115.697C86.5203 116.1 86.4774 116.204 86.5877 115.996C86.6306 115.911 86.6796 115.838 86.7347 115.758C86.8144 115.972 85.7787 116.497 86.318 116.241C86.1648 116.314 85.3926 116.442 85.6378 116.442C86.0177 116.442 84.9698 116.296 85.5213 116.46C84.743 116.235 85.6684 116.686 85.0372 116.216C85.221 116.412 85.2272 116.412 85.0556 116.216C84.9146 116.076 84.8227 115.905 84.7921 115.703C84.9575 116.204 84.7859 115.215 84.8166 115.056C84.4673 116.613 85.2885 118.433 86.9554 118.811C88.6713 119.202 90.1482 118.292 90.7243 116.68C91.5148 114.458 89.9766 111.777 87.6785 111.276C85.0678 110.702 82.304 112.84 82.5001 115.581C82.6104 117.169 83.8299 118.714 85.5642 118.634C87.1208 118.573 88.7448 117.297 88.6223 115.587Z" fill="#FF97B0"/>
<path d="M109.44 122.945C108.643 121.48 107.117 120.472 105.444 120.387C103.882 120.307 102.313 121.174 101.522 122.518C100.615 124.062 100.86 126.065 102.135 127.329C103.373 128.563 105.481 128.953 106.989 127.952C108.319 127.067 109.023 125.217 108.086 123.775C107.228 122.45 105.322 121.73 103.894 122.682C103.612 122.853 103.777 122.823 104.384 122.585C104.764 122.396 105.15 122.365 105.549 122.487C105.99 122.628 106.345 122.86 106.627 123.226C106.811 123.427 106.934 123.666 107.001 123.934C107.007 124.337 107.007 124.74 107.013 125.143C106.909 125.626 106.523 126.023 106.125 126.279C106.517 126.029 105.702 126.426 105.542 126.45C105.101 126.517 104.74 126.426 104.353 126.218C104.556 126.34 104.543 126.316 104.317 126.151C104.096 125.968 104.078 125.955 104.255 126.12C104.164 125.998 104.078 125.876 103.986 125.754C104.047 125.845 104.102 125.937 104.151 126.035C104.911 127.439 106.983 128.001 108.343 127.128C109.777 126.206 110.255 124.453 109.44 122.945Z" fill="#FF97B0"/>
<path d="M109.581 122.035C108.202 120.521 105.959 120.429 104.207 121.278C102.754 121.986 101.504 123.739 101.725 125.406C101.816 126.108 101.933 126.676 102.38 127.256C102.748 127.726 103.355 128.263 103.974 128.349C105.481 128.562 106.94 128.587 108.398 128.08C109.906 127.555 111.07 125.967 110.537 124.325C110.053 122.841 108.386 121.626 106.768 122.194C106.578 122.261 106.382 122.322 106.186 122.371C106.088 122.395 105.99 122.42 105.886 122.432C105.647 122.475 105.751 122.463 106.198 122.395C106.229 122.481 104.397 122.285 105.598 122.463C106.345 123.446 107.099 124.423 107.847 125.406C107.779 124.881 107.779 125.601 107.743 125.766C107.841 125.32 107.375 126.486 107.602 126.096C107.258 126.682 107.197 126.651 107.418 126.377C106.952 126.712 106.823 126.816 107.032 126.682C107.081 126.651 107.13 126.621 107.185 126.596C107.013 126.67 106.842 126.743 106.67 126.81C106.744 126.786 106.817 126.761 106.891 126.743C106.695 126.767 106.499 126.792 106.302 126.816C106.376 126.81 106.456 126.81 106.529 126.81C106.333 126.786 106.131 126.755 105.935 126.731C106.131 126.786 106.082 126.761 105.775 126.645C105.481 126.505 105.426 126.486 105.604 126.59C105.15 126.206 105.028 126.126 105.236 126.34C106.315 127.524 108.49 127.512 109.569 126.34C110.745 125.088 110.733 123.305 109.581 122.035Z" fill="white"/>
<path d="M112.97 152.437C115.421 154.391 118.008 156.052 120.906 157.273C122.671 158.018 123.008 157.798 122.487 159.752C122.022 161.499 121.446 163.214 120.882 164.936C119.889 167.989 118.927 171.073 118.627 174.285C118.455 176.117 119.031 177.258 117.113 177.869C115.189 178.48 112.664 178.284 110.666 178.284C108.3 178.29 108.294 181.954 110.666 181.948C113.644 181.942 119.178 182.43 121.317 179.786C122.365 178.492 122.132 176.898 122.224 175.353C122.377 172.831 123.021 170.389 123.768 167.983C124.461 165.736 125.27 163.52 125.895 161.254C126.311 159.746 127.041 157.811 126.232 156.309C125.509 154.971 124.16 154.69 122.849 154.147C120.22 153.054 117.793 151.619 115.569 149.848C113.736 148.389 111.119 150.966 112.97 152.437Z" fill="#2DD6BC"/>
<path d="M116.23 171.549C108.165 171.714 100.26 170.499 92.6485 167.812C89.3147 166.64 85.509 165.266 82.739 163.019C80.1774 160.943 79.4971 157.621 79.8342 154.471C81.8872 135.536 107.038 155.612 113.969 160.021C118.075 162.628 122.702 156.65 119.166 153.31C111.653 146.203 102.724 140.793 92.8753 137.563C88.4322 136.104 83.4131 134.846 78.7985 136.311C74.0306 137.826 71.2729 142.118 70.5252 146.862C69.7653 151.692 70.5681 157.053 73.9203 160.815C76.9845 164.252 81.8136 165.901 86.2322 164.289C90.5772 162.708 93.5617 158.171 92.4095 153.536C91.3248 149.177 86.7163 145.58 82.1262 147.174C76.102 149.268 77.2541 157.444 83.0454 158.934C88.7448 160.4 92.4279 155.454 93.4636 150.544C93.9661 148.175 92.7711 146.081 90.4668 145.287C83.4438 142.869 77.3767 149.232 79.0498 156.107C80.3551 161.45 88.6283 159.191 87.323 153.836C87.1269 153.036 87.5804 153.323 88.181 153.53C87.1821 151.778 86.1831 150.025 85.1842 148.273C85.0739 148.786 84.8655 149.335 84.8104 149.848C84.792 150.044 84.5959 151.088 84.6633 150.691C84.6327 150.88 84.5224 155.032 84.0566 155.631C83.119 156.84 81.6298 156.437 80.5634 155.411C77.5238 152.492 77.9283 144.518 82.9412 144.219C88.0707 143.913 94.0948 146.85 98.5501 149.103C103.9 151.814 108.742 155.24 113.093 159.355C114.827 157.121 116.561 154.88 118.289 152.645C113.509 149.604 108.76 146.514 103.943 143.535C99.9719 141.074 95.7372 138.809 91.0613 138.113C81.2131 136.635 73.0746 142.472 71.5119 152.315C70.7888 156.864 71.2729 161.804 73.81 165.767C76.4636 169.907 80.8637 172.141 85.2455 174.04C95.0202 178.272 105.555 180.324 116.212 180.104C121.746 179.982 121.764 171.433 116.23 171.549Z" fill="#2DD6BC"/>
<path d="M79.6505 137.764C71.6837 138.21 68.2947 145.635 68.6379 152.791C68.9749 159.929 72.1188 167.159 79.0377 170.126C85.7543 173.015 92.5078 170.267 96.4115 164.368C99.6473 159.477 102.381 150.978 97.0795 146.496C94.7201 144.505 90.7489 145.049 89.9093 148.383C88.984 152.052 88.6163 155.771 88.9166 159.545C89.1372 162.317 91.4782 164.399 94.3463 163.666C96.4728 163.123 98.4768 162.073 99.9843 160.454C100.609 159.783 101.192 158.946 101.633 158.146C101.909 157.499 102.184 156.852 102.454 156.198C103.238 154.965 102.681 154.593 100.787 155.093C100.131 154.245 99.4757 153.39 98.8138 152.541C99.1202 153.695 97.0856 155.46 96.5402 156.339C95.67 157.737 94.9897 159.288 94.8733 160.949C94.6772 163.855 95.9274 166.823 98.6116 168.203C101.523 169.699 104.85 168.643 107.02 166.408C109.63 163.715 109.201 160.235 110.439 156.986C112.069 152.7 106.18 150.233 103.269 152.828C98.7893 156.827 94.9285 161.413 91.6621 166.444C89.7378 169.412 92.3484 172.575 95.3636 172.874C97.9742 173.137 100.591 173.399 103.202 173.662C105.353 173.875 107.504 174.37 109.532 173.387C113.724 171.36 112.989 164.368 113.418 160.461C110.611 160.839 107.798 161.218 104.991 161.596C105.647 163.623 106.309 165.657 106.965 167.684C107.927 170.658 111.812 171.983 114.135 169.571C116.623 166.982 118.345 164.063 119.442 160.656C116.635 160.277 113.822 159.899 111.015 159.52C111.193 162.176 111.371 164.826 111.549 167.482C111.812 171.439 117.432 173.643 119.54 169.638C121.06 166.75 122.58 163.862 124.099 160.973C121.434 160.253 118.768 159.532 116.108 158.818C116.096 160.876 116.083 162.933 116.071 164.997C116.041 170.194 122.739 170.303 124.498 166.133C124.908 165.156 125.129 164.362 125.276 163.312C126.036 157.89 119.062 155.844 117.003 161.041C116.617 162.011 115.869 163.349 115.679 164.374C115.532 164.747 115.385 165.113 115.238 165.486C117.266 164.961 117.701 164.765 116.543 164.894C114.766 164.686 112.609 165.174 110.825 165.296C107.32 165.547 104.905 169.9 107.792 172.593C110.727 175.329 114.073 176.147 117.996 175.561C120.306 175.213 121.532 172.343 120.992 170.303C120.343 167.855 117.996 166.976 115.716 167.318C114.993 167.428 114.355 167.012 113.859 166.548C112.848 168.978 111.837 171.415 110.825 173.845C113.712 173.643 117.818 174.089 120.379 172.532C123.254 170.786 124.124 166.206 125.27 163.312C122.512 162.555 119.754 161.798 116.997 161.041C116.85 162.091 116.629 162.885 116.218 163.862C119.025 164.24 121.838 164.619 124.645 164.997C124.657 162.94 124.669 160.882 124.682 158.818C124.706 154.696 118.694 152.846 116.69 156.663C115.17 159.551 113.651 162.439 112.131 165.327C114.797 166.048 117.462 166.768 120.122 167.482C119.944 164.826 119.767 162.176 119.589 159.52C119.27 154.745 112.682 153.677 111.162 158.384C110.519 160.381 109.514 162.018 108.061 163.526C110.452 164.155 112.842 164.784 115.232 165.413C114.576 163.385 113.914 161.352 113.258 159.325C111.702 154.525 105.347 155.771 104.832 160.461C104.685 161.786 104.544 163.117 104.397 164.442C104.323 165.113 104.415 166.896 104.17 167.318C105.022 166.664 105.88 166.011 106.732 165.351C105.537 165.852 102.822 165.071 101.51 164.936C99.4573 164.729 97.4043 164.527 95.3513 164.32C96.5831 166.463 97.821 168.606 99.0528 170.749C101.939 166.298 105.359 162.396 109.318 158.861C106.928 157.475 104.538 156.089 102.148 154.703C101.578 156.198 100.977 158.305 101.008 159.917C101.002 160.228 100.885 160.485 100.652 160.68C101.565 161.01 102.479 161.34 103.386 161.67C103.392 161.67 104.55 159.783 104.507 159.838C106.572 156.901 108.539 153.39 106.848 149.751C105.249 146.319 100.738 146.081 97.8701 148.016C96.3931 149.012 95.5352 150.434 94.8549 152.04C94.1318 153.75 94.0031 154.916 92.0359 155.417C93.8437 156.791 95.6577 158.165 97.4656 159.538C97.2205 156.485 97.4043 153.622 98.152 150.648C95.7619 151.277 93.3719 151.906 90.9818 152.535C92.52 153.835 90.2158 158.128 89.2107 159.691C87.6112 162.17 85.2396 163.568 82.3286 162.274C79.2399 160.9 77.8243 157.591 77.334 154.434C77.0337 152.48 76.5251 146.478 79.626 146.307C85.1415 146.007 85.1783 137.459 79.6505 137.764Z" fill="#2DD6BC"/>
<path d="M122.414 147.247C122.904 147.314 123.395 147.375 123.879 147.442C124.05 147.449 124.204 147.412 124.351 147.339C124.504 147.29 124.633 147.204 124.743 147.088C124.804 147.009 124.872 146.923 124.933 146.844C125.025 146.704 125.074 146.551 125.08 146.392C125.111 146.282 125.111 146.178 125.08 146.069C125.074 145.904 125.025 145.757 124.933 145.617C124.872 145.537 124.804 145.452 124.743 145.372C124.59 145.22 124.412 145.116 124.204 145.061C123.83 145.006 123.456 144.951 123.076 144.896C122.911 144.847 122.751 144.835 122.586 144.872C122.42 144.878 122.273 144.927 122.132 145.018C121.991 145.098 121.875 145.201 121.789 145.336C121.679 145.452 121.605 145.592 121.568 145.751C121.495 146.062 121.513 146.417 121.691 146.691C121.752 146.771 121.82 146.856 121.881 146.936C122.034 147.088 122.212 147.192 122.42 147.247C122.794 147.302 123.168 147.357 123.548 147.412C123.658 146.612 123.762 145.812 123.873 145.012C123.382 144.945 122.892 144.884 122.408 144.817C122.236 144.811 122.083 144.847 121.936 144.921C121.783 144.969 121.654 145.055 121.544 145.171C121.421 145.281 121.342 145.415 121.293 145.562C121.213 145.708 121.182 145.867 121.189 146.032C121.201 146.349 121.305 146.673 121.55 146.893C121.63 146.954 121.716 147.021 121.795 147.082C121.985 147.192 122.194 147.247 122.414 147.247Z" fill="#FAF7FF"/>
<path d="M133.04 152.407C132.942 152.272 132.838 152.12 132.703 152.01C132.575 151.9 132.434 151.784 132.28 151.711C132.127 151.637 131.962 151.558 131.79 151.521C131.619 151.485 131.435 151.454 131.257 151.454C131.079 151.454 130.895 151.485 130.724 151.515C130.65 151.527 130.577 151.552 130.503 151.576C130.344 151.637 130.172 151.698 130.031 151.796C129.89 151.894 129.743 151.991 129.627 152.12C129.535 152.217 129.455 152.327 129.382 152.437C129.357 152.468 129.339 152.504 129.32 152.535C129.29 152.596 129.265 152.663 129.241 152.724C129.167 152.901 129.167 152.871 129.143 153.066C129.137 153.121 129.13 153.176 129.118 153.231C129.13 153.341 129.149 153.445 129.161 153.555C129.173 153.597 129.259 153.793 129.228 153.713C129.253 153.774 129.278 153.842 129.308 153.903C129.345 153.976 129.406 154.037 129.455 154.104C129.504 154.165 129.553 154.238 129.615 154.293C129.706 154.379 129.817 154.458 129.921 154.532C129.946 154.55 129.976 154.568 130.001 154.58C130.117 154.641 130.24 154.69 130.362 154.733C130.393 154.745 130.424 154.751 130.454 154.764C130.583 154.794 130.724 154.806 130.859 154.819C130.895 154.825 130.926 154.825 130.963 154.825C131.134 154.831 131.306 154.794 131.471 154.77C131.539 154.757 131.6 154.739 131.661 154.721C131.821 154.66 131.992 154.599 132.133 154.507C132.268 154.416 132.415 154.312 132.526 154.183C132.734 153.945 132.82 153.787 132.936 153.494C132.948 153.463 132.961 153.426 132.967 153.39C132.997 153.249 133.016 153.103 133.022 152.962C133.028 152.791 132.991 152.639 132.918 152.492C132.869 152.339 132.783 152.211 132.666 152.101C132.556 151.979 132.421 151.9 132.274 151.851C132.127 151.772 131.968 151.741 131.802 151.747C131.484 151.759 131.159 151.863 130.938 152.107C130.712 152.352 130.589 152.639 130.577 152.968C130.577 152.987 130.577 153.011 130.571 153.029C130.583 152.92 130.601 152.816 130.613 152.706C130.607 152.755 130.595 152.804 130.571 152.852C130.613 152.755 130.65 152.657 130.693 152.559C130.675 152.602 130.65 152.645 130.62 152.688C130.681 152.608 130.748 152.523 130.81 152.443C130.773 152.486 130.736 152.523 130.693 152.559C130.773 152.498 130.859 152.431 130.938 152.37C130.883 152.413 130.822 152.449 130.754 152.48C130.852 152.437 130.951 152.401 131.049 152.358C130.963 152.394 130.877 152.419 130.791 152.431C130.902 152.419 131.006 152.401 131.116 152.388C131.03 152.401 130.951 152.401 130.865 152.388C130.975 152.401 131.079 152.419 131.19 152.431C131.122 152.419 131.061 152.407 131 152.382C131.098 152.425 131.196 152.462 131.294 152.504C131.245 152.48 131.196 152.455 131.153 152.425C131.232 152.486 131.318 152.553 131.398 152.614C131.361 152.584 131.324 152.547 131.294 152.51C131.355 152.59 131.422 152.675 131.484 152.755C131.453 152.718 131.435 152.675 131.41 152.633C131.453 152.73 131.49 152.828 131.533 152.926C131.533 152.92 131.527 152.913 131.527 152.913C131.527 153.127 131.527 153.347 131.527 153.561C131.533 153.548 131.533 153.536 131.539 153.524C131.496 153.622 131.459 153.719 131.416 153.817C131.441 153.756 131.478 153.701 131.52 153.646C131.459 153.726 131.392 153.811 131.331 153.89C131.373 153.842 131.416 153.793 131.471 153.756C131.392 153.817 131.306 153.884 131.226 153.945C131.294 153.897 131.367 153.854 131.441 153.817C131.343 153.86 131.245 153.897 131.147 153.939C131.239 153.903 131.331 153.878 131.429 153.86C131.318 153.872 131.214 153.89 131.104 153.903C131.202 153.89 131.3 153.89 131.392 153.903C131.281 153.89 131.177 153.872 131.067 153.86C131.159 153.872 131.245 153.897 131.324 153.927C131.226 153.884 131.128 153.848 131.03 153.805C131.098 153.835 131.159 153.872 131.214 153.915C131.134 153.854 131.049 153.787 130.969 153.726C131.018 153.768 131.067 153.811 131.11 153.866C131.049 153.787 130.981 153.701 130.92 153.622C130.926 153.628 130.926 153.634 130.932 153.634C131.012 153.774 131.116 153.89 131.251 153.976C131.367 154.086 131.508 154.159 131.668 154.196C131.833 154.245 131.992 154.257 132.158 154.22C132.323 154.214 132.47 154.165 132.611 154.074C132.875 153.903 133.102 153.652 133.175 153.341C133.187 153.231 133.206 153.127 133.218 153.017C133.206 152.804 133.151 152.596 133.04 152.407Z" fill="#FAF7FF"/>
<path d="M138.942 155.338C138.942 155.325 138.942 155.307 138.942 155.295C138.936 155.173 138.918 155.051 138.893 154.935C138.893 154.922 138.887 154.91 138.881 154.898C138.844 154.782 138.795 154.672 138.74 154.568C138.685 154.458 138.556 154.318 138.507 154.257C138.489 154.232 138.464 154.214 138.446 154.19C138.348 154.11 138.25 154.019 138.133 153.958C138.017 153.89 137.888 153.842 137.76 153.799C137.631 153.756 137.472 153.75 137.355 153.738C137.324 153.732 137.294 153.738 137.263 153.738C137.183 153.744 136.981 153.756 136.865 153.799C136.761 153.836 136.607 153.884 136.503 153.964C136.442 154.013 136.283 154.11 136.203 154.202C136.136 154.287 136.025 154.403 135.97 154.513C135.921 154.623 135.854 154.751 135.823 154.874C135.792 155.002 135.774 155.142 135.768 155.277C135.762 155.405 135.805 155.582 135.817 155.673C135.823 155.704 135.829 155.728 135.835 155.753C135.927 156.034 136.031 156.217 136.234 156.437C136.411 156.626 136.675 156.773 136.92 156.84C137.085 156.889 137.245 156.901 137.41 156.864C137.576 156.858 137.723 156.809 137.864 156.718C138.005 156.638 138.121 156.534 138.207 156.4C138.317 156.284 138.391 156.144 138.428 155.985C138.44 155.875 138.458 155.771 138.47 155.661C138.47 155.441 138.415 155.234 138.305 155.045C138.244 154.965 138.176 154.88 138.115 154.8C137.962 154.648 137.784 154.544 137.576 154.489C137.563 154.483 137.551 154.483 137.533 154.477C137.631 154.519 137.729 154.556 137.827 154.599C137.802 154.587 137.784 154.574 137.76 154.562C137.839 154.623 137.925 154.69 138.005 154.751C137.98 154.733 137.962 154.715 137.943 154.69C138.005 154.77 138.072 154.855 138.133 154.935C138.115 154.91 138.097 154.88 138.084 154.849C138.127 154.947 138.164 155.045 138.207 155.142C138.189 155.106 138.182 155.069 138.176 155.026C138.189 155.136 138.207 155.24 138.219 155.35C138.213 155.313 138.213 155.277 138.219 155.24C138.207 155.35 138.189 155.454 138.176 155.564C138.182 155.533 138.189 155.502 138.201 155.472C138.158 155.57 138.121 155.667 138.078 155.765C138.09 155.741 138.103 155.716 138.121 155.692C138.06 155.771 137.992 155.857 137.931 155.936C137.95 155.918 137.962 155.899 137.986 155.881C137.907 155.942 137.821 156.009 137.741 156.07C137.76 156.058 137.784 156.04 137.809 156.034C137.711 156.076 137.612 156.113 137.514 156.156C137.539 156.144 137.563 156.137 137.594 156.131C137.484 156.144 137.38 156.162 137.269 156.174C137.3 156.168 137.337 156.168 137.367 156.174C137.257 156.162 137.153 156.144 137.043 156.131C137.079 156.137 137.11 156.144 137.147 156.162C137.049 156.119 136.951 156.083 136.853 156.04C136.889 156.052 136.92 156.076 136.951 156.095C136.871 156.034 136.785 155.967 136.705 155.905C136.736 155.93 136.761 155.954 136.779 155.979C136.718 155.899 136.65 155.814 136.589 155.734C136.607 155.759 136.62 155.783 136.632 155.814C136.589 155.716 136.552 155.618 136.509 155.521C136.522 155.545 136.528 155.57 136.534 155.6C136.522 155.49 136.503 155.386 136.491 155.277C136.491 155.301 136.497 155.319 136.491 155.344C136.485 155.515 136.522 155.667 136.595 155.814C136.644 155.967 136.73 156.095 136.846 156.205C136.957 156.327 137.092 156.406 137.239 156.455C137.386 156.534 137.545 156.565 137.711 156.559C137.821 156.547 137.925 156.528 138.035 156.516C138.244 156.455 138.421 156.351 138.575 156.205C138.636 156.125 138.703 156.04 138.765 155.96C138.887 155.765 138.942 155.557 138.942 155.338Z" fill="#FAF7FF"/>
<path d="M141.387 159.331C142.962 159.331 142.968 156.889 141.387 156.889C139.812 156.889 139.806 159.331 141.387 159.331Z" fill="#FAF7FF"/>
<path d="M125.312 98.9054C128.493 98.7528 131.674 98.6001 134.848 98.4475C137.765 98.307 141.43 97.5133 144.298 98.0017C143.685 97.5316 143.078 97.0675 142.466 96.5973C142.974 97.3362 142.717 99.7786 142.784 100.688C142.87 101.873 142.944 103.058 143.011 104.248C143.152 106.758 143.789 109.841 143.348 112.29C143.82 111.679 144.286 111.075 144.758 110.464C145.548 109.945 145.377 110.373 144.28 110.354C143.477 110.342 142.674 110.373 141.871 110.379C140.063 110.391 138.255 110.391 136.448 110.379C134.842 110.366 133.236 110.348 131.631 110.312C130.828 110.293 130.025 110.275 129.222 110.257C128.567 110.238 126.765 109.725 128.082 110.373C128.554 110.983 129.02 111.588 129.492 112.198C128.652 110.208 128.609 107.832 128.493 105.689C128.383 103.644 128.082 101.018 128.744 99.0398C128.033 99.7481 127.316 100.462 126.605 101.171C128.983 100.359 132.078 100.566 134.585 100.505C137.269 100.444 139.947 100.499 142.631 100.633C142.631 98.6001 142.631 96.5607 142.631 94.5274C139.953 94.7167 137.275 94.8999 134.597 95.0891C132.139 95.2601 129.302 95.1197 126.894 95.6753C122.536 96.6828 123.235 102.136 123.37 105.592C123.492 108.657 124.301 114.213 128.873 112.919C132.905 111.783 132.274 104.859 132.624 101.751C130.62 102.02 128.609 102.294 126.605 102.563C127.157 104.554 127.709 106.538 128.26 108.529C129.045 111.343 133.481 111.527 134.168 108.529C134.726 106.08 134.971 103.68 134.817 101.171C132.777 101.171 130.73 101.171 128.689 101.171C128.842 103.583 129.216 105.903 129.884 108.223C130.564 110.574 134.309 111.417 135.485 108.95C136.668 106.459 137.342 104.041 137.692 101.311C135.651 101.311 133.604 101.311 131.563 101.311C131.373 103.68 131.686 105.909 132.532 108.132C133.353 110.293 136.938 111.502 138.133 108.858C139.359 106.141 140.008 103.454 139.916 100.462C139.794 96.4142 134.297 96.6767 133.788 100.462C133.537 102.337 133.733 104.102 134.321 105.897C135.142 108.394 138.501 108.913 139.922 106.623C140.768 105.256 141.381 103.851 141.828 102.306C139.824 102.038 137.814 101.763 135.81 101.494C136 103.656 136.356 105.72 137.005 107.796C137.79 110.318 141.203 110.788 142.607 108.522C143.544 107.014 144.157 105.451 144.427 103.693C142.423 103.424 140.413 103.149 138.409 102.88C138.311 104.67 138.464 106.355 138.727 108.126C139.126 110.794 143.14 110.983 144.329 108.852C145.266 107.173 145.695 105.592 145.879 103.686C146.259 99.7542 140.18 99.8335 139.751 103.686C139.585 105.152 139.506 106.599 139.493 108.077C141.534 108.077 143.581 108.077 145.622 108.077C145.481 104.859 145.34 101.647 145.199 98.4292C145.027 94.5213 138.942 94.4847 139.071 98.4292C139.107 99.6137 139.132 100.792 139.095 101.977C139.083 102.41 139.169 105.207 138.856 105.518C139.665 104.712 136.736 105.329 136.625 105.335C135.43 105.421 134.241 105.5 133.046 105.585C129.847 105.811 128.597 111.032 132.231 111.582C135.014 112.003 137.802 112.339 140.603 112.552C140.088 110.653 139.573 108.761 139.058 106.862C137.9 107.399 136.84 107.619 135.596 107.802C132.115 108.309 133.046 113.792 136.411 113.798C139.739 113.804 147.221 115.41 148.355 110.879C149.311 107.069 143.403 105.439 142.447 109.255C142.417 109.383 142.386 109.512 142.349 109.64C142.821 109.029 143.287 108.425 143.759 107.814C143.238 108.107 141.105 107.698 140.394 107.698C139.064 107.698 137.741 107.692 136.411 107.692C136.68 109.689 136.956 111.691 137.226 113.688C139.003 113.432 140.535 112.882 142.153 112.131C145.15 110.745 143.336 106.648 140.609 106.44C138.347 106.269 136.104 106.031 133.868 105.689C133.598 107.686 133.322 109.689 133.052 111.685C136.068 111.472 141.614 112.223 143.789 109.615C145.977 106.99 145.303 101.555 145.205 98.4169C143.164 98.4169 141.117 98.4169 139.077 98.4169C139.218 101.635 139.359 104.847 139.5 108.065C139.671 111.972 145.609 112.015 145.628 108.065C145.634 106.587 145.72 105.14 145.885 103.674C143.844 103.674 141.798 103.674 139.757 103.674C139.714 104.438 139.475 105.134 139.04 105.763C140.909 106.007 142.772 106.251 144.641 106.489C144.457 105.262 144.476 104.102 144.543 102.868C144.727 99.4916 139.052 98.6246 138.525 102.056C138.329 103.326 138.004 104.328 137.324 105.427C139.193 105.671 141.056 105.915 142.925 106.153C142.441 104.602 142.092 103.1 141.951 101.476C141.657 98.1666 136.944 97.1896 135.933 100.664C135.62 101.733 135.228 102.575 134.64 103.522C136.509 103.766 138.372 104.01 140.241 104.248C139.806 102.911 139.739 101.818 139.922 100.438C137.882 100.438 135.835 100.438 133.794 100.438C133.849 102.313 133.622 104.028 132.844 105.75C134.713 105.995 136.576 106.239 138.445 106.477C137.771 104.712 137.545 103.155 137.698 101.281C138.016 97.2995 132.054 97.4766 131.569 101.281C131.367 102.88 130.889 104.389 130.203 105.836C132.072 106.08 133.935 106.324 135.804 106.562C135.283 104.761 134.946 103.003 134.83 101.128C134.585 97.2263 128.462 97.1957 128.701 101.128C128.818 103.106 128.714 104.932 128.272 106.862C130.24 106.862 132.213 106.862 134.18 106.862C133.629 104.871 133.077 102.887 132.525 100.896C131.545 97.3667 126.869 98.4414 126.507 101.708C126.409 102.593 126.465 107.344 125.907 107.771C126.63 107.472 127.353 107.173 128.076 106.88C127.886 106.868 127.702 106.862 127.512 106.849C128.236 107.149 128.959 107.448 129.682 107.741C129.087 107.185 129.149 101.055 129.565 100.353C128.953 100.823 128.346 101.287 127.733 101.757C130.007 101.091 132.838 101.275 135.185 101.11C137.673 100.939 140.161 100.762 142.643 100.591C146.565 100.316 146.608 94.6862 142.643 94.4847C137.483 94.2282 132.286 94.2648 127.145 94.8144C121.807 95.3822 122.205 100.169 122.34 104.535C122.438 107.631 122.095 114.207 125.423 115.807C127.096 116.613 129.247 116.326 131.055 116.363C133.868 116.424 136.68 116.454 139.487 116.448C142.698 116.448 148.502 117.596 149.385 113.328C149.893 110.879 149.36 107.863 149.231 105.39C149.109 103.015 148.956 100.646 148.766 98.2765C148.625 96.4752 148.766 94.216 147.307 92.8543C145.891 91.5293 143.795 91.8652 142.031 91.9506C136.466 92.2193 130.901 92.488 125.337 92.7505C121.384 92.9887 121.36 99.0947 125.312 98.9054Z" fill="#7F32FF"/>
<path d="M173.32 86.4422C171.745 88.7283 170.263 91.5122 168.285 93.4729C168.988 93.1534 169.684 92.8385 170.388 92.519C169.097 92.7147 167.052 91.927 165.753 91.6443C163.919 91.2502 162.085 90.8561 160.252 90.462C157.129 89.7939 155.485 93.4619 157.461 95.6566C160.042 98.5244 162.621 101.398 165.202 104.266C166.593 105.811 169.057 105.06 169.997 103.504C170.69 102.361 171.39 101.214 172.083 100.071C174.149 96.67 168.839 93.9336 166.695 97.1533C163.819 101.469 162.359 106.164 161.884 111.3C161.615 114.222 165.46 114.762 167.176 113.274C168.908 111.776 170.639 110.279 172.371 108.781C173.764 107.575 175.28 106.466 175.915 104.677C176.608 102.719 176.184 100.345 176.475 98.3065C176.808 96.0019 177.441 93.7606 178.348 91.6142C176.58 91.6679 174.82 91.7171 173.052 91.7708C173.485 92.592 173.227 93.8924 173.636 94.8147C174.198 96.0796 175.156 96.8849 176.419 97.4348C179.347 98.6971 182.948 99.0938 186.041 99.8364C185.73 97.9778 185.417 96.1251 185.106 94.2665C181.29 96.2081 177.452 98.107 173.597 99.9707C175.039 101.321 176.475 102.669 177.917 104.019C178.479 102.601 179.039 101.189 179.601 99.7715C177.833 99.8253 176.073 99.8744 174.305 99.9282C176.773 103.879 178.157 108.137 178.451 112.781C179.958 111.845 181.465 110.91 182.971 109.975C180.008 108.347 177.574 106.259 175.436 103.651C174.776 105.409 174.118 107.162 173.464 108.922C173.954 108.954 174.445 108.98 174.934 109.013C178.862 109.247 178.593 103.142 174.677 102.91C174.187 102.878 173.696 102.852 173.207 102.82C170.241 102.64 169.772 106.317 171.235 108.092C173.698 111.089 176.661 113.475 180.058 115.347C182.078 116.456 184.723 114.869 184.578 112.541C184.225 106.874 182.522 101.527 179.508 96.7035C178.397 94.9289 175.089 94.6504 174.212 96.8601C173.65 98.278 173.09 99.69 172.528 101.108C171.386 103.996 173.985 106.542 176.848 105.157C180.703 103.293 184.535 101.393 188.357 99.4524C190.803 98.2085 189.848 94.464 187.422 93.8824C185.008 93.3036 182.551 92.533 180.096 92.1326C178.302 91.8416 179.528 92.3581 179.177 91.3238C178.838 90.3426 178.758 89.4965 178.256 88.5402C177.239 86.6056 173.836 86.6309 172.96 88.6968C171.427 92.3215 170.445 96.0113 170.192 99.9516C170.032 102.378 169.781 102.972 167.914 104.588C166.183 106.086 164.452 107.583 162.72 109.081C164.486 109.741 166.245 110.4 168.012 111.055C168.382 107.047 169.87 103.4 172.089 100.072C170.295 99.0981 168.495 98.1287 166.701 97.1547C166.008 98.2977 165.308 99.4453 164.615 100.588C166.215 100.333 167.815 100.083 169.415 99.8279C166.834 96.96 164.255 94.0862 161.674 91.2183C160.744 92.9518 159.814 94.6793 158.884 96.4128C161.083 96.8855 163.282 97.3581 165.487 97.8321C167.142 98.1846 168.961 98.8574 170.657 98.6241C172.605 98.3616 173.539 96.8606 174.584 95.3667C175.978 93.3709 177.343 91.3623 178.727 89.3578C180.937 86.1222 175.529 83.2377 173.32 86.4422Z" fill="#7F32FF"/>
<path d="M143.643 101.497C144.504 98.1649 148.382 97.2858 151.378 97.2489C152.789 97.2331 154.062 97.5227 154.966 98.6703C155.631 99.5179 155.985 100.681 155.8 101.75C155.6 102.903 154.701 104.119 153.423 103.514C152.065 102.871 151.859 101.087 151.853 99.7653C151.848 98.2281 152.308 96.9278 153.687 96.1276C154.929 95.4063 156.445 95.1484 157.861 95.0536C161.544 94.8009 165.19 95.7854 168.249 97.8333C169.38 98.5913 170.442 96.7646 169.316 96.017C165.829 93.6848 161.496 92.574 157.312 93.0005C155.351 93.2005 153.343 93.648 151.774 94.9062C150.126 96.2276 149.65 98.286 149.756 100.308C149.856 102.282 150.527 104.445 152.44 105.377C154.347 106.309 156.424 105.514 157.364 103.64C158.96 100.466 157.047 96.2171 153.565 95.359C152.318 95.0536 150.982 95.1115 149.714 95.2484C148.424 95.3853 147.167 95.6485 145.973 96.1592C143.907 97.0436 142.179 98.7335 141.603 100.939C141.265 102.25 143.304 102.808 143.643 101.497Z" fill="#EBEC1B"/>
<path d="M170.489 97.0963C169.76 95.2221 168.624 93.5375 167.091 92.2213C166.748 91.9265 166.225 91.7897 165.813 92.0581C165.406 92.3214 165.216 92.7741 165.327 93.2479C165.591 94.3798 166.156 95.4064 166.922 96.2803C167.266 95.6959 167.609 95.1063 167.953 94.5219C166.109 94.2166 164.154 94.8115 162.938 96.275C162.658 96.6119 162.542 97.0068 162.722 97.4227C162.901 97.8386 163.255 98.0175 163.689 98.0702C165.67 98.3176 167.651 98.5598 169.633 98.8072C170.182 98.8757 170.711 98.2755 170.69 97.7543C170.663 97.1278 170.225 96.7751 169.633 96.7014C167.651 96.454 165.67 96.2118 163.689 95.9644C163.937 96.5645 164.185 97.1647 164.434 97.7596C164.55 97.6227 164.666 97.4911 164.798 97.37C164.862 97.3068 164.93 97.2542 164.999 97.1963C164.888 97.291 164.957 97.2279 165.031 97.1752C165.163 97.0805 165.306 96.9962 165.448 96.9173C165.527 96.8752 165.607 96.8383 165.686 96.7962C165.945 96.6698 165.49 96.8594 165.76 96.7646C165.913 96.712 166.066 96.6593 166.23 96.6225C166.304 96.6067 166.373 96.5856 166.447 96.5751C166.542 96.5593 166.706 96.5435 166.515 96.5593C166.695 96.5435 166.869 96.533 167.049 96.533C167.139 96.533 167.229 96.5435 167.313 96.5488C167.546 96.5593 167.134 96.5172 167.387 96.5593C167.836 96.633 168.349 96.5119 168.581 96.075C168.814 95.638 168.74 95.1642 168.418 94.8009C168.391 94.7746 168.148 94.4745 168.275 94.6377C168.217 94.5588 168.159 94.4798 168.106 94.4008C167.979 94.2113 167.863 94.0165 167.757 93.8165C167.715 93.7323 167.673 93.6428 167.63 93.5533C167.72 93.748 167.567 93.3901 167.556 93.3532C167.482 93.1374 167.419 92.9215 167.366 92.7004C166.78 93.0426 166.188 93.3848 165.601 93.727C165.945 94.0218 166.278 94.3377 166.584 94.6746C166.716 94.8167 166.843 94.9641 166.97 95.1168C167.012 95.1695 167.054 95.2168 167.091 95.2695C167.028 95.1853 167.028 95.1905 167.107 95.2905C167.165 95.3695 167.224 95.4485 167.282 95.5274C167.525 95.8749 167.752 96.2329 167.953 96.6014C168.064 96.8015 168.164 97.0015 168.264 97.2121C168.307 97.3016 168.344 97.3911 168.386 97.4806C168.296 97.2858 168.449 97.6438 168.465 97.6806C168.666 98.1913 169.184 98.6019 169.765 98.4176C170.251 98.2334 170.705 97.649 170.489 97.0963Z" fill="#EBEC1B"/>
</g>
</g>
<defs>
<clipPath id="clip0_4066_2809">
<rect width="123.388" height="97.2693" fill="white" transform="translate(68.6133 84.709)"/>
</clipPath>
</defs>
</svg>
