<svg width="113" height="89" viewBox="0 0 113 89" fill="none" xmlns="http://www.w3.org/2000/svg">
<path d="M45.9668 82.5988C45.6899 79.8346 45.6062 77.0573 45.75 74.2823C45.8123 73.084 45.8273 71.8165 46.1385 70.6507C46.2545 70.2202 46.3918 69.9218 46.6838 69.5973C46.7718 69.5 46.6215 69.6492 46.8469 69.4978C47.0337 69.4589 47.038 69.4459 46.8641 69.4546C46.6301 69.4416 46.6924 69.4697 47.0487 69.5389C47.7163 70.0407 47.931 70.8929 48.1392 71.6651C48.4676 72.8807 48.7273 74.1265 48.8926 75.3746C49.0579 76.6247 49.1287 77.8966 49.1352 79.1576C49.1395 79.7589 49.1245 80.358 49.0944 80.9571C49.0772 81.2902 49.0364 81.6233 49.03 81.9564C49.0257 82.1381 48.8669 82.4993 49.0386 82.2419C49.3091 81.9694 49.5774 81.699 49.8479 81.4265C50.3909 81.3119 50.3931 81.2708 49.85 81.3097C49.5795 81.3097 49.3091 81.3097 49.0386 81.3097C48.4977 81.3097 47.9567 81.3097 47.4158 81.3119C46.3339 81.3119 45.2499 81.314 44.168 81.314C44.168 82.8281 44.168 84.3422 44.168 85.8562C45.4409 85.8368 46.6924 85.7027 47.9524 85.5231C48.6415 85.4258 49.4164 84.6212 49.5259 83.9377C50.2879 79.1619 50.3158 74.438 49.6289 69.6514C49.4593 68.4683 47.9052 67.7285 46.8555 68.0659C44.8163 68.7235 44.4385 70.536 44.2088 72.4329C43.9769 74.358 43.9168 76.2852 44.0156 78.221C44.1637 81.1302 48.6737 81.1475 48.5234 78.221C48.459 76.9795 48.4526 75.7358 48.5256 74.4942C48.5578 73.9427 48.6028 73.3911 48.6672 72.8439C48.6951 72.5973 48.7617 72.3356 48.7724 72.089C48.8003 71.319 49.425 72.0025 48.0555 72.4438C47.1303 71.916 46.2072 71.3861 45.2821 70.8583C45.8423 74.7711 45.8015 78.8288 45.179 82.7286C45.7028 82.2008 46.2287 81.6709 46.7525 81.1432C45.8981 81.2643 45.0288 81.2989 44.1658 81.314C41.2679 81.3616 41.2572 85.8584 44.1658 85.8562C46.2652 85.8541 48.4247 86.0033 50.5176 85.8411C53.3447 85.6205 53.5121 83.0357 53.6108 80.756C53.7074 78.5476 53.555 76.3501 53.2373 74.1655C52.9368 72.0999 52.559 69.8482 51.5522 67.9967C50.4832 66.0306 48.3581 64.6333 46.0892 65.0313C44.0005 65.3969 42.528 67.1099 41.8969 69.0739C41.225 71.159 41.2357 73.5988 41.1842 75.7725C41.1306 78.0523 41.2293 80.3277 41.4568 82.5945C41.5792 83.8144 42.4056 84.8656 43.7108 84.8656C44.8377 84.8699 46.0892 83.8274 45.9668 82.5988Z" fill="white"/>
<path d="M25.17 79.6812C24.8609 76.4693 24.8652 73.2227 25.2666 70.0172C25.4212 68.7886 25.5135 67.227 26.0759 66.1001C26.4472 65.356 26.8937 65.2781 27.469 65.4209C29.6006 65.9465 30.0063 68.8362 30.3154 70.6726C30.5708 72.1823 30.7726 73.7028 30.8306 75.2342C30.8821 76.5926 30.9422 78.2169 30.4098 79.4996C30.603 79.1665 30.7962 78.8312 30.9894 78.4981C31.3136 78.0872 31.8588 78.2213 30.9358 78.1758C30.6631 78.1629 30.3884 78.1477 30.1158 78.1347C29.431 78.1001 28.7484 78.0655 28.0636 78.0309C26.7628 77.966 25.4641 77.899 24.1633 77.8341C24.8115 78.974 25.4598 80.1117 26.1102 81.2516C27.1299 78.8896 27.3746 76.4541 27.5077 73.9018C27.6193 71.7757 27.6944 69.6322 28.8986 67.8045C27.5248 67.6228 26.1532 67.4433 24.7793 67.2616C26.0136 70.5493 26.5567 74.1052 26.0823 77.607C25.9192 78.8204 26.3721 80.0446 27.6558 80.4015C28.7076 80.6935 30.2639 80.0381 30.4292 78.8161C31.0152 74.488 30.6674 70.1599 29.1262 66.0546C28.435 64.2118 26.1295 63.8095 25.0069 65.5117C23.6245 67.6098 23.2424 70.0886 23.0771 72.5543C22.9354 74.6524 23.0707 76.9862 22.2185 78.9588C21.5337 80.5486 22.3258 82.2833 24.1654 82.3763C26.1489 82.4758 28.1345 82.5753 30.1179 82.6769C32.1786 82.7808 34.1986 82.7288 34.8855 80.3626C35.9459 76.7137 35.2375 72.444 34.5485 68.7951C33.9152 65.4317 32.2302 61.9688 28.6711 61.0431C27.0955 60.6321 25.3568 60.8095 24.0023 61.7569C22.4868 62.8102 21.7119 64.5254 21.3362 66.2926C20.4067 70.6639 20.2329 75.2385 20.6622 79.6812C20.7802 80.9012 21.6131 81.9524 22.9161 81.9524C24.0431 81.9524 25.2881 80.9098 25.17 79.6812Z" fill="white"/>
<path d="M29.4974 77.2517C29.4802 77.4615 29.4652 77.6713 29.448 77.8811C29.2527 80.4031 33.4535 81.0195 33.8743 78.4846C34.1748 76.6828 34.28 74.92 34.0567 73.1031C33.9065 71.8854 33.1273 70.832 31.8028 70.832C30.7016 70.832 29.3986 71.8767 29.5489 73.1031C29.7185 74.4874 29.7571 75.8977 29.5274 77.2776C31.0021 77.4788 32.479 77.6799 33.9537 77.8811C33.9709 77.6713 33.9859 77.4615 34.0031 77.2517C34.0975 76.0274 32.8997 74.9806 31.7492 74.9806C30.4526 74.9806 29.5918 76.0231 29.4974 77.2517Z" fill="white"/>
<path d="M46.4201 64.432C42.8825 65.1545 40.8604 68.7385 41.4207 72.1819C41.5516 72.9887 42.5734 73.7738 43.387 73.6895C45.5572 73.4667 47.7295 73.3888 49.9105 73.4537C50.9086 73.484 52.0914 72.4826 51.9497 71.3989C51.6814 69.3376 51.0524 65.9115 48.762 65.1588C46.0702 64.272 44.6406 67.5013 44.6835 69.6988C44.735 72.3398 48.8136 72.3484 48.762 69.6988C48.7577 69.4739 48.8093 69.2684 48.8178 69.0543C48.8243 68.8704 49.0969 68.6433 48.7685 68.8596C48.425 68.9526 48.0816 69.0456 47.7403 69.1408C47.7209 69.1343 47.6995 69.13 47.6802 69.1235C47.3796 68.9483 47.0813 68.7709 46.7807 68.5957C47.4784 69.1386 47.766 70.5662 47.8733 71.4032C48.5538 70.7176 49.2321 70.0341 49.9126 69.3484C47.7317 69.2835 45.5593 69.3614 43.3891 69.5842C44.0438 70.086 44.7007 70.59 45.3554 71.0918C45.1386 69.7551 46.3214 68.6411 47.5063 68.3989C48.586 68.1783 49.2085 66.8892 48.9316 65.8704C48.6204 64.7349 47.5041 64.2093 46.4201 64.432Z" fill="#2421FF"/>
<path d="M41.1241 70.2442C40.9052 71.012 40.8215 71.7734 40.9095 72.5693C40.9975 73.3631 41.5277 74.1115 42.4121 74.0834C44.0542 74.0315 45.6964 73.9817 47.3407 73.9298C48.59 73.8909 50.2858 74.1245 51.4149 73.4734C54.0509 71.9507 51.5716 67.9882 50.2965 66.3876C49.7835 65.7452 48.708 65.8599 48.1714 66.3876C47.5403 67.0105 47.6648 67.8952 48.1714 68.5289C48.7445 69.2492 49.1932 70.0949 49.4443 70.9817C49.4894 71.1137 49.5237 71.2499 49.5495 71.3862C49.5903 71.6782 49.7126 71.4922 49.9144 70.8303C49.7878 70.6984 48.7703 70.8563 48.5749 70.8628C46.5228 70.9276 44.4685 70.9904 42.4164 71.0553C42.9165 71.5592 43.4188 72.0654 43.919 72.5693C43.8589 72.0221 43.8761 71.5787 44.0263 71.0488C44.5565 69.1713 41.6565 68.371 41.1241 70.2442Z" fill="#2421FF"/>
<path d="M22.328 69.0435C25.7604 69.0349 29.2722 69.2447 32.696 69.0089C36.3731 68.7558 33.823 63.8113 32.5994 62.2367C30.9057 60.0608 27.9821 58.8668 25.3697 60.0802C23.0192 61.1725 21.7677 63.7962 21.3148 66.2382C21.1066 67.3651 22.3731 68.8359 23.5215 67.9491C25.1743 66.6708 27.0333 66.1517 29.1026 66.4004C29.8926 66.4956 30.631 65.6304 30.6052 64.8863C30.5086 62.1351 26.9195 61.0493 25.5994 63.6232C25.2559 64.2937 25.3697 65.3405 26.1382 65.6953C27.5828 66.3615 29.0296 66.5431 30.5795 66.1495C29.9634 65.7969 29.3473 65.4444 28.7312 65.0918C28.918 65.8705 29.3538 66.4307 30.0385 66.8287C31.715 67.8063 33.2305 65.1891 31.5562 64.2136C31.5798 64.2374 31.6055 64.2612 31.6291 64.2872C31.4359 63.4804 30.5494 63.0348 29.7809 63.2295C29.0575 63.4134 28.3427 63.3982 27.6537 63.0803C27.834 63.7702 28.0121 64.4602 28.1925 65.1524C27.9714 65.1329 27.7739 65.0464 27.5978 64.8863C28.098 64.3824 28.6003 63.8762 29.1005 63.3723C26.5911 63.0716 24.0066 63.7854 22.0017 65.3362C22.738 65.9072 23.4743 66.4761 24.2084 67.0471C24.4767 65.5958 24.9919 63.913 26.2648 63.0327C27.8189 61.9555 29.6543 63.1322 30.5322 64.5165C30.7834 64.9123 31.0023 65.3341 31.1805 65.7688C31.3308 66.1344 31.3909 66.82 31.627 67.1185C31.6957 67.5381 31.8653 67.378 32.1293 66.6405C32.7368 66.1473 32.8162 65.931 32.3697 65.9916C32.183 65.9051 31.7236 65.9938 31.5154 65.9938C30.8735 65.9959 30.2317 65.9981 29.592 65.9981C27.1685 66.0046 24.745 66.0111 22.3215 66.0176C20.3939 66.0197 20.3896 69.0478 22.328 69.0435Z" fill="#2421FF"/>
<path d="M44.896 78.3119C45.2094 78.0912 45.5249 77.8706 45.8383 77.6478C45.5163 77.4618 45.1922 77.2736 44.8702 77.0876C44.9797 78.1951 45.0892 79.3047 45.1987 80.4121C45.2802 81.2362 46.5682 81.2448 46.4866 80.4121C46.3771 79.3047 46.2677 78.1951 46.1582 77.0876C46.1152 76.6442 45.628 76.2181 45.1901 76.5274C44.8767 76.7481 44.5611 76.9687 44.2477 77.1915C43.5715 77.6651 44.2155 78.792 44.896 78.3119Z" fill="#24211D"/>
<path d="M44.7421 81.8247C45.4655 81.723 46.1868 81.6213 46.9102 81.5197C47.2579 81.4699 47.4404 81.0287 47.361 80.7216C47.2622 80.3474 46.9123 80.2197 46.5689 80.2673C45.8455 80.369 45.1242 80.4707 44.4008 80.5723C44.0531 80.6221 43.8706 81.0633 43.9501 81.3704C44.0467 81.7468 44.3987 81.8722 44.7421 81.8247Z" fill="#24211D"/>
<path d="M48.9825 76.2938C47.7031 76.5642 47.1794 77.9485 47.4713 79.136C47.7117 80.1136 48.6433 82.0192 49.8991 81.7769C50.9423 81.5758 51.436 80.1785 51.4103 79.2463C51.3802 78.0891 50.762 76.9795 49.7123 76.4755C48.9675 76.1165 48.3149 77.2347 49.0619 77.5959C49.9248 78.0112 50.4915 79.2484 49.9227 80.1417C49.7059 80.4835 49.7316 80.4943 49.4547 80.2304C49.2465 80.0314 49.0769 79.6551 48.9481 79.3998C48.6412 78.792 48.4158 77.7365 49.3238 77.544C50.1352 77.3731 49.7918 76.123 48.9825 76.2938Z" fill="#24211D"/>
<path d="M24.9671 73.0192C25.1388 72.7077 25.4457 73.2679 25.4543 73.4323C25.4779 73.8735 25.0315 74.3494 24.7631 74.65C24.2437 75.2319 23.7714 75.7402 23.4687 76.4712C23.2562 76.986 23.8444 77.3299 24.2608 77.2694C25.1431 77.1396 26.0296 77.1201 26.9183 77.1807C27.7447 77.2369 27.7426 75.9391 26.9183 75.8829C25.9073 75.8137 24.9198 75.8699 23.9195 76.017C24.1835 76.2831 24.4476 76.5491 24.7116 76.8151C25.2847 75.4265 27.3906 74.4489 26.5963 72.6406C26.1219 71.5592 24.4712 71.2499 23.8573 72.3616C23.4516 73.0949 24.5635 73.7502 24.9671 73.0192Z" fill="#24211D"/>
<path d="M29.8219 71.7473C26.8596 71.8403 27.8084 77.1482 30.3843 77.3386C31.9277 77.4532 32.6532 75.7683 32.4793 74.4467C32.2862 72.9716 31.1957 71.7819 29.7897 71.3883C28.989 71.1655 28.6477 72.4157 29.4462 72.6406C30.1009 72.8245 30.6333 73.2268 30.9531 73.8368C31.2579 74.4143 31.4876 75.6796 30.6912 75.9694C29.3561 76.4561 28.7293 73.0776 29.8219 73.0451C30.6483 73.0192 30.6505 71.7214 29.8219 71.7473Z" fill="#24211D"/>
<path d="M4.42716 77.8416C6.12941 77.8437 7.83165 77.8437 9.53604 77.8459C11.425 77.8481 13.4128 77.7529 14.0696 75.5986C14.4668 74.2987 14.1534 72.631 14.0975 71.3008C14.0246 69.4991 13.9494 67.6995 13.8764 65.8977C13.7498 62.8177 13.621 59.3678 11.0966 57.2027C8.62804 55.0851 5.16774 55.3512 3.019 57.7975C0.906755 60.1984 0.76508 63.4731 0.861677 66.5142C0.908901 68.0261 0.964713 69.538 1.01623 71.0499C1.07634 72.7997 0.833771 74.9713 2.63691 75.9382C3.89481 76.613 5.71512 76.3275 7.10181 76.3383C9.11961 76.3513 10.4269 75.4472 10.8004 73.3902C11.395 70.109 11.5839 66.737 11.3306 63.4103C11.1889 61.548 10.985 59.3786 8.85558 58.786C6.84207 58.2279 5.20852 59.8069 4.65041 61.6C4.09015 63.3995 3.90983 65.4154 3.85617 67.2907C3.82826 68.2272 3.85402 69.166 3.92701 70.0982C3.97208 70.6887 4.32413 71.8934 4.17816 72.3823C4.37135 72.0492 4.56454 71.7139 4.75774 71.3808C4.41858 71.8069 3.62004 72.1638 3.15853 72.5531C2.56822 73.0528 2.09811 73.6671 1.66021 74.3051C0.973299 75.3174 1.47775 76.8293 2.47377 77.4155C3.59214 78.0752 4.86507 77.6123 5.55841 76.6C6.23244 75.6159 7.45815 75.352 8.12573 74.3635C9.02301 73.0355 8.55291 71.5798 8.43914 70.0982C8.3361 68.7658 8.32751 67.4226 8.4327 66.0881C8.48422 65.4219 8.57223 64.7687 8.70102 64.1133C8.76327 63.7932 8.88133 63.4558 8.91568 63.1357C9.01013 62.2618 9.36646 63.3195 8.26097 63.246C7.88102 63.1421 7.50322 63.0383 7.12328 62.9367C6.81632 62.7333 6.67893 62.4824 6.71328 62.1861C6.74333 62.4565 6.76909 62.729 6.7927 63.0015C6.83993 63.5444 6.87642 64.0895 6.89789 64.6346C6.93867 65.5884 6.94511 66.5445 6.91506 67.4983C6.85925 69.2655 6.88286 71.463 6.21956 73.1155C6.41276 72.7824 6.60595 72.4472 6.79914 72.1141C7.12972 71.7291 7.96045 71.8048 6.90003 71.794C6.55873 71.7896 6.21742 71.7853 5.87611 71.781C5.60349 71.7788 5.33088 71.7745 5.05611 71.7723C4.85219 71.7702 4.64611 71.768 4.44219 71.7658C4.07297 71.742 4.16528 71.7896 4.71695 71.9086C4.98742 72.1811 5.25574 72.4515 5.52622 72.724C5.60135 73.2518 5.62067 73.2431 5.58203 72.7002C5.57559 72.4947 5.567 72.2871 5.56056 72.0816C5.54339 71.6014 5.52836 71.1191 5.51119 70.6389C5.48328 69.8148 5.45538 68.9908 5.42747 68.1645C5.37381 66.5985 5.22569 64.9806 5.40601 63.419C5.57559 61.9504 6.91935 58.879 8.48422 61.0008C9.3128 62.1234 9.27631 63.7391 9.33212 65.0672C9.4094 66.8667 9.48023 68.6685 9.55322 70.4702C9.58756 71.3008 9.62191 72.1335 9.65625 72.9641C9.67343 73.3816 9.60259 73.9418 9.70992 74.3441C9.6906 75.0016 10.0577 74.6555 10.8111 73.308C10.5278 73.308 10.2444 73.308 9.95892 73.308C8.115 73.3059 6.26894 73.3037 4.42502 73.3037C1.52497 73.2972 1.52068 77.8394 4.42716 77.8416Z" fill="white"/>
<path d="M1.99433 63.6782C5.3473 63.7279 8.70028 63.7798 12.0532 63.8296C12.914 63.8426 13.4915 63.1223 13.5559 62.3155C13.8177 59.0732 11.6111 55.6644 8.34609 55.0437C5.21636 54.4467 1.72601 56.6443 1.26234 59.906C2.22831 59.906 3.19428 59.906 4.16024 59.906C3.79317 57.8187 6.80484 57.6781 7.39086 59.4647C7.74075 58.844 8.09064 58.2232 8.44054 57.6024C7.35222 57.8966 6.2918 57.9853 5.16914 57.9074C3.23291 57.7712 3.25653 60.7777 5.16914 60.9356C6.31756 61.0307 7.33075 60.596 8.16578 59.8195C8.9042 59.1316 8.64446 57.9463 7.86096 57.4424C6.47212 56.5448 4.66254 57.0444 3.85328 58.4655C3.46045 59.1533 3.67082 60.1482 4.39207 60.5376C5.29149 61.0199 6.20165 61.2665 7.22342 61.2622C9.1575 61.2535 9.15965 58.2297 7.22342 58.234C5.255 58.2383 3.42825 58.6926 1.65732 59.5513C0.227689 60.2412 1.04339 62.3004 2.41721 62.3696C4.52731 62.4777 6.6374 62.6032 8.74965 62.6919C10.6408 62.7719 12.4246 61.4676 11.4329 59.428C10.5828 57.6781 7.98976 59.2117 8.83766 60.9572C8.98792 60.5332 9.13818 60.1093 9.29059 59.6832C9.17897 59.681 9.06734 59.6767 8.95357 59.6745C8.68954 59.5837 8.22373 59.6378 7.9318 59.6226C7.32002 59.5924 6.70609 59.5599 6.09432 59.5296C4.86861 59.4669 3.64291 59.4042 2.41721 59.3415C2.67051 60.2823 2.9238 61.2232 3.17496 62.1619C4.45647 61.5412 5.80667 61.2622 7.22342 61.2578C7.22342 60.2477 7.22342 59.2398 7.22342 58.2297C6.72971 58.2319 6.34761 58.154 5.90971 57.9204C6.09002 58.6104 6.26819 59.3004 6.4485 59.9925C6.46138 59.9687 6.2961 60.0228 6.34547 60.0552C6.24458 59.2636 6.14369 58.4698 6.04065 57.6781C5.76374 57.9355 5.53191 57.9377 5.16914 57.9074C5.16914 58.9175 5.16914 59.9255 5.16914 60.9356C6.5451 61.0329 7.90818 60.8836 9.23907 60.5224C9.99467 60.3169 10.5421 59.4366 10.2888 58.6601C9.52671 56.3285 7.19122 54.6846 4.7205 55.2081C2.23046 55.738 0.841613 58.3032 1.26449 60.7106C1.51564 62.1338 3.95417 62.1792 4.16239 60.7106C4.40924 58.9759 6.05568 57.6587 7.82232 58.0199C9.73923 58.4114 10.6988 60.5181 10.5528 62.3177C11.0529 61.8137 11.5552 61.3076 12.0554 60.8036C8.70028 60.7517 5.3473 60.6998 1.99433 60.65C0.0602547 60.6198 0.058108 63.6479 1.99433 63.6782Z" fill="#2421FF"/>
<path d="M3.91934 66.722C4.72646 66.7977 5.53143 66.8713 6.33855 66.947C7.16284 67.0248 7.15855 65.7249 6.33855 65.6492C5.53143 65.5735 4.72646 65.5 3.91934 65.4243C3.09505 65.3464 3.09935 66.6442 3.91934 66.722Z" fill="#24211D"/>
<path d="M3.79203 67.0527C3.56449 67.7232 3.48721 68.3937 3.5602 69.0967C3.60742 69.5574 4.07967 69.9446 4.52831 69.6569C4.94475 69.3909 5.36548 69.2654 5.8592 69.3454C5.70894 69.194 5.55867 69.0426 5.40841 68.8912C5.53506 69.4384 5.65956 70.1349 5.32255 70.6346C5.07569 71.0023 4.5648 71.1948 4.23423 70.8271C3.67611 70.2063 2.76811 71.1277 3.32407 71.7441C4.01313 72.5098 5.19161 72.4709 5.96438 71.8393C6.94108 71.0412 6.91317 69.6677 6.65129 68.543C6.60406 68.344 6.41087 68.1234 6.2005 68.0888C5.35904 67.9525 4.60344 68.0693 3.87575 68.5322C4.19774 68.7182 4.52187 68.9064 4.84386 69.0924C4.78161 68.4932 4.83527 67.9633 5.02847 67.3923C5.30108 66.6071 4.05821 66.2654 3.79203 67.0527Z" fill="#24211D"/>
<path d="M10.5209 66.8801C9.54205 65.9933 8.14891 66.6746 7.85483 67.875C7.59509 68.9392 7.89132 70.5419 9.06765 70.9075C10.0701 71.2189 11.2572 70.5246 11.5706 69.534C11.987 68.2189 11.1219 66.986 10.1259 66.2355C9.46262 65.7359 8.81865 66.8606 9.4755 67.3559C10.1002 67.8253 11.0039 69.3155 9.75885 69.653C9.27372 69.7849 9.14707 69.3458 9.09126 68.9392C9.0655 68.7575 9.13634 67.3711 9.60644 67.7972C10.2247 68.353 11.1391 67.4381 10.5209 66.8801Z" fill="#24211D"/>
<g clip-path="url(#clip0)">
<path d="M85.7682 43.5182C85.5612 45.6527 84.2746 47.5667 82.4552 48.6748C81.146 49.4726 81.5906 51.1378 82.8465 51.6581C89.3619 54.3619 94.0169 60.1326 98.3604 65.43C98.3604 64.6607 98.3604 63.8914 98.3604 63.1221C97.3462 64.0363 96.3587 65.0055 95.3035 65.8728C94.8651 66.234 94.7565 66.2279 94.1972 66.0034C93.6091 65.7687 93.0416 65.4647 92.4761 65.181C90.3412 64.1097 88.2452 62.8956 86.3644 61.4162C82.7133 58.5471 79.8695 54.7149 79.0213 50.095C78.6402 50.7643 78.2571 51.4336 77.876 52.103C78.9906 51.8234 80.1072 51.5459 81.2218 51.2663C80.6051 50.4664 79.9883 49.6685 79.3716 48.8686C78.8471 49.8848 78.3226 50.9011 77.7981 51.9173C77.0892 53.2906 78.2509 54.5047 79.6482 54.3149C80.9984 54.1313 82.1765 53.4967 83.1764 52.5886C82.2626 52.0601 81.3508 51.5296 80.437 51.001C80.2506 51.5091 79.974 51.956 79.6605 52.3968C78.6791 53.7742 80.5641 55.4128 81.904 54.6312C82.3466 54.3721 82.7891 54.115 83.2337 53.8558C82.4859 53.111 81.7381 52.3662 80.9902 51.6214C80.5682 52.3233 80.1461 53.0273 79.724 53.7293C78.8328 55.2108 80.5579 56.6494 81.9675 55.9637C82.7748 55.5699 83.5841 55.1761 84.3913 54.7822C83.6435 54.0374 82.8957 53.2926 82.1478 52.5478C81.7504 53.4089 81.3529 54.268 80.9554 55.1291C80.3367 56.4698 81.7073 58.3696 83.1989 57.3636C84.5286 56.4657 85.8604 55.5679 87.1901 54.67C86.3869 54.0558 85.5858 53.4416 84.7827 52.8274C84.4651 53.6273 84.0184 54.4109 83.4837 55.0863C82.2155 56.6922 84.2848 58.9389 85.8009 57.3942C86.2251 56.9636 86.6471 56.531 87.0712 56.1004C86.2128 55.4413 85.3543 54.7822 84.4979 54.1231C84.0553 54.8679 83.6128 55.6128 83.1702 56.3576C82.3097 57.8084 83.998 59.3368 85.4137 58.592C86.2988 58.1247 87.1839 57.6595 88.069 57.1922C87.3212 56.4473 86.5734 55.7025 85.8255 54.9577C85.3338 55.8331 84.7437 56.5555 83.9939 57.2228C84.7663 57.9921 85.5387 58.7614 86.3111 59.5307C86.9975 58.7532 87.7842 57.8941 88.7513 57.4738C88.4747 57.5472 88.2002 57.6227 87.9236 57.6962C87.7474 57.7166 87.944 57.7554 88.0793 57.9064C88.2801 58.1308 88.489 58.3471 88.6857 58.5777C89.0279 58.9777 89.3291 59.4001 89.6221 59.8368C90.4805 59.1777 91.339 58.5185 92.1954 57.8594C91.2693 56.8024 90.0523 56.0821 88.6919 55.7352C86.7742 55.2475 86.0202 57.6472 87.4298 58.7185C88.5526 59.5735 89.6774 60.4285 90.8002 61.2835C91.257 61.6304 93.2342 62.7527 93.1707 63.3057C93.9923 62.8364 94.8159 62.365 95.6375 61.8957C91.6873 60.0327 87.7371 58.1696 83.789 56.3066C81.8774 55.4046 80.4022 57.9125 82.1335 59.1266C85.2129 61.2835 88.276 63.4669 91.3738 65.5994C92.7199 66.5278 94.316 67.3236 95.996 66.8788C97.5552 66.4666 98.6411 65.2116 98.7046 63.6016C98.7886 61.4998 95.5105 61.5039 95.4265 63.6016C95.4326 63.4588 95.5146 63.522 95.3937 63.6098C95.281 63.6935 95.1335 63.7506 94.9921 63.7628C94.5885 63.8016 94.0947 63.4649 93.7669 63.269C92.6154 62.5813 91.5418 61.7406 90.4437 60.9713C88.2247 59.4164 86.0038 57.8615 83.7849 56.3066C83.2337 57.2473 82.6826 58.1859 82.1294 59.1266C86.0796 60.9897 90.0298 62.8527 93.9779 64.7158C95.1786 65.2831 96.2952 64.5791 96.4447 63.3057C96.6578 61.4855 94.9962 60.4 93.7362 59.4409C92.1852 58.2594 90.6321 57.0799 89.0812 55.8984C88.6611 56.8922 88.2391 57.888 87.8191 58.8818C88.6755 59.1001 89.2983 59.5082 89.8761 60.1673C91.0911 61.5549 93.4862 59.7327 92.4495 58.19C91.5603 56.8657 90.1875 54.6149 88.4317 54.4292C86.6861 54.2435 85.0429 56.0331 83.9898 57.2228C82.5965 58.8001 84.7273 60.9387 86.307 59.5307C87.2474 58.692 88.0342 57.7023 88.6509 56.6045C89.4684 55.1495 87.8478 53.6109 86.4074 54.37C85.5223 54.8373 84.6372 55.3026 83.7521 55.7699C84.4999 56.5147 85.2478 57.2595 85.9956 58.0043C86.4381 57.2595 86.8807 56.5147 87.3232 55.7699C88.2657 54.1823 86.0611 52.456 84.7499 53.7926C84.3258 54.2231 83.9037 54.6557 83.4796 55.0863C84.252 55.8556 85.0244 56.6249 85.7968 57.3942C86.7086 56.2413 87.395 55.0598 87.9379 53.6946C88.4604 52.3784 86.6615 51.0867 85.5305 51.852C84.2008 52.7498 82.869 53.6477 81.5393 54.5455C82.2872 55.2903 83.035 56.0352 83.7828 56.78C84.1803 55.9188 84.5778 55.0598 84.9753 54.1986C85.6657 52.707 84.2623 51.2194 82.7318 51.9642C81.9245 52.358 81.1152 52.7519 80.308 53.1457C81.0558 53.8905 81.8036 54.6353 82.5515 55.3801C82.9735 54.6782 83.3956 53.9742 83.8177 53.2722C84.6638 51.8663 82.9817 50.2175 81.5742 51.0378C81.1316 51.2969 80.6891 51.554 80.2445 51.8132C80.9923 52.558 81.7401 53.3028 82.4879 54.0476C82.9715 53.3681 83.3075 52.6519 83.5943 51.8724C84.1926 50.244 81.9716 49.2686 80.855 50.2848C80.2506 50.8337 79.5745 51.0623 78.7734 51.1725C79.3901 51.9724 80.0068 52.7702 80.6235 53.5701C81.148 52.5539 81.6725 51.5377 82.197 50.5215C82.8465 49.2604 81.7749 47.7667 80.3469 48.1238C79.2323 48.4034 78.1157 48.6809 77.0011 48.9605C76.0873 49.189 75.7001 50.1154 75.8558 50.9684C76.8966 56.6351 80.6604 61.2754 85.215 64.626C87.5302 66.3299 90.0933 67.7644 92.7302 68.9133C94.1418 69.5275 95.5863 69.6866 96.9078 68.7561C98.26 67.8011 99.4463 66.538 100.676 65.432C101.378 64.7994 101.212 63.7792 100.676 63.1241C95.8936 57.2901 90.8575 51.4745 83.7152 48.5115C83.8463 49.5053 83.9754 50.5011 84.1065 51.4949C86.9811 49.742 88.7206 46.8383 89.0422 43.5182C89.1283 42.6387 88.2288 41.8858 87.4032 41.8858C86.4484 41.8858 85.8522 42.6367 85.7682 43.5182Z" fill="#7560EC"/>
<path d="M66.5249 23.5572C65.6275 24.9183 64.5703 26.1161 63.3574 27.2078C64.2159 27.8669 65.0744 28.526 65.9308 29.1852C66.9552 27.7608 67.9796 26.3345 69.0041 24.9101C68.2562 25.106 67.5084 25.2999 66.7606 25.4958C69.2622 26.6895 71.8684 27.5731 74.5974 28.0771C74.1959 27.5527 73.7943 27.0283 73.3948 26.5038C73.5218 28.0057 73.6468 29.5096 73.7738 31.0115C73.8332 31.7298 73.8947 32.448 73.9541 33.1684C73.9951 33.6683 74.2041 34.8151 74.118 35.0518C74.37 34.7274 74.62 34.4009 74.872 34.0764C74.8126 34.1111 74.7531 34.1438 74.6937 34.1785C74.9703 34.105 75.2449 34.0295 75.5215 33.956C75.4866 33.954 74.8023 33.5275 74.6056 33.4255C74.1795 33.201 73.7554 32.9684 73.3374 32.7276C72.4482 32.2175 71.5774 31.6747 70.7271 31.0992C69.0901 29.9912 67.5617 28.7526 66.1111 27.4119C65.7238 28.3404 65.3387 29.2688 64.9514 30.1993C66.0004 30.2014 66.9265 30.4524 67.8321 30.9788C68.791 31.5379 69.9015 30.9911 70.2395 30.0034C70.5366 29.1423 70.6575 28.2526 70.6063 27.3446C70.5018 25.4815 68.0022 25.1591 67.3875 26.9099C67.2093 27.4139 67.1417 27.9404 67.199 28.473C68.2726 28.3281 69.3462 28.1832 70.4178 28.0383C70.3604 27.7955 70.303 27.5547 70.2457 27.3119C70.0613 26.5304 69.2192 26.0263 68.4468 26.1426C67.576 26.2732 67.1294 26.914 67.0249 27.7465C66.8712 28.9668 67.8075 30.083 68.9918 30.285C70.2436 30.4993 71.3254 29.628 71.6635 28.473C70.6104 28.473 69.5552 28.473 68.5021 28.473C68.5861 28.8995 68.6721 29.326 68.7561 29.7504C68.9877 30.9115 70.719 31.3788 71.4955 30.4707C71.9565 29.932 72.2781 29.4015 72.4666 28.7097C71.4135 28.7097 70.3584 28.7097 69.3052 28.7097C69.4732 29.7545 69.8441 30.734 70.3625 31.6563C70.8849 32.5848 72.1941 32.7072 72.9358 31.9869C73.5812 31.3604 74.0299 30.5911 74.1692 29.6973C73.0956 29.5525 72.022 29.4076 70.9505 29.2627C70.9771 29.6076 71.0037 29.9545 71.0304 30.2993C71.1902 32.3848 74.1897 32.4134 74.3085 30.2993C74.3454 29.6565 74.3803 29.0158 74.4171 28.373C73.3435 28.5179 72.2699 28.6628 71.1984 28.8076C71.2803 29.3158 71.3623 29.8239 71.4442 30.332C71.4852 30.587 71.5262 30.8401 71.5672 31.0951C71.5651 31.5461 71.6225 31.5992 71.7393 31.2543C71.936 31.0584 72.1306 30.8645 72.3273 30.6687C72.2679 30.6952 72.2085 30.7238 72.147 30.7503C72.8088 30.836 73.4706 30.9196 74.1323 31.0054C74.0156 30.8911 73.8988 30.7768 73.784 30.6625C72.2822 29.1852 69.9609 31.493 71.4668 32.9704C71.5836 33.0847 71.7004 33.199 71.8151 33.3132C72.3765 33.8642 73.1264 33.8764 73.8004 33.5683C75.7673 32.6705 74.6118 29.5198 74.3577 27.9404C74.0504 26.0386 71.2373 26.6344 71.139 28.375C71.1021 29.0178 71.0673 29.6586 71.0304 30.3013C72.1224 30.3013 73.2165 30.3013 74.3085 30.3013C74.2819 29.9565 74.2553 29.6096 74.2286 29.2647C74.1672 28.4567 73.6529 27.7608 72.8067 27.6608C72.0773 27.5751 71.1349 28.0179 71.0078 28.8301C70.9464 29.228 70.9115 29.3933 70.6186 29.679C71.477 29.7892 72.3355 29.8994 73.1919 30.0095C72.8006 29.3137 72.5916 28.6301 72.4646 27.8425C72.2003 26.1937 69.6966 26.3855 69.3032 27.8425C69.3032 27.9649 69.2602 28.073 69.1762 28.1628C70.09 28.4036 71.0017 28.6424 71.9155 28.8831C71.8315 28.4567 71.7454 28.0302 71.6614 27.6057C71.3357 25.9651 68.9283 26.1406 68.5 27.6057C68.4857 27.618 68.4714 27.6282 68.457 27.6404C68.6537 27.4445 68.8483 27.2507 69.045 27.0548C69.17 27.0425 69.295 27.0283 69.422 27.016C69.6638 27.1568 69.9035 27.2956 70.1453 27.4364C70.1965 27.5404 70.2498 27.6445 70.301 27.7486C69.2274 27.8935 68.1538 28.0383 67.0822 28.1832C67.1396 28.4261 67.197 28.6668 67.2543 28.9097C67.6682 30.6605 70.6759 30.332 70.4731 28.475C70.4362 28.1363 70.4321 28.1036 70.5448 27.7812C69.4712 27.6364 68.3976 27.4915 67.326 27.3466C67.3629 27.9996 67.2871 28.524 67.0761 29.1382C67.8792 28.8138 68.6803 28.4873 69.4835 28.1628C68.0882 27.3507 66.5639 26.9405 64.9473 26.9385C63.5664 26.9364 62.7325 28.7505 63.7877 29.7259C66.8692 32.5644 70.4075 35.162 74.243 36.8965C75.1793 37.3189 76.2939 37.3699 76.9864 36.4761C77.6277 35.6477 77.3449 34.5213 77.265 33.5622C77.0684 31.2094 76.8696 28.8587 76.6729 26.5059C76.6176 25.8366 76.2078 25.0693 75.4702 24.9326C73.028 24.4796 70.6595 23.749 68.4181 22.6798C67.5617 22.2717 66.7278 22.4982 66.1746 23.2654C65.1502 24.6898 64.1257 26.1161 63.1013 27.5404C61.9724 29.1117 64.3593 30.7033 65.6747 29.5178C67.0904 28.2444 68.3095 26.7936 69.3544 25.206C70.5161 23.443 67.6785 21.8064 66.5249 23.5572Z" fill="#68DAEC"/>
<path d="M63.3389 22.4105C62.6362 23.4083 61.833 24.3225 60.9582 25.1755C59.5424 26.5569 61.7162 28.72 63.132 27.3405C64.1933 26.306 65.1399 25.1673 65.9922 23.9572C66.4696 23.2798 66.1151 22.2554 65.4411 21.8636C64.6727 21.4147 63.8163 21.733 63.3389 22.4105Z" fill="#E295E0"/>
<path d="M61.7093 18.0498C62.4182 19.6353 63.2808 21.127 64.299 22.535C64.7518 23.1594 65.5468 23.4634 66.2618 23.0471C66.8826 22.686 67.231 21.7228 66.7761 21.0923C65.7578 19.6843 64.8973 18.1906 64.1864 16.6071C63.8708 15.9031 62.8403 15.7357 62.2236 16.0949C61.4942 16.5193 61.3917 17.3417 61.7093 18.0498Z" fill="#E5BAE0"/>
<path d="M58.5202 21.0983C59.6471 21.6289 60.733 22.2635 61.7062 23.043C62.3516 23.5613 63.249 23.6715 63.88 23.043C64.4189 22.5063 64.5295 21.4003 63.88 20.8779C62.6958 19.927 61.4501 19.1047 60.0732 18.4558C59.3234 18.1028 58.4157 18.2476 57.9711 19.0047C57.5777 19.6699 57.7683 20.7412 58.5202 21.0983Z" fill="#E5BAE0"/>
<path d="M57.9056 23.3817C58.6924 24.1388 59.596 24.6714 60.6183 25.0468C61.3744 25.3243 62.3353 24.7367 62.5094 23.9776C62.7082 23.1124 62.2451 22.392 61.4358 22.0941C61.2699 22.0308 61.2678 22.0329 61.4276 22.1002C61.3457 22.0635 61.2637 22.0268 61.1838 21.986C61.024 21.9064 60.8662 21.8186 60.7146 21.7227C60.6614 21.6901 60.2229 21.3636 60.479 21.5717C60.3397 21.4574 60.2086 21.3391 60.0774 21.2146C59.4997 20.6575 58.4732 20.5984 57.9036 21.2146C57.3504 21.8207 57.2869 22.7879 57.9056 23.3817Z" fill="#E5BAE0"/>
<path d="M56.809 25.6652C57.7638 27.1038 59.452 28.0547 61.2161 27.8282C62.0397 27.7221 62.7527 27.1997 62.7527 26.2977C62.7527 25.5529 62.0459 24.6612 61.2161 24.7673C60.8002 24.8204 60.4498 24.8061 60.2429 24.7265C59.8618 24.5796 59.6344 24.3796 59.4623 24.1204C59.0054 23.4307 58.1039 23.1369 57.3601 23.5715C56.6717 23.9715 56.348 24.9714 56.809 25.6652Z" fill="#E5BAE0"/>
<path d="M77.0537 37.1699C78.9018 37.5903 80.7498 38.0127 82.5979 38.4331C83.5219 38.6432 84.446 38.8534 85.37 39.0656C86.0891 39.2289 87.2939 39.2656 87.8757 39.7023C87.6237 39.3779 87.3738 39.0514 87.1218 38.7269C87.4127 39.5023 86.7427 40.9756 86.3903 41.6674C85.8638 42.6958 85.1549 43.608 84.2493 44.3344C82.3623 45.8485 79.7541 46.3893 77.3959 45.9506C76.2915 45.7465 75.4105 46.4056 75.3204 47.5238C75.2937 47.8605 75.2671 48.1972 75.2405 48.5339C75.0745 50.6296 78.3527 50.6174 78.5186 48.5339C78.5453 48.1972 78.5719 47.8605 78.5985 47.5238C77.906 48.0483 77.2156 48.5727 76.523 49.0971C81.93 50.0991 87.4701 47.5953 89.6255 42.4183C90.0926 41.296 90.443 40.0247 90.4368 38.7983C90.4266 36.9353 88.9596 36.5353 87.4271 36.1864C84.2595 35.464 81.092 34.7417 77.9224 34.0213C75.8715 33.552 74.9946 36.7006 77.0537 37.1699Z" fill="#9568EC"/>
<path d="M76.1208 34.76C73.99 36.6332 71.8572 38.5065 69.7264 40.3797C68.8126 41.1817 67.8988 41.9857 66.985 42.7876C66.0015 43.6528 64.9218 44.4772 64.092 45.4975C62.3976 47.5789 62.623 49.8623 63.8933 52.1069C65.1 54.2393 66.5301 56.2677 68.0258 58.2062C70.8983 61.9323 74.1642 65.3625 77.8419 68.3132C79.7022 69.8069 81.9683 71.1537 84.3716 70.0192C85.1768 69.6376 85.8365 69.0131 86.2135 68.2071C86.8056 66.944 86.4102 65.7401 85.8652 64.5484C83.3021 58.947 80.6119 53.3986 77.9853 47.8258C77.6247 47.0585 76.4302 46.7831 75.7418 47.2402C74.5965 48.0013 73.4163 48.7073 72.1973 49.342C71.642 49.6297 71.0807 49.9052 70.5131 50.1643C69.9722 50.4112 69.1568 50.9295 68.5544 50.9214C68.831 50.9948 69.1056 51.0703 69.3822 51.1438C68.4602 50.654 68.8474 48.789 69.1506 48.0666C69.7141 46.7259 70.8799 45.675 71.9248 44.7098C74.0535 42.7427 76.2724 40.6674 79.2617 40.2532C78.7311 39.3431 78.1984 38.435 77.6677 37.5249C74.2359 40.3695 71.2446 43.6651 68.6896 47.3116C67.6755 48.7604 69.5932 50.2031 70.9331 49.546C75.1681 47.4667 79.1163 44.9159 82.796 41.9734C84.0765 40.949 82.6956 38.7371 81.202 39.2452C77.0715 40.6491 73.1889 42.6468 69.6895 45.2465C70.3513 46.1015 71.013 46.9565 71.6748 47.8095C72.9881 46.5484 74.4654 45.5261 76.1106 44.7364C76.8871 44.3629 77.6964 44.0691 78.5241 43.8303C79.1286 43.6569 80.2964 43.1753 80.8967 43.3916C80.6549 43.2508 80.4152 43.1121 80.1735 42.9713C80.2329 43.0304 80.2903 43.0896 80.3497 43.1508C80.2083 42.91 80.069 42.6713 79.9276 42.4305C79.8067 42.0285 79.8395 42.608 79.7801 42.8101C79.7125 43.0406 79.6449 43.308 79.5076 43.5079C79.233 43.914 78.8683 43.914 78.393 43.9303C77.1145 43.9773 75.9159 44.0875 74.7174 44.569C72.2608 45.5546 70.3287 47.3993 68.5134 49.2664C67.4153 50.3949 68.5032 52.5089 70.1074 51.9947C71.1421 51.6641 72.1747 51.3336 73.2094 51.003C72.6788 50.0929 72.1461 49.1848 71.6154 48.2747C70.6258 49.0501 69.8186 49.9378 69.0564 50.9316C68.0791 52.2049 69.6895 53.5231 70.9065 53.3292C72.8324 53.0232 74.7563 52.7171 76.6822 52.4089C76.1516 51.4988 75.6189 50.5908 75.0882 49.6807C74.3568 50.603 73.6274 51.5274 72.8959 52.4498C71.8551 53.7639 72.8181 55.4392 74.4899 55.178C75.7377 54.9842 76.9137 54.5291 77.9853 53.868C77.4341 52.9273 76.883 51.9886 76.3298 51.0479C74.4879 52.3151 72.2813 52.9068 70.0542 52.5028C68.8085 52.2783 67.2821 53.6333 68.2041 54.9005C71.7322 59.755 77.3501 62.6282 80.7226 67.5786C81.7285 69.056 84.2445 68.1826 83.718 66.3216C83.0808 64.0627 82.1936 61.867 81.0606 59.8081C80.4992 58.7898 79.8764 57.8042 79.1941 56.8635C78.5241 55.9392 77.8152 54.8168 76.8277 54.1985C75.8422 53.5843 74.6231 53.5394 73.6888 54.2802C72.7382 55.0352 72.4472 56.335 73.15 57.3574C73.7954 58.2981 75.1046 58.5572 76.1147 58.0675C77.2887 57.4961 77.68 56.3146 77.7312 55.0882C76.6392 55.0882 75.5451 55.0882 74.4531 55.0882C74.4408 56.4534 74.5965 57.8042 74.8956 59.1367C75.1804 60.4121 77.3317 60.8345 77.891 59.5265C78.5077 58.0818 78.8479 56.6289 78.768 55.0495C77.6944 55.1943 76.6208 55.3392 75.5492 55.4841C75.6107 55.78 75.6701 56.0759 75.7316 56.3697C76.1557 58.4266 79.315 57.5553 78.8929 55.5025C78.8315 55.2066 78.7721 54.9107 78.7106 54.6169C78.3418 52.8211 75.3996 53.2129 75.4918 55.0515C75.541 56.0167 75.4468 56.9819 75.0616 57.8818C76.0594 58.0124 77.0592 58.1409 78.057 58.2715C77.8214 57.2166 77.723 56.1718 77.7312 55.0903C77.7497 52.9823 74.5412 52.9966 74.4531 55.0903C74.4367 55.4759 74.494 55.3066 74.2605 55.6106C74.4572 55.4147 74.6518 55.2209 74.8485 55.025C75.0964 55.0882 75.3464 55.1535 75.5943 55.2168C75.7357 55.4576 75.875 55.6963 76.0163 55.9371C75.9959 55.8636 75.9754 55.7922 75.9569 55.7188C75.9569 56.0085 75.9569 56.2983 75.9569 56.586C75.8955 56.9962 74.9981 56.5391 75.1681 57.0349C75.2173 57.1798 75.5513 57.4614 75.6619 57.5981C75.9795 57.9859 76.2765 58.3878 76.5654 58.798C77.1678 59.653 77.7251 60.5427 78.2291 61.4589C79.233 63.2791 79.9932 65.1932 80.5566 67.193C81.5544 66.7746 82.5542 66.3543 83.552 65.936C80.155 60.9447 74.5555 58.1042 71.0335 53.2578C70.4168 54.0577 69.8001 54.8556 69.1834 55.6555C72.2587 56.2105 75.3935 55.6535 77.9853 53.87C79.6981 52.6905 78.1472 49.9296 76.3298 51.0499C75.4775 51.5764 74.6067 51.8764 73.6171 52.0314C74.1478 52.9415 74.6805 53.8496 75.2111 54.7597C75.9426 53.8374 76.672 52.913 77.4034 51.9906C78.4422 50.6785 77.4833 48.9951 75.8094 49.2624C73.8835 49.5685 71.9596 49.8745 70.0337 50.1827C70.6504 50.9826 71.2671 51.7804 71.8838 52.5804C72.4657 51.8233 73.1807 51.1703 73.9306 50.5826C75.2378 49.5562 73.82 47.3789 72.3366 47.8544C71.3019 48.1849 70.2693 48.5155 69.2346 48.8461C69.7653 49.7562 70.298 50.6642 70.8286 51.5743C72.5661 49.7868 74.6211 47.5564 77.2498 47.234C78.6553 47.0626 79.9911 47.2789 81.2163 46.3994C82.3125 45.6138 82.8534 44.2711 83.1156 42.9917C83.4332 41.4408 82.4764 40.0532 80.8107 40.0777C79.4482 40.0981 77.9709 40.5409 76.6966 40.9878C73.9409 41.951 71.4576 43.4834 69.3555 45.5016C68.0524 46.7525 69.8186 49.1971 71.3409 48.0645C74.6108 45.6342 78.2066 43.7059 82.0707 42.3917C81.5401 41.4816 81.0074 40.5736 80.4767 39.6635C77.0223 42.4264 73.2483 44.7751 69.2777 46.7239C70.0255 47.4687 70.7733 48.2135 71.5212 48.9583C73.9142 45.5444 76.7744 42.4958 79.987 39.8328C80.5382 39.3758 80.5853 38.4371 80.2431 37.8555C79.8436 37.176 79.1224 37.0046 78.393 37.1046C75.6004 37.4923 73.2688 39.1697 71.1954 40.9694C69.0974 42.7917 66.7637 44.7711 65.8868 47.4973C65.4893 48.7318 65.4217 50.1684 65.8253 51.4111C66.2495 52.7191 67.2104 54.1822 68.7388 54.1863C70.1996 54.1904 71.9043 53.1313 73.1889 52.4967C74.6477 51.7764 76.0491 50.954 77.4034 50.0562C76.6556 49.8603 75.9078 49.6664 75.1599 49.4705C77.1002 53.5904 79.0425 57.7104 80.9828 61.8303C81.4683 62.8608 81.9539 63.8913 82.4395 64.9197C82.6526 65.3748 82.8943 65.8258 83.0849 66.291C83.1505 66.4502 83.2386 66.6093 83.2447 66.7848C83.2508 66.9971 83.3574 66.7053 83.2488 66.8624C82.3575 68.1479 80.0137 65.887 79.3498 65.3319C76.3011 62.771 73.5044 59.902 71.0376 56.7799C69.7817 55.1903 68.622 53.5231 67.5484 51.807C67.0731 51.0499 66.5158 50.2684 66.2269 49.4175C65.9093 48.4869 66.3007 47.8687 66.9563 47.2055C68.6814 45.4567 70.6606 43.9079 72.5067 42.2856C74.4858 40.545 76.465 38.8064 78.4442 37.0658C80.0239 35.6762 77.6964 33.3744 76.1208 34.76Z" fill="#9568EC"/>
<path d="M81.5155 17.0009C77.3277 18.7619 75.3259 23.2307 74.7379 27.4609C74.4777 29.3239 73.5639 32.9704 76.1619 33.4928C77.3891 33.7397 78.6451 33.7846 79.8723 34.0621C81.0955 34.3376 82.292 34.7049 83.4681 35.1396C84.3225 35.4559 85.2321 34.7804 85.4842 33.9989C86.568 30.6401 87.1089 27.1262 87.1028 23.5981C87.1007 22.0268 84.8224 21.3126 84.0479 22.7737C82.96 24.8285 81.872 26.8813 80.7841 28.9362C81.8024 29.2117 82.8206 29.4851 83.8389 29.7606C84.0868 27.1813 84.3327 24.602 84.5806 22.0227C84.7425 20.3413 82.3064 19.8964 81.5258 21.1983C80.3374 23.1777 79.4687 25.3305 78.9668 27.5813C80.0199 27.871 81.075 28.1608 82.1281 28.4485C82.5277 26.4773 82.9272 24.5082 83.3267 22.537C83.6177 21.1004 81.7122 19.574 80.5874 20.9494C78.6984 23.2593 77.2744 25.8141 76.3545 28.6546C76.082 29.4933 76.672 30.436 77.4998 30.6625C78.4279 30.9176 79.1921 30.3463 79.5158 29.5219C80.5628 26.8548 81.911 24.3225 83.4865 21.9309C82.542 21.382 81.5995 20.8331 80.655 20.2821C79.6265 22.0982 78.7967 24.0388 78.2415 26.0529C77.9895 26.9691 77.6657 28.0016 77.7415 28.9525C77.7805 29.4586 77.9874 29.9443 78.3419 30.3156C78.6389 30.6279 79.0569 30.787 79.3171 31.1196C79.1757 30.8788 79.0364 30.6401 78.895 30.3993C78.9217 30.4748 78.9463 30.5503 78.9729 30.6238C78.9729 30.334 78.9729 30.0442 78.9729 29.7565C78.9586 29.832 78.9442 29.9075 78.9299 29.983C79.0712 29.7422 79.2106 29.5035 79.3519 29.2627C78.8623 29.8586 77.4342 30.4258 76.6126 30.7646C75.078 31.3951 75.0534 33.2867 76.6126 33.9132C78.6676 34.7376 80.8619 35.6824 83.0419 36.115C85.6665 36.6353 86.2853 33.4132 86.7012 31.5216C87.2011 29.2525 86.945 27.1181 86.5291 24.8612C86.0947 22.5084 85.6358 20.1638 84.9023 17.8824C84.261 15.8887 81.0935 16.7417 81.7409 18.7496C82.5502 21.2636 83.0399 23.8633 83.5009 26.4589C83.7078 27.62 83.8471 28.8015 83.6709 29.9769C83.5828 30.5626 83.4312 31.14 83.2693 31.7094C83.1874 32.0012 83.0972 32.293 83.0071 32.5827C82.9702 32.699 82.9333 32.8154 82.8965 32.9296C82.7305 33.3173 82.7305 33.3826 82.8985 33.1255C83.1751 33.0521 83.4496 32.9766 83.7262 32.9031C83.296 32.9031 82.7899 32.6419 82.376 32.5113C81.8249 32.3379 81.2758 32.1583 80.7288 31.9706C79.6367 31.5951 78.5549 31.189 77.4834 30.7584C77.4834 31.8073 77.4834 32.8582 77.4834 33.9071C78.8418 33.3479 80.5669 32.7154 81.6077 31.64C82.1589 31.0707 82.3084 30.2605 82.0564 29.5239C81.9396 29.1811 81.7327 28.8566 81.4766 28.5995C81.3352 28.4567 80.7083 27.969 80.7964 28.12C80.8701 28.3955 80.9459 28.6689 81.0197 28.9444C80.8886 27.8731 81.5196 26.4141 81.8802 25.3917C82.3043 24.1837 82.8555 23.0369 83.4886 21.9227C84.5335 20.0801 81.8106 18.5252 80.6571 20.2739C78.9217 22.9104 77.5059 25.7101 76.3545 28.6465C77.4076 28.9362 78.4627 29.226 79.5158 29.5137C80.2534 27.2405 81.3885 25.104 82.9067 23.2491C81.9929 22.7206 81.0812 22.1901 80.1674 21.6615C79.7679 23.6327 79.3683 25.6019 78.9688 27.5731C78.5549 29.6178 81.6692 30.5034 82.1302 28.4403C82.5768 26.4447 83.3062 24.5918 84.3593 22.8369C83.3411 22.5614 82.3228 22.288 81.3045 22.0125C81.0566 24.5918 80.8107 27.1711 80.5628 29.7504C80.4071 31.3788 82.8883 31.9522 83.6177 30.5748C84.7056 28.5199 85.7935 26.4671 86.8815 24.4122C85.8632 24.1368 84.8449 23.8633 83.8266 23.5879C83.8328 26.8467 83.3267 30.0198 82.3248 33.1214C82.9968 32.7419 83.6689 32.3603 84.3409 31.9808C83.1054 31.5237 81.8495 31.1441 80.5608 30.8625C79.9482 30.7299 79.3335 30.6176 78.7127 30.5258C78.3541 30.4728 77.1843 30.4585 76.9999 30.3605C77.1965 30.5564 77.3912 30.7503 77.5879 30.9462C77.551 30.8707 77.5162 30.7952 77.4793 30.7197C77.553 30.9952 77.6289 31.2686 77.7026 31.5441C77.5305 27.1956 78.7393 21.6717 83.169 19.8087C83.9844 19.4659 84.1626 18.266 83.757 17.5743C83.2632 16.7437 82.3351 16.656 81.5155 17.0009Z" fill="#E0EFEC"/>
<path d="M76.5054 6.90208C76.2595 7.51017 75.8436 8.04276 75.315 8.43455C74.7556 8.84879 74.5118 9.65482 75.0876 10.1976C75.9604 11.02 77.3638 10.9261 78.0789 9.92418C78.8657 8.82226 78.5624 7.14287 77.4765 6.38377C77.6118 6.89595 77.747 7.40814 77.8802 7.92033C77.6486 8.23662 78.4559 8.10194 78.6075 8.10602C78.8738 8.11214 79.1402 8.12234 79.4066 8.13459C80.138 8.16928 80.8674 8.22845 81.5947 8.31212C82.0373 8.36313 82.7216 8.32028 82.9285 8.65493C83.199 9.08958 83.0801 10.165 83.072 10.6669C83.0679 10.973 83.1519 11.979 82.9142 12.2096C82.6622 12.4565 81.564 12.3361 81.2382 12.3565C79.7672 12.4484 78.2981 12.5402 76.827 12.632C75.3928 12.7218 75.3621 14.8889 76.827 14.8767C78.0482 14.8665 79.1894 14.1339 79.5356 12.9238C79.7098 12.3178 79.634 11.7056 79.4188 11.122C79.3062 10.8179 79.132 10.5323 79.0337 10.2241C78.9742 10.1058 78.9333 9.97927 78.9128 9.84867C78.9865 9.59768 78.9333 9.57116 78.753 9.77317C78.2899 9.51198 77.8289 9.25078 77.3659 8.98959C77.5646 9.66094 77.7613 10.3323 77.9601 11.0036C78.2162 11.8688 79.5807 12.177 80.0192 11.271C80.1995 10.8975 80.3818 10.5221 80.5621 10.1486C79.8757 9.86092 79.1894 9.57116 78.503 9.28343C78.2592 10.1099 78.253 10.8506 78.4292 11.6913C78.6095 12.5606 79.7282 12.7218 80.3121 12.1872C81.2136 11.3628 81.6419 10.367 81.7832 9.17324C81.0456 9.27323 80.308 9.37118 79.5705 9.47117C79.6586 9.9956 79.6831 10.5098 79.677 11.0424C79.6647 12.2749 81.646 12.6096 81.8898 11.3403C82.0598 10.4547 82.2319 9.56911 82.402 8.6835C81.6644 8.58351 80.9268 8.48557 80.1892 8.38558C80.2814 9.28955 80.3736 10.1915 80.4658 11.0955C80.5826 12.2464 81.8775 12.5667 82.5659 11.6627C82.949 11.1587 83.1969 10.6119 83.3485 9.99764C83.6948 8.59576 81.5619 8.00603 81.1747 9.40179C80.9657 10.1568 80.8694 10.9139 80.8879 11.6954C80.9084 12.5994 82.15 13.2646 82.8117 12.4892C83.1969 12.0362 83.453 11.5975 83.6764 11.0465C84.1722 9.82011 82.277 9.16304 81.6173 10.1813C81.3427 10.6057 80.9391 10.8935 80.4269 10.9465C79.0132 11.0914 78.9558 13.2707 80.4269 13.1911C81.5783 13.1299 82.4102 12.581 83.2768 11.8668C83.8075 11.4301 84.3361 11.0118 84.9835 10.7527C85.4998 10.5466 85.7928 10.7914 85.3667 10.1017C84.9733 9.46504 84.9405 9.74664 84.4221 10.0323C83.1928 10.7118 81.9266 11.3097 80.6338 11.8648C79.6483 12.2892 78.6382 12.8218 78.2817 13.9094C77.9785 14.8318 78.1895 15.9276 79.0357 16.4948C80.0642 17.1846 81.396 16.7234 82.5085 16.5152C83.5473 16.3214 85.2314 16.3398 85.9629 15.4848C86.7701 14.544 86.1739 13.3462 85.3441 12.6647C84.2337 11.7525 82.6294 13.3319 83.7501 14.2522C83.8259 14.3135 83.9017 14.3767 83.9755 14.4379C84.4283 13.9931 84.4754 13.8258 84.1148 13.94C83.9427 13.8951 83.5575 14.0441 83.3793 14.0768C82.8281 14.1788 82.2749 14.2829 81.7238 14.3849C81.4452 14.4359 80.3244 14.5767 80.3449 14.693C80.3388 14.6624 80.767 14.2747 80.9801 14.1563C82.8158 13.1422 85.0409 12.632 86.682 11.275C88.0322 10.1568 87.3664 8.07541 85.5265 8.29375C84.5492 8.41007 83.5411 8.8692 82.7441 9.43036C82.068 9.90785 81.2976 10.8996 80.4207 10.9465C80.4207 11.6954 80.4207 12.4423 80.4207 13.1911C81.7689 13.0544 82.8179 12.4565 83.5575 11.3138C82.8712 11.0261 82.1848 10.7363 81.4984 10.4486C81.4288 10.6139 81.3345 10.7649 81.2136 10.8996C81.8549 11.1648 82.4962 11.4281 83.1375 11.6934C83.1232 11.0995 83.1867 10.567 83.3445 9.9956C82.6192 9.79766 81.8959 9.59768 81.1706 9.39975C81.062 9.84255 80.892 10.167 80.6154 10.5282C81.3161 10.718 82.0147 10.9057 82.7155 11.0955C82.6233 10.1915 82.5311 9.28955 82.4389 8.38558C82.32 7.23061 80.4842 6.74087 80.2261 8.08765C80.056 8.97327 79.8839 9.85888 79.7139 10.7445C80.4515 10.8445 81.1891 10.9424 81.9266 11.0424C81.9348 10.3098 81.8611 9.59768 81.7402 8.87532C81.5107 7.52037 79.6627 8.03052 79.5274 9.17324C79.4578 9.76909 79.1463 10.2078 78.7161 10.6016C79.343 10.7669 79.972 10.9322 80.599 11.0975C80.5047 10.6486 80.5457 10.316 80.6727 9.88336C81.0251 8.68962 79.1771 7.85299 78.6136 9.01816C78.4333 9.39158 78.251 9.76705 78.0707 10.1405C78.7571 10.2303 79.4434 10.32 80.1298 10.4078C79.9311 9.73644 79.7344 9.06509 79.5356 8.39374C79.3799 7.86523 78.7222 7.37345 78.1486 7.61016C77.1753 8.01215 76.6406 8.77737 76.6529 9.85071C76.6611 10.52 77.9724 12.6239 76.8188 12.6341C76.8188 13.383 76.8188 14.1298 76.8188 14.8787C78.0215 14.8032 79.2242 14.7277 80.4269 14.6542C81.4226 14.593 82.5372 14.6502 83.5043 14.3767C85.5593 13.7972 85.4179 11.0751 85.2704 9.3875C85.1966 8.53658 85.1454 7.54486 84.5143 6.898C83.8669 6.23277 82.8466 6.2246 81.982 6.11645C80.7936 5.96749 79.5971 5.88179 78.3985 5.85934C77.3618 5.84098 76.5689 5.91444 75.9255 6.78984C75.5445 7.30815 75.8743 8.00603 76.3292 8.3264C76.2124 8.32844 76.2001 8.36925 76.2902 8.44884C76.3497 8.5978 76.4767 8.65289 76.6713 8.61412C76.5955 9.20181 76.5197 9.7895 76.4439 10.3772C77.4888 9.6038 78.1834 8.70595 78.671 7.50405C79.2201 6.15931 77.0422 5.5757 76.5054 6.90208Z" fill="#E5BAE0"/>
<path d="M77.5292 11.0628C77.1829 11.5791 76.8346 12.0953 76.4884 12.6116C76.1585 13.1013 76.3777 13.8768 76.892 14.1482C77.4595 14.4461 78.0824 14.2665 78.4348 13.7462C78.781 13.2299 79.1294 12.7136 79.4756 12.1974C79.8055 11.7076 79.5862 10.9322 79.072 10.6608C78.5044 10.3608 77.8816 10.5404 77.5292 11.0628Z" fill="#E5BAE0"/>
<path d="M88.3836 32.4133C89.8342 32.4133 89.8363 30.1687 88.3836 30.1687C86.933 30.1687 86.931 32.4133 88.3836 32.4133Z" fill="#E5BAE0"/>
<path d="M85.9853 31.9378C86.938 32.2705 88.1366 32.497 88.995 33.0275C88.8229 32.803 88.6488 32.5806 88.4767 32.3562C88.5791 32.7173 88.1632 33.7111 88.0567 34.1009C87.8723 34.7804 87.651 35.4497 87.3928 36.1067C86.8704 37.4392 86.1656 38.6901 85.3624 39.8736C84.549 41.0735 86.4995 42.1979 87.3088 41.0062C88.7143 38.9329 89.7675 36.6189 90.3616 34.1866C90.5727 33.3254 91.0664 32.0215 90.3616 31.2644C89.9949 30.8727 89.3659 30.7441 88.8824 30.5747C88.1161 30.3074 87.3498 30.0401 86.5856 29.7728C85.2129 29.2953 84.6228 31.4624 85.9853 31.9378Z" fill="#E5BAE0"/>
<path d="M84.701 31.6665C83.6356 33.9887 82.6562 36.3476 81.7732 38.7453C81.4638 39.5839 82.1235 40.5226 82.9185 40.7532C83.3959 40.8919 83.8446 41.0838 84.2359 41.4021C85.2378 42.2142 86.5122 41.8918 86.9752 40.6818C87.889 38.2922 88.561 35.8374 88.9893 33.3153C89.2761 31.6318 86.8871 30.2707 85.9938 32.0583C85.0821 33.8805 84.3302 35.7701 83.7626 37.725C83.1746 39.7472 86.338 40.6103 86.924 38.5922C87.4137 36.9026 88.0365 35.2804 88.8253 33.705C87.8276 33.2867 86.8277 32.8663 85.8299 32.448C85.4017 34.9681 84.7297 37.425 83.8159 39.8145C84.7297 39.5737 85.6414 39.335 86.5552 39.0942C85.7131 38.4106 84.8403 37.9107 83.7913 37.6066C84.1724 38.2759 84.5555 38.9452 84.9366 39.6145C85.7234 37.4821 86.5859 35.3824 87.5346 33.3153C87.9034 32.5133 87.764 31.5583 86.9465 31.0808C86.2397 30.6686 85.0718 30.8605 84.701 31.6665Z" fill="#E5BAE0"/>
<path d="M85.069 41.1143C85.0587 42.1591 84.5998 43.1937 83.729 43.812C83.0099 44.3221 82.6657 45.2363 83.141 46.0464C83.5569 46.7545 84.6592 47.1463 85.3845 46.6321C87.2182 45.3302 88.3246 43.3794 88.3492 41.1164C88.3697 39.0125 85.0915 39.0125 85.069 41.1143Z" fill="#E5BAE0"/>
<path d="M83.5141 40.2328C82.5122 41.1613 81.6517 42.2469 80.9674 43.4284C79.9778 45.1384 82.6311 46.6811 83.6207 44.9731C84.1862 43.9977 84.8582 43.1652 85.6859 42.3979C86.2944 41.8347 86.2575 40.8042 85.6859 40.2328C85.0815 39.6288 84.1226 39.6676 83.5141 40.2328Z" fill="#E5BAE0"/>
<path d="M81.4758 39.2494C80.0662 40.4003 78.8635 41.743 77.8206 43.2306C77.3453 43.908 77.6956 44.9304 78.3718 45.3242C79.138 45.7711 79.9986 45.4548 80.4739 44.7753C81.3651 43.506 82.4469 42.3939 83.6476 41.4144C84.2909 40.89 84.1926 39.7942 83.6476 39.2494C83.0145 38.6168 82.1191 38.7229 81.4758 39.2494Z" fill="#E5BAE0"/>
<path d="M81.9813 46.0934C83.9584 46.0934 83.9625 43.0325 81.9813 43.0325C80.0021 43.0325 80 46.0934 81.9813 46.0934Z" fill="#E5BAE0"/>
<path d="M87.5445 45.7831C88.9582 44.8098 89.3393 43.2814 89.3413 41.6428C89.3434 39.8553 88.4767 38.2126 86.4401 38.535C85.678 38.6554 85.2456 39.6083 85.4382 40.2919C85.6657 41.1021 86.4319 41.4122 87.2023 41.2898C87.272 41.2796 87.3396 41.2673 87.4092 41.2571C87.1552 41.2571 86.9011 41.2571 86.6471 41.2571C86.4524 40.9041 86.391 40.8572 86.4627 41.1184C86.4647 41.2082 86.4688 41.3 86.4709 41.3898C86.4852 41.6877 86.4811 41.9958 86.4524 42.2938C86.4217 42.6039 86.3889 43.1181 86.098 43.3181C84.588 44.3547 86.0222 46.832 87.5445 45.7831Z" fill="#E5BAE0"/>
<path d="M81.8232 36.3027C80.7353 36.419 79.7006 36.5781 78.8319 37.2985C77.9796 38.0066 77.66 39.0513 77.8607 40.1165C78.0042 40.8756 78.9221 41.3062 79.6248 41.1144C80.4239 40.896 80.7701 40.1186 80.6267 39.3574C80.641 39.4288 80.6185 39.4962 80.6288 39.5635C80.6144 39.4656 80.7291 39.3921 80.6492 39.5145C80.5693 39.6329 80.6431 39.5125 80.6943 39.4635C80.8603 39.3084 80.682 39.439 80.8234 39.3819C81.0918 39.2717 81.4975 39.1982 81.8232 39.1636C82.5936 39.0819 83.2574 38.5657 83.2574 37.7352C83.2574 37.023 82.5998 36.219 81.8232 36.3027Z" fill="#E5BAE0"/>
<path d="M81.4615 39.6146C83.3075 39.6146 83.3095 36.7578 81.4615 36.7578C79.6154 36.7578 79.6134 39.6146 81.4615 39.6146Z" fill="#E5BAE0"/>
<path d="M80.7693 40.3042C82.6153 40.3042 82.6173 37.4474 80.7693 37.4474C78.9253 37.4474 78.9212 40.3042 80.7693 40.3042Z" fill="#E5BAE0"/>
<path d="M75.8086 7.4509C75.6406 8.2304 75.2943 8.83033 74.6121 9.26701C73.5938 9.92 73.727 11.5443 74.9542 11.8769C75.8393 12.1177 76.7224 12.2687 77.6341 12.3809C77.2223 11.6647 76.8084 10.9485 76.3966 10.2322C74.0712 13.3645 77.3166 17.5681 80.9533 16.3988C82.703 15.8356 81.9552 13.0768 80.1911 13.6441C78.7876 14.095 78.0603 12.7687 78.8737 11.6729C79.599 10.6954 78.5786 9.64044 77.6362 9.52413C76.9867 9.44251 76.3515 9.29354 75.7205 9.12213C75.8352 9.99142 75.9479 10.8627 76.0627 11.732C77.3514 10.9056 78.2508 9.71186 78.5766 8.20795C78.9618 6.41837 76.1979 5.65111 75.8086 7.4509Z" fill="#E5BAE0"/>
<path d="M79.2599 9.86491C79.6778 9.76288 80.1839 9.65269 80.5404 9.71187C80.4318 9.6935 80.6551 9.69146 80.6223 9.82206C80.6285 9.79553 80.5957 9.61188 80.5896 9.57923C80.5773 9.50781 80.7514 9.28335 80.5609 9.54046C80.1019 10.1628 80.4564 11.1342 81.0751 11.4953C81.8025 11.9198 82.5769 11.6055 83.0379 10.9832C83.796 9.9547 83.4108 8.45079 82.5155 7.6366C81.3927 6.61631 79.8602 6.78364 78.4956 7.11217C76.7029 7.54273 77.463 10.2996 79.2599 9.86491Z" fill="#E5BAE0"/>
<path d="M80.3457 40.3289C80.3969 40.2166 80.4563 40.1126 80.5281 40.0126C80.4481 40.1166 80.3682 40.2187 80.2883 40.3227C80.3764 40.2105 80.4727 40.1126 80.5834 40.0248C80.4789 40.1044 80.3764 40.184 80.2719 40.2636C80.3723 40.1901 80.4748 40.1289 80.5875 40.0758C80.4645 40.1268 80.3437 40.1779 80.2207 40.2309C80.2535 40.2166 80.2863 40.2044 80.3191 40.1921C80.7022 40.0473 81.0239 39.8534 81.237 39.4881C81.4295 39.1596 81.5115 38.676 81.3927 38.3087C81.2718 37.9393 81.0423 37.5802 80.6858 37.3945C80.3396 37.2129 79.8827 37.0966 79.5016 37.2394C78.7435 37.5251 78.0325 38.0189 77.6924 38.7821C77.5203 39.1718 77.4199 39.5351 77.5367 39.9616C77.6351 40.3166 77.9096 40.7002 78.2436 40.8757C78.6001 41.0635 79.0324 41.1573 79.4278 41.0308C79.7823 40.9165 80.1879 40.6839 80.3457 40.3289Z" fill="#E295E0"/>
<path d="M78.0353 14.6052C78.1562 14.5093 78.275 14.4113 78.3959 14.3154C77.7751 14.395 77.1543 14.4746 76.5335 14.5542C76.5478 14.5623 76.5622 14.5705 76.5765 14.5807C76.472 14.5011 76.3696 14.4215 76.2651 14.342C76.2835 14.3583 76.2999 14.3726 76.3143 14.393C76.2344 14.2889 76.1545 14.1869 76.0746 14.0828C76.0889 14.1032 76.0991 14.1216 76.1094 14.144C76.0582 14.0216 76.0069 13.9012 75.9537 13.7788C75.9619 13.8012 75.968 13.8236 75.9721 13.8481C75.9537 13.7135 75.9352 13.5767 75.9168 13.4421C75.9229 13.4829 75.9229 13.5237 75.9168 13.5645C75.9352 13.4298 75.9537 13.2931 75.9721 13.1584C75.9639 13.2013 75.9537 13.24 75.9373 13.2788C75.9885 13.1564 76.0397 13.036 76.093 12.9136C76.0787 12.9442 76.0623 12.9707 76.0418 12.9972C76.1217 12.8931 76.2016 12.7911 76.2815 12.687C76.2651 12.7054 76.2487 12.7217 76.2303 12.7381C76.3348 12.6585 76.4372 12.5789 76.5417 12.4993C76.5212 12.5136 76.5028 12.5258 76.4823 12.536C76.6052 12.485 76.7261 12.434 76.849 12.381C76.8265 12.3891 76.804 12.3952 76.7794 12.4014C76.9146 12.383 77.0519 12.3646 77.1871 12.3463C77.1707 12.3483 77.1543 12.3483 77.1359 12.3483C76.7425 12.3463 76.3266 12.5218 76.05 12.7972C75.7836 13.0625 75.5828 13.4992 75.5992 13.8787C75.6177 14.2746 75.7467 14.6848 76.05 14.9603C76.3512 15.2357 76.7199 15.4051 77.1359 15.4092C77.9964 15.4153 78.6787 14.8133 78.9245 14.0216C79.0167 13.7257 79.0188 13.2829 78.9225 12.9891C78.8303 12.7013 78.6991 12.4483 78.4861 12.23C78.3713 12.1116 78.2259 11.9932 78.0824 11.9137C77.9595 11.8627 77.8386 11.8116 77.7157 11.7586C77.5108 11.6953 77.308 11.6851 77.1031 11.7321C76.9638 11.7321 76.8347 11.7667 76.7159 11.8361C76.5253 11.8973 76.3614 12.0035 76.2221 12.1524C76.1012 12.2483 75.9824 12.3463 75.8615 12.4422C75.7119 12.5809 75.6054 12.7442 75.5439 12.934C75.4476 13.1156 75.4046 13.3135 75.4107 13.5237C75.4107 13.8992 75.5787 14.3481 75.8615 14.6052C76.1545 14.8725 76.5396 15.0725 76.9474 15.0541C77.0826 15.0358 77.2199 15.0174 77.3551 14.999C77.6194 14.9256 77.8448 14.795 78.0353 14.6052Z" fill="white"/>
<path d="M78.3457 6.68162C80.163 6.22045 82.0951 6.66938 83.4658 7.96514C85.1704 9.5772 86.5165 11.328 88.9383 11.8912C90.0856 12.1585 91.2535 12.1708 92.409 11.9443C93.4949 11.7321 94.4128 11.1546 95.429 10.7546C97.5168 9.93634 99.5431 11.5811 101.133 12.7564C101.977 13.3808 103.307 12.8952 103.797 12.0606C104.376 11.0729 103.946 10.0343 103.098 9.40783C101.113 7.94066 98.8178 6.49389 96.2383 6.63877C93.9129 6.76936 92.0361 8.76913 89.6574 8.06717C88.6555 7.77129 87.9733 7.06729 87.2787 6.32452C86.4407 5.43074 85.5966 4.5635 84.5353 3.92888C82.3676 2.63311 79.745 2.32294 77.3131 2.94124C74.8831 3.55953 75.9116 7.29992 78.3457 6.68162Z" fill="#FF47FF"/>
<path d="M78.3059 4.70638C78.0641 4.41457 78.4186 3.88606 78.6419 3.70853C79.1787 3.28613 79.9716 3.33511 80.6068 3.40653C81.2665 3.48203 81.8361 2.79027 81.8361 2.18218C81.8361 1.45777 81.2685 1.03333 80.6068 0.95783C79.1254 0.788462 77.4802 1.16597 76.5275 2.38624C75.5666 3.61467 75.5789 5.24305 76.5685 6.43679C76.9905 6.94693 77.8695 6.87347 78.308 6.43679C78.814 5.93276 78.73 5.21856 78.3059 4.70638Z" fill="#FF47FF"/>
<path d="M79.1455 4.20438C80.1372 3.63302 81.2599 3.46978 82.3725 3.76974C83.5833 4.09827 84.3394 5.1206 85.5256 5.49199C87.5438 6.12457 88.4063 2.97187 86.3964 2.34338C85.7735 2.14748 85.2245 1.45164 84.6159 1.14964C83.8763 0.782332 83.1059 0.551746 82.2884 0.441555C80.6125 0.21301 78.955 0.539503 77.49 1.3843C75.6666 2.43724 77.3159 5.25936 79.1455 4.20438Z" fill="#FF47FF"/>
<path d="M81.4021 3.99621C82.6785 3.72073 83.9591 4.23088 85.131 4.69001C86.5345 5.23892 87.899 5.85722 89.4049 6.07352C90.9621 6.29798 92.427 6.0123 93.896 5.48787C95.1766 5.03078 96.662 4.24516 98.0593 4.53288C98.0593 3.48402 98.0593 2.43313 98.0593 1.38427C97.8032 1.46385 97.5471 1.54139 97.293 1.62097C95.2852 2.24131 96.1416 5.39401 98.1638 4.76959C98.4199 4.69001 98.676 4.61246 98.9301 4.53288C100.385 4.08191 100.592 1.72708 98.9301 1.38427C97.2439 1.03737 95.6867 1.36794 94.0927 1.94543C92.636 2.47394 91.1936 3.12896 89.6139 2.81471C86.4464 2.18417 83.9181 0.117067 80.5273 0.847595C78.4702 1.29244 79.343 4.43902 81.4021 3.99621Z" fill="#FF47FF"/>
<path d="M93.8915 5.40018C94.8319 4.33295 96.1124 3.98197 97.4647 4.43498C99.4684 5.10838 100.327 1.95568 98.3354 1.28637C95.9608 0.488502 93.2276 1.21291 91.5742 3.09024C90.1871 4.66557 92.4982 6.98367 93.8915 5.40018Z" fill="#FF47FF"/>
<path d="M96.244 4.09828C97.4917 3.13513 98.3871 5.16142 98.9628 5.80625C100.127 7.10814 101.815 7.28159 103.446 7.4734C104.224 7.56523 105.908 7.83254 105.017 8.99363C103.933 10.4078 101.85 8.8814 101.026 8.01824C100.784 8.92833 100.545 9.83639 100.303 10.7465C101.503 10.4751 102.702 10.2037 103.903 9.93434C103.372 9.79354 102.839 9.65478 102.309 9.51398C102.192 9.32012 102.182 9.12219 102.278 8.91609C103.136 9.02628 103.995 9.13647 104.851 9.24666C104.085 8.05701 103.204 6.92857 102.19 5.93888C101.307 5.07776 100.258 4.09216 98.9464 4.05135C97.7048 4.01054 96.5247 4.7431 96.246 5.99194C95.9223 7.44483 97.0902 8.73448 98.5244 8.75692C99.4976 8.77325 100.504 7.68562 100.104 6.68982C99.2189 4.47987 96.9631 3.78811 94.7422 4.27989C93.6194 4.52884 92.554 5.15734 91.38 5.13898C90.1404 5.12061 88.948 4.52476 87.8539 4.00646C87.2085 3.70037 86.391 3.70445 85.8686 4.26153C85.6043 4.54313 85.34 4.82473 85.0757 5.10429C84.3033 5.9246 84.5368 7.04896 85.4076 7.66725C86.2271 8.25086 87.143 8.66306 88.1141 8.92833C90.1507 9.48541 91.0215 6.3368 88.9849 5.77972C88.2596 5.58178 87.6736 5.28182 87.061 4.84717C87.1717 5.70218 87.2823 6.55718 87.3929 7.41014C87.6572 7.12854 87.9215 6.84694 88.1858 6.56738C87.5241 6.65309 86.8623 6.73675 86.2005 6.82246C88.192 7.76928 90.2593 8.65898 92.5151 8.30596C93.5293 8.14679 94.4512 7.71215 95.4408 7.47136C95.7543 7.39382 96.0739 7.32444 96.3997 7.37953C96.5595 7.40606 96.6968 7.48973 96.8463 7.52646C96.9816 7.56115 97.0123 7.73051 96.9426 7.55502C97.4692 6.86531 97.9958 6.17763 98.5223 5.48792C98.4485 5.48588 98.3768 5.48588 98.3031 5.48384C98.5797 5.5573 98.8542 5.6328 99.1308 5.70626C99.223 5.80013 99.3132 5.89195 99.4054 5.98582C99.4054 6.27558 99.4054 6.56534 99.4054 6.85306C99.3972 6.89184 98.7497 7.34688 98.7497 7.29587C98.7497 7.3224 99.0448 7.49585 99.096 7.53666C99.5058 7.85295 99.8786 8.24474 100.235 8.61613C100.909 9.31808 101.489 10.0731 102.016 10.8914C102.595 11.7913 103.8 11.9627 104.589 11.2219C105.718 10.1629 105.796 8.26923 104.62 7.202C103.81 6.46739 102.89 6.81225 101.944 7.02651C101.104 7.21629 100.264 7.40606 99.4238 7.59584C98.1822 7.87539 97.8872 9.47317 98.7006 10.3241C100.682 12.3994 103.855 13.6747 106.505 11.981C108.93 10.4282 109.25 6.65513 106.683 5.06552C105.617 4.40641 104.384 4.32275 103.173 4.17786C102.729 4.12481 102.231 4.09624 101.819 3.90647C101.329 3.682 101.153 3.27389 100.856 2.84537C99.2087 0.459929 96.2214 0.0191635 93.9267 1.79039C93.226 2.33114 93.3571 3.531 93.9267 4.09828C94.6192 4.78596 95.5433 4.63904 96.244 4.09828Z" fill="#FF47FF"/>
<path d="M84.0198 9.26909C84.069 9.33643 84.112 9.40989 84.151 9.4854C84.0895 9.33643 84.0834 9.34051 84.1346 9.49764C84.1223 9.32419 84.1202 9.32215 84.1305 9.49152C84.1223 9.66089 84.1284 9.65884 84.151 9.48948C84.1366 9.57314 84.1161 9.65476 84.0895 9.73435C84.1592 9.58947 84.1571 9.59151 84.0813 9.73639C83.9912 9.87311 83.9912 9.87719 84.0813 9.74863C84.0239 9.80985 83.9604 9.86698 83.8928 9.918C83.2966 10.4118 83.3806 11.428 83.8928 11.9382C84.4829 12.5259 85.3229 12.432 85.9212 11.9382C87.0952 10.9669 87.3328 9.08544 86.4969 7.82844C86.0707 7.18566 85.2287 6.91222 84.5341 7.31626C83.8928 7.68765 83.5896 8.62223 84.0198 9.26909Z" fill="#E5BAE0"/>
<path d="M86.4761 13.9869C83.7778 13.6869 80.9278 15.7846 81.5835 18.7067C82.1736 21.335 85.632 22.3349 87.7505 23.3491C89.6437 24.2551 91.3074 21.4411 89.406 20.529C88.0456 19.878 86.2918 19.3373 85.1198 18.3721C84.0769 17.513 85.7058 17.1641 86.4782 17.2518C87.3592 17.3497 88.1173 16.4315 88.1173 15.6193C88.1152 14.6562 87.3592 14.0869 86.4761 13.9869Z" fill="#68DAEC"/>
<path d="M86.7522 17.5579C87.4406 17.4069 88.2049 17.8803 88.8031 18.1639C89.6022 18.5435 90.4012 18.923 91.2023 19.3026C92.0014 19.6821 92.8004 20.0617 93.6015 20.4412C93.9703 20.6167 94.3391 20.7922 94.7079 20.9677C94.9968 21.1044 95.6115 21.2738 95.8286 21.5023C95.6873 21.2615 95.548 21.0228 95.4066 20.782C95.4209 20.8738 95.4353 20.9636 95.4476 21.0555C95.4476 20.7657 95.4476 20.4759 95.4476 20.1882C95.0112 21.8574 94.208 23.5001 93.4335 25.0346C93.0422 25.808 92.6283 26.5711 92.1899 27.318C91.9707 27.6914 91.7453 28.0628 91.5138 28.4301C91.4216 28.575 90.893 29.4137 90.9954 29.3504C91.272 29.2769 91.5465 29.2014 91.8231 29.128C90.9544 29.0566 90.0017 28.6607 89.1555 28.4444C88.2622 28.2179 87.3423 28.0322 86.4695 27.7404C86.7112 27.8812 86.951 28.02 87.1927 28.1608C87.1313 28.1077 87.0718 28.0567 87.0104 28.0036C87.1517 28.2444 87.2911 28.4832 87.4324 28.7239C87.416 28.6464 87.4017 28.5689 87.3853 28.4913C87.3853 28.7811 87.3853 29.0708 87.3853 29.3586C87.791 27.3037 88.8687 25.4713 89.1207 23.3654C89.2252 22.4941 89.2006 21.6227 89.0244 20.7596C88.9261 20.2719 88.7519 19.8046 88.5409 19.3536C88.3954 19.0455 87.9795 18.6312 87.9324 18.3088C87.877 18.7271 87.8217 19.1475 87.7664 19.5658C87.8012 19.5148 87.8361 19.4658 87.8729 19.4148C87.5472 19.6658 87.2194 19.9148 86.8936 20.1658C86.5289 20.2821 86.324 19.9903 86.742 20.3412C86.9182 20.4882 87.1538 20.6004 87.3525 20.7167C87.8156 20.9902 88.2889 21.2452 88.7703 21.484C89.7005 21.9431 90.6635 22.3349 91.6428 22.6798C91.3171 21.8798 90.9892 21.082 90.6635 20.2821C89.0469 22.6879 88.1372 25.3876 87.8176 28.2567C87.623 30.0034 90.055 30.283 90.8725 29.0811C91.6449 27.9424 92.1981 26.6752 92.5177 25.3386C92.909 23.7062 90.9995 22.6798 89.7784 23.7511C89.2641 24.202 88.799 24.6836 88.3626 25.2101C89.2211 25.8692 90.0796 26.5283 90.936 27.1874C91.7658 25.8508 92.5956 24.5163 93.4253 23.1797C92.4071 22.9042 91.3888 22.6308 90.3705 22.3553C90.2127 23.5735 89.9853 24.7815 89.719 25.9794C89.3809 27.5016 91.2781 28.8097 92.4583 27.5669C93.9621 25.9835 95.2406 24.2122 96.2384 22.2716C97.1993 20.4004 94.5584 18.8537 93.4069 20.6228C92.5525 21.937 91.7002 23.2511 90.8458 24.5652C91.7904 25.1142 92.7328 25.6631 93.6773 26.214C94.2633 24.9917 94.7038 23.747 94.9374 22.4104C95.089 21.5431 94.7038 20.6514 93.7921 20.4025C93.0012 20.1862 91.9276 20.6698 91.776 21.5431C91.5937 22.592 91.3089 23.6041 90.8479 24.5673C89.9443 26.4507 92.5197 27.9995 93.6794 26.2161C94.5338 24.9019 95.3861 23.5878 96.2405 22.2737C95.2959 21.7248 94.3535 21.1758 93.4089 20.6249C92.5341 22.3288 91.4625 23.8674 90.1431 25.259C91.0569 25.7876 91.9686 26.3181 92.8824 26.8466C93.2123 25.359 93.4561 23.8633 93.6507 22.3553C93.8699 20.6494 91.3744 20.278 90.5959 21.5309C89.7661 22.8675 88.9363 24.202 88.1065 25.5386C87.1497 27.0792 89.4813 28.9749 90.6799 27.5159C91.1142 26.9874 91.5793 26.5079 92.0956 26.0569C91.1818 25.5284 90.2701 24.9979 89.3563 24.4693C89.0961 25.559 88.672 26.5038 88.041 27.4323C89.0592 27.7077 90.0775 27.9812 91.0958 28.2567C91.3498 25.9692 92.2145 23.8347 93.493 21.9309C94.1199 20.9963 93.4479 19.8617 92.5136 19.5332C91.6859 19.2434 90.8848 18.9067 90.1041 18.5068C89.2907 18.0884 88.5388 17.4967 87.7008 17.1396C85.7135 16.2907 83.9473 18.2558 85.1562 20.0964C86.1212 21.5656 86.0064 23.0022 85.5024 24.6469C85.0455 26.1385 83.4372 28.6852 84.5661 30.1503C85.1459 30.9053 86.0986 31.038 86.9694 31.2604C87.9733 31.5155 88.9773 31.7705 89.9792 32.0276C90.8827 32.2582 91.8621 32.6357 92.7349 32.1215C93.5093 31.6644 93.9826 30.6645 94.4457 29.9238C95.4619 28.2954 96.3654 26.5936 97.142 24.8407C97.5251 23.9755 97.8877 23.1022 98.2197 22.2165C98.5741 21.2697 98.9224 20.2739 98.275 19.3658C97.6665 18.5129 96.3491 18.1497 95.4394 17.7171C94.3944 17.2212 93.3475 16.7233 92.3026 16.2274C90.2824 15.2684 88.2028 13.9093 85.8794 14.4174C83.8203 14.8582 84.6931 18.0068 86.7522 17.5579Z" fill="#68DAEC"/>
<path d="M84.0566 18.468C85.8227 19.4046 87.6565 20.2005 89.5435 20.8677C91.5349 21.5717 92.3914 18.419 90.4142 17.7191C88.7915 17.1437 87.2323 16.454 85.7101 15.6479C83.8497 14.6623 82.1901 17.4783 84.0566 18.468Z" fill="#68DAEC"/>
<path d="M78.0015 37.5781C80.1118 37.5781 80.1138 34.3132 78.0015 34.3132C75.8912 34.3132 75.8891 37.5781 78.0015 37.5781Z" fill="#9568EC"/>
<path d="M98.7988 64.3097C98.3808 65.7095 97.3666 66.8931 95.9775 67.4175C94.8178 67.8562 94.1683 69.7682 95.5862 70.4008C96.5163 70.8171 97.4199 71.2783 98.2886 71.8088C99.1163 72.3128 99.8744 73.0148 100.749 73.4188C102.911 74.4146 104.447 71.6354 105.626 70.2723C106.355 69.4275 106.199 68.3439 105.294 67.7093C103.847 66.6951 102.567 65.5014 101.405 64.175C100.632 64.9443 99.8601 65.7136 99.0876 66.4829C99.4605 66.7992 99.8211 67.1298 100.12 67.5175C100.247 67.6828 100.36 67.8603 100.467 68.0399C100.589 68.2439 100.665 68.699 100.68 68.25C100.839 67.8644 100.999 67.4807 101.159 67.0951C101.331 66.8788 101.065 67.0073 100.768 66.9339C99.6245 66.6502 98.3296 67.7195 98.7516 68.9418C99.0917 69.9254 99.7289 70.5906 100.741 70.8824C102.771 71.468 103.638 68.3174 101.612 67.7338C101.712 67.846 101.811 67.9603 101.911 68.0725C101.239 68.7418 100.567 69.4111 99.8949 70.0804C101.37 70.4457 103.95 70.2172 103.958 68.1725C103.964 66.691 102.454 65.0627 101.403 64.1709C99.7966 62.8099 97.6883 64.8851 99.0856 66.4788C100.432 68.0174 101.962 69.3479 103.638 70.5233C103.528 69.6682 103.417 68.8132 103.306 67.9603C102.892 68.4378 102.481 68.9153 102.067 69.3948C101.761 69.7478 101.425 70.3498 101.036 70.5865C101.313 70.513 101.587 70.4375 101.864 70.3641C101.768 70.3682 101.671 70.3702 101.577 70.3743C101.854 70.4477 102.128 70.5232 102.405 70.5967C101.528 70.2233 100.762 69.4846 99.9441 68.9867C99.0754 68.4561 98.1698 67.995 97.2416 67.5787C97.1105 68.5725 96.9814 69.5683 96.8503 70.562C99.3417 69.6213 101.194 67.7358 101.96 65.1749C102.563 63.1588 99.4011 62.2977 98.7988 64.3097Z" fill="#E3E8EC"/>
<path d="M97.9942 65.2564C97.5189 66.1298 97.019 66.8726 96.4228 67.5602C95.845 68.2275 95.7651 69.2131 96.4228 69.8681C97.0149 70.4579 98.1602 70.5374 98.74 69.8681C99.535 68.9519 100.244 67.9683 100.824 66.9032C101.231 66.1522 101.035 65.0911 100.236 64.6687C99.4715 64.2688 98.4306 64.4545 97.9942 65.2564Z" fill="#E3E8EC"/>
<path d="M84.6544 66.0155C83.5213 67.0195 82.2142 67.7072 80.7574 68.1173C79.3089 68.5255 79.2577 70.3089 80.3661 71.1007C81.0934 71.619 81.8208 72.1393 82.5481 72.6576C83.2161 73.1351 83.9311 73.8024 84.7158 74.0779C86.3672 74.6553 87.2257 73.0168 88.7562 72.9882C89.756 72.9678 90.7005 71.9516 90.3358 70.9211C89.7027 69.1274 88.664 67.5439 87.154 66.3645C86.0845 65.5278 84.3675 65.987 84.3552 67.5194C84.3511 68.0357 84.347 68.5499 84.3429 69.0662C84.3409 69.3233 84.3388 69.5825 84.3368 69.8396C84.2835 70.2599 84.2999 70.3477 84.3839 70.1049C84.5806 69.909 84.7752 69.7151 84.9719 69.5192C84.9904 69.511 85.0088 69.5029 85.0272 69.4947C85.3182 69.4947 85.6091 69.4947 85.898 69.4947C85.8427 69.4804 85.7853 69.4641 85.73 69.4498C85.9718 69.5906 86.2115 69.7294 86.4532 69.8702C86.4184 69.8273 86.3815 69.7825 86.3467 69.7396C85.0047 68.1153 82.6977 70.4375 84.0295 72.0475C84.9105 73.1147 86.6254 72.7678 87.2728 71.6475C87.9264 70.5191 87.6231 68.7703 87.6334 67.5194C86.7012 67.9051 85.7689 68.2887 84.8347 68.6744C85.898 69.507 86.7216 70.5109 87.1744 71.7904C87.701 71.1007 88.2276 70.413 88.7541 69.7233C87.9919 69.7376 87.2687 69.8661 86.5659 70.164C85.9328 70.4314 85.4493 70.9088 84.8306 71.1721C85.1072 71.0986 85.3817 71.0231 85.6583 70.9497C85.9246 70.9374 85.2567 70.5946 85.1379 70.5089C84.7752 70.2497 84.4105 69.9906 84.0479 69.7314C83.3718 69.2499 82.6977 68.7683 82.0216 68.2867C81.8904 69.2805 81.7614 70.2763 81.6302 71.27C83.6381 70.7048 85.4165 69.709 86.9737 68.3275C88.5513 66.9236 86.2258 64.6198 84.6544 66.0155Z" fill="#E3E8EC"/>
<path d="M105.095 69.6274C104.787 70.8844 104.033 71.77 102.872 72.3353C101.405 73.0495 102.12 75.439 103.699 75.3778C104.121 75.3615 104.39 75.4247 104.695 75.7206C106.209 77.1857 108.529 74.8799 107.012 73.4127C106.111 72.5414 104.961 72.0639 103.699 72.1129C103.976 73.127 104.251 74.1412 104.527 75.1554C106.398 74.2453 107.766 72.5046 108.258 70.4967C108.754 68.4541 105.595 67.5828 105.095 69.6274Z" fill="#20204D"/>
<path d="M106.05 71.1864C107.388 71.8659 108.73 72.2434 110.22 72.4087C109.693 71.719 109.167 71.0313 108.64 70.3416C108.11 72.7841 107.577 75.2288 107.046 77.6713C106.595 79.7446 106.161 81.8321 105.067 83.6788C103.993 85.4929 106.825 87.1376 107.898 85.3276C109.072 83.3462 109.64 81.1362 110.128 78.9079C110.689 76.3429 111.244 73.7759 111.802 71.2109C112.045 70.0865 111.31 69.2662 110.222 69.1438C109.343 69.0458 108.493 68.7662 107.708 68.3663C105.829 67.4133 104.168 70.2293 106.05 71.1864Z" fill="#20204D"/>
<path d="M102.158 75.1144C103.853 76.5081 103.187 78.8854 102.711 80.7015C102.421 81.8096 102.007 83.0339 102.087 84.1889C102.177 85.4928 103.254 86.3907 104.541 86.358C107.297 86.2907 107.5 82.7299 107.803 80.7281C108.19 78.1794 108.502 75.6184 109.397 73.184C108.344 72.8943 107.289 72.6045 106.235 72.3168C105.316 75.347 104.392 78.3773 103.476 81.4096C103.062 82.7788 102.658 84.2685 103.33 85.6295C103.883 86.7518 105.09 87.6191 106.385 87.4558C107.264 87.3457 108.024 86.7845 108.024 85.8234C108.024 85.0276 107.27 84.0787 106.385 84.1909C105.953 84.246 106.305 84.1685 106.363 84.3093C106.34 84.2521 106.227 84.1991 106.244 84.1195C106.338 83.691 106.346 83.2563 106.473 82.8196C106.785 81.7524 107.119 80.6893 107.442 79.6241C108.094 77.4774 108.745 75.3307 109.397 73.184C110.016 71.1455 106.951 70.3721 106.235 72.3168C105.555 74.1676 105.201 76.0898 104.91 78.0345C104.764 79.0078 104.631 79.9853 104.467 80.9566C104.385 81.4423 104.299 81.9259 104.197 82.4054C104.154 82.6217 104.105 82.836 104.049 83.0502C103.795 83.5645 104.107 83.644 104.98 83.2849C105.121 83.5257 105.26 83.7644 105.402 84.0052C105.137 83.3114 105.783 81.9259 105.967 81.2137C106.246 80.1342 106.498 79.0262 106.524 77.9059C106.572 76.0266 105.969 74.0329 104.476 72.8045C102.863 71.4781 100.529 73.7758 102.158 75.1144Z" fill="#20204D"/>
<path d="M89.1737 71.3843C88.4177 72.0087 87.4548 72.4372 86.4754 72.5495C85.4038 72.6739 84.6294 73.4902 84.8957 74.6166C85.1395 75.645 85.6845 76.9245 85.621 77.9794C85.6948 77.704 85.7706 77.4305 85.8444 77.155C85.5596 77.7917 84.7154 78.3671 84.1991 78.8426C83.6234 79.3732 83.0333 79.8874 82.3838 80.3281C81.0541 81.2301 79.3761 81.5749 78.1489 82.6115C76.9851 83.5951 76.5077 85.3051 77.2187 86.7029C78.0464 88.3292 79.7879 88.4068 81.3061 87.7416C83.1009 86.958 84.8732 86.1193 86.6557 85.3072C88.4997 84.4664 90.4338 83.7175 92.2245 82.7687C94.1422 81.7545 93.8349 80.0506 93.505 78.2059C93.1813 76.3959 92.6691 74.6308 92.0032 72.9168C91.3373 71.2027 88.932 71.4557 88.7845 73.3514C88.6287 75.3471 88.473 77.3428 88.3173 79.3385C89.4094 79.3385 90.5034 79.3385 91.5955 79.3385C91.5156 78.0468 91.1632 76.851 90.4174 75.7817C89.6122 74.6268 87.8686 74.7798 87.422 76.1715C87.0982 77.1775 86.9384 78.208 86.9077 79.263C87.9997 79.263 89.0938 79.263 90.1859 79.263C90.1695 78.9201 90.151 78.5773 90.1347 78.2345C90.0281 76.1143 87.0388 76.1552 86.8565 78.2345C86.8073 78.7957 86.3586 78.9732 85.914 79.1711C85.0637 79.5486 84.4819 79.869 83.9205 80.6342C82.9473 81.9586 84.8445 83.742 86.164 82.8687C86.2562 82.8074 86.3484 82.7462 86.4406 82.685C88.1882 81.526 86.5492 78.6977 84.7851 79.8649C84.6929 79.9261 84.6007 79.9874 84.5085 80.0486C85.2563 80.7934 86.0042 81.5382 86.752 82.283C86.6639 82.4034 87.5019 82.0443 87.6719 81.9647C88.1227 81.7565 88.5529 81.4688 88.9033 81.1158C89.688 80.3241 90.0384 79.3242 90.1347 78.2365C89.0426 78.2365 87.9485 78.2365 86.8565 78.2365C86.8729 78.5794 86.8913 78.9222 86.9077 79.265C87.0122 81.3566 90.1244 81.377 90.1859 79.265C90.2084 78.4875 90.3457 77.7835 90.5834 77.0428C89.5856 77.1734 88.5857 77.302 87.5879 77.4326C88.0079 78.0345 88.2722 78.6059 88.3173 79.3425C88.4484 81.4505 91.4316 81.4341 91.5955 79.3425C91.7512 77.3469 91.9069 75.3512 92.0626 73.3555C90.989 73.5004 89.9154 73.6452 88.8439 73.7901C89.2864 74.9328 89.6675 76.096 89.9625 77.2836C90.0957 77.8182 90.2105 78.3569 90.3109 78.8977C90.3826 79.2793 90.6243 80.018 90.5034 80.4057C90.6448 80.1649 90.7841 79.9261 90.9255 79.6854C90.5854 80.1139 89.7679 80.3179 89.27 80.5465C88.6513 80.8281 88.0325 81.1097 87.4138 81.3933C86.1148 81.9851 84.8158 82.5769 83.5148 83.1686C82.896 83.4502 82.2773 83.7318 81.6585 84.0155C81.2877 84.1848 80.9169 84.3542 80.544 84.5236C80.337 84.6174 79.8023 84.748 79.6896 84.899C79.5052 85.148 80.0031 85.2317 80.1752 85.1949C80.4272 85.1419 80.8656 84.7297 81.1422 84.6093C83.3427 83.64 85.1436 82.4626 86.8954 80.8016C87.7129 80.0261 88.8131 79.1977 88.8971 77.9876C88.9914 76.6265 88.3665 75.0716 88.0551 73.7575C87.5285 74.4472 87.002 75.1349 86.4754 75.8246C88.3931 75.6022 90.0035 74.9308 91.491 73.7024C93.1178 72.3515 90.7882 70.0518 89.1737 71.3843Z" fill="#20204D"/>
<path d="M89.3229 73.6983C89.4417 74.8553 89.7613 75.9225 90.3965 76.9102C90.6771 77.3469 91.005 77.7591 91.343 78.1529C91.5213 78.359 91.7098 78.5569 91.9024 78.7508C91.9802 78.8263 92.0581 78.9018 92.1359 78.9773C92.3777 79.2997 92.4269 79.2201 92.2875 78.7365C92.4289 78.4957 92.5682 78.257 92.7096 78.0162C92.2773 78.5467 91.5623 78.9365 91.0132 79.3405C90.3022 79.8629 89.9437 80.7567 90.4251 81.5749C90.8349 82.2749 91.9515 82.6871 92.6686 82.1606C94.0946 81.1138 96.3299 79.9404 95.3219 77.8305C94.5987 76.3184 92.7916 75.5287 92.6031 73.7003C92.5129 72.8229 91.9147 72.0679 90.964 72.0679C90.1444 72.0658 89.2307 72.8147 89.3229 73.6983Z" fill="#20204D"/>
<path d="M112.485 70.8884C111.712 69.8539 110.387 70.1212 109.831 71.2313C109.094 72.7046 109.104 74.7451 109.278 76.3368C109.35 76.9796 110.155 77.4877 110.677 76.9143C111.962 75.5002 112.628 73.7126 112.501 71.8006C112.464 71.2476 112.009 70.9027 111.464 71.0129C109.643 71.3843 109.485 74.3921 109.403 75.845C109.272 78.1447 109.122 80.2669 107.952 82.3177C107.311 83.4441 104.935 85.4684 106.678 86.7152C108.442 87.9742 109.368 84.6807 109.532 83.5543C109.682 82.5259 108.102 82.0831 107.952 83.1197C107.905 83.4441 107.85 83.7665 107.76 84.0828C107.662 84.4256 107.285 84.9113 107.266 85.2419C107.231 85.8561 107.948 85.1399 108.125 84.9215C108.305 84.697 108.487 84.4726 108.657 84.24C109.44 83.1707 110.04 81.9627 110.432 80.6975C110.817 79.4487 110.94 78.1672 110.999 76.8673C111.03 76.1899 111.042 75.5063 111.124 74.8308C111.173 74.4289 111.374 72.6944 111.903 72.5862C111.556 72.323 111.21 72.0618 110.866 71.7985C110.964 73.28 110.528 74.6513 109.522 75.7593C109.989 75.9511 110.454 76.145 110.921 76.3368C110.835 75.5553 110.807 74.7758 110.878 73.9901C110.934 73.3922 111.429 72.1903 111.073 71.7108C111.692 72.5454 113.116 71.7332 112.485 70.8884Z" fill="#1477DF"/>
<path d="M95.7398 78.8059C92.3408 78.0652 90.4128 81.5301 87.9542 83.1176C85.1964 84.8991 81.7748 85.2235 78.636 85.9173C78.2979 85.9928 78.0213 86.3601 78.0336 86.705C78.091 88.2252 79.726 87.9844 80.7524 87.7232C82.6435 87.2396 84.4977 86.6376 86.3192 85.9397C87.2944 85.5663 86.8703 83.9869 85.8828 84.3665C84.7907 84.7848 83.6864 85.1725 82.5677 85.5153C82.0698 85.6684 81.572 85.8132 81.07 85.95C80.7565 86.0357 80.441 86.1173 80.1275 86.1969C80.0025 86.2295 79.8755 86.2601 79.7485 86.2907C79.478 86.2907 79.4514 86.4295 79.6727 86.707C79.4719 86.9702 79.2711 87.2314 79.0703 87.4947C81.9633 86.8539 84.9669 86.4846 87.6571 85.1623C88.9417 84.5317 90.0092 83.6482 91.0377 82.6707C92.14 81.626 93.609 80.0139 95.3034 80.3812C96.334 80.6057 96.7724 79.0324 95.7398 78.8059Z" fill="#1477DF"/>
<path d="M91.5701 84.0564C92.9306 83.2646 94.5533 82.5708 95.7785 81.5852C96.5673 80.9506 96.4956 79.6324 95.3072 79.5467C94.6721 79.4998 94.1701 79.9099 93.6702 80.2425C92.9613 80.7119 92.2544 81.1832 91.5455 81.6526C90.0745 82.628 88.6054 83.6054 87.1344 84.5808C86.2615 85.1603 87.0811 86.5745 87.9621 85.9908C89.2139 85.1583 90.4678 84.3278 91.7197 83.4952C92.318 83.0973 92.9183 82.6994 93.5165 82.3015C93.8423 82.0852 94.1701 81.8668 94.4959 81.6505C94.6168 81.5709 95.129 81.1587 95.1843 81.1669C95.0204 81.0424 94.8585 80.9159 94.6946 80.7914C94.6885 80.767 94.6823 80.7445 94.6762 80.72C94.7561 80.5282 94.836 80.3344 94.9159 80.1425C94.4693 80.6751 93.5145 81.0281 92.9244 81.373C92.1971 81.7974 91.4697 82.2198 90.7403 82.6443C89.8327 83.1769 90.6563 84.589 91.5701 84.0564Z" fill="#1477DF"/>
<path d="M102.488 76.0757C102.859 76.2022 103.228 76.3287 103.599 76.4573C103.537 76.3083 103.476 76.1573 103.414 76.0084C103.244 76.3369 103.076 76.6634 102.906 76.9919C102.814 77.1735 102.894 77.3796 103.09 77.4408C103.324 77.5163 103.527 77.6531 103.672 77.849C103.689 77.7245 103.705 77.602 103.719 77.4776C103.4 77.7428 103.093 78.0714 102.963 78.4734C102.906 78.6509 102.896 78.8529 102.949 79.0325C102.976 79.1243 103.019 79.2141 103.072 79.2937C103.103 79.3406 103.222 79.4447 103.213 79.5039C103.207 79.5447 103.062 79.6365 103.025 79.6651C102.908 79.7569 102.781 79.8406 102.681 79.9507C102.572 80.0691 102.482 80.2181 102.47 80.3793C102.451 80.6078 102.691 80.8078 102.826 80.9731C102.8 80.8731 102.773 80.7751 102.746 80.6752C102.718 80.7425 102.646 80.7874 102.574 80.7935C102.183 80.8282 102.179 81.4404 102.574 81.4057C102.945 81.373 103.199 81.1792 103.338 80.8384C103.381 80.7323 103.324 80.6201 103.258 80.5405C103.168 80.4282 103.078 80.316 102.986 80.2038C103.013 80.3038 103.039 80.4017 103.066 80.5017C103.103 80.3079 103.338 80.1977 103.48 80.0813C103.666 79.9303 103.83 79.7365 103.826 79.4814C103.82 79.1794 103.482 78.9937 103.537 78.7019C103.599 78.3775 103.914 78.1081 104.154 77.9081C104.248 77.8286 104.277 77.6388 104.201 77.5367C103.955 77.2021 103.648 76.9735 103.25 76.847C103.312 76.996 103.373 77.147 103.435 77.296C103.605 76.9674 103.773 76.6409 103.943 76.3124C104.037 76.1288 103.953 75.9288 103.758 75.8635C103.388 75.737 103.019 75.6104 102.648 75.4819C102.277 75.3554 102.117 75.9471 102.488 76.0757Z" fill="#EAF42A"/>
<path d="M81.8986 79.365C81.6159 79.5732 81.5626 79.916 81.7532 80.2098C81.9478 80.5119 82.3084 80.6282 82.6465 80.5057C83.0132 80.371 83.2529 80.0548 83.4927 79.765C83.802 79.3936 84.1135 79.0222 84.4228 78.6508C84.2774 78.6508 84.1339 78.6508 83.9885 78.6508C84.1135 78.7916 84.177 78.961 84.1811 79.1467C84.1872 79.3793 84.4372 79.5283 84.6441 79.412C85.1707 79.1141 85.435 78.4264 85.1994 77.8611C85.0723 77.9877 84.9473 78.1121 84.8203 78.2386C85.0027 78.3141 85.185 78.3896 85.3674 78.4672C85.4964 78.5202 85.646 78.4305 85.7136 78.3264C85.8263 78.155 85.941 77.9836 86.0537 77.8122C86.273 77.4816 85.7402 77.1755 85.5231 77.504C85.4104 77.6754 85.2956 77.8469 85.183 78.0183C85.2977 77.9713 85.4145 77.9244 85.5292 77.8775C85.3469 77.802 85.1645 77.7265 84.9822 77.6489C84.7773 77.5632 84.5191 77.8203 84.6031 78.0264C84.7363 78.3448 84.64 78.71 84.3306 78.8875C84.4843 78.9753 84.638 79.063 84.7937 79.1528C84.7834 78.7978 84.6564 78.4876 84.4208 78.2223C84.3183 78.106 84.0889 78.0999 83.9864 78.2223C83.5971 78.6876 83.2181 79.1651 82.8165 79.6222C82.7182 79.7344 82.5276 79.9752 82.3535 79.9507C82.3371 79.9486 82.3023 79.9303 82.2818 79.9058C82.2162 79.8283 82.2859 79.8385 82.206 79.8976C82.3392 79.7997 82.4068 79.6324 82.3166 79.4793C82.2429 79.3446 82.0339 79.2671 81.8986 79.365Z" fill="#EAF42A"/>
</g>
<defs>
<clipPath id="clip0">
<rect width="56.0505" height="87.7633" fill="white" transform="translate(56.5938 0.370117)"/>
</clipPath>
</defs>
</svg>
