<svg xmlns="http://www.w3.org/2000/svg" xmlns:xlink="http://www.w3.org/1999/xlink" viewBox="0 0 253.32 126.5"><defs><style>.cls-1{fill:none;}.cls-2{clip-path:url(#clip-path);}.cls-3{fill:#dc7a4a;}.cls-4{fill:#fff;}.cls-5{fill:#21212e;}.cls-6{fill:#c9c9cb;}.cls-7{fill:#e78477;}.cls-8{fill:#bc6877;}.cls-9{fill:#723612;}.cls-10{fill:#7236d2;}.cls-11{fill:#ecfcef;}.cls-12{fill:#43b3e7;}.cls-13{fill:#f5909f;}.cls-14{fill:#f1b300;}</style><clipPath id="clip-path"><rect class="cls-1" x="41.95" y="64.46" width="137.79" height="62.04"/></clipPath></defs><g id="レイヤー_2" data-name="レイヤー 2"><g id="レイヤー_2-2" data-name="レイヤー 2"><g class="cls-2"><path class="cls-3" d="M146.22,81.37a9.51,9.51,0,0,1-4.32,6.77,3.33,3.33,0,0,0,0,5.57A6.54,6.54,0,0,0,151,92a9.79,9.79,0,0,0,1.23-5.24c0-1-.31-2.1.75-2.39,2.51-.71,5.29,1.82,6.13,4,1.14,3-.09,6.43-2.16,8.66-2.78,3,1.62,7.55,4.41,4.55,6-6.45,6-17.76-2.26-22.28-3.45-1.87-8.52-2.26-11.36,1-1.58,1.8-1.7,4.15-1.74,6.45,0,.91.11,2.22-1,1.42V93.7a15.75,15.75,0,0,0,7.19-10.62,3.33,3.33,0,0,0-2.18-4A3.15,3.15,0,0,0,146.22,81.37Z"/><path class="cls-3" d="M152.28,83.12A18.5,18.5,0,0,0,149.61,95c.35,3,4.11,4.64,5.8,1.63a35.64,35.64,0,0,0,3.25-7.84l-6.12-.86a79.48,79.48,0,0,0,1.15,10.56c.53,3,4.3,2.79,5.7.77a8,8,0,0,0-.62-9.53c-1.3-1.69-4-1-4.9.65a32.71,32.71,0,0,0-3,6.82c-1.23,4,4.79,5.64,6,1.71a25.07,25.07,0,0,1,2.37-5.28l-4.89.65c.41.54-.06,1.3-.35,1.73l5.69.77a65.57,65.57,0,0,1-.93-8.85c-.14-3.59-5.11-4.42-6.12-.86A28.59,28.59,0,0,1,150,93.37L155.84,95a12.73,12.73,0,0,1,1.83-8.61C159.83,82.87,154.45,79.64,152.28,83.12Z"/><path class="cls-3" d="M143.57,94.19c0,4,.08,10.26,4,12.41,1.95,1.08,4.6.71,6.71.55a59.74,59.74,0,0,0,7.75-1.1,3.23,3.23,0,0,0,2.28-3.11c0-2.61.47-5.6-.09-8.16s-3.07-4.07-5.55-4.32c-5.31-.53-9.24,3.54-12.24,7.52a3.46,3.46,0,0,0-.48,3.9,3.08,3.08,0,0,0,3.52,1.48c3.21-1.31,5.25-3.75,7-6.78,1.34-2.36,2.44-5.2,4.91-6.5,1.94-1,2.13-4.6,0-5.56a6.19,6.19,0,0,1-3.51-3.46l-3,4.08a7.1,7.1,0,0,1,6.28,6.21c.68,4.84.82,9.83,1.23,14.7l3.11-3.22c-4.06-.15-8.3,0-12.32-.48l1.57.44-.28-.2,1.54,2.78c0-.08,0-.16,0-.23-.31.76-.61,1.52-.92,2.27l.14-.18-2.2,1,.19,0c1.67.17,3.11-1.61,3.11-3.22a3.23,3.23,0,0,0-3.11-3.22c-1.88-.2-3.45,1.64-3.44,3.49,0,2.24,1.82,3.41,3.77,3.58,4,.36,8,.29,12,.43a3.18,3.18,0,0,0,3.12-3.22c-.28-3.36-.57-6.73-.85-10.1-.23-2.77-.19-5.81-1.16-8.44a13.45,13.45,0,0,0-11.73-8.81,3.22,3.22,0,0,0-3,4.08,12.38,12.38,0,0,0,6.37,7.31V84.52c-2.77,1.46-4.55,4.14-6.06,6.86-1.05,1.88-2.2,4.91-4.32,5.77l3,5.38c1.62-2.15,3.57-5.12,6.37-5.63a6.89,6.89,0,0,1,1.43,0c-.43-1-.59-1.07-.49-.24,0,.34,0,.69,0,1l-.06,5.2,2.29-3.11a46.89,46.89,0,0,1-4.7.75c-.81.08-1.62.14-2.43.19a10.51,10.51,0,0,0-2.45.06q-1.11-.17,0,.33l-.12-.19a12,12,0,0,0-.53-2.34,25.46,25.46,0,0,1-.28-4.45C149.84,90.05,143.61,90.05,143.57,94.19Z"/><path class="cls-4" d="M149,96.27c-1.35-.38-2.35.83-2.5,2.1a2.41,2.41,0,0,0,2.33,2.63,3.81,3.81,0,0,0,3.53-2A2.94,2.94,0,0,0,151,95.28a4.4,4.4,0,0,0-4.4.52,2.61,2.61,0,0,0-1.28,1.92,2.21,2.21,0,0,0,.67,1.72,4.77,4.77,0,0,0,3.36,1.29c1.36,0,2.9-.61,3-2.22a2.42,2.42,0,0,0-1-2.08,2,2,0,0,0-2.28,0,2.34,2.34,0,0,0-.94,2.39,1.43,1.43,0,0,0,1.22,1,2.08,2.08,0,0,0,1.44-.26,1,1,0,0,0-.22-1.73l-1-.35a.93.93,0,0,0-1.13.67,1,1,0,0,0,.65,1.16l1,.35c-.07-.57-.15-1.15-.22-1.73-.09,0-.09,0,0,0l-.14,0,.09,0h-.1l-.11,0c.1,0,.11.05,0,0l-.12-.09.42.57c-.05-.19,0,0,0,0a.66.66,0,0,1,0-.14c0-.21,0,0,0,0s0-.11,0-.14.07-.08,0,0a.67.67,0,0,0,.06-.12c0-.06.1-.09,0,0l.12-.13c.06-.1-.13.06,0,0a.29.29,0,0,0,.12-.07c.1-.08-.14.07,0,0s.09,0,.1,0c-.17-.15-.1.1,0,0h.07l-.11,0s.1,0,.13,0-.14-.1,0,0,.09,0,.1.07-.15-.16,0,0,.09.07.09.1-.09-.17,0-.07l.07.12s.05.16,0,0,.06.18,0,.2,0-.21,0-.06v.13s0-.21,0-.06,0,0,0,0-.22.26,0,.09l-.09.1c-.1.13.1,0,0,0a1.59,1.59,0,0,0-.22.13c-.1.06.14,0,0,0s-.07,0-.1,0l-.27.06c-.16,0,0,0,0,0l-.21,0a4.86,4.86,0,0,1-.54,0l-.27,0s-.18,0,0,0-.05,0-.08,0a3.58,3.58,0,0,1-.54-.14l-.27-.1c.2.08-.07,0-.13-.06a4,4,0,0,1-.43-.28c.19.12,0,0-.06-.06l-.09-.09c-.14-.16,0,0,0,0s-.1-.2-.11-.2,0,.18,0,.09a.61.61,0,0,0,0-.11c0-.11,0,.2,0,.09v-.12c0-.12,0,.18,0,.07l0-.15c0,.17,0,.07,0,0s0,0,0,0a2.28,2.28,0,0,1,.22-.22s-.14.09,0,0l.13-.09a2.23,2.23,0,0,1,.33-.2l.32-.17c.1,0,0,0,0,0l.17-.07a4.39,4.39,0,0,1,.79-.21h.5c.15,0-.12,0,0,0l.17,0,.16,0c.1,0,.12.07,0,0l.25.15s.13.11,0,0l.11.1c.07.06.13.14.2.21s-.11-.16,0,0l.09.15c0,.09.09.24,0,.07a2.29,2.29,0,0,1,.08.28c0,.19,0,0,0,0a.75.75,0,0,1,0,.15.35.35,0,0,1,0,.14c0-.13,0-.15,0-.08l0,.11s0,.12,0,0,0,.05,0,.08l0,.08-.06.08-.25.25s-.17.13-.07.06-.07,0-.09.06a2.2,2.2,0,0,1-.26.15s-.31.13-.12.07l-.29.09-.14,0-.1,0c.12,0,0,0,0,0l-.22,0h-.14c-.18,0,.1,0,0,0l-.3-.09c.15,0,.09,0,0,0l-.15-.09s-.14-.11,0,0,0-.05-.06-.07,0,0,0,.07l-.08-.15s.07.23,0,.07l0-.13c-.06-.2,0,.21,0,0,0,0,0-.32,0-.16s0-.09,0-.15c.07-.24-.08.12,0-.06a1.74,1.74,0,0,1,.13-.2c.07.05-.16.15,0,.06s.1-.11.11-.1l0,0c-.07.05-.08.06,0,0s.19-.09,0,0h0s.34-.06-.05,0a.17.17,0,0,1,.1,0c-.11,0-.19,0,0,0a.93.93,0,0,0,1.13-.66A1,1,0,0,0,149,96.27Z"/><path class="cls-5" d="M142.65,72.25l3.51.15c-.1-.74-.19-1.49-.29-2.23a5.12,5.12,0,0,1-3.17,0,1.12,1.12,0,0,0-1.39,1.1c.24,3.42,1,10,5.61,9.48a68.65,68.65,0,0,1,7.59-.91c1.27,0,2.53,0,3.8.09,1.64.08,2.74.33,3.3,2.1a37.48,37.48,0,0,1,1.16,7.9c.14,1.37.6,3,2.11,3.29s2.3-.83,2.83-2c.44-1,.61-2.15,1.45-2.93s2.7-1,3.1.57a1.1,1.1,0,0,0,2.12-.61c-.9-3.46-5-3.64-7.1-1.21a6.76,6.76,0,0,0-1.13,2c-.29.75-.77,2.57-1.17.9-.3-1.23-.16-2.73-.33-4a34.14,34.14,0,0,0-.64-3.47c-.42-1.68-.92-3.52-2.58-4.31-1.88-.89-4.55-.58-6.57-.58a34.15,34.15,0,0,0-7.13.71c-1,.21-1.74.59-2.6-.5a7.1,7.1,0,0,1-.82-2.06,19.15,19.15,0,0,1-.79-4.45l-1.4,1.1a7.15,7.15,0,0,0,4.34,0,1.15,1.15,0,0,0-.29-2.23L142.66,70C141.24,69.92,141.24,72.19,142.65,72.25Z"/><path class="cls-5" d="M177,86.57c-1.13-5.77-2.81-12.26-8.18-15.36-2.76-1.6-5.93-1.78-9-1.86-3.44-.1-6.88-.17-10.32-.25-2.67-.07-6.13-.69-7.3,2.51a5,5,0,0,0,2.21,5.93c2.65,1.51,6,.44,8.9.31a107.47,107.47,0,0,1,10.77.22V73.15l-18.44,1v4.92l14.33-.81c.69,0,1.83,1,2.24,1.4.57.57.81.6,1,1.36a21.73,21.73,0,0,1,.76,7.09h4.76c.18-3.78.35-7.55.53-11.33L164.78,78A21.54,21.54,0,0,1,168,85c.78,3.06,5.38,1.77,4.6-1.31a25.39,25.39,0,0,0-3.67-8.16,2.39,2.39,0,0,0-4.44,1.24c-.18,3.78-.35,8.31-.53,12.08-.15,3.17,4.61,2.4,4.77-.75a26,26,0,0,0-1-8.73c-.69-2.28-1.62-5.2-4.1-5.94a11,11,0,0,0-3.66-.12l-5,.29-9.32.54c-3.05.17-3.07,5.09,0,4.92l18.44-1a2.47,2.47,0,0,0,0-4.93,91.64,91.64,0,0,0-14.91.15c-.38,0-.76.09-1.14.1-.23,0-1.3-.27-1.46-.23.1,0,.17-.07.09,0-1.17.89,0,.67.35.81.9.36,2.58.07,3.56.09l3.91.09c4,.1,9.5-.72,12.86,1.92s4.28,7.71,5.08,11.82C173,91,177.56,89.67,177,86.57Z"/><path class="cls-5" d="M171.29,99.6a31.45,31.45,0,0,0,5.27-12c1.16-2.65-2.63-5-3.8-2.3l-5.27,12C166.33,100,170.12,102.26,171.29,99.6Z"/><path class="cls-3" d="M171.72,92.31c-.15-.72-.11.35,0-.38-.06.47,0,0,0-.23.13-.51-.3.61.09-.24.24-.54-.19.13.24-.34L166.88,88a8.28,8.28,0,0,1-1.66,3.77,3.39,3.39,0,0,0,0,4.55,3.07,3.07,0,0,0,4.41,0,15,15,0,0,0,3.26-6.61,3.37,3.37,0,0,0-1.43-3.64,3.12,3.12,0,0,0-3.78.5,8.28,8.28,0,0,0-2,7.45,3.13,3.13,0,0,0,3.84,2.25A3.3,3.3,0,0,0,171.72,92.31Z"/><path class="cls-6" d="M152.13,114.57c3.86-.07,7.72-.11,11.57-.2a5.33,5.33,0,0,0,4.55-2,35.23,35.23,0,0,0,2.63-4.93,3.14,3.14,0,0,0-5.38-3.25,7.34,7.34,0,0,1-5.91,3c-4,0-4,6.49,0,6.44a13.89,13.89,0,0,0,11.29-6.14l-5.38-3.25a17.2,17.2,0,0,0-1.79,3.49c-.5.71-.39.79.35.24h-.7a12.66,12.66,0,0,0-2.46,0l-8.77.15C148.12,108.2,148.11,114.64,152.13,114.57Z"/><path class="cls-6" d="M167.05,112.64c2.78,1.5,5.11,2,6.84,4.77l2.69-4.85-28.8.53,3,4.08a5.27,5.27,0,0,1,2.53-3.14c3.49-2,.35-7.6-3.15-5.56a11.91,11.91,0,0,0-5.39,7,3.23,3.23,0,0,0,3,4.08l28.8-.53a3.24,3.24,0,0,0,2.69-4.84,24.44,24.44,0,0,0-9.08-8.59C166.64,103.66,163.48,110.73,167.05,112.64Z"/><path class="cls-7" d="M99.66,81.75c-3.12,7.82,2.35,17,8.62,21.33a10,10,0,0,0,11.38.35c3.43-2.29,5.81-6.38,7.17-10.27s1.24-8.65-1.29-12.11-6.51-4.42-10.47-4.61c-3.55-.17-7.86-.08-10.55,2.69-2.88,3-2.67,8-1.8,11.84.94,4.1,5.42,9.63,9.75,6.13,3.7-3,2.75-10,1.34-13.93-.91-2.54-5-4-6.36-.86-2.08,4.9-1.47,11.88,3.47,14.82,6.29,3.73,9.75-6.5,9.79-11.16,0-3.4-5-5.14-6.49-1.82a16.36,16.36,0,0,0-1.6,8.58c.4,3.89,5.63,5.06,6.84,1a26.85,26.85,0,0,0,1.11-8.07h-7a8.27,8.27,0,0,1-1.33,4.92c-2.45,3.9,3.58,7.51,6,3.63a15.2,15.2,0,0,0,2.29-8.55c-.15-4.62-7-4.65-7,0a20,20,0,0,1-.85,6.15l6.84,1a9.27,9.27,0,0,1,.64-4.94L113.75,86c0,1.42-.45,4.46-1.7,5.11l1.76-.5c.5-.06.48.47,0-.46a5.24,5.24,0,0,1-.34-4.17l-6.36-.86a13.54,13.54,0,0,1,.9,4.71,18,18,0,0,0-.18,2,4,4,0,0,1,2.72-.58,5.66,5.66,0,0,1-.42-.43,15.82,15.82,0,0,1-.89-3.21c-.07-.86-.38-2.75.22-3.39,1.14-1.2,4.77-.64,6.18-.55,2.34.16,4.67.83,5.08,3.54s-1.23,6-2.81,8.14c-1.19,1.65-2.79,3.12-4.87,2.25-2.54-1.06-4.6-3.86-5.89-6.25a8.67,8.67,0,0,1-.75-7.68c.71-1.8-.78-4-2.44-4.43C101.94,78.66,100.38,79.94,99.66,81.75Z"/><path class="cls-7" d="M116.31,85.62c-1,3.82,2,8.09,5.93,7.85-.59-2.23-1.17-4.47-1.76-6.7l-1.15.89a3.86,3.86,0,0,0-1.6,2.15,3.76,3.76,0,0,0,.35,2.77c.93,1.49,3.2,2.49,4.77,1.29L124,93a3.79,3.79,0,0,0,1.6-4.07,3.55,3.55,0,0,0-3.36-2.64c-.38,0-.28,0,.31.1-.36-.1-.27,0,.25.16-.31-.2-.25-.13.18.2a2.76,2.76,0,0,1-.29-.3c.32.45.38.51.18.19.2.54.24.62.13.26,0,.61.07.72,0,.33-.11.59-.11.7,0,.32a3.66,3.66,0,0,0-2.43-4.43A3.53,3.53,0,0,0,116.31,85.62Z"/><path class="cls-7" d="M101,81.81c-.14,4-.32,8-.42,12-.08,3,.2,6.16,2.21,8.46,2.29,2.61,5.78,2.7,8.94,2.76a72.84,72.84,0,0,0,11.52-.81c1.86-.27,2.88-2.74,2.43-4.43-.55-2.08-2.41-2.78-4.28-2.52a60,60,0,0,1-8.25.56,37.24,37.24,0,0,1-4.09-.11c-.68-.07-1,0-1.31-.64a5.38,5.38,0,0,1-.22-2.22c0-1.35.07-2.7.12-4q.17-4.5.32-9C108.15,77.17,101.19,77.18,101,81.81Z"/><path class="cls-8" d="M109.47,83.73c.82,1.35-.24,2.87-.63,4.19a4.63,4.63,0,0,0,0,3.3,2.75,2.75,0,0,0,4.28,1.13c1.11-.9-.45-2.5-1.56-1.61-.8.64-.74-1.72-.68-2,.21-.84.62-1.61.85-2.44a4.61,4.61,0,0,0-.37-3.76A1.11,1.11,0,0,0,109.47,83.73Z"/><path class="cls-4" d="M110.27,98a10.8,10.8,0,0,1,2.11-.5,6.22,6.22,0,0,0,1.23-.07h.47a1.11,1.11,0,0,0-.71-.52A36,36,0,0,0,109,95.46a1.14,1.14,0,0,0-1.24,1.67,4.62,4.62,0,0,0,7.18.6c1-1-.58-2.66-1.56-1.6A2.44,2.44,0,0,1,109.7,96l-1.24,1.67a32.17,32.17,0,0,0,5.1,1.63,2.38,2.38,0,0,0,2.79-1.69c.81-3.57-5.11-2.31-6.67-1.8C108.34,96.23,108.91,98.43,110.27,98Z"/><path class="cls-9" d="M103.37,89.44c-.2-2.31-.76-4.53-1.13-6.82-.2-1.3-.3-2.46.43-3.24A5.42,5.42,0,0,1,105.93,78a50.84,50.84,0,0,1,6.53-.21c2.17,0,4.34-.09,6.51-.12,1.58,0,2.86-.08,3.74.83,2.33,2.4,1.53,7.11,1.15,10.43-.28,2.45,2.22,4.55,4.4,4.55,2.61,0,4.11-2.1,4.4-4.55.68-5.9.64-12.35-3.73-16.86s-10.82-3.48-16.47-3.38-11.78-.16-16,4.22a11.67,11.67,0,0,0-3.14,8.43c.07,2.76,1,5.35,1.26,8.06C94.78,91.89,96.45,94,99,94A4.5,4.5,0,0,0,103.37,89.44Z"/><path class="cls-9" d="M103.25,75.91c.86-1.77,2.74-3,4.56-1.36l5.33-7.14c-5.39-3.57-13-4.56-17.64.82-2.1,2.41-3.39,6.06-2.44,9.29,1.46,5,7.49,5,9.22.28a4.66,4.66,0,0,0-1.13-4.43l-.13-.15a4.34,4.34,0,0,0-6.22,0,4.75,4.75,0,0,0,0,6.43l.13.15c-.38-1.47-.76-2.94-1.13-4.42l-.09.23,2-2.72-.21.1H100l-.3-.22,2,2.71c-.23-.6-.22-.31-.19,0,0-.44.07-.49.3-.85a2.7,2.7,0,0,1,1.22-1c2-.65,4.07.56,5.68,1.63,4.16,2.75,9.11-3.7,5.33-7.14-5.71-5.2-14.82-4.13-18.38,3.2a4.75,4.75,0,0,0,1.58,6.22A4.37,4.37,0,0,0,103.25,75.91Z"/><path class="cls-9" d="M117.09,75.73c1.55-.66,3.44-1.36,5.08-.68a9.17,9.17,0,0,1,.84.54c-.22-.19.5.61.26.3.48.64.47.64.4,1.69a4.52,4.52,0,0,0,4.4,4.54,4.56,4.56,0,0,0,4.4-4.54,11.4,11.4,0,0,0-5.41-10.12c-3.67-2.3-8.45-2.16-12.31-.5-2.19.94-3.76,3-3.07,5.59C112.25,74.7,114.88,76.68,117.09,75.73Z"/><path class="cls-9" d="M124.18,88.71a6.14,6.14,0,0,0-.69,4.48c.31,1.81,2.32,2.56,3.84,2.25,5.61-1.12,6.34-7.67,6.39-12.5s-1-9.42-4.89-12.41c-1.36-1-3.48-.24-4.26,1.15a3.37,3.37,0,0,0,1.11,4.41c1.75,1.33,1.81,4.3,1.82,6.32,0,1.81.47,6.36-1.83,6.82l3.84,2.25c0,.16,0,.32.05.48C131.65,88.41,126.26,85.17,124.18,88.71Z"/><path class="cls-9" d="M98.63,88.89l-.83.85a2.82,2.82,0,0,0-.75,1.88,2.11,2.11,0,0,0,.22,1,2,2,0,0,0,.53.85,2.55,2.55,0,0,0,1.82.78,2.61,2.61,0,0,0,1.81-.78l.83-.85a2.79,2.79,0,0,0,.75-1.87,2.13,2.13,0,0,0-.22-1,2,2,0,0,0-.53-.85,2.59,2.59,0,0,0-1.82-.78A2.62,2.62,0,0,0,98.63,88.89Z"/><path class="cls-9" d="M92.62,73.5a15.85,15.85,0,0,0,2.6,18c2.34,2.42,6-1.33,3.63-3.75a10.24,10.24,0,0,1-1.79-11.54C98.57,73.15,94.15,70.47,92.62,73.5Z"/><path class="cls-10" d="M99.32,101.67c4.23,5.58,11.43,6.81,17.9,6.34,1.88-.14,3.74-.38,5.61-.64a7.82,7.82,0,0,0,3.91-1.3c2.69-2.07,1.74-5.53.46-8.14l-2.5,2.59a20,20,0,0,1,9,15c.21,2.41,3.88,2.43,3.67,0a24,24,0,0,0-10.81-18.26c-1.65-1.06-3.3,1-2.51,2.59.39.8,1.18,2.18.62,3s-2.35.79-3.23.91a51.21,51.21,0,0,1-7.72.55c-4.51-.12-8.94-1.56-11.8-5.33C100.46,97.07,97.88,99.77,99.32,101.67Z"/><path class="cls-10" d="M97,99.63a24.53,24.53,0,0,0-4.43,7.72,19.66,19.66,0,0,0-1.25,8.76c.5,3.34,4.74,2.61,7.16,2.68,3.59.11,7.19.16,10.78.15q10.78,0,21.55-.84c1.11-.08,2.7.06,3.68-.62a2.73,2.73,0,0,0,.8-3.3c-1.15-3.36-3.1-6.61-4.62-9.81a1.83,1.83,0,0,0-3.41.95c0-.39-.23-.08-.57,0s-.8.26-1.19.38c-.8.23-1.61.44-2.42.6a28.87,28.87,0,0,1-5.08.59,30.58,30.58,0,0,1-10.26-1.47,35.09,35.09,0,0,1-4.69-2,4.54,4.54,0,0,0-3.87-.49c-2.63,1.11-4,5.22-4.68,7.82a1.89,1.89,0,0,0,2.25,2.33,7.68,7.68,0,0,0,5.66-4.4c.85-1.81-1.4-4-2.87-2.29a14.16,14.16,0,0,0-2.9,5.3A1.92,1.92,0,0,0,98,114c1.53.28,3.23.46,4.54-.61a3.59,3.59,0,0,0,1.11-3.76c-1.29-4.17-6.12-.88-7.43,1.46a3,3,0,0,0,.69,3.95,4.87,4.87,0,0,0,3.95.44c4.66-.91,9.31-2,14-3,2-.43,1.57-3.82-.49-3.72l-10.75.54c-2.34.12-2.38,3.81,0,3.79l3.37,0c1.67,0,2.68-2.75.92-3.53l-5.59-2.47-.93,3.53L106,110l-1.77-2.4A4,4,0,0,1,102,110c-2.14,1-.28,4.3,1.85,3.27a7.65,7.65,0,0,0,3.91-4.68c.35-1.06-.61-2.55-1.77-2.39l-4.67.62c-1.52.2-2.82,2.69-.92,3.53l5.59,2.47.93-3.53-3.37,0v3.78l10.75-.53c-.16-1.24-.33-2.49-.49-3.72l-10.39,2.2-2.5.53a12.29,12.29,0,0,0-1.88.31c-.46-.07-.29.18.53.75a5.29,5.29,0,0,1,1-1c.91-.33.71-.75-.59-1.26a4.16,4.16,0,0,1-1-.1c.43.77.86,1.55,1.28,2.33a9.72,9.72,0,0,1,2-3.64l-2.87-2.3a4.35,4.35,0,0,1-3.47,2.66l2.25,2.33a11.55,11.55,0,0,1,2-4.69c.75-.86,1.28-.27,2.2.18.71.34,1.43.66,2.15,1a33.12,33.12,0,0,0,9.85,2.35,33.47,33.47,0,0,0,9.78-.6c2.35-.49,7.15-1.23,6.87-4.64l-3.42,1,3.64,7.69.48,1,.62-.76s-1.87.14-2.15.15c-1.44.11-2.87.2-4.31.28q-8.07.47-16.16.51-4,0-7.91-.07c-1.32,0-2.64-.06-4-.1l-2.16-.08-1.08,0q-1.07-.18.42.9c.06,0,.13-3.09.18-3.45a20.61,20.61,0,0,1,.79-3.37,19.63,19.63,0,0,1,3.68-6.63C101.17,100.47,98.59,97.79,97,99.63Z"/><path class="cls-10" d="M96.72,116.2l19.23-.69a72.77,72.77,0,0,0,9.1-.42,4.16,4.16,0,0,0,3.67-5.08,2.07,2.07,0,0,0-1.94-1.53,49.12,49.12,0,0,0-14.67.67c-2,.37-1.9,3.59,0,4a24.61,24.61,0,0,0,11.74-.66c.67-.17,2.37-.92,3-.32l.15,0a.87.87,0,0,1-.69.23,5.72,5.72,0,0,1-1.43,0c-2.19-.21-4.38-.52-6.56-.77-3.68-.43-7.38-.81-10.67-2.73a18,18,0,0,1-7-7.62c-1.19-2.38-4.67-.28-3.49,2.11a21.71,21.71,0,0,0,9.9,9.87c5,2.37,10.73,2.48,16.1,3.11,2.47.28,5.23.66,7-1.58a4.12,4.12,0,0,0-.86-5.84c-2.27-1.74-5-.75-7.44-.15a18.86,18.86,0,0,1-8.64.41v4a45.68,45.68,0,0,1,13.61-.52l-2-1.53c-.08-.41-.46-.13-1-.07s-1.18,0-1.76.07l-3.63.13-7.25.27L96.73,112C94.14,112.13,94.12,116.3,96.72,116.2Z"/><path class="cls-10" d="M99.22,99.24a13.28,13.28,0,0,0-12.17,14.19c.22,2.95,1.43,6.91,5.08,5.82A4.28,4.28,0,0,0,95,116.13c.52-2-.49-4,0-5.9.29-1.19-.59-2.79-1.94-2.64-3.81.43-4.36,5.51-1.16,7.37,1.87,1.08,4.33,1,6.41,1.23q4.09.39,8.21.68c10.61.72,21.25.94,31.88,1.14,2.25,0,2.78-3.55.54-4.09l-3.73-.89c-2.53-.61-3.61,3.41-1.07,4l3.73.89c.18-1.36.35-2.73.53-4.09-7.88-.15-15.77-.31-23.65-.68-3.82-.18-7.64-.4-11.45-.71-2-.15-4-.34-6.07-.54a20,20,0,0,1-2.55-.32,6.24,6.24,0,0,0-.83-.28c-.09,0-.12,0-.07,0,.27-.16,0,0-.72.49l-2-2.63a9,9,0,0,0-.16,3.24c.06.51.17,1,.21,1.52a8.86,8.86,0,0,0-.06,1.34c.16.48.31.38.39,0a8.59,8.59,0,0,0-.34-1.52,9.53,9.53,0,0,1,.12-3.06,9,9,0,0,1,8-7.27C101.79,103.18,101.81,99,99.22,99.24Z"/><path class="cls-10" d="M128.44,103.7A12.63,12.63,0,0,1,137,116.35c-.12,2.68,3.92,2.67,4,0a16.86,16.86,0,0,0-11.52-16.67C127,98.91,126,102.93,128.44,103.7Z"/><path class="cls-11" d="M63.15,103c3.1,5.34,9.17,6.78,14.83,6.34,3.51-.27,3.53-6,0-5.68s-8,0-10.08-3.53C66.08,97,61.32,99.86,63.15,103Z"/><path class="cls-12" d="M63.17,109.19c2.31.55,4.47,1.6,6.75,2.25a16,16,0,0,0,3.28.58c.32,0,1.22-.16,1.39-.1s.63.62.87.83a9.71,9.71,0,0,0,5.29,2.12c1.08.17,4,.14,4.21,1.53v-1.51c.12-.71,1.75-.69.08-.76l-1.43-.07-3.22-.16-6.79-.35-6.44-.32a5,5,0,0,0-1.43-.08c-.72-.11-.54.15.53.78-.06-.21-.13-.41-.19-.62a14.26,14.26,0,0,1-.1-3.07l-4.14,2.46a35.12,35.12,0,0,0,16,5v-5.68c-4.49-.16-9-.33-13.47-.48-3.54-.13-3.53,5.55,0,5.68l13.47.48c3.56.13,3.5-5.43,0-5.68a29.16,29.16,0,0,1-13.19-4.28c-2-1.2-3.89.41-4.14,2.46-.32,2.7.08,6.66,2.71,8,1.49.78,3.44.59,5.06.68l5,.25,10,.51c2.81.14,6.33.29,7-3.33.57-3-1.87-5.3-4.35-6.23-2-.75-4.53-.37-6.42-1.4-.92-.5-1.41-1.54-2.36-2-1.37-.72-2.76-.23-4.2-.41-2.86-.35-5.5-1.94-8.29-2.6C61.18,102.9,59.71,108.38,63.17,109.19Z"/><path class="cls-13" d="M78.42,86.26c.76,1.69,2,3.55,2.25,5.4V89.94c.09-.44,2.08-1.09,2-.69,0,0-.1-.17-.08-.22.15-.25-.28-1.56-.34-1.92a9.76,9.76,0,0,0-1.69-4.53,8,8,0,0,0-7.19-3.29c-6.3.6-9.57,6.57-10.44,12.45-.46,3.17-1,6.6,2,8.54a33.05,33.05,0,0,0,9,3.47c3.17.82,6.21,0,7.06-3.59.35-1.54.49-3.17.71-4.73a8.55,8.55,0,0,0-.21-4.49c-1.36-3.55-5.43-3.88-8.11-1.75S69.58,95.27,70,98.66c.3,2.63,3.26,4.43,5.32,2.28,3.3-3.45,3.55-10,1-14-1.59-2.54-4.91-3.41-7.05-1-2,2.2-2.25,5.38-1.78,8.18a3.11,3.11,0,0,0,3.83,2.25,9.16,9.16,0,0,0,5.91-6.44c.91-3.52-3.88-5.63-5.7-2.48A23.88,23.88,0,0,1,70.07,90l1.38-.83-.23.07,3.52,1.48-.08-.12c.11.82.21,1.65.31,2.48l.06-.14L72,95.3h.11c1.67.19,3.11-1.61,3.11-3.22a3.24,3.24,0,0,0-3.11-3.22H72c-1.44-.16-2.54,1.14-3,2.36A3.29,3.29,0,0,0,69.35,94a3.17,3.17,0,0,0,3.52,1.48c2.11-.63,3-3,4-4.78l-5.7-2.48a2.56,2.56,0,0,1-1.55,1.94l3.83,2.25a3.26,3.26,0,0,1,.07-1.32c.13-.53.82-1,.1-.58l-1.57.44h0l-1.37-.83c1.28,1.08,1.47,4.93.16,6.3l5.32,2.28a6.58,6.58,0,0,1,.3-3.35c.48-1.17,1.27-.9,0-1.68-1.56-1-.54-.61-.84.08a10.84,10.84,0,0,0-.32,2.14c-.11.72-.19,1.44-.32,2.15,0,.15,0,.29-.07.44-.14.56-.14.58,0,0l1.38-.83c-.75.25-2.64-.67-3.37-.92-1.08-.36-2.15-.75-3.2-1.2a11.43,11.43,0,0,0-1.52-.71c.29,1,.43,1.17.43.58,0-.3,0-.6.08-.91a26.58,26.58,0,0,1,.45-3c.41-1.88,1-3.84,2.6-5,1.1-.85,2.81-1.36,3.77,0a7.26,7.26,0,0,1,.69,3,9,9,0,0,0,1,3.06,5.31,5.31,0,0,0,5.5,2.79,4.7,4.7,0,0,0,3.92-5c-.16-2.47-1.93-5.14-2.93-7.36a3.1,3.1,0,0,0-4.27-1.16A3.4,3.4,0,0,0,78.42,86.26Z"/><path class="cls-14" d="M84.46,71.34C75.57,65,60.38,64.6,55.72,76.48c-1,2.56,1.09,5.62,3.46,6.3,2.83.8,5.08-1,6.09-3.58-.3.77.35-.41,0,0s.56-.61.54-.59c.21-.23.54-.42.12-.12A10.28,10.28,0,0,1,67,77.86c.7-.38-1,.26.41-.18l1-.29c.11,0,1.35-.28.82-.2s.85,0,.83,0a14.77,14.77,0,0,1,9.43,3c2.2,1.57,5.5.42,6.77-1.84A5.33,5.33,0,0,0,84.46,71.34Z"/><path class="cls-14" d="M77.11,70.05a34.71,34.71,0,0,0-16.68,4l6.77,7a2.43,2.43,0,0,1,1.74-1.08c1.37-.34-.74-.1,1-.16a14.56,14.56,0,0,1,2.09.06,92.74,92.74,0,0,1,10,2.24A5,5,0,0,0,88,78.51c.68-2.57-.84-5.68-3.46-6.29-8.64-2-20.07-5.91-25.92,3.64a5.32,5.32,0,0,0,.78,6.2,5,5,0,0,0,6,.8,23.91,23.91,0,0,1,11.69-2.58,5.12,5.12,0,0,0,0-10.23Z"/><path class="cls-14" d="M61.84,74.22c-6.2,3.39-9.25,11.11-7.51,18a5,5,0,0,0,6.09,3.57,5.22,5.22,0,0,0,3.46-6.29,5.66,5.66,0,0,1,3-6.5,5.26,5.26,0,0,0,1.78-7A5,5,0,0,0,61.84,74.22Z"/><path class="cls-14" d="M58,75.88a19,19,0,0,0-5.64,13.93c0,2.25.23,4.44-.34,6.6A20.25,20.25,0,0,1,51.12,99c-.26.63-.56,1.25-.85,1.87-.1.2-.19.41-.29.62-.52.94-.36.84.49-.3l2.5-.69h-.35l3.5,1.5-.24-.26c-4.47-4.7-11.47,2.53-7,7.23,3.21,3.38,7.78,1.39,9.64-2.32a34,34,0,0,0,3.31-8.88c.61-3.27,0-6.51.46-9.75A8,8,0,0,1,65,83.12a5.3,5.3,0,0,0,0-7.23A4.91,4.91,0,0,0,58,75.88Z"/><path class="cls-14" d="M50.53,92.49c-4,5.09-7.42,10.82-8.36,17.4-1,7,1.11,17.74,10.16,16.51,7.29-1,10.51-9.58,11.23-16.17s-1.05-13-3.66-18.84c-1.12-2.51-4.63-3.14-6.77-1.84-2.49,1.51-2.9,4.48-1.77,7a28.44,28.44,0,0,1,2.46,11,14.3,14.3,0,0,1-.77,5.09c-.13.41-2,4.1-2.23,3.81s1.33.31,1.38.32c.24,0,.15.41,0-.24a11.1,11.1,0,0,1,0-6.33,28.65,28.65,0,0,1,5.37-10.47c1.68-2.15,2-5.13,0-7.23C55.8,90.7,52.21,90.33,50.53,92.49Z"/><path class="cls-14" d="M46.77,117.47l.86,1.18c1.82,2.5,5.39,3.68,7.77,1,4.17-4.63,5.21-11.19,6.49-17.16C63.33,95.8,64.36,88.85,63.57,82c-.32-2.74-2-5.11-5-5.11-2.43,0-5.27,2.35-4.95,5.11A53.23,53.23,0,0,1,52.5,99.08c-.57,2.74-1.2,5.48-1.89,8.19-.24.94-.62,2.34-.88,3a9.44,9.44,0,0,1-1.33,2.19l7.77,1-.85-1.17c-1.6-2.21-4.28-3.35-6.77-1.84C46.45,111.75,45.16,115.25,46.77,117.47Z"/><path class="cls-14" d="M57.91,76.83c-3.64,4.93-2.09,11.09-1.22,16.64.37,2.32.22,3.94-.81,5.45a21.58,21.58,0,0,1-4.06,3.7,5.36,5.36,0,0,0-1.78,7c1.25,2.2,4.6,3.46,6.77,1.83,4.93-3.69,9.34-7.75,9.91-14.4.29-3.3-.6-6.53-1.12-9.76-.32-1.93-.38-3.61.86-5.29,1.63-2.2.33-5.73-1.77-7C62.14,73.46,59.54,74.63,57.91,76.83Z"/><path class="cls-14" d="M80.08,68.52c-4.82-3-9.71-4.6-15.36-3.68a17,17,0,0,0-11.8,8c-3.1,5.29-2.62,11.52-2.06,17.39A30,30,0,0,1,51,97.52c.13-.82-.18.75-.19.8a14.28,14.28,0,0,1-.46,1.54c.28-.74-.32.54-.39.68-.33.5-.38.59-.13.26q-.34.4-.72.78c-4.55,4.62,2.46,11.85,7,7.23C59.67,105.15,61,100.09,61,95c0-4.48-1.23-9.62-.65-13.71a9.36,9.36,0,0,1,.86-2.92c.05-.1.7-1.16.38-.69s.56-.61.67-.75a5.79,5.79,0,0,1,.51-.48c-.35.25-.38.27-.1.06s.64-.44,1-.64c.18-.1,1.28-.64.49-.31a13.25,13.25,0,0,1,1.34-.46c.45-.13.91-.23,1.38-.32-1,.18.47,0,.57,0q.72,0,1.44,0c.11,0,1.54.24.57,0,.47.1.93.2,1.39.34.18.05,1.46.51.6.15a25.14,25.14,0,0,1,3.63,2.07,4.93,4.93,0,0,0,6.77-1.83A5.28,5.28,0,0,0,80.08,68.52Z"/><path class="cls-4" d="M79.84,96.45a2,2,0,0,1-.32-.1l-.17-.06c.14.06,0,0,0,0-.24-.13-.47-.26-.7-.41-.41-.26-.8-.55-1.21-.81a3.06,3.06,0,0,0-3-.45,2.56,2.56,0,0,0-1.26,2.86A3.36,3.36,0,0,0,75,99.93a6.83,6.83,0,0,0,4.57-.11,1,1,0,0,0,.54-1.39,5.77,5.77,0,0,0-2.38-2.29c-1-.5-2.74-1.09-3.37.26a1.83,1.83,0,0,0,.2,1.82,2.27,2.27,0,0,0,1.55.85,2.79,2.79,0,0,0,2-.2,1.9,1.9,0,0,0,.85-1.55,2.54,2.54,0,0,0-2-2.49,4.35,4.35,0,0,0-3.25.14A2.22,2.22,0,0,0,73,98a4.92,4.92,0,0,0,2.4,2c1.86.81,4.72,1.34,5.92-.83A1,1,0,0,0,81,97.87a.9.9,0,0,0-1.25.34,1.59,1.59,0,0,1-.13.22c.1-.15,0,0,0,0l-.14.13c.15-.12,0,0,0,0l-.16.1c.18-.1,0,0-.07,0l-.15,0-.2,0H78.4l-.43,0-.18,0c.2,0-.1,0-.11,0a4.54,4.54,0,0,1-.53-.12,8.57,8.57,0,0,1-.86-.27l-.2-.08c-.15-.06.2.1-.07,0a4.16,4.16,0,0,1-.51-.28,2.86,2.86,0,0,1-.66-.52l-.19-.21s.08.13,0,0L74.52,97c-.14-.23.06.16,0-.08s0,.15,0-.06c0-.06,0-.15,0,0,0,0,0-.27,0-.08,0,0,.06-.11,0,0s.22-.18.08-.09.24-.12.13-.08.43-.08.28-.06a4.66,4.66,0,0,1,.93,0,3.05,3.05,0,0,1,.9.26.64.64,0,0,1,.26.23c-.08-.1,0,0,0,0a.3.3,0,0,0,0,.08c0-.1,0-.09,0,0s0,.09,0,0,0,.29,0,.07a1.24,1.24,0,0,1,0,.16c.05-.11.05-.11,0,0,.07-.09.07-.09,0,0s.05-.07.07-.07c-.34,0,.16,0-.19,0l-.28,0h-.12a1.74,1.74,0,0,1-.5-.12c.13.06-.13-.09,0,0-.1-.06,0,0,0,.08a.24.24,0,0,1,0-.08v0c0-.07,0,0,0,.06a.4.4,0,0,1-.1.15l-.07.06c-.17,0-.2,0-.1,0a1.07,1.07,0,0,0,.23,0,3.47,3.47,0,0,1,1,.38,3.92,3.92,0,0,1,1.54,1.51L79.08,98a6.31,6.31,0,0,1-2.89.36,2.1,2.1,0,0,1-.58-.21s-.21-.14-.13-.08l-.06,0-.11-.12s-.18-.24-.08-.09l-.13-.2s-.12-.26-.09-.18,0,0,0,0l-.06-.19s0-.26,0-.14,0-.14,0-.18a1.69,1.69,0,0,1,0-.23c0,.23,0,0,0-.11,0,.18,0,0,0-.07s0,0,0,0l.1-.11c.09-.12-.09,0,0,0l.1-.07c.09,0-.13,0,0,0s.21-.05,0,0a2.17,2.17,0,0,0,.26,0c.09,0,0,0-.07,0a.4.4,0,0,1,.15,0c.1,0,.19.06.29.09s-.08,0,.07,0l.26.14c.17.1.35.21.52.33a8.82,8.82,0,0,0,2.6,1.43.94.94,0,0,0,1.13-.67A1,1,0,0,0,79.84,96.45Z"/></g><path class="cls-4" d="M13.73,19.89H55.16A13.73,13.73,0,0,1,68.89,33.62h0A13.73,13.73,0,0,1,55.16,47.35H13.73A13.73,13.73,0,0,1,0,33.62H0A13.73,13.73,0,0,1,13.73,19.89Z"/><path class="cls-4" d="M177.78,24.45h61.81a13.73,13.73,0,0,1,13.73,13.73h0a13.73,13.73,0,0,1-13.73,13.73H177.78a13.73,13.73,0,0,1-13.73-13.73h0A13.73,13.73,0,0,1,177.78,24.45Z"/><path class="cls-4" d="M122.66,0h5.53a13.73,13.73,0,0,1,13.73,13.73h0a13.73,13.73,0,0,1-13.73,13.73h-5.53a13.73,13.73,0,0,1-13.73-13.73h0A13.73,13.73,0,0,1,122.66,0Z"/><path class="cls-4" d="M52.4,60.58c-9.73,0-13.35-8.47-13.59-14.24h6.44C45.25,55,50.25,58.4,52.4,60.58Z"/><path class="cls-4" d="M118.64,43.73c3.73,0,5-12.13,4.31-19.33h5.39C128.34,38.65,124.39,43.73,118.64,43.73Z"/><path class="cls-4" d="M182.48,69.17c8.67-4.71,8.67-11.5,8.67-17.26H198C198,66.66,187.17,69.56,182.48,69.17Z"/></g></g></svg>