<svg width="76" height="61" viewBox="0 0 76 61" fill="none" xmlns="http://www.w3.org/2000/svg">
<path d="M69.5572 32.0378C69.2216 28.3749 68.1201 25.0842 66.4093 21.8226C65.7738 20.6124 65.0536 19.4508 64.3008 18.3086C63.9 17.7003 63.4992 17.092 63.0755 16.5031C61.7655 14.6846 60.4587 13.7656 58.3275 13.0473C57.6203 12.8079 56.9197 12.7076 56.2419 12.7237C55.9355 12.5749 55.6227 12.4584 55.3066 12.371C55.3131 12.3613 55.3196 12.3484 55.3261 12.3387C53.4295 11.766 51.7056 12.1154 50.0078 12.7108C49.9035 12.714 49.8025 12.7205 49.6982 12.7237C48.3947 12.7852 47.1173 13.3256 46.1657 14.1895C44.5461 14.7558 43.1057 15.2023 41.9 16.7522C40.8604 18.0886 40.2119 19.5802 39.6384 21.1787C38.2469 25.0583 38.1263 29.323 39.6221 33.057C39.5504 36.4901 40.163 39.8585 42.1802 42.9648C46.2961 49.3133 54.6516 51.9213 61.4005 48.019C66.8134 44.8868 70.121 38.2051 69.5572 32.0378Z" fill="#FFA200"/>
<path d="M41.4243 30.2194C41.307 29.3619 40.779 28.5271 40.0719 28.1161C39.1464 27.579 38.1883 27.6664 37.3899 28.1323C36.7088 28.3103 36.0831 28.7697 35.7475 29.3392C35.4868 29.7825 35.389 30.242 35.4183 30.6885C34.0464 33.8628 34.8187 37.7068 37.2237 40.2533C38.5402 41.6479 40.4988 41.0331 41.5025 39.7065C43.5001 37.0694 43.4219 32.8662 41.4243 30.2194Z" fill="#FFA200"/>
<path d="M72.6507 13.51C72.2271 12.6687 71.7057 11.8242 71.1093 11.0055C67.3747 5.66659 61.8544 2.74473 55.503 2.46969C55.0337 2.45028 54.6003 2.50852 54.2027 2.62824C54.0561 2.48264 53.9062 2.34026 53.7465 2.2076C52.5473 1.19805 51.1167 0.453839 49.5785 0.178802C47.0856 -0.267727 44.094 0.0687878 42.0247 1.79666C41.8813 1.91639 41.7444 2.04581 41.6108 2.17524C39.9162 2.70267 38.3455 3.89665 36.9736 5.34625C32.4862 8.81494 29.9476 14.704 30.4853 20.7515C30.4821 20.8227 30.4788 20.8971 30.4755 20.9683C30.4853 20.9651 30.4984 20.9651 30.5081 20.9618C30.5603 21.4731 30.6287 21.9843 30.7265 22.4988C30.9937 23.9096 31.9322 25.013 33.1217 25.7086C33.2585 27.7504 33.8842 29.708 35.4322 30.8923C38.1272 32.9567 42.1322 32.8369 43.892 29.2615C44.5665 27.8928 44.7718 26.7052 44.7327 25.1974C44.7229 24.8059 44.9348 22.8289 44.661 24.0908C44.7197 23.7446 44.7979 23.3983 44.8924 23.0618C44.9022 23.0392 44.9087 23.023 44.9185 23.0003C44.9967 22.8483 45.4725 22.0167 45.6093 21.7384C45.7658 21.5734 46.0949 21.1883 46.3263 20.9263C46.3067 20.9974 46.8965 20.5186 47.2746 20.2273C47.356 20.2241 47.91 19.9749 48.3011 19.8132C48.4054 19.8488 49.0832 19.8035 49.4938 19.7808C50.4942 20.5088 51.788 20.7936 52.9709 20.2888C54.3592 19.6934 55.3107 19.5155 56.5034 19.9426C56.5132 19.9652 57.0346 20.2144 57.1422 20.2759C57.4583 20.4635 57.7776 20.6415 58.0905 20.8389C58.2143 20.9263 58.5141 21.1366 58.6151 21.2207C58.941 21.4893 59.2604 21.7675 59.5634 22.0685C59.8078 22.3111 60.0392 22.5635 60.2673 22.8191C60.3749 22.9389 60.4531 23.023 60.5117 23.0812C60.5541 23.1492 60.6063 23.2333 60.6845 23.353C60.8735 23.6378 61.0332 23.9452 61.2254 24.2267C61.2873 24.3173 61.3395 24.3885 61.3818 24.45C61.3916 24.4726 61.3981 24.4953 61.4112 24.5244C61.5708 24.9191 61.6719 25.3398 61.8316 25.7345C61.8674 25.8251 61.9 25.8963 61.9261 25.961C61.9261 25.9772 61.9261 25.9869 61.9293 26.0063C62.0271 26.9706 61.9391 27.9284 61.9815 28.8958C62.1248 32.0312 64.129 33.7915 66.4167 34.1571C68.9259 34.9402 72.1652 33.8562 73.309 31.177C75.8345 25.2459 75.4696 19.0981 72.6507 13.51Z" fill="#3B1037"/>
<path d="M73.5693 25.7895C73.5399 25.7475 73.5139 25.7054 73.4845 25.6633C72.6764 24.5147 70.9296 24.107 69.8803 25.0356C69.7043 25.1489 69.5381 25.288 69.398 25.4595C68.2803 26.8217 67.4623 28.3587 67.0028 29.9798C66.8594 30.2322 66.716 30.4846 66.5727 30.7402C66.1099 31.5653 66.2044 32.3581 66.5889 32.9696C66.5922 33.9759 66.7356 34.9952 67.0419 36.0112C67.5079 37.5482 69.5316 38.6386 71.0046 37.6129C73.3802 35.9594 74.8369 33.2155 74.9054 30.4328C75.2084 28.8246 74.7717 27.1 73.5693 25.7895Z" fill="#FFA200"/>
<path d="M52.3354 37.6163C52.2995 37.6357 52.0095 37.8298 52.0095 37.8363C51.9508 37.8751 51.8889 37.9107 51.827 37.9431C51.8107 37.9528 51.8009 37.956 51.7911 37.9625C51.7814 37.9625 51.7683 37.9657 51.739 37.9722C51.6901 37.9884 51.638 37.9981 51.5858 38.0078C51.5826 38.0078 51.5793 38.0078 51.5761 38.0078C51.4913 38.0078 51.4099 38.0078 51.3284 38.0078C51.3056 38.0046 51.2893 38.0046 51.2763 38.0046C51.2469 37.9981 51.2209 37.9949 51.1915 37.9884C51.0938 37.9625 50.996 37.9366 50.8982 37.9043C50.8689 37.8946 50.8526 37.8881 50.8363 37.8848C50.8233 37.8784 50.8102 37.8719 50.7842 37.859C50.3605 37.6519 50.2139 37.5224 49.8978 37.1956C49.7055 36.9983 49.497 36.6359 49.4122 36.3479C49.3275 36.0631 49.3405 36.1311 49.3373 35.8269C49.3373 35.6231 49.3503 35.4225 49.3862 35.2251C49.4839 34.7041 49.6729 34.2091 49.9271 33.7431C50.4583 32.7659 51.1948 31.9505 51.9541 31.1448C52.6743 30.3812 51.5239 29.2358 50.7972 29.9962C49.2851 31.572 47.6525 33.3581 47.5384 35.6457C47.4472 37.4836 48.8354 39.2503 50.618 39.7098C51.6054 39.9654 52.9806 39.7616 53.515 38.7844C53.9289 38.0369 53.1012 37.1924 52.3354 37.6163Z" fill="#FF851A"/>
<path d="M55.8937 41.4697C54.7564 42.379 53.5214 42.6572 52.1201 42.1978C49.9074 41.4697 48.9493 44.9449 51.1587 45.66C53.6093 46.456 56.6335 45.8994 58.4291 43.9871C60.0357 42.2754 57.66 40.059 55.8937 41.4697Z" fill="white"/>
<path d="M29.5572 31.4585C28.6219 31.1349 27.364 31.6106 26.7384 32.2998C24.3171 34.9692 23.6751 38.59 24.5843 41.8225C23.8413 40.8841 23.1016 39.949 22.3586 39.0107C21.1593 37.4963 20.1817 35.6908 18.1515 35.2896C16.4113 34.9466 15.1306 36.2053 15.0524 37.8458C15.0263 38.3668 15.1273 38.8424 15.3033 39.2889C15.0393 39.0657 14.7754 38.8456 14.5114 38.6224C13.726 37.9623 12.5887 37.5578 11.5785 37.9364C10.4738 38.3473 9.79921 38.9201 9.55154 40.1043C9.34949 41.0718 9.64604 42.227 10.4347 42.8903L13.3415 45.3333C12.6506 45.1327 11.9207 45.0744 11.0929 45.2783C9.73077 45.6083 9.07902 47.1453 9.4277 48.4007C9.99147 50.4328 12.0771 51.2093 13.7814 52.1995C14.4886 52.6104 15.1958 53.0214 15.9029 53.4323C12.3541 53.1249 11.2266 58.5836 14.9383 59.2178C19.5299 60.004 24.4377 60.6835 28.8207 58.7809C30.486 58.0594 31.9003 56.9463 32.9757 55.5808C33.3961 55.2572 33.7838 54.869 34.1325 54.4062C34.5431 53.8594 34.7028 53.1799 34.6572 52.5263C35.0352 51.4553 35.2503 50.3163 35.2666 49.1417C35.3024 46.3137 33.7904 43.7704 31.5125 42.3888C30.3491 41.3857 29.9417 39.6513 30.2122 38.1823C30.411 37.1145 31.0921 36.6453 31.5777 35.7329C32.5814 33.8432 31.3658 32.083 29.5572 31.4585Z" fill="#FFA200"/>
<path d="M8.27967 34.0774C5.03186 35.6604 3.8612 40.3235 6.01577 43.2227C6.23442 43.5167 6.60794 43.6659 6.94957 43.4669C7.2411 43.2951 7.41419 42.8337 7.19555 42.5397C5.46004 40.2014 6.33463 36.5333 8.96749 35.2488C9.76008 34.8644 9.0677 33.693 8.27967 34.0774Z" fill="white"/>
<path d="M3.58781 34.5071C2.01629 35.466 1.11893 37.153 0.868399 38.9351C0.549541 41.1739 1.23736 43.3765 1.92519 45.4842C2.19394 46.3119 3.51493 45.9591 3.24162 45.1224C2.6449 43.2861 1.99807 41.3684 2.17572 39.41C2.30782 37.9491 2.98653 36.461 4.27563 35.6786C5.02723 35.2218 4.3394 34.0503 3.58781 34.5071Z" fill="white"/>
</svg>
