<svg fill="none" height="429" viewBox="0 0 446 429" width="446" xmlns="http://www.w3.org/2000/svg" xmlns:xlink="http://www.w3.org/1999/xlink"><filter id="a" color-interpolation-filters="sRGB" filterUnits="userSpaceOnUse" height="428.528" width="445" x=".5" y=".236206"><feFlood flood-opacity="0" result="BackgroundImageFix"/><feColorMatrix in="SourceAlpha" type="matrix" values="0 0 0 0 0 0 0 0 0 0 0 0 0 0 0 0 0 0 127 0"/><feOffset/><feGaussianBlur stdDeviation="17.5"/><feColorMatrix type="matrix" values="0 0 0 0 0 0 0 0 0 0 0 0 0 0 0 0 0 0 0.25 0"/><feBlend in2="BackgroundImageFix" mode="normal" result="effect1_dropShadow"/><feBlend in="SourceGraphic" in2="effect1_dropShadow" mode="normal" result="shape"/></filter><clipPath id="b"><path d="m35.5 35.2362h375v358.528h-375z"/></clipPath><g filter="url(#a)"><g clip-path="url(#b)"><path d="m254.282 177.59c-1.615.885-1.998 3.026-.766 4.426 5.168 5.826 9.271 12.357 12.142 19.523 15.169-6.903 26.784-8.434 39.811-7.62 60.889 3.816 88.152 46.498 98.918 84.407 1.83-7.441 2.931-15.934 3.182-25.648.431-17.094-3.433-43.579-16.46-64.86-6.412-10.479-24.38-39.058-58.628-24.392-2.381 1.017-4.546-1.447-3.398-3.876 5.611-11.89 12.381-35.301-7.309-55.841-5.239-5.4664-11.974-10.0958-19.75-13.7444 9.905 28.4344-8.756 66.2004-47.742 87.6254z" fill="#018eff"/><path d="m129.956 209.327c3.541-53.006 35.242-100.88 83.57-120.2473 30.624-12.2736 64.526-10.3835 88.499.8732-.048-.1435-.084-.2871-.144-.4426-16.951-47.2518-58.951-66.8105-123.285-45.9957-57.133 18.494-94.3842 61.6544-82.8164 100.5324.61 2.034 1.3158 3.876 2.1532 5.563 4.0552 8.194 1.268 17.967-6.4956 22.537-40.1342 23.59-63.7122 62.074-53.6039 97.482 1.6269 5.683 3.9955 11.018 7.0339 15.97 11.2926-30.875 36.8804-65.123 85.0888-76.272z" fill="#ff5a9a"/><path d="m213.538 89.0794c-48.329 19.3676-80.041 67.2416-83.57 120.2466 7.369-1.698 15.24-2.871 23.685-3.409 19.619-1.232 41.63 1.089 62.947 13.781 5.706 3.397 12.884 3.361 18.482-.407 11.998-8.087 21.868-13.805 30.576-17.764-2.871-7.154-6.986-13.685-12.142-19.523-1.244-1.4-.849-3.541.766-4.426 38.986-21.437 57.635-59.191 47.754-87.6373-23.973-11.2447-57.874-13.1348-88.498-.8613z" fill="#fd280e"/><path d="m404.387 278.314c-5.479 22.286-17.405 34.99-31.916 41.857-11.221 5.311-23.422 3.17-32.502-1.436-6.412-3.254-14.247-1.734-19.75 3.756-7.692 7.668-18.649 14.774-34.583 20.576-39.405 14.343-80.807 5.096-111.048-20.779-54.968 14.092-108.5119-1.998-129.7333-36.677-4.9166 13.458-7.1416 26.27-7.3091 36.234.9211 39.991 29.2004 71.919 69.5854 71.919 20.995 0 42.013-14.056 56.092-28.59 1.28-1.328 3.458-1.125 4.439.406 12.943 19.93 33.853 28.184 48.974 28.184 15.132 0 36.354-8.266 49.991-28.232 1.029-1.507 3.158-1.71 4.426-.43 14.391 14.57 42.204 28.674 63.246 28.674 40.385 0 73.856-31.928 76.177-71.919.191-11.125-1.352-26.867-6.089-43.543z" fill="#00d18a"/><path d="m305.469 193.919c-13.027-.814-24.642.717-39.811 7.62.814 2.021 1.531 4.079 2.142 6.184 13.098 45.9-27.753 96.98-91.262 114.074-.646.18-1.292.323-1.938.491 30.241 25.875 71.643 35.122 111.048 20.779 15.934-5.802 26.891-12.908 34.583-20.576 5.503-5.49 13.338-7.01 19.75-3.756 9.08 4.606 21.281 6.747 32.502 1.436 14.511-6.867 26.437-19.571 31.916-41.857-10.766-37.897-38.029-80.579-98.93-84.395z" fill="#1e32b3"/><path d="m174.6 322.276c-18.458-15.79-32.765-37.777-39.907-64.394-4.354-16.233-5.802-32.622-4.737-48.556-48.221 11.137-73.8088 45.398-85.1013 76.273 21.2334 34.691 74.7773 50.769 129.7453 36.677z" fill="#f5aa00"/><path d="m267.799 207.723c-.598-2.117-1.327-4.175-2.141-6.184-8.708 3.959-18.578 9.677-30.576 17.764-5.598 3.768-12.776 3.804-18.482.407-21.329-12.692-43.328-15.013-62.947-13.781-8.445.526-16.328 1.699-23.685 3.409-1.065 15.934.383 32.323 4.737 48.556 7.13 26.616 21.437 48.604 39.907 64.394.646-.167 1.292-.311 1.938-.49 63.497-17.095 104.348-68.175 91.249-114.075z" fill="#bc48e3"/><g fill="#fff"><path d="m75.5145 319.788v-38.364h-.299c-1.6389 10.168-2.6796 16.413-3.1462 18.721l-4.139 19.643h-12.7042l11.3046-53.461h18.9366v37.957h.2991l17.4776-37.957h19.223l-11.448 53.461h-12.8236l4.2826-20.073c1.22-5.563 2.536-10.874 3.948-15.946l.55-2.345h-.299l-17.621 38.364z"/><path d="m249.975 319.788h-14.151l8.744-41.438h14.224zm-3.684-50.542c0-2.512.718-4.414 2.177-5.706 1.448-1.292 3.481-1.938 6.089-1.938 2.225 0 3.936.443 5.144 1.34s1.806 2.165 1.806 3.816c0 2.44-.706 4.319-2.117 5.646-1.412 1.328-3.445 1.998-6.101 1.998-4.677 0-6.998-1.722-6.998-5.156z"/><path d="m276.568 284.128c1.34-2.321 2.919-3.984 4.737-4.989 1.818-1.016 4.043-1.519 6.675-1.519 3.433 0 6.113 1.041 8.051 3.134 1.938 2.094 2.895 4.965 2.895 8.649 0 2.584-.299 5.371-.909 8.374l-4.642 22.011h-14.151l4.713-22.597c.443-1.902.658-3.637.658-5.192 0-1.041-.263-1.83-.802-2.357-.538-.526-1.184-.789-1.938-.789-1.387 0-2.679.861-3.863 2.596-1.185 1.734-2.154 4.438-2.907 8.122l-4.235 20.229h-14.152l8.745-41.438h9.271z"/><path d="m373.488 305.409c0 4.857-1.579 8.589-4.749 11.185-3.17 2.608-7.728 3.912-13.673 3.912-5.407 0-9.75-.766-13.015-2.309v-11.376c2.237 1.22 4.33 2.069 6.256 2.56 1.926.49 3.876.729 5.85.729 1.662 0 2.895-.227 3.732-.682.825-.454 1.244-1.076 1.244-1.878 0-.849-.323-1.591-.957-2.213s-2.225-1.651-4.749-3.086c-2.584-1.412-4.474-3.039-5.646-4.857-1.185-1.83-1.771-4.055-1.771-6.699 0-4.187 1.472-7.417 4.426-9.69 2.955-2.272 7.142-3.397 12.585-3.397 2.727 0 5.216.323 7.464.957 2.237.634 4.427 1.615 6.544 2.931l-4.426 9.211c-1.615-1.041-3.278-1.878-4.989-2.5-1.722-.622-3.193-.933-4.438-.933-1.854 0-2.775.837-2.775 2.488 0 .706.383 1.328 1.148 1.866.766.539 2.022 1.232 3.745 2.082 5.443 2.727 8.194 6.627 8.194 11.699z"/><path d="m225.548 288.996h10.563l2.309-10.646h-10.527l1.794-8.302h-9.438l-12.98 11.998-1.495 6.95h5.634l-3.074 14.702c-.586 2.728-.873 5.025-.873 6.879 0 3.541.933 6.077 2.799 7.632 1.866 1.543 4.605 2.321 8.206 2.321 4.977 0 9.116-.814 12.429-2.453v-10.646c-2.847 1.148-5.084 1.722-6.687 1.722-1.531 0-2.309-.765-2.309-2.309 0-.681.192-1.961.587-3.84z"/><path d="m155.938 280.766c-2.655-2.093-6.304-3.146-10.933-3.146-4.654 0-8.757 1.065-12.31 3.206-3.553 2.129-6.34 5.264-8.374 9.403-2.033 4.127-3.05 8.768-3.05 13.912s1.436 9.163 4.318 12.046c2.871 2.895 6.903 4.331 12.071 4.331 3.098 0 5.825-.276 8.194-.826 2.368-.55 4.916-1.519 7.644-2.907v-10.024c-2.369 1.244-4.474 2.153-6.328 2.727s-3.744.861-5.67.861c-3.996 0-5.994-1.806-5.994-5.419v-.586h2.154c7.213 0 12.728-1.316 16.544-3.935 3.816-2.62 5.718-6.376 5.718-11.281.012-3.481-1.328-6.268-3.984-8.362zm-10.814 13.554c-1.052.682-2.321 1.029-3.517 1.029h-4.677l.742-3.505c.191-.898.837-1.795 1.89-2.477 2.117-1.363 5.072-1.363 6.603 0 1.543 1.364 1.077 3.577-1.041 4.953z"/><path d="m197.424 280.766c-2.655-2.093-6.304-3.146-10.934-3.146-4.653 0-8.756 1.065-12.309 3.206-3.541 2.129-6.34 5.264-8.374 9.403-2.033 4.127-3.05 8.768-3.05 13.912s1.435 9.163 4.318 12.046c2.871 2.895 6.903 4.331 12.071 4.331 3.098 0 5.825-.276 8.194-.826 2.368-.55 4.916-1.519 7.644-2.907v-10.024c-2.369 1.244-4.474 2.153-6.328 2.727s-3.745.861-5.671.861c-3.995 0-5.993-1.806-5.993-5.419v-.586h2.154c7.213 0 12.728-1.316 16.544-3.935 3.816-2.62 5.73-6.376 5.73-11.281-.012-3.481-1.34-6.268-3.996-8.362zm-10.826 13.554c-1.053.682-2.321 1.029-3.517 1.029h-4.677l.742-3.505c.191-.898.837-1.795 1.902-2.477 2.117-1.363 5.072-1.363 6.603 0 1.531 1.364 1.065 3.577-1.053 4.953z"/><path d="m344.886 278.35h-9.223l-.909 3.541c-4.726-3.948-10.42-4.271-11.664-4.271-5.658 0-10.144 1.4-13.458 4.211-3.313 2.799-4.976 6.591-4.976 11.376 0 4.343 1.603 7.764 4.797 10.276-2.464 1.124-4.319 2.357-5.563 3.696-1.244 1.34-1.866 2.883-1.866 4.606 0 1.029.287 1.986.861 2.895.575.897 1.316 1.639 2.214 2.201-3.517 1.148-6.089 2.584-7.752 4.318-1.651 1.735-2.488 3.793-2.488 6.185 0 3.266 1.531 5.826 4.593 7.656 3.063 1.842 7.178 2.763 12.346 2.763 7.56 0 13.386-1.423 17.501-4.282s6.16-6.903 6.16-12.142c0-3.003-.921-5.311-2.775-6.926-1.854-1.627-4.905-2.74-9.139-3.35l-5.013-.658c-2.703-.395-4.055-1.112-4.055-2.153 0-.467.168-.825.514-1.101.335-.263.754-.538 1.245-.801 1.172.323 2.679.478 4.533.478 5.096 0 9.223-1.435 12.394-4.294 3.17-2.859 4.749-6.627 4.749-11.281 0-1.316-.12-2.464-.371-3.433l6.148-3.409zm-29.308 42.311c1.973 0 8.326.299 7.524 4.079-.801 3.78-7.285 4.08-9.259 4.08s-8.326-.3-7.524-4.08c.813-3.78 7.297-4.079 9.259-4.079zm8.003-25.253c-.814 1.675-1.855 2.501-3.123 2.501-1.639 0-2.452-1.149-2.452-3.434 0-1.292.191-2.596.562-3.911.383-1.316.909-2.381 1.591-3.194.682-.814 1.484-1.221 2.417-1.221 1.483 0 2.237 1.161 2.237 3.481-.012 2.178-.419 4.116-1.232 5.778z"/><path d="m150.376 220.212h22.31l-6.113 29.069c-6.089 1.974-12.441 2.967-19.056 2.967-6.364 0-11.293-1.855-14.81-5.563s-5.263-8.96-5.263-15.766c0-6.508 1.339-12.382 4.019-17.621 2.68-5.24 6.352-9.235 11.029-11.975 4.678-2.739 10.097-4.115 16.293-4.115 6.484 0 11.951 1.304 16.389 3.912l-5.371 11.305c-3.732-2.202-7.465-3.29-11.185-3.29-3.218 0-6.065.885-8.541 2.656-2.477 1.77-4.45 4.378-5.922 7.847-1.471 3.457-2.213 7.153-2.213 11.077 0 6.436 2.548 9.654 7.644 9.654 1.531 0 3.158-.168 4.857-.514l1.866-8.482h-8.374z"/><path d="m294.583 194.612-4.222 20.301c-1.46-2.225-2.811-3.697-4.056-4.438-1.244-.742-2.775-1.113-4.605-1.113-3.29 0-6.304 1.172-9.032 3.529-2.727 2.357-4.964 5.778-6.711 10.288-1.746 4.51-2.62 8.936-2.62 13.278 0 5.096 1.005 8.996 3.003 11.723 1.998 2.716 4.917 4.08 8.781 4.08 2.069 0 3.875-.383 5.407-1.173 1.531-.777 3.002-2.129 4.39-4.055l1.962 4.498h9.271l12.07-56.906h-13.638zm-8.074 35.888c-.491 2.321-2.441 9.869-6.891 9.869s-3.182-7.548-2.691-9.869c.49-2.321 2.44-9.869 6.89-9.869 4.438 0 3.182 7.548 2.692 9.869z"/><path d="m211.959 213.477c-2.764-2.751-6.699-4.139-11.795-4.139-4.678 0-8.781 1.149-12.286 3.434-3.517 2.296-6.232 5.502-8.17 9.641-1.938 4.127-2.907 8.757-2.907 13.877s1.388 9.055 4.151 11.807c2.763 2.751 6.699 4.127 11.795 4.127 4.677 0 8.78-1.149 12.285-3.433 3.517-2.297 6.233-5.503 8.171-9.63s2.907-8.757 2.907-13.877c0-5.108-1.388-9.043-4.151-11.807zm-10.3 17.262c-.538 2.512-2.656 10.719-7.477 10.719-4.832 0-3.457-8.207-2.93-10.719.538-2.512 2.655-10.718 7.476-10.718s3.457 8.206 2.931 10.718z"/><path d="m255.095 213.477c-2.763-2.751-6.699-4.139-11.795-4.139-4.677 0-8.78 1.149-12.285 3.434-3.517 2.296-6.233 5.502-8.171 9.641-1.937 4.127-2.906 8.757-2.906 13.877s1.387 9.055 4.151 11.807c2.763 2.751 6.699 4.127 11.795 4.127 4.677 0 8.78-1.149 12.285-3.433 3.517-2.297 6.233-5.503 8.17-9.63 1.938-4.127 2.907-8.757 2.907-13.877 0-5.108-1.375-9.043-4.151-11.807zm-10.299 17.262c-.539 2.512-2.656 10.719-7.477 10.719s-3.457-8.207-2.931-10.719c.539-2.512 2.656-10.718 7.477-10.718s3.469 8.206 2.931 10.718z"/><path d="m160.663 160.196c0 5.407-1.794 9.63-5.371 12.633-3.588 3.014-8.589 4.522-14.989 4.522-2.679 0-5.215-.3-7.608-.898-2.392-.598-4.45-1.471-6.172-2.619v-12.8c2.045 1.292 4.39 2.38 7.033 3.254 2.644.873 5.037 1.315 7.19 1.315 1.806 0 3.17-.382 4.091-1.136s1.388-1.83 1.388-3.218c0-.658-.144-1.28-.443-1.842-.287-.574-.706-1.149-1.244-1.723s-1.974-1.83-4.318-3.78c-2.847-2.297-4.929-4.629-6.221-7.022-1.292-2.392-1.938-5.012-1.938-7.859 0-3.194.802-6.065 2.393-8.613s3.852-4.522 6.77-5.922c2.919-1.399 6.173-2.105 9.786-2.105 5.825 0 11.065 1.304 15.73 3.912l-4.94 10.862c-4.175-2.142-7.716-3.218-10.647-3.218-1.555 0-2.763.347-3.6 1.028-.838.682-1.256 1.687-1.256 3.003 0 1.196.406 2.309 1.22 3.35.813 1.04 2.368 2.416 4.665 4.151 2.871 2.117 5.012 4.354 6.4 6.699 1.388 2.32 2.081 5.012 2.081 8.026z"/><path d="m187.675 170.843c-1.316 2.261-2.883 3.924-4.701 4.953-1.819 1.04-4.056 1.555-6.711 1.555-3.434 0-6.125-1.041-8.051-3.123-1.926-2.081-2.895-4.952-2.895-8.613 0-2.583.299-5.371.909-8.373l4.641-22.059h14.152l-4.713 22.561c-.467 1.998-.694 3.72-.694 5.156 0 1.077.275 1.866.825 2.38.551.515 1.197.766 1.962.766 1.436 0 2.752-.957 3.936-2.871s2.129-4.534 2.835-7.847l4.247-20.157h14.151l-8.744 41.438h-9.307z"/><path d="m309.082 142.097c1.579-2.727 3.302-4.689 5.156-5.873 1.854-1.185 4.282-1.771 7.273-1.771 1.364 0 2.345.096 2.919.299l-3.074 14.008c-1.316-.538-2.812-.801-4.498-.801-2.512 0-4.522.861-6.017 2.584-1.496 1.722-2.644 4.342-3.422 7.883l-3.876 18.219h-14.151l8.744-41.438h9.271z"/><path d="m284.99 137.599c-2.656-2.093-6.305-3.146-10.934-3.146-4.654 0-8.757 1.065-12.31 3.206-3.552 2.129-6.34 5.264-8.373 9.403-2.034 4.127-3.051 8.768-3.051 13.912s1.436 9.163 4.319 12.046c2.871 2.895 6.902 4.331 12.07 4.331 3.098 0 5.826-.276 8.194-.826 2.369-.55 4.917-1.519 7.644-2.907v-10.024c-2.368 1.244-4.474 2.153-6.328 2.727s-3.744.861-5.67.861c-3.996 0-5.993-1.806-5.993-5.419v-.586h2.153c7.213 0 12.728-1.316 16.544-3.935 3.816-2.62 5.718-6.376 5.718-11.281 0-3.469-1.328-6.268-3.983-8.362zm-10.815 13.554c-1.052.682-2.32 1.029-3.516 1.029h-4.678l.742-3.505c.191-.898.837-1.795 1.89-2.477 2.117-1.363 5.072-1.363 6.603 0 1.543 1.364 1.065 3.577-1.041 4.953z"/><path d="m243.396 138.532c-2.177-2.715-5.156-4.079-8.96-4.079-3.947 0-7.094 1.794-9.438 5.371l-1.878-4.641h-9.271l-12.585 59.429h13.482l4.881-22.561c2.141 3.541 4.964 5.3 8.445 5.3 3.338 0 6.424-1.173 9.235-3.529 2.811-2.357 5.072-5.718 6.783-10.097 1.699-4.378 2.56-9.031 2.56-13.984 0-4.761-1.089-8.493-3.254-11.209zm-10.587 16.688c-.49 2.321-2.44 9.869-6.89 9.869s-3.182-7.548-2.692-9.869c.491-2.321 2.441-9.869 6.891-9.869s3.182 7.56 2.691 9.869z"/></g></g></g></svg>