<?xml version="1.0" encoding="utf-8"?>
<!-- Generator: Adobe Illustrator 21.1.0, SVG Export Plug-In . SVG Version: 6.00 Build 0)  -->
<svg version="1.1" id="Layer_1" xmlns="http://www.w3.org/2000/svg" xmlns:xlink="http://www.w3.org/1999/xlink" x="0px" y="0px"
	 viewBox="0 0 152 152" style="enable-background:new 0 0 152 152;" xml:space="preserve">
<style type="text/css">
	.st0{display:none;fill:#CC34EA;}
	.st1{fill:#008DFF;}
	.st2{fill:#FF469A;}
	.st3{fill:#FF0000;}
	.st4{fill:#00D582;}
	.st5{fill:#262CB9;}
	.st6{fill:#FFA600;}
	.st7{fill:#CC34EA;}
</style>
<rect class="st0" width="152" height="152"/>
<path class="st1" d="M87.3,58.3c-0.5,0.3-0.6,1-0.2,1.4c1.7,1.9,2.9,3.9,3.9,6.2c4.9-2.2,8.6-2.7,12.7-2.4
	c19.5,1.2,28.2,14.9,31.6,27c0.6-2.4,0.9-5.1,1-8.2c0.1-5.5-1.1-13.9-5.3-20.8c-2-3.4-7.8-12.5-18.7-7.8c-0.8,0.3-1.4-0.5-1.1-1.2
	c1.8-3.8,4-11.3-2.3-17.9c-1.7-1.7-3.8-3.2-6.3-4.4C105.7,39.3,99.8,51.4,87.3,58.3z"/>
<path class="st2" d="M47.5,68.4c1.2-16.9,11.3-32.3,26.8-38.5c9.8-3.9,20.6-3.3,28.3,0.3c0-0.1,0-0.1-0.1-0.1
	C97.1,14.9,83.7,8.7,63.1,15.3C44.8,21.2,32.9,35,36.6,47.5c0.2,0.6,0.4,1.2,0.7,1.8c1.3,2.6,0.4,5.7-2.1,7.2
	c-12.8,7.6-20.4,19.8-17.2,31.2c0.5,1.8,1.3,3.5,2.3,5.1C23.9,82.9,32,72,47.5,68.4z"/>
<path class="st3" d="M74.3,29.9c-15.4,6.2-25.6,21.5-26.8,38.5c2.4-0.5,4.9-0.9,7.6-1.1c6.3-0.4,13.3,0.3,20.1,4.4
	c1.9,1.1,4.1,1.1,5.9-0.1c3.8-2.6,7-4.4,9.8-5.7c-0.9-2.3-2.3-4.4-3.9-6.2c-0.4-0.5-0.3-1.2,0.2-1.4c12.5-6.9,18.4-19,15.3-28
	C94.9,26.6,84,26,74.3,29.9z"/>
<path class="st4" d="M135.3,90.5c-1.7,7.1-5.6,11.2-10.2,13.4c-3.6,1.7-7.5,1-10.4-0.5c-2.1-1-4.6-0.6-6.3,1.2
	c-2.5,2.4-6,4.7-11,6.6c-12.6,4.6-25.8,1.6-35.6-6.7C44.2,109.1,27,104,20.2,92.9c-1.6,4.3-2.3,8.4-2.3,11.6
	c0.3,12.8,9.4,23,22.3,23c6.7,0,13.5-4.5,17.9-9.1c0.4-0.4,1.1-0.3,1.4,0.1c4.2,6.4,10.8,9,15.7,9c4.9,0,11.6-2.7,16-9
	c0.3-0.5,1-0.5,1.4-0.1c4.6,4.7,13.5,9.2,20.2,9.2c13,0,23.7-10.2,24.4-23C137.4,100.8,136.8,95.8,135.3,90.5z"/>
<path class="st5" d="M103.7,63.5c-4.2-0.3-7.9,0.2-12.7,2.4c0.2,0.6,0.5,1.3,0.7,2c4.2,14.7-8.9,31.1-29.2,36.5
	c-0.2,0.1-0.4,0.1-0.6,0.2c9.7,8.3,23,11.2,35.6,6.7c5.1-1.9,8.6-4.1,11-6.6c1.7-1.7,4.3-2.3,6.3-1.2c2.9,1.5,6.8,2.1,10.4,0.5
	c4.6-2.2,8.4-6.2,10.2-13.4C131.9,78.3,123.2,64.7,103.7,63.5z"/>
<path class="st6" d="M61.8,104.5C55.9,99.5,51.3,92.5,49,84c-1.4-5.2-1.9-10.5-1.5-15.6C32,72,23.9,82.9,20.2,92.8
	C27.1,103.9,44.2,109.1,61.8,104.5z"/>
<path class="st7" d="M91.6,67.9c-0.2-0.7-0.4-1.3-0.7-2c-2.8,1.3-6,3.1-9.8,5.7c-1.8,1.2-4.1,1.2-5.9,0.1c-6.8-4-13.9-4.8-20.1-4.4
	c-2.7,0.2-5.2,0.5-7.6,1.1C47.2,73.5,47.7,78.8,49,84c2.3,8.5,6.9,15.6,12.8,20.6c0.2-0.1,0.4-0.1,0.6-0.2
	C82.8,98.9,95.8,82.6,91.6,67.9z"/>
</svg>
