<?xml version="1.0" encoding="utf-8"?>
<!-- Generator: Adobe Illustrator 23.1.1, SVG Export Plug-In . SVG Version: 6.00 Build 0)  -->
<svg version="1.1" id="Layer_1" xmlns="http://www.w3.org/2000/svg" xmlns:xlink="http://www.w3.org/1999/xlink" x="0px" y="0px"
	 viewBox="0 0 420 46" style="enable-background:new 0 0 420 46;" xml:space="preserve">
<style type="text/css">
	.st0{fill:#008DFF;}
	.st1{fill:#FF469A;}
	.st2{fill:#FF0000;}
	.st3{fill:#00D582;}
	.st4{fill:#262CB9;}
	.st5{fill:#FFA600;}
	.st6{fill:#CC34EA;}
	.st7{fill:#FFFFFF;}
</style>
<g>
	<g>
		<path class="st0" d="M25.8,16.9c-0.2,0.1-0.2,0.3-0.1,0.5c0.6,0.6,1,1.4,1.4,2.2c1.7-0.8,3-0.9,4.4-0.8c6.8,0.4,9.8,5.2,11,9.4
			c0.2-0.8,0.3-1.8,0.4-2.9c0-1.9-0.4-4.9-1.8-7.2c-0.7-1.2-2.7-4.4-6.5-2.7c-0.3,0.1-0.5-0.2-0.4-0.4c0.6-1.3,1.4-3.9-0.8-6.2
			C32.7,8,32,7.5,31.1,7.1C32.2,10.3,30.1,14.5,25.8,16.9z"/>
		<path class="st1" d="M11.9,20.4c0.4-5.9,3.9-11.2,9.3-13.4c3.4-1.4,7.2-1.2,9.9,0.1c0,0,0,0,0,0c-1.9-5.3-6.6-7.4-13.7-5.1
			C11,4,6.8,8.8,8.1,13.1c0.1,0.2,0.1,0.4,0.2,0.6c0.5,0.9,0.1,2-0.7,2.5c-4.5,2.6-7.1,6.9-6,10.9c0.2,0.6,0.4,1.2,0.8,1.8
			C3.7,25.5,6.5,21.7,11.9,20.4z"/>
		<path class="st2" d="M21.2,7c-5.4,2.2-8.9,7.5-9.3,13.4c0.8-0.2,1.7-0.3,2.6-0.4c2.2-0.1,4.6,0.1,7,1.5c0.6,0.4,1.4,0.4,2.1,0
			c1.3-0.9,2.4-1.5,3.4-2c-0.3-0.8-0.8-1.5-1.4-2.2c-0.1-0.2-0.1-0.4,0.1-0.5c4.3-2.4,6.4-6.6,5.3-9.8C28.4,5.8,24.7,5.6,21.2,7z"/>
		<path class="st3" d="M42.5,28.1c-0.6,2.5-1.9,3.9-3.6,4.7c-1.3,0.6-2.6,0.4-3.6-0.2c-0.7-0.4-1.6-0.2-2.2,0.4
			c-0.9,0.9-2.1,1.6-3.9,2.3c-4.4,1.6-9,0.6-12.4-2.3c-6.1,1.6-12.1-0.2-14.5-4.1c-0.5,1.5-0.8,2.9-0.8,4c0.1,4.5,3.3,8,7.8,8
			c2.3,0,4.7-1.6,6.3-3.2c0.1-0.1,0.4-0.1,0.5,0c1.4,2.2,3.8,3.1,5.5,3.1c1.7,0,4.1-0.9,5.6-3.1c0.1-0.2,0.4-0.2,0.5,0
			c1.6,1.6,4.7,3.2,7.1,3.2c4.5,0,8.2-3.6,8.5-8C43.2,31.7,43,30,42.5,28.1z"/>
		<path class="st4" d="M31.5,18.7c-1.5-0.1-2.7,0.1-4.4,0.8c0.1,0.2,0.2,0.5,0.2,0.7C28.7,25.3,24.2,31,17.1,33C17,33,17,33,16.9,33
			c3.4,2.9,8,3.9,12.4,2.3c1.8-0.6,3-1.4,3.9-2.3c0.6-0.6,1.5-0.8,2.2-0.4c1,0.5,2.4,0.8,3.6,0.2c1.6-0.8,2.9-2.2,3.6-4.7
			C41.3,23.9,38.3,19.1,31.5,18.7z"/>
		<path class="st5" d="M16.9,33c-2.1-1.8-3.7-4.2-4.4-7.2c-0.5-1.8-0.6-3.6-0.5-5.4c-5.4,1.2-8.2,5.1-9.5,8.5
			C4.8,32.8,10.8,34.6,16.9,33z"/>
		<path class="st6" d="M27.3,20.2c-0.1-0.2-0.1-0.5-0.2-0.7c-1,0.4-2.1,1.1-3.4,2c-0.6,0.4-1.4,0.4-2.1,0c-2.4-1.4-4.8-1.7-7-1.5
			c-0.9,0.1-1.8,0.2-2.6,0.4c-0.1,1.8,0,3.6,0.5,5.4c0.8,3,2.4,5.4,4.4,7.2c0.1,0,0.1,0,0.2-0.1C24.2,31,28.7,25.3,27.3,20.2z"/>
	</g>
	<g>
		<path class="st7" d="M260.5,35.5V15.4h-0.2c-0.9,5.3-1.4,8.6-1.6,9.8l-2.2,10.3h-6.7l5.9-28h9.9v19.9h0.2L275,7.5h10.1l-6,28h-6.7
			l2.2-10.5c0.6-2.9,1.3-5.7,2.1-8.4l0.3-1.2h-0.2l-9.2,20.1H260.5z"/>
		<path class="st7" d="M352,35.5h-7.4l4.6-21.7h7.5L352,35.5z M350,9c0-1.3,0.4-2.3,1.1-3c0.8-0.7,1.8-1,3.2-1
			c1.2,0,2.1,0.2,2.7,0.7c0.6,0.5,0.9,1.1,0.9,2c0,1.3-0.4,2.3-1.1,3c-0.7,0.7-1.8,1-3.2,1C351.3,11.7,350,10.8,350,9z"/>
		<path class="st7" d="M365.9,16.8c0.7-1.2,1.5-2.1,2.5-2.6c1-0.5,2.1-0.8,3.5-0.8c1.8,0,3.2,0.5,4.2,1.6c1,1.1,1.5,2.6,1.5,4.5
			c0,1.4-0.2,2.8-0.5,4.4l-2.4,11.5h-7.4l2.5-11.9c0.2-1,0.3-1.9,0.3-2.7c0-0.5-0.1-1-0.4-1.2c-0.3-0.3-0.6-0.4-1-0.4
			c-0.7,0-1.4,0.5-2,1.4c-0.6,0.9-1.1,2.3-1.5,4.3l-2.2,10.6h-7.4l4.6-21.7h4.9L365.9,16.8z"/>
		<path class="st7" d="M416.8,28c0,2.5-0.8,4.5-2.5,5.9c-1.7,1.4-4.1,2.1-7.2,2.1c-2.8,0-5.1-0.4-6.8-1.2v-6
			c1.2,0.6,2.3,1.1,3.3,1.3c1,0.3,2,0.4,3.1,0.4c0.9,0,1.5-0.1,2-0.4c0.4-0.2,0.7-0.6,0.7-1c0-0.4-0.2-0.8-0.5-1.2
			c-0.3-0.3-1.2-0.9-2.5-1.6c-1.4-0.7-2.3-1.6-3-2.6c-0.6-1-0.9-2.1-0.9-3.5c0-2.2,0.8-3.9,2.3-5.1c1.5-1.2,3.7-1.8,6.6-1.8
			c1.4,0,2.7,0.2,3.9,0.5c1.2,0.3,2.3,0.8,3.4,1.5l-2.3,4.8c-0.8-0.5-1.7-1-2.6-1.3c-0.9-0.3-1.7-0.5-2.3-0.5c-1,0-1.5,0.4-1.5,1.3
			c0,0.4,0.2,0.7,0.6,1c0.4,0.3,1.1,0.6,2,1.1C415.3,23.3,416.8,25.3,416.8,28z"/>
		<path class="st7" d="M339.2,19.4h5.5l1.2-5.6h-5.5l0.9-4.4h-4.9l-6.8,6.3l-0.8,3.6h3l-1.6,7.7c-0.3,1.4-0.5,2.6-0.5,3.6
			c0,1.9,0.5,3.2,1.5,4c1,0.8,2.4,1.2,4.3,1.2c2.6,0,4.8-0.4,6.5-1.3v-5.6c-1.5,0.6-2.7,0.9-3.5,0.9c-0.8,0-1.2-0.4-1.2-1.2
			c0-0.4,0.1-1,0.3-2L339.2,19.4z"/>
		<path class="st7" d="M302.7,15.1c-1.4-1.1-3.3-1.6-5.7-1.6c-2.4,0-4.6,0.6-6.5,1.7s-3.3,2.8-4.4,4.9c-1.1,2.2-1.6,4.6-1.6,7.3
			c0,2.7,0.8,4.8,2.3,6.3c1.5,1.5,3.6,2.3,6.3,2.3c1.6,0,3.1-0.1,4.3-0.4c1.2-0.3,2.6-0.8,4-1.5v-5.3c-1.2,0.7-2.3,1.1-3.3,1.4
			c-1,0.3-2,0.5-3,0.5c-2.1,0-3.1-0.9-3.1-2.8v-0.3h1.1c3.8,0,6.7-0.7,8.7-2.1c2-1.4,3-3.3,3-5.9C304.7,17.6,304,16.2,302.7,15.1z
			 M297,22.2c-0.6,0.4-1.2,0.5-1.8,0.5h-2.5l0.4-1.8c0.1-0.5,0.4-0.9,1-1.3c1.1-0.7,2.7-0.7,3.5,0C298.3,20.3,298.1,21.5,297,22.2z"
			/>
		<path class="st7" d="M324.4,15.1c-1.4-1.1-3.3-1.6-5.7-1.6c-2.4,0-4.6,0.6-6.5,1.7c-1.9,1.1-3.3,2.8-4.4,4.9
			c-1.1,2.2-1.6,4.6-1.6,7.3c0,2.7,0.8,4.8,2.3,6.3c1.5,1.5,3.6,2.3,6.3,2.3c1.6,0,3.1-0.1,4.3-0.4c1.2-0.3,2.6-0.8,4-1.5v-5.3
			c-1.2,0.7-2.3,1.1-3.3,1.4c-1,0.3-2,0.5-3,0.5c-2.1,0-3.1-0.9-3.1-2.8v-0.3h1.1c3.8,0,6.7-0.7,8.7-2.1c2-1.4,3-3.3,3-5.9
			C326.5,17.6,325.8,16.2,324.4,15.1z M318.7,22.2c-0.6,0.4-1.2,0.5-1.8,0.5h-2.5l0.4-1.8c0.1-0.5,0.4-0.9,1-1.3
			c1.1-0.7,2.7-0.7,3.5,0C320.1,20.3,319.8,21.5,318.7,22.2z"/>
		<path class="st7" d="M401.8,13.8h-4.8l-0.5,1.9c-2.5-2.1-5.5-2.2-6.1-2.2c-3,0-5.3,0.7-7.1,2.2c-1.7,1.5-2.6,3.5-2.6,6
			c0,2.3,0.8,4.1,2.5,5.4c-1.3,0.6-2.3,1.2-2.9,1.9c-0.7,0.7-1,1.5-1,2.4c0,0.5,0.1,1,0.5,1.5c0.3,0.5,0.7,0.9,1.2,1.2
			c-1.8,0.6-3.2,1.4-4.1,2.3c-0.9,0.9-1.3,2-1.3,3.2c0,1.7,0.8,3.1,2.4,4c1.6,1,3.8,1.4,6.5,1.4c4,0,7-0.7,9.2-2.2
			c2.2-1.5,3.2-3.6,3.2-6.4c0-1.6-0.5-2.8-1.5-3.6c-1-0.9-2.6-1.4-4.8-1.8l-2.6-0.3c-1.4-0.2-2.1-0.6-2.1-1.1c0-0.2,0.1-0.4,0.3-0.6
			c0.2-0.1,0.4-0.3,0.7-0.4c0.6,0.2,1.4,0.2,2.4,0.2c2.7,0,4.8-0.8,6.5-2.3c1.7-1.5,2.5-3.5,2.5-5.9c0-0.7-0.1-1.3-0.2-1.8h0
			l3.2-1.8v0L401.8,13.8z M386.4,36c1,0,4.4,0.2,3.9,2.1c-0.4,2-3.8,2.1-4.9,2.1c-1,0-4.4-0.2-3.9-2.1C382,36.2,385.4,36,386.4,36z
			 M390.6,22.8c-0.4,0.9-1,1.3-1.6,1.3c-0.9,0-1.3-0.6-1.3-1.8c0-0.7,0.1-1.4,0.3-2.1c0.2-0.7,0.5-1.2,0.8-1.7
			c0.4-0.4,0.8-0.6,1.3-0.6c0.8,0,1.2,0.6,1.2,1.8C391.2,20.9,391,21.9,390.6,22.8z"/>
		<path class="st7" d="M169,19.2h11.7l-3.2,15.3c-3.2,1-6.5,1.6-10,1.6c-3.3,0-5.9-1-7.8-2.9c-1.8-1.9-2.8-4.7-2.8-8.3
			c0-3.4,0.7-6.5,2.1-9.2c1.4-2.8,3.3-4.8,5.8-6.3s5.3-2.2,8.5-2.2c3.4,0,6.3,0.7,8.6,2.1l-2.8,5.9c-2-1.2-3.9-1.7-5.9-1.7
			c-1.7,0-3.2,0.5-4.5,1.4c-1.3,0.9-2.3,2.3-3.1,4.1c-0.8,1.8-1.2,3.8-1.2,5.8c0,3.4,1.3,5.1,4,5.1c0.8,0,1.7-0.1,2.6-0.3l1-4.5
			h-4.4L169,19.2z"/>
		<path class="st7" d="M244.7,5.8l-2.2,10.6c-0.8-1.2-1.5-1.9-2.1-2.3c-0.7-0.4-1.5-0.6-2.4-0.6c-1.7,0-3.3,0.6-4.7,1.9
			c-1.4,1.2-2.6,3-3.5,5.4c-0.9,2.4-1.4,4.7-1.4,7c0,2.7,0.5,4.7,1.6,6.1c1,1.4,2.6,2.1,4.6,2.1c1.1,0,2-0.2,2.8-0.6
			c0.8-0.4,1.6-1.1,2.3-2.1l1,2.4h4.9l6.3-29.9H244.7z M240.4,24.6c-0.3,1.2-1.3,5.2-3.6,5.2c-2.3,0-1.7-4-1.4-5.2
			c0.3-1.2,1.3-5.2,3.6-5.2C241.4,19.4,240.7,23.4,240.4,24.6z"/>
		<path class="st7" d="M201.3,15.7c-1.5-1.4-3.5-2.2-6.2-2.2c-2.5,0-4.6,0.6-6.4,1.8c-1.8,1.2-3.3,2.9-4.3,5.1
			c-1,2.2-1.5,4.6-1.5,7.3c0,2.7,0.7,4.8,2.2,6.2c1.5,1.4,3.5,2.2,6.2,2.2c2.5,0,4.6-0.6,6.4-1.8c1.8-1.2,3.3-2.9,4.3-5.1
			c1-2.2,1.5-4.6,1.5-7.3C203.5,19.2,202.8,17.1,201.3,15.7z M195.9,24.7c-0.3,1.3-1.4,5.6-3.9,5.6c-2.5,0-1.8-4.3-1.5-5.6
			c0.3-1.3,1.4-5.6,3.9-5.6C196.9,19.1,196.2,23.4,195.9,24.7z"/>
		<path class="st7" d="M224,15.7c-1.5-1.4-3.5-2.2-6.2-2.2c-2.5,0-4.6,0.6-6.4,1.8c-1.8,1.2-3.3,2.9-4.3,5.1c-1,2.2-1.5,4.6-1.5,7.3
			c0,2.7,0.7,4.8,2.2,6.2c1.5,1.4,3.5,2.2,6.2,2.2c2.5,0,4.6-0.6,6.4-1.8c1.8-1.2,3.3-2.9,4.3-5.1c1-2.2,1.5-4.6,1.5-7.3
			C226.1,19.2,225.4,17.1,224,15.7z M218.6,24.7c-0.3,1.3-1.4,5.6-3.9,5.6c-2.5,0-1.8-4.3-1.5-5.6c0.3-1.3,1.4-5.6,3.9-5.6
			C219.6,19.1,218.8,23.4,218.6,24.7z"/>
		<path class="st7" d="M70,26.9c0,2.8-0.9,5-2.8,6.6c-1.9,1.6-4.5,2.4-7.9,2.4c-1.4,0-2.7-0.2-4-0.5C54,35.2,53,34.7,52,34.1v-6.7
			c1.1,0.7,2.3,1.2,3.7,1.7c1.4,0.5,2.6,0.7,3.8,0.7c0.9,0,1.7-0.2,2.1-0.6c0.5-0.4,0.7-1,0.7-1.7c0-0.3-0.1-0.7-0.2-1
			c-0.2-0.3-0.4-0.6-0.7-0.9c-0.3-0.3-1-1-2.3-2c-1.5-1.2-2.6-2.4-3.3-3.7c-0.7-1.3-1-2.6-1-4.1c0-1.7,0.4-3.2,1.3-4.5
			c0.8-1.3,2-2.4,3.5-3.1c1.5-0.7,3.2-1.1,5.1-1.1c3.1,0,5.8,0.7,8.2,2.1l-2.6,5.7c-2.2-1.1-4-1.7-5.6-1.7c-0.8,0-1.4,0.2-1.9,0.5
			c-0.4,0.4-0.7,0.9-0.7,1.6c0,0.6,0.2,1.2,0.6,1.8c0.4,0.5,1.2,1.3,2.4,2.2c1.5,1.1,2.6,2.3,3.4,3.5C69.6,24,70,25.4,70,26.9z"/>
		<path class="st7" d="M84.1,32.5c-0.7,1.2-1.5,2.1-2.5,2.6c-1,0.5-2.1,0.8-3.5,0.8c-1.8,0-3.2-0.5-4.2-1.6c-1-1.1-1.5-2.6-1.5-4.5
			c0-1.4,0.2-2.8,0.5-4.4l2.4-11.6h7.4l-2.5,11.8c-0.2,1-0.4,2-0.4,2.7c0,0.6,0.1,1,0.4,1.2c0.3,0.3,0.6,0.4,1,0.4
			c0.8,0,1.4-0.5,2.1-1.5c0.6-1,1.1-2.4,1.5-4.1l2.2-10.6h7.4L90,35.6h-4.9L84.1,32.5z"/>
		<path class="st7" d="M147.8,17.5c0.8-1.4,1.7-2.5,2.7-3.1c1-0.6,2.2-0.9,3.8-0.9c0.7,0,1.2,0.1,1.5,0.2l-1.6,7.3
			c-0.7-0.3-1.5-0.4-2.4-0.4c-1.3,0-2.4,0.5-3.2,1.4c-0.8,0.9-1.4,2.3-1.8,4.1l-2,9.6h-7.4l4.6-21.7h4.9L147.8,17.5z"/>
		<path class="st7" d="M135.2,15.1c-1.4-1.1-3.3-1.6-5.7-1.6c-2.4,0-4.6,0.6-6.5,1.7c-1.9,1.1-3.3,2.8-4.4,4.9
			c-1.1,2.2-1.6,4.6-1.6,7.3c0,2.7,0.8,4.8,2.3,6.3c1.5,1.5,3.6,2.3,6.3,2.3c1.6,0,3.1-0.1,4.3-0.4c1.2-0.3,2.6-0.8,4-1.5v-5.3
			c-1.2,0.7-2.3,1.1-3.3,1.4c-1,0.3-2,0.5-3,0.5c-2.1,0-3.1-0.9-3.1-2.8v-0.3h1.1c3.8,0,6.7-0.7,8.7-2.1c2-1.4,3-3.3,3-5.9
			C137.3,17.7,136.6,16.2,135.2,15.1z M129.5,22.2c-0.6,0.4-1.2,0.5-1.8,0.5h-2.5l0.4-1.8c0.1-0.5,0.4-0.9,1-1.3
			c1.1-0.7,2.7-0.7,3.5,0C130.9,20.3,130.6,21.5,129.5,22.2z"/>
		<path class="st7" d="M113.4,15.6c-1.1-1.4-2.7-2.1-4.7-2.1c-2.1,0-3.7,0.9-4.9,2.8l-1-2.4h-4.9L91.3,45h7.1l2.6-11.8
			c1.1,1.9,2.6,2.8,4.4,2.8c1.8,0,3.4-0.6,4.8-1.9c1.5-1.2,2.7-3,3.6-5.3c0.9-2.3,1.3-4.7,1.3-7.3C115.1,19,114.5,17,113.4,15.6z
			 M107.8,24.3c-0.3,1.2-1.3,5.2-3.6,5.2c-2.3,0-1.7-4-1.4-5.2c0.3-1.2,1.3-5.2,3.6-5.2C108.7,19.2,108.1,23.1,107.8,24.3z"/>
	</g>
</g>
</svg>
