<svg width="128" height="128" viewBox="0 0 128 128" fill="none" xmlns="http://www.w3.org/2000/svg">
<path d="M73.4275 52.3466C72.9418 52.6164 72.8231 53.2641 73.2009 53.6851C74.7553 55.4446 75.9966 57.4092 76.8602 59.5681C81.4371 57.4848 84.9345 57.0206 88.8638 57.2689C107.236 58.4239 115.451 71.291 118.7 82.7333C119.25 80.488 119.585 77.9297 119.661 74.9936C119.79 69.8338 118.624 61.8458 114.695 55.423C112.763 52.2602 107.344 43.6462 97.0137 48.0611C96.3012 48.3634 95.6427 47.6294 95.9882 46.8953C97.6829 43.3115 99.7231 36.2411 93.7861 30.045C92.2101 28.3934 90.1699 27.0009 87.8275 25.8999C90.8176 34.4924 85.1828 45.8806 73.4275 52.3466Z" fill="#008DFF"/>
<path d="M35.9268 61.9212C36.9954 45.9345 46.5594 31.4914 61.1321 25.6515C70.3722 21.949 80.5946 22.5211 87.827 25.9106C87.8162 25.8674 87.7946 25.8242 87.7838 25.781C82.6672 11.5214 69.9944 5.62758 50.5966 11.91C33.3577 17.4908 22.1205 30.5091 25.6179 42.232C25.8015 42.8472 26.0173 43.3978 26.2656 43.9159C27.4854 46.3879 26.6434 49.3348 24.301 50.7165C12.1895 57.8301 5.0759 69.4343 8.13076 80.1209C8.61651 81.8372 9.33976 83.4456 10.2465 84.9352C13.6576 75.6087 21.3757 65.2783 35.9268 61.9212Z" fill="#FF469A"/>
<path d="M61.1321 25.6406C46.5486 31.4805 36.9846 45.9236 35.9268 61.9104C38.1504 61.3922 40.5253 61.0468 43.0728 60.8849C48.9882 60.5179 55.6268 61.2087 62.0604 65.0408C63.7767 66.0663 65.9465 66.0555 67.6304 64.9221C71.2466 62.4825 74.2259 60.7554 76.8597 59.5572C75.9962 57.3982 74.7548 55.4228 73.2004 53.6741C72.8226 53.2531 72.9413 52.6055 73.4271 52.3356C85.1824 45.8696 90.8171 34.4814 87.827 25.8997C80.6055 22.5102 70.3722 21.9381 61.1321 25.6406Z" fill="#FF0000"/>
<path d="M118.711 82.7334C117.059 89.4584 113.465 93.2905 109.082 95.363C105.703 96.9606 102.011 96.3238 99.2805 94.9313C97.3482 93.949 94.9842 94.4023 93.3218 96.0647C91.001 98.3747 87.6979 100.523 82.8943 102.272C71.0095 106.6 58.5202 103.804 49.3988 95.9999C32.8183 100.253 16.6589 95.3954 10.2685 84.9355C8.78965 88.9943 8.10958 92.8587 8.06641 95.8704C8.34706 107.939 16.8748 117.567 29.0618 117.567C35.3982 117.567 41.7346 113.325 45.9877 108.943C46.3763 108.543 47.024 108.608 47.3262 109.061C51.2338 115.074 57.5379 117.567 62.104 117.567C66.6701 117.567 73.0713 115.074 77.184 109.051C77.497 108.597 78.1339 108.532 78.5225 108.921C82.8619 113.314 91.2601 117.567 97.5965 117.567C109.784 117.567 119.876 107.939 120.578 95.8704C120.6 92.5133 120.136 87.7529 118.711 82.7334Z" fill="#00D582"/>
<path d="M88.8741 57.2688C84.9449 57.0205 81.4366 57.4847 76.8705 59.568C77.1188 60.1725 77.3347 60.7986 77.5182 61.4355C81.469 75.2849 69.1416 90.6887 49.9921 95.8485C49.7978 95.9025 49.6035 95.9457 49.4092 95.9997C58.5306 103.804 71.0199 106.589 82.9047 102.271C87.7083 100.523 91.0114 98.3745 93.3322 96.0644C94.9946 94.4128 97.3586 93.9487 99.2908 94.931C102.033 96.3235 105.714 96.9712 109.092 95.3628C113.464 93.2902 117.069 89.4581 118.721 82.7331C115.461 71.2909 107.236 58.4238 88.8741 57.2688Z" fill="#262CB9"/>
<path d="M49.3871 95.9891C43.8171 91.2287 39.4993 84.59 37.3512 76.5589C36.0343 71.6581 35.6025 66.7142 35.9263 61.9106C21.386 65.2678 13.6571 75.6089 10.2568 84.9138C16.658 95.3846 32.8067 100.242 49.3871 95.9891Z" fill="#FFA600"/>
<path d="M77.5076 61.4358C77.3241 60.7989 77.1082 60.1729 76.8599 59.5684C74.2368 60.7666 71.2575 62.4829 67.6306 64.9333C65.9466 66.0667 63.7769 66.0775 62.0606 65.052C55.627 61.2199 48.9884 60.5291 43.0729 60.8961C40.5254 61.058 38.1506 61.4142 35.9269 61.9216C35.6031 66.7251 36.0457 71.6691 37.3518 76.5698C39.4999 84.6009 43.8177 91.2288 49.3877 96C49.582 95.946 49.7764 95.9028 49.9707 95.8489C69.131 90.6891 81.4584 75.2852 77.5076 61.4358Z" fill="#CC34EA"/>
<path d="M19.4975 95.233V83.6613H19.4112C18.9146 86.7269 18.6016 88.6159 18.4612 89.3068L17.2091 95.233H13.3662L16.7773 79.106H22.4876V90.559H22.574L27.8417 79.106H33.6492L30.1949 95.233H26.3197L27.615 89.1773C27.982 87.5041 28.3814 85.8957 28.8024 84.3629L28.9643 83.6613H28.878L23.5563 95.233H19.4975Z" fill="white"/>
<path d="M72.1321 95.2331H67.8574L70.4913 82.7329H74.7875L72.1321 95.2331ZM71.0202 79.9911C71.0202 79.2355 71.2361 78.6634 71.6787 78.2748C72.1213 77.8862 72.7258 77.6919 73.5138 77.6919C74.183 77.6919 74.7012 77.8214 75.0682 78.0913C75.4352 78.3612 75.6187 78.7389 75.6187 79.2463C75.6187 79.9803 75.4028 80.5524 74.9818 80.9518C74.5608 81.3512 73.9456 81.5563 73.136 81.5563C71.7219 81.5455 71.0202 81.0274 71.0202 79.9911Z" fill="white"/>
<path d="M80.1521 84.4816C80.5515 83.78 81.0373 83.2835 81.577 82.9812C82.1275 82.679 82.7968 82.5278 83.5956 82.5278C84.6319 82.5278 85.4415 82.8409 86.0244 83.467C86.6073 84.093 86.8987 84.9674 86.8987 86.0793C86.8987 86.8565 86.8016 87.6984 86.6181 88.6052L85.2148 95.2438H80.9509L82.3758 88.4217C82.5053 87.8495 82.5701 87.3206 82.5701 86.8565C82.5701 86.5434 82.4837 86.3059 82.3326 86.144C82.1707 85.9821 81.9764 85.9065 81.7497 85.9065C81.3287 85.9065 80.9401 86.1656 80.5839 86.6946C80.2277 87.2127 79.9362 88.0331 79.7096 89.1449L78.4358 95.2438H74.1611L76.795 82.7437H79.5908L80.1521 84.4816Z" fill="white"/>
<path d="M109.384 90.9045C109.384 92.3725 108.909 93.4951 107.948 94.2832C106.988 95.0712 105.617 95.4598 103.825 95.4598C102.195 95.4598 100.878 95.2331 99.8955 94.7689V91.3362C100.576 91.7032 101.202 91.9623 101.785 92.1134C102.367 92.2646 102.95 92.3293 103.555 92.3293C104.051 92.3293 104.429 92.2646 104.678 92.1242C104.926 91.9839 105.055 91.8004 105.055 91.5521C105.055 91.2931 104.958 91.0772 104.764 90.8829C104.57 90.6994 104.095 90.3863 103.328 89.9545C102.551 89.5335 101.979 89.037 101.623 88.4865C101.266 87.936 101.083 87.2667 101.083 86.4679C101.083 85.2049 101.525 84.2334 102.421 83.5426C103.307 82.8625 104.58 82.5171 106.221 82.5171C107.042 82.5171 107.797 82.6142 108.477 82.8085C109.157 83.0028 109.816 83.2943 110.453 83.6937L109.114 86.4679C108.628 86.1548 108.132 85.8958 107.603 85.7123C107.085 85.5288 106.642 85.4316 106.264 85.4316C105.703 85.4316 105.422 85.6799 105.422 86.1764C105.422 86.3923 105.541 86.5758 105.768 86.7377C105.994 86.8997 106.372 87.1048 106.901 87.3638C108.564 88.195 109.384 89.3716 109.384 90.9045Z" fill="white"/>
<path d="M64.7595 85.9496H67.9439L68.6347 82.7436H65.4611L66.0009 80.2393H63.1511L59.2327 83.8554L58.7793 85.9496H60.4741L59.5457 90.3861C59.373 91.2065 59.2759 91.8974 59.2759 92.4587C59.2759 93.5274 59.5565 94.2938 60.1178 94.758C60.6791 95.2221 61.5103 95.4596 62.5898 95.4596C64.0902 95.4596 65.3424 95.2113 66.3355 94.7256V91.5196C65.4719 91.865 64.8027 92.0377 64.3169 92.0377C63.8527 92.0377 63.6261 91.811 63.6261 91.3469C63.6261 91.1418 63.68 90.7532 63.7988 90.1918L64.7595 85.9496Z" fill="white"/>
<path d="M43.7636 83.467C42.9648 82.8301 41.8638 82.5171 40.4605 82.5171C39.0572 82.5171 37.8158 82.8409 36.7472 83.4778C35.6785 84.1255 34.8365 85.0646 34.2212 86.3168C33.6059 87.5581 33.3037 88.9614 33.3037 90.5158C33.3037 92.0702 33.7355 93.2793 34.6098 94.1536C35.4734 95.028 36.6932 95.4598 38.2476 95.4598C39.1867 95.4598 40.0071 95.3734 40.7196 95.2115C41.432 95.0496 42.1984 94.7581 43.0296 94.3371V91.3146C42.3172 91.6925 41.6803 91.9623 41.119 92.135C40.5576 92.3077 39.9855 92.3941 39.4134 92.3941C38.2044 92.3941 37.5999 91.8544 37.5999 90.7641V90.5914H38.2476C40.4281 90.5914 42.0905 90.192 43.2347 89.404C44.3897 88.616 44.9618 87.4826 44.9618 86.0037C44.9618 84.9458 44.5624 84.1039 43.7636 83.467ZM40.5037 87.5581C40.1798 87.7632 39.802 87.8712 39.4458 87.8712H38.0317L38.2584 86.8133C38.3124 86.5434 38.5067 86.2736 38.8305 86.0685C39.4674 85.6583 40.3634 85.6583 40.8275 86.0685C41.2809 86.4679 41.1406 87.1371 40.5037 87.5581Z" fill="white"/>
<path d="M56.2744 83.467C55.4756 82.8301 54.3745 82.5171 52.9712 82.5171C51.568 82.5171 50.3266 82.8409 49.2579 83.4778C48.1893 84.1255 47.3473 85.0646 46.732 86.3168C46.1167 87.5581 45.8145 88.9614 45.8145 90.5158C45.8145 92.0702 46.2462 93.2793 47.1206 94.1536C47.9842 95.028 49.2039 95.4598 50.7584 95.4598C51.6975 95.4598 52.5179 95.3734 53.2303 95.2115C53.9427 95.0496 54.7092 94.7581 55.5403 94.3371V91.3146C54.8279 91.6925 54.191 91.9623 53.6297 92.135C53.0684 92.3077 52.4963 92.3941 51.9242 92.3941C50.7152 92.3941 50.1107 91.8544 50.1107 90.7641V90.5914H50.7584C52.9389 90.5914 54.6012 90.192 55.7454 89.404C56.9005 88.616 57.4726 87.4826 57.4726 86.0037C57.4726 84.9458 57.0732 84.1039 56.2744 83.467ZM53.0144 87.5581C52.6906 87.7632 52.3128 87.8712 51.9566 87.8712H50.5425L50.7691 86.8133C50.8231 86.5434 51.0174 86.2736 51.3413 86.0685C51.9781 85.6583 52.8741 85.6583 53.3383 86.0685C53.7916 86.4679 53.6513 87.1371 53.0144 87.5581Z" fill="white"/>
<path d="M100.759 82.733H97.9738L97.6932 83.8016C96.2683 82.6142 94.552 82.5171 94.1741 82.5171C92.4686 82.5171 91.1193 82.9381 90.1154 83.7908C89.1115 84.6328 88.615 85.777 88.615 87.2235C88.615 88.5296 89.1007 89.5659 90.0614 90.3215C89.3166 90.6562 88.7553 91.034 88.3882 91.4334C88.0104 91.8328 87.8269 92.2969 87.8269 92.8259C87.8269 93.1389 87.9133 93.4304 88.086 93.7002C88.2587 93.9701 88.4854 94.1968 88.7553 94.3587C87.6974 94.7041 86.9202 95.1359 86.4129 95.6649C85.9163 96.183 85.6572 96.8091 85.6572 97.5323C85.6572 98.5146 86.1214 99.2918 87.0389 99.8423C87.9673 100.393 89.1979 100.674 90.7631 100.674C93.0407 100.674 94.8002 100.242 96.0416 99.3782C97.283 98.5146 97.8983 97.2948 97.8983 95.7188C97.8983 94.8121 97.6176 94.1212 97.0563 93.6247C96.495 93.1389 95.5774 92.8043 94.2929 92.6208L92.7816 92.4265C91.9613 92.3077 91.5619 92.0919 91.5619 91.7788C91.5619 91.6385 91.6158 91.5305 91.713 91.4442C91.8101 91.3578 91.9397 91.2823 92.0908 91.2067C92.447 91.3038 92.9004 91.347 93.4617 91.347C94.9945 91.347 96.2467 90.9152 97.1966 90.0517C98.1573 89.1881 98.6323 88.0547 98.6323 86.6514C98.6323 86.252 98.5999 85.9066 98.5244 85.6151L100.381 84.5896L100.759 82.733ZM91.9181 95.5029C92.5118 95.5029 94.4332 95.5893 94.185 96.7335C93.9475 97.8777 91.9828 97.9641 91.3891 97.9641C90.7954 97.9641 88.874 97.8777 89.1223 96.7335C89.3706 95.5893 91.3244 95.5029 91.9181 95.5029ZM94.3361 87.882C94.0878 88.3893 93.7747 88.6376 93.3969 88.6376C92.9004 88.6376 92.6629 88.2922 92.6629 87.6013C92.6629 87.2127 92.7169 86.8133 92.8356 86.4247C92.9544 86.0253 93.1055 85.7015 93.3106 85.464C93.5157 85.2157 93.7639 85.097 94.0338 85.097C94.4872 85.097 94.7031 85.4424 94.7031 86.144C94.7031 86.8025 94.5735 87.3854 94.3361 87.882Z" fill="white"/>
<path d="M42.0795 65.2031H48.8045L46.9586 73.9683C45.1235 74.562 43.2021 74.8642 41.2159 74.8642C39.2945 74.8642 37.8048 74.3029 36.747 73.1911C35.6891 72.0685 35.1602 70.4925 35.1602 68.4415C35.1602 66.4769 35.5703 64.7066 36.3691 63.1198C37.1787 61.533 38.2906 60.3348 39.6939 59.5036C41.0972 58.6724 42.7379 58.2622 44.6054 58.2622C46.5592 58.2622 48.2108 58.6508 49.5493 59.4388L47.9301 62.8499C46.8075 62.1914 45.6849 61.8568 44.5514 61.8568C43.5799 61.8568 42.7271 62.1267 41.9715 62.6556C41.2267 63.1845 40.633 63.9833 40.1904 65.0196C39.7478 66.0667 39.5212 67.1785 39.5212 68.3659C39.5212 70.3089 40.2876 71.2805 41.8312 71.2805C42.2954 71.2805 42.7811 71.2265 43.2993 71.1293L43.8606 68.571H41.3346L42.0795 65.2031Z" fill="white"/>
<path d="M85.5819 57.4741L84.3081 63.5946C83.8655 62.9254 83.4553 62.4828 83.0883 62.2561C82.7105 62.0294 82.2463 61.9215 81.6958 61.9215C80.7027 61.9215 79.796 62.2777 78.9756 62.9901C78.1552 63.7026 77.4752 64.7389 76.9462 66.099C76.4173 67.4591 76.1582 68.7976 76.1582 70.1038C76.1582 71.6366 76.4604 72.824 77.0649 73.6444C77.6694 74.4648 78.5546 74.875 79.7096 74.875C80.3357 74.875 80.8754 74.7562 81.3396 74.5187C81.8037 74.2813 82.2463 73.8711 82.6673 73.299L83.261 74.659H86.0568L89.6946 57.4957H85.5819V57.4741ZM83.1531 68.3011C83.002 69.0027 82.419 71.2804 81.0697 71.2804C79.7312 71.2804 80.109 69.0027 80.2601 68.3011C80.4112 67.5994 80.9942 65.3218 82.3435 65.3218C83.6712 65.3218 83.2934 67.6102 83.1531 68.3011Z" fill="white"/>
<path d="M60.6569 63.1736C59.8257 62.3424 58.6383 61.9214 57.0947 61.9214C55.6806 61.9214 54.45 62.2668 53.3922 62.9577C52.3343 63.6485 51.5139 64.62 50.931 65.8614C50.3481 67.1028 50.0566 68.5061 50.0566 70.0497C50.0566 71.5933 50.4776 72.7807 51.3088 73.6119C52.14 74.4431 53.3274 74.8533 54.871 74.8533C56.2851 74.8533 57.5157 74.5078 58.5736 73.817C59.6314 73.1261 60.4518 72.1547 61.0347 70.9133C61.6176 69.6719 61.9091 68.2686 61.9091 66.725C61.9091 65.1921 61.4989 64.0047 60.6569 63.1736ZM57.5481 68.3765C57.3861 69.1322 56.7493 71.6041 55.292 71.6041C53.8347 71.6041 54.2449 69.1322 54.4068 68.3765C54.5688 67.6209 55.2056 65.149 56.6629 65.149C58.1202 65.149 57.71 67.6209 57.5481 68.3765Z" fill="white"/>
<path d="M73.6755 63.1736C72.8443 62.3424 71.6569 61.9214 70.1132 61.9214C68.6991 61.9214 67.4686 62.2668 66.4107 62.9577C65.3528 63.6485 64.5325 64.62 63.9496 65.8614C63.3666 67.1028 63.0752 68.5061 63.0752 70.0497C63.0752 71.5933 63.4962 72.7807 64.3274 73.6119C65.1585 74.4431 66.3459 74.8533 67.8896 74.8533C69.3036 74.8533 70.5342 74.5078 71.5921 73.817C72.65 73.1261 73.4703 72.1547 74.0532 70.9133C74.6362 69.6719 74.9276 68.2686 74.9276 66.725C74.9276 65.1921 74.5066 64.0047 73.6755 63.1736ZM70.5666 68.3765C70.4047 69.1322 69.7678 71.6041 68.3105 71.6041C66.8533 71.6041 67.2635 69.1322 67.4254 68.3765C67.5873 67.6209 68.2242 65.149 69.6815 65.149C71.1387 65.149 70.7285 67.6209 70.5666 68.3765Z" fill="white"/>
<path d="M45.1887 47.1004C45.1887 48.7304 44.649 50.0041 43.5695 50.9109C42.4901 51.8176 40.9788 52.271 39.0466 52.271C38.237 52.271 37.4706 52.1846 36.7474 52.0011C36.0241 51.8176 35.4088 51.5585 34.8799 51.2131V47.3486C35.4952 47.7373 36.2076 48.0611 37.0064 48.331C37.8052 48.6008 38.5285 48.7304 39.1761 48.7304C39.7159 48.7304 40.1368 48.6116 40.4067 48.3849C40.6874 48.1582 40.8277 47.8344 40.8277 47.4134C40.8277 47.2191 40.7845 47.0248 40.6981 46.8521C40.6118 46.6794 40.4823 46.5067 40.3204 46.334C40.1584 46.1612 39.7266 45.7834 39.0142 45.1897C38.1506 44.4989 37.5246 43.7972 37.136 43.074C36.7474 42.3508 36.553 41.5628 36.553 40.6992C36.553 39.7385 36.7905 38.8749 37.2763 38.0977C37.762 37.3313 38.4421 36.7376 39.3164 36.3058C40.1908 35.8848 41.1839 35.6689 42.2634 35.6689C44.0229 35.6689 45.5989 36.0575 47.0022 36.8455L45.5125 40.1271C44.2496 39.4794 43.1809 39.1556 42.3065 39.1556C41.8316 39.1556 41.4754 39.2635 41.2163 39.4686C40.9572 39.6737 40.8385 39.976 40.8385 40.3754C40.8385 40.7316 40.9572 41.077 41.2055 41.3793C41.4538 41.6923 41.9179 42.1133 42.6088 42.6314C43.4724 43.2683 44.12 43.9484 44.541 44.65C44.9728 45.3732 45.1887 46.1828 45.1887 47.1004Z" fill="white"/>
<path d="M53.3384 50.3061C52.939 50.9862 52.464 51.4935 51.9243 51.7958C51.3738 52.1088 50.7045 52.2599 49.8949 52.2599C48.8587 52.2599 48.0491 51.9469 47.4662 51.3208C46.8832 50.6947 46.5918 49.8312 46.5918 48.7193C46.5918 47.9421 46.6889 47.1001 46.8724 46.1934L48.2757 39.5439H52.5396L51.1147 46.3553C50.9744 46.9598 50.9096 47.4779 50.9096 47.9097C50.9096 48.2336 50.996 48.4711 51.1579 48.6222C51.3198 48.7733 51.5249 48.8489 51.7516 48.8489C52.1834 48.8489 52.5828 48.5574 52.939 47.9853C53.2952 47.4132 53.5759 46.6144 53.7918 45.6213L55.0763 39.5439H59.351L56.7171 52.044H53.9105L53.3384 50.3061Z" fill="white"/>
<path d="M89.9644 41.6386C90.4394 40.8183 90.9575 40.2246 91.5188 39.8683C92.0802 39.5121 92.8142 39.3286 93.7101 39.3286C94.1203 39.3286 94.4118 39.361 94.5953 39.415L93.6669 43.6356C93.2675 43.4737 92.8142 43.3982 92.3068 43.3982C91.5512 43.3982 90.9467 43.6572 90.4933 44.1754C90.04 44.6935 89.6946 45.4815 89.4571 46.5502L88.2912 52.0446H84.0166L86.6505 39.5445H89.4463L89.9644 41.6386Z" fill="white"/>
<path d="M82.6885 40.2785C81.8897 39.6416 80.7886 39.3286 79.3853 39.3286C77.982 39.3286 76.7406 39.6524 75.672 40.2893C74.6033 40.937 73.7614 41.8761 73.1461 43.1283C72.5308 44.3697 72.2285 45.773 72.2285 47.3274C72.2285 48.8818 72.6603 50.0908 73.5347 50.9651C74.3982 51.8395 75.618 52.2713 77.1724 52.2713C78.1116 52.2713 78.932 52.1849 79.6444 52.023C80.3569 51.8611 81.1233 51.5696 81.9544 51.1487V48.1262C81.242 48.504 80.6051 48.7738 80.0438 48.9466C79.4825 49.1193 78.9104 49.2056 78.3382 49.2056C77.1293 49.2056 76.5248 48.6659 76.5248 47.5757V47.4029H77.1724C79.353 47.4029 81.0153 47.0035 82.1595 46.2155C83.3146 45.4275 83.8867 44.2941 83.8867 42.8153C83.8975 41.7574 83.4873 40.9154 82.6885 40.2785ZM79.4285 44.3697C79.1047 44.5748 78.7268 44.6827 78.3706 44.6827H76.9565L77.1833 43.6248C77.2372 43.355 77.4315 43.0851 77.7554 42.88C78.3922 42.4698 79.2882 42.4698 79.7523 42.88C80.2057 43.2902 80.0654 43.9595 79.4285 44.3697Z" fill="white"/>
<path d="M70.1457 40.5592C69.4872 39.7388 68.5913 39.3286 67.447 39.3286C66.2596 39.3286 65.3097 39.8683 64.5973 40.9478L64.0252 39.5445H61.2294L57.4297 57.4743H61.4992L62.9673 50.6629C63.615 51.7316 64.4677 52.2605 65.5148 52.2605C66.5187 52.2605 67.4471 51.9043 68.2998 51.1918C69.1526 50.4794 69.8326 49.4647 70.3508 48.1478C70.8689 46.8308 71.1172 45.4167 71.1172 43.9271C71.128 42.513 70.7934 41.3796 70.1457 40.5592ZM66.9505 45.6003C66.7994 46.3019 66.2165 48.5795 64.8671 48.5795C63.5178 48.5795 63.9064 46.3019 64.0575 45.6003C64.2087 44.8986 64.7916 42.6209 66.1409 42.6209C67.4794 42.6209 67.1016 44.8986 66.9505 45.6003Z" fill="white"/>
</svg>
