<svg width="114" height="120" viewBox="0 0 114 120" fill="none" xmlns="http://www.w3.org/2000/svg">
<path fill-rule="evenodd" clip-rule="evenodd" d="M51.0498 0.0255642C77.7656 -0.773667 101.396 17.2488 109.734 42.6425C118.154 68.2842 110.288 97.347 88.0094 112.581C67.3332 126.719 40.4105 118.945 20.6422 103.563C3.02788 89.8567 -4.02838 67.2718 2.26072 45.8577C9.21213 22.1883 26.3919 0.763235 51.0498 0.0255642Z" fill="#00D18A"/>
<path d="M77.4047 65.8357C77.1132 62.6533 76.1566 59.7942 74.6709 56.9604C74.119 55.9089 73.4936 54.8997 72.8399 53.9073C72.4918 53.3787 72.1437 52.8502 71.7758 52.3385C70.6381 50.7586 69.5033 49.9602 67.6525 49.336C67.0384 49.128 66.4299 49.0409 65.8413 49.0549C65.5753 48.9256 65.3036 48.8244 65.0291 48.7485C65.0348 48.74 65.0404 48.7288 65.0461 48.7204C63.399 48.2228 61.902 48.5264 60.4275 49.0437C60.337 49.0465 60.2492 49.0521 60.1587 49.0549C59.0267 49.1083 57.9173 49.5778 57.091 50.3284C55.6845 50.8204 54.4336 51.2084 53.3865 52.555C52.4837 53.7161 51.9206 55.0121 51.4225 56.4009C50.2141 59.7717 50.1094 63.477 51.4083 66.7213C51.3461 69.7041 51.8781 72.6307 53.6299 75.3295C57.2042 80.8454 64.4603 83.1113 70.3212 79.7208C75.0218 76.9995 77.8943 71.1941 77.4047 65.8357Z" fill="#FFA200"/>
<path d="M52.9747 64.2557C52.8729 63.5107 52.4144 62.7854 51.8003 62.4283C50.9966 61.9616 50.1645 62.0375 49.4712 62.4424C48.8797 62.597 48.3364 62.9962 48.0449 63.491C47.8185 63.8762 47.7336 64.2754 47.759 64.6633C46.5676 67.4212 47.2383 70.7611 49.3269 72.9736C50.4702 74.1853 52.171 73.6511 53.0427 72.4985C54.7774 70.2073 54.7095 66.5553 52.9747 64.2557Z" fill="#FFA200"/>
<path d="M80.0913 49.738C79.7234 49.0071 79.2706 48.2733 78.7527 47.562C75.5095 42.9234 70.7155 40.3847 65.1999 40.1458C64.7923 40.1289 64.416 40.1795 64.0707 40.2835C63.9434 40.157 63.8132 40.0333 63.6745 39.9181C62.6331 39.0409 61.3907 38.3943 60.0549 38.1554C57.89 37.7674 55.2921 38.0598 53.495 39.561C53.3705 39.665 53.2516 39.7775 53.1356 39.8899C51.664 40.3482 50.2999 41.3856 49.1085 42.645C45.2116 45.6588 43.007 50.7754 43.474 56.0297C43.4712 56.0916 43.4683 56.1563 43.4655 56.2181C43.474 56.2153 43.4853 56.2153 43.4938 56.2125C43.5391 56.6567 43.5985 57.1009 43.6834 57.5479C43.9155 58.7736 44.7305 59.7323 45.7635 60.3367C45.8823 62.1106 46.4257 63.8115 47.7699 64.8404C50.1103 66.6341 53.5884 66.53 55.1166 63.4235C55.7024 62.2343 55.8807 61.2026 55.8467 59.8925C55.8382 59.5523 56.0222 57.8346 55.7845 58.931C55.8354 58.6302 55.9033 58.3294 55.9854 58.037C55.9939 58.0174 55.9996 58.0033 56.008 57.9836C56.076 57.8515 56.4891 57.129 56.608 56.8872C56.7438 56.7438 57.0297 56.4093 57.2306 56.1816C57.2136 56.2434 57.7258 55.8273 58.0541 55.5743C58.1249 55.5715 58.606 55.355 58.9456 55.2145C59.0361 55.2454 59.6248 55.206 59.9814 55.1864C60.8502 55.8189 61.9737 56.0663 63.001 55.6277C64.2065 55.1104 65.0329 54.9558 66.0687 55.3269C66.0772 55.3466 66.53 55.5631 66.6234 55.6165C66.8979 55.7795 67.1752 55.9342 67.4469 56.1057C67.5544 56.1816 67.8148 56.3643 67.9025 56.4374C68.1855 56.6707 68.4629 56.9125 68.726 57.174C68.9383 57.3848 69.1392 57.6041 69.3373 57.8262C69.4307 57.9302 69.4986 58.0033 69.5496 58.0539C69.5864 58.1129 69.6316 58.186 69.6996 58.2901C69.8637 58.5375 70.0024 58.8045 70.1693 59.0491C70.2231 59.1278 70.2684 59.1897 70.3052 59.2431C70.3137 59.2628 70.3193 59.2825 70.3307 59.3078C70.4693 59.6507 70.5571 60.0162 70.6957 60.3592C70.7269 60.4379 70.7552 60.4998 70.7778 60.556C70.7778 60.57 70.7778 60.5785 70.7806 60.5953C70.8655 61.4331 70.7891 62.2653 70.8259 63.1059C70.9504 65.83 72.6909 67.3594 74.6775 67.6771C76.8566 68.3574 79.6696 67.4156 80.663 65.0878C82.8562 59.9347 82.5393 54.5932 80.0913 49.738Z" fill="#3B1037"/>
<path d="M80.889 60.4069C80.8635 60.3703 80.8409 60.3338 80.8154 60.2973C80.1136 59.2992 78.5967 58.945 77.6854 59.7519C77.5326 59.8503 77.3883 59.9711 77.2666 60.1201C76.2959 61.3037 75.5856 62.6391 75.1866 64.0476C75.062 64.2668 74.9375 64.4861 74.813 64.7082C74.4111 65.4251 74.4932 66.1139 74.8271 66.6452C74.83 67.5195 74.9545 68.4051 75.2205 69.2879C75.6252 70.6232 77.3826 71.5707 78.6618 70.6795C80.7248 69.2429 81.9899 66.8589 82.0493 64.4411C82.3125 63.0439 81.9333 61.5455 80.889 60.4069Z" fill="#FFA200"/>
<path d="M62.4487 70.6824C62.4176 70.6993 62.1657 70.868 62.1657 70.8736C62.1148 70.9073 62.061 70.9382 62.0073 70.9664C61.9931 70.9748 61.9846 70.9776 61.9761 70.9832C61.9676 70.9832 61.9563 70.986 61.9309 70.9917C61.8884 71.0057 61.8431 71.0141 61.7978 71.0226C61.795 71.0226 61.7922 71.0226 61.7894 71.0226C61.7158 71.0226 61.645 71.0226 61.5743 71.0226C61.5545 71.0198 61.5403 71.0198 61.529 71.0198C61.5035 71.0141 61.4809 71.0113 61.4554 71.0057C61.3705 70.9832 61.2856 70.9607 61.2007 70.9326C61.1752 70.9242 61.1611 70.9186 61.1469 70.9158C61.1356 70.9101 61.1243 70.9045 61.1017 70.8933C60.7338 70.7133 60.6064 70.6009 60.3319 70.3169C60.1649 70.1454 59.9838 69.8306 59.9102 69.5804C59.8367 69.333 59.848 69.392 59.8451 69.1278C59.8451 68.9506 59.8565 68.7763 59.8876 68.6048C59.9725 68.1522 60.1366 67.7221 60.3574 67.3173C60.8187 66.4682 61.4582 65.7598 62.1176 65.0598C62.7431 64.3963 61.7441 63.4011 61.113 64.0617C59.7999 65.4309 58.382 66.9827 58.283 68.9703C58.2038 70.5671 59.4093 72.1021 60.9573 72.5013C61.8148 72.7234 63.0091 72.5463 63.4732 71.6973C63.8326 71.0479 63.1138 70.3141 62.4487 70.6824Z" fill="#FF851A"/>
<path d="M65.5384 74.0308C64.5507 74.8208 63.4782 75.0625 62.2613 74.6633C60.3397 74.0308 59.5077 77.0501 61.4264 77.6714C63.5546 78.363 66.1808 77.8795 67.7401 76.218C69.1353 74.7308 67.0723 72.805 65.5384 74.0308Z" fill="white"/>
<path d="M42.6669 65.3323C41.8547 65.0512 40.7623 65.4645 40.2189 66.0633C38.1163 68.3826 37.5588 71.5285 38.3483 74.337C37.7031 73.5217 37.0607 72.7092 36.4154 71.894C35.374 70.5783 34.525 69.0095 32.7619 68.6609C31.2507 68.3629 30.1385 69.4565 30.0706 70.8819C30.0479 71.3345 30.1357 71.7478 30.2885 72.1357C30.0593 71.9418 29.83 71.7506 29.6008 71.5566C28.9188 70.9831 27.9311 70.6317 27.0538 70.9606C26.0944 71.3176 25.5086 71.8152 25.2935 72.8442C25.1181 73.6848 25.3756 74.6884 26.0605 75.2647L28.5848 77.3873C27.9849 77.213 27.351 77.1624 26.6321 77.3395C25.4492 77.6263 24.8832 78.9616 25.186 80.0524C25.6756 81.8179 27.4868 82.4927 28.9669 83.3529C29.581 83.71 30.1951 84.067 30.8092 84.424C27.7273 84.157 26.7482 88.8997 29.9715 89.4507C33.959 90.1338 38.221 90.7242 42.0273 89.0712C43.4734 88.4442 44.7017 87.4771 45.6356 86.2908C46.0006 86.0096 46.3374 85.6723 46.6402 85.2703C46.9968 84.7951 47.1355 84.2048 47.0958 83.6369C47.4241 82.7063 47.6109 81.7167 47.625 80.6962C47.6562 78.2391 46.3431 76.0294 44.3649 74.829C43.3546 73.9575 43.0008 72.4506 43.2357 71.1743C43.4083 70.2465 43.9998 69.8389 44.4215 69.0461C45.2931 67.4043 44.2375 65.8749 42.6669 65.3323Z" fill="#FFA200"/>
<path d="M24.1894 67.6077C21.369 68.983 20.3523 73.0345 22.2234 75.5534C22.4133 75.8089 22.7376 75.9386 23.0343 75.7657C23.2875 75.6163 23.4378 75.2155 23.2479 74.9601C21.7408 72.9284 22.5003 69.7415 24.7867 68.6254C25.475 68.2914 24.8738 67.2736 24.1894 67.6077Z" fill="white"/>
<path d="M20.1169 67.9811C18.7521 68.8142 17.9729 70.2799 17.7553 71.8282C17.4784 73.7734 18.0757 75.6872 18.673 77.5184C18.9064 78.2375 20.0536 77.931 19.8162 77.204C19.298 75.6086 18.7363 73.9424 18.8906 72.2408C19.0053 70.9716 19.5947 69.6787 20.7142 68.9989C21.3669 68.602 20.7696 67.5842 20.1169 67.9811Z" fill="white"/>
</svg>
