<svg width="126" height="120" viewBox="0 0 126 120" fill="none" xmlns="http://www.w3.org/2000/svg">
<path fill-rule="evenodd" clip-rule="evenodd" d="M65.8716 0.0112337C91.0453 0.39977 115.685 13.4974 123.467 38.7285C131.251 63.965 118.83 90.1132 98.4836 105.749C78.0101 121.483 50.8018 125.716 29.8813 110.649C7.04441 94.2022 -6.13104 64.4398 2.83847 36.8667C11.4528 10.3853 39.309 -0.398739 65.8716 0.0112337Z" fill="#FF5A9A"/>
<g clip-path="url(#clip0)">
<path d="M53.3055 34.541C51.0161 40.6721 55.0307 47.9041 59.6256 51.2545C62.1568 53.1003 65.3679 53.3734 67.9637 51.5245C70.4788 49.7321 72.2227 46.5301 73.2196 43.4824C74.238 40.3664 74.1306 36.7044 72.2792 33.992C70.4412 31.2974 67.5069 30.5347 64.5994 30.3864C62.001 30.2528 58.8437 30.3181 56.8713 32.4934C54.7539 34.8289 54.9097 38.7609 55.552 41.7641C56.2372 44.978 59.5181 49.3107 62.697 46.5657C65.4109 44.2243 64.715 38.752 63.6777 35.6598C63.0087 33.6685 59.9803 32.5438 59.0129 34.9861C57.492 38.8232 57.9354 44.2896 61.5603 46.5894C66.1741 49.5155 68.708 41.503 68.7349 37.8469C68.7564 35.185 65.0965 33.8258 63.9787 36.4254C63.0624 38.5502 62.5841 40.7819 62.8098 43.1441C63.1 46.1947 66.9345 47.1058 67.8239 43.8949C68.3909 41.8502 68.6596 39.7135 68.6328 37.5739C66.9318 37.5739 65.2282 37.5739 63.5273 37.5739C63.5703 39.028 63.2612 40.2121 62.5465 41.4288C60.7542 44.4824 65.1745 47.3135 66.956 44.2747C68.1303 42.2716 68.7026 39.9569 68.6328 37.5739C68.5253 33.9594 63.4789 33.9326 63.5273 37.5739C63.5488 39.2506 63.3445 40.7908 62.9012 42.3962C64.5725 42.6455 66.2439 42.8948 67.9153 43.147C67.7863 41.8057 67.8562 40.5118 68.3882 39.2743C66.8028 38.7995 65.2175 38.3247 63.6321 37.8528C63.624 38.9657 63.3016 41.3457 62.3879 41.8502C62.8179 41.7226 63.2478 41.595 63.6751 41.4644C64.0432 41.414 64.0298 41.8264 63.6724 41.0994C63.495 40.7403 63.3741 40.4109 63.2989 40.0073C63.1672 39.3099 63.1564 38.5057 63.4225 37.838C61.8666 37.6125 60.3108 37.3899 58.7577 37.1644C59.1634 38.3692 59.4241 39.5592 59.4214 40.8501C59.4187 41.3249 59.2279 41.9867 59.2843 42.4437C59.8621 42.046 60.5258 41.8947 61.2782 41.9837C61.1707 41.8799 61.0686 41.7701 60.9745 41.6514C60.7434 40.7997 60.3968 40.0756 60.3242 39.1378C60.2705 38.4582 60.0448 36.9774 60.4855 36.4818C61.3212 35.5381 63.9787 35.9773 65.0105 36.0515C66.7276 36.1761 68.4339 36.6955 68.7402 38.8232C69.06 41.0371 67.832 43.4824 66.6765 45.1947C65.8032 46.4885 64.629 47.6459 63.1054 46.9634C61.2459 46.1324 59.7385 43.9364 58.7926 42.0668C57.8064 40.1171 57.4517 38.1437 58.2364 36.0456C58.763 34.636 57.6667 32.9444 56.4521 32.5765C54.9796 32.1254 53.8349 33.1284 53.3055 34.541Z" fill="#E78477"/>
<path d="M65.5104 37.577C64.7554 40.5653 66.9695 43.9158 69.8582 43.7288C69.4282 41.9779 68.9983 40.227 68.571 38.4762C68.2889 38.7076 68.0068 38.9391 67.7246 39.1706C67.1711 39.6246 66.7411 40.0935 66.5503 40.8562C66.3811 41.5298 66.459 42.429 66.8083 43.0284C67.4881 44.1947 69.1568 44.9811 70.3015 44.0404C70.5837 43.8089 70.8658 43.5774 71.148 43.346C72.0347 42.6159 72.6931 41.4348 72.3222 40.1617C71.989 39.0252 71.0082 38.0191 69.8609 38.0933C69.5814 38.0993 69.654 38.126 70.0839 38.1735C69.8232 38.0933 69.885 38.1319 70.2666 38.2951C70.0382 38.1438 70.0839 38.1972 70.4037 38.4554C70.3257 38.3812 70.2532 38.3011 70.186 38.215C70.4198 38.5681 70.4655 38.6186 70.323 38.3664C70.4655 38.7877 70.495 38.856 70.4144 38.5711C70.452 39.0489 70.4628 39.132 70.452 38.8263C70.3741 39.2952 70.3687 39.3813 70.4386 39.0786C70.7987 37.6601 69.9952 35.9478 68.6543 35.6095C67.2974 35.2682 65.8947 36.0576 65.5104 37.577Z" fill="#E78477"/>
<path d="M54.3042 34.5885C54.1995 37.7222 54.0705 40.853 53.9925 43.9868C53.9361 46.3075 54.1403 48.8062 55.6156 50.6075C57.295 52.6581 59.8477 52.7264 62.1694 52.7709C65.0016 52.8243 67.8042 52.5602 70.6096 52.1358C71.9773 51.9281 72.7243 49.9962 72.3938 48.6667C71.9881 47.0375 70.6257 46.4915 69.2526 46.6962C67.2534 46.9989 65.2246 47.1265 63.2093 47.1354C62.2178 47.1414 61.202 47.1592 60.2132 47.0464C59.7134 46.99 59.5011 47.0138 59.2512 46.5479C59.0201 46.1176 59.0846 45.2629 59.0846 44.8029C59.0792 43.7494 59.1437 42.69 59.1786 41.6365C59.2566 39.2862 59.3345 36.9358 59.4124 34.5885C59.5307 30.9591 54.4252 30.965 54.3042 34.5885Z" fill="#E78477"/>
<path d="M60.4965 36.0932C61.1011 37.1497 60.3246 38.3426 60.0343 39.3754C59.8006 40.2122 59.685 41.1411 60.0397 41.9601C60.6336 43.3401 62.1115 43.7585 63.1783 42.8445C63.9951 42.1412 62.8477 40.8888 62.0389 41.5862C61.4531 42.0907 61.4934 40.2389 61.5364 40.052C61.6923 39.3932 61.9959 38.7907 62.1625 38.1379C62.4232 37.117 62.4097 36.108 61.8884 35.197C61.3349 34.2266 59.9403 35.1198 60.4965 36.0932Z" fill="#BC6877"/>
<path d="M61.0801 47.2602C61.588 47.0821 62.0985 46.9397 62.6279 46.8685C62.8993 46.8329 63.2809 46.907 63.5361 46.8121C63.649 46.815 63.7619 46.818 63.8747 46.821C63.7457 46.5984 63.5711 46.4619 63.3534 46.4115C62.3807 45.904 61.2091 45.6488 60.1826 45.2838C59.5512 45.0582 58.8525 45.9574 59.2717 46.5925C60.5131 48.465 63.0363 48.7885 64.5331 47.0643C65.2505 46.2364 64.1139 44.9751 63.3937 45.8061C62.6736 46.634 61.3139 46.6696 60.6663 45.6933C60.3627 46.1295 60.059 46.5658 59.7554 47.002C60.9592 47.4323 62.2383 48.0763 63.4931 48.2751C64.3611 48.4116 65.3177 47.9813 65.538 46.9545C66.1346 44.1531 61.7976 45.1413 60.6529 45.5449C59.6667 45.8862 60.0886 47.6074 61.0801 47.2602Z" fill="white"/>
<path d="M56.0279 40.5713C55.8828 38.7551 55.4663 37.0191 55.2003 35.2267C55.0498 34.2088 54.9746 33.2977 55.5147 32.6864C56.079 32.0513 56.9335 31.7872 57.9008 31.6388C59.4674 31.3985 61.1119 31.4994 62.6892 31.4697C64.28 31.44 65.8707 31.4044 67.4615 31.3806C68.6223 31.3658 69.5574 31.3154 70.205 32.0276C71.9087 33.9061 71.3256 37.6007 71.0434 40.2033C70.8365 42.1174 72.6745 43.7644 74.2679 43.7644C76.1838 43.7644 77.2855 42.1204 77.4924 40.2033C77.9922 35.5798 77.9627 30.523 74.765 26.9916C71.5459 23.4394 66.83 24.2703 62.6892 24.3474C58.6344 24.4216 54.0529 24.2198 50.952 27.6504C49.3773 29.3924 48.59 31.808 48.6518 34.2562C48.7056 36.4137 49.4042 38.4465 49.5762 40.5713C49.7293 42.4884 50.9493 44.1324 52.8007 44.1324C54.4291 44.1324 56.1838 42.5002 56.0279 40.5713Z" fill="#723612"/>
<path d="M55.9369 29.971C56.5657 28.5852 57.9495 27.6088 59.2823 28.9057C60.5856 27.042 61.8861 25.1784 63.1894 23.3118C59.234 20.5104 53.6905 19.7358 50.2591 23.9498C48.7167 25.8431 47.7708 28.6979 48.4668 31.2293C49.5416 35.1406 53.9619 35.1881 55.2302 31.4489C55.644 30.2292 55.1173 28.8938 54.3999 27.9828C54.3676 27.9442 54.3381 27.9056 54.3058 27.8641C53.1638 26.4129 50.9174 26.5702 49.7458 27.8641C48.4426 29.3033 48.5984 31.4459 49.7458 32.9001C49.7781 32.9386 49.8076 32.9772 49.8399 33.0188C49.5631 31.8644 49.2863 30.71 49.0096 29.5526C48.9881 29.612 48.9692 29.6743 48.9477 29.7336C49.4422 29.0244 49.9366 28.3151 50.4283 27.6059C50.3746 27.6296 50.3235 27.6563 50.2698 27.6801C51.3554 27.6801 52.441 27.6801 53.5239 27.6801C53.4513 27.6237 53.3788 27.5643 53.3062 27.5079C53.8006 28.2172 54.2951 28.9265 54.7868 29.6357C54.6148 29.1639 54.6283 29.3894 54.6498 29.606C54.6175 29.2648 54.7008 29.2262 54.8701 28.9413C55.0582 28.6238 55.472 28.2855 55.7622 28.1816C57.1998 27.6741 58.7449 28.6208 59.9272 29.4606C62.9744 31.6181 66.602 26.5613 63.8343 23.8667C59.6505 19.7952 52.9676 20.632 50.3612 26.3743C49.5819 28.0926 49.9473 30.2322 51.5193 31.2471C52.9542 32.173 55.1523 31.6982 55.9369 29.971Z" fill="#723612"/>
<path d="M66.0836 29.8286C67.2175 29.3093 68.6041 28.7633 69.8079 29.2974C69.9718 29.3716 70.4044 29.704 70.4232 29.7218C70.2647 29.5705 70.786 30.1996 70.614 29.9503C70.9634 30.4578 70.958 30.4518 70.9069 31.2739C70.7887 33.1939 72.4735 34.835 74.1314 34.835C75.9748 34.835 77.2377 33.1998 77.356 31.2739C77.5548 28.0599 75.8431 24.9915 73.3925 23.3504C70.7054 21.552 67.1987 21.6588 64.3692 22.9587C62.7623 23.6976 61.6149 25.3179 62.1174 27.3388C62.5339 29.0185 64.4659 30.5705 66.0836 29.8286Z" fill="#723612"/>
<path d="M71.2779 39.9956C70.6438 41.1441 70.5739 42.2094 70.7781 43.5093C71.0012 44.9248 72.4764 45.5094 73.5888 45.272C77.7028 44.3936 78.2375 39.2626 78.2778 35.476C78.3181 31.6863 77.5631 28.0956 74.6879 25.7512C73.6936 24.941 72.1378 25.5701 71.5628 26.6563C70.8829 27.9383 71.3881 29.2945 72.3823 30.1076C73.6668 31.1552 73.7071 33.4817 73.7124 35.0575C73.7178 36.479 74.0564 40.0461 72.3743 40.4051C73.3121 40.9927 74.2472 41.5803 75.185 42.1679C75.1984 42.2925 75.2118 42.4172 75.2253 42.5418C76.7542 39.7612 72.8069 37.2239 71.2779 39.9956Z" fill="#723612"/>
<path d="M52.5513 40.1381C52.3498 40.3607 52.1483 40.5833 51.9467 40.8058C51.6055 41.1827 51.3959 41.7406 51.3959 42.2748C51.3851 42.5597 51.4389 42.8268 51.5571 43.0761C51.6323 43.3342 51.7613 43.5568 51.9467 43.7438C52.3041 44.1058 52.777 44.3759 53.2768 44.3521C53.7766 44.3284 54.2469 44.1414 54.607 43.7438C54.8085 43.5212 55.01 43.2986 55.2116 43.0761C55.5528 42.6992 55.7624 42.1413 55.7624 41.6071C55.7732 41.3222 55.7194 41.0551 55.6012 40.8058C55.5259 40.5477 55.397 40.3251 55.2116 40.1381C54.8542 39.7761 54.3812 39.506 53.8814 39.5298C53.3843 39.5535 52.9114 39.7405 52.5513 40.1381Z" fill="#723612"/>
<path d="M48.1484 28.0836C45.9719 32.716 46.7001 38.4464 50.0536 42.1589C51.7653 44.0552 54.4255 41.1173 52.7138 39.221C50.5856 36.8647 49.9972 33.1552 51.3971 30.1787C52.5096 27.8106 49.2636 25.7095 48.1484 28.0836Z" fill="#723612"/>
<path d="M53.0564 50.1478C56.16 54.522 61.4375 55.4805 66.1775 55.1155C67.5533 55.0087 68.9237 54.8158 70.2915 54.614C71.3045 54.4656 72.3176 54.2905 73.1559 53.5991C75.1283 51.9758 74.435 49.2634 73.4972 47.2187C72.8845 47.8953 72.2719 48.572 71.6592 49.2486C75.3674 51.7948 77.8637 56.172 78.2534 60.9913C78.4065 62.8787 81.0936 62.8965 80.9405 60.9913C80.4648 55.0977 77.5789 49.8183 73.0162 46.6875C71.8124 45.8596 70.6005 47.4561 71.1782 48.7174C71.4657 49.3435 72.0435 50.4208 71.6297 51.0796C71.2185 51.7324 69.9126 51.7028 69.2677 51.7918C67.3894 52.0529 65.5004 52.2755 63.6033 52.2221C60.3035 52.1301 57.0521 50.9995 54.9589 48.0497C53.8921 46.5451 52.0004 48.661 53.0564 50.1478Z" fill="#7236D2"/>
<path d="M51.3861 48.551C49.9727 50.3494 48.8737 52.3555 48.1401 54.596C47.471 56.6377 46.9148 59.27 47.2211 61.4571C47.5893 64.0805 50.6982 63.5047 52.4717 63.5641C55.1051 63.6502 57.7411 63.6887 60.3745 63.6769C65.6439 63.6531 70.9133 63.4365 76.1666 63.021C76.9834 62.9557 78.1496 63.0655 78.8644 62.5343C79.6759 61.9319 79.7512 60.8873 79.4502 59.9496C78.6065 57.3143 77.1796 54.7741 76.0671 52.2635C75.4921 50.9666 73.4526 51.5602 73.5628 53.0113C73.5386 52.6997 73.3935 52.9431 73.1463 53.0084C72.8534 53.0855 72.5632 53.2131 72.273 53.3051C71.6872 53.4891 71.096 53.6494 70.4995 53.7799C69.2742 54.053 68.03 54.1984 66.7805 54.2369C64.2278 54.3141 61.6965 53.9283 59.2593 53.0885C58.0636 52.676 56.9484 52.1181 55.8172 51.5305C54.9116 51.0616 53.9631 50.6996 52.9823 51.1417C51.0556 52.0112 50.0184 55.2341 49.5508 57.2669C49.2795 58.448 50.2092 59.27 51.2034 59.0919C53.0172 58.7655 54.5569 57.4746 55.3523 55.6495C55.9703 54.228 54.3205 52.5068 53.2429 53.8512C52.2541 55.0827 51.5581 56.433 51.1228 58.0088C50.9266 58.7239 51.3593 59.6973 52.0606 59.8338C53.1838 60.0534 54.4252 60.1929 55.3845 59.3531C56.1665 58.6705 56.5077 57.4657 56.2014 56.4063C55.2582 53.1389 51.714 55.7178 50.7547 57.5547C50.2038 58.6112 50.3328 59.914 51.2625 60.647C52.1143 61.3206 53.1838 61.196 54.1539 60.9942C57.5745 60.276 60.9818 59.448 64.3944 58.6735C65.8723 58.3382 65.5498 55.6792 64.037 55.7593C61.409 55.8988 58.781 56.0383 56.1557 56.1807C54.4387 56.2727 54.4145 59.1691 56.1557 59.1483C56.978 59.1394 57.8002 59.1305 58.6252 59.1186C59.8532 59.1038 60.5921 56.9612 59.3023 56.3528C57.9346 55.7089 56.5696 55.0619 55.2018 54.418C54.9761 55.3409 54.7504 56.2608 54.5247 57.1838C55.664 57.0205 56.806 56.8573 57.9453 56.6971C57.5127 56.0709 57.0828 55.4448 56.6502 54.8186C56.3626 55.7445 55.8064 56.2935 55.0191 56.703C53.4552 57.5161 54.8176 60.0742 56.3761 59.2641C57.8029 58.5222 58.7354 57.2342 59.2405 55.605C59.4985 54.7741 58.7945 53.6048 57.9453 53.7265C56.806 53.8897 55.664 54.0529 54.5247 54.2132C53.4041 54.3735 52.4529 56.3202 53.8475 56.979C55.2153 57.623 56.5803 58.2699 57.948 58.9139C58.1737 57.991 58.3995 57.071 58.6252 56.1481C57.8029 56.157 56.9807 56.1659 56.1557 56.1778C56.1557 57.166 56.1557 58.1571 56.1557 59.1453C58.7837 59.0059 61.4117 58.8664 64.037 58.7239C63.9188 57.7535 63.7978 56.7802 63.6796 55.8098C61.1403 56.3855 58.6037 56.9612 56.0644 57.5339C55.4517 57.6734 54.8391 57.8129 54.2264 57.9494C54.0867 57.982 52.9043 58.1037 52.8506 58.1927C52.512 58.1364 52.641 58.3322 53.2375 58.7803C53.4525 58.5014 53.697 58.2521 53.9684 58.0384C54.6375 57.7773 54.4951 57.4479 53.5412 57.0502C53.2832 57.0591 53.0253 57.0324 52.7727 56.9701C53.0844 57.5785 53.3988 58.1868 53.7105 58.7952C54.0087 57.715 54.4602 56.795 55.14 55.9463C54.436 55.3468 53.732 54.7474 53.0306 54.1479C52.504 55.3587 51.6817 56.0145 50.4886 56.2282C51.0395 56.8366 51.5904 57.4449 52.1412 58.0533C52.4234 56.8217 52.8425 55.3498 53.6352 54.3824C54.1861 53.7087 54.5703 54.1657 55.2502 54.5189C55.7688 54.7889 56.2955 55.0382 56.8248 55.2726C59.1277 56.2935 61.5702 56.884 64.0424 57.1155C66.4339 57.341 68.8603 57.166 71.2142 56.6407C72.934 56.2579 76.4514 55.6762 76.2499 53.0084C75.4142 53.2576 74.5812 53.5069 73.7455 53.7562C74.6349 55.7623 75.5244 57.7713 76.4138 59.7774C76.5293 60.0386 76.6449 60.2997 76.7604 60.5639C76.9109 60.3621 77.0641 60.1632 77.2145 59.9614C77.2092 59.9288 75.8495 60.0712 75.6372 60.0861C74.5866 60.1662 73.5332 60.2374 72.4826 60.3027C68.5379 60.5461 64.5852 60.6766 60.6324 60.6974C58.7004 60.7093 56.7684 60.6915 54.8364 60.6499C53.8717 60.6291 52.9043 60.6024 51.9397 60.5668C51.413 60.549 50.8863 60.5282 50.3597 60.5045C50.0963 60.4926 49.833 60.4808 49.5697 60.4689C49.0484 60.3739 49.1505 60.6084 49.8787 61.1692C49.9163 61.1544 49.9673 58.7507 50.0077 58.4658C50.1286 57.5725 50.3247 56.6882 50.5827 55.8305C51.155 53.9164 52.0875 52.1567 53.2805 50.6372C54.4145 49.2128 52.5228 47.1058 51.3861 48.551Z" fill="#7236D2"/>
<path d="M51.154 61.5345C55.8511 61.3535 60.5481 61.1695 65.2452 60.9884C67.4325 60.9024 69.7514 61.0448 71.9146 60.665C73.7445 60.3445 75.0208 58.7627 74.6124 56.6825C74.4646 55.9287 73.8143 55.5577 73.1882 55.4836C69.5821 55.0681 65.9922 55.2699 62.4291 56.0058C60.9969 56.3026 61.0425 58.8221 62.4291 59.1545C65.3231 59.8489 68.1956 59.4394 71.0359 58.644C71.533 58.5046 72.7771 57.917 73.2232 58.3918C73.2608 58.377 73.2984 58.3651 73.336 58.3503C73.1909 58.4897 73.0216 58.5491 72.8282 58.5283C72.4788 58.5936 72.1295 58.5402 71.7802 58.5046C70.1733 58.3443 68.5718 58.1039 66.9703 57.9051C64.2698 57.5668 61.5585 57.27 59.1481 55.7655C56.9178 54.3737 55.1874 52.3053 54.0158 49.8006C53.1425 47.934 50.5924 49.581 51.463 51.4476C53.0323 54.8069 55.5985 57.5905 58.7128 59.1812C62.3592 61.0419 66.5833 61.122 70.5173 61.6146C72.3257 61.8401 74.3544 62.1369 75.6389 60.3771C76.7083 58.9082 76.3483 56.8991 75.0074 55.8041C73.3387 54.4449 71.3718 55.2165 69.5499 55.6883C67.462 56.2284 65.3312 56.5163 63.2164 56.0088C63.2164 57.0593 63.2164 58.1069 63.2164 59.1574C66.5162 58.4749 69.8535 58.3681 73.1909 58.7538C72.7153 58.3532 72.2397 57.9556 71.7668 57.5549C71.705 57.2344 71.4255 57.454 71.0574 57.4986C70.6328 57.549 70.1975 57.5342 69.7702 57.552C68.8835 57.5876 67.9968 57.6202 67.11 57.6558C65.3365 57.7241 63.5657 57.7923 61.7922 57.8636C58.248 58.0001 54.701 58.1396 51.1567 58.2761C49.2569 58.3443 49.2489 61.6087 51.154 61.5345Z" fill="#7236D2"/>
<path d="M52.983 48.2426C47.8318 48.7263 43.6453 53.4864 44.0618 59.3622C44.2257 61.671 45.1098 64.7721 47.7861 63.9204C48.8395 63.5851 49.5919 62.6265 49.8713 61.4781C50.2529 59.9201 49.5113 58.371 49.8552 56.8516C50.0675 55.9198 49.4199 54.6675 48.431 54.7862C45.6365 55.1215 45.2334 59.107 47.5819 60.5611C48.9496 61.4069 50.7581 61.3653 52.2763 61.5226C54.2809 61.7303 56.2881 61.9054 58.2981 62.0538C66.0772 62.6236 73.8752 62.7898 81.6678 62.953C83.315 62.9886 83.7019 60.1664 82.0601 59.748C81.1492 59.5135 80.2382 59.2821 79.3273 59.0476C77.4759 58.5728 76.6859 61.7214 78.5427 62.1962C79.4536 62.4307 80.3645 62.6622 81.2755 62.8966C81.4071 61.8283 81.5361 60.7599 81.6678 59.6916C75.8878 59.5699 70.1052 59.4482 64.3306 59.1604C61.5306 59.0209 58.7334 58.8429 55.9388 58.6055C54.4555 58.4808 52.9722 58.3384 51.4916 58.1781C50.8709 58.1099 50.226 58.0861 49.6161 57.9288C49.4521 57.8873 49.1673 57.7063 49.0088 57.7122C48.9416 57.7003 48.9255 57.6855 48.9577 57.6707C49.1566 57.546 48.9819 57.6736 48.4283 58.0564C47.9527 57.368 47.4771 56.6795 47.0042 55.991C46.808 56.8605 46.7919 57.638 46.8886 58.5283C46.9316 58.9289 47.0069 59.3236 47.0364 59.7242C47.0579 60.0091 46.9209 60.5225 46.9934 60.7688C47.109 61.1516 47.2192 61.0686 47.281 60.7926C47.3266 60.5819 47.0552 59.7955 47.0311 59.6055C46.937 58.8221 46.9719 57.9823 47.117 57.2107C47.7001 54.0888 50.1132 51.783 52.9803 51.5129C54.864 51.3319 54.8801 48.0646 52.983 48.2426Z" fill="#7236D2"/>
<path d="M74.4016 51.7414C78.2818 53.0323 80.8587 57.2077 80.6733 61.6472C80.5846 63.7483 83.5405 63.7423 83.6291 61.6472C83.8737 55.7565 80.2729 50.2873 75.1863 48.5928C73.3644 47.9844 72.5825 51.133 74.4016 51.7414Z" fill="#7236D2"/>
</g>
<path d="M75.2715 58.2994C74.9115 60.5548 73.8931 62.4066 72.1034 63.6055C70.5422 64.6531 70.725 66.8758 72.1034 67.9619C74.1886 69.606 77.3728 68.9442 78.7916 66.5909C79.5279 65.3712 79.673 63.923 79.6945 62.4897C79.7052 61.7122 79.4715 60.8456 80.2454 60.6142C82.086 60.0622 84.1202 62.0445 84.7355 63.7746C85.5739 66.1369 84.671 68.8136 83.1555 70.5556C81.1187 72.897 84.3432 76.47 86.3854 74.1227C90.7815 69.0718 90.8057 60.2135 84.7328 56.6732C82.2042 55.2013 78.488 54.8986 76.4028 57.4388C75.2473 58.8484 75.156 60.6854 75.1291 62.4867C75.1184 63.2019 75.2097 64.2317 74.4117 63.6025C74.4117 65.0537 74.4117 66.5078 74.4117 67.959C77.1418 66.128 79.1195 63.1336 79.6784 59.6378C79.8933 58.2965 79.3505 56.9195 78.0822 56.5337C76.9778 56.2043 75.4865 56.9521 75.2715 58.2994Z" fill="#DC7A4A"/>
<path d="M79.7136 59.6731C78.1201 62.4211 77.3866 65.721 77.7493 68.9705C78.0073 71.2912 80.7643 72.6058 82.0057 70.2436C83.0214 68.3088 83.8195 66.2463 84.3892 64.1007C82.8924 63.8781 81.3984 63.6526 79.9017 63.43C80.0038 66.2077 80.2967 68.9676 80.7454 71.7037C81.1324 74.0481 83.8947 73.8908 84.9212 72.3061C86.4475 69.9498 86.0175 66.9941 84.4644 64.8367C83.5158 63.5191 81.5704 64.0948 80.8771 65.3471C79.9501 67.0268 79.2245 68.8192 78.6791 70.6888C77.7762 73.7869 82.1857 75.1135 83.0832 72.0301C83.5132 70.5612 84.0909 69.2109 84.8191 67.8933C83.6233 68.0625 82.4276 68.2346 81.2318 68.4037C81.5381 68.8281 81.1915 69.4246 80.9738 69.7599C82.3658 69.9617 83.7577 70.1605 85.1496 70.3623C84.7707 68.0654 84.5558 65.7626 84.4698 63.43C84.365 60.6168 80.7213 59.9698 79.9823 62.7594C79.5174 64.5102 78.8887 66.1187 78.061 67.6974C79.4798 68.1218 80.8986 68.5462 82.3174 68.9705C82.0433 66.5074 82.4437 64.3173 83.6583 62.2193C85.2463 59.4772 81.2963 56.9458 79.7136 59.6731Z" fill="#DC7A4A"/>
<path d="M73.3253 68.3444C73.2985 71.4426 73.3845 76.3807 76.2408 78.0633C77.6704 78.9061 79.6105 78.6183 81.1609 78.4966C83.0661 78.3482 84.9658 78.0485 86.8388 77.633C87.8222 77.4164 88.5048 76.2501 88.5155 75.1996C88.537 73.1549 88.8595 70.8075 88.4456 68.8015C88.0076 66.6885 86.1992 65.6143 84.3801 65.4184C80.4838 65.0029 77.6059 68.1961 75.4105 71.3091C74.7764 72.2083 74.4969 73.3122 75.0531 74.3657C75.5261 75.2589 76.7057 75.9266 77.6328 75.526C79.9894 74.5022 81.4834 72.5851 82.7409 70.214C83.7217 68.3682 84.5279 66.1425 86.3363 65.1216C87.7577 64.3174 87.8975 61.519 86.3363 60.7652C85.1916 60.2132 84.2162 59.3882 83.762 58.0558C83.0285 59.1212 82.2949 60.1836 81.5586 61.2489C83.9394 61.424 85.815 63.5666 86.1562 66.1187C86.6587 69.9054 86.7608 73.8137 87.0591 77.63C87.8195 76.7902 88.5827 75.9474 89.3431 75.1076C86.3685 74.9919 83.2595 75.1491 80.3091 74.7307C80.6934 74.8464 81.0776 74.9592 81.4619 75.0749C81.392 75.0245 81.3248 74.9711 81.255 74.9206C81.6312 75.6477 82.01 76.3718 82.3862 77.0988C82.3836 77.0395 82.3782 76.9772 82.3755 76.9178C82.1525 77.5113 81.9294 78.1078 81.7064 78.7013C81.7413 78.6539 81.7736 78.6064 81.8085 78.5589C81.2711 78.8052 80.731 79.0515 80.1936 79.2978C80.2392 79.3038 80.2849 79.3067 80.3306 79.3127C81.5586 79.4492 82.6146 78.0544 82.6146 76.7902C82.6146 75.3124 81.564 74.4043 80.3306 74.2678C78.9521 74.1134 77.802 75.5587 77.8128 77.0069C77.8262 78.7637 79.1456 79.6747 80.5751 79.8112C83.4745 80.0902 86.433 80.0397 89.3431 80.1495C90.5013 80.194 91.732 78.9536 91.6272 77.6271C91.4203 74.9889 91.2134 72.3537 91.0064 69.7155C90.8372 67.5432 90.8667 65.1632 90.152 63.1037C88.7573 59.0974 85.4119 56.4859 81.5586 56.201C80.164 56.0972 78.85 57.9104 79.3552 59.3942C80.2124 61.9137 81.7601 64.0236 84.0307 65.1187C84.0307 63.6675 84.0307 62.2134 84.0307 60.7622C81.9993 61.9107 80.6934 64.0058 79.5863 66.1366C78.8178 67.6114 77.9686 69.9885 76.4182 70.6592C77.1598 72.0658 77.8988 73.4695 78.6404 74.8761C79.8254 73.1935 81.2577 70.8639 83.3106 70.4663C83.4584 70.4366 84.3801 70.4633 84.3559 70.5049C84.0442 69.7303 83.9259 69.668 83.9985 70.312C83.9958 70.582 83.9931 70.855 83.9904 71.1251C83.977 72.4813 83.9609 73.8375 83.9474 75.1936C84.5064 74.3835 85.0653 73.5733 85.6242 72.7602C84.4822 73.0125 83.3402 73.2232 82.182 73.3478C81.5882 73.4131 80.9916 73.4606 80.3951 73.4932C79.8792 73.5229 79.0838 73.3686 78.6028 73.5466C78.06 73.4576 78.0519 73.5437 78.5786 73.8048C78.5491 73.7544 78.5195 73.7039 78.49 73.6535C78.5894 73.4131 78.1433 72.1163 78.1003 71.8225C77.9257 70.6681 77.888 69.5018 77.8988 68.3355C77.923 65.0979 73.3549 65.0949 73.3253 68.3444Z" fill="#DC7A4A"/>
<path d="M77.2682 69.974C76.2766 69.6743 75.5457 70.618 75.4329 71.6181C75.3039 72.7695 76.1691 73.5826 77.1446 73.6746C78.1227 73.7666 79.2835 73.1137 79.7296 72.1315C80.2213 71.0513 79.6919 69.7336 78.7541 69.1935C77.725 68.6 76.4701 68.9502 75.535 69.6001C75.0298 69.9533 74.659 70.434 74.5945 71.1076C74.5461 71.6121 74.7691 72.1077 75.0835 72.4579C75.7123 73.1612 76.6743 73.4491 77.5449 73.4639C78.5472 73.4817 79.6758 72.9891 79.7591 71.7279C79.8021 71.0869 79.485 70.4548 79.0148 70.0987C78.515 69.7188 77.8271 69.7515 77.3407 70.1372C76.8167 70.5527 76.4835 71.2946 76.6555 72.0098C76.7603 72.446 77.1634 72.6953 77.5476 72.7606C77.9184 72.8229 78.2705 72.7665 78.601 72.5588C79.1223 72.2324 78.9745 71.3955 78.4397 71.2026C78.1872 71.1106 77.9346 71.0216 77.682 70.9296C77.3488 70.8079 76.9323 71.0691 76.8543 71.4489C76.771 71.8555 76.9645 72.2324 77.3246 72.3629C77.5772 72.4549 77.8298 72.544 78.0824 72.6359C78.0286 72.1849 77.9749 71.7308 77.9211 71.2798C77.854 71.3183 77.8566 71.3213 77.9319 71.2827C77.8969 71.2976 77.862 71.3065 77.8244 71.3154C77.8459 71.3124 77.8701 71.3094 77.8916 71.3065C77.854 71.3094 77.8163 71.3094 77.7814 71.3094C77.8593 71.3243 77.8728 71.3272 77.8217 71.3154C77.7948 71.3094 77.768 71.3035 77.7411 71.2916C77.8136 71.3302 77.8163 71.3332 77.7492 71.2946C77.7169 71.2738 77.6847 71.2531 77.6551 71.2263C77.7572 71.3747 77.862 71.5231 77.9641 71.6685C77.9292 71.5231 77.9534 71.6923 77.9588 71.7012C77.948 71.6804 77.9561 71.6181 77.9561 71.5914C77.9507 71.4311 77.9561 71.6299 77.9507 71.624C77.9453 71.6151 77.9722 71.535 77.9776 71.5172C77.991 71.4548 78.0313 71.4489 77.9695 71.5409C77.9883 71.5142 78.0071 71.4697 78.0206 71.443C78.0447 71.3955 78.0931 71.3747 78.0071 71.4578C78.0367 71.4281 78.0743 71.3925 78.0958 71.3569C78.1442 71.2827 78.0044 71.4014 78.0797 71.3688C78.1065 71.3569 78.1442 71.3332 78.1657 71.3124C78.2355 71.2471 78.0609 71.3629 78.1442 71.3243C78.1522 71.3213 78.2113 71.2976 78.2167 71.3035C78.0931 71.1848 78.1388 71.3777 78.1872 71.3094C78.2033 71.3094 78.2221 71.3094 78.2382 71.3094C78.2113 71.3035 78.1845 71.3005 78.1576 71.2946C78.171 71.2857 78.2301 71.3154 78.249 71.3183C78.3753 71.348 78.1522 71.2412 78.257 71.3243C78.2731 71.3391 78.3269 71.3629 78.3349 71.3807C78.3349 71.3807 78.2194 71.2531 78.3054 71.3629C78.3161 71.3777 78.3699 71.4222 78.3699 71.44C78.3699 71.4519 78.3027 71.3124 78.3349 71.3925C78.3457 71.4222 78.3672 71.4519 78.3833 71.4816C78.3994 71.5112 78.4209 71.6092 78.3994 71.5112C78.3726 71.3925 78.4397 71.6566 78.429 71.6715C78.4236 71.6834 78.429 71.5053 78.4182 71.627C78.4182 71.621 78.4183 71.7279 78.4156 71.7279C78.4102 71.7308 78.4451 71.5647 78.4156 71.6804C78.3914 71.7754 78.4424 71.6952 78.4344 71.6477C78.4451 71.713 78.2731 71.8495 78.4048 71.7219C78.3833 71.7427 78.3564 71.7753 78.3403 71.7991C78.2651 71.897 78.4102 71.7635 78.3484 71.7961C78.2946 71.8228 78.2328 71.8673 78.1818 71.9C78.1092 71.9475 78.292 71.8792 78.206 71.8851C78.1845 71.8851 78.1549 71.903 78.1361 71.9119C78.0716 71.9326 78.0044 71.9475 77.9399 71.9623C77.819 71.992 77.9426 71.9623 77.9668 71.9623C77.9158 71.9682 77.862 71.9742 77.811 71.9771C77.6793 71.986 77.5476 71.986 77.4186 71.9771C77.3515 71.9742 77.2816 71.9682 77.2144 71.9623C77.1902 71.9593 77.0827 71.9504 77.1822 71.9593C77.2897 71.9712 77.1472 71.9534 77.1257 71.9475C76.9914 71.9208 76.8597 71.8822 76.7281 71.8377C76.6609 71.8139 76.5964 71.7872 76.5319 71.7605C76.677 71.8169 76.4781 71.7308 76.4352 71.7071C76.3223 71.6448 76.2229 71.5676 76.1181 71.4934C76.2578 71.5884 76.1127 71.4875 76.0724 71.4459C76.0509 71.4222 76.0294 71.3985 76.0079 71.3747C75.9031 71.2471 76.0133 71.3658 76.0025 71.3747C75.9972 71.3807 75.9273 71.2204 75.9192 71.2145C75.93 71.2174 75.9568 71.3569 75.9488 71.2887C75.9461 71.262 75.938 71.2293 75.9273 71.2026C75.895 71.1165 75.9246 71.3599 75.9354 71.2679C75.938 71.2412 75.938 71.2056 75.9354 71.1759C75.9246 71.0869 75.8951 71.3183 75.93 71.2323C75.9434 71.1967 75.9515 71.1522 75.9622 71.1136C75.9273 71.2501 75.9407 71.1729 75.9622 71.1284C76.024 71.0127 75.9757 71.1017 75.9568 71.1254C76.0052 71.0602 76.0617 71.0038 76.1208 70.9474C76.0993 70.9682 76.0187 71.0246 76.1235 70.9474C76.1557 70.9237 76.1879 70.8999 76.2202 70.8762C76.2981 70.8198 76.3814 70.7693 76.462 70.7219C76.54 70.6744 76.6206 70.6328 76.7012 70.5913C76.771 70.5557 76.7066 70.5853 76.6931 70.5913C76.7334 70.5735 76.7764 70.5557 76.8167 70.5379C77.0021 70.4637 77.1956 70.4043 77.3918 70.3687C77.2708 70.3895 77.4697 70.3657 77.5046 70.3628C77.5906 70.3598 77.6766 70.3687 77.7626 70.3687C77.8674 70.3687 77.6739 70.342 77.776 70.3687C77.819 70.3806 77.862 70.3865 77.9023 70.3984C77.9426 70.4103 77.9829 70.4221 78.0206 70.437C78.0931 70.4637 78.1065 70.4844 78.0313 70.437C78.0931 70.4755 78.1549 70.5112 78.214 70.5527C78.2409 70.5705 78.3108 70.6388 78.206 70.5408C78.2328 70.5646 78.2597 70.5913 78.2866 70.618C78.3403 70.6714 78.3833 70.7308 78.4317 70.7871C78.4156 70.7664 78.3564 70.6625 78.4236 70.7753C78.4478 70.8168 78.472 70.8554 78.4935 70.8969C78.5284 70.9622 78.5607 71.0869 78.5257 70.9504C78.5445 71.0216 78.566 71.0928 78.5822 71.167C78.6198 71.3183 78.5795 71.1344 78.5795 71.1344C78.5875 71.1433 78.5822 71.2263 78.5822 71.2442C78.5822 71.259 78.5875 71.3361 78.5768 71.354C78.5902 71.259 78.5902 71.2382 78.5795 71.2946C78.5741 71.3213 78.5687 71.348 78.5607 71.3777C78.558 71.3896 78.5284 71.4786 78.5553 71.4014C78.5875 71.3124 78.5338 71.443 78.523 71.4638C78.515 71.4786 78.4451 71.6003 78.4881 71.532C78.5311 71.4638 78.4505 71.5795 78.4397 71.5914C78.3833 71.6596 78.3215 71.7249 78.257 71.7872C78.2409 71.8021 78.1334 71.8911 78.2087 71.8317C78.2839 71.7724 78.1576 71.8673 78.1442 71.8792C78.0824 71.9237 78.0206 71.9653 77.9534 72.0009C77.9104 72.0246 77.725 72.0988 77.862 72.0513C77.7921 72.0751 77.725 72.1048 77.6524 72.1285C77.6175 72.1404 77.5826 72.1493 77.5449 72.1582C77.5261 72.1641 77.373 72.1967 77.4751 72.176C77.5611 72.1582 77.4751 72.176 77.4563 72.176C77.4025 72.1789 77.3515 72.1849 77.2977 72.1849C77.2628 72.1849 77.2279 72.1819 77.1929 72.1819C77.0639 72.1789 77.2708 72.2056 77.1902 72.1849C77.1177 72.1641 77.0398 72.1374 76.9672 72.1196C77.0801 72.1463 77.0317 72.1552 76.986 72.1285C76.9484 72.1048 76.9108 72.084 76.8732 72.0573C76.8517 72.0424 76.7737 71.9653 76.8355 72.0306C76.9027 72.0988 76.8114 71.995 76.7952 71.9801C76.7092 71.9 76.8302 72.0068 76.8248 72.0276L76.7657 71.9148C76.7791 71.9208 76.8167 72.0929 76.7872 71.9712C76.7791 71.9356 76.7684 71.9 76.7603 71.8673C76.72 71.7101 76.763 72.0276 76.7576 71.8258C76.7576 71.7902 76.763 71.5736 76.7603 71.7041C76.7576 71.8258 76.7791 71.6299 76.7925 71.5854C76.8463 71.3955 76.7361 71.6804 76.8087 71.5409C76.814 71.529 76.8947 71.3747 76.9 71.3777C76.9511 71.4192 76.7872 71.4994 76.8678 71.4311C76.8758 71.4252 76.9376 71.345 76.9484 71.348C76.935 71.3599 76.9215 71.3718 76.9081 71.3807C76.8597 71.4222 76.8543 71.4252 76.8973 71.3925C76.9108 71.3925 77.0371 71.3183 76.9108 71.3777C76.7791 71.44 76.8947 71.3896 76.8973 71.3866C76.9081 71.3688 77.1419 71.345 76.8597 71.3866C76.8812 71.3836 76.9108 71.3836 76.9323 71.3866C76.8517 71.3777 76.7952 71.3569 76.9054 71.3925C77.244 71.4934 77.6524 71.2649 77.733 70.8732C77.8163 70.4934 77.6309 70.0838 77.2682 69.974Z" fill="white"/>
<path d="M72.6512 51.1534C73.5084 51.192 74.3683 51.2335 75.2255 51.2721C75.1529 50.6905 75.083 50.1058 75.0105 49.5242C74.2017 49.7942 73.5003 49.8002 72.6888 49.542C72.2132 49.3906 71.6301 49.8209 71.6677 50.3996C71.8424 53.0853 72.4282 58.2311 75.7817 57.8305C77.66 57.605 79.4281 57.1212 81.3413 57.1123C82.271 57.1094 83.1981 57.145 84.1278 57.1895C85.3343 57.2459 86.1405 57.4447 86.5462 58.8276C87.1401 60.8545 87.2126 62.9229 87.4007 65.018C87.4974 66.0953 87.8387 67.3624 88.9458 67.5969C89.9749 67.8135 90.6333 66.944 91.0175 66.0181C91.3454 65.2258 91.4663 64.3325 92.0789 63.7182C92.7964 62.9971 94.0593 62.9555 94.3522 64.1663C94.6183 65.2732 96.1741 64.8044 95.9081 63.6915C95.2524 60.9762 92.216 60.8367 90.7005 62.7419C90.3297 63.2078 90.0798 63.7449 89.8755 64.3177C89.6659 64.9023 89.3139 66.3297 89.0157 65.018C88.798 64.0565 88.9028 62.8813 88.7792 61.8902C88.6636 60.9732 88.5078 60.0681 88.3036 59.1719C87.9999 57.8483 87.6345 56.412 86.4199 55.7947C85.0361 55.0914 83.0825 55.3407 81.5993 55.3347C79.8285 55.3288 78.1087 55.5128 76.3755 55.8956C75.6366 56.0588 75.0965 56.3526 74.465 55.5009C74.1641 55.0973 74.0109 54.3732 73.8685 53.8866C73.5407 52.75 73.3633 51.5896 73.2854 50.4026C72.9441 50.6875 72.6055 50.9753 72.2643 51.2602C73.3499 51.6074 74.3602 51.6045 75.4431 51.2424C76.3218 50.9486 76.1391 49.5361 75.2282 49.4945C74.371 49.4559 73.5111 49.4144 72.6539 49.3758C71.614 49.3254 71.6167 51.1059 72.6512 51.1534Z" fill="#21212E"/>
<path d="M97.7923 62.371C96.962 57.8513 95.7313 52.7649 91.7974 50.3374C89.774 49.088 87.447 48.9456 85.1844 48.8803C82.6639 48.8061 80.1435 48.7497 77.623 48.6844C75.6667 48.634 73.1274 48.1473 72.2703 50.6519C71.6764 52.385 72.4449 54.4238 73.8906 55.3022C75.8333 56.4803 78.327 55.6435 80.4148 55.5396C83.0482 55.409 85.6816 55.5633 88.3095 55.7147C88.3095 54.4297 88.3095 53.1418 88.3095 51.8568C83.8033 52.1239 79.2997 52.391 74.7934 52.658C74.7934 53.943 74.7934 55.231 74.7934 56.5159C78.2947 56.3023 81.796 56.0886 85.2973 55.8749C85.8052 55.8452 86.6597 55.6049 86.9633 55.9313C87.3771 56.3735 87.5303 57.4478 87.6915 58.0413C88.1833 59.8663 88.3337 61.6974 88.2477 63.5937C89.4113 63.5937 90.5775 63.5937 91.741 63.5937C91.87 60.635 91.9962 57.6792 92.1252 54.7205C91.0396 55.044 89.954 55.3704 88.8711 55.6939C89.9594 57.3825 90.7333 59.1601 91.2116 61.1662C91.784 63.564 95.1536 62.5491 94.5812 60.1394C94.0331 57.8365 93.1383 55.685 91.8888 53.7442C90.8945 52.201 88.7207 52.7233 88.6347 54.7176C88.5057 57.6763 88.3794 60.632 88.2504 63.5907C88.1429 66.0746 91.6308 66.0657 91.7437 63.5907C91.8484 61.2908 91.6174 58.9583 90.994 56.7563C90.4888 54.9668 89.8036 52.6788 87.9817 52.1001C87.1138 51.8242 86.1867 51.9577 85.3027 52.0111C84.0774 52.0853 82.852 52.1595 81.6267 52.2366C79.3508 52.3761 77.0748 52.5156 74.7988 52.6551C72.5631 52.7916 72.547 56.6465 74.7988 56.513C79.3051 56.2459 83.8087 55.9788 88.3149 55.7117C90.5613 55.5782 90.5667 51.9844 88.3149 51.8538C84.6497 51.6402 81.0409 51.5452 77.3865 51.9666C77.1097 51.9992 76.8303 52.0378 76.5535 52.0467C76.3842 52.0527 75.5996 51.839 75.4786 51.8687C75.5566 51.8509 75.6023 51.8123 75.5485 51.8568C74.6886 52.5571 75.5458 52.385 75.8038 52.4948C76.4648 52.7768 77.6955 52.5453 78.4103 52.5631C79.3669 52.5868 80.3235 52.6135 81.2801 52.6373C84.1848 52.7115 88.2397 52.0675 90.7064 54.1359C93.2404 56.2607 93.8396 60.1779 94.4307 63.3948C94.8687 65.8283 98.2384 64.7985 97.7923 62.371Z" fill="#21212E"/>
<path d="M93.4325 73.921C94.7196 70.7902 96.0067 67.6565 97.2938 64.5256C98.1456 62.4543 95.3672 60.6411 94.51 62.7273C93.2229 65.8581 91.9357 68.9919 90.6486 72.1227C89.7968 74.1941 92.5753 76.0072 93.4325 73.921Z" fill="#21212E"/>
<path d="M94.2017 66.5761C94.0915 66.0152 94.1184 66.8491 94.1909 66.2763C94.1452 66.6443 94.1936 66.2734 94.2312 66.1013C94.3199 65.6977 94.0109 66.5731 94.293 65.9113C94.4731 65.4899 94.1587 66.0093 94.4704 65.6442C93.1967 64.8252 91.9257 64.0091 90.652 63.1901C90.4236 64.4157 90.0313 65.3772 89.4347 66.1458C88.634 67.1815 88.5157 68.6979 89.4347 69.7128C90.2543 70.6179 91.8585 70.7544 92.6646 69.7128C93.8309 68.2082 94.6907 66.4841 95.0562 64.5284C95.255 63.466 94.9353 62.2226 94.0055 61.6795C93.1215 61.1632 91.9526 61.2403 91.2378 62.0742C89.8647 63.6738 89.3729 65.7659 89.7948 67.9115C90.0501 69.2024 91.4743 70.0778 92.6055 69.6742C93.8362 69.238 94.4731 67.959 94.2017 66.5761Z" fill="#DC7A4A"/>
<path d="M79.6003 84.3044C82.4271 84.251 85.2567 84.2243 88.0835 84.1472C89.4136 84.1116 90.569 83.8 91.4155 82.5803C92.2055 81.4407 92.7348 79.9925 93.3421 78.7224C94.7475 75.7904 91.1172 73.6122 89.3975 76.1762C88.3844 77.6867 86.7319 78.4642 85.0659 78.485C82.1289 78.5236 82.1208 83.5685 85.0659 83.5299C88.4624 83.4854 91.3429 81.7048 93.3421 78.7224C92.0281 77.8737 90.7115 77.0249 89.3975 76.1762C89.0132 76.9804 88.2635 78.031 88.0862 78.9094C87.718 79.4643 87.804 79.5266 88.3414 79.0963C88.1695 79.0993 87.9975 79.1023 87.8282 79.1052C87.2827 78.9865 86.5868 79.129 86.0278 79.1379C83.8862 79.1764 81.7419 79.218 79.6003 79.2566C76.6633 79.313 76.6552 84.3579 79.6003 84.3044Z" fill="#C9C9CB"/>
<path d="M90.5343 81.6101C92.5765 82.7823 94.2855 84.3967 95.5511 86.5304C96.2094 85.2662 96.8651 83.999 97.5234 82.7348C90.4859 82.8714 83.4484 83.0108 76.4082 83.1473C77.1417 84.2127 77.8753 85.2751 78.6116 86.3405C78.9287 85.2247 79.5521 84.4561 80.463 83.8863C83.0211 82.2867 80.721 77.9274 78.1575 79.5299C76.2093 80.7466 74.8738 82.6518 74.2047 84.9991C73.7614 86.5512 74.9625 88.219 76.4082 88.1922C83.4457 88.0557 90.4832 87.9163 97.5234 87.7798C99.176 87.7471 100.474 85.6312 99.4957 83.9842C97.8109 81.1442 95.5753 78.8236 92.8398 77.2567C90.2333 75.761 87.9224 80.1115 90.5343 81.6101Z" fill="#C9C9CB"/>
<path d="M34.5417 73.1958C36.8177 77.3801 41.2649 78.5078 45.4138 78.1636C47.9853 77.9499 48.0041 73.4955 45.4138 73.7122C42.7723 73.9318 39.5371 73.7329 38.0215 70.9494C36.6887 68.4981 33.2009 70.7327 34.5417 73.1958Z" fill="#ECFCEF"/>
<path d="M34.5546 78.0388C36.2529 78.4662 37.8302 79.2912 39.507 79.7986C40.2889 80.036 41.1004 80.1992 41.9092 80.2527C42.1457 80.2675 42.804 80.131 42.9276 80.1785C43.019 80.2141 43.3898 80.6592 43.5645 80.8254C44.6635 81.8759 46.0393 82.2647 47.442 82.4902C48.2373 82.6178 50.3924 82.6 50.5294 83.6891C50.5294 83.2944 50.5294 82.8998 50.5294 82.5051C50.6154 81.9472 51.8139 81.965 50.5885 81.9086C50.2392 81.8937 49.8899 81.87 49.5406 81.8522C48.7533 81.8106 47.9686 81.7661 47.1813 81.7246C45.5207 81.6356 43.8601 81.5436 42.1994 81.4545C40.6275 81.3685 39.0528 81.2824 37.4809 81.1993C37.2149 81.1845 36.6774 81.042 36.4329 81.1429C35.9062 81.0539 36.0352 81.2557 36.8199 81.7483C36.7742 81.5881 36.7285 81.4278 36.6828 81.2676C36.6237 80.4366 36.5108 79.7185 36.6076 78.8638C35.5972 79.5048 34.5869 80.1458 33.5739 80.7868C37.1638 83.1253 41.1246 84.434 45.2762 84.7456C45.2762 83.2618 45.2762 81.778 45.2762 80.2942C41.9845 80.1666 38.6928 80.039 35.4011 79.9144C32.808 79.8135 32.8107 84.2648 35.4011 84.3657C38.6928 84.4933 41.9845 84.621 45.2762 84.7456C47.8853 84.8465 47.8423 80.4871 45.2762 80.2942C41.8394 80.036 38.5718 78.8727 35.608 76.9438C34.165 76.0031 32.757 77.2584 32.5742 78.8668C32.3378 80.9827 32.6253 84.0838 34.56 85.17C35.651 85.7813 37.0751 85.6299 38.2655 85.6952C39.4881 85.7605 40.7135 85.8288 41.9361 85.8941C44.384 86.0276 46.8293 86.1582 49.2772 86.2917C51.3356 86.4045 53.9152 86.5232 54.4177 83.6891C54.8315 81.3477 53.0472 79.5345 51.2254 78.8074C49.7502 78.2199 47.9014 78.5166 46.5203 77.7124C45.8485 77.3207 45.4857 76.5046 44.7871 76.1099C43.7848 75.5461 42.7637 75.9318 41.7104 75.7924C39.6171 75.5164 37.677 74.27 35.6322 73.7536C33.1009 73.1097 32.0234 77.4008 34.5546 78.0388Z" fill="#43B3E7"/>
<path d="M45.7386 60.0729C46.2949 61.3994 47.1682 62.8595 47.3885 64.3018C47.3885 63.8537 47.3885 63.4085 47.3885 62.9604C47.4476 62.6162 48.9121 62.1028 48.8207 62.4144C48.8315 62.3758 48.7455 62.2808 48.767 62.2422C48.8772 62.0523 48.5547 61.0226 48.5171 60.7406C48.3317 59.4319 48.0092 58.2568 47.273 57.1944C46.0342 55.4049 44.0511 54.4078 42.0089 54.6155C37.3898 55.0874 34.9876 59.7584 34.3534 64.37C34.0121 66.8509 33.593 69.5366 35.8555 71.056C37.7902 72.3558 40.2677 73.166 42.4523 73.7744C44.774 74.4183 47.007 73.804 47.625 70.9611C47.8856 69.7592 47.9877 68.4772 48.149 67.2545C48.3075 66.0437 48.415 64.9072 47.9958 63.7409C46.9935 60.9602 44.0135 60.6991 42.0493 62.3669C40.0742 64.0436 39.2547 67.1329 39.5368 69.7889C39.7545 71.8454 41.923 73.261 43.4358 71.5724C45.8515 68.8748 46.0396 63.7498 44.1774 60.5774C43.0059 58.5832 40.5767 57.9066 39.0048 59.794C37.5725 61.5122 37.3576 64.0109 37.6988 66.201C37.8977 67.4771 39.432 68.3911 40.5095 67.9638C42.6673 67.1091 44.2366 65.3998 44.8385 62.9218C45.5102 60.159 41.9982 58.509 40.6627 60.9781C40.3241 61.6012 40.0205 62.447 39.6174 63.002C39.9533 62.7853 40.2892 62.5687 40.6251 62.3521C40.5687 62.3699 40.5122 62.3877 40.4558 62.4055C41.3157 62.7913 42.1755 63.177 43.0354 63.5658C43.0166 63.5361 42.9978 63.5035 42.979 63.4738C43.0569 64.1207 43.1322 64.7706 43.2101 65.4176C43.2235 65.379 43.237 65.3434 43.2504 65.3048C42.5168 65.9221 41.7832 66.5393 41.047 67.1566C41.0712 67.1596 41.098 67.1625 41.1222 67.1655C42.3502 67.3139 43.4062 65.9013 43.4062 64.643C43.4062 63.1563 42.3529 62.269 41.1222 62.1206C41.098 62.1176 41.0712 62.1146 41.047 62.1117C39.9883 61.9841 39.1821 63.002 38.8435 63.9635C38.6098 64.6341 38.7307 65.5185 39.0908 66.115C39.6524 67.0409 40.6573 67.5988 41.6704 67.2753C43.2181 66.7767 43.8442 64.9368 44.6074 63.5272C43.2155 62.8803 41.8235 62.2304 40.4316 61.5834C40.2596 62.2868 39.9399 62.8447 39.2923 63.1029C40.2301 63.6904 41.1652 64.278 42.103 64.8656C42.0493 64.5273 42.0734 64.1682 42.1487 63.8359C42.2454 63.4204 42.7506 63.0613 42.2266 63.3788C41.8424 63.4946 41.4581 63.6073 41.0738 63.7231C41.0819 63.7231 41.09 63.7201 41.098 63.7201C40.7621 63.5035 40.4262 63.2868 40.0904 63.0702C41.0308 63.916 41.1679 66.9311 40.2059 68.0053C41.5065 68.5989 42.8043 69.1953 44.1049 69.7889C44.0108 68.8926 44.0028 68.0113 44.3279 67.1625C44.6799 66.2455 45.263 66.4622 44.3548 65.8479C43.2128 65.0763 43.9598 65.3701 43.7421 65.9102C43.5782 66.3197 43.5702 67.1477 43.5084 67.5899C43.4304 68.1507 43.3713 68.7146 43.2746 69.2695C43.2558 69.3853 43.237 69.498 43.2208 69.6138C43.1187 70.0559 43.116 70.0708 43.2155 69.6524C43.5513 69.4357 43.8872 69.2191 44.2231 69.0024C43.675 69.1983 42.2884 68.4801 41.7537 68.2873C40.9637 68.0053 40.179 67.6967 39.4132 67.3436C39.3407 67.3109 38.3491 66.7441 38.2981 66.7856C38.5077 67.5483 38.6125 67.7026 38.6098 67.2456C38.6232 67.0082 38.6447 66.7708 38.6716 66.5334C38.7441 65.7559 38.8462 64.9813 39.0021 64.2157C39.303 62.7467 39.7652 61.2095 40.9046 60.2777C41.7107 59.6159 42.9682 59.2153 43.6669 60.2569C44.0968 60.895 44.0592 61.8535 44.1748 62.6102C44.3037 63.4471 44.5187 64.2751 44.9245 65.0081C45.779 66.5512 47.2945 67.5335 48.9524 67.1952C50.691 66.8391 51.9512 65.284 51.8303 63.2898C51.7121 61.352 50.4088 59.2628 49.6779 57.5208C49.1593 56.2833 47.5444 55.9747 46.5528 56.6157C45.4108 57.3635 45.22 58.8325 45.7386 60.0729Z" fill="#F5909F"/>
<path d="M50.1639 48.3899C43.645 43.4132 32.5096 43.1076 29.097 52.4169C28.3608 54.423 29.8978 56.8179 31.631 57.3461C33.7054 57.9752 35.3553 56.5627 36.0942 54.5477C35.8739 55.1501 36.3549 54.2212 36.113 54.5506C35.8927 54.8533 36.5188 54.0758 36.508 54.0877C36.6585 53.9126 36.9057 53.7613 36.5967 53.9927C36.8439 53.8087 37.1046 53.6485 37.3679 53.4971C37.8865 53.1974 36.6585 53.696 37.6742 53.3577C37.908 53.2775 38.1418 53.1944 38.3809 53.1292C38.4616 53.1054 39.3725 52.9036 38.9855 52.9719C38.6389 53.0312 39.6089 52.9274 39.5955 52.9274C42.0999 52.8176 44.3597 53.6782 46.5067 55.3163C48.119 56.5478 50.5347 55.6457 51.4698 53.88C52.5204 51.8828 51.7815 49.6244 50.1639 48.3899Z" fill="#F1B300"/>
<path d="M44.7799 47.3777C40.4994 47.2768 36.3747 48.3926 32.5509 50.4877C34.2062 52.3157 35.8588 54.1408 37.514 55.9688C37.7881 55.4881 38.1562 55.2863 38.785 55.1231C39.7954 54.859 38.2422 55.043 39.4944 54.9984C39.9996 54.9806 40.5236 54.9806 41.0234 55.0459C43.4659 55.3545 45.9219 56.2033 48.3161 56.8027C50.2267 57.2805 52.242 56.1588 52.7794 54.0043C53.2819 51.9893 52.1641 49.5559 50.2455 49.0751C43.9147 47.4964 35.5363 44.4486 31.2477 51.927C30.3905 53.4197 30.7076 55.5593 31.8147 56.782C33.0051 58.0966 34.757 58.2064 36.2108 57.4081C38.9328 55.9184 41.7865 55.3219 44.7799 55.3931C46.7388 55.4406 48.4075 53.5176 48.4075 51.3869C48.4075 49.1731 46.7469 47.4251 44.7799 47.3777Z" fill="#F1B300"/>
<path d="M33.5852 50.6425C29.036 53.2955 26.8003 59.3435 28.0794 64.7831C28.5711 66.8782 30.6724 68.1484 32.5426 67.5816C34.4612 66.9999 35.571 64.7534 35.0766 62.6524C34.6198 60.7056 35.3319 58.6788 37.2504 57.563C38.9836 56.554 39.5103 53.892 38.551 52.0818C37.5245 50.144 35.3238 49.6306 33.5852 50.6425Z" fill="#F1B300"/>
<path d="M30.748 51.9455C27.9669 54.7914 26.6179 58.7116 26.6126 62.8573C26.6099 64.6171 26.7792 66.3354 26.3654 68.0269C26.1961 68.7243 25.9811 69.4187 25.7258 70.0864C25.5377 70.582 25.3174 71.0687 25.1051 71.5524C25.0326 71.7126 24.9627 71.8758 24.8901 72.0361C24.5113 72.775 24.6295 72.6979 25.2502 71.8046C25.8602 71.6236 26.4702 71.4396 27.0801 71.2586C26.9968 71.2616 26.9108 71.2616 26.8275 71.2645C27.682 71.6562 28.5365 72.048 29.3937 72.4367C29.3346 72.3685 29.2755 72.3032 29.2137 72.2349C25.9354 68.5521 20.8057 74.2173 24.084 77.9001C26.4352 80.5442 29.7887 78.9862 31.1538 76.0809C32.1749 73.9057 33.1584 71.5405 33.5802 69.1219C34.0263 66.5609 33.591 64.0266 33.9107 61.4833C34.1096 59.8868 34.784 58.7324 35.8777 57.6136C37.3153 56.1417 37.2266 53.4382 35.8777 51.9485C34.4455 50.3638 32.1883 50.4706 30.748 51.9455Z" fill="#F1B300"/>
<path d="M25.2897 64.9548C22.3877 68.9432 19.8511 73.4332 19.1658 78.5849C18.435 84.0809 19.98 92.4822 26.6145 91.5207C31.9591 90.7461 34.3184 84.0156 34.8424 78.852C35.361 73.7567 34.0712 68.6821 32.1607 64.0912C31.3411 62.1267 28.7695 61.637 27.1976 62.6549C25.3704 63.836 25.0748 66.1626 25.897 68.136C26.9611 70.6941 27.7135 73.908 27.7054 76.748C27.7001 78.3297 27.6033 79.1488 27.1385 80.7305C27.0417 81.054 25.6579 83.9474 25.5047 83.7189C25.3892 83.5468 26.4774 83.9563 26.5151 83.9652C26.6951 84.0097 26.6252 84.2887 26.4882 83.7812C26.3888 83.4103 26.3055 83.0274 26.249 82.6476C26.0905 81.5496 26.198 80.0895 26.4828 78.8224C27.1492 75.8577 28.697 72.9881 30.4194 70.6199C31.6447 68.9343 31.9108 66.6018 30.4194 64.9548C29.1511 63.5541 26.5231 63.2603 25.2897 64.9548Z" fill="#F1B300"/>
<path d="M22.5382 84.526C22.7478 84.8347 22.9574 85.1403 23.1643 85.449C24.4971 87.4105 27.1171 88.3305 28.861 86.2591C31.9189 82.6297 32.682 77.4869 33.6198 72.81C34.6759 67.5455 35.4309 62.1059 34.8478 56.7167C34.6141 54.5682 33.3458 52.7104 31.2203 52.7104C29.4414 52.7104 27.3589 54.5533 27.5927 56.7167C28.0817 61.2453 27.6007 65.6848 26.7355 70.1154C26.3163 72.2639 25.8541 74.4095 25.349 76.5373C25.1743 77.2703 24.8975 78.3683 24.704 78.8728C24.4971 79.4158 24.0215 80.2468 23.7313 80.591C25.6311 80.8611 27.5309 81.1311 29.428 81.4012C29.2184 81.0925 29.0088 80.7869 28.8019 80.4782C27.6276 78.7511 25.6687 77.8579 23.8388 79.0419C22.2991 80.042 21.3559 82.787 22.5382 84.526Z" fill="#F1B300"/>
<path d="M30.7034 52.6899C28.0297 56.5537 29.169 61.379 29.8086 65.7265C30.0746 67.5368 29.9698 68.8099 29.212 69.9939C28.6477 70.8723 27.1967 72.1217 26.2347 72.8903C24.6493 74.1575 23.8754 76.3743 24.9342 78.3714C25.8478 80.0986 28.3011 81.0838 29.8972 79.8078C33.506 76.9203 36.7386 73.7361 37.1604 68.5279C37.37 65.9432 36.7224 63.4088 36.3355 60.8834C36.1044 59.37 36.0587 58.0523 36.9697 56.7347C38.16 55.0135 37.2115 52.2507 35.6691 51.2536C33.8016 50.0458 31.8964 50.9628 30.7034 52.6899Z" fill="#F1B300"/>
<path d="M46.9513 46.1792C43.4178 43.8051 39.8359 42.5735 35.6951 43.2976C32.1991 43.9089 28.9021 46.1524 27.048 49.5207C24.7693 53.6634 25.1213 58.5451 25.5378 63.1479C25.7098 65.0293 25.8791 67.0087 25.6184 68.8931C25.7071 68.2521 25.4814 69.4867 25.4733 69.5193C25.382 69.9229 25.2772 70.3384 25.1374 70.7271C25.347 70.1484 24.9037 71.1544 24.8526 71.2642C24.6081 71.656 24.5758 71.7242 24.7586 71.4631C24.592 71.6767 24.4146 71.8815 24.2292 72.0744C20.8972 75.6978 26.0295 81.363 29.3589 77.7395C31.9895 74.8758 32.9354 70.9081 32.9811 66.9256C33.0214 63.415 32.0836 59.385 32.5082 56.18C32.6183 55.3461 32.8387 54.5062 33.1369 53.8949C33.1746 53.8177 33.6475 52.9868 33.4164 53.3518C33.2337 53.6367 33.8221 52.8741 33.9054 52.7672C34.0237 52.6337 34.1473 52.509 34.2763 52.3874C34.0237 52.5862 33.9995 52.604 34.2064 52.4408C34.4375 52.2598 34.674 52.0936 34.9212 51.9393C35.0528 51.8562 35.8617 51.4318 35.2866 51.6959C35.6037 51.5505 35.9342 51.4377 36.2647 51.3339C36.5979 51.23 36.9365 51.1499 37.2778 51.0816C36.5576 51.227 37.6217 51.0609 37.6996 51.0579C38.049 51.0401 38.401 51.0401 38.7476 51.0609C38.8309 51.0668 39.8789 51.2448 39.1722 51.0935C39.5161 51.1677 39.8547 51.2478 40.1906 51.3546C40.3222 51.3962 41.26 51.7523 40.6286 51.4733C41.561 51.8829 42.4343 52.5239 43.2861 53.0966C44.9602 54.2213 47.2738 53.5032 48.2492 51.6603C49.2595 49.7581 48.6308 47.3068 46.9513 46.1792Z" fill="#F1B300"/>
<path d="M46.7789 68.0589C46.6983 68.0381 46.6203 68.0114 46.5397 67.9818C46.4994 67.9669 46.4591 67.9491 46.4215 67.9313C46.5236 67.9788 46.4242 67.9283 46.4054 67.9194C46.2307 67.8156 46.0561 67.7147 45.8895 67.5989C45.5912 67.3912 45.3037 67.1627 45.0027 66.9579C44.3202 66.4979 43.5463 66.216 42.7805 66.6107C41.9985 67.0113 41.7137 67.958 41.8561 68.8483C41.9932 69.6911 42.5225 70.4419 43.2319 70.7802C44.3121 71.2906 45.4891 71.0147 46.5773 70.6941C46.9938 70.5725 47.2008 70.0146 46.9777 69.605C46.5666 68.8453 45.9593 68.2014 45.2338 67.8126C44.5056 67.4209 43.2212 66.9609 42.7644 68.0203C42.5655 68.4803 42.6273 69.0382 42.9041 69.4418C43.1782 69.8424 43.6027 70.0383 44.0434 70.1095C44.5244 70.1867 45.0538 70.252 45.4891 69.9552C45.8733 69.6941 46.0856 69.2341 46.1098 68.7415C46.1555 67.7562 45.4783 67.0499 44.6722 66.7917C43.9413 66.5573 42.9847 66.4712 42.2941 66.8956C41.5095 67.3764 41.3133 68.4417 41.7406 69.2727C42.1168 70.0027 42.8181 70.5161 43.5033 70.8336C44.8657 71.4657 46.9589 71.8842 47.843 70.1837C48.023 69.8365 47.9155 69.3706 47.6011 69.1688C47.2894 68.967 46.8622 69.0857 46.6821 69.4359C46.6526 69.4952 46.6203 69.5516 46.5854 69.605C46.6633 69.4893 46.5854 69.6021 46.5585 69.6258C46.5236 69.6585 46.4914 69.697 46.4537 69.7297C46.5612 69.6347 46.4618 69.7208 46.4296 69.7356C46.3893 69.7594 46.3489 69.7861 46.306 69.8098C46.443 69.7326 46.2818 69.8157 46.2549 69.8246C46.2173 69.8365 46.1823 69.8484 46.1447 69.8602C46.1232 69.8662 45.9217 69.9048 46.0023 69.8929C46.1044 69.8781 45.9083 69.8988 45.9109 69.8988C45.8491 69.9018 45.7873 69.9048 45.7255 69.9048C45.6181 69.9048 45.5133 69.8988 45.4058 69.887C45.3628 69.881 45.3198 69.8781 45.2768 69.8721C45.4192 69.8929 45.2042 69.8543 45.1935 69.8543C45.0618 69.8276 44.9328 69.795 44.8039 69.7594C44.5916 69.7 44.382 69.6258 44.1778 69.5427C44.1294 69.5219 44.0783 69.5012 44.03 69.4804C43.9171 69.4329 44.1724 69.5605 43.9762 69.4537C43.8473 69.3854 43.7236 69.3142 43.6027 69.2341C43.377 69.0827 43.2937 69.0145 43.1191 68.8246C43.0707 68.7711 43.025 68.7177 42.982 68.6613C43.0008 68.6851 43.0384 68.7622 42.9686 68.6406C42.9363 68.5842 42.9041 68.5248 42.8745 68.4655C42.7778 68.2815 42.9256 68.5901 42.8557 68.4032C42.7993 68.2518 42.8342 68.5189 42.8477 68.3586C42.8503 68.3112 42.8718 68.2399 42.8396 68.3735C42.8477 68.3379 42.8611 68.1628 42.853 68.3112C42.8557 68.2666 42.9014 68.2221 42.8584 68.2844C42.8718 68.2666 43.0196 68.142 42.9175 68.2132C42.9095 68.2192 43.0895 68.1183 43.0116 68.1539C42.9713 68.1717 43.3233 68.0916 43.2131 68.1034C43.4308 68.0827 43.7317 68.1034 43.8956 68.1272C44.0918 68.1568 44.4062 68.237 44.5566 68.3349C44.6695 68.4061 44.6668 68.4002 44.7447 68.51C44.6883 68.4328 44.7447 68.4862 44.7394 68.5219C44.7474 68.5426 44.7582 68.5604 44.7662 68.5812C44.7367 68.507 44.734 68.51 44.7582 68.5901C44.7394 68.6702 44.7689 68.6584 44.7636 68.5871C44.7662 68.6228 44.7474 68.8186 44.777 68.6465C44.7689 68.688 44.7609 68.7266 44.7501 68.7682C44.7851 68.6851 44.7824 68.6821 44.7474 68.7563C44.7985 68.688 44.7958 68.6821 44.7447 68.7444C44.7447 68.7771 44.7824 68.694 44.7985 68.694C44.5459 68.691 44.9167 68.7326 44.6561 68.7058C44.5889 68.6999 44.519 68.6969 44.4519 68.691C44.433 68.688 44.2718 68.6702 44.3659 68.6851C44.2503 68.6673 44.1079 68.6435 44.0031 68.5901C44.0945 68.6376 43.9037 68.5219 43.987 68.5753C43.9091 68.5248 43.9735 68.5575 44.0058 68.6376C44.0004 68.6168 43.995 68.596 43.9897 68.5753C43.995 68.6584 43.995 68.6702 43.995 68.6168C43.995 68.5604 43.9924 68.5753 43.9843 68.6613C43.9682 68.7088 43.944 68.7474 43.9091 68.78C43.8929 68.7949 43.8768 68.8067 43.858 68.8216C43.7344 68.8483 43.7102 68.8602 43.7881 68.8572C43.8069 68.872 43.8956 68.8691 43.9574 68.8839C44.2611 68.9581 44.4492 69.0323 44.6937 69.1777C45.1854 69.4715 45.5482 69.8543 45.8223 70.3618C45.9566 69.9997 46.091 69.6347 46.2227 69.2727C45.5374 69.4745 44.7689 69.7119 44.1052 69.5516C43.9521 69.516 43.8016 69.4656 43.678 69.3884C43.6565 69.3736 43.5248 69.2816 43.5812 69.3261C43.6484 69.3795 43.5544 69.2994 43.5382 69.2845C43.5114 69.2549 43.4818 69.2281 43.4576 69.1955C43.4308 69.1658 43.326 69.0056 43.3985 69.1243C43.3663 69.0709 43.334 69.0174 43.3045 68.964C43.2856 68.9284 43.2131 68.7622 43.2373 68.8246C43.2668 68.9047 43.2319 68.8067 43.2292 68.7949C43.2158 68.7444 43.1997 68.6969 43.1862 68.6465C43.1809 68.6198 43.1459 68.4417 43.1594 68.5337C43.1728 68.6257 43.154 68.4239 43.154 68.3913C43.154 68.3319 43.1567 68.2726 43.162 68.2132C43.1459 68.3972 43.1809 68.1806 43.1943 68.1301C43.162 68.2666 43.1997 68.139 43.2238 68.0767C43.2534 68.0085 43.1997 68.1005 43.1943 68.1123C43.2158 68.0827 43.2427 68.0559 43.2642 68.0263C43.3313 67.9343 43.1997 68.05 43.2991 67.9936C43.326 67.9788 43.3528 67.961 43.377 67.9432C43.4415 67.8987 43.283 67.9639 43.3985 67.9313C43.463 67.9135 43.5517 67.8957 43.4308 67.9076C43.4899 67.9016 43.557 67.9135 43.6162 67.9016C43.6833 67.8898 43.5866 67.8957 43.5705 67.8898C43.6054 67.8957 43.6403 67.9046 43.6753 67.9135C43.7478 67.9313 43.8177 67.961 43.8876 67.9847C44.0058 68.0292 43.8311 67.9461 43.9413 68.0114C44.0031 68.05 44.0676 68.0827 44.1294 68.1212C44.2584 68.2014 44.3847 68.2874 44.511 68.3794C45.1156 68.8127 45.704 69.3023 46.4161 69.4952C46.7681 69.5902 47.1443 69.3706 47.2438 68.9759C47.3405 68.5901 47.1309 68.1539 46.7789 68.0589Z" fill="white"/>
<defs>
<clipPath id="clip0">
<rect width="101" height="48.6003" fill="white" transform="translate(11 21)"/>
</clipPath>
</defs>
</svg>
