<svg id="レイヤー_1" data-name="レイヤー 1" xmlns="http://www.w3.org/2000/svg" viewBox="0 0 335.75 62.4"><defs><style>.cls-1{fill:#fff;}</style></defs><path class="cls-1" d="M68.66,9.88c.11-6.79-6-11.34-12-9.45A77.07,77.07,0,0,1,38.75,3.74,72.43,72.43,0,0,1,18.67,2.18C14.86,1.49,11.1-.57,7.16.22-.68,1.93-2.51,12.08,3.81,16.88A74.2,74.2,0,0,1,25.5,56c2.38,8.32,14.89,8.72,17.56.06A79.21,79.21,0,0,1,47.8,41,72.86,72.86,0,0,1,64.38,17.26C66.4,15.52,68.74,12.4,68.66,9.88Zm107.56,2.75c-.18,12.34-.1,24.78-.05,37.14,2.63.25,5.49,0,8.24.09.08-10.23,0-20.14-.35-30.4,4.76,10.2,10.28,20,15.47,30a.78.78,0,0,0,.82.44c3.88,0,7.78.07,11.66,0V12.67a71.76,71.76,0,0,0-8.23.07c-.09,10.06.07,20.14.34,30.2-4.75-10.37-10.38-20.24-15.67-30.31Zm46.47,37.23h29.36V43.29c-6.9,0-13.77,0-20.66,0a90.79,90.79,0,0,1,.05-9.09c6.23,0,12.49.06,18.71,0V27.61H231.38a83.15,83.15,0,0,1,.06-8.41c6.68,0,13.39,0,20.07,0V12.65H222.69Zm-77.28-6.59V34.19c6.29,0,12.55,0,18.83,0V27.64c-6.29,0-12.55.05-18.84,0V19.2c6.74,0,13.44.05,20.17,0a46.52,46.52,0,0,0,0-6.53H136.79V49.87h29.28a42.42,42.42,0,0,0-.06-6.6Zm141-6.74c-2.46,12-21.4,8.84-18.68-8.31.27-10.83,16.38-14.44,18.69-3h8.66c-1.95-20.62-36.27-17.08-36.32,3.1-3.64,26.73,34.41,29.47,36.47,8.25Zm-171,13.35c4.32-12.43,8.63-24.81,12.94-37.23h-8.82c-3.4,9.92-6.9,19.54-9.55,29.72-2.57-10-6.05-19.63-9.4-29.37-.68-1-8.39-.19-8.91-.26l12.91,37.14ZM314,19.18V49.86h8.65c0-10.23-.07-20.45,0-30.69h13.06V12.64H300.89v6.54Z"/><path class="cls-1" d="M68.66,9.88c.07,2.52-2.26,5.64-4.28,7.38A72.86,72.86,0,0,0,47.8,41a79.21,79.21,0,0,0-4.74,15.07C40.39,64.7,27.88,64.34,25.5,56A74.2,74.2,0,0,0,3.81,16.88C-2.49,12.08-.7,1.92,7.16.22c3.94-.79,7.7,1.27,11.51,2A72.43,72.43,0,0,0,38.75,3.74,77.07,77.07,0,0,0,56.61.43C62.69-1.46,68.77,3.09,68.66,9.88Z"/><path class="cls-1" d="M176.22,12.63h12.23c5.29,10.07,10.92,19.94,15.67,30.31-.27-10.06-.43-20.14-.34-30.2a71.76,71.76,0,0,1,8.23-.07V49.86c-3.88.12-7.78,0-11.66,0a.78.78,0,0,1-.82-.44c-5.19-10-10.71-19.81-15.47-30,.31,10.26.43,20.17.35,30.4-2.75-.09-5.61.16-8.24-.09C176.12,37.41,176,25,176.22,12.63Z"/><path class="cls-1" d="M222.69,49.86V12.65h28.82v6.52c-6.68.07-13.39,0-20.07,0a83.15,83.15,0,0,0-.06,8.41h18.77v6.55c-6.22.09-12.48,0-18.71,0a90.79,90.79,0,0,0-.05,9.09c6.89,0,13.76,0,20.66,0v6.57Z"/><path class="cls-1" d="M145.41,43.27H166a42.42,42.42,0,0,1,.06,6.6H136.79V12.64h28.73a46.52,46.52,0,0,1,0,6.53c-6.73.08-13.43,0-20.17,0v8.41c6.29.08,12.55,0,18.84,0v6.53c-6.28.06-12.54,0-18.83,0Z"/><path class="cls-1" d="M286.4,36.53h8.82c-2.06,21.23-40.11,18.48-36.47-8.25.05-20.18,34.38-23.72,36.32-3.1h-8.66c-2.31-11.4-18.42-7.79-18.69,3C265,45.37,283.94,48.56,286.4,36.53Z"/><path class="cls-1" d="M115.36,49.88H104.53L91.62,12.74c.53.07,8.23-.72,8.92.26,3.34,9.74,6.82,19.39,9.39,29.37,2.65-10.18,6.15-19.8,9.55-29.72h8.82C124,25.07,119.68,37.45,115.36,49.88Z"/><path class="cls-1" d="M314,19.18H300.89V12.64h34.86v6.53H322.69c-.1,10.24,0,20.46,0,30.69H314Z"/></svg>