<svg width="121" height="36" viewBox="0 0 121 36" fill="none" xmlns="http://www.w3.org/2000/svg">
<g clip-path="url(#clip0)">
<path d="M113.885 7.41507V14.2179H120.556V0.744873L113.885 7.41507Z" fill="white"/>
<path d="M113.885 35.9999L120.556 29.3298V14.9807L113.885 21.6509V35.9999Z" fill="white"/>
<path d="M120.24 0.429199H106.768V7.0994H113.569L120.24 0.429199Z" fill="white"/>
<path d="M99.6504 35.9999L106.321 29.3297V0.744873L99.6504 7.41656V35.9999Z" fill="white"/>
<path d="M106.768 14.6648V21.335H113.569L120.24 14.6648H106.768Z" fill="white"/>
<path d="M6.6702 0L0 6.6702V35.2551L6.6702 28.5849V0Z" fill="white"/>
<path d="M28.4717 35.9999L35.1419 29.3297V0.744873L28.4717 7.41656V35.9999Z" fill="white"/>
<path d="M35.5889 0.429199V7.0994H42.3917L49.0619 0.429199H35.5889Z" fill="white"/>
<path d="M42.707 35.9999L49.3773 29.3297V0.744873L42.707 7.41656V35.9999Z" fill="white"/>
<path d="M56.9434 36L63.6135 29.3298V0L56.9434 6.6702V36Z" fill="white"/>
<path d="M0.31543 35.5708H13.9195L20.5897 28.9006H6.98712L0.31543 35.5708Z" fill="white"/>
<path d="M14.2354 28.4538H20.9056V0L14.2354 6.6702V28.4538Z" fill="white"/>
<path d="M85.415 28.4537H92.0852V14.9807L85.415 21.6509V28.4537Z" fill="white"/>
<path d="M85.415 14.2179H92.0852V0.744873L85.415 7.41507V14.2179Z" fill="white"/>
<path d="M91.7689 0.429199H78.2959V7.0994H85.0972L91.7689 0.429199Z" fill="white"/>
<path d="M77.8489 0.744873L71.1787 7.41656V35.255L77.8489 28.5848V0.744873Z" fill="white"/>
<path d="M71.4951 35.5708H85.0977L91.7694 28.9006H78.1653L71.4951 35.5708Z" fill="white"/>
<path d="M91.7689 14.6648H78.2959V21.335H85.0972L91.7689 14.6648Z" fill="white"/>
</g>
<defs>
<clipPath id="clip0">
<rect width="120.557" height="36" fill="white"/>
</clipPath>
</defs>
</svg>
