<svg width="125" height="54" viewBox="0 0 125 54" fill="none" xmlns="http://www.w3.org/2000/svg">
<g clip-path="url(#clip0)">
<path d="M25.6506 28.6097H10.8389L8.7463 31.8304H23.983C24.4597 30.7177 25.017 29.6412 25.6506 28.6097ZM23.419 33.269H7.78992C6.92345 34.6014 6.08968 35.8603 5.33766 37.021H22.5035C22.6917 35.75 22.9982 34.4994 23.419 33.2854V33.269ZM43.3232 11.3049L44.3123 10.5366H22.5444L22.3073 10.9044L21.4163 12.3185H42.0235L43.3232 11.3049ZM22.3727 41.5495C22.2992 40.5372 22.2992 39.521 22.3727 38.5087H4.38945L1.29142 43.2007H22.6179C22.479 42.6536 22.3861 42.0958 22.34 41.5332L22.3727 41.5495ZM28.7322 24.4409H13.5773L11.7871 27.1792H26.5988C27.2445 26.231 27.9475 25.34 28.6995 24.4245L28.7322 24.4409ZM36.1871 17.125H18.3265C17.8524 17.8606 17.3619 18.629 16.8469 19.4137H33.5714C34.4133 18.629 35.2716 17.8606 36.1544 17.1086L36.1871 17.125ZM23.1656 44.6639H0.49035C-0.776652 47.8436 0.49035 51.7591 3.38402 51.7591H52.0696L53.3693 50.018H34.3316C34.3316 50.018 25.8958 50.2469 23.1656 44.6639ZM39.98 0.237052C35.2952 0.311666 30.7897 2.05011 27.2691 5.14158H53.4674C61.7724 1.56127 68.0338 2.0272 68.0338 2.0272H123.202L125 0L39.98 0.237052ZM32.0346 20.8606H15.8987L14.5336 22.9614H29.9911C30.645 22.2502 31.3235 21.5472 32.0346 20.8606ZM40.2088 13.7735H20.4845C20.1084 14.3621 19.667 14.9833 19.2747 15.6536H37.8955L40.2088 13.7735ZM50.4348 6.61294H25.6914C24.9322 7.38487 24.2223 8.20392 23.5661 9.0652H46.3231C47.6464 8.17101 49.0191 7.35228 50.4348 6.61294Z" fill="white"/>
<path d="M76.3796 19.3728C76.3796 19.3728 79.7065 13.0133 78.4967 9.56379C75.8728 2.14161 57.7996 4.82275 44.067 15.016C37.1352 20.1657 21.5552 35.3126 27.6123 43.4868C32.7539 50.4267 46.9525 43.9282 51.5791 41.5576L49.0451 44.9581L56.974 45.0153L73.911 23.8196H57.0803L50.7862 32.1164H56.6307L56.4427 32.4679C53.4225 34.6839 49.8322 35.9913 46.0942 36.2362C40.1352 36.4978 40.5357 32.2963 47.5001 23.6153C54.4646 14.9342 62.4426 14.7135 64.1592 15.441C65.8758 16.1686 64.8703 19.3728 64.8703 19.3728H76.3796Z" fill="white"/>
<path d="M80.1806 32.3373H68.0583C68.0583 32.3373 65.0747 35.9666 65.0747 39.7513C65.0747 43.5359 69.6114 45.1953 74.6304 45.1953C75.4478 45.1953 84.7255 46.0618 96.3084 38.6559C101.801 35.1328 106.117 31.6179 106.256 26.6153C106.395 21.6127 97.6653 20.4356 97.6653 20.4356C94.6245 19.8961 92.4501 20.0024 92.6381 17.6073C92.8261 15.2123 96.0304 13.8963 98.9732 13.8963C101.425 13.8963 102.014 15.2041 102.014 15.9643C101.909 16.6688 101.688 17.351 101.36 17.9834H112.665C112.665 17.9834 115.387 14.5011 115.387 10.9127C115.387 7.32419 111.251 6.00814 106.69 6.00814C105.929 6.00814 97.1503 5.46047 86.7936 12.7437C86.7936 12.7437 77.6548 19.5937 77.663 24.3756C77.663 29.4109 90.6682 28.9695 90.7417 31.9531C90.7417 34.5443 86.0906 36.5143 82.8945 36.6451C80.4667 36.784 77.3769 36.408 80.1806 32.3373Z" fill="white"/>
<path d="M57.3501 52.3722C55.9768 52.3722 55.233 51.5548 56.3038 49.8628C56.7361 49.1281 57.3457 48.5134 58.0768 48.075C58.8079 47.6367 59.6373 47.3885 60.489 47.3533C61.8623 47.3533 62.6061 48.1707 61.5353 49.8628C61.1013 50.596 60.4913 51.2094 59.7605 51.6476C59.0298 52.0857 58.2013 52.3348 57.3501 52.3722ZM59.8024 48.4077C59.3559 48.4537 58.9281 48.611 58.5582 48.8652C58.1883 49.1194 57.8881 49.4624 57.6852 49.8628C57.3011 50.4676 56.9741 51.3096 58.004 51.3096C58.4521 51.2656 58.8821 51.1102 59.2548 50.8575C59.6274 50.6048 59.9309 50.2628 60.1375 49.8628C60.489 49.2497 60.8487 48.4077 59.8105 48.4077H59.8024Z" fill="white"/>
<path d="M65.7289 52.2413H64.3883L66.2112 49.3477C66.4319 49.0043 66.7752 48.4076 65.9251 48.4076C65.5659 48.4317 65.2184 48.5453 64.9143 48.7381C64.6102 48.9308 64.3591 49.1966 64.184 49.5111L62.4838 52.2413H61.1187L64.0859 47.4758H65.3938L64.9605 48.1787C65.5268 47.6783 66.2489 47.3895 67.0041 47.3613C68.0013 47.3613 68.4428 47.909 67.8215 48.9962L65.7289 52.2413Z" fill="white"/>
<path d="M72.0636 48.9308C72.1944 48.6283 72.2843 48.3013 71.5568 48.3013C70.8293 48.3013 70.5677 48.5629 70.4451 48.7673C69.971 49.5193 73.5022 48.9716 72.4151 50.7291C72.0493 51.2523 71.5586 51.6758 70.9876 51.9613C70.4166 52.2468 69.7834 52.3852 69.1454 52.3639C67.9846 52.3639 66.9629 51.9879 67.7231 50.7291H69.1045C68.8511 51.1296 68.9329 51.4321 69.7748 51.4321C69.9945 51.4522 70.2158 51.4172 70.4185 51.3301C70.6212 51.243 70.7989 51.1067 70.9355 50.9334C71.4342 50.116 67.8947 50.7373 69.0064 48.9553C69.3359 48.4462 69.7892 48.0291 70.3239 47.7432C70.8587 47.4572 71.4573 47.3117 72.0636 47.3204C73.0608 47.3204 74.099 47.5575 73.3715 48.8981L72.0636 48.9308Z" fill="white"/>
<path d="M77.1892 52.2414H75.9059L76.3227 51.5711C75.7543 52.0733 75.029 52.3623 74.271 52.3885C73.2656 52.3885 72.8732 51.849 73.6334 50.6311L75.5871 47.4922H76.9276L75.0721 50.4349C74.6143 51.1706 74.9822 51.3095 75.3909 51.3095C75.7448 51.2891 76.0878 51.1795 76.388 50.9908C76.6881 50.8022 76.9356 50.5406 77.1075 50.2305L78.8159 47.4758H80.1564L77.1892 52.2414Z" fill="white"/>
<path d="M79.968 52.2413H78.6274L82.6328 45.8164H83.9734L79.968 52.2413Z" fill="white"/>
<path d="M85.8699 47.4757H86.6873L86.1314 48.3749H85.314L83.6792 50.9661C83.5075 51.2441 83.4503 51.3503 83.9898 51.3503C84.0877 51.3581 84.1861 51.3581 84.2841 51.3503L83.7201 52.3149H83.0743H82.9026C81.7419 52.3149 81.7828 51.898 82.167 51.2849L83.9735 48.3913H83.2786L83.8427 47.4921H84.5293L85.3467 46.2087H86.6464L85.8699 47.4757Z" fill="white"/>
<path d="M89.0988 47.4757L86.1316 52.2413H84.791L87.7583 47.4757H89.0988ZM89.4503 46.9117H88.1097L88.8372 45.751H90.1778L89.4503 46.9117Z" fill="white"/>
<path d="M92.1557 52.2413H90.8151L92.6134 49.3477C92.8341 49.0043 93.1856 48.4076 92.3273 48.4076C91.9681 48.4317 91.6206 48.5453 91.3165 48.7381C91.0124 48.9308 90.7613 49.1966 90.5862 49.5111L88.886 52.2413H87.5454L90.5127 47.4758H91.796L91.3628 48.1787C91.929 47.6783 92.6511 47.3895 93.4063 47.3613C94.4117 47.3613 94.845 47.909 94.2237 48.9962L92.1557 52.2413Z" fill="white"/>
<path d="M101.164 47.2061L98.4094 51.6365C98.0386 52.3294 97.4759 52.9008 96.7887 53.2821C96.1015 53.6634 95.319 53.8384 94.5348 53.7863C93.4967 53.7863 92.6629 53.3776 93.227 52.3804H94.6574C94.5675 52.6174 94.5267 52.8545 95.2869 52.8545C95.6435 52.8547 95.993 52.7543 96.2952 52.5649C96.5973 52.3755 96.84 52.1047 96.9953 51.7837L97.3467 51.2196C96.8613 51.6629 96.2303 51.913 95.5729 51.9226C94.3713 51.9226 93.9381 51.1052 94.9272 49.4704C95.2845 48.8096 95.7971 48.2457 96.4208 47.827C97.0445 47.4084 97.7606 47.1476 98.5075 47.0671C99.4312 47.0671 99.4966 47.5739 99.4639 47.8846L99.8971 47.1897L101.164 47.2061ZM96.4558 50.8681C96.8691 50.824 97.2649 50.6776 97.6074 50.4421C97.9499 50.2067 98.2284 49.8895 98.4176 49.5194C98.8917 48.7592 98.8753 48.1461 98.1478 48.1461C97.7332 48.2035 97.3394 48.3637 97.0025 48.6121C96.6656 48.8605 96.3961 49.1893 96.2187 49.5684C95.8509 50.1652 95.6383 50.8681 96.4558 50.8681Z" fill="white"/>
</g>
<defs>
<clipPath id="clip0">
<rect width="125" height="53.7863" fill="white"/>
</clipPath>
</defs>
</svg>
