<svg width="375" height="1090" viewBox="0 -200 375 1090" fill="none" xmlns="http://www.w3.org/2000/svg">
<mask id="mask0_4148_3343" style="mask-type:alpha" maskUnits="userSpaceOnUse" x="0" y="-200" width="375" height="1090">
<rect width="375" height="1090" fill="#D9D9D9"/>
</mask>
<g mask="url(#mask0_4148_3343)">
<path fill-rule="evenodd" clip-rule="evenodd" d="M79.9051 137.42C86.8742 137.61 92.0755 143.193 94.0714 149.777C95.9105 155.843 93.7502 162.307 88.5962 166.086C83.256 170.002 76.0592 170.71 70.5596 167.016C64.5224 162.959 60.8866 155.804 63.0578 148.928C65.3025 141.82 72.3538 137.213 79.9051 137.42Z" fill="#018EFF"/>
<path fill-rule="evenodd" clip-rule="evenodd" d="M-2.06696 717.187C8.96743 717.465 17.2026 725.628 20.3625 735.254C23.274 744.123 19.8532 753.576 11.6925 759.102C3.2369 764.827 -8.15798 765.864 -16.8655 760.462C-26.4242 754.531 -32.1804 744.069 -28.7424 734.015C-25.1879 723.621 -14.0231 716.885 -2.06696 717.187Z" fill="#BC48E3"/>
<path fill-rule="evenodd" clip-rule="evenodd" d="M18.1866 0.168561C29.203 0.224898 39.8291 5.71089 43.3419 15.8482C46.9555 26.2767 42.6 37.6649 33.4115 44.1056C24.3209 50.4777 12.1213 50.4477 2.98719 44.1351C-6.42196 37.6324 -11.5298 26.217 -7.85478 15.5864C-4.27813 5.24043 6.94641 0.111079 18.1866 0.168561Z" fill="#1E32B3"/>
<path fill-rule="evenodd" clip-rule="evenodd" d="M-3.47774 228.184C3.49136 228.375 8.69268 233.957 10.6886 240.541C12.5277 246.607 10.3674 253.072 5.21342 256.85C-0.126858 260.766 -7.3236 261.475 -12.8232 257.78C-18.8604 253.724 -22.4962 246.568 -20.325 239.692C-18.0803 232.584 -11.029 227.977 -3.47774 228.184Z" fill="#F5AA00"/>
<path fill-rule="evenodd" clip-rule="evenodd" d="M22.3878 866.171C27.9987 866.314 32.1863 870.498 33.7931 875.432C35.2736 879.978 33.5342 884.823 29.3845 887.655C25.0849 890.589 19.2906 891.121 14.8629 888.352C10.0023 885.312 7.07526 879.95 8.82347 874.797C10.6309 869.469 16.3082 866.017 22.3878 866.171Z" fill="#00D18A"/>
<path fill-rule="evenodd" clip-rule="evenodd" d="M408.913 339.107C408.488 349.31 400.943 357.428 392.46 363.296C384.705 368.66 375.363 370.335 366.021 368.775C355.833 367.074 345.244 363.537 340.315 354.59C335.159 345.231 336.636 333.761 341.491 324.247C346.236 314.947 354.864 308.21 365.163 305.889C375.462 303.568 386.214 305.928 394.582 312.282C403.129 318.771 409.355 328.485 408.913 339.107Z" fill="#FF5A9A"/>
<path fill-rule="evenodd" clip-rule="evenodd" d="M346.228 642.003C346.379 638.447 347.892 635.091 350.057 632.277C352.105 629.615 355 627.855 358.095 626.579C361.096 625.343 364.277 624.821 367.509 625.086C370.895 625.364 374.277 626.124 377.027 628.133C379.918 630.244 382.778 633.055 383.289 636.612C383.79 640.096 380.989 643.037 379.636 646.283C378.456 649.115 377.943 652.231 375.849 654.466C373.628 656.836 370.713 658.427 367.561 659.17C364.221 659.957 360.698 660.002 357.483 658.796C354.133 657.539 351.204 655.266 349.205 652.283C347.18 649.263 346.073 645.643 346.228 642.003Z" fill="#FD280E"/>
</g>
</svg>
