<svg width="1440" height="2009" viewBox="0 -400 1440 2009" fill="none" xmlns="http://www.w3.org/2000/svg">
<mask id="mask0_4148_3342" style="mask-type:alpha" maskUnits="userSpaceOnUse" x="0" y="-400" width="1440" height="2009">
<rect y="-400" width="1440" height="2009" transform="matrix(1 0 0 -1 0 1609)" fill="#D9D9D9"/>
</mask>
<g mask="url(#mask0_4148_3342)">
<path fill-rule="evenodd" clip-rule="evenodd" d="M305.981 302.026C331.877 302.745 351.196 323.499 358.603 347.965C365.427 370.509 357.389 394.528 338.231 408.562C318.381 423.104 291.637 425.725 271.207 411.986C248.779 396.904 235.28 370.31 243.359 344.763C251.712 318.351 277.921 301.246 305.981 302.026Z" fill="#018EFF"/>
<path fill-rule="evenodd" clip-rule="evenodd" d="M1140.89 1435.04C1181.89 1436.09 1212.48 1466.44 1224.2 1502.21C1235.01 1535.17 1222.28 1570.29 1191.95 1590.81C1160.52 1612.08 1118.18 1615.91 1085.83 1595.82C1050.32 1573.77 1028.94 1534.88 1041.74 1497.53C1054.96 1458.91 1096.46 1433.9 1140.89 1435.04Z" fill="#BC48E3"/>
<path fill-rule="evenodd" clip-rule="evenodd" d="M6.25607 0.00208564C47.192 0.228988 86.6692 20.6315 99.7062 58.3067C113.118 97.064 96.9149 139.375 62.7607 163.294C28.9706 186.957 -16.3623 186.826 -50.2942 163.355C-85.2476 139.176 -104.21 96.7491 -90.5368 57.2522C-77.2297 18.813 -35.5118 -0.229428 6.25607 0.00208564Z" fill="#1E32B3"/>
<path fill-rule="evenodd" clip-rule="evenodd" d="M18.981 1014.03C44.8774 1014.75 64.1962 1035.5 71.6025 1059.97C78.4267 1082.51 70.3889 1106.53 51.231 1120.56C31.3807 1135.1 4.63692 1137.73 -15.7934 1123.99C-38.2209 1108.9 -51.7196 1082.31 -43.6407 1056.76C-35.2882 1030.35 -9.0786 1013.25 18.981 1014.03Z" fill="#F5AA00"/>
<path fill-rule="evenodd" clip-rule="evenodd" d="M131.281 1288.01C145.74 1288.42 156.526 1300.1 160.661 1313.88C164.472 1326.57 159.984 1340.1 149.287 1348C138.204 1356.18 123.272 1357.66 111.865 1349.93C99.3434 1341.43 91.8066 1326.46 96.3173 1312.08C100.981 1297.21 115.614 1287.58 131.281 1288.01Z" fill="#00D18A"/>
<path fill-rule="evenodd" clip-rule="evenodd" d="M1540.92 379.74C1539.32 417.653 1511.27 447.808 1479.74 469.598C1450.91 489.518 1416.2 495.727 1381.49 489.917C1343.63 483.58 1304.29 470.419 1285.98 437.163C1266.84 402.377 1272.35 359.76 1290.4 324.413C1308.05 289.862 1340.12 264.843 1378.4 256.235C1416.67 247.626 1456.62 256.413 1487.71 280.037C1519.46 304.164 1542.58 340.269 1540.92 379.74Z" fill="#FF5A9A"/>
<path fill-rule="evenodd" clip-rule="evenodd" d="M1360.05 967.08C1360.62 953.866 1366.25 941.399 1374.3 930.944C1381.91 921.057 1392.67 914.52 1404.18 909.785C1415.33 905.196 1427.15 903.262 1439.16 904.253C1451.74 905.291 1464.31 908.121 1474.52 915.589C1485.26 923.44 1495.89 933.889 1497.78 947.108C1499.64 960.053 1489.22 970.977 1484.19 983.037C1479.8 993.56 1477.89 1005.14 1470.1 1013.44C1461.85 1022.24 1451.02 1028.15 1439.3 1030.9C1426.89 1033.83 1413.8 1033.99 1401.85 1029.5C1389.41 1024.82 1378.52 1016.37 1371.1 1005.29C1363.58 994.059 1359.47 980.605 1360.05 967.08Z" fill="#FD280E"/>
</g>
</svg>
